<?xml version="1.0" standalone="no"?><!DOCTYPE svg PUBLIC "-//W3C//DTD SVG 1.1//EN" "http://www.w3.org/Graphics/SVG/1.1/DTD/svg11.dtd"><svg width="100%" height="100%" viewBox="0 0 573 1202" version="1.1" xmlns="http://www.w3.org/2000/svg" xmlns:xlink="http://www.w3.org/1999/xlink" xml:space="preserve" style="fill-rule:evenodd;clip-rule:evenodd;stroke-linejoin:round;stroke-miterlimit:1.41421;"><g id="iPhone 5s Gold"><g id="Frame"><g id="Button"><path id="Power Button" d="M384.75,2.25l0,6.75l91.5,0l0,-6.75l-2.993,-2.25l-85.5,0l-3.007,2.25Z" style="fill:#c7b78c;"/><path id="Volume Down Button" d="M2.25,384l-2.25,2.25l0,37.5l2.25,2.25l6.75,0l0,-42l-6.75,0Z" style="fill:#c7b78c;"/><path id="Volume Up Button" d="M2.25,284.25l-2.25,2.25l0,37.5l2.25,2.25l6.75,0l0,-42l-6.75,0Z" style="fill:#c7b78c;"/><path id="Mute Switch" d="M2.25,171l-2.25,2.25l0,50.25l2.25,2.25l6.75,0l0,-54.75l-6.75,0Z" style="fill:#c7b78c;"/></g><path id="Frame1" d="M6.75,90.757c0,-22.44 8.753,-43.537 24.637,-59.407c15.886,-15.862 36.998,-24.6 59.46,-24.6l397.306,0c22.462,0 43.574,8.738 59.46,24.6c15.892,15.87 24.637,36.967 24.637,59.407l0,1026.73c0,22.441 -8.745,43.54 -24.637,59.408c-15.886,15.865 -36.998,24.602 -59.46,24.602l-397.306,0c-22.462,0 -43.575,-8.737 -59.46,-24.602c-15.885,-15.868 -24.637,-36.967 -24.637,-59.408l0,-1026.73Z" style="fill:#c7b78c;"/></g><g id="Body"><path id="Front" d="M90.847,13.495l397.306,0c42.652,0 77.347,34.659 77.347,77.262l0,1025.98c0,42.6 -34.695,77.257 -77.347,77.257l-397.306,0c-42.645,0 -77.347,-34.657 -77.347,-77.257l0,-1025.98c0,-42.603 34.702,-77.262 77.347,-77.262Z" style="fill:#f7f7f7;"/><path id="Home Button" d="M289.168,1063.17c28.148,0 51,22.853 51,51c0,28.148 -22.852,51 -51,51c-28.147,0 -51,-22.852 -51,-51c0,-28.147 22.853,-51 51,-51ZM289.168,1069.24c24.796,0 44.926,20.13 44.926,44.925c0,24.796 -20.13,44.926 -44.926,44.926c-24.795,0 -44.925,-20.13 -44.925,-44.926c0,-24.795 20.13,-44.925 44.925,-44.925Z" style="fill:#c7b78c;"/><g id="Screen"><path id="Screen Frame" d="M48.75,1035.75c-0.618,-0.098 -1.259,-0.1 -1.854,-0.294c-1.205,-0.391 -2.255,-1.154 -3,-2.179c-0.368,-0.507 -0.659,-1.078 -0.852,-1.673c-0.194,-0.595 -0.196,-1.236 -0.294,-1.854l0,-852c0.098,-0.618 0.1,-1.259 0.294,-1.854c0.391,-1.205 1.154,-2.255 2.179,-3c0.507,-0.368 1.078,-0.659 1.673,-0.852c0.595,-0.194 1.236,-0.196 1.854,-0.294l480,0c0.618,0.098 1.259,0.1 1.854,0.294c1.205,0.391 2.255,1.154 3,2.179c0.368,0.507 0.659,1.078 0.852,1.673c0.194,0.595 0.196,1.236 0.294,1.854l0,852c-0.098,0.618 -0.1,1.259 -0.294,1.854c-0.391,1.205 -1.154,2.255 -2.179,3c-0.507,0.368 -1.078,0.659 -1.673,0.852c-0.595,0.194 -1.236,0.196 -1.854,0.294c-160,0 -320,0 -480,0Z" style="fill:#3e3e3e;"/><rect id="Screen1" x="48.75" y="177.75" width="480" height="852" style="fill:#000;"/></g><g id="Top Sensors"><path id="Speaker" d="M246.75,103.5l82.5,0c3.307,0 6,2.692 6,6c0,3.308 -2.693,6 -6,6l-82.5,0c-3.307,0 -6,-2.692 -6,-6c0,-3.308 2.693,-6 6,-6Z" style="fill:#3e3e3e;"/><path id="Light Sensor" d="M210.345,102.717c3.953,0 7.155,3.204 7.155,7.156c0,3.951 -3.202,7.156 -7.155,7.156c-3.953,-0.001 -7.155,-3.205 -7.155,-7.156c0,-3.952 3.202,-7.156 7.155,-7.156Z" style="fill:#3e3e3e;"/><path id="Camera" d="M288.75,54.475c5.798,0 10.5,4.701 10.5,10.5c0,5.799 -4.702,10.5 -10.5,10.5c-5.798,0 -10.5,-4.701 -10.5,-10.5c0,-5.799 4.702,-10.5 10.5,-10.5Z" style="fill:#3e3e3e;"/></g></g></g></svg>