<?xml version="1.0" standalone="no"?><!DOCTYPE svg PUBLIC "-//W3C//DTD SVG 1.1//EN" "http://www.w3.org/Graphics/SVG/1.1/DTD/svg11.dtd"><svg width="100%" height="100%" viewBox="0 0 573 1202" version="1.1" xmlns="http://www.w3.org/2000/svg" xmlns:xlink="http://www.w3.org/1999/xlink" xml:space="preserve" style="fill-rule:evenodd;clip-rule:evenodd;stroke-linejoin:round;stroke-miterlimit:1.41421;"><g id="iPhone 5 White"><g id="Frame"><g id="Button"><path id="Power Button" d="M384.75,2.25l0,6.75l91.5,0l0,-6.75l-2.993,-2.25l-85.5,0l-3.007,2.25Z" style="fill:#d5d2cf;"/><path id="Volume Down Button" d="M2.25,384l-2.25,2.25l0,37.5l2.25,2.25l6.75,0l0,-42l-6.75,0Z" style="fill:#d5d2cf;"/><path id="Volume Up Button" d="M2.25,284.25l-2.25,2.25l0,37.5l2.25,2.25l6.75,0l0,-42l-6.75,0Z" style="fill:#d5d2cf;"/><path id="Mute Switch" d="M2.25,171l-2.25,2.25l0,50.25l2.25,2.25l6.75,0l0,-54.75l-6.75,0Z" style="fill:#d5d2cf;"/></g><path id="Frame1" d="M6.75,90.757c0,-22.44 8.753,-43.537 24.637,-59.407c15.886,-15.862 36.998,-24.6 59.46,-24.6l397.306,0c22.462,0 43.574,8.738 59.46,24.6c15.892,15.87 24.637,36.967 24.637,59.407l0,1026.73c0,22.441 -8.745,43.54 -24.637,59.408c-15.886,15.865 -36.998,24.602 -59.46,24.602l-397.306,0c-22.462,0 -43.575,-8.737 -59.46,-24.602c-15.885,-15.868 -24.637,-36.967 -24.637,-59.408l0,-1026.73Z" style="fill:#d5d2cf;"/></g><g id="Body"><path id="Front" d="M90.847,13.495l397.306,0c42.652,0 77.347,34.659 77.347,77.262l0,1025.98c0,42.6 -34.695,77.257 -77.347,77.257l-397.306,0c-42.645,0 -77.347,-34.657 -77.347,-77.257l0,-1025.98c0,-42.603 34.702,-77.262 77.347,-77.262Z" style="fill:#f7f7f7;"/><g id="Home Button"><path id="Home Button Circle" d="M289.168,1063.17c28.148,0 51,22.853 51,51c0,28.148 -22.852,51 -51,51c-28.147,0 -51,-22.852 -51,-51c0,-28.147 22.853,-51 51,-51ZM289.168,1066.97c26.049,0 47.197,21.148 47.197,47.196c0,26.049 -21.148,47.197 -47.197,47.197c-26.048,0 -47.196,-21.148 -47.196,-47.197c0,-26.048 21.148,-47.196 47.196,-47.196Z" style="fill:#d5d2cf;"/><path id="Rounded Rectangle Symbol" d="M277.03,1132.54c-0.239,-0.001 -0.478,-0.013 -0.715,-0.04c-0.462,-0.053 -0.918,-0.158 -1.356,-0.312c-0.854,-0.301 -1.637,-0.79 -2.285,-1.423c-0.665,-0.649 -1.182,-1.445 -1.502,-2.318c-0.159,-0.436 -0.27,-0.889 -0.328,-1.35c-0.031,-0.236 -0.045,-0.474 -0.05,-0.713c-0.052,-8.145 -0.052,-16.292 0,-24.437c0.005,-0.239 0.019,-0.477 0.05,-0.714c0.058,-0.46 0.169,-0.913 0.328,-1.349c0.32,-0.873 0.837,-1.669 1.502,-2.319c0.648,-0.632 1.431,-1.121 2.285,-1.422c0.438,-0.154 0.894,-0.259 1.356,-0.312c0.211,-0.024 0.422,-0.036 0.635,-0.04c8.145,-0.052 16.292,-0.052 24.437,0c0.239,0.005 0.477,0.019 0.713,0.05c0.461,0.058 0.914,0.169 1.35,0.328c0.873,0.32 1.669,0.837 2.318,1.502c0.633,0.648 1.122,1.431 1.423,2.285c0.154,0.438 0.259,0.894 0.312,1.356c0.024,0.211 0.036,0.422 0.04,0.635c0.052,8.145 0.052,16.292 0,24.437c-0.005,0.239 -0.02,0.477 -0.05,0.713c-0.058,0.461 -0.169,0.914 -0.328,1.35c-0.32,0.873 -0.838,1.669 -1.502,2.318c-0.648,0.633 -1.431,1.122 -2.285,1.423c-0.438,0.154 -0.894,0.259 -1.356,0.312c-0.211,0.024 -0.422,0.036 -0.635,0.04c-8.119,0.051 -16.238,0 -24.357,0ZM277.045,1128.42c8.115,0 16.234,0.255 24.346,-0.001c0.063,-0.003 0.126,-0.008 0.188,-0.016c0.214,-0.028 0.421,-0.087 0.617,-0.178c0.503,-0.235 0.905,-0.671 1.096,-1.192c0.081,-0.224 0.122,-0.459 0.126,-0.696c0.052,-8.129 0.258,-16.263 -0.001,-24.389c-0.01,-0.218 -0.05,-0.434 -0.125,-0.64c-0.213,-0.58 -0.684,-1.048 -1.264,-1.262c-0.221,-0.081 -0.456,-0.121 -0.691,-0.125c-8.13,-0.047 -16.265,-0.267 -24.391,0.001c-0.217,0.01 -0.433,0.049 -0.637,0.124c-0.571,0.211 -1.038,0.669 -1.255,1.238c-0.087,0.231 -0.131,0.474 -0.135,0.72c-0.05,8.13 -0.255,16.264 0.001,24.389c0.011,0.236 0.057,0.468 0.144,0.688c0.204,0.517 0.616,0.942 1.125,1.165c0.205,0.091 0.424,0.145 0.648,0.166c0.069,0.006 0.138,0.008 0.208,0.008Z" style="fill:#d5d2cf;fill-rule:nonzero;"/></g><g id="Screen"><path id="Screen Frame" d="M48.75,1035.75c-0.618,-0.098 -1.259,-0.1 -1.854,-0.294c-1.205,-0.391 -2.255,-1.154 -3,-2.179c-0.368,-0.507 -0.659,-1.078 -0.852,-1.673c-0.194,-0.595 -0.196,-1.236 -0.294,-1.854l0,-852c0.098,-0.618 0.1,-1.259 0.294,-1.854c0.391,-1.205 1.154,-2.255 2.179,-3c0.507,-0.368 1.078,-0.659 1.673,-0.852c0.595,-0.194 1.236,-0.196 1.854,-0.294l480,0c0.618,0.098 1.259,0.1 1.854,0.294c1.205,0.391 2.255,1.154 3,2.179c0.368,0.507 0.659,1.078 0.852,1.673c0.194,0.595 0.196,1.236 0.294,1.854l0,852c-0.098,0.618 -0.1,1.259 -0.294,1.854c-0.391,1.205 -1.154,2.255 -2.179,3c-0.507,0.368 -1.078,0.659 -1.673,0.852c-0.595,0.194 -1.236,0.196 -1.854,0.294c-160,0 -320,0 -480,0Z" style="fill:#3e3e3e;"/><rect id="Screen1" x="48.75" y="177.75" width="480" height="852" style="fill:#000;"/><path d="M48.75,1035.75l-1.854,-0.294l-1.673,-0.852l-1.327,-1.327l-0.852,-1.673l-0.294,-1.854l0,-852l0.294,-1.854l0.852,-1.673l1.327,-1.327l1.673,-0.852l1.854,-0.294l480,0l1.854,0.294l1.673,0.852l1.327,1.327l0.852,1.673l0.294,1.854l0,852l-0.294,1.854l-0.852,1.673l-1.327,1.327l-1.673,0.852l-1.854,0.294l-480,0ZM48.75,1029.75l480,0l0,-852l-480,0l0,852Z" style="fill:#3e3e3e;"/></g><g id="Top Sensors"><path id="Speaker" d="M246.75,103.5l82.5,0c3.307,0 6,2.692 6,6c0,3.308 -2.693,6 -6,6l-82.5,0c-3.307,0 -6,-2.692 -6,-6c0,-3.308 2.693,-6 6,-6Z" style="fill:#3e3e3e;"/><path id="Light Sensor" d="M210.345,102.717c3.953,0 7.155,3.204 7.155,7.156c0,3.951 -3.202,7.156 -7.155,7.156c-3.953,-0.001 -7.155,-3.205 -7.155,-7.156c0,-3.952 3.202,-7.156 7.155,-7.156Z" style="fill:#3e3e3e;"/><path id="Camera" d="M288.75,54.475c5.798,0 10.5,4.701 10.5,10.5c0,5.799 -4.702,10.5 -10.5,10.5c-5.798,0 -10.5,-4.701 -10.5,-10.5c0,-5.799 4.702,-10.5 10.5,-10.5Z" style="fill:#3e3e3e;"/></g></g></g></svg>