<?xml version="1.0" standalone="no"?><!DOCTYPE svg PUBLIC "-//W3C//DTD SVG 1.1//EN" "http://www.w3.org/Graphics/SVG/1.1/DTD/svg11.dtd"><svg width="100%" height="100%" viewBox="0 0 13000 10000" version="1.1" xmlns="http://www.w3.org/2000/svg" xmlns:xlink="http://www.w3.org/1999/xlink" xml:space="preserve" style="fill-rule:evenodd;clip-rule:evenodd;stroke-linejoin:round;stroke-miterlimit:1.41421;"><g id="iPad"><rect id="Background" x="0" y="0" width="13000" height="10000" style="fill:#3498db;"/><g id="iPad Mini 3/4"><g id="iPad Mini 3-4 Gold"><path id="Frame" d="M12553.9,9493.51c0,73.026 -54.751,126.876 -126.889,126.876l-93.496,0l-1299.29,0l-93.433,0c-72.138,0 -126.888,-53.85 -126.888,-126.876l0,-2324.26c0,-73.027 54.75,-126.874 126.888,-126.874l1486.22,0c72.138,0 126.889,53.847 126.889,126.874l0,2324.26Z" style="fill:#c7b78c;"/><g id="Body"><path id="Body1" d="M12542.3,7170.28c-0.373,11.816 -0.373,2310.28 0,2322.09c0,30.744 -10.69,60.72 -33.244,83.148c-22.552,22.429 -52.445,33.044 -83.011,33.044l-1484.75,0c-30.566,0 -60.459,-10.615 -83.012,-33.044c-22.553,-22.428 -33.243,-52.404 -33.243,-83.148c0.372,-11.816 0.372,-2310.28 0,-2322.09c0,-30.744 10.69,-60.72 33.243,-83.148c22.553,-22.429 52.446,-33.044 83.012,-33.044l1484.75,0c30.566,0 60.459,10.615 83.011,33.044c22.554,22.428 33.244,52.404 33.244,83.148Z" style="fill:#f3f5f7;"/><path id="Home Button" d="M11683.7,9434.32c34.214,0 62.05,27.836 62.05,62.05c0,34.214 -27.836,62.049 -62.05,62.049c-34.213,0 -62.049,-27.835 -62.049,-62.049c0,-34.214 27.836,-62.05 62.049,-62.05M11683.7,9423.87c-40.04,0 -72.5,32.459 -72.5,72.5c0,40.039 32.46,72.5 72.5,72.5c40.04,0 72.5,-32.461 72.5,-72.5c0,-40.041 -32.46,-72.5 -72.5,-72.5l0,0Z" style="fill:#c7b78c;"/><g id="Screen"><path id="Screen Frame" d="M10915.9,9362.36c-0.824,-0.131 -1.678,-0.134 -2.472,-0.392c-1.606,-0.522 -3.007,-1.539 -4,-2.906c-0.49,-0.675 -0.878,-1.436 -1.136,-2.23c-0.258,-0.793 -0.261,-1.648 -0.392,-2.472l0,-2047.96c0.131,-0.824 0.134,-1.678 0.392,-2.472c0.258,-0.793 0.646,-1.555 1.136,-2.23c0.993,-1.367 2.394,-2.384 4,-2.906c0.794,-0.258 1.648,-0.261 2.472,-0.392l1536,0c0.824,0.131 1.679,0.134 2.472,0.392c0.794,0.258 1.555,0.646 2.23,1.136c1.367,0.993 2.384,2.394 2.906,4c0.258,0.794 0.261,1.648 0.392,2.472l0,2047.96c-0.131,0.824 -0.134,1.679 -0.392,2.472c-0.522,1.607 -1.539,3.007 -2.906,4c-0.675,0.49 -1.436,0.879 -2.23,1.136c-0.793,0.258 -1.648,0.261 -2.472,0.392c-512,0 -1024,0 -1536,0Z" style="fill:#3e3e3e;"/><rect id="Screen - Off" x="10915.9" y="7306.4" width="1536" height="2047.96" style="fill:#000;"/></g><g id="Top Sensors"><path id="Microphone" d="M11635.9,7176.32c4.418,0 8,3.582 8,8.001c0,4.418 -3.582,7.999 -8,7.999c-4.419,0 -8,-3.581 -8,-7.999c0,-4.419 3.581,-8.001 8,-8.001Z" style="fill:#e0e0e0;"/><path d="M11635.9,7176.32c4.418,0 8,3.582 8,8.001c0,4.418 -3.582,7.999 -8,7.999c-4.419,0 -8,-3.581 -8,-7.999c0,-4.419 3.581,-8.001 8,-8.001Z" style="fill:#e0e0e0;"/><path id="Camera" d="M11683.9,7166.36c8.837,0 16,7.163 16,16c0,8.836 -7.163,16 -16,16c-8.835,0 -16,-7.164 -16,-16c0,-8.837 7.165,-16 16,-16Z" style="fill:#3e3e3e;"/></g></g></g><g id="iPad Mini 3-4 Silver"><path id="Frame1" d="M10690.9,9493.6c0,73.026 -54.751,126.875 -126.889,126.875l-93.496,0l-1299.29,0l-93.433,0c-72.138,0 -126.888,-53.849 -126.888,-126.875l0,-2324.26c0,-73.027 54.75,-126.874 126.888,-126.874l1486.22,0c72.138,0 126.889,53.847 126.889,126.874l0,2324.26Z" style="fill:#d5d2cf;"/><g id="Body2"><path id="Body3" d="M10679.3,7170.38c-0.373,11.817 -0.373,2310.28 0,2322.09c0,30.745 -10.69,60.721 -33.244,83.148c-22.552,22.429 -52.445,33.044 -83.011,33.044l-1484.75,0c-30.566,0 -60.459,-10.615 -83.012,-33.044c-22.553,-22.427 -33.243,-52.403 -33.243,-83.148c0.372,-11.816 0.372,-2310.28 0,-2322.09c0,-30.744 10.69,-60.72 33.243,-83.148c22.553,-22.429 52.446,-33.044 83.012,-33.044l1484.75,0c30.566,0 60.459,10.615 83.011,33.044c22.554,22.428 33.244,52.404 33.244,83.148Z" style="fill:#f3f5f7;"/><path id="Home Button1" d="M9820.69,9434.42c34.214,0 62.05,27.835 62.05,62.049c0,34.214 -27.836,62.05 -62.05,62.05c-34.213,0 -62.049,-27.836 -62.049,-62.05c0,-34.214 27.836,-62.049 62.049,-62.049M9820.69,9423.97c-40.04,0 -72.5,32.459 -72.5,72.5c0,40.039 32.46,72.5 72.5,72.5c40.04,0 72.5,-32.461 72.5,-72.5c0,-40.041 -32.46,-72.5 -72.5,-72.5l0,0Z" style="fill:#d5d2cf;"/><g id="Screen1"><path id="Screen Frame1" d="M9052.85,9362.45c-0.824,-0.13 -1.678,-0.134 -2.472,-0.391c-1.606,-0.522 -3.007,-1.54 -4,-2.907c-0.49,-0.675 -0.878,-1.436 -1.136,-2.23c-0.258,-0.793 -0.261,-1.648 -0.392,-2.472l0,-2047.96c0.131,-0.824 0.134,-1.679 0.392,-2.472c0.258,-0.794 0.646,-1.556 1.136,-2.231c0.993,-1.366 2.394,-2.384 4,-2.906c0.794,-0.258 1.648,-0.261 2.472,-0.391l1536,0c0.824,0.13 1.679,0.133 2.472,0.391c0.794,0.258 1.555,0.646 2.23,1.137c1.367,0.993 2.384,2.393 2.906,4c0.258,0.793 0.261,1.648 0.392,2.472l0,2047.96c-0.131,0.824 -0.134,1.679 -0.392,2.472c-0.522,1.607 -1.539,3.007 -2.906,4c-0.675,0.491 -1.436,0.879 -2.23,1.137c-0.793,0.257 -1.648,0.261 -2.472,0.391c-512,0 -1024,0 -1536,0Z" style="fill:#3e3e3e;"/><rect id="Screen - Off1" x="9052.85" y="7306.49" width="1536" height="2047.96" style="fill:#000;"/></g><g id="Top Sensors1"><path id="Microphone1" d="M9772.85,7176.42c4.418,0 8,3.581 8,8c0,4.418 -3.582,8 -8,8c-4.419,0 -8,-3.582 -8,-8c0,-4.419 3.581,-8 8,-8Z" style="fill:#e0e0e0;"/><path d="M9772.85,7176.42c4.418,0 8,3.581 8,8c0,4.418 -3.582,8 -8,8c-4.419,0 -8,-3.582 -8,-8c0,-4.419 3.581,-8 8,-8Z" style="fill:#e0e0e0;"/><path id="Camera1" d="M9820.85,7166.46c8.837,0 16,7.163 16,16c0,8.837 -7.163,16 -16,16c-8.835,0 -16,-7.163 -16,-16c0,-8.837 7.165,-16 16,-16Z" style="fill:#3e3e3e;"/></g></g></g><g id="iPad Mini 3-4 Space Gray"><path id="Frame2" d="M8822.85,9493.56c0,73.026 -54.751,126.876 -126.889,126.876l-93.496,0l-1299.29,0l-93.433,0c-72.138,0 -126.888,-53.85 -126.888,-126.876l0,-2324.26c0,-73.027 54.75,-126.874 126.888,-126.874l1486.22,0c72.138,0 126.889,53.847 126.889,126.874l0,2324.26Z" style="fill:#343438;"/><g id="Body4"><path id="Body5" d="M8811.32,7170.33c-0.373,11.816 -0.373,2310.28 0,2322.09c0,30.744 -10.69,60.72 -33.244,83.148c-22.552,22.428 -52.445,33.044 -83.011,33.044l-1484.75,0c-30.566,0 -60.459,-10.616 -83.012,-33.044c-22.553,-22.428 -33.243,-52.404 -33.243,-83.148c0.372,-11.817 0.372,-2310.28 0,-2322.09c0,-30.745 10.69,-60.721 33.243,-83.148c22.553,-22.429 52.446,-33.044 83.012,-33.044l1484.75,0c30.566,0 60.459,10.615 83.011,33.044c22.554,22.427 33.244,52.403 33.244,83.148Z" style="fill:#141414;"/><path id="Home Button2" d="M7952.69,9434.42c34.214,0 62.05,27.835 62.05,62.049c0,34.214 -27.836,62.05 -62.05,62.05c-34.213,0 -62.049,-27.836 -62.049,-62.05c0,-34.214 27.836,-62.049 62.049,-62.049M7952.69,9423.97c-40.04,0 -72.5,32.459 -72.5,72.5c0,40.039 32.46,72.5 72.5,72.5c40.04,0 72.5,-32.461 72.5,-72.5c0,-40.041 -32.46,-72.5 -72.5,-72.5l0,0Z" style="fill:#343438;"/><g id="Screen2"><path id="Screen Frame2" d="M7184.85,9362.41c-0.824,-0.131 -1.678,-0.134 -2.472,-0.392c-1.606,-0.522 -3.007,-1.539 -4,-2.906c-0.49,-0.675 -0.878,-1.437 -1.136,-2.23c-0.258,-0.794 -0.261,-1.648 -0.392,-2.472l0,-2047.96c0.131,-0.824 0.134,-1.679 0.392,-2.472c0.258,-0.794 0.646,-1.555 1.136,-2.23c0.993,-1.367 2.394,-2.384 4,-2.906c0.794,-0.258 1.648,-0.261 2.472,-0.392l1536,0c0.824,0.131 1.679,0.134 2.472,0.392c0.794,0.257 1.555,0.646 2.23,1.136c1.367,0.993 2.384,2.393 2.906,4c0.258,0.793 0.261,1.648 0.392,2.472l0,2047.96c-0.131,0.824 -0.134,1.678 -0.392,2.472c-0.522,1.606 -1.539,3.007 -2.906,4c-0.675,0.49 -1.436,0.878 -2.23,1.136c-0.793,0.258 -1.648,0.261 -2.472,0.392c-512,0 -1024,0 -1536,0Z" style="fill:#141414;"/><rect id="Screen - Off2" x="7184.85" y="7306.44" width="1536" height="2047.96" style="fill:#141414;"/></g><g id="Top Sensors2"><path id="Camera2" d="M7952.85,7166.41c8.837,0 16,7.163 16,16.001c0,8.836 -7.163,15.999 -16,15.999c-8.835,0 -16,-7.163 -16,-15.999c0,-8.838 7.165,-16.001 16,-16.001Z" style="fill:#1d1d1d;"/></g></g></g><path id="iPad Mini 3/41" d="M9622.15,6717.78c-2.16,0 -3.888,1.728 -3.888,3.888c0,2.16 1.728,3.888 3.888,3.888c2.16,0 3.888,-1.728 3.888,-3.888c0,-2.16 -1.728,-3.888 -3.888,-3.888ZM9619.7,6808.36l4.896,0l0,-68.256l-4.896,0l0,68.256Z" style="fill:#fff;fill-rule:nonzero;"/><path d="M9649.37,6808.36l4.896,0l0,-43.632c2.592,0.288 5.616,0.432 8.208,0.432c19.44,0 37.152,-10.8 37.152,-30.24c0,-15.12 -10.656,-27.072 -34.704,-27.072c-4.752,0 -9.936,0.432 -15.552,1.728l0,98.784ZM9654.26,6713.46c4.176,-0.72 7.776,-1.008 10.944,-1.008c20.736,0 28.944,9.36 28.944,23.184c0,14.544 -13.104,25.056 -33.408,25.056c-1.728,0 -4.608,-0.288 -6.48,-0.576l0,-46.656Z" style="fill:#fff;fill-rule:nonzero;"/><path d="M9716.76,6748.31c5.76,-3.456 11.52,-5.184 16.56,-5.184c10.08,0 17.424,4.752 17.424,16.56l0,9.072c-3.312,-0.72 -6.336,-1.008 -10.656,-1.008c-14.832,0 -29.088,7.344 -29.088,23.328c0,11.808 8.928,18.72 18.288,18.72c8.784,0 17.568,-4.752 21.6,-15.12l0.576,13.68l4.176,0l0,-49.536c0,-13.104 -8.784,-20.16 -20.88,-20.16c-7.344,0 -12.96,1.584 -18.288,4.896l0.288,4.752ZM9750.74,6780.28c0,16.416 -10.08,25.056 -19.584,25.056c-8.352,0 -14.976,-5.616 -14.976,-15.12c0,-9.792 9.36,-18 23.472,-18c4.032,0 7.776,0.288 11.088,0.864l0,7.2Z" style="fill:#fff;fill-rule:nonzero;"/><path d="M9830.37,6702.52l-4.896,0l0,51.984c-3.312,-10.368 -12.816,-15.84 -21.6,-15.84c-14.688,0 -29.088,12.672 -29.088,36.288c0,19.872 10.224,34.848 27.504,34.848c11.232,0 20.304,-8.064 23.328,-17.28l0.576,15.84l4.176,0l0,-105.84ZM9825.48,6780.42c0,11.952 -9.792,24.912 -22.032,24.912c-16.992,0 -23.472,-15.84 -23.472,-30.96c0,-22.032 13.248,-31.248 24.336,-31.248c11.088,0 21.168,10.656 21.168,24.48l0,12.816Z" style="fill:#fff;fill-rule:nonzero;"/><path d="M9897.33,6709.29l-7.776,0l-1.584,99.072l4.896,0l0.864,-68.832c0.144,-8.352 0.144,-16.56 -0.144,-27.36c3.6,10.8 6.624,19.008 9.792,27.36l25.344,67.68l6.48,0l26.064,-67.68c3.168,-8.352 6.336,-16.56 9.792,-26.208c-0.144,9.648 -0.144,17.856 0,26.208l1.008,68.832l5.184,0l-1.584,-99.072l-7.92,0l-27.648,72.144c-2.736,7.056 -5.328,14.256 -7.776,21.456c-2.304,-7.2 -4.896,-14.4 -7.632,-21.456l-27.36,-72.144Z" style="fill:#fff;fill-rule:nonzero;"/><path d="M10003.3,6717.78c-2.16,0 -3.888,1.728 -3.888,3.888c0,2.16 1.728,3.888 3.888,3.888c2.16,0 3.888,-1.728 3.888,-3.888c0,-2.16 -1.728,-3.888 -3.888,-3.888ZM10000.9,6808.36l4.896,0l0,-68.256l-4.896,0l0,68.256Z" style="fill:#fff;fill-rule:nonzero;"/><path d="M10034.1,6740.1l-4.176,0l0,68.256l4.896,0l0,-40.608c0,-11.088 8.496,-24.48 20.592,-24.48c11.376,0 17.856,8.064 17.856,21.024l0,44.064l4.896,0l0,-46.08c0,-13.248 -7.632,-23.616 -22.176,-23.616c-9.936,0 -18.432,7.056 -21.168,16.128l-0.72,-14.688Z" style="fill:#fff;fill-rule:nonzero;"/><path d="M10104.3,6717.78c-2.16,0 -3.888,1.728 -3.888,3.888c0,2.16 1.728,3.888 3.888,3.888c2.16,0 3.888,-1.728 3.888,-3.888c0,-2.16 -1.728,-3.888 -3.888,-3.888ZM10101.8,6808.36l4.896,0l0,-68.256l-4.896,0l0,68.256Z" style="fill:#fff;fill-rule:nonzero;"/><path d="M10165.6,6723.54c5.76,-4.896 12.384,-7.344 18.288,-7.344c14.112,0 20.448,7.632 20.448,18.432c0,13.104 -13.536,22.176 -28.944,22.752l0,4.608c20.016,0 29.376,9.216 29.376,22.464c0,11.952 -10.512,20.736 -23.472,20.736c-7.2,0 -13.392,-1.728 -20.304,-6.48l-0.432,5.184c5.472,4.176 12.384,5.904 20.16,5.904c16.416,0 29.232,-11.088 29.232,-25.776c0,-13.68 -9.36,-23.328 -24.192,-25.056c12.528,-2.448 23.76,-12.528 23.76,-25.488c0,-12.096 -8.64,-21.888 -24.192,-21.888c-8.208,0 -14.832,2.592 -20.016,6.768l0.288,5.184Z" style="fill:#fff;fill-rule:nonzero;"/><path d="M10223.5,6822.33l49.392,-121.824l-4.752,0l-49.248,121.824l4.608,0Z" style="fill:#fff;fill-rule:nonzero;"/><path d="M10322.1,6776.25l0,-63.216l-6.048,0l-36.576,64.368l0,3.456l37.728,0l0,27.36l4.896,0l0,-27.36l12.672,0l0,-4.608l-12.672,0ZM10285.7,6776.25l32.112,-58.176c-0.576,11.52 -0.576,25.92 -0.576,33.12l0,25.056l-31.536,0Z" style="fill:#fff;fill-rule:nonzero;"/></g><g id="iPad Mini 2"><g id="iPad Mini 2 Silver"><path id="Frame3" d="M12556.5,6240.74c0,73.026 -54.751,126.876 -126.889,126.876l-93.496,0l-1299.29,0l-93.433,0c-72.138,0 -126.888,-53.85 -126.888,-126.876l0,-2324.26c0,-73.026 54.75,-126.873 126.888,-126.873l1486.22,0c72.138,0 126.889,53.847 126.889,126.873l0,2324.26Z" style="fill:#d5d2cf;"/><g id="Body6"><path id="Body7" d="M12545,3917.51c-0.373,11.817 -0.373,2310.28 0,2322.09c0,30.744 -10.691,60.721 -33.244,83.148c-22.552,22.429 -52.445,33.044 -83.011,33.044l-1484.75,0c-30.566,0 -60.459,-10.615 -83.012,-33.044c-22.553,-22.427 -33.243,-52.404 -33.243,-83.148c0.372,-11.816 0.372,-2310.28 0,-2322.09c0,-30.744 10.69,-60.72 33.243,-83.148c22.553,-22.429 52.446,-33.044 83.012,-33.044l1484.75,0c30.566,0 60.459,10.615 83.011,33.044c22.553,22.428 33.244,52.404 33.244,83.148Z" style="fill:#f3f5f7;"/><g id="Home Button3"><path id="Home Button Circle" d="M11686.4,6175.65c37.531,0 68,30.469 68,68c0,37.53 -30.469,68 -68,68c-37.53,0 -68,-30.47 -68,-68c0,-37.531 30.47,-68 68,-68ZM11686.4,6180.72c34.732,0 62.929,28.197 62.929,62.929c0,34.731 -28.197,62.928 -62.929,62.928c-34.731,0 -62.928,-28.197 -62.928,-62.928c0,-34.732 28.197,-62.929 62.928,-62.929Z" style="fill:#d5d2cf;"/><path id="Rounded Rectangle Symbol" d="M11670.2,6268.15c-0.319,-0.002 -0.637,-0.018 -0.954,-0.055c-0.616,-0.07 -1.224,-0.21 -1.808,-0.416c-1.138,-0.401 -2.183,-1.053 -3.046,-1.896c-0.886,-0.866 -1.576,-1.928 -2.003,-3.091c-0.213,-0.581 -0.36,-1.186 -0.438,-1.8c-0.04,-0.315 -0.06,-0.633 -0.066,-0.951c-0.069,-10.861 -0.069,-21.722 0,-32.583c0.006,-0.318 0.026,-0.635 0.066,-0.951c0.078,-0.614 0.225,-1.219 0.438,-1.8c0.427,-1.163 1.117,-2.225 2.003,-3.091c0.863,-0.842 1.908,-1.495 3.046,-1.896c0.584,-0.206 1.192,-0.346 1.808,-0.416c0.281,-0.032 0.564,-0.048 0.847,-0.054c10.861,-0.069 21.722,-0.069 32.583,0c0.318,0.006 0.635,0.026 0.951,0.066c0.614,0.079 1.219,0.226 1.8,0.439c1.163,0.426 2.225,1.116 3.091,2.002c0.842,0.863 1.495,1.908 1.896,3.046c0.206,0.585 0.346,1.192 0.416,1.808c0.032,0.282 0.048,0.564 0.054,0.847c0.069,10.861 0.069,21.722 0,32.583c-0.006,0.318 -0.026,0.636 -0.067,0.951c-0.078,0.614 -0.225,1.219 -0.438,1.8c-0.426,1.163 -1.116,2.225 -2.002,3.091c-0.863,0.843 -1.908,1.495 -3.046,1.896c-0.585,0.206 -1.192,0.346 -1.808,0.416c-0.282,0.033 -0.564,0.049 -0.847,0.054c-10.825,0.069 -21.651,0.001 -32.476,0.001ZM11670.2,6262.65c10.82,0 21.646,0.339 32.46,-0.003c0.085,-0.003 0.168,-0.01 0.252,-0.02c0.285,-0.039 0.562,-0.117 0.822,-0.238c0.671,-0.313 1.207,-0.895 1.461,-1.59c0.109,-0.298 0.163,-0.611 0.169,-0.928c0.069,-10.839 0.344,-21.684 -0.002,-32.518c-0.013,-0.291 -0.066,-0.579 -0.167,-0.853c-0.283,-0.774 -0.912,-1.398 -1.684,-1.682c-0.295,-0.109 -0.608,-0.162 -0.922,-0.168c-10.84,-0.062 -21.686,-0.356 -32.521,0.002c-0.29,0.012 -0.577,0.065 -0.85,0.166c-0.761,0.28 -1.384,0.891 -1.673,1.65c-0.116,0.307 -0.174,0.632 -0.18,0.96c-0.066,10.839 -0.34,21.684 0.002,32.519c0.013,0.314 0.075,0.623 0.191,0.916c0.272,0.689 0.822,1.257 1.5,1.555c0.274,0.12 0.566,0.192 0.864,0.22c0.093,0.008 0.185,0.011 0.278,0.012Z" style="fill:#d5d2cf;fill-rule:nonzero;"/></g><g id="Screen3"><path id="Screen Frame3" d="M10918.5,6109.59c-0.824,-0.13 -1.678,-0.134 -2.472,-0.391c-1.606,-0.523 -3.007,-1.54 -4,-2.907c-0.49,-0.675 -0.878,-1.436 -1.136,-2.23c-0.258,-0.793 -0.261,-1.648 -0.392,-2.472l0,-2047.96c0.131,-0.824 0.134,-1.679 0.392,-2.472c0.258,-0.794 0.646,-1.556 1.136,-2.231c0.993,-1.366 2.394,-2.384 4,-2.906c0.794,-0.258 1.648,-0.261 2.472,-0.391l1536,0c0.824,0.13 1.679,0.133 2.472,0.391c0.794,0.258 1.555,0.646 2.23,1.137c1.367,0.993 2.384,2.393 2.906,4c0.258,0.793 0.261,1.648 0.392,2.472l0,2047.96c-0.131,0.824 -0.134,1.679 -0.392,2.472c-0.522,1.607 -1.539,3.007 -2.906,4c-0.675,0.491 -1.436,0.879 -2.23,1.137c-0.793,0.257 -1.648,0.261 -2.472,0.391c-512,0 -1024,0 -1536,0Z" style="fill:#3e3e3e;"/><rect id="Screen - Off3" x="10918.5" y="4053.63" width="1536" height="2047.96" style="fill:#000;"/></g><g id="Top Sensors3"><path id="Microphone2" d="M11638.5,3923.56c4.418,0 8,3.582 8,8.001c0,4.418 -3.582,7.999 -8,7.999c-4.419,0 -8,-3.581 -8,-7.999c0,-4.419 3.581,-8.001 8,-8.001Z" style="fill:#e0e0e0;"/><path d="M11638.5,3923.56c4.418,0 8,3.582 8,8.001c0,4.418 -3.582,7.999 -8,7.999c-4.419,0 -8,-3.581 -8,-7.999c0,-4.419 3.581,-8.001 8,-8.001Z" style="fill:#e0e0e0;"/><path id="Camera3" d="M11686.5,3913.59c8.837,0 16,7.163 16,16c0,8.837 -7.163,16 -16,16c-8.835,0 -16,-7.163 -16,-16c0,-8.837 7.165,-16 16,-16Z" style="fill:#3e3e3e;"/></g></g></g><g id="iPad Mini 2 Space Gray"><path id="Frame4" d="M10688.5,6240.69c0,73.026 -54.751,126.875 -126.889,126.875l-93.496,0l-1299.29,0l-93.433,0c-72.138,0 -126.888,-53.849 -126.888,-126.875l0,-2324.26c0,-73.027 54.75,-126.874 126.888,-126.874l1486.22,0c72.138,0 126.889,53.847 126.889,126.874l0,2324.26Z" style="fill:#343438;"/><g id="Body8"><path id="Body9" d="M10677,3917.47c-0.373,11.816 -0.373,2310.28 0,2322.09c0,30.745 -10.691,60.721 -33.244,83.149c-22.552,22.428 -52.445,33.044 -83.011,33.044l-1484.75,0c-30.566,0 -60.459,-10.616 -83.012,-33.044c-22.553,-22.428 -33.243,-52.404 -33.243,-83.149c0.372,-11.816 0.372,-2310.28 0,-2322.09c0,-30.745 10.69,-60.721 33.243,-83.149c22.553,-22.428 52.446,-33.043 83.012,-33.043l1484.75,0c30.566,0 60.459,10.615 83.011,33.043c22.553,22.428 33.244,52.404 33.244,83.149Z" style="fill:#141414;"/><g id="Home Button4"><path id="Home Button Circle1" d="M9818.35,6175.6c37.531,0 68,30.47 68,68c0,37.53 -30.469,68 -68,68c-37.53,0 -68,-30.47 -68,-68c0,-37.53 30.47,-68 68,-68ZM9818.35,6180.67c34.732,0 62.929,28.198 62.929,62.929c0,34.731 -28.197,62.929 -62.929,62.929c-34.731,0 -62.928,-28.198 -62.928,-62.929c0,-34.731 28.197,-62.929 62.928,-62.929Z" style="fill:#343438;"/><path id="Rounded Rectangle Symbol1" d="M9802.17,6268.1c-0.319,-0.002 -0.637,-0.018 -0.954,-0.054c-0.616,-0.071 -1.224,-0.21 -1.808,-0.417c-1.138,-0.401 -2.183,-1.053 -3.046,-1.896c-0.886,-0.865 -1.576,-1.927 -2.003,-3.091c-0.213,-0.581 -0.36,-1.186 -0.438,-1.799c-0.04,-0.316 -0.06,-0.633 -0.066,-0.951c-0.069,-10.861 -0.069,-21.723 0,-32.584c0.006,-0.318 0.026,-0.635 0.066,-0.951c0.078,-0.613 0.225,-1.218 0.438,-1.799c0.427,-1.164 1.117,-2.226 2.003,-3.091c0.863,-0.843 1.908,-1.495 3.046,-1.896c0.584,-0.207 1.192,-0.346 1.808,-0.417c0.281,-0.032 0.564,-0.048 0.847,-0.053c10.861,-0.069 21.722,-0.069 32.583,0c0.318,0.006 0.635,0.026 0.951,0.066c0.614,0.078 1.219,0.225 1.8,0.438c1.163,0.426 2.225,1.116 3.091,2.003c0.842,0.863 1.495,1.908 1.896,3.046c0.206,0.584 0.346,1.192 0.416,1.807c0.032,0.282 0.048,0.564 0.054,0.847c0.069,10.861 0.069,21.723 0,32.584c-0.006,0.318 -0.026,0.635 -0.067,0.951c-0.078,0.613 -0.225,1.218 -0.438,1.799c-0.426,1.164 -1.116,2.226 -2.002,3.091c-0.863,0.843 -1.908,1.495 -3.046,1.896c-0.585,0.207 -1.192,0.346 -1.808,0.417c-0.282,0.032 -0.564,0.048 -0.847,0.053c-10.825,0.069 -21.651,0.001 -32.476,0.001ZM9802.19,6262.6c10.82,0 21.646,0.339 32.46,-0.002c0.085,-0.004 0.168,-0.011 0.252,-0.021c0.285,-0.038 0.562,-0.116 0.822,-0.238c0.671,-0.313 1.207,-0.895 1.461,-1.589c0.109,-0.298 0.163,-0.611 0.169,-0.928c0.069,-10.839 0.344,-21.684 -0.002,-32.518c-0.013,-0.292 -0.066,-0.579 -0.167,-0.854c-0.283,-0.773 -0.912,-1.398 -1.684,-1.682c-0.295,-0.109 -0.608,-0.162 -0.922,-0.168c-10.84,-0.061 -21.686,-0.355 -32.521,0.002c-0.29,0.013 -0.577,0.066 -0.85,0.166c-0.761,0.28 -1.384,0.891 -1.673,1.65c-0.116,0.308 -0.174,0.632 -0.18,0.96c-0.066,10.84 -0.34,21.685 0.002,32.519c0.013,0.314 0.075,0.624 0.191,0.916c0.272,0.69 0.822,1.257 1.5,1.555c0.274,0.12 0.566,0.192 0.864,0.22c0.093,0.008 0.185,0.011 0.278,0.012Z" style="fill:#d5d2cf;fill-rule:nonzero;"/></g><g id="Screen4"><path id="Screen Frame4" d="M9050.52,6109.54c-0.824,-0.13 -1.678,-0.133 -2.472,-0.391c-1.606,-0.522 -3.007,-1.539 -4,-2.906c-0.49,-0.675 -0.878,-1.437 -1.136,-2.23c-0.258,-0.794 -0.261,-1.648 -0.392,-2.473l0,-2047.96c0.131,-0.824 0.134,-1.679 0.392,-2.472c0.258,-0.794 0.646,-1.555 1.136,-2.23c0.993,-1.367 2.394,-2.384 4,-2.906c0.794,-0.258 1.648,-0.261 2.472,-0.392l1536,0c0.824,0.131 1.679,0.134 2.472,0.392c0.794,0.257 1.555,0.645 2.23,1.136c1.367,0.993 2.384,2.393 2.906,4c0.258,0.793 0.261,1.648 0.392,2.472l0,2047.96c-0.131,0.825 -0.134,1.679 -0.392,2.473c-0.522,1.606 -1.539,3.007 -2.906,4c-0.675,0.49 -1.436,0.878 -2.23,1.136c-0.793,0.258 -1.648,0.261 -2.472,0.391c-512,0 -1024,0 -1536,0Z" style="fill:#141414;"/><rect id="Screen - Off4" x="9050.52" y="4053.58" width="1536" height="2047.96" style="fill:#141414;"/></g><g id="Top Sensors4"><path id="Camera4" d="M9818.52,3913.55c8.837,0 16,7.163 16,16c0,8.837 -7.163,16 -16,16c-8.835,0 -16,-7.163 -16,-16c0,-8.837 7.165,-16 16,-16Z" style="fill:#1d1d1d;"/></g></g></g><path id="iPad Mini 21" d="M10399.4,3415.78c-2.16,0 -3.888,1.728 -3.888,3.888c0,2.16 1.728,3.888 3.888,3.888c2.16,0 3.888,-1.728 3.888,-3.888c0,-2.16 -1.728,-3.888 -3.888,-3.888ZM10396.9,3506.36l4.896,0l0,-68.256l-4.896,0l0,68.256Z" style="fill:#fff;fill-rule:nonzero;"/><path d="M10426.6,3506.36l4.896,0l0,-43.632c2.592,0.288 5.616,0.432 8.208,0.432c19.44,0 37.152,-10.8 37.152,-30.24c0,-15.12 -10.656,-27.072 -34.704,-27.072c-4.752,0 -9.936,0.432 -15.552,1.728l0,98.784ZM10431.5,3411.46c4.176,-0.72 7.776,-1.008 10.944,-1.008c20.736,0 28.944,9.36 28.944,23.184c0,14.544 -13.104,25.056 -33.408,25.056c-1.728,0 -4.608,-0.288 -6.48,-0.576l0,-46.656Z" style="fill:#fff;fill-rule:nonzero;"/><path d="M10494,3446.31c5.76,-3.456 11.52,-5.184 16.56,-5.184c10.08,0 17.424,4.752 17.424,16.56l0,9.072c-3.312,-0.72 -6.336,-1.008 -10.656,-1.008c-14.832,0 -29.088,7.344 -29.088,23.328c0,11.808 8.928,18.72 18.288,18.72c8.784,0 17.568,-4.752 21.6,-15.12l0.576,13.68l4.176,0l0,-49.536c0,-13.104 -8.784,-20.16 -20.88,-20.16c-7.344,0 -12.96,1.584 -18.288,4.896l0.288,4.752ZM10527.9,3478.28c0,16.416 -10.08,25.056 -19.584,25.056c-8.352,0 -14.976,-5.616 -14.976,-15.12c0,-9.792 9.36,-18 23.472,-18c4.032,0 7.776,0.288 11.088,0.864l0,7.2Z" style="fill:#fff;fill-rule:nonzero;"/><path d="M10607.6,3400.52l-4.896,0l0,51.984c-3.312,-10.368 -12.816,-15.84 -21.6,-15.84c-14.688,0 -29.088,12.672 -29.088,36.288c0,19.872 10.224,34.848 27.504,34.848c11.232,0 20.304,-8.064 23.328,-17.28l0.576,15.84l4.176,0l0,-105.84ZM10602.7,3478.42c0,11.952 -9.792,24.912 -22.032,24.912c-16.992,0 -23.472,-15.84 -23.472,-30.96c0,-22.032 13.248,-31.248 24.336,-31.248c11.088,0 21.168,10.656 21.168,24.48l0,12.816Z" style="fill:#fff;fill-rule:nonzero;"/><path d="M10674.5,3407.29l-7.776,0l-1.584,99.072l4.896,0l0.864,-68.832c0.144,-8.352 0.144,-16.56 -0.144,-27.36c3.6,10.8 6.624,19.008 9.792,27.36l25.344,67.68l6.48,0l26.064,-67.68c3.168,-8.352 6.336,-16.56 9.792,-26.208c-0.144,9.648 -0.144,17.856 0,26.208l1.008,68.832l5.184,0l-1.584,-99.072l-7.92,0l-27.648,72.144c-2.736,7.056 -5.328,14.256 -7.776,21.456c-2.304,-7.2 -4.896,-14.4 -7.632,-21.456l-27.36,-72.144Z" style="fill:#fff;fill-rule:nonzero;"/><path d="M10780.5,3415.78c-2.16,0 -3.888,1.728 -3.888,3.888c0,2.16 1.728,3.888 3.888,3.888c2.16,0 3.888,-1.728 3.888,-3.888c0,-2.16 -1.728,-3.888 -3.888,-3.888ZM10778.1,3506.36l4.896,0l0,-68.256l-4.896,0l0,68.256Z" style="fill:#fff;fill-rule:nonzero;"/><path d="M10811.3,3438.1l-4.176,0l0,68.256l4.896,0l0,-40.608c0,-11.088 8.496,-24.48 20.592,-24.48c11.376,0 17.856,8.064 17.856,21.024l0,44.064l4.896,0l0,-46.08c0,-13.248 -7.632,-23.616 -22.176,-23.616c-9.936,0 -18.432,7.056 -21.168,16.128l-0.72,-14.688Z" style="fill:#fff;fill-rule:nonzero;"/><path d="M10881.5,3415.78c-2.16,0 -3.888,1.728 -3.888,3.888c0,2.16 1.728,3.888 3.888,3.888c2.16,0 3.888,-1.728 3.888,-3.888c0,-2.16 -1.728,-3.888 -3.888,-3.888ZM10879,3506.36l4.896,0l0,-68.256l-4.896,0l0,68.256Z" style="fill:#fff;fill-rule:nonzero;"/><path d="M10943.1,3423.27c5.184,-5.76 13.392,-9.072 20.16,-9.072c11.664,0 19.152,6.048 19.152,18.288c0,9.648 -6.912,20.304 -23.472,41.328l-23.04,29.232l0,3.312l52.416,0l0,-4.608l-45.648,0l19.44,-24.336c18.576,-23.328 25.488,-34.56 25.488,-45.504c0,-13.824 -9.216,-22.32 -24.048,-22.32c-7.056,0 -15.552,2.88 -20.88,8.208l0.432,5.472Z" style="fill:#fff;fill-rule:nonzero;"/></g><g id="iPad Mini"><g id="iPad Mini Silver"><path id="Frame5" d="M12542.3,2936.65c0,36.513 -27.376,63.438 -63.445,63.438l-46.748,0l-649.647,0l-46.717,0c-36.069,0 -63.443,-26.925 -63.443,-63.438l0,-1162.13c0,-36.513 27.374,-63.437 63.443,-63.437l743.112,0c36.069,0 63.445,26.924 63.445,63.437l0,1162.13Z" style="fill:#d5d2cf;"/><g id="Body10"><path id="Body11" d="M12536.5,1775.04c-0.186,5.908 -0.186,1155.14 0,1161.05c0,15.372 -5.345,30.36 -16.622,41.574c-11.276,11.215 -26.223,16.522 -41.506,16.522l-742.375,0c-15.283,0 -30.23,-5.307 -41.506,-16.522c-11.276,-11.214 -16.621,-26.202 -16.621,-41.574c0.186,-5.908 0.186,-1155.14 0,-1161.05c0,-15.372 5.345,-30.36 16.621,-41.574c11.276,-11.214 26.223,-16.522 41.506,-16.522l742.375,0c15.283,0 30.23,5.308 41.506,16.522c11.277,11.214 16.622,26.202 16.622,41.574Z" style="fill:#f3f5f7;"/><g id="Home Button5"><path id="Home Button Circle2" d="M12107.2,2904.11c18.765,0 34,15.235 34,34c0,18.765 -15.235,34 -34,34c-18.766,0 -34,-15.235 -34,-34c0,-18.765 15.234,-34 34,-34ZM12107.2,2906.64c17.365,0 31.464,14.099 31.464,31.464c0,17.366 -14.099,31.465 -31.464,31.465c-17.366,0 -31.465,-14.099 -31.465,-31.465c0,-17.365 14.099,-31.464 31.465,-31.464Z" style="fill:#d5d2cf;"/><path id="Rounded Rectangle Symbol2" d="M12099.1,2950.36c-0.16,-0.001 -0.319,-0.009 -0.478,-0.027c-0.308,-0.035 -0.611,-0.105 -0.904,-0.208c-0.569,-0.2 -1.091,-0.527 -1.523,-0.948c-0.443,-0.433 -0.788,-0.964 -1.001,-1.546c-0.106,-0.29 -0.18,-0.592 -0.219,-0.899c-0.02,-0.158 -0.03,-0.317 -0.033,-0.476c-0.034,-5.43 -0.034,-10.861 0,-16.291c0.003,-0.16 0.013,-0.318 0.033,-0.476c0.039,-0.307 0.113,-0.609 0.219,-0.9c0.213,-0.581 0.558,-1.113 1.001,-1.545c0.432,-0.422 0.954,-0.748 1.523,-0.948c0.293,-0.103 0.596,-0.173 0.904,-0.209c0.141,-0.016 0.282,-0.024 0.424,-0.026c5.43,-0.035 10.861,-0.035 16.291,0c0.159,0.003 0.318,0.013 0.476,0.033c0.307,0.039 0.609,0.112 0.9,0.219c0.581,0.213 1.113,0.558 1.545,1.001c0.422,0.432 0.748,0.954 0.948,1.523c0.103,0.292 0.173,0.596 0.208,0.904c0.017,0.141 0.025,0.282 0.027,0.424c0.035,5.43 0.035,10.861 0,16.291c-0.003,0.159 -0.013,0.318 -0.033,0.476c-0.039,0.307 -0.112,0.609 -0.219,0.899c-0.213,0.582 -0.558,1.113 -1.001,1.546c-0.432,0.421 -0.954,0.748 -1.523,0.948c-0.292,0.103 -0.596,0.173 -0.904,0.208c-0.141,0.016 -0.282,0.024 -0.424,0.027c-5.412,0.034 -10.825,0 -16.237,0ZM12099.2,2947.61c5.41,0 10.823,0.17 16.231,-0.001c0.042,-0.002 0.084,-0.005 0.126,-0.01c0.142,-0.019 0.28,-0.058 0.411,-0.119c0.335,-0.156 0.603,-0.448 0.73,-0.795c0.055,-0.149 0.081,-0.305 0.084,-0.464c0.035,-5.419 0.172,-10.842 -0.001,-16.259c-0.006,-0.145 -0.033,-0.289 -0.083,-0.426c-0.142,-0.387 -0.456,-0.699 -0.842,-0.842c-0.148,-0.054 -0.304,-0.081 -0.461,-0.083c-5.42,-0.031 -10.843,-0.178 -16.26,0c-0.145,0.007 -0.289,0.033 -0.426,0.083c-0.38,0.14 -0.691,0.446 -0.836,0.826c-0.058,0.153 -0.087,0.315 -0.09,0.479c-0.033,5.42 -0.17,10.843 0.001,16.26c0.007,0.157 0.038,0.312 0.095,0.458c0.136,0.345 0.411,0.629 0.75,0.777c0.138,0.06 0.284,0.096 0.432,0.111c0.047,0.003 0.093,0.005 0.139,0.005Z" style="fill:#d5d2cf;fill-rule:nonzero;"/></g><g id="Screen5"><path id="Screen Frame5" d="M11723.3,2871.08c-0.412,-0.066 -0.84,-0.067 -1.236,-0.196c-0.804,-0.261 -1.504,-0.77 -2,-1.453c-0.246,-0.338 -0.44,-0.719 -0.569,-1.115c-0.128,-0.397 -0.13,-0.824 -0.195,-1.236l0,-1023.98c0.065,-0.412 0.067,-0.839 0.195,-1.236c0.129,-0.396 0.323,-0.777 0.569,-1.115c0.496,-0.683 1.196,-1.192 2,-1.453c0.396,-0.129 0.824,-0.13 1.236,-0.196l767.999,0c0.412,0.066 0.84,0.067 1.236,0.196c0.397,0.129 0.778,0.323 1.116,0.568c0.683,0.497 1.192,1.197 1.453,2c0.129,0.397 0.13,0.824 0.195,1.236l0,1023.98c-0.065,0.412 -0.066,0.839 -0.195,1.236c-0.261,0.803 -0.77,1.503 -1.453,2c-0.338,0.245 -0.719,0.439 -1.116,0.568c-0.396,0.129 -0.824,0.13 -1.236,0.196c-256,0 -511.999,0 -767.999,0Z" style="fill:#3e3e3e;"/><rect id="Screen - Off5" x="11723.3" y="1843.1" width="768" height="1023.98" style="fill:#000;"/></g><g id="Top Sensors5"><path id="Microphone3" d="M12083.3,1778.06c2.208,0 4,1.791 4,4c0,2.21 -1.792,4 -4,4c-2.21,0 -4,-1.79 -4,-4c0,-2.209 1.79,-4 4,-4Z" style="fill:#e0e0e0;"/><path d="M12083.3,1778.06c2.208,0 4,1.791 4,4c0,2.21 -1.792,4 -4,4c-2.21,0 -4,-1.79 -4,-4c0,-2.209 1.79,-4 4,-4Z" style="fill:#e0e0e0;"/><path id="Camera5" d="M12107.3,1773.08c4.418,0 8,3.582 8,8.001c0,4.418 -3.582,7.999 -8,7.999c-4.418,0 -8,-3.581 -8,-7.999c0,-4.419 3.582,-8.001 8,-8.001Z" style="fill:#3e3e3e;"/></g></g></g><g id="iPad Mini Space Gray"><path id="Frame6" d="M11608.3,2936.63c0,36.513 -27.376,63.438 -63.445,63.438l-46.748,0l-649.647,0l-46.717,0c-36.069,0 -63.443,-26.925 -63.443,-63.438l0,-1162.13c0,-36.513 27.374,-63.437 63.443,-63.437l743.112,0c36.069,0 63.445,26.924 63.445,63.437l0,1162.13Z" style="fill:#343438;"/><g id="Body12"><path id="Body13" d="M11602.5,1775.01c-0.186,5.908 -0.186,1155.14 0,1161.05c0,15.372 -5.345,30.36 -16.622,41.574c-11.276,11.214 -26.223,16.522 -41.506,16.522l-742.375,0c-15.283,0 -30.23,-5.308 -41.506,-16.522c-11.276,-11.214 -16.621,-26.202 -16.621,-41.574c0.186,-5.908 0.186,-1155.14 0,-1161.05c0,-15.372 5.345,-30.36 16.621,-41.574c11.276,-11.215 26.223,-16.522 41.506,-16.522l742.375,0c15.283,0 30.23,5.307 41.506,16.522c11.277,11.214 16.622,26.202 16.622,41.574Z" style="fill:#141414;"/><g id="Home Button6"><path id="Home Button Circle3" d="M11173.2,2904.08c18.765,0 34,15.235 34,34c0,18.765 -15.235,34 -34,34c-18.766,0 -34,-15.235 -34,-34c0,-18.765 15.234,-34 34,-34ZM11173.2,2906.62c17.365,0 31.464,14.098 31.464,31.464c0,17.366 -14.099,31.464 -31.464,31.464c-17.366,0 -31.465,-14.098 -31.465,-31.464c0,-17.366 14.099,-31.464 31.465,-31.464Z" style="fill:#343438;"/><path id="Rounded Rectangle Symbol3" d="M11165.1,2950.33c-0.16,-0.001 -0.319,-0.009 -0.478,-0.027c-0.308,-0.035 -0.611,-0.105 -0.904,-0.208c-0.569,-0.201 -1.091,-0.527 -1.523,-0.948c-0.443,-0.433 -0.788,-0.964 -1.001,-1.546c-0.106,-0.29 -0.18,-0.593 -0.219,-0.9c-0.02,-0.158 -0.03,-0.316 -0.033,-0.475c-0.034,-5.431 -0.034,-10.861 0,-16.292c0.003,-0.159 0.013,-0.317 0.033,-0.475c0.039,-0.307 0.113,-0.61 0.219,-0.9c0.213,-0.582 0.558,-1.113 1.001,-1.546c0.432,-0.421 0.954,-0.747 1.523,-0.948c0.293,-0.103 0.596,-0.173 0.904,-0.208c0.141,-0.016 0.282,-0.024 0.424,-0.027c5.43,-0.034 10.861,-0.034 16.291,0c0.159,0.003 0.318,0.013 0.476,0.033c0.307,0.04 0.609,0.113 0.9,0.22c0.581,0.213 1.113,0.558 1.545,1.001c0.422,0.431 0.748,0.954 0.948,1.523c0.103,0.292 0.173,0.596 0.208,0.904c0.017,0.141 0.025,0.282 0.027,0.423c0.035,5.431 0.035,10.861 0,16.292c-0.003,0.159 -0.013,0.317 -0.033,0.475c-0.039,0.307 -0.112,0.61 -0.219,0.9c-0.213,0.582 -0.558,1.113 -1.001,1.546c-0.432,0.421 -0.954,0.747 -1.523,0.948c-0.292,0.103 -0.596,0.173 -0.904,0.208c-0.141,0.016 -0.282,0.024 -0.424,0.027c-5.412,0.034 -10.825,0 -16.237,0ZM11165.2,2947.58c5.41,0 10.823,0.17 16.231,-0.001c0.042,-0.002 0.084,-0.005 0.126,-0.01c0.142,-0.02 0.28,-0.059 0.411,-0.119c0.335,-0.157 0.603,-0.448 0.73,-0.795c0.055,-0.149 0.081,-0.306 0.084,-0.464c0.035,-5.42 0.172,-10.842 -0.001,-16.259c-0.006,-0.146 -0.033,-0.29 -0.083,-0.427c-0.142,-0.387 -0.456,-0.699 -0.842,-0.841c-0.148,-0.054 -0.304,-0.081 -0.461,-0.084c-5.42,-0.031 -10.843,-0.178 -16.26,0.001c-0.145,0.006 -0.289,0.033 -0.426,0.083c-0.38,0.14 -0.691,0.446 -0.836,0.825c-0.058,0.154 -0.087,0.316 -0.09,0.48c-0.033,5.42 -0.17,10.842 0.001,16.26c0.007,0.157 0.038,0.311 0.095,0.458c0.136,0.344 0.411,0.628 0.75,0.777c0.138,0.06 0.284,0.096 0.432,0.11c0.047,0.004 0.093,0.006 0.139,0.006Z" style="fill:#d5d2cf;fill-rule:nonzero;"/></g><g id="Screen6"><path id="Screen Frame6" d="M10789.3,2871.05c-0.412,-0.065 -0.84,-0.067 -1.236,-0.196c-0.804,-0.261 -1.504,-0.769 -2,-1.453c-0.246,-0.337 -0.44,-0.718 -0.569,-1.115c-0.128,-0.396 -0.13,-0.824 -0.195,-1.236l0,-1023.98c0.065,-0.412 0.067,-0.839 0.195,-1.236c0.129,-0.397 0.323,-0.778 0.569,-1.115c0.496,-0.683 1.196,-1.192 2,-1.453c0.396,-0.129 0.824,-0.131 1.236,-0.196l767.999,0c0.412,0.065 0.84,0.067 1.236,0.196c0.397,0.129 0.778,0.323 1.116,0.568c0.683,0.496 1.192,1.197 1.453,2c0.129,0.397 0.13,0.824 0.195,1.236l0,1023.98c-0.065,0.412 -0.066,0.84 -0.195,1.236c-0.261,0.804 -0.77,1.504 -1.453,2c-0.338,0.246 -0.719,0.44 -1.116,0.568c-0.396,0.129 -0.824,0.131 -1.236,0.196c-256,0 -511.999,0 -767.999,0Z" style="fill:#141414;"/><rect id="Screen - Off6" x="10789.3" y="1843.07" width="768" height="1023.98" style="fill:#141414;"/></g><g id="Top Sensors6"><path id="Camera6" d="M11173.3,1773.05c4.418,0 8,3.582 8,8c0,4.419 -3.582,8 -8,8c-4.418,0 -8,-3.581 -8,-8c0,-4.418 3.582,-8 8,-8Z" style="fill:#1d1d1d;"/></g></g></g><path id="iPad Mini1" d="M11381.2,1376.22c-2.16,0 -3.888,1.728 -3.888,3.888c0,2.16 1.728,3.888 3.888,3.888c2.16,0 3.888,-1.728 3.888,-3.888c0,-2.16 -1.728,-3.888 -3.888,-3.888ZM11378.8,1466.79l4.896,0l0,-68.256l-4.896,0l0,68.256Z" style="fill:#fff;fill-rule:nonzero;"/><path d="M11408.4,1466.79l4.896,0l0,-43.632c2.592,0.288 5.616,0.432 8.208,0.432c19.44,0 37.152,-10.8 37.152,-30.24c0,-15.12 -10.656,-27.072 -34.704,-27.072c-4.752,0 -9.936,0.432 -15.552,1.728l0,98.784ZM11413.3,1371.9c4.176,-0.72 7.776,-1.008 10.944,-1.008c20.736,0 28.944,9.36 28.944,23.184c0,14.544 -13.104,25.056 -33.408,25.056c-1.728,0 -4.608,-0.288 -6.48,-0.576l0,-46.656Z" style="fill:#fff;fill-rule:nonzero;"/><path d="M11475.8,1406.75c5.76,-3.456 11.52,-5.184 16.56,-5.184c10.08,0 17.424,4.752 17.424,16.56l0,9.072c-3.312,-0.72 -6.336,-1.008 -10.656,-1.008c-14.832,0 -29.088,7.344 -29.088,23.328c0,11.808 8.928,18.72 18.288,18.72c8.784,0 17.568,-4.752 21.6,-15.12l0.576,13.68l4.176,0l0,-49.536c0,-13.104 -8.784,-20.16 -20.88,-20.16c-7.344,0 -12.96,1.584 -18.288,4.896l0.288,4.752ZM11509.8,1438.71c0,16.416 -10.08,25.056 -19.584,25.056c-8.352,0 -14.976,-5.616 -14.976,-15.12c0,-9.792 9.36,-18 23.472,-18c4.032,0 7.776,0.288 11.088,0.864l0,7.2Z" style="fill:#fff;fill-rule:nonzero;"/><path d="M11589.5,1360.95l-4.896,0l0,51.984c-3.312,-10.368 -12.816,-15.84 -21.6,-15.84c-14.688,0 -29.088,12.672 -29.088,36.288c0,19.872 10.224,34.848 27.504,34.848c11.232,0 20.304,-8.064 23.328,-17.28l0.576,15.84l4.176,0l0,-105.84ZM11584.6,1438.86c0,11.952 -9.792,24.912 -22.032,24.912c-16.992,0 -23.472,-15.84 -23.472,-30.96c0,-22.032 13.248,-31.248 24.336,-31.248c11.088,0 21.168,10.656 21.168,24.48l0,12.816Z" style="fill:#fff;fill-rule:nonzero;"/><path d="M11656.4,1367.72l-7.776,0l-1.584,99.072l4.896,0l0.864,-68.832c0.144,-8.352 0.144,-16.56 -0.144,-27.36c3.6,10.8 6.624,19.008 9.792,27.36l25.344,67.68l6.48,0l26.064,-67.68c3.168,-8.352 6.336,-16.56 9.792,-26.208c-0.144,9.648 -0.144,17.856 0,26.208l1.008,68.832l5.184,0l-1.584,-99.072l-7.92,0l-27.648,72.144c-2.736,7.056 -5.328,14.256 -7.776,21.456c-2.304,-7.2 -4.896,-14.4 -7.632,-21.456l-27.36,-72.144Z" style="fill:#fff;fill-rule:nonzero;"/><path d="M11762.4,1376.22c-2.16,0 -3.888,1.728 -3.888,3.888c0,2.16 1.728,3.888 3.888,3.888c2.16,0 3.888,-1.728 3.888,-3.888c0,-2.16 -1.728,-3.888 -3.888,-3.888ZM11760,1466.79l4.896,0l0,-68.256l-4.896,0l0,68.256Z" style="fill:#fff;fill-rule:nonzero;"/><path d="M11793.2,1398.54l-4.176,0l0,68.256l4.896,0l0,-40.608c0,-11.088 8.496,-24.48 20.592,-24.48c11.376,0 17.856,8.064 17.856,21.024l0,44.064l4.896,0l0,-46.08c0,-13.248 -7.632,-23.616 -22.176,-23.616c-9.936,0 -18.432,7.056 -21.168,16.128l-0.72,-14.688Z" style="fill:#fff;fill-rule:nonzero;"/><path d="M11863.3,1376.22c-2.16,0 -3.888,1.728 -3.888,3.888c0,2.16 1.728,3.888 3.888,3.888c2.16,0 3.888,-1.728 3.888,-3.888c0,-2.16 -1.728,-3.888 -3.888,-3.888ZM11860.9,1466.79l4.896,0l0,-68.256l-4.896,0l0,68.256Z" style="fill:#fff;fill-rule:nonzero;"/></g><g id="iPad Air 2"><g id="iPad Air 2 Gold"><path id="Frame7" d="M5801.01,7249.21c0,-84.668 -43.495,-120.654 -123.828,-120.654l-1526.09,0c-84.251,0 -116.083,48.82 -116.083,120.07l0,2256.85c0,71.25 31.832,120.07 116.083,120.07l1526.09,0c80.333,0 123.828,-35.986 123.828,-120.653l0,-2255.68Z" style="fill:#c7b78c;"/><g id="Body14"><path id="Body15" d="M5758.73,7167.22c-18.445,-17.269 -45.451,-25.663 -82.558,-25.663l-1525.21,0c-18.056,0 -34.09,2.558 -47.658,7.602c-13.261,4.93 -24.217,12.261 -32.562,21.791c-15.751,17.984 -23.739,44.119 -23.739,77.677l0,2256.85c0,33.431 8.018,59.535 23.828,77.588c17.134,19.563 43.799,29.482 79.256,29.482l1526.09,0c37.937,0 65.138,-8.199 83.155,-25.066c8.946,-8.375 15.792,-19.242 20.348,-32.299c4.861,-13.928 7.326,-30.848 7.326,-50.288l0,-2255.68c0,-19.441 -2.465,-36.359 -7.326,-50.287c-4.219,-12.088 -11.07,-22.459 -20.945,-31.704Z" style="fill:#f3f5f7;"/><path id="Home Button7" d="M4917.5,9472.55c26.192,0 47.5,21.309 47.5,47.5c0,26.192 -21.308,47.5 -47.5,47.5c-26.191,0 -47.5,-21.308 -47.5,-47.5c0,-26.191 21.309,-47.5 47.5,-47.5M4917.5,9464.55c-30.651,0 -55.499,24.848 -55.499,55.5c0,30.651 24.848,55.5 55.499,55.5c30.652,0 55.501,-24.849 55.501,-55.5c0,-30.652 -24.849,-55.5 -55.501,-55.5l0,0Z" style="fill:#c7b78c;"/><g id="Screen7"><path id="Screen Frame7" d="M5685,7347.55l-1536,0c-4.417,0 -7.999,3.582 -7.999,8l0,2048c0,2.122 0.842,4.157 2.342,5.658c1.501,1.5 3.535,2.342 5.657,2.342l1536,0c4.418,0 8.001,-3.582 8.001,-8l0,-2048c0,-4.418 -3.583,-8 -8.001,-8Z" style="fill:#3e3e3e;"/><rect id="Screen - Off7" x="4149.01" y="7355.55" width="1536" height="2048" style="fill:#000;"/><path d="M4149,9411.55l-2.472,-0.392l-2.23,-1.136l-1.77,-1.77l-1.136,-2.23l-0.392,-2.472l0,-2048l0.392,-2.472l1.136,-2.23l1.77,-1.77l2.23,-1.136l2.472,-0.392l1536,0l2.473,0.392l2.23,1.136l1.77,1.77l1.136,2.23l0.391,2.472l0,2048l-0.391,2.472l-1.136,2.23l-1.77,1.77l-2.23,1.136l-2.473,0.392l-1536,0ZM4149.01,9403.55l1536,0l0,-2048l-1536,0l0,2048Z" style="fill:#3e3e3e;"/></g><g id="Top Sensors7"><path id="Microphone4" d="M4873.5,7239.55c3.865,0 7,3.134 7,7c0,3.866 -3.135,7 -7,7c-3.867,0 -7,-3.134 -7,-7c0,-3.866 3.133,-7 7,-7Z" style="fill:#e0e0e0;"/><path d="M4873.5,7239.55c3.865,0 7,3.134 7,7c0,3.866 -3.135,7 -7,7c-3.867,0 -7,-3.134 -7,-7c0,-3.866 3.133,-7 7,-7Z" style="fill:#e0e0e0;"/><path id="Camera7" d="M4916.01,7232.55c7.456,0 13.5,6.044 13.5,13.5c0,7.456 -6.044,13.5 -13.5,13.5c-7.456,0 -13.5,-6.044 -13.5,-13.5c0,-7.456 6.044,-13.5 13.5,-13.5Z" style="fill:#3e3e3e;"/></g></g></g><g id="iPad Air 2 Silver"><path id="Frame8" d="M3881.01,7249.21c0,-84.668 -43.495,-120.654 -123.828,-120.654l-1526.09,0c-84.251,0 -116.083,48.82 -116.083,120.07l0,2256.85c0,71.25 31.832,120.07 116.083,120.07l1526.09,0c80.333,0 123.828,-35.986 123.828,-120.653l0,-2255.68Z" style="fill:#d5d2cf;"/><g id="Body16"><path id="Body17" d="M3838.73,7167.22c-18.445,-17.269 -45.451,-25.663 -82.558,-25.663l-1525.21,0c-18.056,0 -34.09,2.558 -47.658,7.602c-13.261,4.93 -24.217,12.261 -32.562,21.791c-15.751,17.984 -23.739,44.119 -23.739,77.677l0,2256.85c0,33.431 8.018,59.535 23.828,77.588c17.134,19.563 43.799,29.482 79.256,29.482l1526.09,0c37.937,0 65.138,-8.199 83.155,-25.066c8.946,-8.375 15.792,-19.242 20.348,-32.299c4.861,-13.928 7.326,-30.848 7.326,-50.288l0,-2255.68c0,-19.441 -2.465,-36.359 -7.326,-50.287c-4.219,-12.088 -11.07,-22.459 -20.945,-31.704Z" style="fill:#f3f5f7;"/><path id="Home Button8" d="M2997.5,9472.55c26.192,0 47.5,21.309 47.5,47.5c0,26.192 -21.308,47.5 -47.5,47.5c-26.191,0 -47.5,-21.308 -47.5,-47.5c0,-26.191 21.309,-47.5 47.5,-47.5M2997.5,9464.55c-30.651,0 -55.499,24.848 -55.499,55.5c0,30.651 24.848,55.5 55.499,55.5c30.652,0 55.501,-24.849 55.501,-55.5c0,-30.652 -24.849,-55.5 -55.501,-55.5l0,0Z" style="fill:#d5d2cf;"/><g id="Screen8"><path id="Screen Frame8" d="M3765,7347.55l-1536,0c-4.417,0 -7.999,3.582 -7.999,8l0,2048c0,2.122 0.842,4.157 2.342,5.658c1.501,1.5 3.535,2.342 5.657,2.342l1536,0c4.418,0 8.001,-3.582 8.001,-8l0,-2048c0,-4.418 -3.583,-8 -8.001,-8Z" style="fill:#3e3e3e;"/><rect id="Screen - Off8" x="2229.01" y="7355.55" width="1536" height="2048" style="fill:#000;"/><path d="M2229.01,9411.55l-2.472,-0.392l-2.231,-1.136l-1.769,-1.77l-1.137,-2.23l-0.391,-2.472l0,-2048l0.391,-2.472l1.137,-2.23l1.769,-1.77l2.231,-1.136l2.472,-0.392l1536,0l2.472,0.392l2.23,1.136l1.77,1.77l1.136,2.23l0.392,2.472l0,2048l-0.392,2.472l-1.136,2.23l-1.77,1.77l-2.23,1.136l-2.472,0.392l-1536,0ZM2229.01,9403.55l1536,0l0,-2048l-1536,0l0,2048Z" style="fill:#3e3e3e;"/></g><g id="Top Sensors8"><path id="Microphone5" d="M2953.5,7239.55c3.865,0 7,3.134 7,7c0,3.866 -3.135,7 -7,7c-3.867,0 -7,-3.134 -7,-7c0,-3.866 3.133,-7 7,-7Z" style="fill:#e0e0e0;"/><path d="M2953.5,7239.55c3.865,0 7,3.134 7,7c0,3.866 -3.135,7 -7,7c-3.867,0 -7,-3.134 -7,-7c0,-3.866 3.133,-7 7,-7Z" style="fill:#e0e0e0;"/><path id="Camera8" d="M2996.01,7232.55c7.456,0 13.5,6.044 13.5,13.5c0,7.456 -6.044,13.5 -13.5,13.5c-7.456,0 -13.5,-6.044 -13.5,-13.5c0,-7.456 6.044,-13.5 13.5,-13.5Z" style="fill:#3e3e3e;"/></g></g></g><g id="iPad Air 2 Space Gray"><path id="Frame9" d="M1961.01,7249.21c0,-84.668 -43.495,-120.654 -123.828,-120.654l-1526.09,0c-84.251,0 -116.083,48.82 -116.083,120.07l0,2256.85c0,71.25 31.832,120.07 116.083,120.07l1526.09,0c80.333,0 123.828,-35.986 123.828,-120.653l0,-2255.68Z" style="fill:#343438;"/><g id="Body18"><path id="Body19" d="M1918.73,7167.22c-18.445,-17.269 -45.451,-25.663 -82.558,-25.663l-1525.21,0c-18.056,0 -34.09,2.558 -47.658,7.602c-13.261,4.93 -24.217,12.261 -32.562,21.791c-15.751,17.984 -23.739,44.119 -23.739,77.677l0,2256.85c0,33.431 8.018,59.535 23.828,77.588c17.134,19.563 43.799,29.482 79.256,29.482l1526.09,0c37.937,0 65.138,-8.199 83.155,-25.066c8.946,-8.375 15.792,-19.242 20.348,-32.299c4.861,-13.928 7.326,-30.848 7.326,-50.288l0,-2255.68c0,-19.441 -2.465,-36.359 -7.326,-50.287c-4.219,-12.088 -11.07,-22.459 -20.945,-31.704Z" style="fill:#141414;"/><path id="Home Button9" d="M1077.5,9472.55c26.192,0 47.5,21.309 47.5,47.5c0,26.192 -21.308,47.5 -47.5,47.5c-26.191,0 -47.5,-21.308 -47.5,-47.5c0,-26.191 21.309,-47.5 47.5,-47.5M1077.5,9464.55c-30.651,0 -55.499,24.848 -55.499,55.5c0,30.651 24.848,55.5 55.499,55.5c30.652,0 55.501,-24.849 55.501,-55.5c0,-30.652 -24.849,-55.5 -55.501,-55.5l0,0Z" style="fill:#343438;"/><g id="Screen9"><path id="Screen Frame9" d="M1845,7347.55l-1536,0c-4.417,0 -7.999,3.582 -7.999,8l0,2048c0,2.122 0.842,4.157 2.342,5.658c1.501,1.5 3.535,2.342 5.657,2.342l1536,0c4.418,0 8.001,-3.582 8.001,-8l0,-2048c0,-4.418 -3.583,-8 -8.001,-8Z" style="fill:#141414;"/><rect id="Screen - Off9" x="309.005" y="7355.55" width="1536" height="2048" style="fill:#141414;"/></g><g id="Top Sensors9"><path id="Camera9" d="M1076.01,7232.55c7.456,0 13.5,6.044 13.5,13.5c0,7.456 -6.044,13.5 -13.5,13.5c-7.456,0 -13.5,-6.044 -13.5,-13.5c0,-7.456 6.044,-13.5 13.5,-13.5Z" style="fill:#1d1d1d;"/></g></g></g><path id="iPad Air 21" d="M2754.79,6782.75c-2.16,0 -3.888,1.728 -3.888,3.888c0,2.16 1.728,3.888 3.888,3.888c2.16,0 3.888,-1.728 3.888,-3.888c0,-2.16 -1.728,-3.888 -3.888,-3.888ZM2752.34,6873.32l4.896,0l0,-68.256l-4.896,0l0,68.256Z" style="fill:#fff;fill-rule:nonzero;"/><path d="M2782.01,6873.32l4.896,0l0,-43.632c2.592,0.288 5.616,0.432 8.208,0.432c19.44,0 37.152,-10.8 37.152,-30.24c0,-15.12 -10.656,-27.072 -34.704,-27.072c-4.752,0 -9.936,0.432 -15.552,1.728l0,98.784ZM2786.9,6778.43c4.176,-0.72 7.776,-1.008 10.944,-1.008c20.736,0 28.944,9.36 28.944,23.184c0,14.544 -13.104,25.056 -33.408,25.056c-1.728,0 -4.608,-0.288 -6.48,-0.576l0,-46.656Z" style="fill:#fff;fill-rule:nonzero;"/><path d="M2849.4,6813.28c5.76,-3.456 11.52,-5.184 16.56,-5.184c10.08,0 17.424,4.752 17.424,16.56l0,9.072c-3.312,-0.72 -6.336,-1.008 -10.656,-1.008c-14.832,0 -29.088,7.344 -29.088,23.328c0,11.808 8.928,18.72 18.288,18.72c8.784,0 17.568,-4.752 21.6,-15.12l0.576,13.68l4.176,0l0,-49.536c0,-13.104 -8.784,-20.16 -20.88,-20.16c-7.344,0 -12.96,1.584 -18.288,4.896l0.288,4.752ZM2883.38,6845.24c0,16.416 -10.08,25.056 -19.584,25.056c-8.352,0 -14.976,-5.616 -14.976,-15.12c0,-9.792 9.36,-18 23.472,-18c4.032,0 7.776,0.288 11.088,0.864l0,7.2Z" style="fill:#fff;fill-rule:nonzero;"/><path d="M2963.01,6767.48l-4.896,0l0,51.984c-3.312,-10.368 -12.816,-15.84 -21.6,-15.84c-14.688,0 -29.088,12.672 -29.088,36.288c0,19.872 10.224,34.848 27.504,34.848c11.232,0 20.304,-8.064 23.328,-17.28l0.576,15.84l4.176,0l0,-105.84ZM2958.12,6845.39c0,11.952 -9.792,24.912 -22.032,24.912c-16.992,0 -23.472,-15.84 -23.472,-30.96c0,-22.032 13.248,-31.248 24.336,-31.248c11.088,0 21.168,10.656 21.168,24.48l0,12.816Z" style="fill:#fff;fill-rule:nonzero;"/><path d="M3068.28,6837.76l11.952,35.568l5.184,0l-33.408,-99.072l-6.336,0l-33.696,99.072l5.04,0l11.952,-35.568l39.312,0ZM3066.84,6833.15l-36.288,0l18.144,-54l18.144,54Z" style="fill:#fff;fill-rule:nonzero;"/><path d="M3103.12,6782.75c-2.16,0 -3.888,1.728 -3.888,3.888c0,2.16 1.728,3.888 3.888,3.888c2.16,0 3.888,-1.728 3.888,-3.888c0,-2.16 -1.728,-3.888 -3.888,-3.888ZM3100.68,6873.32l4.896,0l0,-68.256l-4.896,0l0,68.256Z" style="fill:#fff;fill-rule:nonzero;"/><path d="M3133.94,6805.07l-4.176,0l0,68.256l4.896,0l0,-39.456c0,-12.816 5.04,-25.632 14.4,-25.632c1.44,0 2.88,0.144 3.888,0.576l0.576,-4.608c-0.72,-0.432 -2.448,-0.576 -3.6,-0.576c-7.2,0 -13.824,6.336 -15.408,14.976l-0.576,-13.536Z" style="fill:#fff;fill-rule:nonzero;"/><path d="M3203.49,6790.24c5.184,-5.76 13.392,-9.072 20.16,-9.072c11.664,0 19.152,6.048 19.152,18.288c0,9.648 -6.912,20.304 -23.472,41.328l-23.04,29.232l0,3.312l52.416,0l0,-4.608l-45.648,0l19.44,-24.336c18.576,-23.328 25.488,-34.56 25.488,-45.504c0,-13.824 -9.216,-22.32 -24.048,-22.32c-7.056,0 -15.552,2.88 -20.88,8.208l0.432,5.472Z" style="fill:#fff;fill-rule:nonzero;"/></g><g id="iPad Air"><g id="iPad Air Silver"><path id="Frame10" d="M3882.01,4037.29c0,-84.668 -43.495,-120.654 -123.828,-120.654l-1526.09,0c-84.251,0 -116.083,48.82 -116.083,120.07l0,2256.85c0,71.25 31.832,120.07 116.083,120.07l1526.09,0c80.333,0 123.828,-35.986 123.828,-120.653l0,-2255.68Z" style="fill:#d5d2cf;"/><g id="Body20"><path id="Body21" d="M3839.73,3955.29c-18.445,-17.269 -45.451,-25.664 -82.557,-25.664l-1525.21,0c-18.056,0 -34.09,2.558 -47.658,7.602c-13.261,4.931 -24.217,12.262 -32.562,21.791c-15.751,17.984 -23.738,44.119 -23.738,77.678l0,2256.85c0,33.43 8.017,59.535 23.827,77.587c17.134,19.564 43.799,29.483 79.256,29.483l1526.09,0c37.936,0 65.137,-8.199 83.154,-25.067c8.946,-8.375 15.792,-19.242 20.348,-32.298c4.861,-13.928 7.326,-30.848 7.326,-50.288l0,-2255.68c0,-19.442 -2.465,-36.359 -7.326,-50.287c-4.219,-12.088 -11.07,-22.459 -20.945,-31.704Z" style="fill:#f3f5f7;"/><g id="Home Button10"><path id="Home Button Circle4" d="M2998.51,6253.62c30.079,0 54.5,24.42 54.5,54.5c0,30.079 -24.421,54.5 -54.5,54.5c-30.08,0 -54.5,-24.421 -54.5,-54.5c0,-30.08 24.42,-54.5 54.5,-54.5ZM2998.51,6257.69c27.836,0 50.435,22.6 50.435,50.436c0,27.836 -22.599,50.435 -50.435,50.435c-27.836,0 -50.436,-22.599 -50.436,-50.435c0,-27.836 22.6,-50.436 50.436,-50.436Z" style="fill:#d5d2cf;"/><path id="Rounded Rectangle Symbol4" d="M2985.53,6327.76c-0.255,-0.002 -0.51,-0.015 -0.764,-0.044c-0.494,-0.056 -0.981,-0.168 -1.449,-0.333c-0.912,-0.322 -1.75,-0.845 -2.442,-1.52c-0.71,-0.694 -1.263,-1.545 -1.605,-2.478c-0.17,-0.465 -0.288,-0.95 -0.351,-1.442c-0.032,-0.253 -0.048,-0.507 -0.053,-0.762c-0.055,-8.705 -0.055,-17.41 0,-26.115c0.005,-0.255 0.021,-0.509 0.053,-0.762c0.063,-0.492 0.181,-0.976 0.351,-1.442c0.342,-0.933 0.895,-1.784 1.605,-2.478c0.692,-0.675 1.53,-1.198 2.442,-1.519c0.468,-0.165 0.955,-0.277 1.449,-0.334c0.225,-0.026 0.451,-0.038 0.678,-0.043c8.705,-0.055 17.41,-0.055 26.115,0c0.255,0.005 0.509,0.021 0.762,0.053c0.492,0.063 0.977,0.181 1.442,0.351c0.933,0.342 1.784,0.895 2.478,1.606c0.675,0.691 1.198,1.529 1.52,2.441c0.165,0.468 0.277,0.955 0.333,1.449c0.026,0.225 0.039,0.452 0.043,0.678c0.055,8.705 0.055,17.41 0,26.115c-0.005,0.255 -0.021,0.509 -0.053,0.762c-0.063,0.492 -0.18,0.977 -0.351,1.442c-0.342,0.933 -0.895,1.784 -1.605,2.478c-0.692,0.675 -1.529,1.198 -2.441,1.52c-0.469,0.165 -0.956,0.277 -1.449,0.333c-0.226,0.026 -0.452,0.039 -0.679,0.043c-8.676,0.055 -17.352,0.001 -26.029,0.001ZM2985.55,6323.35c8.672,0 17.349,0.271 26.017,-0.002c0.067,-0.003 0.134,-0.009 0.201,-0.017c0.228,-0.03 0.45,-0.093 0.659,-0.19c0.537,-0.251 0.967,-0.718 1.171,-1.274c0.087,-0.239 0.13,-0.49 0.135,-0.744c0.056,-8.687 0.276,-17.379 -0.001,-26.062c-0.011,-0.234 -0.053,-0.464 -0.134,-0.684c-0.227,-0.62 -0.731,-1.121 -1.35,-1.349c-0.237,-0.087 -0.487,-0.129 -0.739,-0.134c-8.688,-0.05 -17.381,-0.285 -26.064,0.002c-0.233,0.01 -0.463,0.052 -0.682,0.132c-0.61,0.225 -1.109,0.715 -1.34,1.323c-0.094,0.246 -0.14,0.506 -0.145,0.769c-0.053,8.688 -0.273,17.38 0.001,26.063c0.012,0.252 0.061,0.5 0.154,0.735c0.218,0.552 0.658,1.007 1.202,1.246c0.22,0.096 0.454,0.154 0.693,0.176c0.074,0.006 0.148,0.009 0.222,0.01Z" style="fill:#d5d2cf;fill-rule:nonzero;"/></g><g id="Screen10"><path id="Screen Frame10" d="M3766,4135.62l-1536,0c-4.417,0 -7.999,3.582 -7.999,8l0,2048c0,2.122 0.842,4.157 2.342,5.658c1.501,1.5 3.535,2.342 5.657,2.342l1536,0c4.418,0 8.001,-3.582 8.001,-8l0,-2048c0,-4.418 -3.583,-8 -8.001,-8Z" style="fill:#3e3e3e;"/><rect id="Screen - Off10" x="2230.01" y="4143.62" width="1536" height="2048" style="fill:#000;"/><path d="M2230.01,6199.62l-2.472,-0.392l-2.231,-1.136l-1.769,-1.77l-1.137,-2.23l-0.391,-2.472l0,-2048l0.391,-2.472l1.137,-2.23l1.769,-1.77l2.231,-1.136l2.472,-0.392l1536,0l2.472,0.392l2.23,1.136l1.77,1.77l1.136,2.23l0.392,2.472l0,2048l-0.392,2.472l-1.136,2.23l-1.77,1.77l-2.23,1.136l-2.472,0.392l-1536,0ZM2230.01,6191.62l1536,0l0,-2048l-1536,0l0,2048Z" style="fill:#3e3e3e;"/></g><g id="Top Sensors10"><path id="Microphone6" d="M2954.5,4027.62c3.865,0 7,3.134 7,7c0,3.866 -3.135,7 -7,7c-3.867,0 -7,-3.134 -7,-7c0,-3.866 3.133,-7 7,-7Z" style="fill:#e0e0e0;"/><path d="M2954.5,4027.62c3.865,0 7,3.134 7,7c0,3.866 -3.135,7 -7,7c-3.867,0 -7,-3.134 -7,-7c0,-3.866 3.133,-7 7,-7Z" style="fill:#e0e0e0;"/><path id="Camera10" d="M2997.01,4020.62c7.456,0 13.5,6.044 13.5,13.501c0,7.456 -6.044,13.499 -13.5,13.499c-7.456,0 -13.5,-6.043 -13.5,-13.499c0,-7.457 6.044,-13.501 13.5,-13.501Z" style="fill:#3e3e3e;"/></g></g></g><g id="iPad Air Space Gray"><path id="Frame11" d="M1962.01,4037.29c0,-84.668 -43.495,-120.654 -123.828,-120.654l-1526.09,0c-84.251,0 -116.083,48.82 -116.083,120.07l0,2256.85c0,71.25 31.832,120.07 116.083,120.07l1526.09,0c80.333,0 123.828,-35.986 123.828,-120.653l0,-2255.68Z" style="fill:#343438;"/><g id="Body22"><path id="Body23" d="M1919.73,3955.29c-18.445,-17.269 -45.451,-25.664 -82.557,-25.664l-1525.21,0c-18.056,0 -34.09,2.558 -47.658,7.602c-13.261,4.931 -24.217,12.262 -32.562,21.791c-15.751,17.984 -23.738,44.119 -23.738,77.678l0,2256.85c0,33.43 8.017,59.535 23.827,77.587c17.134,19.564 43.799,29.483 79.256,29.483l1526.09,0c37.936,0 65.137,-8.199 83.154,-25.067c8.946,-8.375 15.792,-19.242 20.348,-32.298c4.861,-13.928 7.326,-30.848 7.326,-50.288l0,-2255.68c0,-19.442 -2.465,-36.359 -7.326,-50.287c-4.219,-12.088 -11.07,-22.459 -20.945,-31.704Z" style="fill:#141414;"/><g id="Home Button11"><path id="Home Button Circle5" d="M1078.51,6253.62c30.079,0 54.5,24.42 54.5,54.5c0,30.079 -24.421,54.5 -54.5,54.5c-30.08,0 -54.5,-24.421 -54.5,-54.5c0,-30.08 24.42,-54.5 54.5,-54.5ZM1078.51,6257.69c27.836,0 50.435,22.6 50.435,50.436c0,27.836 -22.599,50.435 -50.435,50.435c-27.836,0 -50.436,-22.599 -50.436,-50.435c0,-27.836 22.6,-50.436 50.436,-50.436Z" style="fill:#343438;"/><path id="Rounded Rectangle Symbol5" d="M1065.53,6327.76c-0.255,-0.002 -0.51,-0.015 -0.764,-0.044c-0.494,-0.056 -0.981,-0.168 -1.449,-0.333c-0.912,-0.322 -1.75,-0.845 -2.442,-1.52c-0.71,-0.694 -1.263,-1.545 -1.605,-2.478c-0.17,-0.465 -0.288,-0.95 -0.351,-1.442c-0.032,-0.253 -0.048,-0.507 -0.053,-0.762c-0.055,-8.705 -0.055,-17.41 0,-26.115c0.005,-0.255 0.021,-0.509 0.053,-0.762c0.063,-0.492 0.181,-0.976 0.351,-1.442c0.342,-0.933 0.895,-1.784 1.605,-2.478c0.692,-0.675 1.53,-1.198 2.442,-1.519c0.468,-0.165 0.955,-0.277 1.449,-0.334c0.225,-0.026 0.451,-0.038 0.678,-0.043c8.705,-0.055 17.41,-0.055 26.115,0c0.255,0.005 0.509,0.021 0.762,0.053c0.492,0.063 0.977,0.181 1.442,0.351c0.933,0.342 1.784,0.895 2.478,1.606c0.675,0.691 1.198,1.529 1.52,2.441c0.165,0.468 0.277,0.955 0.333,1.449c0.026,0.225 0.039,0.452 0.043,0.678c0.055,8.705 0.055,17.41 0,26.115c-0.005,0.255 -0.021,0.509 -0.053,0.762c-0.063,0.492 -0.18,0.977 -0.351,1.442c-0.342,0.933 -0.895,1.784 -1.605,2.478c-0.692,0.675 -1.529,1.198 -2.441,1.52c-0.469,0.165 -0.956,0.277 -1.449,0.333c-0.226,0.026 -0.452,0.039 -0.679,0.043c-8.676,0.055 -17.352,0.001 -26.029,0.001ZM1065.55,6323.35c8.672,0 17.349,0.271 26.017,-0.002c0.067,-0.003 0.134,-0.009 0.201,-0.017c0.228,-0.03 0.45,-0.093 0.659,-0.19c0.537,-0.251 0.967,-0.718 1.171,-1.274c0.087,-0.239 0.13,-0.49 0.135,-0.744c0.056,-8.687 0.276,-17.379 -0.001,-26.062c-0.011,-0.234 -0.053,-0.464 -0.134,-0.684c-0.227,-0.62 -0.731,-1.121 -1.35,-1.349c-0.237,-0.087 -0.487,-0.129 -0.739,-0.134c-8.688,-0.05 -17.381,-0.285 -26.064,0.002c-0.233,0.01 -0.463,0.052 -0.682,0.132c-0.61,0.225 -1.109,0.715 -1.34,1.323c-0.094,0.246 -0.14,0.506 -0.145,0.769c-0.053,8.688 -0.273,17.38 0.001,26.063c0.012,0.252 0.061,0.5 0.154,0.735c0.218,0.552 0.658,1.007 1.202,1.246c0.22,0.096 0.454,0.154 0.693,0.176c0.074,0.006 0.148,0.009 0.222,0.01Z" style="fill:#d5d2cf;fill-rule:nonzero;"/></g><g id="Screen11"><path id="Screen Frame11" d="M1846,4135.62l-1536,0c-4.417,0 -7.999,3.582 -7.999,8l0,2048c0,2.122 0.842,4.157 2.342,5.658c1.501,1.5 3.535,2.342 5.657,2.342l1536,0c4.418,0 8.001,-3.582 8.001,-8l0,-2048c0,-4.418 -3.583,-8 -8.001,-8Z" style="fill:#141414;"/><rect id="Screen - Off11" x="310.005" y="4143.62" width="1536" height="2048" style="fill:#141414;"/></g><g id="Top Sensors11"><path id="Camera11" d="M1077.01,4020.62c7.456,0 13.5,6.044 13.5,13.501c0,7.456 -6.044,13.499 -13.5,13.499c-7.456,0 -13.5,-6.043 -13.5,-13.499c0,-7.457 6.044,-13.501 13.5,-13.501Z" style="fill:#1d1d1d;"/></g></g></g><path id="iPad Air1" d="M1816.53,3547.82c-2.16,0 -3.888,1.728 -3.888,3.888c0,2.16 1.728,3.888 3.888,3.888c2.16,0 3.888,-1.728 3.888,-3.888c0,-2.16 -1.728,-3.888 -3.888,-3.888ZM1814.08,3638.4l4.896,0l0,-68.256l-4.896,0l0,68.256Z" style="fill:#fff;fill-rule:nonzero;"/><path d="M1843.74,3638.4l4.896,0l0,-43.632c2.592,0.288 5.616,0.432 8.208,0.432c19.44,0 37.152,-10.8 37.152,-30.24c0,-15.12 -10.656,-27.072 -34.704,-27.072c-4.752,0 -9.936,0.432 -15.552,1.728l0,98.784ZM1848.64,3543.5c4.176,-0.72 7.776,-1.008 10.944,-1.008c20.736,0 28.944,9.36 28.944,23.184c0,14.544 -13.104,25.056 -33.408,25.056c-1.728,0 -4.608,-0.288 -6.48,-0.576l0,-46.656Z" style="fill:#fff;fill-rule:nonzero;"/><path d="M1911.13,3578.35c5.76,-3.456 11.52,-5.184 16.56,-5.184c10.08,0 17.424,4.752 17.424,16.56l0,9.072c-3.312,-0.72 -6.336,-1.008 -10.656,-1.008c-14.832,0 -29.088,7.344 -29.088,23.328c0,11.808 8.928,18.72 18.288,18.72c8.784,0 17.568,-4.752 21.6,-15.12l0.576,13.68l4.176,0l0,-49.536c0,-13.104 -8.784,-20.16 -20.88,-20.16c-7.344,0 -12.96,1.584 -18.288,4.896l0.288,4.752ZM1945.12,3610.32c0,16.416 -10.08,25.056 -19.584,25.056c-8.352,0 -14.976,-5.616 -14.976,-15.12c0,-9.792 9.36,-18 23.472,-18c4.032,0 7.776,0.288 11.088,0.864l0,7.2Z" style="fill:#fff;fill-rule:nonzero;"/><path d="M2024.75,3532.56l-4.896,0l0,51.984c-3.312,-10.368 -12.816,-15.84 -21.6,-15.84c-14.688,0 -29.088,12.672 -29.088,36.288c0,19.872 10.224,34.848 27.504,34.848c11.232,0 20.304,-8.064 23.328,-17.28l0.576,15.84l4.176,0l0,-105.84ZM2019.85,3610.46c0,11.952 -9.792,24.912 -22.032,24.912c-16.992,0 -23.472,-15.84 -23.472,-30.96c0,-22.032 13.248,-31.248 24.336,-31.248c11.088,0 21.168,10.656 21.168,24.48l0,12.816Z" style="fill:#fff;fill-rule:nonzero;"/><path d="M2130.01,3602.83l11.952,35.568l5.184,0l-33.408,-99.072l-6.336,0l-33.696,99.072l5.04,0l11.952,-35.568l39.312,0ZM2128.57,3598.22l-36.288,0l18.144,-54l18.144,54Z" style="fill:#fff;fill-rule:nonzero;"/><path d="M2164.86,3547.82c-2.16,0 -3.888,1.728 -3.888,3.888c0,2.16 1.728,3.888 3.888,3.888c2.16,0 3.888,-1.728 3.888,-3.888c0,-2.16 -1.728,-3.888 -3.888,-3.888ZM2162.41,3638.4l4.896,0l0,-68.256l-4.896,0l0,68.256Z" style="fill:#fff;fill-rule:nonzero;"/><path d="M2195.68,3570.14l-4.176,0l0,68.256l4.896,0l0,-39.456c0,-12.816 5.04,-25.632 14.4,-25.632c1.44,0 2.88,0.144 3.888,0.576l0.576,-4.608c-0.72,-0.432 -2.448,-0.576 -3.6,-0.576c-7.2,0 -13.824,6.336 -15.408,14.976l-0.576,-13.536Z" style="fill:#fff;fill-rule:nonzero;"/></g><g id="iPad 3-4"><g id="iPad 3-4 White"><path id="Frame12" d="M8408.54,899.387l-1754.51,0c-51.363,0 -91.02,38.901 -91.02,86.719l0,2342.57c0,47.816 38.905,86.718 86.721,86.718l1764.54,0c47.817,0 86.721,-38.902 86.721,-86.718l0,-2342.57c0,-47.818 -39.42,-86.719 -92.451,-86.719Z" style="fill:#d5d2cf;"/><g id="Body24"><path id="Body25" d="M8492.95,3328.57c0,43.538 -35.297,78.835 -78.838,78.835l-1764.29,0c-43.543,0 -78.836,-35.297 -78.836,-78.835l0,-2342.32c0,-43.538 35.293,-78.836 78.836,-78.836l1764.29,0c43.541,0 78.838,35.298 78.838,78.836l0,2342.32Z" style="fill:#f3f5f7;"/><g id="Screen12"><path id="Frame13" d="M6769,3175.39c-0.824,-0.13 -1.678,-0.133 -2.472,-0.391c-0.793,-0.258 -1.555,-0.646 -2.23,-1.136c-1.367,-0.993 -2.384,-2.394 -2.906,-4c-0.258,-0.794 -0.261,-1.648 -0.392,-2.473l0,-2047.96c0.131,-0.824 0.134,-1.678 0.392,-2.472c0.258,-0.793 0.646,-1.555 1.136,-2.23c0.993,-1.367 2.393,-2.384 4,-2.906c0.794,-0.258 1.648,-0.261 2.472,-0.392l1536,0c0.824,0.131 1.678,0.134 2.472,0.392c1.607,0.522 3.007,1.539 4,2.906c0.49,0.675 0.878,1.437 1.136,2.23c0.258,0.794 0.261,1.648 0.392,2.472l0,2047.96c-0.131,0.825 -0.134,1.679 -0.392,2.473c-0.258,0.793 -0.646,1.555 -1.136,2.23c-0.993,1.367 -2.393,2.384 -4,2.906c-0.794,0.258 -1.648,0.261 -2.472,0.391c-512,0 -1024,0 -1536,0Z" style="fill:#3e3e3e;"/><rect id="Screen - Off12" x="6769" y="1119.43" width="1536" height="2047.96" style="fill:#000;"/></g><g id="Home Button12"><path id="Home Button Circle6" d="M7535.37,3240.94c30.08,0 54.5,24.421 54.5,54.5c0,30.08 -24.42,54.5 -54.5,54.5c-30.079,0 -54.5,-24.42 -54.5,-54.5c0,-30.079 24.421,-54.5 54.5,-54.5ZM7535.37,3245.01c27.836,0 50.436,22.599 50.436,50.435c0,27.836 -22.6,50.436 -50.436,50.436c-27.836,0 -50.435,-22.6 -50.435,-50.436c0,-27.836 22.599,-50.435 50.435,-50.435Z" style="fill:#d5d2cf;"/><path id="Rounded Rectangle Symbol6" d="M7522.4,3315.08c-0.255,-0.001 -0.51,-0.014 -0.765,-0.043c-0.493,-0.057 -0.98,-0.169 -1.449,-0.334c-0.912,-0.321 -1.749,-0.844 -2.441,-1.519c-0.71,-0.694 -1.263,-1.545 -1.605,-2.478c-0.171,-0.465 -0.288,-0.95 -0.351,-1.442c-0.032,-0.253 -0.048,-0.507 -0.053,-0.762c-0.055,-8.705 -0.055,-17.41 0,-26.115c0.005,-0.255 0.021,-0.509 0.053,-0.762c0.063,-0.492 0.18,-0.977 0.351,-1.442c0.342,-0.933 0.895,-1.784 1.605,-2.478c0.692,-0.675 1.529,-1.198 2.441,-1.52c0.469,-0.165 0.956,-0.277 1.449,-0.333c0.226,-0.026 0.452,-0.039 0.679,-0.043c8.705,-0.055 17.41,-0.055 26.115,0c0.255,0.005 0.509,0.021 0.762,0.053c0.492,0.063 0.977,0.18 1.442,0.351c0.933,0.342 1.784,0.895 2.478,1.605c0.675,0.692 1.198,1.529 1.519,2.441c0.165,0.469 0.277,0.956 0.334,1.449c0.026,0.226 0.039,0.452 0.043,0.679c0.055,8.705 0.055,17.41 0,26.115c-0.005,0.255 -0.021,0.509 -0.053,0.762c-0.063,0.492 -0.181,0.977 -0.351,1.442c-0.342,0.933 -0.895,1.784 -1.605,2.478c-0.692,0.675 -1.53,1.198 -2.442,1.519c-0.468,0.165 -0.955,0.277 -1.449,0.334c-0.225,0.026 -0.451,0.039 -0.678,0.043c-8.676,0.055 -17.353,0 -26.029,0ZM7522.41,3310.67c8.672,0 17.349,0.272 26.016,-0.001c0.068,-0.003 0.135,-0.009 0.202,-0.017c0.228,-0.031 0.45,-0.093 0.659,-0.191c0.537,-0.25 0.967,-0.717 1.171,-1.274c0.087,-0.238 0.13,-0.489 0.135,-0.743c0.056,-8.688 0.276,-17.38 -0.001,-26.063c-0.011,-0.233 -0.054,-0.464 -0.134,-0.684c-0.228,-0.62 -0.731,-1.12 -1.35,-1.348c-0.237,-0.087 -0.487,-0.13 -0.739,-0.134c-8.688,-0.05 -17.381,-0.285 -26.064,0.001c-0.233,0.01 -0.463,0.053 -0.682,0.133c-0.61,0.225 -1.109,0.714 -1.34,1.323c-0.094,0.246 -0.14,0.506 -0.145,0.769c-0.053,8.688 -0.273,17.38 0.001,26.063c0.011,0.252 0.061,0.5 0.154,0.734c0.218,0.553 0.658,1.008 1.202,1.246c0.22,0.097 0.454,0.154 0.692,0.177c0.075,0.006 0.149,0.009 0.223,0.009Z" style="fill:#d5d2cf;fill-rule:nonzero;"/></g><path id="Camera12" d="M7531.89,991.952c8.837,0 16,7.164 16,16.001c0,8.836 -7.163,15.999 -16,15.999c-8.836,0 -16,-7.163 -16,-15.999c0,-8.837 7.164,-16.001 16,-16.001Z" style="fill:#3e3e3e;"/></g></g><g id="iPad 3-4 Black"><path id="Frame14" d="M6344.54,899.403l-1754.51,0c-51.364,0 -91.02,38.902 -91.02,86.719l0,2342.57c0,47.816 38.905,86.718 86.721,86.718l1764.54,0c47.817,0 86.721,-38.902 86.721,-86.718l0,-2342.57c0,-47.817 -39.42,-86.719 -92.451,-86.719Z" style="fill:#d5d2cf;"/><g id="Body26"><path id="Body27" d="M6428.95,3328.59c0,43.538 -35.297,78.835 -78.838,78.835l-1764.29,0c-43.543,0 -78.836,-35.297 -78.836,-78.835l0,-2342.32c0,-43.538 35.293,-78.836 78.836,-78.836l1764.29,0c43.541,0 78.838,35.298 78.838,78.836l0,2342.32Z" style="fill:#141414;"/><g id="Screen13"><path id="Frame15" d="M4705,3175.4c-0.824,-0.131 -1.679,-0.134 -2.472,-0.392c-0.794,-0.258 -1.556,-0.646 -2.23,-1.136c-1.367,-0.993 -2.385,-2.394 -2.907,-4c-0.257,-0.794 -0.261,-1.648 -0.391,-2.472l0,-2047.96c0.13,-0.824 0.134,-1.678 0.391,-2.472c0.258,-0.793 0.646,-1.555 1.137,-2.23c0.993,-1.367 2.393,-2.384 4,-2.906c0.793,-0.258 1.648,-0.261 2.472,-0.392l1536,0c0.824,0.131 1.679,0.134 2.472,0.392c1.607,0.522 3.007,1.539 4,2.906c0.491,0.675 0.879,1.437 1.137,2.23c0.258,0.794 0.261,1.648 0.391,2.472l0,2047.96c-0.13,0.824 -0.133,1.678 -0.391,2.472c-0.258,0.793 -0.646,1.555 -1.137,2.23c-0.993,1.367 -2.393,2.384 -4,2.906c-0.793,0.258 -1.648,0.261 -2.472,0.392c-512,0 -1024,0 -1536,0Z" style="fill:#141414;"/><rect id="Screen - Off13" x="4705" y="1119.44" width="1536" height="2047.96" style="fill:#141414;"/></g><g id="Home Button13"><path id="Home Button Circle7" d="M5471.37,3240.96c30.079,0 54.5,24.421 54.5,54.5c0,30.08 -24.421,54.5 -54.5,54.5c-30.079,0 -54.5,-24.42 -54.5,-54.5c0,-30.079 24.421,-54.5 54.5,-54.5ZM5471.37,3245.02c27.836,0 50.435,22.599 50.435,50.435c0,27.837 -22.599,50.436 -50.435,50.436c-27.836,0 -50.436,-22.599 -50.436,-50.436c0,-27.836 22.6,-50.435 50.436,-50.435Z" style="fill:#1d1d1d;"/><path id="Rounded Rectangle Symbol7" d="M5458.4,3315.09c-0.256,-0.001 -0.511,-0.014 -0.765,-0.043c-0.494,-0.057 -0.981,-0.168 -1.449,-0.334c-0.912,-0.321 -1.749,-0.844 -2.441,-1.519c-0.711,-0.694 -1.264,-1.545 -1.605,-2.478c-0.171,-0.465 -0.289,-0.95 -0.351,-1.442c-0.033,-0.253 -0.049,-0.507 -0.054,-0.762c-0.055,-8.705 -0.055,-17.41 0,-26.115c0.005,-0.255 0.021,-0.509 0.054,-0.762c0.062,-0.492 0.18,-0.977 0.351,-1.442c0.341,-0.933 0.894,-1.784 1.605,-2.478c0.692,-0.675 1.529,-1.198 2.441,-1.519c0.468,-0.166 0.955,-0.278 1.449,-0.334c0.226,-0.026 0.452,-0.039 0.679,-0.043c8.704,-0.055 17.41,-0.055 26.114,0c0.255,0.005 0.509,0.021 0.762,0.053c0.492,0.063 0.977,0.18 1.443,0.351c0.932,0.342 1.783,0.895 2.477,1.605c0.676,0.692 1.198,1.529 1.52,2.441c0.165,0.469 0.277,0.956 0.333,1.449c0.026,0.226 0.039,0.452 0.043,0.679c0.056,8.705 0.056,17.41 0,26.115c-0.004,0.255 -0.02,0.509 -0.053,0.762c-0.062,0.492 -0.18,0.977 -0.351,1.442c-0.341,0.933 -0.895,1.784 -1.605,2.478c-0.692,0.675 -1.529,1.198 -2.441,1.519c-0.469,0.166 -0.956,0.277 -1.449,0.334c-0.226,0.026 -0.452,0.039 -0.679,0.043c-8.676,0.055 -17.352,0 -26.028,0ZM5458.41,3310.69c8.672,0 17.348,0.272 26.016,-0.001c0.067,-0.003 0.134,-0.009 0.202,-0.017c0.228,-0.031 0.449,-0.093 0.658,-0.191c0.538,-0.25 0.967,-0.717 1.171,-1.274c0.088,-0.238 0.131,-0.489 0.136,-0.743c0.055,-8.687 0.275,-17.379 -0.002,-26.062c-0.01,-0.234 -0.053,-0.465 -0.134,-0.684c-0.227,-0.621 -0.731,-1.121 -1.35,-1.349c-0.236,-0.087 -0.487,-0.13 -0.738,-0.134c-8.688,-0.05 -17.381,-0.285 -26.065,0.001c-0.232,0.01 -0.463,0.053 -0.681,0.133c-0.611,0.225 -1.109,0.714 -1.341,1.323c-0.094,0.246 -0.14,0.506 -0.145,0.769c-0.052,8.688 -0.272,17.38 0.002,26.063c0.011,0.252 0.06,0.5 0.153,0.734c0.218,0.553 0.659,1.008 1.202,1.246c0.22,0.097 0.454,0.154 0.693,0.177c0.074,0.006 0.148,0.009 0.223,0.009Z" style="fill:#d5d2cf;fill-rule:nonzero;"/></g><path id="Camera13" d="M5467.89,991.969c8.837,0 16,7.163 16,16c0,8.836 -7.163,16 -16,16c-8.836,0 -16,-7.164 -16,-16c0,-8.837 7.164,-16 16,-16Z" style="fill:#1d1d1d;"/></g></g><path id="iPad Air2" d="M6275.63,564.059c-2.16,0 -3.888,1.728 -3.888,3.888c0,2.16 1.728,3.888 3.888,3.888c2.16,0 3.888,-1.728 3.888,-3.888c0,-2.16 -1.728,-3.888 -3.888,-3.888ZM6273.18,654.635l4.896,0l0,-68.256l-4.896,0l0,68.256Z" style="fill:#fff;fill-rule:nonzero;"/><path d="M6302.85,654.635l4.896,0l0,-43.632c2.592,0.288 5.616,0.432 8.208,0.432c19.44,0 37.152,-10.8 37.152,-30.24c0,-15.12 -10.656,-27.072 -34.704,-27.072c-4.752,0 -9.936,0.432 -15.552,1.728l0,98.784ZM6307.74,559.739c4.176,-0.72 7.776,-1.008 10.944,-1.008c20.736,0 28.944,9.36 28.944,23.184c0,14.544 -13.104,25.056 -33.408,25.056c-1.728,0 -4.608,-0.288 -6.48,-0.576l0,-46.656Z" style="fill:#fff;fill-rule:nonzero;"/><path d="M6370.24,594.587c5.76,-3.456 11.52,-5.184 16.56,-5.184c10.08,0 17.424,4.752 17.424,16.56l0,9.072c-3.312,-0.72 -6.336,-1.008 -10.656,-1.008c-14.832,0 -29.088,7.344 -29.088,23.328c0,11.808 8.928,18.72 18.288,18.72c8.784,0 17.568,-4.752 21.6,-15.12l0.576,13.68l4.176,0l0,-49.536c0,-13.104 -8.784,-20.16 -20.88,-20.16c-7.344,0 -12.96,1.584 -18.288,4.896l0.288,4.752ZM6404.22,626.555c0,16.416 -10.08,25.056 -19.584,25.056c-8.352,0 -14.976,-5.616 -14.976,-15.12c0,-9.792 9.36,-18 23.472,-18c4.032,0 7.776,0.288 11.088,0.864l0,7.2Z" style="fill:#fff;fill-rule:nonzero;"/><path d="M6483.86,548.795l-4.896,0l0,51.984c-3.312,-10.368 -12.816,-15.84 -21.6,-15.84c-14.688,0 -29.088,12.672 -29.088,36.288c0,19.872 10.224,34.848 27.504,34.848c11.232,0 20.304,-8.064 23.328,-17.28l0.576,15.84l4.176,0l0,-105.84ZM6478.96,626.699c0,11.952 -9.792,24.912 -22.032,24.912c-16.992,0 -23.472,-15.84 -23.472,-30.96c0,-22.032 13.248,-31.248 24.336,-31.248c11.088,0 21.168,10.656 21.168,24.48l0,12.816Z" style="fill:#fff;fill-rule:nonzero;"/><path d="M6542.75,569.819c5.76,-4.896 12.384,-7.344 18.288,-7.344c14.112,0 20.448,7.632 20.448,18.432c0,13.104 -13.536,22.176 -28.944,22.752l0,4.608c20.016,0 29.376,9.216 29.376,22.464c0,11.952 -10.512,20.736 -23.472,20.736c-7.2,0 -13.392,-1.728 -20.304,-6.48l-0.432,5.184c5.472,4.176 12.384,5.904 20.16,5.904c16.416,0 29.232,-11.088 29.232,-25.776c0,-13.68 -9.36,-23.328 -24.192,-25.056c12.528,-2.448 23.76,-12.528 23.76,-25.488c0,-12.096 -8.64,-21.888 -24.192,-21.888c-8.208,0 -14.832,2.592 -20.016,6.768l0.288,5.184Z" style="fill:#fff;fill-rule:nonzero;"/><path d="M6600.64,668.603l49.392,-121.824l-4.752,0l-49.248,121.824l4.608,0Z" style="fill:#fff;fill-rule:nonzero;"/><path d="M6699.28,622.523l0,-63.216l-6.048,0l-36.576,64.368l0,3.456l37.728,0l0,27.36l4.896,0l0,-27.36l12.672,0l0,-4.608l-12.672,0ZM6662.85,622.523l32.112,-58.176c-0.576,11.52 -0.576,25.92 -0.576,33.12l0,25.056l-31.536,0Z" style="fill:#fff;fill-rule:nonzero;"/></g><g id="iPad 2"><g id="iPad 2 White"><path id="Frame16" d="M2170.27,1744.09l-877.258,0c-25.682,0 -45.51,19.451 -45.51,43.36l0,1171.29c0,23.908 19.452,43.359 43.36,43.359l882.273,0c23.909,0 43.361,-19.451 43.361,-43.359l0,-1171.29c0,-23.909 -19.71,-43.36 -46.226,-43.36Z" style="fill:#d5d2cf;"/><g id="Body28"><path id="Body29" d="M2212.48,2958.69c0,21.769 -17.649,39.418 -39.419,39.418l-882.148,0c-21.772,0 -39.418,-17.649 -39.418,-39.418l0,-1171.17c0,-21.769 17.646,-39.418 39.418,-39.418l882.148,0c21.77,0 39.419,17.649 39.419,39.418l0,1171.17Z" style="fill:#f3f5f7;"/><g id="Screen14"><path id="Frame17" d="M1350.5,2882.1c-0.412,-0.065 -0.84,-0.067 -1.236,-0.196c-0.397,-0.129 -0.778,-0.323 -1.115,-0.568c-0.684,-0.497 -1.192,-1.197 -1.453,-2c-0.129,-0.397 -0.131,-0.824 -0.196,-1.236l0,-1023.99c0.065,-0.412 0.067,-0.84 0.196,-1.236c0.128,-0.397 0.322,-0.778 0.568,-1.115c0.496,-0.684 1.196,-1.192 2,-1.453c0.396,-0.129 0.824,-0.131 1.236,-0.196l768.004,0c0.412,0.065 0.839,0.067 1.236,0.196c0.804,0.261 1.504,0.769 2,1.453c0.245,0.337 0.439,0.718 0.568,1.115c0.129,0.396 0.131,0.824 0.196,1.236l0,1023.99c-0.065,0.412 -0.067,0.839 -0.196,1.236c-0.129,0.397 -0.323,0.778 -0.568,1.115c-0.496,0.683 -1.196,1.192 -2,1.453c-0.397,0.129 -0.824,0.131 -1.236,0.196c-256.001,0 -512.003,0 -768.004,0Z" style="fill:#3e3e3e;"/><rect id="Screen - Off14" x="1350.5" y="1854.11" width="768.004" height="1023.99" style="fill:#000;"/></g><g id="Home Button14"><path id="Home Button Circle8" d="M1733.69,2914.88c15.039,0 27.25,12.21 27.25,27.25c0,15.039 -12.211,27.25 -27.25,27.25c-15.04,0 -27.251,-12.211 -27.251,-27.25c0,-15.04 12.211,-27.25 27.251,-27.25ZM1733.69,2916.91c13.918,0 25.217,11.3 25.217,25.218c0,13.918 -11.299,25.218 -25.217,25.218c-13.919,0 -25.218,-11.3 -25.218,-25.218c0,-13.918 11.299,-25.218 25.218,-25.218Z" style="fill:#d5d2cf;"/><path id="Rounded Rectangle" d="M1727.2,2951.94c-0.128,-0.001 -0.255,-0.007 -0.382,-0.022c-0.247,-0.028 -0.491,-0.084 -0.725,-0.167c-0.456,-0.161 -0.875,-0.422 -1.22,-0.76c-0.356,-0.346 -0.632,-0.772 -0.803,-1.238c-0.085,-0.233 -0.144,-0.476 -0.176,-0.721c-0.016,-0.127 -0.024,-0.254 -0.026,-0.382c-0.028,-4.352 -0.028,-8.705 0,-13.057c0.002,-0.127 0.01,-0.255 0.026,-0.381c0.032,-0.246 0.091,-0.488 0.176,-0.721c0.171,-0.466 0.447,-0.892 0.803,-1.239c0.345,-0.338 0.764,-0.599 1.22,-0.76c0.234,-0.082 0.478,-0.138 0.725,-0.167c0.112,-0.013 0.225,-0.019 0.339,-0.021c4.352,-0.028 8.705,-0.028 13.057,0c0.128,0.002 0.255,0.01 0.381,0.026c0.246,0.032 0.489,0.091 0.722,0.176c0.466,0.171 0.891,0.447 1.238,0.803c0.338,0.345 0.599,0.764 0.76,1.22c0.083,0.234 0.139,0.478 0.167,0.725c0.013,0.112 0.019,0.226 0.021,0.339c0.028,4.352 0.028,8.705 0,13.057c-0.002,0.128 -0.01,0.255 -0.026,0.382c-0.031,0.245 -0.09,0.488 -0.176,0.721c-0.171,0.466 -0.447,0.892 -0.802,1.238c-0.346,0.338 -0.765,0.599 -1.221,0.76c-0.234,0.083 -0.478,0.139 -0.724,0.167c-0.113,0.013 -0.226,0.019 -0.34,0.022c-4.338,0.027 -8.676,0 -13.014,0ZM1727.21,2949.74c4.336,0 8.674,0.136 13.008,-0.001c0.034,-0.002 0.067,-0.004 0.101,-0.008c0.114,-0.016 0.225,-0.047 0.329,-0.096c0.269,-0.125 0.484,-0.358 0.586,-0.637c0.044,-0.119 0.065,-0.245 0.067,-0.372c0.028,-4.343 0.138,-8.689 0,-13.031c-0.005,-0.117 -0.027,-0.232 -0.067,-0.342c-0.114,-0.31 -0.366,-0.56 -0.675,-0.674c-0.118,-0.044 -0.244,-0.065 -0.369,-0.067c-4.345,-0.025 -8.691,-0.143 -13.033,0.001c-0.116,0.005 -0.231,0.026 -0.341,0.066c-0.305,0.112 -0.554,0.357 -0.67,0.661c-0.047,0.124 -0.07,0.253 -0.072,0.385c-0.027,4.344 -0.137,8.69 0.001,13.032c0.005,0.125 0.03,0.249 0.076,0.367c0.109,0.276 0.329,0.504 0.601,0.623c0.11,0.048 0.227,0.077 0.347,0.088c0.037,0.003 0.074,0.004 0.111,0.005Z" style="fill:#d5d2cf;fill-rule:nonzero;"/></g><path id="Camera14" d="M1731.95,1790.37c4.418,0 8,3.582 8,8c0,4.418 -3.582,8 -8,8c-4.418,0 -8,-3.582 -8,-8c0,-4.418 3.582,-8 8,-8Z" style="fill:#3e3e3e;"/></g></g><g id="iPad 2 Black"><path id="Frame18" d="M1138.27,1744.1l-877.258,0c-25.682,0 -45.51,19.451 -45.51,43.36l0,1171.29c0,23.908 19.452,43.359 43.361,43.359l882.272,0c23.909,0 43.361,-19.451 43.361,-43.359l0,-1171.29c0,-23.909 -19.71,-43.36 -46.226,-43.36Z" style="fill:#d5d2cf;"/><g id="Body30"><path id="Body31" d="M1180.48,2958.7c0,21.769 -17.648,39.418 -39.419,39.418l-882.148,0c-21.772,0 -39.418,-17.649 -39.418,-39.418l0,-1171.17c0,-21.769 17.646,-39.418 39.418,-39.418l882.148,0c21.771,0 39.419,17.649 39.419,39.418l0,1171.17Z" style="fill:#141414;"/><g id="Screen15"><path id="Frame19" d="M318.495,2882.11c-0.412,-0.065 -0.839,-0.067 -1.236,-0.196c-0.397,-0.129 -0.778,-0.323 -1.115,-0.568c-0.684,-0.497 -1.192,-1.197 -1.453,-2c-0.129,-0.397 -0.131,-0.824 -0.196,-1.236l0,-1023.99c0.065,-0.412 0.067,-0.84 0.196,-1.236c0.129,-0.397 0.323,-0.778 0.568,-1.115c0.496,-0.684 1.197,-1.192 2,-1.453c0.397,-0.129 0.824,-0.131 1.236,-0.196l768.004,0c0.412,0.065 0.84,0.067 1.236,0.196c0.804,0.261 1.504,0.769 2,1.453c0.246,0.337 0.44,0.718 0.569,1.115c0.128,0.396 0.13,0.824 0.195,1.236l0,1023.99c-0.065,0.412 -0.067,0.839 -0.195,1.236c-0.129,0.397 -0.323,0.778 -0.569,1.115c-0.496,0.683 -1.196,1.192 -2,1.453c-0.396,0.129 -0.824,0.131 -1.236,0.196c-256.001,0 -512.003,0 -768.004,0Z" style="fill:#141414;"/><rect id="Screen - Off15" x="318.495" y="1854.12" width="768.004" height="1023.99" style="fill:#141414;"/></g><g id="Home Button15"><path id="Home Button Circle9" d="M701.681,2914.88c15.04,0 27.25,12.21 27.25,27.25c0,15.04 -12.21,27.25 -27.25,27.25c-15.04,0 -27.25,-12.21 -27.25,-27.25c0,-15.04 12.21,-27.25 27.25,-27.25ZM701.681,2916.91c13.918,0 25.218,11.3 25.218,25.218c0,13.918 -11.3,25.218 -25.218,25.218c-13.918,0 -25.218,-11.3 -25.218,-25.218c0,-13.918 11.3,-25.218 25.218,-25.218Z" style="fill:#1d1d1d;"/><path id="Rounded Rectangle1" d="M695.195,2951.95c-0.128,-0.001 -0.255,-0.007 -0.382,-0.022c-0.247,-0.028 -0.49,-0.084 -0.725,-0.167c-0.456,-0.16 -0.874,-0.422 -1.22,-0.76c-0.356,-0.346 -0.632,-0.772 -0.803,-1.238c-0.085,-0.233 -0.144,-0.475 -0.175,-0.721c-0.017,-0.127 -0.025,-0.254 -0.027,-0.382c-0.028,-4.352 -0.028,-8.705 0,-13.057c0.002,-0.127 0.01,-0.255 0.027,-0.381c0.031,-0.246 0.09,-0.488 0.175,-0.721c0.171,-0.466 0.447,-0.892 0.803,-1.239c0.346,-0.338 0.764,-0.599 1.22,-0.76c0.235,-0.082 0.478,-0.138 0.725,-0.167c0.113,-0.012 0.226,-0.019 0.339,-0.021c4.353,-0.028 8.705,-0.028 13.057,0c0.128,0.002 0.255,0.01 0.382,0.026c0.246,0.032 0.488,0.091 0.721,0.176c0.466,0.171 0.892,0.447 1.238,0.803c0.338,0.345 0.6,0.764 0.76,1.22c0.083,0.234 0.139,0.478 0.167,0.725c0.013,0.112 0.019,0.226 0.022,0.339c0.027,4.352 0.027,8.705 0,13.057c-0.003,0.128 -0.011,0.255 -0.027,0.382c-0.031,0.246 -0.09,0.488 -0.175,0.721c-0.171,0.466 -0.448,0.892 -0.803,1.238c-0.346,0.338 -0.765,0.6 -1.221,0.76c-0.234,0.083 -0.477,0.139 -0.724,0.167c-0.113,0.013 -0.226,0.019 -0.34,0.022c-4.338,0.027 -8.676,0 -13.014,0ZM695.203,2949.75c4.336,0 8.674,0.136 13.008,-0.001c0.034,-0.002 0.068,-0.004 0.101,-0.008c0.114,-0.016 0.225,-0.047 0.33,-0.096c0.268,-0.125 0.483,-0.358 0.585,-0.637c0.044,-0.119 0.065,-0.245 0.068,-0.372c0.028,-4.343 0.138,-8.689 -0.001,-13.031c-0.005,-0.117 -0.027,-0.232 -0.067,-0.342c-0.114,-0.31 -0.365,-0.56 -0.675,-0.674c-0.118,-0.044 -0.244,-0.065 -0.369,-0.067c-4.344,-0.025 -8.691,-0.143 -13.033,0.001c-0.116,0.005 -0.231,0.026 -0.34,0.066c-0.306,0.112 -0.555,0.357 -0.671,0.661c-0.046,0.124 -0.07,0.253 -0.072,0.385c-0.026,4.344 -0.136,8.69 0.001,13.032c0.005,0.125 0.03,0.249 0.076,0.367c0.109,0.276 0.33,0.504 0.601,0.623c0.11,0.048 0.227,0.077 0.347,0.088c0.037,0.003 0.074,0.005 0.111,0.005Z" style="fill:#d5d2cf;fill-rule:nonzero;"/></g><path id="Camera15" d="M699.941,1790.38c4.418,0 8,3.582 8,8c0,4.419 -3.582,8 -8,8c-4.418,0 -8,-3.581 -8,-8c0,-4.418 3.582,-8 8,-8Z" style="fill:#1d1d1d;"/></g></g><path id="iPad 21" d="M1063.43,1380.26c-2.16,0 -3.888,1.728 -3.888,3.888c0,2.16 1.728,3.888 3.888,3.888c2.16,0 3.888,-1.728 3.888,-3.888c0,-2.16 -1.728,-3.888 -3.888,-3.888ZM1060.98,1470.84l4.896,0l0,-68.256l-4.896,0l0,68.256Z" style="fill:#fff;fill-rule:nonzero;"/><path d="M1090.65,1470.84l4.896,0l0,-43.632c2.592,0.288 5.616,0.432 8.208,0.432c19.44,0 37.152,-10.8 37.152,-30.24c0,-15.12 -10.656,-27.072 -34.704,-27.072c-4.752,0 -9.936,0.432 -15.552,1.728l0,98.784ZM1095.54,1375.94c4.176,-0.72 7.776,-1.008 10.944,-1.008c20.736,0 28.944,9.36 28.944,23.184c0,14.544 -13.104,25.056 -33.408,25.056c-1.728,0 -4.608,-0.288 -6.48,-0.576l0,-46.656Z" style="fill:#fff;fill-rule:nonzero;"/><path d="M1158.04,1410.79c5.76,-3.456 11.52,-5.184 16.56,-5.184c10.08,0 17.424,4.752 17.424,16.56l0,9.072c-3.312,-0.72 -6.336,-1.008 -10.656,-1.008c-14.832,0 -29.088,7.344 -29.088,23.328c0,11.808 8.928,18.72 18.288,18.72c8.784,0 17.568,-4.752 21.6,-15.12l0.576,13.68l4.176,0l0,-49.536c0,-13.104 -8.784,-20.16 -20.88,-20.16c-7.344,0 -12.96,1.584 -18.288,4.896l0.288,4.752ZM1192.02,1442.76c0,16.416 -10.08,25.056 -19.584,25.056c-8.352,0 -14.976,-5.616 -14.976,-15.12c0,-9.792 9.36,-18 23.472,-18c4.032,0 7.776,0.288 11.088,0.864l0,7.2Z" style="fill:#fff;fill-rule:nonzero;"/><path d="M1271.66,1365l-4.896,0l0,51.984c-3.312,-10.368 -12.816,-15.84 -21.6,-15.84c-14.688,0 -29.088,12.672 -29.088,36.288c0,19.872 10.224,34.848 27.504,34.848c11.232,0 20.304,-8.064 23.328,-17.28l0.576,15.84l4.176,0l0,-105.84ZM1266.76,1442.9c0,11.952 -9.792,24.912 -22.032,24.912c-16.992,0 -23.472,-15.84 -23.472,-30.96c0,-22.032 13.248,-31.248 24.336,-31.248c11.088,0 21.168,10.656 21.168,24.48l0,12.816Z" style="fill:#fff;fill-rule:nonzero;"/><path d="M1330.84,1387.75c5.184,-5.76 13.392,-9.072 20.16,-9.072c11.664,0 19.152,6.048 19.152,18.288c0,9.648 -6.912,20.304 -23.472,41.328l-23.04,29.232l0,3.312l52.416,0l0,-4.608l-45.648,0l19.44,-24.336c18.576,-23.328 25.488,-34.56 25.488,-45.504c0,-13.824 -9.216,-22.32 -24.048,-22.32c-7.056,0 -15.552,2.88 -20.88,8.208l0.432,5.472Z" style="fill:#fff;fill-rule:nonzero;"/></g></g></svg>