<?xml version="1.0" standalone="no"?><!DOCTYPE svg PUBLIC "-//W3C//DTD SVG 1.1//EN" "http://www.w3.org/Graphics/SVG/1.1/DTD/svg11.dtd"><svg width="100%" height="100%" viewBox="0 0 6500 11000" version="1.1" xmlns="http://www.w3.org/2000/svg" xmlns:xlink="http://www.w3.org/1999/xlink" xml:space="preserve" style="fill-rule:evenodd;clip-rule:evenodd;stroke-linejoin:round;stroke-miterlimit:1.41421;"><rect id="bg" x="-237" y="-856" width="7157" height="13107" style="fill:#3498db;"/><g><g id="iPhone 6 / 6s Plus"><g id="iPhone 6-6s Plus Rose Gold"><g id="Frame"><path id="Frame1" d="M6350.58,10658.2c0,120.553 -79.315,206.997 -206.997,206.997c0,0 -410.302,0 -419.592,0c-6.992,0 -13.108,-6 -20.1,-6c-18.271,0 -112.421,0 -120.6,0c-6.992,0 -13.108,6 -20.1,6c-5.136,0 -310.452,0.029 -315.323,0c-13.23,-0.081 -14.713,-8.968 -51.177,-9c-36.464,-0.033 -38.912,9 -51.293,9c-127.683,0 -206.997,-86.444 -206.997,-206.997c0,0 0,-1685.53 0,-1685.53c0,-3.669 2.267,-9.752 2.893,-12.443c0.627,-2.68 1.731,-6.705 1.731,-10.108c0,-3.404 0,-390.274 0,-391.079c0,-1.978 -0.716,-8.002 -1.551,-9.37c-0.836,-1.38 -3.073,-8.6 -3.073,-10.394l0,-339.739c0,-120.553 79.314,-206.997 206.997,-206.997l998.185,0c127.682,0 206.997,86.444 206.997,206.997l0,337.531c0,0.816 -0.943,1.667 -1.484,2.576c-0.552,0.908 -1.725,3.024 -1.725,7.785l0,177.695c0,4.75 1.173,6.877 1.725,7.786c0.541,0.908 1.484,1.759 1.484,2.576l0,1922.71Z" style="fill:#ceaea2;"/><g id="Buttons"><path id="Power" d="M6357.49,8708.63l0,14.513c0,0 0.107,1.594 -0.871,3.346c-0.879,1.576 -3.053,3.288 -4.725,3.288c-1.238,0 -7.9,0 -7.9,0l0.008,-94.914l-0.008,-94.914c0,0 6.662,0 7.9,0c1.672,0 3.846,1.711 4.725,3.287c0.978,1.752 0.871,3.346 0.871,3.346l0,162.048Z" style="fill:#ceaea2;"/><path id="Volume Down" d="M4935.09,8958.27c-1.612,0 -3.595,-2.104 -3.595,-3.978c0,-1.875 0,-174.136 0,-176.114c0,-1.989 2.354,-3.633 3.595,-3.633c1.239,0 9.9,0 9.9,0l-0.015,183.725l-9.885,0Z" style="fill:#ceaea2;"/><path id="Volume Up" d="M4935.09,8730.68c-1.612,0 -3.595,-2.103 -3.595,-3.978c0,-1.874 0,-174.136 0,-176.114c0,-1.989 2.354,-3.633 3.595,-3.633c1.239,0 9.9,0 9.9,0l-0.015,183.725l-9.885,0Z" style="fill:#ceaea2;"/><path id="Mute Switch" d="M4934.9,8430.68c-1.612,0 -3.409,-1.103 -3.409,-2.978c0,-1.874 0,-90.136 0,-92.114c0,-1.989 2.046,-2.633 3.286,-2.633c1.239,0 5.209,0 5.209,0l-0.015,97.725l-5.071,0Z" style="fill:#ceaea2;"/></g></g><g id="Body"><path id="Front" d="M6280.97,8064.49c-33.441,-34.27 -80.947,-52.394 -137.388,-52.394l-998.185,0c-56.436,0 -103.943,18.124 -137.387,52.394c-16.008,16.41 -28.431,36.167 -36.925,58.741c-8.717,23.16 -13.135,48.828 -13.135,76.313l0,2458.66c0,27.484 4.418,53.152 13.135,76.313c8.494,22.574 20.917,42.331 36.925,58.741c33.444,34.269 80.951,52.393 137.387,52.393l998.185,0c56.441,0 103.947,-18.124 137.388,-52.393c16.008,-16.41 28.428,-36.167 36.926,-58.741c8.717,-23.161 13.133,-48.829 13.133,-76.313l0,-2458.66c0,-27.485 -4.416,-53.153 -13.133,-76.313c-8.498,-22.574 -20.918,-42.331 -36.926,-58.741Z" style="fill:#f7f7f7;"/><path id="Home Button" d="M5644.49,10599.7c47.482,0 86.122,38.64 86.122,86.122c0,47.483 -38.64,86.123 -86.122,86.123c-47.483,0 -86.123,-38.64 -86.123,-86.123c0,-47.482 38.64,-86.122 86.123,-86.122M5644.49,10590.4c-52.716,0 -95.449,42.733 -95.449,95.448c0,52.716 42.733,95.449 95.449,95.449c52.715,0 95.448,-42.733 95.448,-95.449c0,-52.715 -42.733,-95.448 -95.448,-95.448Z" style="fill:#ceaea2;"/><g id="Screen"><path id="Screen Panel" d="M5024.65,10536.6l-2.296,-0.457l-1.947,-1.3l-1.3,-1.947l-0.457,-2.296l0,-2207.97l0.457,-2.296c1.291,-1.934 1.314,-1.956 3.247,-3.248l2.296,-0.456l1241.98,0l2.296,0.456c0.649,0.434 1.395,0.749 1.947,1.301c1.52,1.52 1.362,2.256 1.757,4.243l0,2207.97l-0.457,2.296l-1.3,1.947l-1.947,1.3l-2.296,0.457c-413.994,0 -827.987,0 -1241.98,0Z" style="fill:#3e3e3e;"/><rect id="Screen - Off" x="5024.65" y="8322.59" width="1241.98" height="2207.97" style="fill:#000;"/></g><g id="Top Sensors"><path id="Speaker" d="M5745.69,8167.92c0,5.393 -4.381,9.775 -9.786,9.775l-175.925,0c-5.405,0 -9.786,-4.382 -9.786,-9.775c0,-5.393 4.381,-9.775 9.786,-9.775l175.925,0c5.405,0 9.786,4.382 9.786,9.775Z" style="fill:#3e3e3e;"/><path id="Camera" d="M5471.99,8166.2c0,12.063 -9.786,21.85 -21.849,21.85c-12.064,0 -21.85,-9.787 -21.85,-21.85c0,-12.063 9.786,-21.85 21.85,-21.85c12.063,0 21.849,9.787 21.849,21.85Z" style="fill:#3e3e3e;"/><path id="Light Sensor" d="M5649.09,8069.6c7.624,0 13.799,6.175 13.799,13.799c0,7.625 -6.175,13.8 -13.799,13.8c-7.625,0 -13.8,-6.175 -13.8,-13.8c0,-7.624 6.175,-13.799 13.8,-13.799Z" style="fill:#3e3e3e;"/></g></g></g><g id="iPhone 6-6s Plus Gold"><g id="Frame2"><path id="Frame3" d="M4769.6,10638.7c0,120.552 -79.314,206.996 -206.997,206.996c0,0 -410.302,0 -419.592,0c-6.992,0 -13.108,-6 -20.1,-6c-18.271,0 -112.421,0 -120.6,0c-6.992,0 -13.108,6 -20.1,6c-5.135,0 -310.452,0.03 -315.323,0c-13.23,-0.08 -14.712,-8.967 -51.177,-9c-36.464,-0.032 -38.912,9 -51.293,9c-127.683,0 -206.997,-86.444 -206.997,-206.996c0,0 0,-1685.53 0,-1685.53c0,-3.668 2.267,-9.751 2.893,-12.442c0.628,-2.68 1.732,-6.705 1.732,-10.109c0,-3.404 0,-390.273 0,-391.078c0,-1.978 -0.717,-8.002 -1.552,-9.371c-0.836,-1.38 -3.073,-8.599 -3.073,-10.393l0,-339.74c0,-120.552 79.314,-206.997 206.997,-206.997l998.185,0c127.683,0 206.997,86.445 206.997,206.997l0,337.532c0,0.816 -0.943,1.667 -1.484,2.576c-0.552,0.908 -1.725,3.024 -1.725,7.785l0,177.695c0,4.75 1.173,6.877 1.725,7.786c0.541,0.908 1.484,1.759 1.484,2.576l0,1922.71Z" style="fill:#c7b78c;"/><g id="Buttons1"><path id="Power1" d="M4776.5,8689.08l0,14.513c0,0 0.107,1.594 -0.87,3.346c-0.88,1.576 -3.054,3.287 -4.726,3.287c-1.238,0 -7.9,0 -7.9,0l0.008,-94.914l-0.008,-94.913c0,0 6.662,0 7.9,0c1.672,0 3.846,1.711 4.726,3.287c0.977,1.752 0.87,3.346 0.87,3.346l0,162.048Z" style="fill:#c7b78c;"/><path id="Volume Down1" d="M3354.11,8938.72c-1.612,0 -3.595,-2.104 -3.595,-3.979c0,-1.874 0,-174.135 0,-176.113c0,-1.99 2.354,-3.634 3.595,-3.634c1.239,0 9.9,0.001 9.9,0.001l-0.015,183.725l-9.885,0Z" style="fill:#c7b78c;"/><path id="Volume Up1" d="M3354.11,8711.12c-1.612,0 -3.595,-2.104 -3.595,-3.978c0,-1.875 0,-174.136 0,-176.114c0,-1.989 2.354,-3.633 3.595,-3.633c1.239,0 9.9,0 9.9,0l-0.015,183.725l-9.885,0Z" style="fill:#c7b78c;"/><path id="Mute Switch1" d="M3353.92,8411.12c-1.613,0 -3.41,-1.104 -3.41,-2.978c0,-1.875 0,-90.136 0,-92.114c0,-1.989 2.046,-2.633 3.286,-2.633c1.239,0 5.209,0 5.209,0l-0.015,97.725l-5.07,0Z" style="fill:#c7b78c;"/></g></g><g id="Body1"><path id="Front1" d="M4699.99,8044.94c-33.441,-34.269 -80.947,-52.393 -137.388,-52.393l-998.185,0c-56.436,0 -103.943,18.124 -137.387,52.393c-16.008,16.411 -28.431,36.167 -36.925,58.741c-8.717,23.161 -13.135,48.829 -13.135,76.313l0,2458.66c0,27.484 4.418,53.152 13.135,76.312c8.494,22.575 20.917,42.331 36.925,58.742c33.444,34.269 80.951,52.393 137.387,52.393l998.185,0c56.441,0 103.947,-18.124 137.388,-52.393c16.008,-16.411 28.428,-36.167 36.926,-58.742c8.717,-23.16 13.133,-48.828 13.133,-76.312l0,-2458.66c0,-27.484 -4.416,-53.152 -13.133,-76.313c-8.498,-22.574 -20.918,-42.33 -36.926,-58.741Z" style="fill:#f7f7f7;"/><path id="Home Button1" d="M4063.51,10580.1c47.482,0 86.122,38.639 86.122,86.122c0,47.483 -38.64,86.122 -86.122,86.122c-47.483,0 -86.123,-38.639 -86.123,-86.122c0,-47.483 38.64,-86.122 86.123,-86.122M4063.51,10570.8c-52.716,0 -95.449,42.733 -95.449,95.448c0,52.715 42.733,95.449 95.449,95.449c52.715,0 95.448,-42.734 95.448,-95.449c0,-52.715 -42.733,-95.448 -95.448,-95.448Z" style="fill:#c7b78c;"/><g id="Screen1"><path id="Screen Panel1" d="M3443.67,10517l-2.296,-0.457l-1.946,-1.301l-1.301,-1.946l-0.457,-2.296l0,-2207.97l0.457,-2.296c1.292,-1.933 1.314,-1.955 3.247,-3.247l2.296,-0.457l1241.98,0l2.296,0.457c0.649,0.434 1.395,0.749 1.947,1.301c1.52,1.52 1.362,2.256 1.757,4.242l0,2207.97l-0.457,2.296l-1.3,1.946l-1.947,1.301l-2.296,0.457c-413.994,0 -827.987,0 -1241.98,0Z" style="fill:#3e3e3e;"/><rect id="Screen - Off1" x="3443.67" y="8303.04" width="1241.98" height="2207.97" style="fill:#000;"/></g><g id="Top Sensors1"><path id="Speaker1" d="M4164.7,8148.37c0,5.393 -4.381,9.775 -9.786,9.775l-175.925,0c-5.404,0 -9.786,-4.382 -9.786,-9.775c0,-5.394 4.382,-9.775 9.786,-9.775l175.925,0c5.405,0 9.786,4.381 9.786,9.775Z" style="fill:#3e3e3e;"/><path id="Camera1" d="M3891.01,8146.64c0,12.063 -9.786,21.849 -21.849,21.849c-12.064,0 -21.85,-9.786 -21.85,-21.849c0,-12.064 9.786,-21.85 21.85,-21.85c12.063,0 21.849,9.786 21.849,21.85Z" style="fill:#3e3e3e;"/><path id="Light Sensor1" d="M4068.11,8050.04c7.624,0 13.799,6.176 13.799,13.8c0,7.624 -6.175,13.8 -13.799,13.8c-7.625,0 -13.8,-6.176 -13.8,-13.8c0,-7.624 6.175,-13.8 13.8,-13.8Z" style="fill:#3e3e3e;"/></g></g></g><g id="iPhone 6-6s Plus Space Gray"><g id="Frame4"><path id="Frame5" d="M1561.6,10638.7c0,120.553 -79.314,206.997 -206.997,206.997c0,0 -410.302,0 -419.592,0c-6.992,0 -13.108,-6 -20.1,-6c-18.271,0 -112.421,0 -120.6,0c-6.992,0 -13.108,6 -20.1,6c-5.135,0 -310.452,0.03 -315.323,0c-13.23,-0.08 -14.712,-8.968 -51.177,-9c-36.464,-0.032 -38.912,9 -51.293,9c-127.683,0 -206.997,-86.444 -206.997,-206.997c0,0 0,-1685.53 0,-1685.53c0,-3.668 2.267,-9.752 2.893,-12.443c0.628,-2.679 1.732,-6.704 1.732,-10.108c0,-3.404 0,-390.274 0,-391.079c0,-1.978 -0.717,-8.001 -1.552,-9.37c-0.836,-1.38 -3.073,-8.6 -3.073,-10.394l0,-339.739c0,-120.553 79.314,-206.997 206.997,-206.997l998.185,0c127.683,0 206.997,86.444 206.997,206.997l0,337.531c0,0.817 -0.943,1.668 -1.484,2.576c-0.552,0.909 -1.725,3.025 -1.725,7.785l0,177.696c0,4.749 1.173,6.877 1.725,7.785c0.541,0.909 1.484,1.76 1.484,2.576l0,1922.71Z" style="fill:#343438;"/><g id="Buttons2"><path id="Power2" d="M1568.5,8689.09l0,14.513c0,0 0.107,1.593 -0.87,3.346c-0.88,1.576 -3.054,3.287 -4.726,3.287c-1.238,0 -7.9,0 -7.9,0l0.008,-94.914l-0.008,-94.914c0,0 6.662,0 7.9,0c1.672,0 3.846,1.711 4.726,3.288c0.977,1.752 0.87,3.346 0.87,3.346l0,162.048Z" style="fill:#343438;"/><path id="Volume Down2" d="M146.107,8938.73c-1.612,0 -3.595,-2.104 -3.595,-3.979c0,-1.874 0,-174.136 0,-176.114c0,-1.989 2.354,-3.633 3.595,-3.633c1.239,0 9.9,0 9.9,0l-0.015,183.726l-9.885,0Z" style="fill:#343438;"/><path id="Volume Up2" d="M146.107,8711.13c-1.612,0 -3.595,-2.104 -3.595,-3.979c0,-1.874 0,-174.135 0,-176.113c0,-1.99 2.354,-3.634 3.595,-3.634c1.239,0 9.9,0 9.9,0l-0.015,183.726l-9.885,0Z" style="fill:#343438;"/><path id="Mute Switch2" d="M145.922,8411.13c-1.613,0 -3.41,-1.104 -3.41,-2.979c0,-1.874 0,-90.135 0,-92.113c0,-1.99 2.046,-2.634 3.286,-2.634c1.239,0 5.209,0 5.209,0l-0.015,97.726l-5.07,0Z" style="fill:#343438;"/></g></g><g id="Body2"><path id="Front2" d="M1491.99,8044.94c-33.441,-34.27 -80.947,-52.393 -137.388,-52.393l-998.185,0c-56.436,0 -103.943,18.123 -137.387,52.393c-16.008,16.41 -28.431,36.167 -36.925,58.741c-8.717,23.161 -13.135,48.828 -13.135,76.313l0,2458.66c0,27.485 4.418,53.152 13.135,76.313c8.494,22.574 20.917,42.331 36.925,58.741c33.444,34.27 80.951,52.393 137.387,52.393l998.185,0c56.441,0 103.947,-18.123 137.388,-52.393c16.008,-16.41 28.428,-36.167 36.926,-58.741c8.717,-23.161 13.133,-48.828 13.133,-76.313l0,-2458.66c0,-27.485 -4.416,-53.152 -13.133,-76.313c-8.498,-22.574 -20.918,-42.331 -36.926,-58.741Z" style="fill:#141414;"/><path id="Home Button2" d="M855.507,10580.1c47.482,0 86.122,38.639 86.122,86.122c0,47.483 -38.64,86.122 -86.122,86.122c-47.483,0 -86.123,-38.639 -86.123,-86.122c0,-47.483 38.64,-86.122 86.123,-86.122M855.507,10570.8c-52.716,0 -95.449,42.734 -95.449,95.449c0,52.715 42.733,95.448 95.449,95.448c52.715,0 95.448,-42.733 95.448,-95.448c0,-52.715 -42.733,-95.449 -95.448,-95.449Z" style="fill:#343438;"/><g id="Screen2"><path id="Screen Panel2" d="M235.666,10517l-2.296,-0.456l-1.946,-1.301l-1.301,-1.947l-0.457,-2.296l0,-2207.97l0.457,-2.296c1.292,-1.933 1.314,-1.956 3.247,-3.247l2.296,-0.457l1241.98,0l2.296,0.457c0.649,0.433 1.395,0.749 1.947,1.3c1.52,1.521 1.362,2.257 1.757,4.243l0,2207.97l-0.457,2.296l-1.3,1.947l-1.947,1.301l-2.296,0.456c-413.994,0 -827.987,0 -1241.98,0Z" style="fill:#141414;"/><rect id="Screen - Off2" x="235.666" y="8303.05" width="1241.98" height="2207.97" style="fill:#141414;"/></g><g id="Top Sensors2"><path id="Speaker2" d="M956.705,8148.37c0,5.394 -4.381,9.775 -9.786,9.775l-175.925,0c-5.404,0 -9.786,-4.381 -9.786,-9.775c0,-5.393 4.382,-9.775 9.786,-9.775l175.925,0c5.405,0 9.786,4.382 9.786,9.775Z" style="fill:#1d1d1d;"/><path id="Camera2" d="M683.009,8146.65c0,12.064 -9.786,21.85 -21.849,21.85c-12.064,0 -21.85,-9.786 -21.85,-21.85c0,-12.063 9.786,-21.849 21.85,-21.849c12.063,0 21.849,9.786 21.849,21.849Z" style="fill:#1d1d1d;"/></g></g></g><g id="iPhone 6-6s Plus Silver"><g id="Frame6"><path id="Frame7" d="M3171.59,10638.7c0,120.552 -79.315,206.996 -206.997,206.996c0,0 -410.303,0 -419.592,0c-6.992,0 -13.108,-6 -20.1,-6c-18.271,0 -112.421,0 -120.6,0c-6.992,0 -13.108,6 -20.1,6c-5.136,0 -310.452,0.03 -315.323,0c-13.231,-0.08 -14.713,-8.967 -51.177,-9c-36.464,-0.032 -38.912,9 -51.293,9c-127.684,0 -206.997,-86.444 -206.997,-206.996c0,0 0,-1685.53 0,-1685.53c0,-3.668 2.267,-9.751 2.892,-12.442c0.628,-2.68 1.732,-6.705 1.732,-10.109c0,-3.404 0,-390.273 0,-391.078c0,-1.978 -0.716,-8.002 -1.551,-9.371c-0.836,-1.38 -3.073,-8.599 -3.073,-10.393l0,-339.74c0,-120.552 79.313,-206.997 206.997,-206.997l998.185,0c127.682,0 206.997,86.445 206.997,206.997l0,337.532c0,0.816 -0.943,1.667 -1.484,2.576c-0.552,0.908 -1.725,3.024 -1.725,7.785l0,177.695c0,4.75 1.173,6.877 1.725,7.786c0.541,0.908 1.484,1.759 1.484,2.576l0,1922.71Z" style="fill:#d5d2cf;"/><g id="Buttons3"><path id="Power3" d="M3178.5,8689.08l0,14.513c0,0 0.108,1.594 -0.87,3.346c-0.879,1.576 -3.053,3.287 -4.725,3.287c-1.238,0 -7.9,0 -7.9,0l0.008,-94.914l-0.008,-94.913c0,0 6.662,0 7.9,0c1.672,0 3.846,1.711 4.725,3.287c0.978,1.752 0.87,3.346 0.87,3.346l0,162.048Z" style="fill:#d5d2cf;"/><path id="Volume Down3" d="M1756.11,8938.72c-1.612,0 -3.595,-2.104 -3.595,-3.979c0,-1.874 0,-174.135 0,-176.113c0,-1.99 2.354,-3.634 3.595,-3.634c1.238,0 9.9,0.001 9.9,0.001l-0.015,183.725l-9.885,0Z" style="fill:#d5d2cf;"/><path id="Volume Up3" d="M1756.11,8711.12c-1.612,0 -3.595,-2.104 -3.595,-3.978c0,-1.875 0,-174.136 0,-176.114c0,-1.989 2.354,-3.633 3.595,-3.633c1.238,0 9.9,0 9.9,0l-0.015,183.725l-9.885,0Z" style="fill:#d5d2cf;"/><path id="Mute Switch3" d="M1755.92,8411.12c-1.612,0 -3.409,-1.104 -3.409,-2.978c0,-1.875 0,-90.136 0,-92.114c0,-1.989 2.045,-2.633 3.286,-2.633c1.239,0 5.209,0 5.209,0l-0.015,97.725l-5.071,0Z" style="fill:#d5d2cf;"/></g></g><g id="Body3"><path id="Front3" d="M3101.99,8044.94c-33.441,-34.269 -80.947,-52.393 -137.388,-52.393l-998.185,0c-56.437,0 -103.943,18.124 -137.387,52.393c-16.008,16.411 -28.431,36.167 -36.925,58.741c-8.717,23.161 -13.135,48.829 -13.135,76.313l0,2458.66c0,27.484 4.418,53.152 13.135,76.312c8.494,22.575 20.917,42.331 36.925,58.742c33.444,34.269 80.95,52.393 137.387,52.393l998.185,0c56.441,0 103.947,-18.124 137.388,-52.393c16.008,-16.411 28.428,-36.167 36.926,-58.742c8.717,-23.16 13.133,-48.828 13.133,-76.312l0,-2458.66c0,-27.484 -4.416,-53.152 -13.133,-76.313c-8.498,-22.574 -20.918,-42.33 -36.926,-58.741Z" style="fill:#f7f7f7;"/><path id="Home Button3" d="M2465.5,10580.1c47.483,0 86.123,38.639 86.123,86.122c0,47.483 -38.64,86.122 -86.123,86.122c-47.482,0 -86.122,-38.639 -86.122,-86.122c0,-47.483 38.64,-86.122 86.122,-86.122M2465.5,10570.8c-52.715,0 -95.448,42.733 -95.448,95.448c0,52.715 42.733,95.449 95.448,95.449c52.716,0 95.449,-42.734 95.449,-95.449c0,-52.715 -42.733,-95.448 -95.449,-95.448Z" style="fill:#d5d2cf;"/><g id="Screen3"><path id="Screen Panel3" d="M1845.66,10517l-2.296,-0.457l-1.947,-1.301l-1.3,-1.946l-0.457,-2.296l0,-2207.97l0.457,-2.296c1.291,-1.933 1.314,-1.955 3.247,-3.247l2.296,-0.457l1241.98,0l2.296,0.457c0.649,0.434 1.395,0.749 1.946,1.301c1.521,1.52 1.363,2.256 1.758,4.242l0,2207.97l-0.457,2.296l-1.301,1.946l-1.946,1.301l-2.296,0.457c-413.994,0 -827.987,0 -1241.98,0Z" style="fill:#3e3e3e;"/><rect id="Screen - Off3" x="1845.66" y="8303.04" width="1241.98" height="2207.97" style="fill:#000;"/></g><g id="Top Sensors3"><path id="Speaker3" d="M2566.7,8148.37c0,5.393 -4.382,9.775 -9.787,9.775l-175.924,0c-5.405,0 -9.786,-4.382 -9.786,-9.775c0,-5.394 4.381,-9.775 9.786,-9.775l175.924,0c5.405,0 9.787,4.381 9.787,9.775Z" style="fill:#3e3e3e;"/><path id="Camera3" d="M2293.01,8146.64c0,12.063 -9.786,21.849 -21.85,21.849c-12.063,0 -21.849,-9.786 -21.849,-21.849c0,-12.064 9.786,-21.85 21.849,-21.85c12.064,0 21.85,9.786 21.85,21.85Z" style="fill:#3e3e3e;"/><path id="Light Sensor2" d="M2470.1,8050.04c7.625,0 13.8,6.176 13.8,13.8c0,7.624 -6.175,13.8 -13.8,13.8c-7.624,0 -13.799,-6.176 -13.799,-13.8c0,-7.624 6.175,-13.8 13.799,-13.8Z" style="fill:#3e3e3e;"/></g></g></g><path id="iPhone 6 / 6s Plus1" d="M2782.5,7641.19c-2.16,0 -3.888,1.728 -3.888,3.888c0,2.16 1.728,3.888 3.888,3.888c2.16,0 3.888,-1.728 3.888,-3.888c0,-2.16 -1.728,-3.888 -3.888,-3.888ZM2780.06,7731.77l4.896,0l0,-68.256l-4.896,0l0,68.256Z" style="fill:#fff;fill-rule:nonzero;"/><path d="M2809.72,7731.77l4.896,0l0,-43.632c2.592,0.288 5.616,0.432 8.208,0.432c19.44,0 37.152,-10.8 37.152,-30.24c0,-15.12 -10.656,-27.072 -34.704,-27.072c-4.752,0 -9.936,0.432 -15.552,1.728l0,98.784ZM2814.62,7636.87c4.176,-0.72 7.776,-1.008 10.944,-1.008c20.736,0 28.944,9.36 28.944,23.184c0,14.544 -13.104,25.056 -33.408,25.056c-1.728,0 -4.608,-0.288 -6.48,-0.576l0,-46.656Z" style="fill:#fff;fill-rule:nonzero;"/><path d="M2879.85,7625.93l-4.896,0l0,105.84l4.896,0l0,-40.608c0,-11.088 8.496,-24.48 20.592,-24.48c11.376,0 17.856,8.064 17.856,21.024l0,44.064l4.896,0l0,-46.08c0,-13.248 -7.632,-23.616 -22.176,-23.616c-9.792,0 -18.288,6.912 -21.168,15.84l0,-51.984Z" style="fill:#fff;fill-rule:nonzero;"/><path d="M2970.28,7662.07c-18,0 -28.368,15.552 -28.368,35.568c0,19.872 10.368,35.568 28.368,35.568c18,0 28.368,-15.696 28.368,-35.568c0,-20.016 -10.368,-35.568 -28.368,-35.568ZM2970.28,7666.54c12.816,0 23.184,10.944 23.184,31.104c0,20.16 -10.368,31.104 -23.184,31.104c-12.816,0 -23.184,-10.944 -23.184,-31.104c0,-20.16 10.368,-31.104 23.184,-31.104Z" style="fill:#fff;fill-rule:nonzero;"/><path d="M3022.12,7663.51l-4.176,0l0,68.256l4.896,0l0,-40.608c0,-11.088 8.496,-24.48 20.592,-24.48c11.376,0 17.856,8.064 17.856,21.024l0,44.064l4.896,0l0,-46.08c0,-13.248 -7.632,-23.616 -22.176,-23.616c-9.936,0 -18.432,7.056 -21.168,16.128l-0.72,-14.688Z" style="fill:#fff;fill-rule:nonzero;"/><path d="M3130.7,7723.99c-5.472,3.168 -11.664,4.752 -17.568,4.752c-14.832,0 -23.328,-10.368 -23.328,-30.096l44.784,0c0.288,-1.728 0.432,-4.032 0.432,-5.76c0,-15.408 -6.912,-30.816 -23.76,-30.816c-14.688,0 -26.64,14.688 -26.64,37.152c0,22.176 11.376,33.984 26.496,33.984c8.208,0 14.976,-1.584 19.872,-4.608l-0.288,-4.608ZM3089.94,7694.33c1.008,-16.992 10.224,-27.648 21.168,-27.648c11.376,0 19.008,8.928 19.008,27.648l-40.176,0Z" style="fill:#fff;fill-rule:nonzero;"/><path d="M3230.2,7635c-26.208,2.304 -46.944,27.216 -46.944,62.784c0,19.296 9.216,35.424 25.776,35.424c14.544,0 26.208,-11.52 26.208,-27.216c0,-14.256 -9.072,-26.64 -23.616,-26.64c-11.376,0 -19.44,6.48 -23.04,14.688c0.288,-26.352 15.84,-51.84 41.904,-54.576l-0.288,-4.464ZM3210.33,7684.11c12.816,0 19.296,10.656 19.296,22.752c0,12.672 -8.928,21.744 -19.728,21.744c-13.104,0 -20.592,-12.96 -20.592,-25.776c0,-8.496 8.928,-18.72 21.024,-18.72Z" style="fill:#fff;fill-rule:nonzero;"/><path d="M3281.03,7745.74l49.392,-121.824l-4.752,0l-49.248,121.824l4.608,0Z" style="fill:#fff;fill-rule:nonzero;"/><path d="M3418.7,7635c-26.208,2.304 -46.944,27.216 -46.944,62.784c0,19.296 9.216,35.424 25.776,35.424c14.544,0 26.208,-11.52 26.208,-27.216c0,-14.256 -9.072,-26.64 -23.616,-26.64c-11.376,0 -19.44,6.48 -23.04,14.688c0.288,-26.352 15.84,-51.84 41.904,-54.576l-0.288,-4.464ZM3398.82,7684.11c12.816,0 19.296,10.656 19.296,22.752c0,12.672 -8.928,21.744 -19.728,21.744c-13.104,0 -20.592,-12.96 -20.592,-25.776c0,-8.496 8.928,-18.72 21.024,-18.72Z" style="fill:#fff;fill-rule:nonzero;"/><path d="M3435.98,7729.47c3.744,2.304 9.792,3.744 15.84,3.744c12.24,0 22.176,-7.488 22.176,-19.296c0,-8.496 -5.904,-13.68 -15.984,-17.856c-9.36,-3.888 -14.4,-7.056 -14.4,-15.696c0,-7.92 6.768,-13.824 14.688,-13.824c5.184,0 10.08,1.584 13.824,4.176l0.432,-5.04c-3.168,-2.16 -8.208,-3.6 -13.68,-3.6c-11.232,0 -20.304,7.2 -20.304,19.008c0,10.368 6.624,14.976 15.552,18.72c10.08,4.176 14.688,7.776 14.688,15.12c0,7.92 -7.488,13.824 -16.848,13.824c-5.04,0 -10.368,-1.296 -15.552,-4.176l-0.432,4.896Z" style="fill:#fff;fill-rule:nonzero;"/><path d="M3527.42,7731.77l4.896,0l0,-43.632c2.592,0.288 5.616,0.432 8.208,0.432c19.44,0 37.152,-10.8 37.152,-30.24c0,-15.12 -10.656,-27.072 -34.704,-27.072c-4.752,0 -9.936,0.432 -15.552,1.728l0,98.784ZM3532.31,7636.87c4.176,-0.72 7.776,-1.008 10.944,-1.008c20.736,0 28.944,9.36 28.944,23.184c0,14.544 -13.104,25.056 -33.408,25.056c-1.728,0 -4.608,-0.288 -6.48,-0.576l0,-46.656Z" style="fill:#fff;fill-rule:nonzero;"/><rect x="3592.65" y="7625.93" width="4.896" height="105.84" style="fill:#fff;fill-rule:nonzero;"/><path d="M3669.4,7663.51l-4.896,0l0,40.608c0,11.088 -8.496,24.48 -20.592,24.48c-11.376,0 -17.856,-8.064 -17.856,-21.024l0,-44.064l-4.896,0l0,46.08c0,13.248 7.632,23.616 22.176,23.616c9.936,0 18.432,-7.056 21.168,-16.128l0.72,14.688l4.176,0l0,-68.256Z" style="fill:#fff;fill-rule:nonzero;"/><path d="M3686.97,7729.47c3.744,2.304 9.792,3.744 15.84,3.744c12.24,0 22.176,-7.488 22.176,-19.296c0,-8.496 -5.904,-13.68 -15.984,-17.856c-9.36,-3.888 -14.4,-7.056 -14.4,-15.696c0,-7.92 6.768,-13.824 14.688,-13.824c5.184,0 10.08,1.584 13.824,4.176l0.432,-5.04c-3.168,-2.16 -8.208,-3.6 -13.68,-3.6c-11.232,0 -20.304,7.2 -20.304,19.008c0,10.368 6.624,14.976 15.552,18.72c10.08,4.176 14.688,7.776 14.688,15.12c0,7.92 -7.488,13.824 -16.848,13.824c-5.04,0 -10.368,-1.296 -15.552,-4.176l-0.432,4.896Z" style="fill:#fff;fill-rule:nonzero;"/></g><g id="iPhone 6 / 6s"><g id="iPhone 6 Gold Pink"><g id="Frame8"><path d="M5108.98,5752.68l0.505,1110.4c0,86.747 -49.31,144.495 -138.51,144.495c0,0 -234.268,0 -234.485,0c-3.802,0 -9.199,-3.021 -13,-3.021c-0.415,0 -83.583,0 -84,0c-3.8,0 -9.197,3.02 -13,3.021c-0.215,0.001 -182.763,0 -183,0c-7.465,0 -10.412,-4 -24.037,-4c-13.625,0 -21.001,4 -23.963,4c-0.098,0 -3.475,0 -3.475,0c-89.166,0 -138.469,-57.701 -138.509,-144.389c-0.335,-0.039 -0.505,-0.072 -0.505,-0.101l0,-945.93c0,-2.56 1.582,-6.81 2.019,-8.69c0.437,-1.87 1.207,-4.68 1.207,-7.06c0,-2.37 0,-270.09 0,-270.66c0,-1.37 -0.499,-6.79 -1.082,-7.75c-0.583,-0.95 -2.144,-7.2 -2.144,-8.45l0,-225.496c0,-86.747 49.307,-144.495 138.509,-144.495l578.96,0c89.2,0 138.51,57.748 138.51,144.495l0,227.176c0,0.57 -0.65,1.15 -1.02,1.77c-0.38,0.63 -1.19,2.09 -1.19,5.36l0,122.19c0,3.28 0.81,4.73 1.19,5.36c0.37,0.62 1.02,1.21 1.02,1.77Z" style="fill:#ceaea2;"/><g id="Button"><path id="Power Button" d="M5104.98,5750.57l5.633,0c1.295,0 3.367,-1.07 3.367,-3.39l0,-124.22c0,-2.32 -2.072,-3.39 -3.367,-3.39l-5.633,0l0,131Z" style="fill:#ceaea2;"/><path id="Volume Down4" d="M4257.98,5780.57l-5.633,0c-1.295,0 -3.367,1.07 -3.367,3.39l0,124.22c0,2.32 2.072,3.39 3.367,3.39l5.633,0l0,-131Z" style="fill:#ceaea2;"/><path id="Volume Up4" d="M4257.98,5750.57l-5.633,0c-1.295,0 -3.367,-1.07 -3.367,-3.39l0,-124.22c0,-2.32 2.072,-3.39 3.367,-3.39l5.633,0l0,131Z" style="fill:#ceaea2;"/><path id="Mute Switch4" d="M4255,5469.24l0,70c0,0 -2.901,0 -3.896,0c-0.996,0 -2.107,-0.796 -2.107,-2.137c0,-1.34 0,-64.554 0,-65.978c0,-1.424 1.264,-1.885 2.03,-1.885c0.766,0 3.973,0 3.973,0Z" style="fill:#ceaea2;"/></g></g><g id="Body4"><path id="Front4" d="M5024.97,5267.03c-15.94,-6.285 -34.28,-9.473 -54.51,-9.473l-578.94,0c-20.232,0 -38.572,3.188 -54.513,9.473c-15.123,5.964 -28.136,14.743 -38.677,26.093c-21.15,22.775 -32.329,55.946 -32.329,95.929l0,1475.03c0,39.99 11.179,73.16 32.329,95.93c10.541,11.36 23.554,20.13 38.677,26.1c15.941,6.28 34.281,9.47 54.513,9.47l578.94,0c20.23,0 38.57,-3.19 54.51,-9.47c15.13,-5.97 28.14,-14.74 38.68,-26.1c21.15,-22.77 32.33,-55.94 32.33,-95.93l0,-1475.03c0,-39.983 -11.18,-73.154 -32.33,-95.929c-10.54,-11.35 -23.55,-20.129 -38.68,-26.093Z" style="fill:#f7f7f7;"/><path id="Home Button4" d="M4680.48,6833.07c33.08,0 60,26.92 60,60c0,33.08 -26.92,60 -60,60c-33.08,0 -60,-26.92 -60,-60c0,-33.08 26.92,-60 60,-60M4680.48,6826.57c-36.73,0 -66.5,29.77 -66.5,66.5c0,36.73 29.77,66.5 66.5,66.5c36.73,0 66.5,-29.77 66.5,-66.5c0,-36.73 -29.77,-66.5 -66.5,-66.5Z" style="fill:#ceaea2;"/><g id="Screen4"><path id="Screen Panel4" d="M4305.98,5455.57l-1.53,0.305l-1.298,0.867l-0.867,1.298l-0.305,1.53l0,1334l0.305,1.53l0.867,1.298l1.298,0.867l1.53,0.305l750,0l1.531,-0.305l1.298,-0.867l0.867,-1.298l0.304,-1.53l0,-1334l-0.304,-1.53c-0.861,-1.289 -0.876,-1.304 -2.165,-2.165l-1.531,-0.305c-250,0 -500,0 -750,0Z" style="fill:#3e3e3e;"/><rect id="Screen - off" x="4305.98" y="5459.57" width="750" height="1334" style="fill:#000;"/></g><g id="Top Sensors4"><path id="Light Sensor3" d="M4529.98,5356.07c0,8.008 6.49,14.5 14.5,14.5c8.01,0 14.5,-6.492 14.5,-14.5c0,-8.008 -6.49,-14.5 -14.5,-14.5c-8.01,0 -14.5,6.492 -14.5,14.5Z" style="fill:#3e3e3e;"/><path id="Camera4" d="M4680.98,5292.57c4.97,0 9,4.029 9,9c0,4.97 -4.03,9 -9,9c-4.97,0 -9,-4.03 -9,-9c0,-4.971 4.03,-9 9,-9Z" style="fill:#3e3e3e;"/><path id="Speaker4" d="M4611.98,5355.57c0,4.421 3.63,8.004 8.11,8.004l122.8,0c4.48,0 8.11,-3.583 8.11,-8.004c0,-4.421 -3.63,-8.004 -8.11,-8.004l-122.8,0c-4.48,0 -8.11,3.583 -8.11,8.004Z" style="fill:#3e3e3e;"/></g></g></g><g id="iPhone 6 Gold"><g id="Frame9"><path d="M4157.48,5752.18l0.505,1110.4c-0.001,86.747 -49.31,144.495 -138.51,144.495c0,0 -234.269,0 -234.485,0c-3.802,0 -9.199,-3.021 -13,-3.021c-0.415,0 -83.584,0 -84,0c-3.801,0 -9.198,3.02 -13,3.021c-0.216,0.001 -182.763,0 -183,0c-7.466,0 -10.412,-4 -24.037,-4c-13.625,0 -21.002,4 -23.963,4c-0.098,0 -3.475,0 -3.475,0c-89.166,0 -138.469,-57.701 -138.509,-144.389c-0.335,-0.039 -0.505,-0.072 -0.505,-0.101l0,-945.93c0,-2.56 1.582,-6.81 2.019,-8.69c0.437,-1.87 1.207,-4.68 1.207,-7.06c0,-2.37 0,-270.09 0,-270.66c0,-1.37 -0.499,-6.79 -1.082,-7.75c-0.583,-0.95 -2.144,-7.2 -2.144,-8.45l0,-225.496c0,-86.747 49.307,-144.495 138.509,-144.495l578.96,0c89.2,0 138.51,57.748 138.51,144.495l0,227.176c0,0.57 -0.65,1.15 -1.02,1.77c-0.38,0.63 -1.19,2.09 -1.19,5.36l0,122.19c0,3.28 0.81,4.73 1.19,5.36c0.37,0.62 1.02,1.21 1.02,1.77Z" style="fill:#c7b78c;"/><g id="Button1"><path id="Power Button1" d="M4153.49,5750.07l5.633,0c1.295,0 3.367,-1.07 3.367,-3.39l0,-124.22c0,-2.32 -2.072,-3.39 -3.367,-3.39l-5.633,0l0,131Z" style="fill:#c7b78c;"/><path id="Volume Down5" d="M3306.49,5780.07l-5.633,0c-1.295,0 -3.367,1.07 -3.367,3.39l0,124.22c0,2.32 2.072,3.39 3.367,3.39l5.633,0l0,-131Z" style="fill:#c7b78c;"/><path id="Volume Up5" d="M3306.49,5750.07l-5.633,0c-1.295,0 -3.367,-1.07 -3.367,-3.39l0,-124.22c0,-2.32 2.072,-3.39 3.367,-3.39l5.633,0l0,131Z" style="fill:#c7b78c;"/><path id="Mute Switch5" d="M3303.5,5468.74l0,70c0,0 -2.901,0 -3.896,0c-0.996,0 -2.107,-0.796 -2.107,-2.137c0,-1.34 0,-64.554 0,-65.978c0,-1.424 1.264,-1.885 2.03,-1.885c0.766,0 3.973,0 3.973,0Z" style="fill:#c7b78c;"/></g></g><g id="Body5"><path id="Front5" d="M4073.47,5266.53c-15.94,-6.285 -34.28,-9.473 -54.51,-9.473l-578.94,0c-20.232,0 -38.572,3.188 -54.513,9.473c-15.123,5.964 -28.136,14.743 -38.677,26.093c-21.15,22.775 -32.329,55.946 -32.329,95.929l0,1475.03c0,39.99 11.179,73.16 32.329,95.93c10.541,11.36 23.554,20.13 38.677,26.1c15.941,6.28 34.281,9.47 54.513,9.47l578.94,0c20.23,0 38.57,-3.19 54.51,-9.47c15.13,-5.97 28.14,-14.74 38.68,-26.1c21.15,-22.77 32.33,-55.94 32.33,-95.93l0,-1475.03c0,-39.983 -11.18,-73.154 -32.33,-95.929c-10.54,-11.35 -23.55,-20.129 -38.68,-26.093Z" style="fill:#f7f7f7;"/><path id="Home Button5" d="M3728.99,6832.57c33.08,0 60,26.92 60,60c0,33.08 -26.92,60 -60,60c-33.08,0 -60,-26.92 -60,-60c0,-33.08 26.92,-60 60,-60M3728.99,6826.07c-36.73,0 -66.5,29.77 -66.5,66.5c0,36.73 29.77,66.5 66.5,66.5c36.73,0 66.5,-29.77 66.5,-66.5c0,-36.73 -29.77,-66.5 -66.5,-66.5Z" style="fill:#c7b78c;"/><g id="Screen5"><path id="Screen Panel5" d="M3354.49,5455.07l-1.531,0.304l-1.297,0.867l-0.868,1.298l-0.304,1.531l0,1334l0.304,1.53l0.868,1.298l1.297,0.867l1.531,0.305l750,0l1.531,-0.305l1.297,-0.867l0.868,-1.298l0.304,-1.53l0,-1334l-0.304,-1.531c-0.862,-1.289 -0.877,-1.304 -2.165,-2.165l-1.531,-0.304c-250,0 -500,0 -750,0Z" style="fill:#3e3e3e;"/><rect id="Screen - off1" x="3354.49" y="5459.07" width="750" height="1334" style="fill:#000;"/></g><g id="Top Sensors5"><path id="Light Sensor4" d="M3578.49,5355.57c0,8.008 6.49,14.5 14.5,14.5c8.01,0 14.5,-6.492 14.5,-14.5c0,-8.008 -6.49,-14.5 -14.5,-14.5c-8.01,0 -14.5,6.492 -14.5,14.5Z" style="fill:#3e3e3e;"/><path id="Camera5" d="M3729.49,5292.07c4.97,0 9,4.029 9,9c0,4.97 -4.03,9 -9,9c-4.97,0 -9,-4.03 -9,-9c0,-4.971 4.03,-9 9,-9Z" style="fill:#3e3e3e;"/><path id="Speaker5" d="M3660.48,5355.07c0,4.421 3.63,8.004 8.11,8.004l122.8,0c4.48,0 8.11,-3.583 8.11,-8.004c0,-4.421 -3.63,-8.004 -8.11,-8.004l-122.8,0c-4.48,0 -8.11,3.583 -8.11,8.004Z" style="fill:#3e3e3e;"/></g></g></g><g id="iPhone 6 Space Gray"><g id="Frame10"><path d="M2244.99,5752.18l0.505,1110.4c-0.001,86.747 -49.311,144.495 -138.51,144.495c0,0 -234.269,0 -234.485,0c-3.802,0 -9.199,-3.021 -13,-3.021c-0.415,0 -83.584,0 -84,0c-3.801,0 -9.198,3.02 -13,3.021c-0.216,0.001 -182.763,0 -183,0c-7.466,0 -10.412,-4 -24.037,-4c-13.625,0 -21.002,4 -23.963,4c-0.098,0 -3.475,0 -3.475,0c-89.166,0 -138.469,-57.701 -138.509,-144.389c-0.335,-0.039 -0.505,-0.072 -0.505,-0.101l0,-945.93c0,-2.56 1.582,-6.81 2.019,-8.69c0.437,-1.87 1.207,-4.68 1.207,-7.06c0,-2.37 0,-270.09 0,-270.66c0,-1.37 -0.499,-6.79 -1.082,-7.75c-0.583,-0.95 -2.144,-7.2 -2.144,-8.45l0,-225.496c0,-86.747 49.307,-144.495 138.509,-144.495l578.96,0c89.2,0 138.51,57.748 138.51,144.495l0,227.176c0,0.57 -0.65,1.15 -1.02,1.77c-0.38,0.63 -1.19,2.09 -1.19,5.36l0,122.19c0,3.28 0.81,4.73 1.19,5.36c0.37,0.62 1.02,1.21 1.02,1.77Z" style="fill:#343438;"/><g id="Button2"><path id="Power Button2" d="M2241.01,5750.07l5.633,0c1.295,0 3.367,-1.07 3.367,-3.39l0,-124.22c0,-2.32 -2.072,-3.39 -3.367,-3.39l-5.633,0l0,131Z" style="fill:#343438;"/><path id="Volume Down6" d="M1394.01,5780.07l-5.633,0c-1.295,0 -3.367,1.07 -3.367,3.39l0,124.22c0,2.32 2.072,3.39 3.367,3.39l5.633,0l0,-131Z" style="fill:#343438;"/><path id="Volume Up6" d="M1394.01,5750.07l-5.633,0c-1.295,0 -3.367,-1.07 -3.367,-3.39l0,-124.22c0,-2.32 2.072,-3.39 3.367,-3.39l5.633,0l0,131Z" style="fill:#343438;"/><path id="Mute Switch6" d="M1391.02,5468.74l0,70c0,0 -2.901,0 -3.896,0c-0.996,0 -2.107,-0.796 -2.107,-2.137c0,-1.34 0,-64.554 0,-65.978c0,-1.424 1.264,-1.885 2.03,-1.885c0.766,0 3.973,0 3.973,0Z" style="fill:#343438;"/></g></g><g id="Body6"><path id="Front6" d="M2160.99,5266.53c-15.94,-6.285 -34.28,-9.473 -54.51,-9.473l-578.94,0c-20.232,0 -38.572,3.188 -54.513,9.473c-15.123,5.964 -28.136,14.743 -38.677,26.093c-21.15,22.775 -32.329,55.946 -32.329,95.929l0,1475.03c0,39.99 11.179,73.16 32.329,95.93c10.541,11.36 23.554,20.13 38.677,26.1c15.941,6.28 34.281,9.47 54.513,9.47l578.94,0c20.23,0 38.57,-3.19 54.51,-9.47c15.13,-5.97 28.14,-14.74 38.68,-26.1c21.15,-22.77 32.33,-55.94 32.33,-95.93l0,-1475.03c0,-39.983 -11.18,-73.154 -32.33,-95.929c-10.54,-11.35 -23.55,-20.129 -38.68,-26.093Z" style="fill:#141414;"/><path id="Home Button6" d="M1816.51,6832.57c33.08,0 60,26.92 60,60c0,33.08 -26.92,60 -60,60c-33.08,0 -60,-26.92 -60,-60c0,-33.08 26.92,-60 60,-60M1816.51,6826.07c-36.73,0 -66.5,29.77 -66.5,66.5c0,36.73 29.77,66.5 66.5,66.5c36.73,0 66.5,-29.77 66.5,-66.5c0,-36.73 -29.77,-66.5 -66.5,-66.5Z" style="fill:#343438;"/><g id="Screen6"><path id="Screen Panel6" d="M1442.01,5455.07l-1.531,0.304l-1.297,0.867l-0.868,1.298l-0.304,1.531l0,1334l0.304,1.53l0.868,1.298l1.297,0.867l1.531,0.305l750,0l1.531,-0.305l1.297,-0.867l0.868,-1.298l0.304,-1.53l0,-1334l-0.304,-1.531c-0.862,-1.289 -0.877,-1.304 -2.165,-2.165l-1.531,-0.304c-250,0 -500,0 -750,0Z" style="fill:#141414;"/><rect id="Screen - off2" x="1442.01" y="5459.07" width="750" height="1334" style="fill:#141414;"/></g><g id="Top Sensors6"><path id="Camera6" d="M1817.01,5292.07c4.97,0 9,4.029 9,9c0,4.97 -4.03,9 -9,9c-4.97,0 -9,-4.03 -9,-9c0,-4.971 4.03,-9 9,-9Z" style="fill:#1d1d1d;"/><path id="Speaker6" d="M1748,5355.07c0,4.421 3.63,8.004 8.11,8.004l122.8,0c4.48,0 8.11,-3.583 8.11,-8.004c0,-4.421 -3.63,-8.004 -8.11,-8.004l-122.8,0c-4.48,0 -8.11,3.583 -8.11,8.004Z" style="fill:#1d1d1d;"/></g></g></g><g id="iPhone 6 Silver"><g id="Frame11"><path d="M3204.99,5752.18l0.505,1110.4c0,86.747 -49.31,144.495 -138.51,144.495c0,0 -234.269,0 -234.485,0c-3.802,0 -9.199,-3.021 -13,-3.021c-0.415,0 -83.584,0 -84,0c-3.801,0 -9.198,3.02 -13,3.021c-0.216,0 -182.763,0 -183,0c-7.466,0 -10.412,-4 -24.037,-4c-13.625,0 -21.002,4 -23.963,4c-0.098,0 -3.475,0 -3.475,0c-89.166,0 -138.469,-57.701 -138.509,-144.389c-0.335,-0.039 -0.505,-0.073 -0.505,-0.101l0,-945.93c0,-2.56 1.582,-6.81 2.019,-8.69c0.437,-1.87 1.207,-4.68 1.207,-7.06c0,-2.37 0,-270.09 0,-270.66c0,-1.37 -0.499,-6.79 -1.082,-7.75c-0.583,-0.95 -2.144,-7.2 -2.144,-8.45l0,-225.496c0,-86.747 49.307,-144.495 138.509,-144.495l578.96,0c89.2,0 138.51,57.748 138.51,144.495l0,227.176c0,0.57 -0.65,1.15 -1.02,1.77c-0.38,0.63 -1.19,2.09 -1.19,5.36l0,122.19c0,3.28 0.81,4.73 1.19,5.36c0.37,0.62 1.02,1.21 1.02,1.77Z" style="fill:#d5d2cf;"/><g id="Button3"><path id="Power Button3" d="M3201.01,5750.07l5.633,0c1.295,0 3.367,-1.07 3.367,-3.39l0,-124.22c0,-2.32 -2.072,-3.39 -3.367,-3.39l-5.633,0l0,131Z" style="fill:#d5d2cf;"/><path id="Volume Down7" d="M2354.01,5780.07l-5.633,0c-1.295,0 -3.367,1.07 -3.367,3.39l0,124.22c0,2.32 2.072,3.39 3.367,3.39l5.633,0l0,-131Z" style="fill:#d5d2cf;"/><path id="Volume Up7" d="M2354.01,5750.07l-5.633,0c-1.295,0 -3.367,-1.07 -3.367,-3.39l0,-124.22c0,-2.32 2.072,-3.39 3.367,-3.39l5.633,0l0,131Z" style="fill:#d5d2cf;"/><path id="Mute Switch7" d="M2351.02,5468.74l0,70c0,0 -2.901,0 -3.896,0c-0.996,0 -2.107,-0.796 -2.107,-2.137c0,-1.34 0,-64.554 0,-65.978c0,-1.424 1.264,-1.885 2.03,-1.885c0.766,0 3.973,0 3.973,0Z" style="fill:#d5d2cf;"/></g></g><g id="Body7"><path id="Front7" d="M3120.99,5266.53c-15.94,-6.285 -34.28,-9.473 -54.51,-9.473l-578.94,0c-20.232,0 -38.572,3.188 -54.513,9.473c-15.123,5.964 -28.136,14.743 -38.677,26.093c-21.15,22.775 -32.329,55.946 -32.329,95.929l0,1475.03c0,39.99 11.179,73.16 32.329,95.93c10.541,11.36 23.554,20.13 38.677,26.1c15.941,6.28 34.281,9.47 54.513,9.47l578.94,0c20.23,0 38.57,-3.19 54.51,-9.47c15.13,-5.97 28.14,-14.74 38.68,-26.1c21.15,-22.77 32.33,-55.94 32.33,-95.93l0,-1475.03c0,-39.983 -11.18,-73.154 -32.33,-95.929c-10.54,-11.35 -23.55,-20.129 -38.68,-26.093Z" style="fill:#f7f7f7;"/><path id="Home Button7" d="M2776.51,6832.57c33.08,0 60,26.92 60,60c0,33.08 -26.92,60 -60,60c-33.08,0 -60,-26.92 -60,-60c0,-33.08 26.92,-60 60,-60M2776.51,6826.07c-36.73,0 -66.5,29.77 -66.5,66.5c0,36.73 29.77,66.5 66.5,66.5c36.73,0 66.5,-29.77 66.5,-66.5c0,-36.73 -29.77,-66.5 -66.5,-66.5Z" style="fill:#d5d2cf;"/><g id="Screen7"><path id="Screen Panel7" d="M2402.01,5455.07l-1.531,0.304l-1.297,0.868l-0.868,1.297l-0.304,1.531l0,1334l0.304,1.531l0.868,1.297l1.297,0.868l1.531,0.304l750,0l1.531,-0.304l1.297,-0.868l0.868,-1.297l0.304,-1.531l0,-1334l-0.304,-1.531c-0.862,-1.289 -0.877,-1.303 -2.165,-2.165l-1.531,-0.304c-250,0 -500,0 -750,0Z" style="fill:#3e3e3e;"/><rect id="Screen - off3" x="2402.01" y="5459.07" width="750" height="1334" style="fill:#000;"/></g><g id="Top Sensors7"><path id="Light Sensor5" d="M2626.01,5355.57c0,8.008 6.49,14.5 14.5,14.5c8.01,0 14.5,-6.492 14.5,-14.5c0,-8.008 -6.49,-14.5 -14.5,-14.5c-8.01,0 -14.5,6.492 -14.5,14.5Z" style="fill:#3e3e3e;"/><path id="Camera7" d="M2777.01,5292.07c4.97,0 9,4.029 9,9c0,4.97 -4.03,9 -9,9c-4.97,0 -9,-4.03 -9,-9c0,-4.971 4.03,-9 9,-9Z" style="fill:#3e3e3e;"/><path id="Speaker7" d="M2707.99,5355.07c0,4.421 3.63,8.004 8.11,8.004l122.8,0c4.48,0 8.11,-3.583 8.11,-8.004c0,-4.421 -3.63,-8.004 -8.11,-8.004l-122.8,0c-4.48,0 -8.11,3.583 -8.11,8.004Z" style="fill:#3e3e3e;"/></g></g></g><path id="iPhone 6 / 6s1" d="M3002.25,4933.19c-2.16,0 -3.888,1.728 -3.888,3.888c0,2.16 1.728,3.888 3.888,3.888c2.16,0 3.888,-1.728 3.888,-3.888c0,-2.16 -1.728,-3.888 -3.888,-3.888ZM2999.8,5023.77l4.896,0l0,-68.256l-4.896,0l0,68.256Z" style="fill:#fff;fill-rule:nonzero;"/><path d="M3029.46,5023.77l4.896,0l0,-43.632c2.592,0.288 5.616,0.432 8.208,0.432c19.44,0 37.152,-10.8 37.152,-30.24c0,-15.12 -10.656,-27.072 -34.704,-27.072c-4.752,0 -9.936,0.432 -15.552,1.728l0,98.784ZM3034.36,4928.87c4.176,-0.72 7.776,-1.008 10.944,-1.008c20.736,0 28.944,9.36 28.944,23.184c0,14.544 -13.104,25.056 -33.408,25.056c-1.728,0 -4.608,-0.288 -6.48,-0.576l0,-46.656Z" style="fill:#fff;fill-rule:nonzero;"/><path d="M3099.59,4917.93l-4.896,0l0,105.84l4.896,0l0,-40.608c0,-11.088 8.496,-24.48 20.592,-24.48c11.376,0 17.856,8.064 17.856,21.024l0,44.064l4.896,0l0,-46.08c0,-13.248 -7.632,-23.616 -22.176,-23.616c-9.792,0 -18.288,6.912 -21.168,15.84l0,-51.984Z" style="fill:#fff;fill-rule:nonzero;"/><path d="M3190.02,4954.07c-18,0 -28.368,15.552 -28.368,35.568c0,19.872 10.368,35.568 28.368,35.568c18,0 28.368,-15.696 28.368,-35.568c0,-20.016 -10.368,-35.568 -28.368,-35.568ZM3190.02,4958.54c12.816,0 23.184,10.944 23.184,31.104c0,20.16 -10.368,31.104 -23.184,31.104c-12.816,0 -23.184,-10.944 -23.184,-31.104c0,-20.16 10.368,-31.104 23.184,-31.104Z" style="fill:#fff;fill-rule:nonzero;"/><path d="M3241.86,4955.51l-4.176,0l0,68.256l4.896,0l0,-40.608c0,-11.088 8.496,-24.48 20.592,-24.48c11.376,0 17.856,8.064 17.856,21.024l0,44.064l4.896,0l0,-46.08c0,-13.248 -7.632,-23.616 -22.176,-23.616c-9.936,0 -18.432,7.056 -21.168,16.128l-0.72,-14.688Z" style="fill:#fff;fill-rule:nonzero;"/><path d="M3350.44,5015.99c-5.472,3.168 -11.664,4.752 -17.568,4.752c-14.832,0 -23.328,-10.368 -23.328,-30.096l44.784,0c0.288,-1.728 0.432,-4.032 0.432,-5.76c0,-15.408 -6.912,-30.816 -23.76,-30.816c-14.688,0 -26.64,14.688 -26.64,37.152c0,22.176 11.376,33.984 26.496,33.984c8.208,0 14.976,-1.584 19.872,-4.608l-0.288,-4.608ZM3309.69,4986.33c1.008,-16.992 10.224,-27.648 21.168,-27.648c11.376,0 19.008,8.928 19.008,27.648l-40.176,0Z" style="fill:#fff;fill-rule:nonzero;"/><path d="M3449.94,4927c-26.208,2.304 -46.944,27.216 -46.944,62.784c0,19.296 9.216,35.424 25.776,35.424c14.544,0 26.208,-11.52 26.208,-27.216c0,-14.256 -9.072,-26.64 -23.616,-26.64c-11.376,0 -19.44,6.48 -23.04,14.688c0.288,-26.352 15.84,-51.84 41.904,-54.576l-0.288,-4.464ZM3430.07,4976.11c12.816,0 19.296,10.656 19.296,22.752c0,12.672 -8.928,21.744 -19.728,21.744c-13.104,0 -20.592,-12.96 -20.592,-25.776c0,-8.496 8.928,-18.72 21.024,-18.72Z" style="fill:#fff;fill-rule:nonzero;"/><path d="M3500.78,5037.74l49.392,-121.824l-4.752,0l-49.248,121.824l4.608,0Z" style="fill:#fff;fill-rule:nonzero;"/><path d="M3638.44,4927c-26.208,2.304 -46.944,27.216 -46.944,62.784c0,19.296 9.216,35.424 25.776,35.424c14.544,0 26.208,-11.52 26.208,-27.216c0,-14.256 -9.072,-26.64 -23.616,-26.64c-11.376,0 -19.44,6.48 -23.04,14.688c0.288,-26.352 15.84,-51.84 41.904,-54.576l-0.288,-4.464ZM3618.57,4976.11c12.816,0 19.296,10.656 19.296,22.752c0,12.672 -8.928,21.744 -19.728,21.744c-13.104,0 -20.592,-12.96 -20.592,-25.776c0,-8.496 8.928,-18.72 21.024,-18.72Z" style="fill:#fff;fill-rule:nonzero;"/><path d="M3655.72,5021.47c3.744,2.304 9.792,3.744 15.84,3.744c12.24,0 22.176,-7.488 22.176,-19.296c0,-8.496 -5.904,-13.68 -15.984,-17.856c-9.36,-3.888 -14.4,-7.056 -14.4,-15.696c0,-7.92 6.768,-13.824 14.688,-13.824c5.184,0 10.08,1.584 13.824,4.176l0.432,-5.04c-3.168,-2.16 -8.208,-3.6 -13.68,-3.6c-11.232,0 -20.304,7.2 -20.304,19.008c0,10.368 6.624,14.976 15.552,18.72c10.08,4.176 14.688,7.776 14.688,15.12c0,7.92 -7.488,13.824 -16.848,13.824c-5.04,0 -10.368,-1.296 -15.552,-4.176l-0.432,4.896Z" style="fill:#fff;fill-rule:nonzero;"/></g><g id="iPhone 5S"><g id="iPhone 5S Space Gray"><g id="Frame12"><g id="Button4"><path id="Power Button4" d="M2946.5,2801.59l0,9l122,0l0,-9l-3.991,-3l-114,0l-4.009,3Z" style="fill:#343438;"/><path id="Volume Down Button" d="M2436.5,3310.59l-3,3l0,50l3,3l9,0l0,-56l-9,0Z" style="fill:#343438;"/><path id="Volume Up Button" d="M2436.5,3177.59l-3,3l0,50l3,3l9,0l0,-56l-9,0Z" style="fill:#343438;"/><path id="Mute Switch8" d="M2436.5,3026.59l-3,3l0,67l3,3l9,0l0,-73l-9,0Z" style="fill:#343438;"/></g><path id="Frame13" d="M2442.5,2919.6c0,-29.92 11.67,-58.05 32.85,-79.21c21.18,-21.15 49.33,-32.8 79.28,-32.8l529.74,0c29.95,0 58.1,11.65 79.28,32.8c21.19,21.16 32.85,49.29 32.85,79.21l0,1368.98c0,29.922 -11.66,58.054 -32.85,79.211c-21.18,21.153 -49.33,32.803 -79.28,32.803l-529.74,0c-29.95,0 -58.1,-11.65 -79.28,-32.803c-21.18,-21.157 -32.85,-49.289 -32.85,-79.211l0,-1368.98Z" style="fill:#343438;"/></g><g id="Body8"><path id="Front8" d="M2554.63,2816.58l529.74,0c56.87,0 103.13,46.212 103.13,103.015l0,1367.97c0,56.8 -46.26,103.01 -103.13,103.01l-529.74,0c-56.86,0 -103.13,-46.21 -103.13,-103.01l0,-1367.97c0,-56.803 46.27,-103.015 103.13,-103.015Z" style="fill:#141414;"/><path id="Home Button8" d="M2819.06,4216.15c37.53,0 68,30.469 68,68c0,37.53 -30.47,68 -68,68c-37.53,0 -68,-30.47 -68,-68c0,-37.531 30.47,-68 68,-68ZM2819.06,4224.25c33.06,0 59.901,26.841 59.901,59.901c0,33.06 -26.841,59.901 -59.901,59.901c-33.06,0 -59.901,-26.841 -59.901,-59.901c0,-33.06 26.841,-59.901 59.901,-59.901Z" style="fill:#1d1d1d;"/><g id="Screen8"><path id="Screen Frame" d="M2498.5,4179.59c-0.824,-0.131 -1.679,-0.134 -2.472,-0.392c-1.607,-0.522 -3.007,-1.539 -4,-2.906c-0.491,-0.675 -0.879,-1.437 -1.136,-2.23c-0.258,-0.794 -0.261,-1.648 -0.392,-2.472l0,-1136c0.131,-0.824 0.134,-1.679 0.392,-2.472c0.522,-1.607 1.539,-3.007 2.906,-4c0.675,-0.491 1.436,-0.879 2.23,-1.137c0.793,-0.258 1.648,-0.261 2.472,-0.391l640,0c0.824,0.13 1.679,0.133 2.472,0.391c1.607,0.522 3.007,1.54 4,2.906c0.491,0.675 0.879,1.437 1.136,2.231c0.258,0.793 0.261,1.648 0.392,2.472l0,1136c-0.131,0.824 -0.134,1.678 -0.392,2.472c-0.522,1.607 -1.539,3.007 -2.906,4c-0.675,0.49 -1.436,0.878 -2.23,1.136c-0.793,0.258 -1.648,0.261 -2.472,0.392c-213.333,0 -426.667,0 -640,0Z" style="fill:#141414;"/><rect id="Screen9" x="2498.5" y="3035.59" width="640" height="1136" style="fill:#141414;"/></g><g id="Top Sensors8"><path id="Speaker8" d="M2762.5,2936.59l110,0c4.41,0 8,3.589 8,8c0,4.411 -3.59,8 -8,8l-110,0c-4.41,0 -8,-3.589 -8,-8c0,-4.411 3.59,-8 8,-8Z" style="fill:#1d1d1d;"/><path id="Camera8" d="M2818.5,2871.22c7.73,0 14,6.268 14,14c0,7.732 -6.27,14 -14,14c-7.73,0 -14,-6.268 -14,-14c0,-7.732 6.27,-14 14,-14Z" style="fill:#1d1d1d;"/></g></g></g><g id="iPhone 5S Silver"><g id="Frame14"><g id="Button5"><path id="Power Button5" d="M3816.5,2801.59l0,9l122,0l0,-9l-3.991,-3l-114,0l-4.009,3Z" style="fill:#d5d2cf;"/><path id="Volume Down Button1" d="M3306.5,3310.59l-3,3l0,50l3,3l9,0l0,-56l-9,0Z" style="fill:#d5d2cf;"/><path id="Volume Up Button1" d="M3306.5,3177.59l-3,3l0,50l3,3l9,0l0,-56l-9,0Z" style="fill:#d5d2cf;"/><path id="Mute Switch9" d="M3306.5,3026.59l-3,3l0,67l3,3l9,0l0,-73l-9,0Z" style="fill:#d5d2cf;"/></g><path id="Frame15" d="M3312.5,2919.6c0,-29.92 11.67,-58.05 32.85,-79.21c21.18,-21.15 49.33,-32.8 79.28,-32.8l529.74,0c29.95,0 58.1,11.65 79.28,32.8c21.19,21.16 32.85,49.29 32.85,79.21l0,1368.98c0,29.922 -11.66,58.054 -32.85,79.211c-21.18,21.153 -49.33,32.803 -79.28,32.803l-529.74,0c-29.95,0 -58.1,-11.65 -79.28,-32.803c-21.18,-21.157 -32.85,-49.289 -32.85,-79.211l0,-1368.98Z" style="fill:#d5d2cf;"/></g><g id="Body9"><path id="Front9" d="M3424.63,2816.58l529.74,0c56.87,0 103.13,46.212 103.13,103.015l0,1367.97c0,56.8 -46.26,103.01 -103.13,103.01l-529.74,0c-56.86,0 -103.13,-46.21 -103.13,-103.01l0,-1367.97c0,-56.803 46.27,-103.015 103.13,-103.015Z" style="fill:#f7f7f7;"/><path id="Home Button9" d="M3689.06,4216.15c37.53,0 68,30.469 68,68c0,37.53 -30.47,68 -68,68c-37.53,0 -68,-30.47 -68,-68c0,-37.531 30.47,-68 68,-68ZM3689.06,4224.25c33.06,0 59.901,26.841 59.901,59.901c0,33.06 -26.841,59.901 -59.901,59.901c-33.06,0 -59.901,-26.841 -59.901,-59.901c0,-33.06 26.841,-59.901 59.901,-59.901Z" style="fill:#d5d2cf;"/><g id="Screen10"><path id="Screen Frame1" d="M3368.5,4179.59c-0.824,-0.131 -1.679,-0.134 -2.472,-0.392c-1.607,-0.522 -3.007,-1.539 -4,-2.906c-0.491,-0.675 -0.879,-1.437 -1.136,-2.23c-0.258,-0.794 -0.261,-1.648 -0.392,-2.472l0,-1136c0.131,-0.824 0.134,-1.679 0.392,-2.472c0.522,-1.607 1.539,-3.007 2.906,-4c0.675,-0.491 1.436,-0.879 2.23,-1.137c0.793,-0.258 1.648,-0.261 2.472,-0.391l640,0c0.824,0.13 1.679,0.133 2.472,0.391c1.607,0.522 3.007,1.54 4,2.906c0.491,0.675 0.879,1.437 1.136,2.231c0.258,0.793 0.261,1.648 0.392,2.472l0,1136c-0.131,0.824 -0.134,1.678 -0.392,2.472c-0.522,1.607 -1.539,3.007 -2.906,4c-0.675,0.49 -1.436,0.878 -2.23,1.136c-0.793,0.258 -1.648,0.261 -2.472,0.392c-213.333,0 -426.667,0 -640,0Z" style="fill:#3e3e3e;"/><rect id="Screen11" x="3368.5" y="3035.59" width="640" height="1136" style="fill:#000;"/></g><g id="Top Sensors9"><path id="Speaker9" d="M3632.5,2936.59l110,0c4.41,0 8,3.589 8,8c0,4.411 -3.59,8 -8,8l-110,0c-4.41,0 -8,-3.589 -8,-8c0,-4.411 3.59,-8 8,-8Z" style="fill:#3e3e3e;"/><path id="Light Sensor6" d="M3583.96,2935.55c5.27,0 9.54,4.272 9.54,9.541c0,5.269 -4.27,9.541 -9.54,9.541c-5.27,0 -9.54,-4.272 -9.54,-9.541c0,-5.269 4.27,-9.541 9.54,-9.541Z" style="fill:#3e3e3e;"/><path id="Camera9" d="M3688.5,2871.22c7.73,0 14,6.268 14,14c0,7.732 -6.27,14 -14,14c-7.73,0 -14,-6.268 -14,-14c0,-7.732 6.27,-14 14,-14Z" style="fill:#3e3e3e;"/></g></g></g><g id="iPhone 5S Gold"><g id="Frame16"><g id="Button6"><path id="Power Button6" d="M4696.5,2801.59l0,9l122,0l0,-9l-3.991,-3l-114,0l-4.009,3Z" style="fill:#c7b78c;"/><path id="Volume Down Button2" d="M4186.5,3310.59l-3,3l0,50l3,3l9,0l0,-56l-9,0Z" style="fill:#c7b78c;"/><path id="Volume Up Button2" d="M4186.5,3177.59l-3,3l0,50l3,3l9,0l0,-56l-9,0Z" style="fill:#c7b78c;"/><path id="Mute Switch10" d="M4186.5,3026.59l-3,3l0,67l3,3l9,0l0,-73l-9,0Z" style="fill:#c7b78c;"/></g><path id="Frame17" d="M4192.5,2919.6c0,-29.92 11.67,-58.05 32.85,-79.21c21.18,-21.15 49.33,-32.8 79.28,-32.8l529.74,0c29.95,0 58.1,11.65 79.28,32.8c21.19,21.16 32.85,49.29 32.85,79.21l0,1368.98c0,29.922 -11.66,58.054 -32.85,79.211c-21.18,21.153 -49.33,32.803 -79.28,32.803l-529.74,0c-29.95,0 -58.1,-11.65 -79.28,-32.803c-21.18,-21.157 -32.85,-49.289 -32.85,-79.211l0,-1368.98Z" style="fill:#c7b78c;"/></g><g id="Body10"><path id="Front10" d="M4304.63,2816.58l529.74,0c56.87,0 103.13,46.212 103.13,103.015l0,1367.97c0,56.8 -46.26,103.01 -103.13,103.01l-529.74,0c-56.86,0 -103.13,-46.21 -103.13,-103.01l0,-1367.97c0,-56.803 46.27,-103.015 103.13,-103.015Z" style="fill:#f7f7f7;"/><path id="Home Button10" d="M4569.06,4216.15c37.53,0 68,30.469 68,68c0,37.53 -30.47,68 -68,68c-37.53,0 -68,-30.47 -68,-68c0,-37.531 30.47,-68 68,-68ZM4569.06,4224.25c33.06,0 59.901,26.841 59.901,59.901c0,33.06 -26.841,59.901 -59.901,59.901c-33.06,0 -59.901,-26.841 -59.901,-59.901c0,-33.06 26.841,-59.901 59.901,-59.901Z" style="fill:#c7b78c;"/><g id="Screen12"><path id="Screen Frame2" d="M4248.5,4179.59c-0.824,-0.131 -1.679,-0.134 -2.472,-0.392c-1.607,-0.522 -3.007,-1.539 -4,-2.906c-0.491,-0.675 -0.879,-1.437 -1.136,-2.23c-0.258,-0.794 -0.261,-1.648 -0.392,-2.472l0,-1136c0.131,-0.824 0.134,-1.679 0.392,-2.472c0.522,-1.607 1.539,-3.007 2.906,-4c0.675,-0.491 1.436,-0.879 2.23,-1.137c0.793,-0.258 1.648,-0.261 2.472,-0.391l640,0c0.824,0.13 1.679,0.133 2.472,0.391c1.607,0.522 3.007,1.54 4,2.906c0.491,0.675 0.879,1.437 1.136,2.231c0.258,0.793 0.261,1.648 0.392,2.472l0,1136c-0.131,0.824 -0.134,1.678 -0.392,2.472c-0.522,1.607 -1.539,3.007 -2.906,4c-0.675,0.49 -1.436,0.878 -2.23,1.136c-0.793,0.258 -1.648,0.261 -2.472,0.392c-213.333,0 -426.667,0 -640,0Z" style="fill:#3e3e3e;"/><rect id="Screen13" x="4248.5" y="3035.59" width="640" height="1136" style="fill:#000;"/></g><g id="Top Sensors10"><path id="Speaker10" d="M4512.5,2936.59l110,0c4.41,0 8,3.589 8,8c0,4.411 -3.59,8 -8,8l-110,0c-4.41,0 -8,-3.589 -8,-8c0,-4.411 3.59,-8 8,-8Z" style="fill:#3e3e3e;"/><path id="Light Sensor7" d="M4463.96,2935.55c5.27,0 9.54,4.272 9.54,9.541c0,5.269 -4.27,9.541 -9.54,9.541c-5.27,0 -9.54,-4.272 -9.54,-9.541c0,-5.269 4.27,-9.541 9.54,-9.541Z" style="fill:#3e3e3e;"/><path id="Camera10" d="M4568.5,2871.22c7.73,0 14,6.268 14,14c0,7.732 -6.27,14 -14,14c-7.73,0 -14,-6.268 -14,-14c0,-7.732 6.27,-14 14,-14Z" style="fill:#3e3e3e;"/></g></g></g><path id="iPhone 5s" d="M3432.86,2537.19c-2.16,0 -3.888,1.728 -3.888,3.888c0,2.16 1.728,3.888 3.888,3.888c2.16,0 3.888,-1.728 3.888,-3.888c0,-2.16 -1.728,-3.888 -3.888,-3.888ZM3430.41,2627.77l4.896,0l0,-68.256l-4.896,0l0,68.256Z" style="fill:#fff;fill-rule:nonzero;"/><path d="M3460.07,2627.77l4.896,0l0,-43.632c2.592,0.288 5.616,0.432 8.208,0.432c19.44,0 37.152,-10.8 37.152,-30.24c0,-15.12 -10.656,-27.072 -34.704,-27.072c-4.752,0 -9.936,0.432 -15.552,1.728l0,98.784ZM3464.97,2532.87c4.176,-0.72 7.776,-1.008 10.944,-1.008c20.736,0 28.944,9.36 28.944,23.184c0,14.544 -13.104,25.056 -33.408,25.056c-1.728,0 -4.608,-0.288 -6.48,-0.576l0,-46.656Z" style="fill:#fff;fill-rule:nonzero;"/><path d="M3530.2,2521.93l-4.896,0l0,105.84l4.896,0l0,-40.608c0,-11.088 8.496,-24.48 20.592,-24.48c11.376,0 17.856,8.064 17.856,21.024l0,44.064l4.896,0l0,-46.08c0,-13.248 -7.632,-23.616 -22.176,-23.616c-9.792,0 -18.288,6.912 -21.168,15.84l0,-51.984Z" style="fill:#fff;fill-rule:nonzero;"/><path d="M3620.63,2558.07c-18,0 -28.368,15.552 -28.368,35.568c0,19.872 10.368,35.568 28.368,35.568c18,0 28.368,-15.696 28.368,-35.568c0,-20.016 -10.368,-35.568 -28.368,-35.568ZM3620.63,2562.54c12.816,0 23.184,10.944 23.184,31.104c0,20.16 -10.368,31.104 -23.184,31.104c-12.816,0 -23.184,-10.944 -23.184,-31.104c0,-20.16 10.368,-31.104 23.184,-31.104Z" style="fill:#fff;fill-rule:nonzero;"/><path d="M3672.47,2559.51l-4.176,0l0,68.256l4.896,0l0,-40.608c0,-11.088 8.496,-24.48 20.592,-24.48c11.376,0 17.856,8.064 17.856,21.024l0,44.064l4.896,0l0,-46.08c0,-13.248 -7.632,-23.616 -22.176,-23.616c-9.936,0 -18.432,7.056 -21.168,16.128l-0.72,-14.688Z" style="fill:#fff;fill-rule:nonzero;"/><path d="M3781.05,2619.99c-5.472,3.168 -11.664,4.752 -17.568,4.752c-14.832,0 -23.328,-10.368 -23.328,-30.096l44.784,0c0.288,-1.728 0.432,-4.032 0.432,-5.76c0,-15.408 -6.912,-30.816 -23.76,-30.816c-14.688,0 -26.64,14.688 -26.64,37.152c0,22.176 11.376,33.984 26.496,33.984c8.208,0 14.976,-1.584 19.872,-4.608l-0.288,-4.608ZM3740.3,2590.33c1.008,-16.992 10.224,-27.648 21.168,-27.648c11.376,0 19.008,8.928 19.008,27.648l-40.176,0Z" style="fill:#fff;fill-rule:nonzero;"/><path d="M3881.27,2537.63l0,-4.608l-39.312,0l-2.592,44.64l8.496,0c19.872,0 29.952,8.352 29.952,24.768c0,12.816 -12.096,22.176 -24.048,22.176c-6.624,0 -12.24,-1.296 -18.576,-5.904l-0.576,5.184c5.76,4.032 10.8,5.328 18.576,5.328c16.56,0 29.808,-12.528 29.808,-27.936c0,-18.144 -12.672,-28.224 -33.984,-28.224l-4.752,0l2.016,-35.424l34.992,0Z" style="fill:#fff;fill-rule:nonzero;"/><path d="M3897.83,2625.47c3.744,2.304 9.792,3.744 15.84,3.744c12.24,0 22.176,-7.488 22.176,-19.296c0,-8.496 -5.904,-13.68 -15.984,-17.856c-9.36,-3.888 -14.4,-7.056 -14.4,-15.696c0,-7.92 6.768,-13.824 14.688,-13.824c5.184,0 10.08,1.584 13.824,4.176l0.432,-5.04c-3.168,-2.16 -8.208,-3.6 -13.68,-3.6c-11.232,0 -20.304,7.2 -20.304,19.008c0,10.368 6.624,14.976 15.552,18.72c10.08,4.176 14.688,7.776 14.688,15.12c0,7.92 -7.488,13.824 -16.848,13.824c-5.04,0 -10.368,-1.296 -15.552,-4.176l-0.432,4.896Z" style="fill:#fff;fill-rule:nonzero;"/></g><g id="iPhone 5C"><g id="iPhone 5C1"><g id="Frame18"><g id="Button7"><path id="Power Button7" d="M6096.5,2791.58l0,9l122,0l0,-9l-3.991,-3l-114,0l-4.009,3Z" style="fill:#86cd6c;"/><path id="Volume Down Button3" d="M5586.5,3300.58l-3,3l0,50l3,3l9,0l0,-56l-9,0Z" style="fill:#86cd6c;"/><path id="Volume Up Button3" d="M5586.5,3167.58l-3,3l0,50l3,3l9,0l0,-56l-9,0Z" style="fill:#86cd6c;"/><path id="Mute Switch11" d="M5586.5,3016.58l-3,3l0,67l3,3l9,0l0,-73l-9,0Z" style="fill:#86cd6c;"/></g><path id="Frame19" d="M5592.5,2909.59c0,-29.92 11.67,-58.05 32.85,-79.21c21.18,-21.15 49.33,-32.8 79.28,-32.8l529.74,0c29.95,0 58.1,11.65 79.28,32.8c21.19,21.16 32.85,49.29 32.85,79.21l0,1368.98c0,29.922 -11.66,58.054 -32.85,79.211c-21.18,21.153 -49.33,32.803 -79.28,32.803l-529.74,0c-29.95,0 -58.1,-11.65 -79.28,-32.803c-21.18,-21.157 -32.85,-49.289 -32.85,-79.211l0,-1368.98Z" style="fill:#86cd6c;"/></g><g id="Body11"><path id="Front11" d="M5704.63,2806.57l529.74,0c56.87,0 103.13,46.212 103.13,103.015l0,1367.97c0,56.8 -46.26,103.01 -103.13,103.01l-529.74,0c-56.86,0 -103.13,-46.21 -103.13,-103.01l0,-1367.97c0,-56.803 46.27,-103.015 103.13,-103.015Z" style="fill:#141414;"/><g id="Home Button11"><path id="Home Button Circle" d="M5969.06,4206.14c37.53,0 68,30.469 68,68c0,37.53 -30.47,68 -68,68c-37.53,0 -68,-30.47 -68,-68c0,-37.531 30.47,-68 68,-68ZM5969.06,4211.21c34.731,0 62.929,28.197 62.929,62.929c0,34.731 -28.198,62.928 -62.929,62.928c-34.731,0 -62.929,-28.197 -62.929,-62.928c0,-34.732 28.198,-62.929 62.929,-62.929Z" style="fill:#1d1d1d;"/><path id="Rounded Rectangle Symbol" d="M5952.87,4298.64c-0.319,-0.002 -0.637,-0.018 -0.955,-0.055c-0.615,-0.07 -1.223,-0.21 -1.807,-0.416c-1.138,-0.401 -2.183,-1.053 -3.046,-1.896c-0.887,-0.866 -1.577,-1.928 -2.003,-3.091c-0.213,-0.581 -0.36,-1.186 -0.438,-1.8c-0.04,-0.315 -0.06,-0.633 -0.066,-0.951c-0.069,-10.861 -0.069,-21.722 0,-32.583c0.006,-0.318 0.026,-0.635 0.066,-0.951c0.078,-0.614 0.225,-1.219 0.438,-1.8c0.426,-1.163 1.116,-2.225 2.003,-3.091c0.863,-0.842 1.908,-1.495 3.046,-1.896c0.584,-0.206 1.192,-0.346 1.807,-0.416c0.282,-0.032 0.564,-0.048 0.847,-0.054c10.861,-0.068 21.723,-0.068 32.584,0c0.318,0.006 0.635,0.026 0.951,0.067c0.613,0.078 1.218,0.225 1.799,0.438c1.164,0.426 2.226,1.116 3.091,2.002c0.843,0.864 1.495,1.908 1.896,3.046c0.206,0.585 0.346,1.192 0.417,1.808c0.032,0.282 0.048,0.564 0.053,0.847c0.069,10.861 0.069,21.722 0,32.583c-0.006,0.318 -0.026,0.636 -0.066,0.951c-0.078,0.614 -0.225,1.219 -0.438,1.8c-0.426,1.163 -1.116,2.225 -2.003,3.091c-0.863,0.843 -1.908,1.495 -3.046,1.896c-0.584,0.206 -1.192,0.346 -1.808,0.416c-0.281,0.033 -0.563,0.049 -0.846,0.054c-10.825,0.069 -21.651,0.001 -32.476,0.001ZM5952.89,4293.14c10.821,0 21.646,0.339 32.461,-0.003c0.084,-0.003 0.168,-0.01 0.252,-0.02c0.285,-0.038 0.561,-0.117 0.822,-0.238c0.67,-0.313 1.206,-0.895 1.461,-1.59c0.109,-0.297 0.163,-0.611 0.169,-0.927c0.069,-10.84 0.344,-21.685 -0.002,-32.518c-0.013,-0.292 -0.067,-0.58 -0.167,-0.854c-0.284,-0.774 -0.912,-1.398 -1.685,-1.682c-0.295,-0.109 -0.607,-0.162 -0.921,-0.168c-10.84,-0.062 -21.687,-0.355 -32.521,0.002c-0.29,0.012 -0.578,0.065 -0.85,0.166c-0.762,0.28 -1.384,0.891 -1.673,1.65c-0.117,0.307 -0.174,0.632 -0.181,0.96c-0.065,10.839 -0.34,21.685 0.002,32.519c0.014,0.314 0.076,0.623 0.191,0.916c0.272,0.689 0.822,1.257 1.501,1.555c0.274,0.12 0.566,0.192 0.864,0.22c0.092,0.008 0.184,0.011 0.277,0.012Z" style="fill:#d5d2cf;fill-rule:nonzero;"/></g><g id="Screen14"><path id="Screen Frame3" d="M5648.5,4169.58c-0.824,-0.131 -1.679,-0.134 -2.472,-0.392c-1.607,-0.522 -3.007,-1.539 -4,-2.906c-0.491,-0.675 -0.879,-1.437 -1.136,-2.23c-0.258,-0.794 -0.261,-1.648 -0.392,-2.472l0,-1136c0.131,-0.824 0.134,-1.679 0.392,-2.472c0.522,-1.607 1.539,-3.007 2.906,-4c0.675,-0.491 1.436,-0.879 2.23,-1.137c0.793,-0.258 1.648,-0.261 2.472,-0.391l640,0c0.824,0.13 1.679,0.133 2.472,0.391c1.607,0.522 3.007,1.54 4,2.906c0.491,0.675 0.879,1.437 1.136,2.231c0.258,0.793 0.261,1.648 0.392,2.472l0,1136c-0.131,0.824 -0.134,1.678 -0.392,2.472c-0.522,1.607 -1.539,3.007 -2.906,4c-0.675,0.49 -1.436,0.878 -2.23,1.136c-0.793,0.258 -1.648,0.261 -2.472,0.392c-213.333,0 -426.667,0 -640,0Z" style="fill:#141414;"/><rect id="Screen15" x="5648.5" y="3025.58" width="640" height="1136" style="fill:#141414;"/></g><g id="Top Sensors11"><path id="Speaker11" d="M5912.5,2926.58l110,0c4.41,0 8,3.589 8,8c0,4.411 -3.59,8 -8,8l-110,0c-4.41,0 -8,-3.589 -8,-8c0,-4.411 3.59,-8 8,-8Z" style="fill:#1d1d1d;"/><path id="Camera11" d="M5968.5,2861.21c7.73,0 14,6.268 14,14c0,7.732 -6.27,14 -14,14c-7.73,0 -14,-6.268 -14,-14c0,-7.732 6.27,-14 14,-14Z" style="fill:#1d1d1d;"/></g></g></g><path id="iPhone 5c" d="M5712.86,2532.19c-2.16,0 -3.888,1.728 -3.888,3.888c0,2.16 1.728,3.888 3.888,3.888c2.16,0 3.888,-1.728 3.888,-3.888c0,-2.16 -1.728,-3.888 -3.888,-3.888ZM5710.41,2622.77l4.896,0l0,-68.256l-4.896,0l0,68.256Z" style="fill:#fff;fill-rule:nonzero;"/><path d="M5740.07,2622.77l4.896,0l0,-43.632c2.592,0.288 5.616,0.432 8.208,0.432c19.44,0 37.152,-10.8 37.152,-30.24c0,-15.12 -10.656,-27.072 -34.704,-27.072c-4.752,0 -9.936,0.432 -15.552,1.728l0,98.784ZM5744.97,2527.87c4.176,-0.72 7.776,-1.008 10.944,-1.008c20.736,0 28.944,9.36 28.944,23.184c0,14.544 -13.104,25.056 -33.408,25.056c-1.728,0 -4.608,-0.288 -6.48,-0.576l0,-46.656Z" style="fill:#fff;fill-rule:nonzero;"/><path d="M5810.2,2516.93l-4.896,0l0,105.84l4.896,0l0,-40.608c0,-11.088 8.496,-24.48 20.592,-24.48c11.376,0 17.856,8.064 17.856,21.024l0,44.064l4.896,0l0,-46.08c0,-13.248 -7.632,-23.616 -22.176,-23.616c-9.792,0 -18.288,6.912 -21.168,15.84l0,-51.984Z" style="fill:#fff;fill-rule:nonzero;"/><path d="M5900.63,2553.07c-18,0 -28.368,15.552 -28.368,35.568c0,19.872 10.368,35.568 28.368,35.568c18,0 28.368,-15.696 28.368,-35.568c0,-20.016 -10.368,-35.568 -28.368,-35.568ZM5900.63,2557.54c12.816,0 23.184,10.944 23.184,31.104c0,20.16 -10.368,31.104 -23.184,31.104c-12.816,0 -23.184,-10.944 -23.184,-31.104c0,-20.16 10.368,-31.104 23.184,-31.104Z" style="fill:#fff;fill-rule:nonzero;"/><path d="M5952.47,2554.51l-4.176,0l0,68.256l4.896,0l0,-40.608c0,-11.088 8.496,-24.48 20.592,-24.48c11.376,0 17.856,8.064 17.856,21.024l0,44.064l4.896,0l0,-46.08c0,-13.248 -7.632,-23.616 -22.176,-23.616c-9.936,0 -18.432,7.056 -21.168,16.128l-0.72,-14.688Z" style="fill:#fff;fill-rule:nonzero;"/><path d="M6061.05,2614.99c-5.472,3.168 -11.664,4.752 -17.568,4.752c-14.832,0 -23.328,-10.368 -23.328,-30.096l44.784,0c0.288,-1.728 0.432,-4.032 0.432,-5.76c0,-15.408 -6.912,-30.816 -23.76,-30.816c-14.688,0 -26.64,14.688 -26.64,37.152c0,22.176 11.376,33.984 26.496,33.984c8.208,0 14.976,-1.584 19.872,-4.608l-0.288,-4.608ZM6020.3,2585.33c1.008,-16.992 10.224,-27.648 21.168,-27.648c11.376,0 19.008,8.928 19.008,27.648l-40.176,0Z" style="fill:#fff;fill-rule:nonzero;"/><path d="M6161.27,2532.63l0,-4.608l-39.312,0l-2.592,44.64l8.496,0c19.872,0 29.952,8.352 29.952,24.768c0,12.816 -12.096,22.176 -24.048,22.176c-6.624,0 -12.24,-1.296 -18.576,-5.904l-0.576,5.184c5.76,4.032 10.8,5.328 18.576,5.328c16.56,0 29.808,-12.528 29.808,-27.936c0,-18.144 -12.672,-28.224 -33.984,-28.224l-4.752,0l2.016,-35.424l34.992,0Z" style="fill:#fff;fill-rule:nonzero;"/><path d="M6226.36,2616.43c-3.888,1.872 -9.504,3.312 -14.4,3.312c-14.544,0 -26.784,-8.64 -26.784,-31.392c0,-20.88 13.104,-30.816 27.216,-30.816c5.904,0 9.936,1.296 14.256,3.456l0.576,-4.752c-3.888,-1.872 -8.064,-3.168 -15.264,-3.168c-17.424,0 -31.968,11.952 -31.968,36.144c0,24.192 14.544,34.992 29.952,34.992c7.056,0 11.952,-0.864 16.704,-3.168l-0.288,-4.608Z" style="fill:#fff;fill-rule:nonzero;"/></g><g id="iPhone 5"><g id="iPhone 5 Black"><g id="Frame20"><g id="Button8"><path id="Power Button8" d="M670.505,2801.59l0,9l122,0l0,-9l-3.991,-3l-114,0l-4.009,3Z" style="fill:#343438;"/><path id="Volume Down Button4" d="M160.505,3310.59l-3,3l0,50l3,3l9,0l0,-56l-9,0Z" style="fill:#343438;"/><path id="Volume Up Button4" d="M160.505,3177.59l-3,3l0,50l3,3l9,0l0,-56l-9,0Z" style="fill:#343438;"/><path id="Mute Switch12" d="M160.505,3026.59l-3,3l0,67l3,3l9,0l0,-73l-9,0Z" style="fill:#343438;"/></g><path id="Frame21" d="M166.505,2919.6c0,-29.92 11.67,-58.05 32.85,-79.21c21.18,-21.15 49.33,-32.8 79.28,-32.8l529.74,0c29.95,0 58.1,11.65 79.28,32.8c21.19,21.16 32.85,49.29 32.85,79.21l0,1368.98c0,29.922 -11.66,58.054 -32.85,79.211c-21.18,21.153 -49.33,32.803 -79.28,32.803l-529.74,0c-29.95,0 -58.1,-11.65 -79.28,-32.803c-21.18,-21.157 -32.85,-49.289 -32.85,-79.211l0,-1368.98Z" style="fill:#343438;"/></g><g id="Body12"><path id="Front12" d="M278.635,2816.58l529.74,0c56.87,0 103.13,46.212 103.13,103.015l0,1367.97c0,56.8 -46.26,103.01 -103.13,103.01l-529.74,0c-56.86,0 -103.13,-46.21 -103.13,-103.01l0,-1367.97c0,-56.803 46.27,-103.015 103.13,-103.015Z" style="fill:#141414;"/><g id="Home Button12"><path id="Home Button Circle1" d="M543.063,4216.15c37.53,0 68,30.469 68,68c0,37.53 -30.47,68 -68,68c-37.53,0 -68,-30.47 -68,-68c0,-37.531 30.47,-68 68,-68ZM543.063,4221.22c34.731,0 62.929,28.197 62.929,62.929c0,34.731 -28.198,62.928 -62.929,62.928c-34.731,0 -62.929,-28.197 -62.929,-62.928c0,-34.732 28.198,-62.929 62.929,-62.929Z" style="fill:#1d1d1d;"/><path id="Rounded Rectangle Symbol1" d="M526.879,4308.65c-0.319,-0.002 -0.637,-0.018 -0.955,-0.055c-0.615,-0.07 -1.223,-0.21 -1.807,-0.416c-1.138,-0.401 -2.183,-1.053 -3.046,-1.896c-0.887,-0.866 -1.577,-1.928 -2.003,-3.091c-0.213,-0.581 -0.36,-1.186 -0.438,-1.8c-0.04,-0.315 -0.06,-0.633 -0.066,-0.951c-0.069,-10.861 -0.069,-21.722 0,-32.583c0.006,-0.318 0.026,-0.635 0.066,-0.951c0.078,-0.614 0.225,-1.219 0.438,-1.8c0.426,-1.163 1.116,-2.225 2.003,-3.091c0.863,-0.842 1.908,-1.495 3.046,-1.896c0.584,-0.206 1.192,-0.346 1.807,-0.416c0.282,-0.032 0.564,-0.048 0.847,-0.054c10.861,-0.068 21.723,-0.068 32.584,0c0.318,0.006 0.635,0.026 0.951,0.067c0.613,0.078 1.218,0.225 1.799,0.438c1.164,0.426 2.226,1.116 3.091,2.002c0.843,0.864 1.495,1.908 1.896,3.046c0.206,0.585 0.346,1.192 0.417,1.808c0.032,0.282 0.048,0.564 0.053,0.847c0.069,10.861 0.069,21.722 0,32.583c-0.006,0.318 -0.026,0.636 -0.066,0.951c-0.078,0.614 -0.225,1.219 -0.438,1.8c-0.426,1.163 -1.116,2.225 -2.003,3.091c-0.863,0.843 -1.908,1.495 -3.046,1.896c-0.584,0.206 -1.192,0.346 -1.808,0.416c-0.281,0.033 -0.563,0.049 -0.846,0.054c-10.825,0.069 -21.651,0.001 -32.476,0.001ZM526.898,4303.15c10.821,0 21.646,0.339 32.461,-0.003c0.084,-0.003 0.168,-0.01 0.252,-0.02c0.285,-0.038 0.561,-0.117 0.822,-0.238c0.67,-0.313 1.206,-0.895 1.461,-1.59c0.109,-0.297 0.163,-0.611 0.169,-0.927c0.069,-10.84 0.344,-21.685 -0.002,-32.518c-0.013,-0.292 -0.067,-0.58 -0.167,-0.854c-0.284,-0.774 -0.912,-1.398 -1.685,-1.682c-0.295,-0.109 -0.607,-0.162 -0.921,-0.168c-10.84,-0.062 -21.687,-0.355 -32.521,0.002c-0.29,0.012 -0.578,0.065 -0.85,0.166c-0.762,0.28 -1.384,0.891 -1.673,1.65c-0.117,0.307 -0.174,0.632 -0.181,0.96c-0.065,10.839 -0.34,21.685 0.002,32.519c0.014,0.314 0.076,0.623 0.191,0.916c0.272,0.689 0.822,1.257 1.501,1.555c0.274,0.12 0.566,0.192 0.864,0.22c0.092,0.008 0.184,0.011 0.277,0.012Z" style="fill:#d5d2cf;fill-rule:nonzero;"/></g><g id="Screen16"><path id="Screen Frame4" d="M222.505,4179.59c-0.824,-0.131 -1.679,-0.134 -2.472,-0.392c-1.607,-0.522 -3.007,-1.539 -4,-2.906c-0.491,-0.675 -0.879,-1.437 -1.136,-2.23c-0.258,-0.794 -0.261,-1.648 -0.392,-2.472l0,-1136c0.131,-0.824 0.134,-1.679 0.392,-2.472c0.522,-1.607 1.539,-3.007 2.906,-4c0.675,-0.491 1.436,-0.879 2.23,-1.137c0.793,-0.258 1.648,-0.261 2.472,-0.391l640,0c0.824,0.13 1.679,0.133 2.472,0.391c1.607,0.522 3.007,1.54 4,2.906c0.491,0.675 0.879,1.437 1.136,2.231c0.258,0.793 0.261,1.648 0.392,2.472l0,1136c-0.131,0.824 -0.134,1.678 -0.392,2.472c-0.522,1.607 -1.539,3.007 -2.906,4c-0.675,0.49 -1.436,0.878 -2.23,1.136c-0.793,0.258 -1.648,0.261 -2.472,0.392c-213.333,0 -426.667,0 -640,0Z" style="fill:#141414;"/><rect id="Screen17" x="222.505" y="3035.59" width="640" height="1136" style="fill:#141414;"/></g><g id="Top Sensors12"><path id="Speaker12" d="M486.505,2936.59l110,0c4.41,0 8,3.589 8,8c0,4.411 -3.59,8 -8,8l-110,0c-4.41,0 -8,-3.589 -8,-8c0,-4.411 3.59,-8 8,-8Z" style="fill:#1d1d1d;"/><path id="Camera12" d="M542.505,2871.22c7.73,0 14,6.268 14,14c0,7.732 -6.27,14 -14,14c-7.73,0 -14,-6.268 -14,-14c0,-7.732 6.27,-14 14,-14Z" style="fill:#1d1d1d;"/></g></g></g><g id="iPhone 5 White"><g id="Frame22"><g id="Button9"><path id="Power Button9" d="M1516.51,2801.59l0,9l122,0l0,-9l-3.991,-3l-114,0l-4.009,3Z" style="fill:#d5d2cf;"/><path id="Volume Down Button5" d="M1006.5,3310.59l-3,3l0,50l3,3l9,0l0,-56l-9,0Z" style="fill:#d5d2cf;"/><path id="Volume Up Button5" d="M1006.5,3177.59l-3,3l0,50l3,3l9,0l0,-56l-9,0Z" style="fill:#d5d2cf;"/><path id="Mute Switch13" d="M1006.5,3026.59l-3,3l0,67l3,3l9,0l0,-73l-9,0Z" style="fill:#d5d2cf;"/></g><path id="Frame23" d="M1012.5,2919.6c0,-29.92 11.67,-58.05 32.85,-79.21c21.18,-21.15 49.33,-32.8 79.28,-32.8l529.74,0c29.95,0 58.1,11.65 79.28,32.8c21.19,21.16 32.85,49.29 32.85,79.21l0,1368.98c0,29.922 -11.66,58.054 -32.85,79.211c-21.18,21.153 -49.33,32.803 -79.28,32.803l-529.74,0c-29.95,0 -58.1,-11.65 -79.28,-32.803c-21.18,-21.157 -32.85,-49.289 -32.85,-79.211l0,-1368.98Z" style="fill:#d5d2cf;"/></g><g id="Body13"><path id="Front13" d="M1124.63,2816.58l529.74,0c56.87,0 103.13,46.212 103.13,103.015l0,1367.97c0,56.8 -46.26,103.01 -103.13,103.01l-529.74,0c-56.86,0 -103.13,-46.21 -103.13,-103.01l0,-1367.97c0,-56.803 46.27,-103.015 103.13,-103.015Z" style="fill:#f7f7f7;"/><g id="Home Button13"><path id="Home Button Circle2" d="M1389.06,4216.15c37.53,0 68,30.469 68,68c0,37.53 -30.47,68 -68,68c-37.53,0 -68,-30.47 -68,-68c0,-37.531 30.47,-68 68,-68ZM1389.06,4221.22c34.731,0 62.929,28.197 62.929,62.929c0,34.731 -28.198,62.928 -62.929,62.928c-34.731,0 -62.929,-28.197 -62.929,-62.928c0,-34.732 28.198,-62.929 62.929,-62.929Z" style="fill:#d5d2cf;"/><path id="Rounded Rectangle Symbol2" d="M1372.88,4308.65c-0.319,-0.002 -0.637,-0.018 -0.955,-0.055c-0.615,-0.07 -1.223,-0.21 -1.807,-0.416c-1.138,-0.401 -2.183,-1.053 -3.046,-1.896c-0.887,-0.866 -1.577,-1.928 -2.003,-3.091c-0.213,-0.581 -0.36,-1.186 -0.438,-1.8c-0.04,-0.315 -0.06,-0.633 -0.066,-0.951c-0.069,-10.861 -0.069,-21.722 0,-32.583c0.006,-0.318 0.026,-0.635 0.066,-0.951c0.078,-0.614 0.225,-1.219 0.438,-1.8c0.426,-1.163 1.116,-2.225 2.003,-3.091c0.863,-0.842 1.908,-1.495 3.046,-1.896c0.584,-0.206 1.192,-0.346 1.807,-0.416c0.282,-0.032 0.564,-0.048 0.847,-0.054c10.861,-0.068 21.723,-0.068 32.584,0c0.318,0.006 0.635,0.026 0.951,0.067c0.613,0.078 1.218,0.225 1.799,0.438c1.164,0.426 2.226,1.116 3.091,2.002c0.843,0.864 1.495,1.908 1.896,3.046c0.206,0.585 0.346,1.192 0.417,1.808c0.032,0.282 0.048,0.564 0.053,0.847c0.069,10.861 0.069,21.722 0,32.583c-0.006,0.318 -0.026,0.636 -0.066,0.951c-0.078,0.614 -0.225,1.219 -0.438,1.8c-0.426,1.163 -1.116,2.225 -2.003,3.091c-0.863,0.843 -1.908,1.495 -3.046,1.896c-0.584,0.206 -1.192,0.346 -1.808,0.416c-0.281,0.033 -0.563,0.049 -0.846,0.054c-10.825,0.069 -21.651,0.001 -32.476,0.001ZM1372.9,4303.15c10.821,0 21.646,0.339 32.461,-0.003c0.084,-0.003 0.168,-0.01 0.252,-0.02c0.285,-0.038 0.561,-0.117 0.822,-0.238c0.67,-0.313 1.206,-0.895 1.461,-1.59c0.109,-0.297 0.163,-0.611 0.169,-0.927c0.069,-10.84 0.344,-21.685 -0.002,-32.518c-0.013,-0.292 -0.067,-0.58 -0.167,-0.854c-0.284,-0.774 -0.912,-1.398 -1.685,-1.682c-0.295,-0.109 -0.607,-0.162 -0.921,-0.168c-10.84,-0.062 -21.687,-0.355 -32.521,0.002c-0.29,0.012 -0.578,0.065 -0.85,0.166c-0.762,0.28 -1.384,0.891 -1.673,1.65c-0.117,0.307 -0.174,0.632 -0.181,0.96c-0.065,10.839 -0.34,21.685 0.002,32.519c0.014,0.314 0.076,0.623 0.191,0.916c0.272,0.689 0.822,1.257 1.501,1.555c0.274,0.12 0.566,0.192 0.864,0.22c0.092,0.008 0.184,0.011 0.277,0.012Z" style="fill:#d5d2cf;fill-rule:nonzero;"/></g><g id="Screen18"><path id="Screen Frame5" d="M1068.51,4179.59c-0.824,-0.131 -1.679,-0.134 -2.472,-0.392c-1.607,-0.522 -3.007,-1.539 -4,-2.906c-0.491,-0.675 -0.879,-1.437 -1.136,-2.23c-0.258,-0.794 -0.261,-1.648 -0.392,-2.472l0,-1136c0.131,-0.824 0.134,-1.679 0.392,-2.472c0.522,-1.607 1.539,-3.007 2.906,-4c0.675,-0.491 1.436,-0.879 2.23,-1.137c0.793,-0.258 1.648,-0.261 2.472,-0.391l640,0c0.824,0.13 1.679,0.133 2.472,0.391c1.607,0.522 3.007,1.54 4,2.906c0.491,0.675 0.879,1.437 1.136,2.231c0.258,0.793 0.261,1.648 0.392,2.472l0,1136c-0.131,0.824 -0.134,1.678 -0.392,2.472c-0.522,1.607 -1.539,3.007 -2.906,4c-0.675,0.49 -1.436,0.878 -2.23,1.136c-0.793,0.258 -1.648,0.261 -2.472,0.392c-213.333,0 -426.667,0 -640,0Z" style="fill:#3e3e3e;"/><rect id="Screen19" x="1068.51" y="3035.59" width="640" height="1136" style="fill:#000;"/><path d="M1068.51,4179.59l-2.472,-0.392l-2.23,-1.136l-1.77,-1.77l-1.136,-2.23l-0.392,-2.472l0,-1136l0.392,-2.472l1.136,-2.23l1.77,-1.77l2.23,-1.137l2.472,-0.391l640,0l2.472,0.391l2.23,1.137l1.77,1.77l1.136,2.23l0.392,2.472l0,1136l-0.392,2.472l-1.136,2.23l-1.77,1.77l-2.23,1.136l-2.472,0.392l-640,0ZM1068.51,4171.59l640,0l0,-1136l-640,0l0,1136Z" style="fill:#3e3e3e;"/></g><g id="Top Sensors13"><path id="Speaker13" d="M1332.51,2936.59l110,0c4.41,0 8,3.589 8,8c0,4.411 -3.59,8 -8,8l-110,0c-4.41,0 -8,-3.589 -8,-8c0,-4.411 3.59,-8 8,-8Z" style="fill:#3e3e3e;"/><path id="Light Sensor8" d="M1283.96,2935.55c5.27,0 9.54,4.272 9.54,9.541c0,5.269 -4.27,9.541 -9.54,9.541c-5.27,0 -9.54,-4.272 -9.54,-9.541c0,-5.269 4.27,-9.541 9.54,-9.541Z" style="fill:#3e3e3e;"/><path id="Camera13" d="M1388.51,2871.22c7.73,0 14,6.268 14,14c0,7.732 -6.27,14 -14,14c-7.73,0 -14,-6.268 -14,-14c0,-7.732 6.27,-14 14,-14Z" style="fill:#3e3e3e;"/></g></g></g><path id="iPhone 51" d="M739.525,2542.19c-2.16,0 -3.888,1.728 -3.888,3.888c0,2.16 1.728,3.888 3.888,3.888c2.16,0 3.888,-1.728 3.888,-3.888c0,-2.16 -1.728,-3.888 -3.888,-3.888ZM737.077,2632.77l4.896,0l0,-68.256l-4.896,0l0,68.256Z" style="fill:#fff;fill-rule:nonzero;"/><path d="M766.741,2632.77l4.896,0l0,-43.632c2.592,0.288 5.616,0.432 8.208,0.432c19.44,0 37.152,-10.8 37.152,-30.24c0,-15.12 -10.656,-27.072 -34.704,-27.072c-4.752,0 -9.936,0.432 -15.552,1.728l0,98.784ZM771.637,2537.87c4.176,-0.72 7.776,-1.008 10.944,-1.008c20.736,0 28.944,9.36 28.944,23.184c0,14.544 -13.104,25.056 -33.408,25.056c-1.728,0 -4.608,-0.288 -6.48,-0.576l0,-46.656Z" style="fill:#fff;fill-rule:nonzero;"/><path d="M836.869,2526.93l-4.896,0l0,105.84l4.896,0l0,-40.608c0,-11.088 8.496,-24.48 20.592,-24.48c11.376,0 17.856,8.064 17.856,21.024l0,44.064l4.896,0l0,-46.08c0,-13.248 -7.632,-23.616 -22.176,-23.616c-9.792,0 -18.288,6.912 -21.168,15.84l0,-51.984Z" style="fill:#fff;fill-rule:nonzero;"/><path d="M927.301,2563.07c-18,0 -28.368,15.552 -28.368,35.568c0,19.872 10.368,35.568 28.368,35.568c18,0 28.368,-15.696 28.368,-35.568c0,-20.016 -10.368,-35.568 -28.368,-35.568ZM927.301,2567.54c12.816,0 23.184,10.944 23.184,31.104c0,20.16 -10.368,31.104 -23.184,31.104c-12.816,0 -23.184,-10.944 -23.184,-31.104c0,-20.16 10.368,-31.104 23.184,-31.104Z" style="fill:#fff;fill-rule:nonzero;"/><path d="M979.141,2564.51l-4.176,0l0,68.256l4.896,0l0,-40.608c0,-11.088 8.496,-24.48 20.592,-24.48c11.376,0 17.856,8.064 17.856,21.024l0,44.064l4.896,0l0,-46.08c0,-13.248 -7.632,-23.616 -22.176,-23.616c-9.936,0 -18.432,7.056 -21.168,16.128l-0.72,-14.688Z" style="fill:#fff;fill-rule:nonzero;"/><path d="M1087.72,2624.99c-5.472,3.168 -11.664,4.752 -17.568,4.752c-14.832,0 -23.328,-10.368 -23.328,-30.096l44.784,0c0.288,-1.728 0.432,-4.032 0.432,-5.76c0,-15.408 -6.912,-30.816 -23.76,-30.816c-14.688,0 -26.64,14.688 -26.64,37.152c0,22.176 11.376,33.984 26.496,33.984c8.208,0 14.976,-1.584 19.872,-4.608l-0.288,-4.608ZM1046.96,2595.33c1.008,-16.992 10.224,-27.648 21.168,-27.648c11.376,0 19.008,8.928 19.008,27.648l-40.176,0Z" style="fill:#fff;fill-rule:nonzero;"/><path d="M1187.94,2542.63l0,-4.608l-39.312,0l-2.592,44.64l8.496,0c19.872,0 29.952,8.352 29.952,24.768c0,12.816 -12.096,22.176 -24.048,22.176c-6.624,0 -12.24,-1.296 -18.576,-5.904l-0.576,5.184c5.76,4.032 10.8,5.328 18.576,5.328c16.56,0 29.808,-12.528 29.808,-27.936c0,-18.144 -12.672,-28.224 -33.984,-28.224l-4.752,0l2.016,-35.424l34.992,0Z" style="fill:#fff;fill-rule:nonzero;"/></g><g id="iPhone 4s"><g id="iPhone 4S White"><g id="Frame24"><path id="Frame25" d="M3303,597.6c0,-29.92 11.67,-58.05 32.85,-79.21c21.18,-21.15 49.33,-32.8 79.28,-32.8l529.74,0c29.95,0 58.1,11.65 79.28,32.8c21.19,21.16 32.85,49.29 32.85,79.21l0,1250.98c0,29.922 -11.66,58.054 -32.85,79.211c-21.18,21.153 -49.33,32.803 -79.28,32.803l-529.74,0c-29.95,0 -58.1,-11.65 -79.28,-32.803c-21.18,-21.157 -32.85,-49.289 -32.85,-79.211l0,-1250.98Z" style="fill:#d5d2cf;"/><g id="Buttons4"><path id="Top Button" d="M3807,479.59l0,7l122,0l0,-7l-3.991,-3l-114,0l-4.009,3Z" style="fill:#d5d2cf;"/><path id="Sound Down Button" d="M3297,905.59l-3,3l0,50l3,3l7,0l0,-56l-7,0Z" style="fill:#d5d2cf;"/><path id="Sound Up Button" d="M3297,781.59l-3,3l0,50l3,3l7,0l0,-56l-7,0Z" style="fill:#d5d2cf;"/><path id="Sound Switch Button" d="M3297,644.59l-3,3l0,67l3,3l7,0l0,-73l-7,0Z" style="fill:#d5d2cf;"/></g></g><g id="Body14"><path id="Front14" d="M3415.13,494.584l529.74,0c56.87,0 103.13,46.212 103.13,103.015l0,1249.97c0,56.8 -46.26,103.01 -103.13,103.01l-529.74,0c-56.86,0 -103.13,-46.21 -103.13,-103.01l0,-1249.97c0,-56.803 46.27,-103.015 103.13,-103.015Z" style="fill:#f7f7f7;"/><g id="Home Button14"><path id="Home Button Circle3" d="M3680,1762.15c37.53,0 68,30.469 68,68c0,37.53 -30.47,68 -68,68c-37.53,0 -68,-30.47 -68,-68c0,-37.531 30.47,-68 68,-68ZM3680,1767.22c34.731,0 62.929,28.197 62.929,62.929c0,34.731 -28.198,62.928 -62.929,62.928c-34.731,0 -62.929,-28.197 -62.929,-62.928c0,-34.732 28.198,-62.929 62.929,-62.929Z" style="fill:#d5d2cf;"/><path id="Rounded Rectangle Symbol3" d="M3663.82,1854.65c-0.319,-0.002 -0.637,-0.018 -0.955,-0.055c-0.615,-0.07 -1.223,-0.21 -1.807,-0.416c-1.138,-0.401 -2.183,-1.053 -3.046,-1.896c-0.887,-0.866 -1.577,-1.928 -2.003,-3.091c-0.213,-0.581 -0.36,-1.186 -0.438,-1.8c-0.04,-0.315 -0.06,-0.633 -0.066,-0.951c-0.069,-10.861 -0.069,-21.722 0,-32.583c0.006,-0.318 0.026,-0.635 0.066,-0.951c0.078,-0.614 0.225,-1.219 0.438,-1.8c0.426,-1.163 1.116,-2.225 2.003,-3.091c0.863,-0.842 1.908,-1.495 3.046,-1.896c0.584,-0.206 1.192,-0.346 1.807,-0.416c0.282,-0.032 0.564,-0.048 0.847,-0.054c10.861,-0.068 21.723,-0.068 32.584,0c0.318,0.006 0.635,0.026 0.951,0.067c0.613,0.078 1.218,0.225 1.799,0.438c1.164,0.426 2.226,1.116 3.091,2.002c0.843,0.864 1.495,1.908 1.896,3.046c0.207,0.585 0.346,1.192 0.417,1.808c0.032,0.282 0.048,0.564 0.053,0.847c0.069,10.861 0.069,21.722 0,32.583c-0.006,0.318 -0.026,0.636 -0.066,0.951c-0.078,0.614 -0.225,1.219 -0.438,1.8c-0.426,1.163 -1.116,2.225 -2.003,3.091c-0.863,0.843 -1.908,1.495 -3.046,1.896c-0.584,0.206 -1.192,0.346 -1.807,0.416c-0.282,0.033 -0.564,0.049 -0.847,0.054c-10.825,0.069 -21.651,0.001 -32.476,0.001ZM3663.84,1849.15c10.821,0 21.646,0.339 32.461,-0.003c0.084,-0.003 0.168,-0.01 0.252,-0.02c0.285,-0.038 0.561,-0.117 0.822,-0.238c0.67,-0.313 1.206,-0.895 1.461,-1.59c0.109,-0.297 0.163,-0.611 0.169,-0.927c0.069,-10.84 0.344,-21.685 -0.002,-32.518c-0.013,-0.292 -0.067,-0.58 -0.167,-0.854c-0.284,-0.774 -0.912,-1.398 -1.685,-1.682c-0.295,-0.109 -0.607,-0.162 -0.921,-0.168c-10.84,-0.062 -21.687,-0.355 -32.521,0.002c-0.29,0.012 -0.578,0.065 -0.85,0.166c-0.762,0.28 -1.384,0.891 -1.673,1.65c-0.117,0.307 -0.174,0.632 -0.181,0.96c-0.065,10.839 -0.34,21.685 0.002,32.519c0.014,0.314 0.076,0.623 0.191,0.916c0.272,0.689 0.822,1.257 1.501,1.555c0.274,0.12 0.566,0.192 0.864,0.22c0.092,0.008 0.185,0.011 0.277,0.012Z" style="fill:#d5d2cf;fill-rule:nonzero;"/></g><g id="Screen20"><path id="Screen Panel8" d="M3359,731.59c-0.824,0.13 -1.679,0.133 -2.472,0.391c-0.794,0.258 -1.555,0.646 -2.23,1.137c-1.367,0.993 -2.384,2.393 -2.906,4c-0.258,0.793 -0.261,1.648 -0.392,2.472l0,960c0.131,0.824 0.134,1.678 0.392,2.472c0.257,0.793 0.645,1.555 1.136,2.23c0.993,1.367 2.393,2.384 4,2.906c0.793,0.258 1.648,0.261 2.472,0.392l640,0c0.824,-0.131 1.679,-0.134 2.472,-0.392c1.607,-0.522 3.007,-1.539 4,-2.906c0.491,-0.675 0.879,-1.437 1.136,-2.23c0.258,-0.794 0.262,-1.648 0.392,-2.472l0,-960c-0.13,-0.824 -0.134,-1.679 -0.392,-2.472c-0.522,-1.607 -1.539,-3.007 -2.906,-4c-0.675,-0.491 -1.436,-0.879 -2.23,-1.137c-0.793,-0.258 -1.648,-0.261 -2.472,-0.391c-213.333,0 -426.667,0 -640,0Z" style="fill:#3e3e3e;"/><rect id="Screen - Off4" x="3359" y="739.59" width="640" height="960" style="fill:#000;"/><path d="M3359,1707.59l-2.472,-0.392l-2.23,-1.136l-1.77,-1.77l-1.136,-2.23l-0.392,-2.472l0,-960l0.392,-2.472l1.136,-2.231l1.77,-1.769l2.23,-1.137l2.472,-0.391l640,0l2.472,0.391l2.23,1.137l1.77,1.769l1.136,2.231l0.392,2.472l0,960l-0.392,2.472l-1.136,2.23l-1.77,1.77l-2.23,1.136l-2.472,0.392l-640,0ZM3359,1699.59l640,0l0,-960l-640,0l0,960Z" style="fill:#3e3e3e;"/></g><g id="Top Sensors14"><path id="Speaker14" d="M3629,603.59l110,0c4.41,0 8,3.589 8,8c0,4.411 -3.59,8 -8,8l-110,0c-4.41,0 -8,-3.589 -8,-8c0,-4.411 3.59,-8 8,-8Z" style="fill:#3e3e3e;"/><path id="Light Sensor9" d="M3655,541.59l59,0c4.41,0 8,3.589 8,8c0,4.411 -3.59,8 -8,8l-59,0c-4.41,0 -8,-3.589 -8,-8c0,-4.411 3.59,-8 8,-8Z" style="fill:#3e3e3e;"/><path id="Camera14" d="M3536.46,593.606c9.655,0 17.479,7.827 17.479,17.481c0,9.653 -7.824,17.48 -17.479,17.48c-9.655,0 -17.479,-7.827 -17.479,-17.48c0,-9.654 7.824,-17.481 17.479,-17.481Z" style="fill:#3e3e3e;"/></g></g></g><g id="iPhone 4S Black"><g id="Frame26"><path id="Frame27" d="M2452,596.6c0,-29.92 11.67,-58.05 32.85,-79.21c21.18,-21.15 49.33,-32.8 79.28,-32.8l529.74,0c29.95,0 58.1,11.65 79.28,32.8c21.19,21.16 32.85,49.29 32.85,79.21l0,1250.98c0,29.922 -11.66,58.054 -32.85,79.211c-21.18,21.153 -49.33,32.803 -79.28,32.803l-529.74,0c-29.95,0 -58.1,-11.65 -79.28,-32.803c-21.18,-21.157 -32.85,-49.289 -32.85,-79.211l0,-1250.98Z" style="fill:#d5d2cf;"/><g id="Buttons5"><path id="Top Button1" d="M2956,478.59l0,7l122,0l0,-7l-3.991,-3l-114,0l-4.009,3Z" style="fill:#d5d2cf;"/><path id="Sound Down Button1" d="M2446,904.59l-3,3l0,50l3,3l7,0l0,-56l-7,0Z" style="fill:#d5d2cf;"/><path id="Sound Up Button1" d="M2446,780.59l-3,3l0,50l3,3l7,0l0,-56l-7,0Z" style="fill:#d5d2cf;"/><path id="Sound Switch Button1" d="M2446,643.59l-3,3l0,67l3,3l7,0l0,-73l-7,0Z" style="fill:#d5d2cf;"/></g></g><g id="Body15"><path id="Front15" d="M2564.13,493.584l529.74,0c56.87,0 103.13,46.212 103.13,103.015l0,1249.97c0,56.8 -46.26,103.01 -103.13,103.01l-529.74,0c-56.86,0 -103.13,-46.21 -103.13,-103.01l0,-1249.97c0,-56.803 46.27,-103.015 103.13,-103.015Z" style="fill:#141414;"/><g id="Home Button15"><path id="Home Button Circle4" d="M2829,1761.15c37.53,0 68,30.469 68,68c0,37.53 -30.47,68 -68,68c-37.53,0 -68,-30.47 -68,-68c0,-37.531 30.47,-68 68,-68ZM2829,1766.22c34.731,0 62.929,28.197 62.929,62.929c0,34.731 -28.198,62.928 -62.929,62.928c-34.731,0 -62.929,-28.197 -62.929,-62.928c0,-34.732 28.198,-62.929 62.929,-62.929Z" style="fill:#1d1d1d;"/><path id="Rounded Rectangle Symbol4" d="M2812.82,1853.65c-0.319,-0.002 -0.637,-0.018 -0.955,-0.055c-0.615,-0.07 -1.223,-0.21 -1.807,-0.416c-1.138,-0.401 -2.183,-1.053 -3.046,-1.896c-0.887,-0.866 -1.577,-1.928 -2.003,-3.091c-0.213,-0.581 -0.36,-1.186 -0.438,-1.8c-0.04,-0.315 -0.06,-0.633 -0.066,-0.951c-0.069,-10.861 -0.069,-21.722 0,-32.583c0.006,-0.318 0.026,-0.635 0.066,-0.951c0.078,-0.614 0.225,-1.219 0.438,-1.8c0.426,-1.163 1.116,-2.225 2.003,-3.091c0.863,-0.842 1.908,-1.495 3.046,-1.896c0.584,-0.206 1.192,-0.346 1.807,-0.416c0.282,-0.032 0.564,-0.048 0.847,-0.054c10.861,-0.068 21.723,-0.068 32.584,0c0.318,0.006 0.635,0.026 0.951,0.067c0.613,0.078 1.218,0.225 1.799,0.438c1.164,0.426 2.226,1.116 3.091,2.002c0.843,0.864 1.495,1.908 1.896,3.046c0.207,0.585 0.346,1.192 0.417,1.808c0.032,0.282 0.048,0.564 0.053,0.847c0.069,10.861 0.069,21.722 0,32.583c-0.006,0.318 -0.026,0.636 -0.066,0.951c-0.078,0.614 -0.225,1.219 -0.438,1.8c-0.426,1.163 -1.116,2.225 -2.003,3.091c-0.863,0.843 -1.908,1.495 -3.046,1.896c-0.584,0.206 -1.192,0.346 -1.807,0.416c-0.282,0.033 -0.564,0.049 -0.847,0.054c-10.825,0.069 -21.651,0.001 -32.476,0.001ZM2812.84,1848.15c10.821,0 21.646,0.339 32.461,-0.003c0.084,-0.003 0.168,-0.01 0.252,-0.02c0.285,-0.038 0.561,-0.117 0.822,-0.238c0.67,-0.313 1.206,-0.895 1.461,-1.59c0.109,-0.297 0.163,-0.611 0.169,-0.927c0.069,-10.84 0.344,-21.685 -0.002,-32.518c-0.013,-0.292 -0.067,-0.58 -0.167,-0.854c-0.284,-0.774 -0.912,-1.398 -1.685,-1.682c-0.295,-0.109 -0.607,-0.162 -0.921,-0.168c-10.84,-0.062 -21.687,-0.355 -32.521,0.002c-0.29,0.012 -0.578,0.065 -0.85,0.166c-0.762,0.28 -1.384,0.891 -1.673,1.65c-0.117,0.307 -0.174,0.632 -0.181,0.96c-0.065,10.839 -0.34,21.685 0.002,32.519c0.014,0.314 0.076,0.623 0.191,0.916c0.272,0.689 0.822,1.257 1.501,1.555c0.274,0.12 0.566,0.192 0.864,0.22c0.092,0.008 0.185,0.011 0.277,0.012Z" style="fill:#d5d2cf;fill-rule:nonzero;"/></g><g id="Screen21"><path id="Screen Panel9" d="M2508,730.59c-0.824,0.13 -1.679,0.133 -2.472,0.391c-0.794,0.258 -1.555,0.646 -2.23,1.137c-1.367,0.993 -2.384,2.393 -2.906,4c-0.258,0.793 -0.261,1.648 -0.392,2.472l0,960c0.131,0.824 0.134,1.678 0.392,2.472c0.257,0.793 0.645,1.555 1.136,2.23c0.993,1.367 2.393,2.384 4,2.906c0.793,0.258 1.648,0.261 2.472,0.392l640,0c0.824,-0.131 1.679,-0.134 2.472,-0.392c1.607,-0.522 3.007,-1.539 4,-2.906c0.491,-0.675 0.879,-1.437 1.136,-2.23c0.258,-0.794 0.262,-1.648 0.392,-2.472l0,-960c-0.13,-0.824 -0.134,-1.679 -0.392,-2.472c-0.522,-1.607 -1.539,-3.007 -2.906,-4c-0.675,-0.491 -1.436,-0.879 -2.23,-1.137c-0.793,-0.258 -1.648,-0.261 -2.472,-0.391c-213.333,0 -426.667,0 -640,0Z" style="fill:#141414;"/><rect id="Screen - Off5" x="2508" y="738.59" width="640" height="960" style="fill:#141414;"/></g><g id="Top Sensors15"><path id="Speaker15" d="M2778,602.59l110,0c4.41,0 8,3.589 8,8c0,4.411 -3.59,8 -8,8l-110,0c-4.41,0 -8,-3.589 -8,-8c0,-4.411 3.59,-8 8,-8Z" style="fill:#1d1d1d;"/><path id="Camera15" d="M2685.46,592.606c9.655,0 17.479,7.827 17.479,17.481c0,9.653 -7.824,17.48 -17.479,17.48c-9.655,0 -17.479,-7.827 -17.479,-17.48c0,-9.654 7.824,-17.481 17.479,-17.481Z" style="fill:#1d1d1d;"/></g></g></g><path id="iPhone 4S" d="M2994.76,207.184c-2.16,0 -3.888,1.728 -3.888,3.888c0,2.16 1.728,3.888 3.888,3.888c2.16,0 3.888,-1.728 3.888,-3.888c0,-2.16 -1.728,-3.888 -3.888,-3.888ZM2992.31,297.76l4.896,0l0,-68.256l-4.896,0l0,68.256Z" style="fill:#fff;fill-rule:nonzero;"/><path d="M3021.98,297.76l4.896,0l0,-43.632c2.592,0.288 5.616,0.432 8.208,0.432c19.44,0 37.152,-10.8 37.152,-30.24c0,-15.12 -10.656,-27.072 -34.704,-27.072c-4.752,0 -9.936,0.432 -15.552,1.728l0,98.784ZM3026.87,202.864c4.176,-0.72 7.776,-1.008 10.944,-1.008c20.736,0 28.944,9.36 28.944,23.184c0,14.544 -13.104,25.056 -33.408,25.056c-1.728,0 -4.608,-0.288 -6.48,-0.576l0,-46.656Z" style="fill:#fff;fill-rule:nonzero;"/><path d="M3092.1,191.92l-4.896,0l0,105.84l4.896,0l0,-40.608c0,-11.088 8.496,-24.48 20.592,-24.48c11.376,0 17.856,8.064 17.856,21.024l0,44.064l4.896,0l0,-46.08c0,-13.248 -7.632,-23.616 -22.176,-23.616c-9.792,0 -18.288,6.912 -21.168,15.84l0,-51.984Z" style="fill:#fff;fill-rule:nonzero;"/><path d="M3182.54,228.064c-18,0 -28.368,15.552 -28.368,35.568c0,19.872 10.368,35.568 28.368,35.568c18,0 28.368,-15.696 28.368,-35.568c0,-20.016 -10.368,-35.568 -28.368,-35.568ZM3182.54,232.528c12.816,0 23.184,10.944 23.184,31.104c0,20.16 -10.368,31.104 -23.184,31.104c-12.816,0 -23.184,-10.944 -23.184,-31.104c0,-20.16 10.368,-31.104 23.184,-31.104Z" style="fill:#fff;fill-rule:nonzero;"/><path d="M3234.38,229.504l-4.176,0l0,68.256l4.896,0l0,-40.608c0,-11.088 8.496,-24.48 20.592,-24.48c11.376,0 17.856,8.064 17.856,21.024l0,44.064l4.896,0l0,-46.08c0,-13.248 -7.632,-23.616 -22.176,-23.616c-9.936,0 -18.432,7.056 -21.168,16.128l-0.72,-14.688Z" style="fill:#fff;fill-rule:nonzero;"/><path d="M3342.95,289.984c-5.472,3.168 -11.664,4.752 -17.568,4.752c-14.832,0 -23.328,-10.368 -23.328,-30.096l44.784,0c0.288,-1.728 0.432,-4.032 0.432,-5.76c0,-15.408 -6.912,-30.816 -23.76,-30.816c-14.688,0 -26.64,14.688 -26.64,37.152c0,22.176 11.376,33.984 26.496,33.984c8.208,0 14.976,-1.584 19.872,-4.608l-0.288,-4.608ZM3302.2,260.32c1.008,-16.992 10.224,-27.648 21.168,-27.648c11.376,0 19.008,8.928 19.008,27.648l-40.176,0Z" style="fill:#fff;fill-rule:nonzero;"/><path d="M3437.13,265.648l0,-63.216l-6.048,0l-36.576,64.368l0,3.456l37.728,0l0,27.36l4.896,0l0,-27.36l12.672,0l0,-4.608l-12.672,0ZM3400.7,265.648l32.112,-58.176c-0.576,11.52 -0.576,25.92 -0.576,33.12l0,25.056l-31.536,0Z" style="fill:#fff;fill-rule:nonzero;"/><path d="M3459.74,295.456c3.744,2.304 9.792,3.744 15.84,3.744c12.24,0 22.176,-7.488 22.176,-19.296c0,-8.496 -5.904,-13.68 -15.984,-17.856c-9.36,-3.888 -14.4,-7.056 -14.4,-15.696c0,-7.92 6.768,-13.824 14.688,-13.824c5.184,0 10.08,1.584 13.824,4.176l0.432,-5.04c-3.168,-2.16 -8.208,-3.6 -13.68,-3.6c-11.232,0 -20.304,7.2 -20.304,19.008c0,10.368 6.624,14.976 15.552,18.72c10.08,4.176 14.688,7.776 14.688,15.12c0,7.92 -7.488,13.824 -16.848,13.824c-5.04,0 -10.368,-1.296 -15.552,-4.176l-0.432,4.896Z" style="fill:#fff;fill-rule:nonzero;"/></g></g></svg>