<?xml version="1.0" standalone="no"?><!DOCTYPE svg PUBLIC "-//W3C//DTD SVG 1.1//EN" "http://www.w3.org/Graphics/SVG/1.1/DTD/svg11.dtd"><svg width="100%" height="100%" viewBox="0 0 6500 5000" version="1.1" xmlns="http://www.w3.org/2000/svg" xmlns:xlink="http://www.w3.org/1999/xlink" xml:space="preserve" style="fill-rule:evenodd;clip-rule:evenodd;stroke-linejoin:round;stroke-miterlimit:1.41421;"><rect id="bg" x="-237" y="-856" width="7157" height="10263" style="fill:#3498db;"/><g id="iPhone 5S"><g id="iPhone 5S Space Gray"><g id="Frame"><g id="Button"><path id="Power Button" d="M761.5,2906l0,9l122,0l0,-9l-3.991,-3l-114,0l-4.009,3Z" style="fill:#343438;"/><path id="Volume Down Button" d="M251.5,3415l-3,3l0,50l3,3l9,0l0,-56l-9,0Z" style="fill:#343438;"/><path id="Volume Up Button" d="M251.5,3282l-3,3l0,50l3,3l9,0l0,-56l-9,0Z" style="fill:#343438;"/><path id="Mute Switch" d="M251.5,3131l-3,3l0,67l3,3l9,0l0,-73l-9,0Z" style="fill:#343438;"/></g><path id="Frame1" d="M257.5,3024.01c0,-29.92 11.67,-58.05 32.85,-79.21c21.18,-21.15 49.33,-32.8 79.28,-32.8l529.74,0c29.95,0 58.1,11.65 79.28,32.8c21.19,21.16 32.85,49.29 32.85,79.21l0,1368.98c0,29.922 -11.66,58.054 -32.85,79.211c-21.18,21.153 -49.33,32.803 -79.28,32.803l-529.74,0c-29.95,0 -58.1,-11.65 -79.28,-32.803c-21.18,-21.157 -32.85,-49.289 -32.85,-79.211l0,-1368.98Z" style="fill:#343438;"/></g><g id="Body"><path id="Front" d="M369.63,2920.99l529.74,0c56.87,0 103.13,46.212 103.13,103.015l0,1367.97c0,56.8 -46.26,103.01 -103.13,103.01l-529.74,0c-56.86,0 -103.13,-46.21 -103.13,-103.01l0,-1367.97c0,-56.803 46.27,-103.015 103.13,-103.015Z" style="fill:#141414;"/><path id="Home Button" d="M634.058,4320.56c37.53,0 68,30.47 68,68c0,37.53 -30.47,68 -68,68c-37.53,0 -68,-30.47 -68,-68c0,-37.53 30.47,-68 68,-68ZM634.058,4328.66c33.06,0 59.901,26.841 59.901,59.901c0,33.06 -26.841,59.901 -59.901,59.901c-33.06,0 -59.901,-26.841 -59.901,-59.901c0,-33.06 26.841,-59.901 59.901,-59.901Z" style="fill:#1d1d1d;"/><g id="Screen"><path id="Screen Frame" d="M313.5,4284c-0.824,-0.131 -1.679,-0.134 -2.472,-0.392c-1.607,-0.522 -3.007,-1.539 -4,-2.906c-0.491,-0.675 -0.879,-1.436 -1.136,-2.23c-0.258,-0.793 -0.261,-1.648 -0.392,-2.472l0,-1136c0.131,-0.824 0.134,-1.679 0.392,-2.472c0.522,-1.607 1.539,-3.007 2.906,-4c0.675,-0.491 1.436,-0.879 2.23,-1.136c0.793,-0.258 1.648,-0.261 2.472,-0.392l640,0c0.824,0.131 1.679,0.134 2.472,0.392c1.607,0.522 3.007,1.539 4,2.906c0.491,0.675 0.879,1.436 1.136,2.23c0.258,0.793 0.261,1.648 0.392,2.472l0,1136c-0.131,0.824 -0.134,1.679 -0.392,2.472c-0.522,1.607 -1.539,3.007 -2.906,4c-0.675,0.491 -1.436,0.879 -2.23,1.136c-0.793,0.258 -1.648,0.261 -2.472,0.392c-213.333,0 -426.667,0 -640,0Z" style="fill:#141414;"/><rect id="Screen1" x="313.5" y="3140" width="640" height="1136" style="fill:#141414;"/></g><g id="Top Sensors"><path id="Speaker" d="M577.5,3041l110,0c4.41,0 8,3.589 8,8c0,4.411 -3.59,8 -8,8l-110,0c-4.41,0 -8,-3.589 -8,-8c0,-4.411 3.59,-8 8,-8Z" style="fill:#1d1d1d;"/><path id="Camera" d="M633.5,2975.63c7.73,0 14,6.268 14,14c0,7.732 -6.27,14 -14,14c-7.73,0 -14,-6.268 -14,-14c0,-7.732 6.27,-14 14,-14Z" style="fill:#1d1d1d;"/></g></g></g><g id="iPhone 5S Silver"><g id="Frame2"><g id="Button1"><path id="Power Button1" d="M1631.5,2906l0,9l122,0l0,-9l-3.991,-3l-114,0l-4.009,3Z" style="fill:#d5d2cf;"/><path id="Volume Down Button1" d="M1121.5,3415l-3,3l0,50l3,3l9,0l0,-56l-9,0Z" style="fill:#d5d2cf;"/><path id="Volume Up Button1" d="M1121.5,3282l-3,3l0,50l3,3l9,0l0,-56l-9,0Z" style="fill:#d5d2cf;"/><path id="Mute Switch1" d="M1121.5,3131l-3,3l0,67l3,3l9,0l0,-73l-9,0Z" style="fill:#d5d2cf;"/></g><path id="Frame3" d="M1127.5,3024.01c0,-29.92 11.67,-58.05 32.85,-79.21c21.18,-21.15 49.33,-32.8 79.28,-32.8l529.74,0c29.95,0 58.1,11.65 79.28,32.8c21.19,21.16 32.85,49.29 32.85,79.21l0,1368.98c0,29.922 -11.66,58.054 -32.85,79.211c-21.18,21.153 -49.33,32.803 -79.28,32.803l-529.74,0c-29.95,0 -58.1,-11.65 -79.28,-32.803c-21.18,-21.157 -32.85,-49.289 -32.85,-79.211l0,-1368.98Z" style="fill:#d5d2cf;"/></g><g id="Body1"><path id="Front1" d="M1239.63,2920.99l529.74,0c56.87,0 103.13,46.212 103.13,103.015l0,1367.97c0,56.8 -46.26,103.01 -103.13,103.01l-529.74,0c-56.86,0 -103.13,-46.21 -103.13,-103.01l0,-1367.97c0,-56.803 46.27,-103.015 103.13,-103.015Z" style="fill:#f7f7f7;"/><path id="Home Button1" d="M1504.06,4320.56c37.53,0 68,30.47 68,68c0,37.53 -30.47,68 -68,68c-37.53,0 -68,-30.47 -68,-68c0,-37.53 30.47,-68 68,-68ZM1504.06,4328.66c33.06,0 59.901,26.841 59.901,59.901c0,33.06 -26.841,59.901 -59.901,59.901c-33.06,0 -59.901,-26.841 -59.901,-59.901c0,-33.06 26.841,-59.901 59.901,-59.901Z" style="fill:#d5d2cf;"/><g id="Screen2"><path id="Screen Frame1" d="M1183.5,4284c-0.824,-0.131 -1.679,-0.134 -2.472,-0.392c-1.607,-0.522 -3.007,-1.539 -4,-2.906c-0.491,-0.675 -0.879,-1.436 -1.136,-2.23c-0.258,-0.793 -0.261,-1.648 -0.392,-2.472l0,-1136c0.131,-0.824 0.134,-1.679 0.392,-2.472c0.522,-1.607 1.539,-3.007 2.906,-4c0.675,-0.491 1.436,-0.879 2.23,-1.136c0.793,-0.258 1.648,-0.261 2.472,-0.392l640,0c0.824,0.131 1.679,0.134 2.472,0.392c1.607,0.522 3.007,1.539 4,2.906c0.491,0.675 0.879,1.436 1.136,2.23c0.258,0.793 0.261,1.648 0.392,2.472l0,1136c-0.131,0.824 -0.134,1.679 -0.392,2.472c-0.522,1.607 -1.539,3.007 -2.906,4c-0.675,0.491 -1.436,0.879 -2.23,1.136c-0.793,0.258 -1.648,0.261 -2.472,0.392c-213.333,0 -426.667,0 -640,0Z" style="fill:#3e3e3e;"/><rect id="Screen3" x="1183.5" y="3140" width="640" height="1136" style="fill:#000;"/></g><g id="Top Sensors1"><path id="Speaker1" d="M1447.5,3041l110,0c4.41,0 8,3.589 8,8c0,4.411 -3.59,8 -8,8l-110,0c-4.41,0 -8,-3.589 -8,-8c0,-4.411 3.59,-8 8,-8Z" style="fill:#3e3e3e;"/><path id="Light Sensor" d="M1398.96,3039.96c5.27,0 9.54,4.272 9.54,9.541c0,5.269 -4.27,9.541 -9.54,9.541c-5.27,0 -9.54,-4.272 -9.54,-9.541c0,-5.269 4.27,-9.541 9.54,-9.541Z" style="fill:#3e3e3e;"/><path id="Camera1" d="M1503.5,2975.63c7.73,0 14,6.268 14,14c0,7.732 -6.27,14 -14,14c-7.73,0 -14,-6.268 -14,-14c0,-7.732 6.27,-14 14,-14Z" style="fill:#3e3e3e;"/></g></g></g><g id="iPhone 5S Gold"><g id="Frame4"><g id="Button2"><path id="Power Button2" d="M2511.5,2906l0,9l122,0l0,-9l-3.991,-3l-114,0l-4.009,3Z" style="fill:#c7b78c;"/><path id="Volume Down Button2" d="M2001.5,3415l-3,3l0,50l3,3l9,0l0,-56l-9,0Z" style="fill:#c7b78c;"/><path id="Volume Up Button2" d="M2001.5,3282l-3,3l0,50l3,3l9,0l0,-56l-9,0Z" style="fill:#c7b78c;"/><path id="Mute Switch2" d="M2001.5,3131l-3,3l0,67l3,3l9,0l0,-73l-9,0Z" style="fill:#c7b78c;"/></g><path id="Frame5" d="M2007.5,3024.01c0,-29.92 11.67,-58.05 32.85,-79.21c21.18,-21.15 49.33,-32.8 79.28,-32.8l529.74,0c29.95,0 58.1,11.65 79.28,32.8c21.19,21.16 32.85,49.29 32.85,79.21l0,1368.98c0,29.922 -11.66,58.054 -32.85,79.211c-21.18,21.153 -49.33,32.803 -79.28,32.803l-529.74,0c-29.95,0 -58.1,-11.65 -79.28,-32.803c-21.18,-21.157 -32.85,-49.289 -32.85,-79.211l0,-1368.98Z" style="fill:#c7b78c;"/></g><g id="Body2"><path id="Front2" d="M2119.63,2920.99l529.74,0c56.87,0 103.13,46.212 103.13,103.015l0,1367.97c0,56.8 -46.26,103.01 -103.13,103.01l-529.74,0c-56.86,0 -103.13,-46.21 -103.13,-103.01l0,-1367.97c0,-56.803 46.27,-103.015 103.13,-103.015Z" style="fill:#f7f7f7;"/><path id="Home Button2" d="M2384.06,4320.56c37.53,0 68,30.47 68,68c0,37.53 -30.47,68 -68,68c-37.53,0 -68,-30.47 -68,-68c0,-37.53 30.47,-68 68,-68ZM2384.06,4328.66c33.06,0 59.901,26.841 59.901,59.901c0,33.06 -26.841,59.901 -59.901,59.901c-33.06,0 -59.901,-26.841 -59.901,-59.901c0,-33.06 26.841,-59.901 59.901,-59.901Z" style="fill:#c7b78c;"/><g id="Screen4"><path id="Screen Frame2" d="M2063.5,4284c-0.824,-0.131 -1.679,-0.134 -2.472,-0.392c-1.607,-0.522 -3.007,-1.539 -4,-2.906c-0.491,-0.675 -0.879,-1.436 -1.136,-2.23c-0.258,-0.793 -0.261,-1.648 -0.392,-2.472l0,-1136c0.131,-0.824 0.134,-1.679 0.392,-2.472c0.522,-1.607 1.539,-3.007 2.906,-4c0.675,-0.491 1.436,-0.879 2.23,-1.136c0.793,-0.258 1.648,-0.261 2.472,-0.392l640,0c0.824,0.131 1.679,0.134 2.472,0.392c1.607,0.522 3.007,1.539 4,2.906c0.491,0.675 0.879,1.436 1.136,2.23c0.258,0.793 0.261,1.648 0.392,2.472l0,1136c-0.131,0.824 -0.134,1.679 -0.392,2.472c-0.522,1.607 -1.539,3.007 -2.906,4c-0.675,0.491 -1.436,0.879 -2.23,1.136c-0.793,0.258 -1.648,0.261 -2.472,0.392c-213.333,0 -426.667,0 -640,0Z" style="fill:#3e3e3e;"/><rect id="Screen5" x="2063.5" y="3140" width="640" height="1136" style="fill:#000;"/></g><g id="Top Sensors2"><path id="Speaker2" d="M2327.5,3041l110,0c4.41,0 8,3.589 8,8c0,4.411 -3.59,8 -8,8l-110,0c-4.41,0 -8,-3.589 -8,-8c0,-4.411 3.59,-8 8,-8Z" style="fill:#3e3e3e;"/><path id="Light Sensor1" d="M2278.96,3039.96c5.27,0 9.54,4.272 9.54,9.541c0,5.269 -4.27,9.541 -9.54,9.541c-5.27,0 -9.54,-4.272 -9.54,-9.541c0,-5.269 4.27,-9.541 9.54,-9.541Z" style="fill:#3e3e3e;"/><path id="Camera2" d="M2383.5,2975.63c7.73,0 14,6.268 14,14c0,7.732 -6.27,14 -14,14c-7.73,0 -14,-6.268 -14,-14c0,-7.732 6.27,-14 14,-14Z" style="fill:#3e3e3e;"/></g></g></g><path id="iPhone 5s" d="M1247.86,2641.6c-2.16,0 -3.888,1.728 -3.888,3.888c0,2.16 1.728,3.888 3.888,3.888c2.16,0 3.888,-1.728 3.888,-3.888c0,-2.16 -1.728,-3.888 -3.888,-3.888ZM1245.41,2732.18l4.896,0l0,-68.256l-4.896,0l0,68.256Z" style="fill:#fff;fill-rule:nonzero;"/><path d="M1275.07,2732.18l4.896,0l0,-43.632c2.592,0.288 5.616,0.432 8.208,0.432c19.44,0 37.152,-10.8 37.152,-30.24c0,-15.12 -10.656,-27.072 -34.704,-27.072c-4.752,0 -9.936,0.432 -15.552,1.728l0,98.784ZM1279.97,2637.28c4.176,-0.72 7.776,-1.008 10.944,-1.008c20.736,0 28.944,9.36 28.944,23.184c0,14.544 -13.104,25.056 -33.408,25.056c-1.728,0 -4.608,-0.288 -6.48,-0.576l0,-46.656Z" style="fill:#fff;fill-rule:nonzero;"/><path d="M1345.2,2626.34l-4.896,0l0,105.84l4.896,0l0,-40.608c0,-11.088 8.496,-24.48 20.592,-24.48c11.376,0 17.856,8.064 17.856,21.024l0,44.064l4.896,0l0,-46.08c0,-13.248 -7.632,-23.616 -22.176,-23.616c-9.792,0 -18.288,6.912 -21.168,15.84l0,-51.984Z" style="fill:#fff;fill-rule:nonzero;"/><path d="M1435.63,2662.48c-18,0 -28.368,15.552 -28.368,35.568c0,19.872 10.368,35.568 28.368,35.568c18,0 28.368,-15.696 28.368,-35.568c0,-20.016 -10.368,-35.568 -28.368,-35.568ZM1435.63,2666.95c12.816,0 23.184,10.944 23.184,31.104c0,20.16 -10.368,31.104 -23.184,31.104c-12.816,0 -23.184,-10.944 -23.184,-31.104c0,-20.16 10.368,-31.104 23.184,-31.104Z" style="fill:#fff;fill-rule:nonzero;"/><path d="M1487.47,2663.92l-4.176,0l0,68.256l4.896,0l0,-40.608c0,-11.088 8.496,-24.48 20.592,-24.48c11.376,0 17.856,8.064 17.856,21.024l0,44.064l4.896,0l0,-46.08c0,-13.248 -7.632,-23.616 -22.176,-23.616c-9.936,0 -18.432,7.056 -21.168,16.128l-0.72,-14.688Z" style="fill:#fff;fill-rule:nonzero;"/><path d="M1596.05,2724.4c-5.472,3.168 -11.664,4.752 -17.568,4.752c-14.832,0 -23.328,-10.368 -23.328,-30.096l44.784,0c0.288,-1.728 0.432,-4.032 0.432,-5.76c0,-15.408 -6.912,-30.816 -23.76,-30.816c-14.688,0 -26.64,14.688 -26.64,37.152c0,22.176 11.376,33.984 26.496,33.984c8.208,0 14.976,-1.584 19.872,-4.608l-0.288,-4.608ZM1555.3,2694.74c1.008,-16.992 10.224,-27.648 21.168,-27.648c11.376,0 19.008,8.928 19.008,27.648l-40.176,0Z" style="fill:#fff;fill-rule:nonzero;"/><path d="M1696.27,2642.04l0,-4.608l-39.312,0l-2.592,44.64l8.496,0c19.872,0 29.952,8.352 29.952,24.768c0,12.816 -12.096,22.176 -24.048,22.176c-6.624,0 -12.24,-1.296 -18.576,-5.904l-0.576,5.184c5.76,4.032 10.8,5.328 18.576,5.328c16.56,0 29.808,-12.528 29.808,-27.936c0,-18.144 -12.672,-28.224 -33.984,-28.224l-4.752,0l2.016,-35.424l34.992,0Z" style="fill:#fff;fill-rule:nonzero;"/><path d="M1712.83,2729.88c3.744,2.304 9.792,3.744 15.84,3.744c12.24,0 22.176,-7.488 22.176,-19.296c0,-8.496 -5.904,-13.68 -15.984,-17.856c-9.36,-3.888 -14.4,-7.056 -14.4,-15.696c0,-7.92 6.768,-13.824 14.688,-13.824c5.184,0 10.08,1.584 13.824,4.176l0.432,-5.04c-3.168,-2.16 -8.208,-3.6 -13.68,-3.6c-11.232,0 -20.304,7.2 -20.304,19.008c0,10.368 6.624,14.976 15.552,18.72c10.08,4.176 14.688,7.776 14.688,15.12c0,7.92 -7.488,13.824 -16.848,13.824c-5.04,0 -10.368,-1.296 -15.552,-4.176l-0.432,4.896Z" style="fill:#fff;fill-rule:nonzero;"/></g><g id="iPhone 5C"><g id="iPhone 5C1"><g id="Frame6"><g id="Button3"><path id="Power Button3" d="M6046.5,2895.99l0,9l122,0l0,-9l-3.991,-3l-114,0l-4.009,3Z" style="fill:#86cd6c;"/><path id="Volume Down Button3" d="M5536.5,3404.99l-3,3l0,50l3,3l9,0l0,-56l-9,0Z" style="fill:#86cd6c;"/><path id="Volume Up Button3" d="M5536.5,3271.99l-3,3l0,50l3,3l9,0l0,-56l-9,0Z" style="fill:#86cd6c;"/><path id="Mute Switch3" d="M5536.5,3120.99l-3,3l0,67l3,3l9,0l0,-73l-9,0Z" style="fill:#86cd6c;"/></g><path id="Frame7" d="M5542.5,3014c0,-29.92 11.67,-58.05 32.85,-79.21c21.18,-21.15 49.33,-32.8 79.28,-32.8l529.74,0c29.95,0 58.1,11.65 79.28,32.8c21.19,21.16 32.85,49.29 32.85,79.21l0,1368.98c0,29.922 -11.66,58.054 -32.85,79.211c-21.18,21.153 -49.33,32.803 -79.28,32.803l-529.74,0c-29.95,0 -58.1,-11.65 -79.28,-32.803c-21.18,-21.157 -32.85,-49.289 -32.85,-79.211l0,-1368.98Z" style="fill:#86cd6c;"/></g><g id="Body3"><path id="Front3" d="M5654.63,2910.98l529.74,0c56.87,0 103.13,46.212 103.13,103.015l0,1367.97c0,56.8 -46.26,103.01 -103.13,103.01l-529.74,0c-56.86,0 -103.13,-46.21 -103.13,-103.01l0,-1367.97c0,-56.803 46.27,-103.015 103.13,-103.015Z" style="fill:#141414;"/><g id="Home Button3"><path id="Home Button Circle" d="M5919.06,4310.55c37.53,0 68,30.47 68,68c0,37.53 -30.47,68 -68,68c-37.53,0 -68,-30.47 -68,-68c0,-37.53 30.47,-68 68,-68ZM5919.06,4315.62c34.731,0 62.929,28.198 62.929,62.929c0,34.731 -28.198,62.929 -62.929,62.929c-34.731,0 -62.929,-28.198 -62.929,-62.929c0,-34.731 28.198,-62.929 62.929,-62.929Z" style="fill:#1d1d1d;"/><path id="Rounded Rectangle Symbol" d="M5902.87,4403.05c-0.319,-0.002 -0.637,-0.018 -0.955,-0.054c-0.615,-0.071 -1.223,-0.211 -1.807,-0.417c-1.138,-0.401 -2.183,-1.053 -3.046,-1.896c-0.887,-0.865 -1.577,-1.927 -2.003,-3.091c-0.213,-0.581 -0.36,-1.186 -0.438,-1.799c-0.04,-0.316 -0.06,-0.633 -0.066,-0.951c-0.069,-10.861 -0.069,-21.723 0,-32.584c0.006,-0.318 0.026,-0.635 0.066,-0.951c0.078,-0.614 0.225,-1.218 0.438,-1.799c0.426,-1.164 1.116,-2.226 2.003,-3.091c0.863,-0.843 1.908,-1.495 3.046,-1.897c0.584,-0.206 1.192,-0.345 1.807,-0.416c0.282,-0.032 0.564,-0.048 0.847,-0.053c10.861,-0.069 21.723,-0.069 32.584,0c0.318,0.006 0.635,0.026 0.951,0.066c0.613,0.078 1.218,0.225 1.799,0.438c1.164,0.426 2.226,1.116 3.091,2.003c0.843,0.863 1.495,1.908 1.896,3.046c0.206,0.584 0.346,1.192 0.417,1.807c0.032,0.282 0.048,0.564 0.053,0.847c0.069,10.861 0.069,21.723 0,32.584c-0.006,0.318 -0.026,0.635 -0.066,0.951c-0.078,0.613 -0.225,1.218 -0.438,1.799c-0.426,1.164 -1.116,2.226 -2.003,3.091c-0.863,0.843 -1.908,1.495 -3.046,1.896c-0.584,0.206 -1.192,0.346 -1.808,0.417c-0.281,0.032 -0.563,0.048 -0.846,0.053c-10.825,0.069 -21.651,0.001 -32.476,0.001ZM5902.89,4397.55c10.821,0 21.646,0.339 32.461,-0.002c0.084,-0.004 0.168,-0.011 0.252,-0.021c0.285,-0.038 0.561,-0.116 0.822,-0.238c0.67,-0.313 1.206,-0.895 1.461,-1.589c0.109,-0.298 0.163,-0.611 0.169,-0.928c0.069,-10.839 0.344,-21.684 -0.002,-32.518c-0.013,-0.292 -0.067,-0.579 -0.167,-0.854c-0.284,-0.773 -0.912,-1.398 -1.685,-1.682c-0.295,-0.109 -0.607,-0.162 -0.921,-0.168c-10.84,-0.061 -21.687,-0.355 -32.521,0.002c-0.29,0.013 -0.578,0.066 -0.85,0.166c-0.762,0.28 -1.384,0.891 -1.673,1.65c-0.117,0.308 -0.174,0.632 -0.181,0.96c-0.065,10.84 -0.34,21.685 0.002,32.519c0.014,0.314 0.076,0.624 0.191,0.916c0.272,0.69 0.822,1.257 1.501,1.555c0.274,0.12 0.566,0.192 0.864,0.22c0.092,0.008 0.184,0.011 0.277,0.012Z" style="fill:#d5d2cf;fill-rule:nonzero;"/></g><g id="Screen6"><path id="Screen Frame3" d="M5598.5,4273.99c-0.824,-0.131 -1.679,-0.134 -2.472,-0.392c-1.607,-0.522 -3.007,-1.539 -4,-2.906c-0.491,-0.675 -0.879,-1.436 -1.136,-2.23c-0.258,-0.793 -0.261,-1.648 -0.392,-2.472l0,-1136c0.131,-0.824 0.134,-1.679 0.392,-2.472c0.522,-1.607 1.539,-3.007 2.906,-4c0.675,-0.491 1.436,-0.879 2.23,-1.136c0.793,-0.258 1.648,-0.261 2.472,-0.392l640,0c0.824,0.131 1.679,0.134 2.472,0.392c1.607,0.522 3.007,1.539 4,2.906c0.491,0.675 0.879,1.436 1.136,2.23c0.258,0.793 0.261,1.648 0.392,2.472l0,1136c-0.131,0.824 -0.134,1.679 -0.392,2.472c-0.522,1.607 -1.539,3.007 -2.906,4c-0.675,0.491 -1.436,0.879 -2.23,1.136c-0.793,0.258 -1.648,0.261 -2.472,0.392c-213.333,0 -426.667,0 -640,0Z" style="fill:#141414;"/><rect id="Screen7" x="5598.5" y="3129.99" width="640" height="1136" style="fill:#141414;"/></g><g id="Top Sensors3"><path id="Speaker3" d="M5862.5,3030.99l110,0c4.41,0 8,3.589 8,8c0,4.411 -3.59,8 -8,8l-110,0c-4.41,0 -8,-3.589 -8,-8c0,-4.411 3.59,-8 8,-8Z" style="fill:#1d1d1d;"/><path id="Camera3" d="M5918.5,2965.62c7.73,0 14,6.268 14,14c0,7.732 -6.27,14 -14,14c-7.73,0 -14,-6.268 -14,-14c0,-7.732 6.27,-14 14,-14Z" style="fill:#1d1d1d;"/></g></g></g><path id="iPhone 5c" d="M5662.86,2636.6c-2.16,0 -3.888,1.728 -3.888,3.888c0,2.16 1.728,3.888 3.888,3.888c2.16,0 3.888,-1.728 3.888,-3.888c0,-2.16 -1.728,-3.888 -3.888,-3.888ZM5660.41,2727.18l4.896,0l0,-68.256l-4.896,0l0,68.256Z" style="fill:#fff;fill-rule:nonzero;"/><path d="M5690.07,2727.18l4.896,0l0,-43.632c2.592,0.288 5.616,0.432 8.208,0.432c19.44,0 37.152,-10.8 37.152,-30.24c0,-15.12 -10.656,-27.072 -34.704,-27.072c-4.752,0 -9.936,0.432 -15.552,1.728l0,98.784ZM5694.97,2632.28c4.176,-0.72 7.776,-1.008 10.944,-1.008c20.736,0 28.944,9.36 28.944,23.184c0,14.544 -13.104,25.056 -33.408,25.056c-1.728,0 -4.608,-0.288 -6.48,-0.576l0,-46.656Z" style="fill:#fff;fill-rule:nonzero;"/><path d="M5760.2,2621.34l-4.896,0l0,105.84l4.896,0l0,-40.608c0,-11.088 8.496,-24.48 20.592,-24.48c11.376,0 17.856,8.064 17.856,21.024l0,44.064l4.896,0l0,-46.08c0,-13.248 -7.632,-23.616 -22.176,-23.616c-9.792,0 -18.288,6.912 -21.168,15.84l0,-51.984Z" style="fill:#fff;fill-rule:nonzero;"/><path d="M5850.63,2657.48c-18,0 -28.368,15.552 -28.368,35.568c0,19.872 10.368,35.568 28.368,35.568c18,0 28.368,-15.696 28.368,-35.568c0,-20.016 -10.368,-35.568 -28.368,-35.568ZM5850.63,2661.95c12.816,0 23.184,10.944 23.184,31.104c0,20.16 -10.368,31.104 -23.184,31.104c-12.816,0 -23.184,-10.944 -23.184,-31.104c0,-20.16 10.368,-31.104 23.184,-31.104Z" style="fill:#fff;fill-rule:nonzero;"/><path d="M5902.47,2658.92l-4.176,0l0,68.256l4.896,0l0,-40.608c0,-11.088 8.496,-24.48 20.592,-24.48c11.376,0 17.856,8.064 17.856,21.024l0,44.064l4.896,0l0,-46.08c0,-13.248 -7.632,-23.616 -22.176,-23.616c-9.936,0 -18.432,7.056 -21.168,16.128l-0.72,-14.688Z" style="fill:#fff;fill-rule:nonzero;"/><path d="M6011.05,2719.4c-5.472,3.168 -11.664,4.752 -17.568,4.752c-14.832,0 -23.328,-10.368 -23.328,-30.096l44.784,0c0.288,-1.728 0.432,-4.032 0.432,-5.76c0,-15.408 -6.912,-30.816 -23.76,-30.816c-14.688,0 -26.64,14.688 -26.64,37.152c0,22.176 11.376,33.984 26.496,33.984c8.208,0 14.976,-1.584 19.872,-4.608l-0.288,-4.608ZM5970.3,2689.74c1.008,-16.992 10.224,-27.648 21.168,-27.648c11.376,0 19.008,8.928 19.008,27.648l-40.176,0Z" style="fill:#fff;fill-rule:nonzero;"/><path d="M6111.27,2637.04l0,-4.608l-39.312,0l-2.592,44.64l8.496,0c19.872,0 29.952,8.352 29.952,24.768c0,12.816 -12.096,22.176 -24.048,22.176c-6.624,0 -12.24,-1.296 -18.576,-5.904l-0.576,5.184c5.76,4.032 10.8,5.328 18.576,5.328c16.56,0 29.808,-12.528 29.808,-27.936c0,-18.144 -12.672,-28.224 -33.984,-28.224l-4.752,0l2.016,-35.424l34.992,0Z" style="fill:#fff;fill-rule:nonzero;"/><path d="M6176.36,2720.84c-3.888,1.872 -9.504,3.312 -14.4,3.312c-14.544,0 -26.784,-8.64 -26.784,-31.392c0,-20.88 13.104,-30.816 27.216,-30.816c5.904,0 9.936,1.296 14.256,3.456l0.576,-4.752c-3.888,-1.872 -8.064,-3.168 -15.264,-3.168c-17.424,0 -31.968,11.952 -31.968,36.144c0,24.192 14.544,34.992 29.952,34.992c7.056,0 11.952,-0.864 16.704,-3.168l-0.288,-4.608Z" style="fill:#fff;fill-rule:nonzero;"/></g><g id="iPhone 5"><g id="iPhone 5 Black"><g id="Frame8"><g id="Button4"><path id="Power Button4" d="M3854.5,2901l0,9l122,0l0,-9l-3.991,-3l-114,0l-4.009,3Z" style="fill:#343438;"/><path id="Volume Down Button4" d="M3344.5,3410l-3,3l0,50l3,3l9,0l0,-56l-9,0Z" style="fill:#343438;"/><path id="Volume Up Button4" d="M3344.5,3277l-3,3l0,50l3,3l9,0l0,-56l-9,0Z" style="fill:#343438;"/><path id="Mute Switch4" d="M3344.5,3126l-3,3l0,67l3,3l9,0l0,-73l-9,0Z" style="fill:#343438;"/></g><path id="Frame9" d="M3350.5,3019.01c0,-29.92 11.67,-58.05 32.85,-79.21c21.18,-21.15 49.33,-32.8 79.28,-32.8l529.74,0c29.95,0 58.1,11.65 79.28,32.8c21.19,21.16 32.85,49.29 32.85,79.21l0,1368.98c0,29.922 -11.66,58.054 -32.85,79.211c-21.18,21.153 -49.33,32.803 -79.28,32.803l-529.74,0c-29.95,0 -58.1,-11.65 -79.28,-32.803c-21.18,-21.157 -32.85,-49.289 -32.85,-79.211l0,-1368.98Z" style="fill:#343438;"/></g><g id="Body4"><path id="Front4" d="M3462.63,2915.99l529.74,0c56.87,0 103.13,46.212 103.13,103.015l0,1367.97c0,56.8 -46.26,103.01 -103.13,103.01l-529.74,0c-56.86,0 -103.13,-46.21 -103.13,-103.01l0,-1367.97c0,-56.803 46.27,-103.015 103.13,-103.015Z" style="fill:#141414;"/><g id="Home Button4"><path id="Home Button Circle1" d="M3727.06,4315.56c37.53,0 68,30.47 68,68c0,37.53 -30.47,68 -68,68c-37.53,0 -68,-30.47 -68,-68c0,-37.53 30.47,-68 68,-68ZM3727.06,4320.63c34.731,0 62.929,28.198 62.929,62.929c0,34.731 -28.198,62.929 -62.929,62.929c-34.731,0 -62.929,-28.198 -62.929,-62.929c0,-34.731 28.198,-62.929 62.929,-62.929Z" style="fill:#1d1d1d;"/><path id="Rounded Rectangle Symbol1" d="M3710.87,4408.06c-0.319,-0.002 -0.637,-0.018 -0.955,-0.054c-0.615,-0.071 -1.223,-0.211 -1.807,-0.417c-1.138,-0.401 -2.183,-1.053 -3.046,-1.896c-0.887,-0.865 -1.577,-1.927 -2.003,-3.091c-0.213,-0.581 -0.36,-1.186 -0.438,-1.799c-0.04,-0.316 -0.06,-0.633 -0.066,-0.951c-0.069,-10.861 -0.069,-21.723 0,-32.584c0.006,-0.318 0.026,-0.635 0.066,-0.951c0.078,-0.614 0.225,-1.218 0.438,-1.799c0.426,-1.164 1.116,-2.226 2.003,-3.091c0.863,-0.843 1.908,-1.495 3.046,-1.897c0.584,-0.206 1.192,-0.345 1.807,-0.416c0.282,-0.032 0.564,-0.048 0.847,-0.053c10.861,-0.069 21.723,-0.069 32.584,0c0.318,0.006 0.635,0.026 0.951,0.066c0.613,0.078 1.218,0.225 1.799,0.438c1.164,0.426 2.226,1.116 3.091,2.003c0.843,0.863 1.495,1.908 1.896,3.046c0.206,0.584 0.346,1.192 0.417,1.807c0.032,0.282 0.048,0.564 0.053,0.847c0.069,10.861 0.069,21.723 0,32.584c-0.006,0.318 -0.026,0.635 -0.066,0.951c-0.078,0.613 -0.225,1.218 -0.438,1.799c-0.426,1.164 -1.116,2.226 -2.003,3.091c-0.863,0.843 -1.908,1.495 -3.046,1.896c-0.584,0.206 -1.192,0.346 -1.808,0.417c-0.281,0.032 -0.563,0.048 -0.846,0.053c-10.825,0.069 -21.651,0.001 -32.476,0.001ZM3710.89,4402.56c10.821,0 21.646,0.339 32.461,-0.002c0.084,-0.004 0.168,-0.011 0.252,-0.021c0.285,-0.038 0.561,-0.116 0.822,-0.238c0.67,-0.313 1.206,-0.895 1.461,-1.589c0.109,-0.298 0.163,-0.611 0.169,-0.928c0.069,-10.839 0.344,-21.684 -0.002,-32.518c-0.013,-0.292 -0.067,-0.579 -0.167,-0.854c-0.284,-0.773 -0.912,-1.398 -1.685,-1.682c-0.295,-0.109 -0.607,-0.162 -0.921,-0.168c-10.84,-0.061 -21.687,-0.355 -32.521,0.002c-0.29,0.013 -0.578,0.066 -0.85,0.166c-0.762,0.28 -1.384,0.891 -1.673,1.65c-0.117,0.308 -0.174,0.632 -0.181,0.96c-0.065,10.84 -0.34,21.685 0.002,32.519c0.014,0.314 0.076,0.624 0.191,0.916c0.272,0.69 0.822,1.257 1.501,1.555c0.274,0.12 0.566,0.192 0.864,0.22c0.092,0.008 0.184,0.011 0.277,0.012Z" style="fill:#d5d2cf;fill-rule:nonzero;"/></g><g id="Screen8"><path id="Screen Frame4" d="M3406.5,4279c-0.824,-0.131 -1.679,-0.134 -2.472,-0.392c-1.607,-0.522 -3.007,-1.539 -4,-2.906c-0.491,-0.675 -0.879,-1.436 -1.136,-2.23c-0.258,-0.793 -0.261,-1.648 -0.392,-2.472l0,-1136c0.131,-0.824 0.134,-1.679 0.392,-2.472c0.522,-1.607 1.539,-3.007 2.906,-4c0.675,-0.491 1.436,-0.879 2.23,-1.136c0.793,-0.258 1.648,-0.261 2.472,-0.392l640,0c0.824,0.131 1.679,0.134 2.472,0.392c1.607,0.522 3.007,1.539 4,2.906c0.491,0.675 0.879,1.436 1.136,2.23c0.258,0.793 0.261,1.648 0.392,2.472l0,1136c-0.131,0.824 -0.134,1.679 -0.392,2.472c-0.522,1.607 -1.539,3.007 -2.906,4c-0.675,0.491 -1.436,0.879 -2.23,1.136c-0.793,0.258 -1.648,0.261 -2.472,0.392c-213.333,0 -426.667,0 -640,0Z" style="fill:#141414;"/><rect id="Screen9" x="3406.5" y="3135" width="640" height="1136" style="fill:#141414;"/></g><g id="Top Sensors4"><path id="Speaker4" d="M3670.5,3036l110,0c4.41,0 8,3.589 8,8c0,4.411 -3.59,8 -8,8l-110,0c-4.41,0 -8,-3.589 -8,-8c0,-4.411 3.59,-8 8,-8Z" style="fill:#1d1d1d;"/><path id="Camera4" d="M3726.5,2970.63c7.73,0 14,6.268 14,14c0,7.732 -6.27,14 -14,14c-7.73,0 -14,-6.268 -14,-14c0,-7.732 6.27,-14 14,-14Z" style="fill:#1d1d1d;"/></g></g></g><g id="iPhone 5 White"><g id="Frame10"><g id="Button5"><path id="Power Button5" d="M4700.5,2901l0,9l122,0l0,-9l-3.991,-3l-114,0l-4.009,3Z" style="fill:#d5d2cf;"/><path id="Volume Down Button5" d="M4190.5,3410l-3,3l0,50l3,3l9,0l0,-56l-9,0Z" style="fill:#d5d2cf;"/><path id="Volume Up Button5" d="M4190.5,3277l-3,3l0,50l3,3l9,0l0,-56l-9,0Z" style="fill:#d5d2cf;"/><path id="Mute Switch5" d="M4190.5,3126l-3,3l0,67l3,3l9,0l0,-73l-9,0Z" style="fill:#d5d2cf;"/></g><path id="Frame11" d="M4196.5,3019.01c0,-29.92 11.67,-58.05 32.85,-79.21c21.18,-21.15 49.33,-32.8 79.28,-32.8l529.74,0c29.95,0 58.1,11.65 79.28,32.8c21.19,21.16 32.85,49.29 32.85,79.21l0,1368.98c0,29.922 -11.66,58.054 -32.85,79.211c-21.18,21.153 -49.33,32.803 -79.28,32.803l-529.74,0c-29.95,0 -58.1,-11.65 -79.28,-32.803c-21.18,-21.157 -32.85,-49.289 -32.85,-79.211l0,-1368.98Z" style="fill:#d5d2cf;"/></g><g id="Body5"><path id="Front5" d="M4308.63,2915.99l529.74,0c56.87,0 103.13,46.212 103.13,103.015l0,1367.97c0,56.8 -46.26,103.01 -103.13,103.01l-529.74,0c-56.86,0 -103.13,-46.21 -103.13,-103.01l0,-1367.97c0,-56.803 46.27,-103.015 103.13,-103.015Z" style="fill:#f7f7f7;"/><g id="Home Button5"><path id="Home Button Circle2" d="M4573.06,4315.56c37.53,0 68,30.47 68,68c0,37.53 -30.47,68 -68,68c-37.53,0 -68,-30.47 -68,-68c0,-37.53 30.47,-68 68,-68ZM4573.06,4320.63c34.731,0 62.929,28.198 62.929,62.929c0,34.731 -28.198,62.929 -62.929,62.929c-34.731,0 -62.929,-28.198 -62.929,-62.929c0,-34.731 28.198,-62.929 62.929,-62.929Z" style="fill:#d5d2cf;"/><path id="Rounded Rectangle Symbol2" d="M4556.87,4408.06c-0.319,-0.002 -0.637,-0.018 -0.955,-0.054c-0.615,-0.071 -1.223,-0.211 -1.807,-0.417c-1.138,-0.401 -2.183,-1.053 -3.046,-1.896c-0.887,-0.865 -1.577,-1.927 -2.003,-3.091c-0.213,-0.581 -0.36,-1.186 -0.438,-1.799c-0.04,-0.316 -0.06,-0.633 -0.066,-0.951c-0.069,-10.861 -0.069,-21.723 0,-32.584c0.006,-0.318 0.026,-0.635 0.066,-0.951c0.078,-0.614 0.225,-1.218 0.438,-1.799c0.426,-1.164 1.116,-2.226 2.003,-3.091c0.863,-0.843 1.908,-1.495 3.046,-1.897c0.584,-0.206 1.192,-0.345 1.807,-0.416c0.282,-0.032 0.564,-0.048 0.847,-0.053c10.861,-0.069 21.723,-0.069 32.584,0c0.318,0.006 0.635,0.026 0.951,0.066c0.613,0.078 1.218,0.225 1.799,0.438c1.164,0.426 2.226,1.116 3.091,2.003c0.843,0.863 1.495,1.908 1.896,3.046c0.206,0.584 0.346,1.192 0.417,1.807c0.032,0.282 0.048,0.564 0.053,0.847c0.069,10.861 0.069,21.723 0,32.584c-0.006,0.318 -0.026,0.635 -0.066,0.951c-0.078,0.613 -0.225,1.218 -0.438,1.799c-0.426,1.164 -1.116,2.226 -2.003,3.091c-0.863,0.843 -1.908,1.495 -3.046,1.896c-0.584,0.206 -1.192,0.346 -1.808,0.417c-0.281,0.032 -0.563,0.048 -0.846,0.053c-10.825,0.069 -21.651,0.001 -32.476,0.001ZM4556.89,4402.56c10.821,0 21.646,0.339 32.461,-0.002c0.084,-0.004 0.168,-0.011 0.252,-0.021c0.285,-0.038 0.561,-0.116 0.822,-0.238c0.67,-0.313 1.206,-0.895 1.461,-1.589c0.109,-0.298 0.163,-0.611 0.169,-0.928c0.069,-10.839 0.344,-21.684 -0.002,-32.518c-0.013,-0.292 -0.067,-0.579 -0.167,-0.854c-0.284,-0.773 -0.912,-1.398 -1.685,-1.682c-0.295,-0.109 -0.607,-0.162 -0.921,-0.168c-10.84,-0.061 -21.687,-0.355 -32.521,0.002c-0.29,0.013 -0.578,0.066 -0.85,0.166c-0.762,0.28 -1.384,0.891 -1.673,1.65c-0.117,0.308 -0.174,0.632 -0.181,0.96c-0.065,10.84 -0.34,21.685 0.002,32.519c0.014,0.314 0.076,0.624 0.191,0.916c0.272,0.69 0.822,1.257 1.501,1.555c0.274,0.12 0.566,0.192 0.864,0.22c0.092,0.008 0.184,0.011 0.277,0.012Z" style="fill:#d5d2cf;fill-rule:nonzero;"/></g><g id="Screen10"><path id="Screen Frame5" d="M4252.5,4279c-0.824,-0.131 -1.679,-0.134 -2.472,-0.392c-1.607,-0.522 -3.007,-1.539 -4,-2.906c-0.491,-0.675 -0.879,-1.436 -1.136,-2.23c-0.258,-0.793 -0.261,-1.648 -0.392,-2.472l0,-1136c0.131,-0.824 0.134,-1.679 0.392,-2.472c0.522,-1.607 1.539,-3.007 2.906,-4c0.675,-0.491 1.436,-0.879 2.23,-1.136c0.793,-0.258 1.648,-0.261 2.472,-0.392l640,0c0.824,0.131 1.679,0.134 2.472,0.392c1.607,0.522 3.007,1.539 4,2.906c0.491,0.675 0.879,1.436 1.136,2.23c0.258,0.793 0.261,1.648 0.392,2.472l0,1136c-0.131,0.824 -0.134,1.679 -0.392,2.472c-0.522,1.607 -1.539,3.007 -2.906,4c-0.675,0.491 -1.436,0.879 -2.23,1.136c-0.793,0.258 -1.648,0.261 -2.472,0.392c-213.333,0 -426.667,0 -640,0Z" style="fill:#3e3e3e;"/><rect id="Screen11" x="4252.5" y="3135" width="640" height="1136" style="fill:#000;"/><path d="M4252.5,4279l-2.472,-0.392l-2.23,-1.136l-1.77,-1.77l-1.136,-2.23l-0.392,-2.472l0,-1136l0.392,-2.472l1.136,-2.23l1.77,-1.77l2.23,-1.136l2.472,-0.392l640,0l2.472,0.392l2.23,1.136l1.77,1.77l1.136,2.23l0.392,2.472l0,1136l-0.392,2.472l-1.136,2.23l-1.77,1.77l-2.23,1.136l-2.472,0.392l-640,0ZM4252.5,4271l640,0l0,-1136l-640,0l0,1136Z" style="fill:#3e3e3e;"/></g><g id="Top Sensors5"><path id="Speaker5" d="M4516.5,3036l110,0c4.41,0 8,3.589 8,8c0,4.411 -3.59,8 -8,8l-110,0c-4.41,0 -8,-3.589 -8,-8c0,-4.411 3.59,-8 8,-8Z" style="fill:#3e3e3e;"/><path id="Light Sensor2" d="M4467.96,3034.96c5.27,0 9.54,4.272 9.54,9.541c0,5.269 -4.27,9.541 -9.54,9.541c-5.27,0 -9.54,-4.272 -9.54,-9.541c0,-5.269 4.27,-9.541 9.54,-9.541Z" style="fill:#3e3e3e;"/><path id="Camera5" d="M4572.5,2970.63c7.73,0 14,6.268 14,14c0,7.732 -6.27,14 -14,14c-7.73,0 -14,-6.268 -14,-14c0,-7.732 6.27,-14 14,-14Z" style="fill:#3e3e3e;"/></g></g></g><path id="iPhone 51" d="M3923.52,2641.6c-2.16,0 -3.888,1.728 -3.888,3.888c0,2.16 1.728,3.888 3.888,3.888c2.16,0 3.888,-1.728 3.888,-3.888c0,-2.16 -1.728,-3.888 -3.888,-3.888ZM3921.07,2732.18l4.896,0l0,-68.256l-4.896,0l0,68.256Z" style="fill:#fff;fill-rule:nonzero;"/><path d="M3950.74,2732.18l4.896,0l0,-43.632c2.592,0.288 5.616,0.432 8.208,0.432c19.44,0 37.152,-10.8 37.152,-30.24c0,-15.12 -10.656,-27.072 -34.704,-27.072c-4.752,0 -9.936,0.432 -15.552,1.728l0,98.784ZM3955.63,2637.28c4.176,-0.72 7.776,-1.008 10.944,-1.008c20.736,0 28.944,9.36 28.944,23.184c0,14.544 -13.104,25.056 -33.408,25.056c-1.728,0 -4.608,-0.288 -6.48,-0.576l0,-46.656Z" style="fill:#fff;fill-rule:nonzero;"/><path d="M4020.86,2626.34l-4.896,0l0,105.84l4.896,0l0,-40.608c0,-11.088 8.496,-24.48 20.592,-24.48c11.376,0 17.856,8.064 17.856,21.024l0,44.064l4.896,0l0,-46.08c0,-13.248 -7.632,-23.616 -22.176,-23.616c-9.792,0 -18.288,6.912 -21.168,15.84l0,-51.984Z" style="fill:#fff;fill-rule:nonzero;"/><path d="M4111.3,2662.48c-18,0 -28.368,15.552 -28.368,35.568c0,19.872 10.368,35.568 28.368,35.568c18,0 28.368,-15.696 28.368,-35.568c0,-20.016 -10.368,-35.568 -28.368,-35.568ZM4111.3,2666.95c12.816,0 23.184,10.944 23.184,31.104c0,20.16 -10.368,31.104 -23.184,31.104c-12.816,0 -23.184,-10.944 -23.184,-31.104c0,-20.16 10.368,-31.104 23.184,-31.104Z" style="fill:#fff;fill-rule:nonzero;"/><path d="M4163.14,2663.92l-4.176,0l0,68.256l4.896,0l0,-40.608c0,-11.088 8.496,-24.48 20.592,-24.48c11.376,0 17.856,8.064 17.856,21.024l0,44.064l4.896,0l0,-46.08c0,-13.248 -7.632,-23.616 -22.176,-23.616c-9.936,0 -18.432,7.056 -21.168,16.128l-0.72,-14.688Z" style="fill:#fff;fill-rule:nonzero;"/><path d="M4271.71,2724.4c-5.472,3.168 -11.664,4.752 -17.568,4.752c-14.832,0 -23.328,-10.368 -23.328,-30.096l44.784,0c0.288,-1.728 0.432,-4.032 0.432,-5.76c0,-15.408 -6.912,-30.816 -23.76,-30.816c-14.688,0 -26.64,14.688 -26.64,37.152c0,22.176 11.376,33.984 26.496,33.984c8.208,0 14.976,-1.584 19.872,-4.608l-0.288,-4.608ZM4230.96,2694.74c1.008,-16.992 10.224,-27.648 21.168,-27.648c11.376,0 19.008,8.928 19.008,27.648l-40.176,0Z" style="fill:#fff;fill-rule:nonzero;"/><path d="M4371.94,2642.04l0,-4.608l-39.312,0l-2.592,44.64l8.496,0c19.872,0 29.952,8.352 29.952,24.768c0,12.816 -12.096,22.176 -24.048,22.176c-6.624,0 -12.24,-1.296 -18.576,-5.904l-0.576,5.184c5.76,4.032 10.8,5.328 18.576,5.328c16.56,0 29.808,-12.528 29.808,-27.936c0,-18.144 -12.672,-28.224 -33.984,-28.224l-4.752,0l2.016,-35.424l34.992,0Z" style="fill:#fff;fill-rule:nonzero;"/></g><g id="iPhone 4s"><g id="iPhone 4S White"><g id="Frame12"><path id="Frame13" d="M3303,702.01c0,-29.92 11.67,-58.05 32.85,-79.21c21.18,-21.15 49.33,-32.8 79.28,-32.8l529.74,0c29.95,0 58.1,11.65 79.28,32.8c21.19,21.16 32.85,49.29 32.85,79.21l0,1250.98c0,29.922 -11.66,58.054 -32.85,79.211c-21.18,21.153 -49.33,32.803 -79.28,32.803l-529.74,0c-29.95,0 -58.1,-11.65 -79.28,-32.803c-21.18,-21.157 -32.85,-49.289 -32.85,-79.211l0,-1250.98Z" style="fill:#d5d2cf;"/><g id="Buttons"><path id="Top Button" d="M3807,584l0,7l122,0l0,-7l-3.991,-3l-114,0l-4.009,3Z" style="fill:#d5d2cf;"/><path id="Sound Down Button" d="M3297,1010l-3,3l0,50l3,3l7,0l0,-56l-7,0Z" style="fill:#d5d2cf;"/><path id="Sound Up Button" d="M3297,886l-3,3l0,50l3,3l7,0l0,-56l-7,0Z" style="fill:#d5d2cf;"/><path id="Sound Switch Button" d="M3297,749l-3,3l0,67l3,3l7,0l0,-73l-7,0Z" style="fill:#d5d2cf;"/></g></g><g id="Body6"><path id="Front6" d="M3415.13,598.994l529.74,0c56.87,0 103.13,46.212 103.13,103.015l0,1249.97c0,56.8 -46.26,103.01 -103.13,103.01l-529.74,0c-56.86,0 -103.13,-46.21 -103.13,-103.01l0,-1249.97c0,-56.803 46.27,-103.015 103.13,-103.015Z" style="fill:#f7f7f7;"/><g id="Home Button6"><path id="Home Button Circle3" d="M3680,1866.56c37.53,0 68,30.47 68,68c0,37.53 -30.47,68 -68,68c-37.53,0 -68,-30.47 -68,-68c0,-37.53 30.47,-68 68,-68ZM3680,1871.63c34.731,0 62.929,28.198 62.929,62.929c0,34.731 -28.198,62.929 -62.929,62.929c-34.731,0 -62.929,-28.198 -62.929,-62.929c0,-34.731 28.198,-62.929 62.929,-62.929Z" style="fill:#d5d2cf;"/><path id="Rounded Rectangle Symbol3" d="M3663.82,1959.06c-0.319,-0.002 -0.637,-0.018 -0.955,-0.054c-0.615,-0.071 -1.223,-0.211 -1.807,-0.417c-1.138,-0.401 -2.183,-1.053 -3.046,-1.896c-0.887,-0.865 -1.577,-1.927 -2.003,-3.091c-0.213,-0.581 -0.36,-1.186 -0.438,-1.799c-0.04,-0.316 -0.06,-0.633 -0.066,-0.951c-0.069,-10.861 -0.069,-21.723 0,-32.584c0.006,-0.318 0.026,-0.635 0.066,-0.951c0.078,-0.614 0.225,-1.218 0.438,-1.799c0.426,-1.164 1.116,-2.226 2.003,-3.091c0.863,-0.843 1.908,-1.495 3.046,-1.897c0.584,-0.206 1.192,-0.345 1.807,-0.416c0.282,-0.032 0.564,-0.048 0.847,-0.053c10.861,-0.069 21.723,-0.069 32.584,0c0.318,0.006 0.635,0.026 0.951,0.066c0.613,0.078 1.218,0.225 1.799,0.438c1.164,0.426 2.226,1.116 3.091,2.003c0.843,0.863 1.495,1.908 1.896,3.046c0.207,0.584 0.346,1.192 0.417,1.807c0.032,0.282 0.048,0.564 0.053,0.847c0.069,10.861 0.069,21.723 0,32.584c-0.006,0.318 -0.026,0.635 -0.066,0.951c-0.078,0.613 -0.225,1.218 -0.438,1.799c-0.426,1.164 -1.116,2.226 -2.003,3.091c-0.863,0.843 -1.908,1.495 -3.046,1.896c-0.584,0.206 -1.192,0.346 -1.807,0.417c-0.282,0.032 -0.564,0.048 -0.847,0.053c-10.825,0.069 -21.651,0.001 -32.476,0.001ZM3663.84,1953.56c10.821,0 21.646,0.339 32.461,-0.002c0.084,-0.004 0.168,-0.011 0.252,-0.021c0.285,-0.038 0.561,-0.116 0.822,-0.238c0.67,-0.313 1.206,-0.895 1.461,-1.589c0.109,-0.298 0.163,-0.611 0.169,-0.928c0.069,-10.839 0.344,-21.684 -0.002,-32.518c-0.013,-0.292 -0.067,-0.579 -0.167,-0.854c-0.284,-0.773 -0.912,-1.398 -1.685,-1.682c-0.295,-0.109 -0.607,-0.162 -0.921,-0.168c-10.84,-0.061 -21.687,-0.355 -32.521,0.002c-0.29,0.013 -0.578,0.066 -0.85,0.166c-0.762,0.28 -1.384,0.891 -1.673,1.65c-0.117,0.308 -0.174,0.632 -0.181,0.96c-0.065,10.84 -0.34,21.685 0.002,32.519c0.014,0.314 0.076,0.624 0.191,0.916c0.272,0.69 0.822,1.257 1.501,1.555c0.274,0.12 0.566,0.192 0.864,0.22c0.092,0.008 0.185,0.011 0.277,0.012Z" style="fill:#d5d2cf;fill-rule:nonzero;"/></g><g id="Screen12"><path id="Screen Panel" d="M3359,836c-0.824,0.131 -1.679,0.134 -2.472,0.392c-0.794,0.257 -1.555,0.645 -2.23,1.136c-1.367,0.993 -2.384,2.393 -2.906,4c-0.258,0.793 -0.261,1.648 -0.392,2.472l0,960c0.131,0.824 0.134,1.679 0.392,2.472c0.257,0.794 0.645,1.555 1.136,2.23c0.993,1.367 2.393,2.384 4,2.906c0.793,0.258 1.648,0.261 2.472,0.392l640,0c0.824,-0.131 1.679,-0.134 2.472,-0.392c1.607,-0.522 3.007,-1.539 4,-2.906c0.491,-0.675 0.879,-1.436 1.136,-2.23c0.258,-0.793 0.262,-1.648 0.392,-2.472l0,-960c-0.13,-0.824 -0.134,-1.679 -0.392,-2.472c-0.522,-1.607 -1.539,-3.007 -2.906,-4c-0.675,-0.491 -1.436,-0.879 -2.23,-1.136c-0.793,-0.258 -1.648,-0.261 -2.472,-0.392c-213.333,0 -426.667,0 -640,0Z" style="fill:#3e3e3e;"/><rect id="Screen - Off" x="3359" y="844" width="640" height="960" style="fill:#000;"/><path d="M3359,1812l-2.472,-0.392l-2.23,-1.136l-1.77,-1.77l-1.136,-2.23l-0.392,-2.472l0,-960l0.392,-2.472l1.136,-2.23l1.77,-1.77l2.23,-1.136l2.472,-0.392l640,0l2.472,0.392l2.23,1.136l1.77,1.77l1.136,2.23l0.392,2.472l0,960l-0.392,2.472l-1.136,2.23l-1.77,1.77l-2.23,1.136l-2.472,0.392l-640,0ZM3359,1804l640,0l0,-960l-640,0l0,960Z" style="fill:#3e3e3e;"/></g><g id="Top Sensors6"><path id="Speaker6" d="M3629,708l110,0c4.41,0 8,3.589 8,8c0,4.411 -3.59,8 -8,8l-110,0c-4.41,0 -8,-3.589 -8,-8c0,-4.411 3.59,-8 8,-8Z" style="fill:#3e3e3e;"/><path id="Light Sensor3" d="M3655,646l59,0c4.41,0 8,3.589 8,8c0,4.411 -3.59,8 -8,8l-59,0c-4.41,0 -8,-3.589 -8,-8c0,-4.411 3.59,-8 8,-8Z" style="fill:#3e3e3e;"/><path id="Camera6" d="M3536.46,698.016c9.655,0 17.479,7.827 17.479,17.481c0,9.654 -7.824,17.481 -17.479,17.481c-9.655,0 -17.479,-7.827 -17.479,-17.481c0,-9.654 7.824,-17.481 17.479,-17.481Z" style="fill:#3e3e3e;"/></g></g></g><g id="iPhone 4S Black"><g id="Frame14"><path id="Frame15" d="M2452,701.01c0,-29.92 11.67,-58.05 32.85,-79.21c21.18,-21.15 49.33,-32.8 79.28,-32.8l529.74,0c29.95,0 58.1,11.65 79.28,32.8c21.19,21.16 32.85,49.29 32.85,79.21l0,1250.98c0,29.922 -11.66,58.054 -32.85,79.211c-21.18,21.153 -49.33,32.803 -79.28,32.803l-529.74,0c-29.95,0 -58.1,-11.65 -79.28,-32.803c-21.18,-21.157 -32.85,-49.289 -32.85,-79.211l0,-1250.98Z" style="fill:#d5d2cf;"/><g id="Buttons1"><path id="Top Button1" d="M2956,583l0,7l122,0l0,-7l-3.991,-3l-114,0l-4.009,3Z" style="fill:#d5d2cf;"/><path id="Sound Down Button1" d="M2446,1009l-3,3l0,50l3,3l7,0l0,-56l-7,0Z" style="fill:#d5d2cf;"/><path id="Sound Up Button1" d="M2446,885l-3,3l0,50l3,3l7,0l0,-56l-7,0Z" style="fill:#d5d2cf;"/><path id="Sound Switch Button1" d="M2446,748l-3,3l0,67l3,3l7,0l0,-73l-7,0Z" style="fill:#d5d2cf;"/></g></g><g id="Body7"><path id="Front7" d="M2564.13,597.994l529.74,0c56.87,0 103.13,46.212 103.13,103.015l0,1249.97c0,56.8 -46.26,103.01 -103.13,103.01l-529.74,0c-56.86,0 -103.13,-46.21 -103.13,-103.01l0,-1249.97c0,-56.803 46.27,-103.015 103.13,-103.015Z" style="fill:#141414;"/><g id="Home Button7"><path id="Home Button Circle4" d="M2829,1865.56c37.53,0 68,30.47 68,68c0,37.53 -30.47,68 -68,68c-37.53,0 -68,-30.47 -68,-68c0,-37.53 30.47,-68 68,-68ZM2829,1870.63c34.731,0 62.929,28.198 62.929,62.929c0,34.731 -28.198,62.929 -62.929,62.929c-34.731,0 -62.929,-28.198 -62.929,-62.929c0,-34.731 28.198,-62.929 62.929,-62.929Z" style="fill:#1d1d1d;"/><path id="Rounded Rectangle Symbol4" d="M2812.82,1958.06c-0.319,-0.002 -0.637,-0.018 -0.955,-0.054c-0.615,-0.071 -1.223,-0.211 -1.807,-0.417c-1.138,-0.401 -2.183,-1.053 -3.046,-1.896c-0.887,-0.865 -1.577,-1.927 -2.003,-3.091c-0.213,-0.581 -0.36,-1.186 -0.438,-1.799c-0.04,-0.316 -0.06,-0.633 -0.066,-0.951c-0.069,-10.861 -0.069,-21.723 0,-32.584c0.006,-0.318 0.026,-0.635 0.066,-0.951c0.078,-0.614 0.225,-1.218 0.438,-1.799c0.426,-1.164 1.116,-2.226 2.003,-3.091c0.863,-0.843 1.908,-1.495 3.046,-1.897c0.584,-0.206 1.192,-0.345 1.807,-0.416c0.282,-0.032 0.564,-0.048 0.847,-0.053c10.861,-0.069 21.723,-0.069 32.584,0c0.318,0.006 0.635,0.026 0.951,0.066c0.613,0.078 1.218,0.225 1.799,0.438c1.164,0.426 2.226,1.116 3.091,2.003c0.843,0.863 1.495,1.908 1.896,3.046c0.207,0.584 0.346,1.192 0.417,1.807c0.032,0.282 0.048,0.564 0.053,0.847c0.069,10.861 0.069,21.723 0,32.584c-0.006,0.318 -0.026,0.635 -0.066,0.951c-0.078,0.613 -0.225,1.218 -0.438,1.799c-0.426,1.164 -1.116,2.226 -2.003,3.091c-0.863,0.843 -1.908,1.495 -3.046,1.896c-0.584,0.206 -1.192,0.346 -1.807,0.417c-0.282,0.032 -0.564,0.048 -0.847,0.053c-10.825,0.069 -21.651,0.001 -32.476,0.001ZM2812.84,1952.56c10.821,0 21.646,0.339 32.461,-0.002c0.084,-0.004 0.168,-0.011 0.252,-0.021c0.285,-0.038 0.561,-0.116 0.822,-0.238c0.67,-0.313 1.206,-0.895 1.461,-1.589c0.109,-0.298 0.163,-0.611 0.169,-0.928c0.069,-10.839 0.344,-21.684 -0.002,-32.518c-0.013,-0.292 -0.067,-0.579 -0.167,-0.854c-0.284,-0.773 -0.912,-1.398 -1.685,-1.682c-0.295,-0.109 -0.607,-0.162 -0.921,-0.168c-10.84,-0.061 -21.687,-0.355 -32.521,0.002c-0.29,0.013 -0.578,0.066 -0.85,0.166c-0.762,0.28 -1.384,0.891 -1.673,1.65c-0.117,0.308 -0.174,0.632 -0.181,0.96c-0.065,10.84 -0.34,21.685 0.002,32.519c0.014,0.314 0.076,0.624 0.191,0.916c0.272,0.69 0.822,1.257 1.501,1.555c0.274,0.12 0.566,0.192 0.864,0.22c0.092,0.008 0.185,0.011 0.277,0.012Z" style="fill:#d5d2cf;fill-rule:nonzero;"/></g><g id="Screen13"><path id="Screen Panel1" d="M2508,835c-0.824,0.131 -1.679,0.134 -2.472,0.392c-0.794,0.257 -1.555,0.645 -2.23,1.136c-1.367,0.993 -2.384,2.393 -2.906,4c-0.258,0.793 -0.261,1.648 -0.392,2.472l0,960c0.131,0.824 0.134,1.679 0.392,2.472c0.257,0.794 0.645,1.555 1.136,2.23c0.993,1.367 2.393,2.384 4,2.906c0.793,0.258 1.648,0.261 2.472,0.392l640,0c0.824,-0.131 1.679,-0.134 2.472,-0.392c1.607,-0.522 3.007,-1.539 4,-2.906c0.491,-0.675 0.879,-1.436 1.136,-2.23c0.258,-0.793 0.262,-1.648 0.392,-2.472l0,-960c-0.13,-0.824 -0.134,-1.679 -0.392,-2.472c-0.522,-1.607 -1.539,-3.007 -2.906,-4c-0.675,-0.491 -1.436,-0.879 -2.23,-1.136c-0.793,-0.258 -1.648,-0.261 -2.472,-0.392c-213.333,0 -426.667,0 -640,0Z" style="fill:#141414;"/><rect id="Screen - Off1" x="2508" y="843" width="640" height="960" style="fill:#141414;"/></g><g id="Top Sensors7"><path id="Speaker7" d="M2778,707l110,0c4.41,0 8,3.589 8,8c0,4.411 -3.59,8 -8,8l-110,0c-4.41,0 -8,-3.589 -8,-8c0,-4.411 3.59,-8 8,-8Z" style="fill:#1d1d1d;"/><path id="Camera7" d="M2685.46,697.016c9.655,0 17.479,7.827 17.479,17.481c0,9.654 -7.824,17.481 -17.479,17.481c-9.655,0 -17.479,-7.827 -17.479,-17.481c0,-9.654 7.824,-17.481 17.479,-17.481Z" style="fill:#1d1d1d;"/></g></g></g><path id="iPhone 4S" d="M2994.76,311.594c-2.16,0 -3.888,1.728 -3.888,3.888c0,2.16 1.728,3.888 3.888,3.888c2.16,0 3.888,-1.728 3.888,-3.888c0,-2.16 -1.728,-3.888 -3.888,-3.888ZM2992.31,402.17l4.896,0l0,-68.256l-4.896,0l0,68.256Z" style="fill:#fff;fill-rule:nonzero;"/><path d="M3021.98,402.17l4.896,0l0,-43.632c2.592,0.288 5.616,0.432 8.208,0.432c19.44,0 37.152,-10.8 37.152,-30.24c0,-15.12 -10.656,-27.072 -34.704,-27.072c-4.752,0 -9.936,0.432 -15.552,1.728l0,98.784ZM3026.87,307.274c4.176,-0.72 7.776,-1.008 10.944,-1.008c20.736,0 28.944,9.36 28.944,23.184c0,14.544 -13.104,25.056 -33.408,25.056c-1.728,0 -4.608,-0.288 -6.48,-0.576l0,-46.656Z" style="fill:#fff;fill-rule:nonzero;"/><path d="M3092.1,296.33l-4.896,0l0,105.84l4.896,0l0,-40.608c0,-11.088 8.496,-24.48 20.592,-24.48c11.376,0 17.856,8.064 17.856,21.024l0,44.064l4.896,0l0,-46.08c0,-13.248 -7.632,-23.616 -22.176,-23.616c-9.792,0 -18.288,6.912 -21.168,15.84l0,-51.984Z" style="fill:#fff;fill-rule:nonzero;"/><path d="M3182.54,332.474c-18,0 -28.368,15.552 -28.368,35.568c0,19.872 10.368,35.568 28.368,35.568c18,0 28.368,-15.696 28.368,-35.568c0,-20.016 -10.368,-35.568 -28.368,-35.568ZM3182.54,336.938c12.816,0 23.184,10.944 23.184,31.104c0,20.16 -10.368,31.104 -23.184,31.104c-12.816,0 -23.184,-10.944 -23.184,-31.104c0,-20.16 10.368,-31.104 23.184,-31.104Z" style="fill:#fff;fill-rule:nonzero;"/><path d="M3234.38,333.914l-4.176,0l0,68.256l4.896,0l0,-40.608c0,-11.088 8.496,-24.48 20.592,-24.48c11.376,0 17.856,8.064 17.856,21.024l0,44.064l4.896,0l0,-46.08c0,-13.248 -7.632,-23.616 -22.176,-23.616c-9.936,0 -18.432,7.056 -21.168,16.128l-0.72,-14.688Z" style="fill:#fff;fill-rule:nonzero;"/><path d="M3342.95,394.394c-5.472,3.168 -11.664,4.752 -17.568,4.752c-14.832,0 -23.328,-10.368 -23.328,-30.096l44.784,0c0.288,-1.728 0.432,-4.032 0.432,-5.76c0,-15.408 -6.912,-30.816 -23.76,-30.816c-14.688,0 -26.64,14.688 -26.64,37.152c0,22.176 11.376,33.984 26.496,33.984c8.208,0 14.976,-1.584 19.872,-4.608l-0.288,-4.608ZM3302.2,364.73c1.008,-16.992 10.224,-27.648 21.168,-27.648c11.376,0 19.008,8.928 19.008,27.648l-40.176,0Z" style="fill:#fff;fill-rule:nonzero;"/><path d="M3437.13,370.058l0,-63.216l-6.048,0l-36.576,64.368l0,3.456l37.728,0l0,27.36l4.896,0l0,-27.36l12.672,0l0,-4.608l-12.672,0ZM3400.7,370.058l32.112,-58.176c-0.576,11.52 -0.576,25.92 -0.576,33.12l0,25.056l-31.536,0Z" style="fill:#fff;fill-rule:nonzero;"/><path d="M3459.74,399.866c3.744,2.304 9.792,3.744 15.84,3.744c12.24,0 22.176,-7.488 22.176,-19.296c0,-8.496 -5.904,-13.68 -15.984,-17.856c-9.36,-3.888 -14.4,-7.056 -14.4,-15.696c0,-7.92 6.768,-13.824 14.688,-13.824c5.184,0 10.08,1.584 13.824,4.176l0.432,-5.04c-3.168,-2.16 -8.208,-3.6 -13.68,-3.6c-11.232,0 -20.304,7.2 -20.304,19.008c0,10.368 6.624,14.976 15.552,18.72c10.08,4.176 14.688,7.776 14.688,15.12c0,7.92 -7.488,13.824 -16.848,13.824c-5.04,0 -10.368,-1.296 -15.552,-4.176l-0.432,4.896Z" style="fill:#fff;fill-rule:nonzero;"/></g></svg>