<?xml version="1.0" standalone="no"?><!DOCTYPE svg PUBLIC "-//W3C//DTD SVG 1.1//EN" "http://www.w3.org/Graphics/SVG/1.1/DTD/svg11.dtd"><svg width="100%" height="100%" viewBox="0 0 6500 7200" version="1.1" xmlns="http://www.w3.org/2000/svg" xmlns:xlink="http://www.w3.org/1999/xlink" xml:space="preserve" style="fill-rule:evenodd;clip-rule:evenodd;stroke-linejoin:round;stroke-miterlimit:1.41421;"><rect id="bg" x="-237" y="-856" width="7157" height="10263" style="fill:#3498db;"/><g><g id="iPhone 6 / 6s"><g id="iPhone 6 Gold Pink"><g id="Frame"><path d="M5109.48,5752.68l0.504,1110.4c0,86.747 -49.31,144.495 -138.51,144.495c0.001,0 -234.268,0 -234.484,0c-3.802,0 -9.199,-3.021 -13,-3.021c-0.415,0 -83.584,0 -84,0c-3.801,0 -9.198,3.02 -13,3.021c-0.216,0.001 -182.763,0 -183,0c-7.466,0 -10.412,-4 -24.037,-4c-13.625,0 -21.002,4 -23.963,4c-0.098,0 -3.475,0 -3.475,0c-89.166,0 -138.469,-57.701 -138.509,-144.389c-0.335,-0.039 -0.505,-0.072 -0.505,-0.101l0,-945.93c0,-2.56 1.582,-6.81 2.019,-8.69c0.437,-1.87 1.207,-4.68 1.207,-7.06c0,-2.37 0,-270.09 0,-270.66c0,-1.37 -0.499,-6.79 -1.082,-7.75c-0.583,-0.95 -2.144,-7.2 -2.144,-8.45l0,-225.496c0,-86.747 49.307,-144.495 138.509,-144.495l578.96,0c89.2,0 138.51,57.748 138.51,144.495l0,227.176c0,0.57 -0.65,1.15 -1.02,1.77c-0.38,0.63 -1.19,2.09 -1.19,5.36l0,122.19c0,3.28 0.81,4.73 1.19,5.36c0.37,0.62 1.02,1.21 1.02,1.77Z" style="fill:#ceaea2;"/><g id="Button"><path id="Power Button" d="M5114.49,5747.54c0,0.59 -0.16,0.93 -0.48,1.41c-0.28,0.41 -0.46,0.48 -0.93,0.93c-0.48,0.45 -0.9,0.69 -1.93,0.69c-0.77,0 -3.01,0 -4.07,0c-0.32,-0.87 -0.61,-2.15 -0.61,-4.06l0,-122.61c0,-2.11 0.35,-3.46 0.71,-4.33c0.92,0 2.55,0 3.26,0c0.789,0 1.22,0.141 1.594,0.409c0.158,-0.361 0.337,-0.527 0.516,-0.359c0.02,0.03 0.05,0.05 0.07,0.07c0.41,0.45 1.03,1.13 1.35,1.48c0.31,0.34 0.5,0.91 0.5,1.49l0,0.263c0.013,0.101 0.02,0.204 0.02,0.307l0,124.31Z" style="fill:#ceaea2;"/><path id="Volume Down" d="M4258.48,5780.57l-5.633,0c-1.295,0 -3.367,1.07 -3.367,3.39l0,124.22c0,2.32 2.072,3.39 3.367,3.39l5.633,0l0,-131Z" style="fill:#ceaea2;"/><path id="Volume Up" d="M4258.48,5750.57l-5.633,0c-1.295,0 -3.367,-1.07 -3.367,-3.39l0,-124.22c0,-2.32 2.072,-3.39 3.367,-3.39l5.633,0l0,131Z" style="fill:#ceaea2;"/><path id="Mute Switch" d="M4255.5,5469.24l0,70c0,0 -2.901,0 -3.896,0c-0.996,0 -2.107,-0.796 -2.107,-2.137c0,-1.34 0,-64.554 0,-65.978c0,-1.424 1.264,-1.885 2.03,-1.885c0.766,0 3.973,0 3.973,0Z" style="fill:#ceaea2;"/></g></g><g id="Body"><path id="Front" d="M5025.47,5267.03c-15.94,-6.285 -34.28,-9.473 -54.51,-9.473l-578.94,0c-20.232,0 -38.572,3.188 -54.513,9.473c-15.123,5.964 -28.136,14.743 -38.677,26.093c-21.15,22.775 -32.329,55.946 -32.329,95.929l0,1475.03c0,39.99 11.179,73.16 32.329,95.93c10.541,11.36 23.554,20.13 38.677,26.1c15.941,6.28 34.281,9.47 54.513,9.47l578.94,0c20.23,0 38.57,-3.19 54.51,-9.47c15.13,-5.97 28.14,-14.74 38.68,-26.1c21.15,-22.77 32.33,-55.94 32.33,-95.93l0,-1475.03c0,-39.983 -11.18,-73.154 -32.33,-95.929c-10.54,-11.35 -23.55,-20.129 -38.68,-26.093Z" style="fill:#f7f7f7;"/><path id="Home Button" d="M4680.98,6833.07c33.08,0 60,26.92 60,60c0,33.08 -26.92,60 -60,60c-33.08,0 -60,-26.92 -60,-60c0,-33.08 26.92,-60 60,-60M4680.98,6826.57c-36.73,0 -66.5,29.77 -66.5,66.5c0,36.73 29.77,66.5 66.5,66.5c36.73,0 66.5,-29.77 66.5,-66.5c0,-36.73 -29.77,-66.5 -66.5,-66.5Z" style="fill:#ceaea2;"/><g id="Screen"><path id="Screen Panel" d="M4306.48,5455.57l-1.531,0.305l-1.297,0.867l-0.868,1.298l-0.304,1.53l0,1334l0.304,1.53l0.868,1.298l1.297,0.867l1.531,0.305l750,0l1.531,-0.305l1.297,-0.867l0.868,-1.298l0.304,-1.53l0,-1334l-0.304,-1.53c-0.862,-1.289 -0.877,-1.304 -2.165,-2.165l-1.531,-0.305c-250,0 -500,0 -750,0Z" style="fill:#3e3e3e;"/><rect id="Screen - off" x="4306.48" y="5459.57" width="750" height="1334" style="fill:#000;"/></g><g id="Top Sensors"><path id="Light Sensor" d="M4530.48,5356.07c0,8.008 6.49,14.5 14.5,14.5c8.01,0 14.5,-6.492 14.5,-14.5c0,-8.008 -6.49,-14.5 -14.5,-14.5c-8.01,0 -14.5,6.492 -14.5,14.5Z" style="fill:#3e3e3e;"/><path id="Camera" d="M4681.48,5292.57c4.97,0 9,4.029 9,9c0,4.97 -4.03,9 -9,9c-4.97,0 -9,-4.03 -9,-9c0,-4.971 4.03,-9 9,-9Z" style="fill:#3e3e3e;"/><path id="Speaker" d="M4612.48,5355.57c0,4.421 3.63,8.004 8.11,8.004l122.8,0c4.48,0 8.11,-3.583 8.11,-8.004c0,-4.421 -3.63,-8.004 -8.11,-8.004l-122.8,0c-4.48,0 -8.11,3.583 -8.11,8.004Z" style="fill:#3e3e3e;"/></g></g></g><g id="iPhone 6 Gold"><g id="Frame1"><path d="M4157.98,5753.18l0.505,1110.4c0,86.747 -49.31,144.495 -138.51,144.495c0,0 -234.268,0 -234.485,0c-3.802,0 -9.199,-3.021 -13,-3.021c-0.415,0 -83.583,0 -84,0c-3.8,0 -9.197,3.02 -13,3.021c-0.215,0.001 -182.763,0 -183,0c-7.465,0 -10.412,-4 -24.037,-4c-13.625,0 -21.001,4 -23.963,4c-0.098,0 -3.475,0 -3.475,0c-89.166,0 -138.469,-57.701 -138.509,-144.389c-0.335,-0.039 -0.505,-0.073 -0.505,-0.101l0,-945.93c0,-2.56 1.582,-6.81 2.019,-8.69c0.438,-1.87 1.207,-4.68 1.207,-7.06c0.001,-2.37 0.001,-270.09 0.001,-270.66c-0.001,-1.37 -0.499,-6.79 -1.083,-7.75c-0.582,-0.95 -2.144,-7.2 -2.144,-8.45l0,-225.496c0,-86.747 49.307,-144.495 138.509,-144.495l578.96,0c89.2,0 138.51,57.748 138.51,144.495l0,227.176c0,0.57 -0.65,1.15 -1.02,1.77c-0.38,0.63 -1.19,2.09 -1.19,5.36l0,122.19c0,3.28 0.81,4.73 1.19,5.36c0.37,0.62 1.02,1.21 1.02,1.77Z" style="fill:#c7b78c;"/><g id="Button1"><path id="Power Button1" d="M4163,5748.04c-0.001,0.59 -0.16,0.93 -0.481,1.41c-0.28,0.41 -0.46,0.48 -0.93,0.93c-0.48,0.45 -0.9,0.69 -1.93,0.69c-0.77,0 -3.01,0 -4.069,0c-0.32,-0.87 -0.61,-2.15 -0.61,-4.06l-0.001,-122.61c0.001,-2.11 0.351,-3.46 0.711,-4.33c0.919,0 2.55,0 3.26,0c0.788,0 1.219,0.141 1.593,0.409c0.159,-0.361 0.338,-0.527 0.516,-0.359c0.021,0.03 0.051,0.05 0.071,0.07c0.41,0.45 1.03,1.13 1.35,1.48c0.31,0.34 0.499,0.91 0.499,1.49l0.001,0.263c0.013,0.101 0.02,0.204 0.02,0.307l-0.001,124.31Z" style="fill:#c7b78c;"/><path id="Volume Down1" d="M3306.99,5781.07l-5.633,0c-1.296,0 -3.368,1.07 -3.368,3.39l0,124.22c0,2.32 2.072,3.39 3.367,3.39l5.633,0l0,-131Z" style="fill:#c7b78c;"/><path id="Volume Up1" d="M3306.99,5751.07l-5.633,0c-1.296,0 -3.368,-1.07 -3.368,-3.39l0,-124.22c0,-2.32 2.072,-3.39 3.367,-3.39l5.633,0l0,131Z" style="fill:#c7b78c;"/><path id="Mute Switch1" d="M3304,5469.74l-0.001,70c0.001,0 -2.9,0 -3.895,0c-0.996,0 -2.107,-0.796 -2.107,-2.137c0,-1.34 0,-64.554 0,-65.978c0,-1.424 1.264,-1.885 2.03,-1.885c0.765,0 3.972,0 3.972,0Z" style="fill:#c7b78c;"/></g></g><g id="Body1"><path id="Front1" d="M4073.97,5267.53c-15.941,-6.285 -34.281,-9.473 -54.51,-9.473l-578.941,0c-20.231,0 -38.571,3.188 -54.512,9.473c-15.123,5.964 -28.136,14.743 -38.677,26.093c-21.15,22.775 -32.329,55.946 -32.329,95.929l0,1475.03c0,39.99 11.179,73.16 32.329,95.93c10.541,11.36 23.554,20.13 38.677,26.1c15.941,6.28 34.281,9.47 54.513,9.47l578.94,0c20.23,0 38.57,-3.19 54.51,-9.47c15.13,-5.97 28.14,-14.74 38.68,-26.1c21.149,-22.77 32.329,-55.94 32.329,-95.93l0.001,-1475.03c-0.001,-39.983 -11.181,-73.154 -32.331,-95.929c-10.539,-11.35 -23.55,-20.129 -38.679,-26.093Z" style="fill:#f7f7f7;"/><path id="Home Button1" d="M3729.49,6833.57c33.079,0 59.999,26.92 59.999,60c0.001,33.08 -26.919,60 -59.999,60c-33.081,0 -60.001,-26.92 -60.001,-60c0.001,-33.08 26.921,-60 60.001,-60M3729.49,6827.07c-36.731,0 -66.501,29.77 -66.501,66.5c0.001,36.73 29.771,66.5 66.501,66.5c36.729,0 66.499,-29.77 66.499,-66.5c0.001,-36.73 -29.769,-66.5 -66.499,-66.5Z" style="fill:#c7b78c;"/><g id="Screen1"><path id="Screen Panel1" d="M3354.99,5456.07l-1.531,0.305l-1.298,0.867l-0.867,1.298l-0.305,1.53l0,1334l0.305,1.531l0.867,1.298l1.298,0.867l1.53,0.304l750,0l1.531,-0.304l1.298,-0.867l0.867,-1.298l0.305,-1.531l-0.001,-1334l-0.304,-1.53c-0.861,-1.289 -0.876,-1.304 -2.165,-2.165l-1.53,-0.305c-250.001,0 -500.001,0 -750.001,0Z" style="fill:#3e3e3e;"/><rect id="Screen - off1" x="3354.99" y="5460.07" width="750" height="1334" style="fill:#000;"/></g><g id="Top Sensors1"><path id="Light Sensor1" d="M3578.99,5356.57c-0.001,8.008 6.489,14.5 14.499,14.5c8.011,0 14.501,-6.492 14.501,-14.5c-0.001,-8.008 -6.49,-14.5 -14.501,-14.5c-8.01,0 -14.499,6.492 -14.499,14.5Z" style="fill:#3e3e3e;"/><path id="Camera1" d="M3729.99,5293.07c4.97,0 8.999,4.029 8.999,9c0.001,4.97 -4.029,9 -8.999,9c-4.971,0 -9.001,-4.03 -9.001,-9c0.001,-4.971 4.03,-9 9.001,-9Z" style="fill:#3e3e3e;"/><path id="Speaker1" d="M3660.98,5356.07c0,4.421 3.63,8.004 8.11,8.004l122.8,0c4.48,0 8.11,-3.583 8.11,-8.004c0,-4.421 -3.63,-8.004 -8.11,-8.004l-122.8,0c-4.48,0 -8.11,3.583 -8.11,8.004Z" style="fill:#3e3e3e;"/></g></g></g><g id="iPhone 6 Silver"><g id="Frame2"><path d="M3205.49,5751.68l0.505,1110.4c0,86.747 -49.31,144.495 -138.51,144.495c0,0 -234.269,0 -234.485,0c-3.802,0 -9.199,-3.021 -13,-3.021c-0.415,0 -83.584,0 -84,0c-3.801,0 -9.198,3.019 -13,3.021c-0.216,0 -182.763,0 -183,0c-7.466,0 -10.412,-4 -24.037,-4c-13.625,0 -21.002,4 -23.963,4c-0.098,0 -3.475,0 -3.475,0c-89.166,0 -138.469,-57.702 -138.509,-144.39c-0.335,-0.039 -0.505,-0.072 -0.505,-0.1l0,-945.93c0,-2.56 1.582,-6.81 2.019,-8.69c0.437,-1.87 1.207,-4.68 1.207,-7.06c0,-2.37 0,-270.09 0,-270.66c0,-1.37 -0.499,-6.79 -1.082,-7.75c-0.583,-0.95 -2.144,-7.2 -2.144,-8.45l0,-225.496c0,-86.747 49.307,-144.495 138.509,-144.495l578.96,0c89.2,0 138.51,57.748 138.51,144.495l0,227.176c0,0.57 -0.65,1.15 -1.02,1.77c-0.38,0.63 -1.19,2.09 -1.19,5.36l0,122.19c0,3.28 0.81,4.73 1.19,5.36c0.37,0.62 1.02,1.21 1.02,1.77Z" style="fill:#d5d2cf;"/><g id="Button2"><path id="Power Button2" d="M3210.51,5746.54c0,0.59 -0.16,0.93 -0.48,1.41c-0.28,0.41 -0.46,0.48 -0.93,0.93c-0.48,0.45 -0.9,0.69 -1.93,0.69c-0.77,0 -3.01,0 -4.07,0c-0.32,-0.87 -0.61,-2.15 -0.61,-4.06l0,-122.61c0,-2.11 0.35,-3.46 0.71,-4.33c0.92,0 2.55,0 3.26,0c0.789,0 1.22,0.14 1.594,0.408c0.158,-0.361 0.337,-0.527 0.516,-0.358c0.02,0.03 0.05,0.05 0.07,0.07c0.41,0.45 1.03,1.13 1.35,1.48c0.31,0.34 0.5,0.91 0.5,1.49l0,0.262c0.013,0.101 0.02,0.204 0.02,0.308l0,124.31Z" style="fill:#d5d2cf;"/><path id="Volume Down2" d="M2354.51,5779.57l-5.633,0c-1.295,0 -3.367,1.07 -3.367,3.39l0,124.22c0,2.32 2.072,3.39 3.367,3.39l5.633,0l0,-131Z" style="fill:#d5d2cf;"/><path id="Volume Up2" d="M2354.51,5749.57l-5.633,0c-1.295,0 -3.367,-1.07 -3.367,-3.39l0,-124.22c0,-2.32 2.072,-3.39 3.367,-3.39l5.633,0l0,131Z" style="fill:#d5d2cf;"/><path id="Mute Switch2" d="M2351.52,5468.24l0,70c0,0 -2.901,0 -3.896,0c-0.996,0 -2.107,-0.796 -2.107,-2.137c0,-1.34 0,-64.554 0,-65.978c0,-1.424 1.264,-1.885 2.03,-1.885c0.766,0 3.973,0 3.973,0Z" style="fill:#d5d2cf;"/></g></g><g id="Body2"><path id="Front2" d="M3121.49,5266.03c-15.94,-6.285 -34.28,-9.473 -54.51,-9.473l-578.94,0c-20.232,0 -38.572,3.188 -54.513,9.473c-15.123,5.964 -28.136,14.743 -38.677,26.093c-21.15,22.775 -32.329,55.946 -32.329,95.929l0,1475.03c0,39.99 11.179,73.16 32.329,95.93c10.541,11.36 23.554,20.13 38.677,26.1c15.941,6.28 34.281,9.47 54.513,9.47l578.94,0c20.23,0 38.57,-3.19 54.51,-9.47c15.13,-5.97 28.14,-14.74 38.68,-26.1c21.15,-22.77 32.33,-55.94 32.33,-95.93l0,-1475.03c0,-39.983 -11.18,-73.154 -32.33,-95.929c-10.54,-11.35 -23.55,-20.129 -38.68,-26.093Z" style="fill:#f7f7f7;"/><path id="Home Button2" d="M2777.01,6832.07c33.08,0 60,26.92 60,60c0,33.08 -26.92,60 -60,60c-33.08,0 -60,-26.92 -60,-60c0,-33.08 26.92,-60 60,-60M2777.01,6825.57c-36.73,0 -66.5,29.77 -66.5,66.5c0,36.73 29.77,66.5 66.5,66.5c36.73,0 66.5,-29.77 66.5,-66.5c0,-36.73 -29.77,-66.5 -66.5,-66.5Z" style="fill:#d5d2cf;"/><g id="Screen2"><path id="Screen Panel2" d="M2402.51,5454.57l-1.531,0.304l-1.297,0.867l-0.868,1.298l-0.304,1.531l0,1334l0.304,1.53l0.868,1.298l1.297,0.867l1.531,0.305l750,0l1.531,-0.305l1.297,-0.867l0.868,-1.298l0.304,-1.53l0,-1334l-0.304,-1.531c-0.862,-1.289 -0.877,-1.304 -2.165,-2.165l-1.531,-0.304c-250,0 -500,0 -750,0Z" style="fill:#3e3e3e;"/><rect id="Screen - off2" x="2402.51" y="5458.57" width="750" height="1334" style="fill:#000;"/></g><g id="Top Sensors2"><path id="Light Sensor2" d="M2626.51,5355.07c0,8.008 6.49,14.5 14.5,14.5c8.01,0 14.5,-6.492 14.5,-14.5c0,-8.008 -6.49,-14.5 -14.5,-14.5c-8.01,0 -14.5,6.492 -14.5,14.5Z" style="fill:#3e3e3e;"/><path id="Camera2" d="M2777.51,5291.57c4.97,0 9,4.029 9,9c0,4.97 -4.03,9 -9,9c-4.97,0 -9,-4.03 -9,-9c0,-4.971 4.03,-9 9,-9Z" style="fill:#3e3e3e;"/><path id="Speaker2" d="M2708.49,5354.57c0,4.421 3.63,8.004 8.11,8.004l122.8,0c4.48,0 8.11,-3.583 8.11,-8.004c0,-4.421 -3.63,-8.004 -8.11,-8.004l-122.8,0c-4.48,0 -8.11,3.583 -8.11,8.004Z" style="fill:#3e3e3e;"/></g></g></g><g id="iPhone 6 Space Gray"><g id="Frame3"><path d="M2245.49,5751.68l0.505,1110.4c-0.001,86.747 -49.311,144.495 -138.51,144.495c0,0 -234.269,0 -234.485,0c-3.802,0 -9.199,-3.021 -13,-3.021c-0.415,0 -83.584,0 -84,0c-3.801,0 -9.198,3.019 -13,3.021c-0.216,0 -182.763,0 -183,0c-7.466,0 -10.412,-4 -24.037,-4c-13.625,0 -21.002,4 -23.963,4c-0.098,0 -3.475,0 -3.475,0c-89.166,0 -138.469,-57.702 -138.509,-144.39c-0.335,-0.039 -0.505,-0.072 -0.505,-0.1l0,-945.93c0,-2.56 1.582,-6.81 2.019,-8.69c0.437,-1.87 1.207,-4.68 1.207,-7.06c0,-2.37 0,-270.09 0,-270.66c0,-1.37 -0.499,-6.79 -1.082,-7.75c-0.583,-0.95 -2.144,-7.2 -2.144,-8.45l0,-225.496c0,-86.747 49.307,-144.495 138.509,-144.495l578.96,0c89.2,0 138.51,57.748 138.51,144.495l0,227.176c0,0.57 -0.65,1.15 -1.02,1.77c-0.38,0.63 -1.19,2.09 -1.19,5.36l0,122.19c0,3.28 0.81,4.73 1.19,5.36c0.37,0.62 1.02,1.21 1.02,1.77Z" style="fill:#343438;"/><g id="Button3"><path id="Power Button3" d="M2250.51,5746.54c0,0.59 -0.16,0.93 -0.48,1.41c-0.28,0.41 -0.46,0.48 -0.93,0.93c-0.48,0.45 -0.9,0.69 -1.93,0.69c-0.77,0 -3.01,0 -4.07,0c-0.32,-0.87 -0.61,-2.15 -0.61,-4.06l0,-122.61c0,-2.11 0.35,-3.46 0.71,-4.33c0.92,0 2.55,0 3.26,0c0.789,0 1.22,0.14 1.594,0.408c0.158,-0.361 0.337,-0.527 0.516,-0.358c0.02,0.03 0.05,0.05 0.07,0.07c0.41,0.45 1.03,1.13 1.35,1.48c0.31,0.34 0.5,0.91 0.5,1.49l0,0.262c0.013,0.101 0.02,0.204 0.02,0.308l0,124.31Z" style="fill:#343438;"/><path id="Volume Down3" d="M1394.51,5779.57l-5.633,0c-1.295,0 -3.367,1.07 -3.367,3.39l0,124.22c0,2.32 2.072,3.39 3.367,3.39l5.633,0l0,-131Z" style="fill:#343438;"/><path id="Volume Up3" d="M1394.51,5749.57l-5.633,0c-1.295,0 -3.367,-1.07 -3.367,-3.39l0,-124.22c0,-2.32 2.072,-3.39 3.367,-3.39l5.633,0l0,131Z" style="fill:#343438;"/><path id="Mute Switch3" d="M1391.52,5468.24l0,70c0,0 -2.901,0 -3.896,0c-0.996,0 -2.107,-0.796 -2.107,-2.137c0,-1.34 0,-64.554 0,-65.978c0,-1.424 1.264,-1.885 2.03,-1.885c0.766,0 3.973,0 3.973,0Z" style="fill:#343438;"/></g></g><g id="Body3"><path id="Front3" d="M2161.49,5266.03c-15.94,-6.285 -34.28,-9.473 -54.51,-9.473l-578.94,0c-20.232,0 -38.572,3.188 -54.513,9.473c-15.123,5.964 -28.136,14.743 -38.677,26.093c-21.15,22.775 -32.329,55.946 -32.329,95.929l0,1475.03c0,39.99 11.179,73.16 32.329,95.93c10.541,11.36 23.554,20.13 38.677,26.1c15.941,6.28 34.281,9.47 54.513,9.47l578.94,0c20.23,0 38.57,-3.19 54.51,-9.47c15.13,-5.97 28.14,-14.74 38.68,-26.1c21.15,-22.77 32.33,-55.94 32.33,-95.93l0,-1475.03c0,-39.983 -11.18,-73.154 -32.33,-95.929c-10.54,-11.35 -23.55,-20.129 -38.68,-26.093Z" style="fill:#141414;"/><path id="Home Button3" d="M1817.01,6832.07c33.08,0 60,26.92 60,60c0,33.08 -26.92,60 -60,60c-33.08,0 -60,-26.92 -60,-60c0,-33.08 26.92,-60 60,-60M1817.01,6825.57c-36.73,0 -66.5,29.77 -66.5,66.5c0,36.73 29.77,66.5 66.5,66.5c36.73,0 66.5,-29.77 66.5,-66.5c0,-36.73 -29.77,-66.5 -66.5,-66.5Z" style="fill:#343438;"/><g id="Screen3"><path id="Screen Panel3" d="M1442.51,5454.57l-1.531,0.304l-1.297,0.867l-0.868,1.298l-0.304,1.531l0,1334l0.304,1.53l0.868,1.298l1.297,0.867l1.531,0.305l750,0l1.531,-0.305l1.297,-0.867l0.868,-1.298l0.304,-1.53l0,-1334l-0.304,-1.531c-0.862,-1.289 -0.877,-1.304 -2.165,-2.165l-1.531,-0.304c-250,0 -500,0 -750,0Z" style="fill:#141414;"/><rect id="Screen - off3" x="1442.51" y="5458.57" width="750" height="1334" style="fill:#141414;"/></g><g id="Top Sensors3"><path id="Camera3" d="M1817.51,5291.57c4.97,0 9,4.029 9,9c0,4.97 -4.03,9 -9,9c-4.97,0 -9,-4.03 -9,-9c0,-4.971 4.03,-9 9,-9Z" style="fill:#1d1d1d;"/><path id="Speaker3" d="M1748.5,5354.57c0,4.421 3.63,8.004 8.11,8.004l122.8,0c4.48,0 8.11,-3.583 8.11,-8.004c0,-4.421 -3.63,-8.004 -8.11,-8.004l-122.8,0c-4.48,0 -8.11,3.583 -8.11,8.004Z" style="fill:#1d1d1d;"/></g></g></g><path id="iPhone 6 / 6s1" d="M3002.25,4933.19c-2.16,0 -3.888,1.728 -3.888,3.888c0,2.16 1.728,3.888 3.888,3.888c2.16,0 3.888,-1.728 3.888,-3.888c0,-2.16 -1.728,-3.888 -3.888,-3.888ZM2999.8,5023.77l4.896,0l0,-68.256l-4.896,0l0,68.256Z" style="fill:#fff;fill-rule:nonzero;"/><path d="M3029.46,5023.77l4.896,0l0,-43.632c2.592,0.288 5.616,0.432 8.208,0.432c19.44,0 37.152,-10.8 37.152,-30.24c0,-15.12 -10.656,-27.072 -34.704,-27.072c-4.752,0 -9.936,0.432 -15.552,1.728l0,98.784ZM3034.36,4928.87c4.176,-0.72 7.776,-1.008 10.944,-1.008c20.736,0 28.944,9.36 28.944,23.184c0,14.544 -13.104,25.056 -33.408,25.056c-1.728,0 -4.608,-0.288 -6.48,-0.576l0,-46.656Z" style="fill:#fff;fill-rule:nonzero;"/><path d="M3099.59,4917.93l-4.896,0l0,105.84l4.896,0l0,-40.608c0,-11.088 8.496,-24.48 20.592,-24.48c11.376,0 17.856,8.064 17.856,21.024l0,44.064l4.896,0l0,-46.08c0,-13.248 -7.632,-23.616 -22.176,-23.616c-9.792,0 -18.288,6.912 -21.168,15.84l0,-51.984Z" style="fill:#fff;fill-rule:nonzero;"/><path d="M3190.02,4954.07c-18,0 -28.368,15.552 -28.368,35.568c0,19.872 10.368,35.568 28.368,35.568c18,0 28.368,-15.696 28.368,-35.568c0,-20.016 -10.368,-35.568 -28.368,-35.568ZM3190.02,4958.54c12.816,0 23.184,10.944 23.184,31.104c0,20.16 -10.368,31.104 -23.184,31.104c-12.816,0 -23.184,-10.944 -23.184,-31.104c0,-20.16 10.368,-31.104 23.184,-31.104Z" style="fill:#fff;fill-rule:nonzero;"/><path d="M3241.86,4955.51l-4.176,0l0,68.256l4.896,0l0,-40.608c0,-11.088 8.496,-24.48 20.592,-24.48c11.376,0 17.856,8.064 17.856,21.024l0,44.064l4.896,0l0,-46.08c0,-13.248 -7.632,-23.616 -22.176,-23.616c-9.936,0 -18.432,7.056 -21.168,16.128l-0.72,-14.688Z" style="fill:#fff;fill-rule:nonzero;"/><path d="M3350.44,5015.99c-5.472,3.168 -11.664,4.752 -17.568,4.752c-14.832,0 -23.328,-10.368 -23.328,-30.096l44.784,0c0.288,-1.728 0.432,-4.032 0.432,-5.76c0,-15.408 -6.912,-30.816 -23.76,-30.816c-14.688,0 -26.64,14.688 -26.64,37.152c0,22.176 11.376,33.984 26.496,33.984c8.208,0 14.976,-1.584 19.872,-4.608l-0.288,-4.608ZM3309.69,4986.33c1.008,-16.992 10.224,-27.648 21.168,-27.648c11.376,0 19.008,8.928 19.008,27.648l-40.176,0Z" style="fill:#fff;fill-rule:nonzero;"/><path d="M3449.94,4927c-26.208,2.304 -46.944,27.216 -46.944,62.784c0,19.296 9.216,35.424 25.776,35.424c14.544,0 26.208,-11.52 26.208,-27.216c0,-14.256 -9.072,-26.64 -23.616,-26.64c-11.376,0 -19.44,6.48 -23.04,14.688c0.288,-26.352 15.84,-51.84 41.904,-54.576l-0.288,-4.464ZM3430.07,4976.11c12.816,0 19.296,10.656 19.296,22.752c0,12.672 -8.928,21.744 -19.728,21.744c-13.104,0 -20.592,-12.96 -20.592,-25.776c0,-8.496 8.928,-18.72 21.024,-18.72Z" style="fill:#fff;fill-rule:nonzero;"/><path d="M3500.78,5037.74l49.392,-121.824l-4.752,0l-49.248,121.824l4.608,0Z" style="fill:#fff;fill-rule:nonzero;"/><path d="M3638.44,4927c-26.208,2.304 -46.944,27.216 -46.944,62.784c0,19.296 9.216,35.424 25.776,35.424c14.544,0 26.208,-11.52 26.208,-27.216c0,-14.256 -9.072,-26.64 -23.616,-26.64c-11.376,0 -19.44,6.48 -23.04,14.688c0.288,-26.352 15.84,-51.84 41.904,-54.576l-0.288,-4.464ZM3618.57,4976.11c12.816,0 19.296,10.656 19.296,22.752c0,12.672 -8.928,21.744 -19.728,21.744c-13.104,0 -20.592,-12.96 -20.592,-25.776c0,-8.496 8.928,-18.72 21.024,-18.72Z" style="fill:#fff;fill-rule:nonzero;"/><path d="M3655.72,5021.47c3.744,2.304 9.792,3.744 15.84,3.744c12.24,0 22.176,-7.488 22.176,-19.296c0,-8.496 -5.904,-13.68 -15.984,-17.856c-9.36,-3.888 -14.4,-7.056 -14.4,-15.696c0,-7.92 6.768,-13.824 14.688,-13.824c5.184,0 10.08,1.584 13.824,4.176l0.432,-5.04c-3.168,-2.16 -8.208,-3.6 -13.68,-3.6c-11.232,0 -20.304,7.2 -20.304,19.008c0,10.368 6.624,14.976 15.552,18.72c10.08,4.176 14.688,7.776 14.688,15.12c0,7.92 -7.488,13.824 -16.848,13.824c-5.04,0 -10.368,-1.296 -15.552,-4.176l-0.432,4.896Z" style="fill:#fff;fill-rule:nonzero;"/></g><g id="iPhone 5S"><g id="iPhone 5S Space Gray"><g id="Frame4"><g id="Button4"><path id="Power Button4" d="M2946.5,2801.59l0,9l122,0l0,-9l-3.991,-3l-114,0l-4.009,3Z" style="fill:#343438;"/><path id="Volume Down Button" d="M2436.5,3310.59l-3,3l0,50l3,3l9,0l0,-56l-9,0Z" style="fill:#343438;"/><path id="Volume Up Button" d="M2436.5,3177.59l-3,3l0,50l3,3l9,0l0,-56l-9,0Z" style="fill:#343438;"/><path id="Mute Switch4" d="M2436.5,3026.59l-3,3l0,67l3,3l9,0l0,-73l-9,0Z" style="fill:#343438;"/></g><path id="Frame5" d="M2442.5,2919.6c0,-29.92 11.67,-58.05 32.85,-79.21c21.18,-21.15 49.33,-32.8 79.28,-32.8l529.74,0c29.95,0 58.1,11.65 79.28,32.8c21.19,21.16 32.85,49.29 32.85,79.21l0,1368.98c0,29.922 -11.66,58.054 -32.85,79.211c-21.18,21.153 -49.33,32.803 -79.28,32.803l-529.74,0c-29.95,0 -58.1,-11.65 -79.28,-32.803c-21.18,-21.157 -32.85,-49.289 -32.85,-79.211l0,-1368.98Z" style="fill:#343438;"/></g><g id="Body4"><path id="Front4" d="M2554.63,2816.58l529.74,0c56.87,0 103.13,46.212 103.13,103.015l0,1367.97c0,56.8 -46.26,103.01 -103.13,103.01l-529.74,0c-56.86,0 -103.13,-46.21 -103.13,-103.01l0,-1367.97c0,-56.803 46.27,-103.015 103.13,-103.015Z" style="fill:#141414;"/><path id="Home Button4" d="M2819.06,4216.15c37.53,0 68,30.469 68,68c0,37.53 -30.47,68 -68,68c-37.53,0 -68,-30.47 -68,-68c0,-37.531 30.47,-68 68,-68ZM2819.06,4224.25c33.06,0 59.901,26.841 59.901,59.901c0,33.06 -26.841,59.901 -59.901,59.901c-33.06,0 -59.901,-26.841 -59.901,-59.901c0,-33.06 26.841,-59.901 59.901,-59.901Z" style="fill:#1d1d1d;"/><g id="Screen4"><path id="Screen Frame" d="M2498.5,4179.59c-0.824,-0.131 -1.679,-0.134 -2.472,-0.392c-1.607,-0.522 -3.007,-1.539 -4,-2.906c-0.491,-0.675 -0.879,-1.437 -1.136,-2.23c-0.258,-0.794 -0.261,-1.648 -0.392,-2.472l0,-1136c0.131,-0.824 0.134,-1.679 0.392,-2.472c0.522,-1.607 1.539,-3.007 2.906,-4c0.675,-0.491 1.436,-0.879 2.23,-1.137c0.793,-0.258 1.648,-0.261 2.472,-0.391l640,0c0.824,0.13 1.679,0.133 2.472,0.391c1.607,0.522 3.007,1.54 4,2.906c0.491,0.675 0.879,1.437 1.136,2.231c0.258,0.793 0.261,1.648 0.392,2.472l0,1136c-0.131,0.824 -0.134,1.678 -0.392,2.472c-0.522,1.607 -1.539,3.007 -2.906,4c-0.675,0.49 -1.436,0.878 -2.23,1.136c-0.793,0.258 -1.648,0.261 -2.472,0.392c-213.333,0 -426.667,0 -640,0Z" style="fill:#141414;"/><rect id="Screen5" x="2498.5" y="3035.59" width="640" height="1136" style="fill:#141414;"/></g><g id="Top Sensors4"><path id="Speaker4" d="M2762.5,2936.59l110,0c4.41,0 8,3.589 8,8c0,4.411 -3.59,8 -8,8l-110,0c-4.41,0 -8,-3.589 -8,-8c0,-4.411 3.59,-8 8,-8Z" style="fill:#1d1d1d;"/><path id="Camera4" d="M2818.5,2871.22c7.73,0 14,6.268 14,14c0,7.732 -6.27,14 -14,14c-7.73,0 -14,-6.268 -14,-14c0,-7.732 6.27,-14 14,-14Z" style="fill:#1d1d1d;"/></g></g></g><g id="iPhone 5S Silver"><g id="Frame6"><g id="Button5"><path id="Power Button5" d="M3816.5,2801.59l0,9l122,0l0,-9l-3.991,-3l-114,0l-4.009,3Z" style="fill:#d5d2cf;"/><path id="Volume Down Button1" d="M3306.5,3310.59l-3,3l0,50l3,3l9,0l0,-56l-9,0Z" style="fill:#d5d2cf;"/><path id="Volume Up Button1" d="M3306.5,3177.59l-3,3l0,50l3,3l9,0l0,-56l-9,0Z" style="fill:#d5d2cf;"/><path id="Mute Switch5" d="M3306.5,3026.59l-3,3l0,67l3,3l9,0l0,-73l-9,0Z" style="fill:#d5d2cf;"/></g><path id="Frame7" d="M3312.5,2919.6c0,-29.92 11.67,-58.05 32.85,-79.21c21.18,-21.15 49.33,-32.8 79.28,-32.8l529.74,0c29.95,0 58.1,11.65 79.28,32.8c21.19,21.16 32.85,49.29 32.85,79.21l0,1368.98c0,29.922 -11.66,58.054 -32.85,79.211c-21.18,21.153 -49.33,32.803 -79.28,32.803l-529.74,0c-29.95,0 -58.1,-11.65 -79.28,-32.803c-21.18,-21.157 -32.85,-49.289 -32.85,-79.211l0,-1368.98Z" style="fill:#d5d2cf;"/></g><g id="Body5"><path id="Front5" d="M3424.63,2816.58l529.74,0c56.87,0 103.13,46.212 103.13,103.015l0,1367.97c0,56.8 -46.26,103.01 -103.13,103.01l-529.74,0c-56.86,0 -103.13,-46.21 -103.13,-103.01l0,-1367.97c0,-56.803 46.27,-103.015 103.13,-103.015Z" style="fill:#f7f7f7;"/><path id="Home Button5" d="M3689.06,4216.15c37.53,0 68,30.469 68,68c0,37.53 -30.47,68 -68,68c-37.53,0 -68,-30.47 -68,-68c0,-37.531 30.47,-68 68,-68ZM3689.06,4224.25c33.06,0 59.901,26.841 59.901,59.901c0,33.06 -26.841,59.901 -59.901,59.901c-33.06,0 -59.901,-26.841 -59.901,-59.901c0,-33.06 26.841,-59.901 59.901,-59.901Z" style="fill:#d5d2cf;"/><g id="Screen6"><path id="Screen Frame1" d="M3368.5,4179.59c-0.824,-0.131 -1.679,-0.134 -2.472,-0.392c-1.607,-0.522 -3.007,-1.539 -4,-2.906c-0.491,-0.675 -0.879,-1.437 -1.136,-2.23c-0.258,-0.794 -0.261,-1.648 -0.392,-2.472l0,-1136c0.131,-0.824 0.134,-1.679 0.392,-2.472c0.522,-1.607 1.539,-3.007 2.906,-4c0.675,-0.491 1.436,-0.879 2.23,-1.137c0.793,-0.258 1.648,-0.261 2.472,-0.391l640,0c0.824,0.13 1.679,0.133 2.472,0.391c1.607,0.522 3.007,1.54 4,2.906c0.491,0.675 0.879,1.437 1.136,2.231c0.258,0.793 0.261,1.648 0.392,2.472l0,1136c-0.131,0.824 -0.134,1.678 -0.392,2.472c-0.522,1.607 -1.539,3.007 -2.906,4c-0.675,0.49 -1.436,0.878 -2.23,1.136c-0.793,0.258 -1.648,0.261 -2.472,0.392c-213.333,0 -426.667,0 -640,0Z" style="fill:#3e3e3e;"/><rect id="Screen7" x="3368.5" y="3035.59" width="640" height="1136" style="fill:#000;"/></g><g id="Top Sensors5"><path id="Speaker5" d="M3632.5,2936.59l110,0c4.41,0 8,3.589 8,8c0,4.411 -3.59,8 -8,8l-110,0c-4.41,0 -8,-3.589 -8,-8c0,-4.411 3.59,-8 8,-8Z" style="fill:#3e3e3e;"/><path id="Light Sensor3" d="M3583.96,2935.55c5.27,0 9.54,4.272 9.54,9.541c0,5.269 -4.27,9.541 -9.54,9.541c-5.27,0 -9.54,-4.272 -9.54,-9.541c0,-5.269 4.27,-9.541 9.54,-9.541Z" style="fill:#3e3e3e;"/><path id="Camera5" d="M3688.5,2871.22c7.73,0 14,6.268 14,14c0,7.732 -6.27,14 -14,14c-7.73,0 -14,-6.268 -14,-14c0,-7.732 6.27,-14 14,-14Z" style="fill:#3e3e3e;"/></g></g></g><g id="iPhone 5S Gold"><g id="Frame8"><g id="Button6"><path id="Power Button6" d="M4696.5,2801.59l0,9l122,0l0,-9l-3.991,-3l-114,0l-4.009,3Z" style="fill:#c7b78c;"/><path id="Volume Down Button2" d="M4186.5,3310.59l-3,3l0,50l3,3l9,0l0,-56l-9,0Z" style="fill:#c7b78c;"/><path id="Volume Up Button2" d="M4186.5,3177.59l-3,3l0,50l3,3l9,0l0,-56l-9,0Z" style="fill:#c7b78c;"/><path id="Mute Switch6" d="M4186.5,3026.59l-3,3l0,67l3,3l9,0l0,-73l-9,0Z" style="fill:#c7b78c;"/></g><path id="Frame9" d="M4192.5,2919.6c0,-29.92 11.67,-58.05 32.85,-79.21c21.18,-21.15 49.33,-32.8 79.28,-32.8l529.74,0c29.95,0 58.1,11.65 79.28,32.8c21.19,21.16 32.85,49.29 32.85,79.21l0,1368.98c0,29.922 -11.66,58.054 -32.85,79.211c-21.18,21.153 -49.33,32.803 -79.28,32.803l-529.74,0c-29.95,0 -58.1,-11.65 -79.28,-32.803c-21.18,-21.157 -32.85,-49.289 -32.85,-79.211l0,-1368.98Z" style="fill:#c7b78c;"/></g><g id="Body6"><path id="Front6" d="M4304.63,2816.58l529.74,0c56.87,0 103.13,46.212 103.13,103.015l0,1367.97c0,56.8 -46.26,103.01 -103.13,103.01l-529.74,0c-56.86,0 -103.13,-46.21 -103.13,-103.01l0,-1367.97c0,-56.803 46.27,-103.015 103.13,-103.015Z" style="fill:#f7f7f7;"/><path id="Home Button6" d="M4569.06,4216.15c37.53,0 68,30.469 68,68c0,37.53 -30.47,68 -68,68c-37.53,0 -68,-30.47 -68,-68c0,-37.531 30.47,-68 68,-68ZM4569.06,4224.25c33.06,0 59.901,26.841 59.901,59.901c0,33.06 -26.841,59.901 -59.901,59.901c-33.06,0 -59.901,-26.841 -59.901,-59.901c0,-33.06 26.841,-59.901 59.901,-59.901Z" style="fill:#c7b78c;"/><g id="Screen8"><path id="Screen Frame2" d="M4248.5,4179.59c-0.824,-0.131 -1.679,-0.134 -2.472,-0.392c-1.607,-0.522 -3.007,-1.539 -4,-2.906c-0.491,-0.675 -0.879,-1.437 -1.136,-2.23c-0.258,-0.794 -0.261,-1.648 -0.392,-2.472l0,-1136c0.131,-0.824 0.134,-1.679 0.392,-2.472c0.522,-1.607 1.539,-3.007 2.906,-4c0.675,-0.491 1.436,-0.879 2.23,-1.137c0.793,-0.258 1.648,-0.261 2.472,-0.391l640,0c0.824,0.13 1.679,0.133 2.472,0.391c1.607,0.522 3.007,1.54 4,2.906c0.491,0.675 0.879,1.437 1.136,2.231c0.258,0.793 0.261,1.648 0.392,2.472l0,1136c-0.131,0.824 -0.134,1.678 -0.392,2.472c-0.522,1.607 -1.539,3.007 -2.906,4c-0.675,0.49 -1.436,0.878 -2.23,1.136c-0.793,0.258 -1.648,0.261 -2.472,0.392c-213.333,0 -426.667,0 -640,0Z" style="fill:#3e3e3e;"/><rect id="Screen9" x="4248.5" y="3035.59" width="640" height="1136" style="fill:#000;"/></g><g id="Top Sensors6"><path id="Speaker6" d="M4512.5,2936.59l110,0c4.41,0 8,3.589 8,8c0,4.411 -3.59,8 -8,8l-110,0c-4.41,0 -8,-3.589 -8,-8c0,-4.411 3.59,-8 8,-8Z" style="fill:#3e3e3e;"/><path id="Light Sensor4" d="M4463.96,2935.55c5.27,0 9.54,4.272 9.54,9.541c0,5.269 -4.27,9.541 -9.54,9.541c-5.27,0 -9.54,-4.272 -9.54,-9.541c0,-5.269 4.27,-9.541 9.54,-9.541Z" style="fill:#3e3e3e;"/><path id="Camera6" d="M4568.5,2871.22c7.73,0 14,6.268 14,14c0,7.732 -6.27,14 -14,14c-7.73,0 -14,-6.268 -14,-14c0,-7.732 6.27,-14 14,-14Z" style="fill:#3e3e3e;"/></g></g></g><path id="iPhone 5s" d="M3432.86,2537.19c-2.16,0 -3.888,1.728 -3.888,3.888c0,2.16 1.728,3.888 3.888,3.888c2.16,0 3.888,-1.728 3.888,-3.888c0,-2.16 -1.728,-3.888 -3.888,-3.888ZM3430.41,2627.77l4.896,0l0,-68.256l-4.896,0l0,68.256Z" style="fill:#fff;fill-rule:nonzero;"/><path d="M3460.07,2627.77l4.896,0l0,-43.632c2.592,0.288 5.616,0.432 8.208,0.432c19.44,0 37.152,-10.8 37.152,-30.24c0,-15.12 -10.656,-27.072 -34.704,-27.072c-4.752,0 -9.936,0.432 -15.552,1.728l0,98.784ZM3464.97,2532.87c4.176,-0.72 7.776,-1.008 10.944,-1.008c20.736,0 28.944,9.36 28.944,23.184c0,14.544 -13.104,25.056 -33.408,25.056c-1.728,0 -4.608,-0.288 -6.48,-0.576l0,-46.656Z" style="fill:#fff;fill-rule:nonzero;"/><path d="M3530.2,2521.93l-4.896,0l0,105.84l4.896,0l0,-40.608c0,-11.088 8.496,-24.48 20.592,-24.48c11.376,0 17.856,8.064 17.856,21.024l0,44.064l4.896,0l0,-46.08c0,-13.248 -7.632,-23.616 -22.176,-23.616c-9.792,0 -18.288,6.912 -21.168,15.84l0,-51.984Z" style="fill:#fff;fill-rule:nonzero;"/><path d="M3620.63,2558.07c-18,0 -28.368,15.552 -28.368,35.568c0,19.872 10.368,35.568 28.368,35.568c18,0 28.368,-15.696 28.368,-35.568c0,-20.016 -10.368,-35.568 -28.368,-35.568ZM3620.63,2562.54c12.816,0 23.184,10.944 23.184,31.104c0,20.16 -10.368,31.104 -23.184,31.104c-12.816,0 -23.184,-10.944 -23.184,-31.104c0,-20.16 10.368,-31.104 23.184,-31.104Z" style="fill:#fff;fill-rule:nonzero;"/><path d="M3672.47,2559.51l-4.176,0l0,68.256l4.896,0l0,-40.608c0,-11.088 8.496,-24.48 20.592,-24.48c11.376,0 17.856,8.064 17.856,21.024l0,44.064l4.896,0l0,-46.08c0,-13.248 -7.632,-23.616 -22.176,-23.616c-9.936,0 -18.432,7.056 -21.168,16.128l-0.72,-14.688Z" style="fill:#fff;fill-rule:nonzero;"/><path d="M3781.05,2619.99c-5.472,3.168 -11.664,4.752 -17.568,4.752c-14.832,0 -23.328,-10.368 -23.328,-30.096l44.784,0c0.288,-1.728 0.432,-4.032 0.432,-5.76c0,-15.408 -6.912,-30.816 -23.76,-30.816c-14.688,0 -26.64,14.688 -26.64,37.152c0,22.176 11.376,33.984 26.496,33.984c8.208,0 14.976,-1.584 19.872,-4.608l-0.288,-4.608ZM3740.3,2590.33c1.008,-16.992 10.224,-27.648 21.168,-27.648c11.376,0 19.008,8.928 19.008,27.648l-40.176,0Z" style="fill:#fff;fill-rule:nonzero;"/><path d="M3881.27,2537.63l0,-4.608l-39.312,0l-2.592,44.64l8.496,0c19.872,0 29.952,8.352 29.952,24.768c0,12.816 -12.096,22.176 -24.048,22.176c-6.624,0 -12.24,-1.296 -18.576,-5.904l-0.576,5.184c5.76,4.032 10.8,5.328 18.576,5.328c16.56,0 29.808,-12.528 29.808,-27.936c0,-18.144 -12.672,-28.224 -33.984,-28.224l-4.752,0l2.016,-35.424l34.992,0Z" style="fill:#fff;fill-rule:nonzero;"/><path d="M3897.83,2625.47c3.744,2.304 9.792,3.744 15.84,3.744c12.24,0 22.176,-7.488 22.176,-19.296c0,-8.496 -5.904,-13.68 -15.984,-17.856c-9.36,-3.888 -14.4,-7.056 -14.4,-15.696c0,-7.92 6.768,-13.824 14.688,-13.824c5.184,0 10.08,1.584 13.824,4.176l0.432,-5.04c-3.168,-2.16 -8.208,-3.6 -13.68,-3.6c-11.232,0 -20.304,7.2 -20.304,19.008c0,10.368 6.624,14.976 15.552,18.72c10.08,4.176 14.688,7.776 14.688,15.12c0,7.92 -7.488,13.824 -16.848,13.824c-5.04,0 -10.368,-1.296 -15.552,-4.176l-0.432,4.896Z" style="fill:#fff;fill-rule:nonzero;"/></g><g id="iPhone 5C"><g id="iPhone 5C1"><g id="Frame10"><g id="Button7"><path id="Power Button7" d="M6096.5,2791.58l0,9l122,0l0,-9l-3.991,-3l-114,0l-4.009,3Z" style="fill:#86cd6c;"/><path id="Volume Down Button3" d="M5586.5,3300.58l-3,3l0,50l3,3l9,0l0,-56l-9,0Z" style="fill:#86cd6c;"/><path id="Volume Up Button3" d="M5586.5,3167.58l-3,3l0,50l3,3l9,0l0,-56l-9,0Z" style="fill:#86cd6c;"/><path id="Mute Switch7" d="M5586.5,3016.58l-3,3l0,67l3,3l9,0l0,-73l-9,0Z" style="fill:#86cd6c;"/></g><path id="Frame11" d="M5592.5,2909.59c0,-29.92 11.67,-58.05 32.85,-79.21c21.18,-21.15 49.33,-32.8 79.28,-32.8l529.74,0c29.95,0 58.1,11.65 79.28,32.8c21.19,21.16 32.85,49.29 32.85,79.21l0,1368.98c0,29.922 -11.66,58.054 -32.85,79.211c-21.18,21.153 -49.33,32.803 -79.28,32.803l-529.74,0c-29.95,0 -58.1,-11.65 -79.28,-32.803c-21.18,-21.157 -32.85,-49.289 -32.85,-79.211l0,-1368.98Z" style="fill:#86cd6c;"/></g><g id="Body7"><path id="Front7" d="M5704.63,2806.57l529.74,0c56.87,0 103.13,46.212 103.13,103.015l0,1367.97c0,56.8 -46.26,103.01 -103.13,103.01l-529.74,0c-56.86,0 -103.13,-46.21 -103.13,-103.01l0,-1367.97c0,-56.803 46.27,-103.015 103.13,-103.015Z" style="fill:#141414;"/><g id="Home Button7"><path id="Home Button Circle" d="M5969.06,4206.14c37.53,0 68,30.469 68,68c0,37.53 -30.47,68 -68,68c-37.53,0 -68,-30.47 -68,-68c0,-37.531 30.47,-68 68,-68ZM5969.06,4211.21c34.731,0 62.929,28.197 62.929,62.929c0,34.731 -28.198,62.928 -62.929,62.928c-34.731,0 -62.929,-28.197 -62.929,-62.928c0,-34.732 28.198,-62.929 62.929,-62.929Z" style="fill:#1d1d1d;"/><path id="Rounded Rectangle Symbol" d="M5952.87,4298.64c-0.319,-0.002 -0.637,-0.018 -0.955,-0.055c-0.615,-0.07 -1.223,-0.21 -1.807,-0.416c-1.138,-0.401 -2.183,-1.053 -3.046,-1.896c-0.887,-0.866 -1.577,-1.928 -2.003,-3.091c-0.213,-0.581 -0.36,-1.186 -0.438,-1.8c-0.04,-0.315 -0.06,-0.633 -0.066,-0.951c-0.069,-10.861 -0.069,-21.722 0,-32.583c0.006,-0.318 0.026,-0.635 0.066,-0.951c0.078,-0.614 0.225,-1.219 0.438,-1.8c0.426,-1.163 1.116,-2.225 2.003,-3.091c0.863,-0.842 1.908,-1.495 3.046,-1.896c0.584,-0.206 1.192,-0.346 1.807,-0.416c0.282,-0.032 0.564,-0.048 0.847,-0.054c10.861,-0.068 21.723,-0.068 32.584,0c0.318,0.006 0.635,0.026 0.951,0.067c0.613,0.078 1.218,0.225 1.799,0.438c1.164,0.426 2.226,1.116 3.091,2.002c0.843,0.864 1.495,1.908 1.896,3.046c0.206,0.585 0.346,1.192 0.417,1.808c0.032,0.282 0.048,0.564 0.053,0.847c0.069,10.861 0.069,21.722 0,32.583c-0.006,0.318 -0.026,0.636 -0.066,0.951c-0.078,0.614 -0.225,1.219 -0.438,1.8c-0.426,1.163 -1.116,2.225 -2.003,3.091c-0.863,0.843 -1.908,1.495 -3.046,1.896c-0.584,0.206 -1.192,0.346 -1.808,0.416c-0.281,0.033 -0.563,0.049 -0.846,0.054c-10.825,0.069 -21.651,0.001 -32.476,0.001ZM5952.89,4293.14c10.821,0 21.646,0.339 32.461,-0.003c0.084,-0.003 0.168,-0.01 0.252,-0.02c0.285,-0.038 0.561,-0.117 0.822,-0.238c0.67,-0.313 1.206,-0.895 1.461,-1.59c0.109,-0.297 0.163,-0.611 0.169,-0.927c0.069,-10.84 0.344,-21.685 -0.002,-32.518c-0.013,-0.292 -0.067,-0.58 -0.167,-0.854c-0.284,-0.774 -0.912,-1.398 -1.685,-1.682c-0.295,-0.109 -0.607,-0.162 -0.921,-0.168c-10.84,-0.062 -21.687,-0.355 -32.521,0.002c-0.29,0.012 -0.578,0.065 -0.85,0.166c-0.762,0.28 -1.384,0.891 -1.673,1.65c-0.117,0.307 -0.174,0.632 -0.181,0.96c-0.065,10.839 -0.34,21.685 0.002,32.519c0.014,0.314 0.076,0.623 0.191,0.916c0.272,0.689 0.822,1.257 1.501,1.555c0.274,0.12 0.566,0.192 0.864,0.22c0.092,0.008 0.184,0.011 0.277,0.012Z" style="fill:#d5d2cf;fill-rule:nonzero;"/></g><g id="Screen10"><path id="Screen Frame3" d="M5648.5,4169.58c-0.824,-0.131 -1.679,-0.134 -2.472,-0.392c-1.607,-0.522 -3.007,-1.539 -4,-2.906c-0.491,-0.675 -0.879,-1.437 -1.136,-2.23c-0.258,-0.794 -0.261,-1.648 -0.392,-2.472l0,-1136c0.131,-0.824 0.134,-1.679 0.392,-2.472c0.522,-1.607 1.539,-3.007 2.906,-4c0.675,-0.491 1.436,-0.879 2.23,-1.137c0.793,-0.258 1.648,-0.261 2.472,-0.391l640,0c0.824,0.13 1.679,0.133 2.472,0.391c1.607,0.522 3.007,1.54 4,2.906c0.491,0.675 0.879,1.437 1.136,2.231c0.258,0.793 0.261,1.648 0.392,2.472l0,1136c-0.131,0.824 -0.134,1.678 -0.392,2.472c-0.522,1.607 -1.539,3.007 -2.906,4c-0.675,0.49 -1.436,0.878 -2.23,1.136c-0.793,0.258 -1.648,0.261 -2.472,0.392c-213.333,0 -426.667,0 -640,0Z" style="fill:#141414;"/><rect id="Screen11" x="5648.5" y="3025.58" width="640" height="1136" style="fill:#141414;"/></g><g id="Top Sensors7"><path id="Speaker7" d="M5912.5,2926.58l110,0c4.41,0 8,3.589 8,8c0,4.411 -3.59,8 -8,8l-110,0c-4.41,0 -8,-3.589 -8,-8c0,-4.411 3.59,-8 8,-8Z" style="fill:#1d1d1d;"/><path id="Camera7" d="M5968.5,2861.21c7.73,0 14,6.268 14,14c0,7.732 -6.27,14 -14,14c-7.73,0 -14,-6.268 -14,-14c0,-7.732 6.27,-14 14,-14Z" style="fill:#1d1d1d;"/></g></g></g><path id="iPhone 5c" d="M5712.86,2532.19c-2.16,0 -3.888,1.728 -3.888,3.888c0,2.16 1.728,3.888 3.888,3.888c2.16,0 3.888,-1.728 3.888,-3.888c0,-2.16 -1.728,-3.888 -3.888,-3.888ZM5710.41,2622.77l4.896,0l0,-68.256l-4.896,0l0,68.256Z" style="fill:#fff;fill-rule:nonzero;"/><path d="M5740.07,2622.77l4.896,0l0,-43.632c2.592,0.288 5.616,0.432 8.208,0.432c19.44,0 37.152,-10.8 37.152,-30.24c0,-15.12 -10.656,-27.072 -34.704,-27.072c-4.752,0 -9.936,0.432 -15.552,1.728l0,98.784ZM5744.97,2527.87c4.176,-0.72 7.776,-1.008 10.944,-1.008c20.736,0 28.944,9.36 28.944,23.184c0,14.544 -13.104,25.056 -33.408,25.056c-1.728,0 -4.608,-0.288 -6.48,-0.576l0,-46.656Z" style="fill:#fff;fill-rule:nonzero;"/><path d="M5810.2,2516.93l-4.896,0l0,105.84l4.896,0l0,-40.608c0,-11.088 8.496,-24.48 20.592,-24.48c11.376,0 17.856,8.064 17.856,21.024l0,44.064l4.896,0l0,-46.08c0,-13.248 -7.632,-23.616 -22.176,-23.616c-9.792,0 -18.288,6.912 -21.168,15.84l0,-51.984Z" style="fill:#fff;fill-rule:nonzero;"/><path d="M5900.63,2553.07c-18,0 -28.368,15.552 -28.368,35.568c0,19.872 10.368,35.568 28.368,35.568c18,0 28.368,-15.696 28.368,-35.568c0,-20.016 -10.368,-35.568 -28.368,-35.568ZM5900.63,2557.54c12.816,0 23.184,10.944 23.184,31.104c0,20.16 -10.368,31.104 -23.184,31.104c-12.816,0 -23.184,-10.944 -23.184,-31.104c0,-20.16 10.368,-31.104 23.184,-31.104Z" style="fill:#fff;fill-rule:nonzero;"/><path d="M5952.47,2554.51l-4.176,0l0,68.256l4.896,0l0,-40.608c0,-11.088 8.496,-24.48 20.592,-24.48c11.376,0 17.856,8.064 17.856,21.024l0,44.064l4.896,0l0,-46.08c0,-13.248 -7.632,-23.616 -22.176,-23.616c-9.936,0 -18.432,7.056 -21.168,16.128l-0.72,-14.688Z" style="fill:#fff;fill-rule:nonzero;"/><path d="M6061.05,2614.99c-5.472,3.168 -11.664,4.752 -17.568,4.752c-14.832,0 -23.328,-10.368 -23.328,-30.096l44.784,0c0.288,-1.728 0.432,-4.032 0.432,-5.76c0,-15.408 -6.912,-30.816 -23.76,-30.816c-14.688,0 -26.64,14.688 -26.64,37.152c0,22.176 11.376,33.984 26.496,33.984c8.208,0 14.976,-1.584 19.872,-4.608l-0.288,-4.608ZM6020.3,2585.33c1.008,-16.992 10.224,-27.648 21.168,-27.648c11.376,0 19.008,8.928 19.008,27.648l-40.176,0Z" style="fill:#fff;fill-rule:nonzero;"/><path d="M6161.27,2532.63l0,-4.608l-39.312,0l-2.592,44.64l8.496,0c19.872,0 29.952,8.352 29.952,24.768c0,12.816 -12.096,22.176 -24.048,22.176c-6.624,0 -12.24,-1.296 -18.576,-5.904l-0.576,5.184c5.76,4.032 10.8,5.328 18.576,5.328c16.56,0 29.808,-12.528 29.808,-27.936c0,-18.144 -12.672,-28.224 -33.984,-28.224l-4.752,0l2.016,-35.424l34.992,0Z" style="fill:#fff;fill-rule:nonzero;"/><path d="M6226.36,2616.43c-3.888,1.872 -9.504,3.312 -14.4,3.312c-14.544,0 -26.784,-8.64 -26.784,-31.392c0,-20.88 13.104,-30.816 27.216,-30.816c5.904,0 9.936,1.296 14.256,3.456l0.576,-4.752c-3.888,-1.872 -8.064,-3.168 -15.264,-3.168c-17.424,0 -31.968,11.952 -31.968,36.144c0,24.192 14.544,34.992 29.952,34.992c7.056,0 11.952,-0.864 16.704,-3.168l-0.288,-4.608Z" style="fill:#fff;fill-rule:nonzero;"/></g><g id="iPhone 5"><g id="iPhone 5 Black"><g id="Frame12"><g id="Button8"><path id="Power Button8" d="M670.505,2801.59l0,9l122,0l0,-9l-3.991,-3l-114,0l-4.009,3Z" style="fill:#343438;"/><path id="Volume Down Button4" d="M160.505,3310.59l-3,3l0,50l3,3l9,0l0,-56l-9,0Z" style="fill:#343438;"/><path id="Volume Up Button4" d="M160.505,3177.59l-3,3l0,50l3,3l9,0l0,-56l-9,0Z" style="fill:#343438;"/><path id="Mute Switch8" d="M160.505,3026.59l-3,3l0,67l3,3l9,0l0,-73l-9,0Z" style="fill:#343438;"/></g><path id="Frame13" d="M166.505,2919.6c0,-29.92 11.67,-58.05 32.85,-79.21c21.18,-21.15 49.33,-32.8 79.28,-32.8l529.74,0c29.95,0 58.1,11.65 79.28,32.8c21.19,21.16 32.85,49.29 32.85,79.21l0,1368.98c0,29.922 -11.66,58.054 -32.85,79.211c-21.18,21.153 -49.33,32.803 -79.28,32.803l-529.74,0c-29.95,0 -58.1,-11.65 -79.28,-32.803c-21.18,-21.157 -32.85,-49.289 -32.85,-79.211l0,-1368.98Z" style="fill:#343438;"/></g><g id="Body8"><path id="Front8" d="M278.635,2816.58l529.74,0c56.87,0 103.13,46.212 103.13,103.015l0,1367.97c0,56.8 -46.26,103.01 -103.13,103.01l-529.74,0c-56.86,0 -103.13,-46.21 -103.13,-103.01l0,-1367.97c0,-56.803 46.27,-103.015 103.13,-103.015Z" style="fill:#141414;"/><g id="Home Button8"><path id="Home Button Circle1" d="M543.063,4216.15c37.53,0 68,30.469 68,68c0,37.53 -30.47,68 -68,68c-37.53,0 -68,-30.47 -68,-68c0,-37.531 30.47,-68 68,-68ZM543.063,4221.22c34.731,0 62.929,28.197 62.929,62.929c0,34.731 -28.198,62.928 -62.929,62.928c-34.731,0 -62.929,-28.197 -62.929,-62.928c0,-34.732 28.198,-62.929 62.929,-62.929Z" style="fill:#1d1d1d;"/><path id="Rounded Rectangle Symbol1" d="M526.879,4308.65c-0.319,-0.002 -0.637,-0.018 -0.955,-0.055c-0.615,-0.07 -1.223,-0.21 -1.807,-0.416c-1.138,-0.401 -2.183,-1.053 -3.046,-1.896c-0.887,-0.866 -1.577,-1.928 -2.003,-3.091c-0.213,-0.581 -0.36,-1.186 -0.438,-1.8c-0.04,-0.315 -0.06,-0.633 -0.066,-0.951c-0.069,-10.861 -0.069,-21.722 0,-32.583c0.006,-0.318 0.026,-0.635 0.066,-0.951c0.078,-0.614 0.225,-1.219 0.438,-1.8c0.426,-1.163 1.116,-2.225 2.003,-3.091c0.863,-0.842 1.908,-1.495 3.046,-1.896c0.584,-0.206 1.192,-0.346 1.807,-0.416c0.282,-0.032 0.564,-0.048 0.847,-0.054c10.861,-0.068 21.723,-0.068 32.584,0c0.318,0.006 0.635,0.026 0.951,0.067c0.613,0.078 1.218,0.225 1.799,0.438c1.164,0.426 2.226,1.116 3.091,2.002c0.843,0.864 1.495,1.908 1.896,3.046c0.206,0.585 0.346,1.192 0.417,1.808c0.032,0.282 0.048,0.564 0.053,0.847c0.069,10.861 0.069,21.722 0,32.583c-0.006,0.318 -0.026,0.636 -0.066,0.951c-0.078,0.614 -0.225,1.219 -0.438,1.8c-0.426,1.163 -1.116,2.225 -2.003,3.091c-0.863,0.843 -1.908,1.495 -3.046,1.896c-0.584,0.206 -1.192,0.346 -1.808,0.416c-0.281,0.033 -0.563,0.049 -0.846,0.054c-10.825,0.069 -21.651,0.001 -32.476,0.001ZM526.898,4303.15c10.821,0 21.646,0.339 32.461,-0.003c0.084,-0.003 0.168,-0.01 0.252,-0.02c0.285,-0.038 0.561,-0.117 0.822,-0.238c0.67,-0.313 1.206,-0.895 1.461,-1.59c0.109,-0.297 0.163,-0.611 0.169,-0.927c0.069,-10.84 0.344,-21.685 -0.002,-32.518c-0.013,-0.292 -0.067,-0.58 -0.167,-0.854c-0.284,-0.774 -0.912,-1.398 -1.685,-1.682c-0.295,-0.109 -0.607,-0.162 -0.921,-0.168c-10.84,-0.062 -21.687,-0.355 -32.521,0.002c-0.29,0.012 -0.578,0.065 -0.85,0.166c-0.762,0.28 -1.384,0.891 -1.673,1.65c-0.117,0.307 -0.174,0.632 -0.181,0.96c-0.065,10.839 -0.34,21.685 0.002,32.519c0.014,0.314 0.076,0.623 0.191,0.916c0.272,0.689 0.822,1.257 1.501,1.555c0.274,0.12 0.566,0.192 0.864,0.22c0.092,0.008 0.184,0.011 0.277,0.012Z" style="fill:#d5d2cf;fill-rule:nonzero;"/></g><g id="Screen12"><path id="Screen Frame4" d="M222.505,4179.59c-0.824,-0.131 -1.679,-0.134 -2.472,-0.392c-1.607,-0.522 -3.007,-1.539 -4,-2.906c-0.491,-0.675 -0.879,-1.437 -1.136,-2.23c-0.258,-0.794 -0.261,-1.648 -0.392,-2.472l0,-1136c0.131,-0.824 0.134,-1.679 0.392,-2.472c0.522,-1.607 1.539,-3.007 2.906,-4c0.675,-0.491 1.436,-0.879 2.23,-1.137c0.793,-0.258 1.648,-0.261 2.472,-0.391l640,0c0.824,0.13 1.679,0.133 2.472,0.391c1.607,0.522 3.007,1.54 4,2.906c0.491,0.675 0.879,1.437 1.136,2.231c0.258,0.793 0.261,1.648 0.392,2.472l0,1136c-0.131,0.824 -0.134,1.678 -0.392,2.472c-0.522,1.607 -1.539,3.007 -2.906,4c-0.675,0.49 -1.436,0.878 -2.23,1.136c-0.793,0.258 -1.648,0.261 -2.472,0.392c-213.333,0 -426.667,0 -640,0Z" style="fill:#141414;"/><rect id="Screen13" x="222.505" y="3035.59" width="640" height="1136" style="fill:#141414;"/></g><g id="Top Sensors8"><path id="Speaker8" d="M486.505,2936.59l110,0c4.41,0 8,3.589 8,8c0,4.411 -3.59,8 -8,8l-110,0c-4.41,0 -8,-3.589 -8,-8c0,-4.411 3.59,-8 8,-8Z" style="fill:#1d1d1d;"/><path id="Camera8" d="M542.505,2871.22c7.73,0 14,6.268 14,14c0,7.732 -6.27,14 -14,14c-7.73,0 -14,-6.268 -14,-14c0,-7.732 6.27,-14 14,-14Z" style="fill:#1d1d1d;"/></g></g></g><g id="iPhone 5 White"><g id="Frame14"><g id="Button9"><path id="Power Button9" d="M1516.51,2801.59l0,9l122,0l0,-9l-3.991,-3l-114,0l-4.009,3Z" style="fill:#d5d2cf;"/><path id="Volume Down Button5" d="M1006.5,3310.59l-3,3l0,50l3,3l9,0l0,-56l-9,0Z" style="fill:#d5d2cf;"/><path id="Volume Up Button5" d="M1006.5,3177.59l-3,3l0,50l3,3l9,0l0,-56l-9,0Z" style="fill:#d5d2cf;"/><path id="Mute Switch9" d="M1006.5,3026.59l-3,3l0,67l3,3l9,0l0,-73l-9,0Z" style="fill:#d5d2cf;"/></g><path id="Frame15" d="M1012.5,2919.6c0,-29.92 11.67,-58.05 32.85,-79.21c21.18,-21.15 49.33,-32.8 79.28,-32.8l529.74,0c29.95,0 58.1,11.65 79.28,32.8c21.19,21.16 32.85,49.29 32.85,79.21l0,1368.98c0,29.922 -11.66,58.054 -32.85,79.211c-21.18,21.153 -49.33,32.803 -79.28,32.803l-529.74,0c-29.95,0 -58.1,-11.65 -79.28,-32.803c-21.18,-21.157 -32.85,-49.289 -32.85,-79.211l0,-1368.98Z" style="fill:#d5d2cf;"/></g><g id="Body9"><path id="Front9" d="M1124.63,2816.58l529.74,0c56.87,0 103.13,46.212 103.13,103.015l0,1367.97c0,56.8 -46.26,103.01 -103.13,103.01l-529.74,0c-56.86,0 -103.13,-46.21 -103.13,-103.01l0,-1367.97c0,-56.803 46.27,-103.015 103.13,-103.015Z" style="fill:#f7f7f7;"/><g id="Home Button9"><path id="Home Button Circle2" d="M1389.06,4216.15c37.53,0 68,30.469 68,68c0,37.53 -30.47,68 -68,68c-37.53,0 -68,-30.47 -68,-68c0,-37.531 30.47,-68 68,-68ZM1389.06,4221.22c34.731,0 62.929,28.197 62.929,62.929c0,34.731 -28.198,62.928 -62.929,62.928c-34.731,0 -62.929,-28.197 -62.929,-62.928c0,-34.732 28.198,-62.929 62.929,-62.929Z" style="fill:#d5d2cf;"/><path id="Rounded Rectangle Symbol2" d="M1372.88,4308.65c-0.319,-0.002 -0.637,-0.018 -0.955,-0.055c-0.615,-0.07 -1.223,-0.21 -1.807,-0.416c-1.138,-0.401 -2.183,-1.053 -3.046,-1.896c-0.887,-0.866 -1.577,-1.928 -2.003,-3.091c-0.213,-0.581 -0.36,-1.186 -0.438,-1.8c-0.04,-0.315 -0.06,-0.633 -0.066,-0.951c-0.069,-10.861 -0.069,-21.722 0,-32.583c0.006,-0.318 0.026,-0.635 0.066,-0.951c0.078,-0.614 0.225,-1.219 0.438,-1.8c0.426,-1.163 1.116,-2.225 2.003,-3.091c0.863,-0.842 1.908,-1.495 3.046,-1.896c0.584,-0.206 1.192,-0.346 1.807,-0.416c0.282,-0.032 0.564,-0.048 0.847,-0.054c10.861,-0.068 21.723,-0.068 32.584,0c0.318,0.006 0.635,0.026 0.951,0.067c0.613,0.078 1.218,0.225 1.799,0.438c1.164,0.426 2.226,1.116 3.091,2.002c0.843,0.864 1.495,1.908 1.896,3.046c0.206,0.585 0.346,1.192 0.417,1.808c0.032,0.282 0.048,0.564 0.053,0.847c0.069,10.861 0.069,21.722 0,32.583c-0.006,0.318 -0.026,0.636 -0.066,0.951c-0.078,0.614 -0.225,1.219 -0.438,1.8c-0.426,1.163 -1.116,2.225 -2.003,3.091c-0.863,0.843 -1.908,1.495 -3.046,1.896c-0.584,0.206 -1.192,0.346 -1.808,0.416c-0.281,0.033 -0.563,0.049 -0.846,0.054c-10.825,0.069 -21.651,0.001 -32.476,0.001ZM1372.9,4303.15c10.821,0 21.646,0.339 32.461,-0.003c0.084,-0.003 0.168,-0.01 0.252,-0.02c0.285,-0.038 0.561,-0.117 0.822,-0.238c0.67,-0.313 1.206,-0.895 1.461,-1.59c0.109,-0.297 0.163,-0.611 0.169,-0.927c0.069,-10.84 0.344,-21.685 -0.002,-32.518c-0.013,-0.292 -0.067,-0.58 -0.167,-0.854c-0.284,-0.774 -0.912,-1.398 -1.685,-1.682c-0.295,-0.109 -0.607,-0.162 -0.921,-0.168c-10.84,-0.062 -21.687,-0.355 -32.521,0.002c-0.29,0.012 -0.578,0.065 -0.85,0.166c-0.762,0.28 -1.384,0.891 -1.673,1.65c-0.117,0.307 -0.174,0.632 -0.181,0.96c-0.065,10.839 -0.34,21.685 0.002,32.519c0.014,0.314 0.076,0.623 0.191,0.916c0.272,0.689 0.822,1.257 1.501,1.555c0.274,0.12 0.566,0.192 0.864,0.22c0.092,0.008 0.184,0.011 0.277,0.012Z" style="fill:#d5d2cf;fill-rule:nonzero;"/></g><g id="Screen14"><path id="Screen Frame5" d="M1068.51,4179.59c-0.824,-0.131 -1.679,-0.134 -2.472,-0.392c-1.607,-0.522 -3.007,-1.539 -4,-2.906c-0.491,-0.675 -0.879,-1.437 -1.136,-2.23c-0.258,-0.794 -0.261,-1.648 -0.392,-2.472l0,-1136c0.131,-0.824 0.134,-1.679 0.392,-2.472c0.522,-1.607 1.539,-3.007 2.906,-4c0.675,-0.491 1.436,-0.879 2.23,-1.137c0.793,-0.258 1.648,-0.261 2.472,-0.391l640,0c0.824,0.13 1.679,0.133 2.472,0.391c1.607,0.522 3.007,1.54 4,2.906c0.491,0.675 0.879,1.437 1.136,2.231c0.258,0.793 0.261,1.648 0.392,2.472l0,1136c-0.131,0.824 -0.134,1.678 -0.392,2.472c-0.522,1.607 -1.539,3.007 -2.906,4c-0.675,0.49 -1.436,0.878 -2.23,1.136c-0.793,0.258 -1.648,0.261 -2.472,0.392c-213.333,0 -426.667,0 -640,0Z" style="fill:#3e3e3e;"/><rect id="Screen15" x="1068.51" y="3035.59" width="640" height="1136" style="fill:#000;"/><path d="M1068.51,4179.59l-2.472,-0.392l-2.23,-1.136l-1.77,-1.77l-1.136,-2.23l-0.392,-2.472l0,-1136l0.392,-2.472l1.136,-2.23l1.77,-1.77l2.23,-1.137l2.472,-0.391l640,0l2.472,0.391l2.23,1.137l1.77,1.77l1.136,2.23l0.392,2.472l0,1136l-0.392,2.472l-1.136,2.23l-1.77,1.77l-2.23,1.136l-2.472,0.392l-640,0ZM1068.51,4171.59l640,0l0,-1136l-640,0l0,1136Z" style="fill:#3e3e3e;"/></g><g id="Top Sensors9"><path id="Speaker9" d="M1332.51,2936.59l110,0c4.41,0 8,3.589 8,8c0,4.411 -3.59,8 -8,8l-110,0c-4.41,0 -8,-3.589 -8,-8c0,-4.411 3.59,-8 8,-8Z" style="fill:#3e3e3e;"/><path id="Light Sensor5" d="M1283.96,2935.55c5.27,0 9.54,4.272 9.54,9.541c0,5.269 -4.27,9.541 -9.54,9.541c-5.27,0 -9.54,-4.272 -9.54,-9.541c0,-5.269 4.27,-9.541 9.54,-9.541Z" style="fill:#3e3e3e;"/><path id="Camera9" d="M1388.51,2871.22c7.73,0 14,6.268 14,14c0,7.732 -6.27,14 -14,14c-7.73,0 -14,-6.268 -14,-14c0,-7.732 6.27,-14 14,-14Z" style="fill:#3e3e3e;"/></g></g></g><path id="iPhone 51" d="M739.525,2542.19c-2.16,0 -3.888,1.728 -3.888,3.888c0,2.16 1.728,3.888 3.888,3.888c2.16,0 3.888,-1.728 3.888,-3.888c0,-2.16 -1.728,-3.888 -3.888,-3.888ZM737.077,2632.77l4.896,0l0,-68.256l-4.896,0l0,68.256Z" style="fill:#fff;fill-rule:nonzero;"/><path d="M766.741,2632.77l4.896,0l0,-43.632c2.592,0.288 5.616,0.432 8.208,0.432c19.44,0 37.152,-10.8 37.152,-30.24c0,-15.12 -10.656,-27.072 -34.704,-27.072c-4.752,0 -9.936,0.432 -15.552,1.728l0,98.784ZM771.637,2537.87c4.176,-0.72 7.776,-1.008 10.944,-1.008c20.736,0 28.944,9.36 28.944,23.184c0,14.544 -13.104,25.056 -33.408,25.056c-1.728,0 -4.608,-0.288 -6.48,-0.576l0,-46.656Z" style="fill:#fff;fill-rule:nonzero;"/><path d="M836.869,2526.93l-4.896,0l0,105.84l4.896,0l0,-40.608c0,-11.088 8.496,-24.48 20.592,-24.48c11.376,0 17.856,8.064 17.856,21.024l0,44.064l4.896,0l0,-46.08c0,-13.248 -7.632,-23.616 -22.176,-23.616c-9.792,0 -18.288,6.912 -21.168,15.84l0,-51.984Z" style="fill:#fff;fill-rule:nonzero;"/><path d="M927.301,2563.07c-18,0 -28.368,15.552 -28.368,35.568c0,19.872 10.368,35.568 28.368,35.568c18,0 28.368,-15.696 28.368,-35.568c0,-20.016 -10.368,-35.568 -28.368,-35.568ZM927.301,2567.54c12.816,0 23.184,10.944 23.184,31.104c0,20.16 -10.368,31.104 -23.184,31.104c-12.816,0 -23.184,-10.944 -23.184,-31.104c0,-20.16 10.368,-31.104 23.184,-31.104Z" style="fill:#fff;fill-rule:nonzero;"/><path d="M979.141,2564.51l-4.176,0l0,68.256l4.896,0l0,-40.608c0,-11.088 8.496,-24.48 20.592,-24.48c11.376,0 17.856,8.064 17.856,21.024l0,44.064l4.896,0l0,-46.08c0,-13.248 -7.632,-23.616 -22.176,-23.616c-9.936,0 -18.432,7.056 -21.168,16.128l-0.72,-14.688Z" style="fill:#fff;fill-rule:nonzero;"/><path d="M1087.72,2624.99c-5.472,3.168 -11.664,4.752 -17.568,4.752c-14.832,0 -23.328,-10.368 -23.328,-30.096l44.784,0c0.288,-1.728 0.432,-4.032 0.432,-5.76c0,-15.408 -6.912,-30.816 -23.76,-30.816c-14.688,0 -26.64,14.688 -26.64,37.152c0,22.176 11.376,33.984 26.496,33.984c8.208,0 14.976,-1.584 19.872,-4.608l-0.288,-4.608ZM1046.96,2595.33c1.008,-16.992 10.224,-27.648 21.168,-27.648c11.376,0 19.008,8.928 19.008,27.648l-40.176,0Z" style="fill:#fff;fill-rule:nonzero;"/><path d="M1187.94,2542.63l0,-4.608l-39.312,0l-2.592,44.64l8.496,0c19.872,0 29.952,8.352 29.952,24.768c0,12.816 -12.096,22.176 -24.048,22.176c-6.624,0 -12.24,-1.296 -18.576,-5.904l-0.576,5.184c5.76,4.032 10.8,5.328 18.576,5.328c16.56,0 29.808,-12.528 29.808,-27.936c0,-18.144 -12.672,-28.224 -33.984,-28.224l-4.752,0l2.016,-35.424l34.992,0Z" style="fill:#fff;fill-rule:nonzero;"/></g><g id="iPhone 4s"><g id="iPhone 4S White"><g id="Frame16"><path id="Frame17" d="M3303,597.6c0,-29.92 11.67,-58.05 32.85,-79.21c21.18,-21.15 49.33,-32.8 79.28,-32.8l529.74,0c29.95,0 58.1,11.65 79.28,32.8c21.19,21.16 32.85,49.29 32.85,79.21l0,1250.98c0,29.922 -11.66,58.054 -32.85,79.211c-21.18,21.153 -49.33,32.803 -79.28,32.803l-529.74,0c-29.95,0 -58.1,-11.65 -79.28,-32.803c-21.18,-21.157 -32.85,-49.289 -32.85,-79.211l0,-1250.98Z" style="fill:#d5d2cf;"/><g id="Buttons"><path id="Top Button" d="M3807,479.59l0,7l122,0l0,-7l-3.991,-3l-114,0l-4.009,3Z" style="fill:#d5d2cf;"/><path id="Sound Down Button" d="M3297,905.59l-3,3l0,50l3,3l7,0l0,-56l-7,0Z" style="fill:#d5d2cf;"/><path id="Sound Up Button" d="M3297,781.59l-3,3l0,50l3,3l7,0l0,-56l-7,0Z" style="fill:#d5d2cf;"/><path id="Sound Switch Button" d="M3297,644.59l-3,3l0,67l3,3l7,0l0,-73l-7,0Z" style="fill:#d5d2cf;"/></g></g><g id="Body10"><path id="Front10" d="M3415.13,494.584l529.74,0c56.87,0 103.13,46.212 103.13,103.015l0,1249.97c0,56.8 -46.26,103.01 -103.13,103.01l-529.74,0c-56.86,0 -103.13,-46.21 -103.13,-103.01l0,-1249.97c0,-56.803 46.27,-103.015 103.13,-103.015Z" style="fill:#f7f7f7;"/><g id="Home Button10"><path id="Home Button Circle3" d="M3680,1762.15c37.53,0 68,30.469 68,68c0,37.53 -30.47,68 -68,68c-37.53,0 -68,-30.47 -68,-68c0,-37.531 30.47,-68 68,-68ZM3680,1767.22c34.731,0 62.929,28.197 62.929,62.929c0,34.731 -28.198,62.928 -62.929,62.928c-34.731,0 -62.929,-28.197 -62.929,-62.928c0,-34.732 28.198,-62.929 62.929,-62.929Z" style="fill:#d5d2cf;"/><path id="Rounded Rectangle Symbol3" d="M3663.82,1854.65c-0.319,-0.002 -0.637,-0.018 -0.955,-0.055c-0.615,-0.07 -1.223,-0.21 -1.807,-0.416c-1.138,-0.401 -2.183,-1.053 -3.046,-1.896c-0.887,-0.866 -1.577,-1.928 -2.003,-3.091c-0.213,-0.581 -0.36,-1.186 -0.438,-1.8c-0.04,-0.315 -0.06,-0.633 -0.066,-0.951c-0.069,-10.861 -0.069,-21.722 0,-32.583c0.006,-0.318 0.026,-0.635 0.066,-0.951c0.078,-0.614 0.225,-1.219 0.438,-1.8c0.426,-1.163 1.116,-2.225 2.003,-3.091c0.863,-0.842 1.908,-1.495 3.046,-1.896c0.584,-0.206 1.192,-0.346 1.807,-0.416c0.282,-0.032 0.564,-0.048 0.847,-0.054c10.861,-0.068 21.723,-0.068 32.584,0c0.318,0.006 0.635,0.026 0.951,0.067c0.613,0.078 1.218,0.225 1.799,0.438c1.164,0.426 2.226,1.116 3.091,2.002c0.843,0.864 1.495,1.908 1.896,3.046c0.207,0.585 0.346,1.192 0.417,1.808c0.032,0.282 0.048,0.564 0.053,0.847c0.069,10.861 0.069,21.722 0,32.583c-0.006,0.318 -0.026,0.636 -0.066,0.951c-0.078,0.614 -0.225,1.219 -0.438,1.8c-0.426,1.163 -1.116,2.225 -2.003,3.091c-0.863,0.843 -1.908,1.495 -3.046,1.896c-0.584,0.206 -1.192,0.346 -1.807,0.416c-0.282,0.033 -0.564,0.049 -0.847,0.054c-10.825,0.069 -21.651,0.001 -32.476,0.001ZM3663.84,1849.15c10.821,0 21.646,0.339 32.461,-0.003c0.084,-0.003 0.168,-0.01 0.252,-0.02c0.285,-0.038 0.561,-0.117 0.822,-0.238c0.67,-0.313 1.206,-0.895 1.461,-1.59c0.109,-0.297 0.163,-0.611 0.169,-0.927c0.069,-10.84 0.344,-21.685 -0.002,-32.518c-0.013,-0.292 -0.067,-0.58 -0.167,-0.854c-0.284,-0.774 -0.912,-1.398 -1.685,-1.682c-0.295,-0.109 -0.607,-0.162 -0.921,-0.168c-10.84,-0.062 -21.687,-0.355 -32.521,0.002c-0.29,0.012 -0.578,0.065 -0.85,0.166c-0.762,0.28 -1.384,0.891 -1.673,1.65c-0.117,0.307 -0.174,0.632 -0.181,0.96c-0.065,10.839 -0.34,21.685 0.002,32.519c0.014,0.314 0.076,0.623 0.191,0.916c0.272,0.689 0.822,1.257 1.501,1.555c0.274,0.12 0.566,0.192 0.864,0.22c0.092,0.008 0.185,0.011 0.277,0.012Z" style="fill:#d5d2cf;fill-rule:nonzero;"/></g><g id="Screen16"><path id="Screen Panel4" d="M3359,731.59c-0.824,0.13 -1.679,0.133 -2.472,0.391c-0.794,0.258 -1.555,0.646 -2.23,1.137c-1.367,0.993 -2.384,2.393 -2.906,4c-0.258,0.793 -0.261,1.648 -0.392,2.472l0,960c0.131,0.824 0.134,1.678 0.392,2.472c0.257,0.793 0.645,1.555 1.136,2.23c0.993,1.367 2.393,2.384 4,2.906c0.793,0.258 1.648,0.261 2.472,0.392l640,0c0.824,-0.131 1.679,-0.134 2.472,-0.392c1.607,-0.522 3.007,-1.539 4,-2.906c0.491,-0.675 0.879,-1.437 1.136,-2.23c0.258,-0.794 0.262,-1.648 0.392,-2.472l0,-960c-0.13,-0.824 -0.134,-1.679 -0.392,-2.472c-0.522,-1.607 -1.539,-3.007 -2.906,-4c-0.675,-0.491 -1.436,-0.879 -2.23,-1.137c-0.793,-0.258 -1.648,-0.261 -2.472,-0.391c-213.333,0 -426.667,0 -640,0Z" style="fill:#3e3e3e;"/><rect id="Screen - Off" x="3359" y="739.59" width="640" height="960" style="fill:#000;"/><path d="M3359,1707.59l-2.472,-0.392l-2.23,-1.136l-1.77,-1.77l-1.136,-2.23l-0.392,-2.472l0,-960l0.392,-2.472l1.136,-2.231l1.77,-1.769l2.23,-1.137l2.472,-0.391l640,0l2.472,0.391l2.23,1.137l1.77,1.769l1.136,2.231l0.392,2.472l0,960l-0.392,2.472l-1.136,2.23l-1.77,1.77l-2.23,1.136l-2.472,0.392l-640,0ZM3359,1699.59l640,0l0,-960l-640,0l0,960Z" style="fill:#3e3e3e;"/></g><g id="Top Sensors10"><path id="Speaker10" d="M3629,603.59l110,0c4.41,0 8,3.589 8,8c0,4.411 -3.59,8 -8,8l-110,0c-4.41,0 -8,-3.589 -8,-8c0,-4.411 3.59,-8 8,-8Z" style="fill:#3e3e3e;"/><path id="Light Sensor6" d="M3655,541.59l59,0c4.41,0 8,3.589 8,8c0,4.411 -3.59,8 -8,8l-59,0c-4.41,0 -8,-3.589 -8,-8c0,-4.411 3.59,-8 8,-8Z" style="fill:#3e3e3e;"/><path id="Camera10" d="M3536.46,593.606c9.655,0 17.479,7.827 17.479,17.481c0,9.653 -7.824,17.48 -17.479,17.48c-9.655,0 -17.479,-7.827 -17.479,-17.48c0,-9.654 7.824,-17.481 17.479,-17.481Z" style="fill:#3e3e3e;"/></g></g></g><g id="iPhone 4S Black"><g id="Frame18"><path id="Frame19" d="M2452,596.6c0,-29.92 11.67,-58.05 32.85,-79.21c21.18,-21.15 49.33,-32.8 79.28,-32.8l529.74,0c29.95,0 58.1,11.65 79.28,32.8c21.19,21.16 32.85,49.29 32.85,79.21l0,1250.98c0,29.922 -11.66,58.054 -32.85,79.211c-21.18,21.153 -49.33,32.803 -79.28,32.803l-529.74,0c-29.95,0 -58.1,-11.65 -79.28,-32.803c-21.18,-21.157 -32.85,-49.289 -32.85,-79.211l0,-1250.98Z" style="fill:#d5d2cf;"/><g id="Buttons1"><path id="Top Button1" d="M2956,478.59l0,7l122,0l0,-7l-3.991,-3l-114,0l-4.009,3Z" style="fill:#d5d2cf;"/><path id="Sound Down Button1" d="M2446,904.59l-3,3l0,50l3,3l7,0l0,-56l-7,0Z" style="fill:#d5d2cf;"/><path id="Sound Up Button1" d="M2446,780.59l-3,3l0,50l3,3l7,0l0,-56l-7,0Z" style="fill:#d5d2cf;"/><path id="Sound Switch Button1" d="M2446,643.59l-3,3l0,67l3,3l7,0l0,-73l-7,0Z" style="fill:#d5d2cf;"/></g></g><g id="Body11"><path id="Front11" d="M2564.13,493.584l529.74,0c56.87,0 103.13,46.212 103.13,103.015l0,1249.97c0,56.8 -46.26,103.01 -103.13,103.01l-529.74,0c-56.86,0 -103.13,-46.21 -103.13,-103.01l0,-1249.97c0,-56.803 46.27,-103.015 103.13,-103.015Z" style="fill:#141414;"/><g id="Home Button11"><path id="Home Button Circle4" d="M2829,1761.15c37.53,0 68,30.469 68,68c0,37.53 -30.47,68 -68,68c-37.53,0 -68,-30.47 -68,-68c0,-37.531 30.47,-68 68,-68ZM2829,1766.22c34.731,0 62.929,28.197 62.929,62.929c0,34.731 -28.198,62.928 -62.929,62.928c-34.731,0 -62.929,-28.197 -62.929,-62.928c0,-34.732 28.198,-62.929 62.929,-62.929Z" style="fill:#1d1d1d;"/><path id="Rounded Rectangle Symbol4" d="M2812.82,1853.65c-0.319,-0.002 -0.637,-0.018 -0.955,-0.055c-0.615,-0.07 -1.223,-0.21 -1.807,-0.416c-1.138,-0.401 -2.183,-1.053 -3.046,-1.896c-0.887,-0.866 -1.577,-1.928 -2.003,-3.091c-0.213,-0.581 -0.36,-1.186 -0.438,-1.8c-0.04,-0.315 -0.06,-0.633 -0.066,-0.951c-0.069,-10.861 -0.069,-21.722 0,-32.583c0.006,-0.318 0.026,-0.635 0.066,-0.951c0.078,-0.614 0.225,-1.219 0.438,-1.8c0.426,-1.163 1.116,-2.225 2.003,-3.091c0.863,-0.842 1.908,-1.495 3.046,-1.896c0.584,-0.206 1.192,-0.346 1.807,-0.416c0.282,-0.032 0.564,-0.048 0.847,-0.054c10.861,-0.068 21.723,-0.068 32.584,0c0.318,0.006 0.635,0.026 0.951,0.067c0.613,0.078 1.218,0.225 1.799,0.438c1.164,0.426 2.226,1.116 3.091,2.002c0.843,0.864 1.495,1.908 1.896,3.046c0.207,0.585 0.346,1.192 0.417,1.808c0.032,0.282 0.048,0.564 0.053,0.847c0.069,10.861 0.069,21.722 0,32.583c-0.006,0.318 -0.026,0.636 -0.066,0.951c-0.078,0.614 -0.225,1.219 -0.438,1.8c-0.426,1.163 -1.116,2.225 -2.003,3.091c-0.863,0.843 -1.908,1.495 -3.046,1.896c-0.584,0.206 -1.192,0.346 -1.807,0.416c-0.282,0.033 -0.564,0.049 -0.847,0.054c-10.825,0.069 -21.651,0.001 -32.476,0.001ZM2812.84,1848.15c10.821,0 21.646,0.339 32.461,-0.003c0.084,-0.003 0.168,-0.01 0.252,-0.02c0.285,-0.038 0.561,-0.117 0.822,-0.238c0.67,-0.313 1.206,-0.895 1.461,-1.59c0.109,-0.297 0.163,-0.611 0.169,-0.927c0.069,-10.84 0.344,-21.685 -0.002,-32.518c-0.013,-0.292 -0.067,-0.58 -0.167,-0.854c-0.284,-0.774 -0.912,-1.398 -1.685,-1.682c-0.295,-0.109 -0.607,-0.162 -0.921,-0.168c-10.84,-0.062 -21.687,-0.355 -32.521,0.002c-0.29,0.012 -0.578,0.065 -0.85,0.166c-0.762,0.28 -1.384,0.891 -1.673,1.65c-0.117,0.307 -0.174,0.632 -0.181,0.96c-0.065,10.839 -0.34,21.685 0.002,32.519c0.014,0.314 0.076,0.623 0.191,0.916c0.272,0.689 0.822,1.257 1.501,1.555c0.274,0.12 0.566,0.192 0.864,0.22c0.092,0.008 0.185,0.011 0.277,0.012Z" style="fill:#d5d2cf;fill-rule:nonzero;"/></g><g id="Screen17"><path id="Screen Panel5" d="M2508,730.59c-0.824,0.13 -1.679,0.133 -2.472,0.391c-0.794,0.258 -1.555,0.646 -2.23,1.137c-1.367,0.993 -2.384,2.393 -2.906,4c-0.258,0.793 -0.261,1.648 -0.392,2.472l0,960c0.131,0.824 0.134,1.678 0.392,2.472c0.257,0.793 0.645,1.555 1.136,2.23c0.993,1.367 2.393,2.384 4,2.906c0.793,0.258 1.648,0.261 2.472,0.392l640,0c0.824,-0.131 1.679,-0.134 2.472,-0.392c1.607,-0.522 3.007,-1.539 4,-2.906c0.491,-0.675 0.879,-1.437 1.136,-2.23c0.258,-0.794 0.262,-1.648 0.392,-2.472l0,-960c-0.13,-0.824 -0.134,-1.679 -0.392,-2.472c-0.522,-1.607 -1.539,-3.007 -2.906,-4c-0.675,-0.491 -1.436,-0.879 -2.23,-1.137c-0.793,-0.258 -1.648,-0.261 -2.472,-0.391c-213.333,0 -426.667,0 -640,0Z" style="fill:#141414;"/><rect id="Screen - Off1" x="2508" y="738.59" width="640" height="960" style="fill:#141414;"/></g><g id="Top Sensors11"><path id="Speaker11" d="M2778,602.59l110,0c4.41,0 8,3.589 8,8c0,4.411 -3.59,8 -8,8l-110,0c-4.41,0 -8,-3.589 -8,-8c0,-4.411 3.59,-8 8,-8Z" style="fill:#1d1d1d;"/><path id="Camera11" d="M2685.46,592.606c9.655,0 17.479,7.827 17.479,17.481c0,9.653 -7.824,17.48 -17.479,17.48c-9.655,0 -17.479,-7.827 -17.479,-17.48c0,-9.654 7.824,-17.481 17.479,-17.481Z" style="fill:#1d1d1d;"/></g></g></g><path id="iPhone 4S" d="M2994.76,207.184c-2.16,0 -3.888,1.728 -3.888,3.888c0,2.16 1.728,3.888 3.888,3.888c2.16,0 3.888,-1.728 3.888,-3.888c0,-2.16 -1.728,-3.888 -3.888,-3.888ZM2992.31,297.76l4.896,0l0,-68.256l-4.896,0l0,68.256Z" style="fill:#fff;fill-rule:nonzero;"/><path d="M3021.98,297.76l4.896,0l0,-43.632c2.592,0.288 5.616,0.432 8.208,0.432c19.44,0 37.152,-10.8 37.152,-30.24c0,-15.12 -10.656,-27.072 -34.704,-27.072c-4.752,0 -9.936,0.432 -15.552,1.728l0,98.784ZM3026.87,202.864c4.176,-0.72 7.776,-1.008 10.944,-1.008c20.736,0 28.944,9.36 28.944,23.184c0,14.544 -13.104,25.056 -33.408,25.056c-1.728,0 -4.608,-0.288 -6.48,-0.576l0,-46.656Z" style="fill:#fff;fill-rule:nonzero;"/><path d="M3092.1,191.92l-4.896,0l0,105.84l4.896,0l0,-40.608c0,-11.088 8.496,-24.48 20.592,-24.48c11.376,0 17.856,8.064 17.856,21.024l0,44.064l4.896,0l0,-46.08c0,-13.248 -7.632,-23.616 -22.176,-23.616c-9.792,0 -18.288,6.912 -21.168,15.84l0,-51.984Z" style="fill:#fff;fill-rule:nonzero;"/><path d="M3182.54,228.064c-18,0 -28.368,15.552 -28.368,35.568c0,19.872 10.368,35.568 28.368,35.568c18,0 28.368,-15.696 28.368,-35.568c0,-20.016 -10.368,-35.568 -28.368,-35.568ZM3182.54,232.528c12.816,0 23.184,10.944 23.184,31.104c0,20.16 -10.368,31.104 -23.184,31.104c-12.816,0 -23.184,-10.944 -23.184,-31.104c0,-20.16 10.368,-31.104 23.184,-31.104Z" style="fill:#fff;fill-rule:nonzero;"/><path d="M3234.38,229.504l-4.176,0l0,68.256l4.896,0l0,-40.608c0,-11.088 8.496,-24.48 20.592,-24.48c11.376,0 17.856,8.064 17.856,21.024l0,44.064l4.896,0l0,-46.08c0,-13.248 -7.632,-23.616 -22.176,-23.616c-9.936,0 -18.432,7.056 -21.168,16.128l-0.72,-14.688Z" style="fill:#fff;fill-rule:nonzero;"/><path d="M3342.95,289.984c-5.472,3.168 -11.664,4.752 -17.568,4.752c-14.832,0 -23.328,-10.368 -23.328,-30.096l44.784,0c0.288,-1.728 0.432,-4.032 0.432,-5.76c0,-15.408 -6.912,-30.816 -23.76,-30.816c-14.688,0 -26.64,14.688 -26.64,37.152c0,22.176 11.376,33.984 26.496,33.984c8.208,0 14.976,-1.584 19.872,-4.608l-0.288,-4.608ZM3302.2,260.32c1.008,-16.992 10.224,-27.648 21.168,-27.648c11.376,0 19.008,8.928 19.008,27.648l-40.176,0Z" style="fill:#fff;fill-rule:nonzero;"/><path d="M3437.13,265.648l0,-63.216l-6.048,0l-36.576,64.368l0,3.456l37.728,0l0,27.36l4.896,0l0,-27.36l12.672,0l0,-4.608l-12.672,0ZM3400.7,265.648l32.112,-58.176c-0.576,11.52 -0.576,25.92 -0.576,33.12l0,25.056l-31.536,0Z" style="fill:#fff;fill-rule:nonzero;"/><path d="M3459.74,295.456c3.744,2.304 9.792,3.744 15.84,3.744c12.24,0 22.176,-7.488 22.176,-19.296c0,-8.496 -5.904,-13.68 -15.984,-17.856c-9.36,-3.888 -14.4,-7.056 -14.4,-15.696c0,-7.92 6.768,-13.824 14.688,-13.824c5.184,0 10.08,1.584 13.824,4.176l0.432,-5.04c-3.168,-2.16 -8.208,-3.6 -13.68,-3.6c-11.232,0 -20.304,7.2 -20.304,19.008c0,10.368 6.624,14.976 15.552,18.72c10.08,4.176 14.688,7.776 14.688,15.12c0,7.92 -7.488,13.824 -16.848,13.824c-5.04,0 -10.368,-1.296 -15.552,-4.176l-0.432,4.896Z" style="fill:#fff;fill-rule:nonzero;"/></g></g></svg>