<svg xmlns="http://www.w3.org/2000/svg" width="273" height="238" viewBox="0 0 273 238">
  <g fill="none" fill-rule="evenodd">
    <g transform="translate(0 165.207)">
      <path fill="#D5D2CF" d="M99.4810721,72.7317429 C94.3054271,72.7317429 90.997681,72.3455935 90.7112469,71.556718 L90.7112469,70.5286413 L182.229419,70.5286413 L182.229419,71.556718 C181.942985,72.3455935 178.635239,72.7317429 173.459594,72.7317429 L99.4813919,72.7317429 L99.4810721,72.7317429 Z"/>
      <path fill="#C3C3C3" d="M90.7113269,70.5289616 C91.480109,68.9098089 101.285959,63.6379327 102.562438,61.2544092 C104.455925,58.680854 105.886257,42.6857645 106.724928,31.01936 L106.724928,30.8310902 L166.21558,30.8310902 L166.215578,31.01936 C167.05425,42.6857645 168.484581,58.680854 170.378069,61.2544092 C171.654547,63.6379327 181.460397,68.9098089 182.229179,70.5289616 C182.156171,71.6090108 177.798247,71.8508546 173.587378,71.8508546 L99.3531283,71.8508546 C95.1422592,71.8508546 90.7843348,71.6090108 90.7113269,70.5289616 Z"/>
      <path fill="#D5D2CF" d="M272.940026,0.0288290713 L0,0.0288290713 L0,22.9414542 C0,27.3999502 3.61449121,31.0196003 8.06645431,31.0196003 L264.873572,31.0196003 C269.325535,31.0196003 272.940026,27.3999502 272.940026,22.9414542 L272.940026,0.0288290713 L272.940026,0.0288290713 Z"/>
    </g>
    <g fill="#343434">
      <path d="M272.940026,8.07814603 C272.940026,3.61973015 269.325535,0 264.873572,0 L8.07365114,0 C3.61776977,0 0.000159929701,3.6228533 0.000159929701,8.08519314 L0.000159929701,165.234863 L272.940186,165.234863 L272.940186,8.07798587 L272.940026,8.07814603 Z"/>
      <path d="M259.596292,13.4168896 C259.596292,13.2548062 259.464909,13.1232335 259.303061,13.1232335 L13.6374455,13.1232335 C13.4755967,13.1232335 13.3442144,13.2548062 13.3442144,13.4168896 L13.3442144,151.810046 C13.3442144,151.972129 13.4755967,152.103702 13.6374455,152.103702 L259.303061,152.103702 C259.464909,152.103702 259.596292,151.972129 259.596292,151.810046 L259.596292,13.4168896 L259.596292,13.4168896 Z"/>
      <polygon points="0 0 245.652 0 245.652 138.38 0 138.38" transform="translate(13.644 13.428)"/>
    </g>
    <ellipse cx="136.47" cy="5.648" fill="#3E3E3E" rx="1.393" ry="1.395"/>
  </g>
</svg>
