<?xml version="1.0" encoding="UTF-8"?>
<svg width="1427px" height="2874px" viewBox="0 0 1427 2874" version="1.1" xmlns="http://www.w3.org/2000/svg" xmlns:xlink="http://www.w3.org/1999/xlink">
    <!-- Generator: Sketch 41.2 (35397) - http://www.bohemiancoding.com/sketch -->
    <title>iPhone 7 Plus Rose Gold</title>
    <desc>Created with Sketch.</desc>
    <defs></defs>
    <g id="iPhone" stroke="none" stroke-width="1" fill="none" fill-rule="evenodd">
        <g id="iPhone-7-Plus" transform="translate(-8295.000000, -563.000000)">
            <g id="iPhone-7-Plus-Rose-Gold" transform="translate(8295.000000, 563.000000)">
                <g id="Frame" fill="#DDB1AD">
                    <path d="M643.426929,2870.49791 C640.354914,2871.89859 637.269566,2873.21699 633.992218,2873.21699 L214.398221,2873.21699 C86.7153465,2873.21699 7.39990234,2786.77258 7.39990234,2666.22001 L7.39990234,980.687985 C7.39990234,977.007968 9.66684647,970.927939 10.2919161,968.234593 C10.9199191,965.55458 12.0239243,961.541228 12.0239243,958.127878 L12.0239243,567.046017 C12.0239243,565.072674 11.3079209,559.045979 10.4728503,557.685972 C9.63697966,556.299299 7.39990234,549.085932 7.39990234,547.285923 L7.39990234,207.550973 C7.39990234,86.9903992 86.7133465,0.549987793 214.398221,0.549987793 L1212.58697,0.549987793 C1340.27025,0.549987793 1419.57996,86.9903992 1419.57996,207.550973 L1419.57996,545.072579 C1419.57996,545.89925 1418.64662,546.739254 1418.09995,547.659258 C1417.55328,548.565929 1416.37994,550.672606 1416.37994,555.445962 L1416.37994,733.140141 C1416.37994,737.88683 1417.55328,740.00684 1418.09995,740.926844 C1418.64662,741.833515 1419.57996,742.686853 1419.57996,743.50019 L1419.57996,2666.22001 C1419.57996,2786.77231 1340.27025,2873.21659 1212.58697,2873.21699 L792.992974,2873.21699 C789.715625,2873.21699 786.631611,2871.89859 783.558263,2870.49791 L782.328923,2869.93604 C779.256909,2868.5355 776.171561,2867.21723 772.894212,2867.21696 L654.092313,2867.21696 C650.814964,2867.21696 647.729616,2868.53537 644.656268,2869.93604 L643.426929,2870.49791 Z" id="Shape"></path>
                    <g id="Buttons" transform="translate(0.000000, 340.000000)">
                        <path d="M1426.49,376.634 L1426.49,391.147 C1426.49,391.147 1426.597,392.741 1425.619,394.493 C1424.74,396.069 1422.566,397.781 1420.894,397.781 L1412.994,397.781 L1413.002,302.867 L1412.994,207.953 L1420.894,207.953 C1422.566,207.953 1424.74,209.664 1425.619,211.24 C1426.597,212.992 1426.49,214.586 1426.49,214.586 L1426.49,376.634 L1426.49,376.634 Z" id="Power"></path>
                        <path d="M4.088,626.275 C2.476,626.275 0.493,624.171 0.493,622.297 L0.493,446.183 C0.493,444.194 2.847,442.55 4.088,442.55 L13.988,442.55 L13.973,626.275 L4.088,626.275 L4.088,626.275 Z" id="Volume-Down"></path>
                        <path d="M4.088,398.681 C2.476,398.681 0.493,396.578 0.493,394.703 L0.493,218.589 C0.493,216.6 2.847,214.956 4.088,214.956 L13.988,214.956 L13.973,398.681 L4.088,398.681 L4.088,398.681 Z" id="Volume-Up"></path>
                        <path d="M3.902,98.681 C2.29,98.681 0.493,97.578 0.493,95.703 L0.493,3.589 C0.493,1.6 2.539,0.956 3.779,0.956 L8.988,0.956 L8.973,98.681 L3.902,98.681 L3.902,98.681 Z" id="Mute-Switch"></path>
                    </g>
                </g>
                <g id="Body" transform="translate(26.000000, 20.000000)">
                    <path d="M1323.9702,52.4940061 C1290.5292,18.2240061 1243.0232,0.100006104 1186.5822,0.100006104 L188.397195,0.100006104 C131.961195,0.100006104 84.4541953,18.2240061 51.0101953,52.4940061 C35.0021953,68.9040061 22.5791953,88.6610061 14.0851953,111.235006 C5.36819531,134.395006 0.950195312,160.063006 0.950195312,187.548006 L0.950195312,2646.20801 C0.950195312,2673.69201 5.36819531,2699.36001 14.0851953,2722.52101 C22.5791953,2745.09501 35.0021953,2764.85201 51.0101953,2781.26201 C84.4541953,2815.53101 131.961195,2833.65501 188.397195,2833.65501 L1186.5822,2833.65501 C1243.0232,2833.65501 1290.5292,2815.53101 1323.9702,2781.26201 C1339.9782,2764.85201 1352.3982,2745.09501 1360.8962,2722.52101 C1369.6132,2699.36001 1374.0292,2673.69201 1374.0292,2646.20801 L1374.0292,187.548006 C1374.0292,160.063006 1369.6132,134.395006 1360.8962,111.235006 C1352.3982,88.6610061 1339.9782,68.9040061 1323.9702,52.4940061 L1323.9702,52.4940061 Z" id="Front" fill="#F7F7F7"></path>
                    <path d="M687.488,2587.69 C734.97,2587.69 773.61,2626.33 773.61,2673.812 C773.61,2721.295 734.97,2759.935 687.488,2759.935 C640.005,2759.935 601.365,2721.295 601.365,2673.812 C601.365,2626.33 640.005,2587.69 687.488,2587.69 L687.488,2587.69 Z M687.488,2578.36 C634.772,2578.36 592.039,2621.093 592.039,2673.808 C592.039,2726.524 634.772,2769.257 687.488,2769.257 C740.203,2769.257 782.936,2726.524 782.936,2673.808 C782.936,2621.093 740.203,2578.36 687.488,2578.36 L687.488,2578.36 Z" id="Home-Button" fill="#DDB1AD"></path>
                    <g id="Screen" transform="translate(61.000000, 304.000000)">
                        <path d="M6.647,2220.56 L4.351,2220.103 L2.404,2218.803 L1.104,2216.856 L0.647,2214.56 L0.647,6.59 L1.104,4.294 C2.395,2.36 2.418,2.338 4.351,1.046 L6.647,0.59 L1248.627,0.59 L1250.923,1.046 C1251.572,1.48 1252.318,1.795 1252.87,2.347 C1254.39,3.867 1254.232,4.603 1254.627,6.59 L1254.627,2214.56 L1254.17,2216.856 L1252.87,2218.803 L1250.923,2220.103 L1248.627,2220.56 L6.647,2220.56 L6.647,2220.56 Z" id="Screen-Panel" fill="#3E3E3E"></path>
                        <rect id="Screen---Off" fill="#343434" x="6.647" y="6.595" width="1241.98" height="2207.97"></rect>
                    </g>
                    <g id="Top-Sensors" transform="translate(471.000000, 57.000000)" fill="#3E3E3E">
                        <path d="M317.686,98.922 C317.686,104.315 313.305,108.697 307.9,108.697 L131.975,108.697 C126.57,108.697 122.189,104.315 122.189,98.922 C122.189,93.529 126.57,89.147 131.975,89.147 L307.9,89.147 C313.305,89.147 317.686,93.529 317.686,98.922 L317.686,98.922 Z" id="Speaker"></path>
                        <path d="M43.9890391,98.85 C43.9890391,110.913 34.2030391,120.7 22.1400391,120.7 C10.0760391,120.7 0.290039062,110.913 0.290039062,98.85 C0.290039062,86.787 10.0760391,77 22.1400391,77 C34.2030391,77 43.9890391,86.787 43.9890391,98.85 L43.9890391,98.85 Z" id="Camera"></path>
                        <path d="M221.088,0.599 C228.712,0.599 234.887,6.774 234.887,14.398 C234.887,22.023 228.712,28.198 221.088,28.198 C213.463,28.198 207.288,22.023 207.288,14.398 C207.288,6.774 213.463,0.599 221.088,0.599 L221.088,0.599 Z" id="Light-Sensor"></path>
                    </g>
                </g>
            </g>
        </g>
    </g>
</svg>