<?xml version="1.0" encoding="UTF-8"?>
<svg width="866px" height="1764px" viewBox="0 0 866 1764" version="1.1" xmlns="http://www.w3.org/2000/svg" xmlns:xlink="http://www.w3.org/1999/xlink">
    <!-- Generator: Sketch 41.2 (35397) - http://www.bohemiancoding.com/sketch -->
    <title>iPhone 7 Rose Gold</title>
    <desc>Created with Sketch.</desc>
    <defs></defs>
    <g id="iPhone" stroke="none" stroke-width="1" fill="none" fill-rule="evenodd">
        <g id="iPhone-7" transform="translate(-8576.000000, -118.000000)">
            <g id="iPhone-7-Rose-Gold" transform="translate(8576.000000, 118.000000)">
                <g id="Frame" fill="#DDB2AD">
                    <path d="M5,1618.57441 L5,672.653513 C5,670.093525 6.58199258,665.844212 7.01905719,663.964221 C7.45598847,662.093563 8.22598486,659.284243 8.22598486,656.904254 L8.22598486,386.248191 C8.22598486,384.874864 7.72705387,379.461556 7.14398994,378.50156 C6.56105934,377.541565 5,371.301594 5,370.048267 L5,144.555992 C5,57.809732 54.3068353,0.0500030518 143.508683,0.0500030518 L722.465966,0.0500030518 C811.665548,0.0500030518 860.97465,57.809732 860.97465,144.555992 L860.97465,371.728259 C860.97465,372.301589 860.325319,372.87492 859.954654,373.501584 C859.574656,374.128247 858.765327,375.581574 858.765327,378.861559 L858.765327,501.044985 C858.765327,504.32497 859.574656,505.774296 859.954654,506.40496 C860.325319,507.024957 860.97465,507.614288 860.97465,508.174285 L860.97465,508.179618 L861.47998,1618.57441 C861.47998,1705.3204 812.170879,1763.068 722.971297,1763.0684 L488.487064,1763.0684 C484.684415,1763.0684 479.288441,1760.04748 475.487125,1760.04748 L390.992855,1760.04748 C387.192873,1760.04748 381.795565,1763.0684 377.992916,1763.0684 L143.508683,1763.0684 C54.3097686,1763.0684 5,1705.32067 5,1618.57441 Z" id="Shape"></path>
                    <g id="Button" transform="translate(0.000000, 225.000000)">
                        <path d="M856.985,281.57 L862.618,281.57 C863.913,281.57 865.985,280.5 865.985,278.18 L865.985,153.96 C865.985,151.64 863.913,150.57 862.618,150.57 L856.985,150.57 L856.985,281.57 L856.985,281.57 Z" id="Power-Button"></path>
                        <path d="M9.985,311.57 L4.352,311.57 C3.057,311.57 0.985,312.64 0.985,314.96 L0.985,439.18 C0.985,441.5 3.057,442.57 4.352,442.57 L9.985,442.57 L9.985,311.57 L9.985,311.57 Z" id="Volume-Down"></path>
                        <path d="M9.985,281.57 L4.352,281.57 C3.057,281.57 0.985,280.5 0.985,278.18 L0.985,153.96 C0.985,151.64 3.057,150.57 4.352,150.57 L9.985,150.57 L9.985,281.57 L9.985,281.57 Z" id="Volume-Up"></path>
                        <path d="M6.998,0.237 L6.998,70.237 L3.102,70.237 C2.106,70.237 0.995,69.441 0.995,68.1 L0.995,2.122 C0.995,0.698 2.259,0.237 3.025,0.237 L6.998,0.237 L6.998,0.237 Z" id="Mute-Switch"></path>
                    </g>
                </g>
                <g id="Body" transform="translate(17.000000, 13.000000)">
                    <path d="M759.965,10.032 C744.025,3.747 725.685,0.559 705.455,0.559 L126.515,0.559 C106.283,0.559 87.943,3.747 72.002,10.032 C56.879,15.996 43.866,24.775 33.325,36.125 C12.175,58.9 0.996,92.071 0.996,132.054 L0.996,1607.084 C0.996,1647.074 12.175,1680.244 33.325,1703.014 C43.866,1714.374 56.879,1723.144 72.002,1729.114 C87.943,1735.394 106.283,1738.584 126.515,1738.584 L705.455,1738.584 C725.685,1738.584 744.025,1735.394 759.965,1729.114 C775.095,1723.144 788.105,1714.374 798.645,1703.014 C819.795,1680.244 830.975,1647.074 830.975,1607.084 L830.975,132.054 C830.975,92.071 819.795,58.9 798.645,36.125 C788.105,24.775 775.095,15.996 759.965,10.032 L759.965,10.032 Z" id="Front" fill="#F7F7F7"></path>
                    <path d="M415,1574.64662 C448.826165,1574.64662 476.353383,1602.17383 476.353383,1636 C476.353383,1669.82617 448.826165,1697.35338 415,1697.35338 C381.173835,1697.35338 353.646617,1669.82617 353.646617,1636 C353.646617,1602.17383 381.173835,1574.64662 415,1574.64662 L415,1574.64662 Z M415,1568 C377.441504,1568 347,1598.4415 347,1636 C347,1673.5585 377.441504,1704 415,1704 C452.558496,1704 483,1673.5585 483,1636 C483,1598.4415 452.558496,1568 415,1568 L415,1568 Z" id="Home-Button" fill="#DDB2AD"></path>
                    <g id="Screen" transform="translate(36.000000, 198.000000)">
                        <path d="M4.985,0.57 L3.455,0.875 L2.157,1.742 L1.29,3.04 L0.985,4.57 L0.985,1338.57 L1.29,1340.1 L2.157,1341.398 L3.455,1342.265 L4.985,1342.57 L754.985,1342.57 L756.516,1342.265 L757.814,1341.398 L758.681,1340.1 L758.985,1338.57 L758.985,4.57 L758.681,3.04 C757.82,1.751 757.805,1.736 756.516,0.875 L754.985,0.57 L4.985,0.57 L4.985,0.57 Z" id="Screen-Panel" fill="#3E3E3E"></path>
                        <rect id="Screen---off" fill="#343434" x="4.985" y="4.57" width="750" height="1334"></rect>
                    </g>
                    <g id="Top-Sensors" transform="translate(264.000000, 35.000000)" fill="#3E3E3E">
                        <path d="M0.985,64.07 C0.985,72.078 7.475,78.57 15.485,78.57 C23.495,78.57 29.985,72.078 29.985,64.07 C29.985,56.062 23.495,49.57 15.485,49.57 C7.475,49.57 0.985,56.062 0.985,64.07 L0.985,64.07 Z" id="Camera"></path>
                        <path d="M151.985,0.57 C156.955,0.57 160.985,4.599 160.985,9.57 C160.985,14.54 156.955,18.57 151.985,18.57 C147.015,18.57 142.985,14.54 142.985,9.57 C142.985,4.599 147.015,0.57 151.985,0.57 L151.985,0.57 Z" id="Light-Sensor"></path>
                        <path d="M82.975,63.57 C82.975,67.991 86.605,71.574 91.085,71.574 L213.885,71.574 C218.365,71.574 221.995,67.991 221.995,63.57 C221.995,59.149 218.365,55.566 213.885,55.566 L91.085,55.566 C86.605,55.566 82.975,59.149 82.975,63.57 L82.975,63.57 Z" id="Speaker"></path>
                    </g>
                </g>
            </g>
        </g>
    </g>
</svg>