<svg xmlns="http://www.w3.org/2000/svg" width="866" height="1764" viewBox="0 0 866 1764">
  <g fill="none" fill-rule="evenodd">
    <g fill="#D5D2CF">
      <path d="M4.02001953,1618.57441 L4.02001953,672.653513 C4.02001953,670.093525 5.60201211,665.844212 6.03907672,663.964221 C6.47600801,662.093563 7.24600439,659.284243 7.24600439,656.904254 L7.24600439,386.248191 C7.24600439,384.874864 6.7470734,379.461556 6.16400947,378.50156 C5.58107887,377.541565 4.02001953,371.301594 4.02001953,370.048267 L4.02001953,144.555992 C4.02001953,57.809732 53.3268548,0.0500030518 142.528703,0.0500030518 L721.485986,0.0500030518 C810.685567,0.0500030518 859.994669,57.809732 859.994669,144.555992 L859.994669,371.728259 C859.994669,372.301589 859.345339,372.87492 858.974674,373.501584 C858.594676,374.128247 857.785346,375.581574 857.785346,378.861559 L857.785346,501.044985 C857.785346,504.32497 858.594676,505.774296 858.974674,506.40496 C859.345339,507.024957 859.994669,507.614288 859.994669,508.174285 L859.994669,508.179618 L860.5,1618.57441 C860.5,1705.3204 811.190898,1763.068 721.991317,1763.0684 L487.507084,1763.0684 C483.704435,1763.0684 478.30846,1760.04748 474.507145,1760.04748 L390.012875,1760.04748 C386.212893,1760.04748 380.815585,1763.0684 377.012936,1763.0684 L142.528703,1763.0684 C53.3297881,1763.0684 4.02001953,1705.32067 4.02001953,1618.57441 Z"/>
      <g transform="translate(0 224)">
        <path d="M856.005 282.071L861.638 282.071C862.933 282.071 865.005 281.001 865.005 278.681L865.005 154.461C865.005 152.141 862.933 151.071 861.638 151.071L856.005 151.071 856.005 282.071 856.005 282.071zM9.005 312.071L3.372 312.071C2.077 312.071.005 313.141.005 315.461L.005 439.681C.005 442.001 2.077 443.071 3.372 443.071L9.005 443.071 9.005 312.071 9.005 312.071zM9.005 282.071L3.372 282.071C2.077 282.071.005 281.001.005 278.681L.005 154.461C.005 152.141 2.077 151.071 3.372 151.071L9.005 151.071 9.005 282.071 9.005 282.071zM6.018.738L6.018 70.738 2.122 70.738C1.126 70.738.015 69.942.015 68.601L.015 2.623C.015 1.199 1.279.738 2.045.738L6.018.738 6.018.738z"/>
      </g>
    </g>
    <g transform="translate(17 13)">
      <path fill="#F7F7F7" d="M758.985,9.533 C743.045,3.248 724.705,0.06 704.475,0.06 L125.535,0.06 C105.303,0.06 86.963,3.248 71.022,9.533 C55.899,15.497 42.886,24.276 32.345,35.626 C11.195,58.401 0.016,91.572 0.016,131.555 L0.016,1606.585 C0.016,1646.575 11.195,1679.745 32.345,1702.515 C42.886,1713.875 55.899,1722.645 71.022,1728.615 C86.963,1734.895 105.303,1738.085 125.535,1738.085 L704.475,1738.085 C724.705,1738.085 743.045,1734.895 758.985,1728.615 C774.115,1722.645 787.125,1713.875 797.665,1702.515 C818.815,1679.745 829.995,1646.575 829.995,1606.585 L829.995,131.555 C829.995,91.572 818.815,58.401 797.665,35.626 C787.125,24.276 774.115,15.497 758.985,9.533 L758.985,9.533 Z"/>
      <path fill="#D5D2CF" d="M415,1574.64662 C448.826165,1574.64662 476.353383,1602.17383 476.353383,1636 C476.353383,1669.82617 448.826165,1697.35338 415,1697.35338 C381.173835,1697.35338 353.646617,1669.82617 353.646617,1636 C353.646617,1602.17383 381.173835,1574.64662 415,1574.64662 L415,1574.64662 Z M415,1568 C377.441504,1568 347,1598.4415 347,1636 C347,1673.5585 377.441504,1704 415,1704 C452.558496,1704 483,1673.5585 483,1636 C483,1598.4415 452.558496,1568 415,1568 L415,1568 Z"/>
      <g transform="translate(36 198)">
        <path fill="#3E3E3E" d="M4.005,0.071 L2.474,0.375 L1.177,1.243 L0.309,2.54 L0.005,4.071 L0.005,1338.071 L0.309,1339.602 L1.177,1340.899 L2.474,1341.767 L4.005,1342.071 L754.005,1342.071 L755.536,1341.767 L756.833,1340.899 L757.701,1339.602 L758.005,1338.071 L758.005,4.071 L757.701,2.54 C756.839,1.251 756.824,1.237 755.536,0.375 L754.005,0.071 L4.005,0.071 L4.005,0.071 Z"/>
        <rect width="750" height="1334" x="4.005" y="4.071" fill="#343434"/>
      </g>
      <g fill="#3E3E3E" transform="translate(264 35)">
        <path d="M.005 63.571C.005 71.579 6.495 78.071 14.505 78.071 22.515 78.071 29.005 71.579 29.005 63.571 29.005 55.563 22.515 49.071 14.505 49.071 6.495 49.071.005 55.563.005 63.571L.005 63.571zM151.005.071C155.975.071 160.005 4.1 160.005 9.071 160.005 14.041 155.975 18.071 151.005 18.071 146.035 18.071 142.005 14.041 142.005 9.071 142.005 4.1 146.035.071 151.005.071L151.005.071zM81.995 63.071C81.995 67.492 85.625 71.075 90.105 71.075L212.905 71.075C217.385 71.075 221.015 67.492 221.015 63.071 221.015 58.65 217.385 55.067 212.905 55.067L90.105 55.067C85.625 55.067 81.995 58.65 81.995 63.071L81.995 63.071z"/>
      </g>
    </g>
  </g>
</svg>
