<?xml version="1.0" encoding="UTF-8" standalone="no"?>
<svg width="1427px" height="2874px" viewBox="0 0 1427 2874" version="1.1" xmlns="http://www.w3.org/2000/svg" xmlns:xlink="http://www.w3.org/1999/xlink" xmlns:sketch="http://www.bohemiancoding.com/sketch/ns">
    <!-- Generator: Sketch 3.3.3 (12072) - http://www.bohemiancoding.com/sketch -->
    <title>iPhone 6-6s Plus Silver</title>
    <desc>Created with Sketch.</desc>
    <defs></defs>
    <g id="iPhone" stroke="none" stroke-width="1" fill="none" fill-rule="evenodd" sketch:type="MSPage">
        <g id="iPhone-6-6s-Plus" sketch:type="MSArtboardGroup" transform="translate(-2287.000000, -396.000000)">
            <g id="iPhone-6-6s-Plus-Silver" sketch:type="MSLayerGroup" transform="translate(2287.000000, 396.000000)">
                <g id="Frame" fill="#D5D2CF" sketch:type="MSShapeGroup">
                    <path d="M1419.59,2666.65 C1419.59,2787.202 1340.275,2873.646 1212.593,2873.646 L793.001,2873.646 C786.009,2873.646 779.893,2867.646 772.901,2867.646 L652.301,2867.646 C645.309,2867.646 639.193,2873.646 632.201,2873.646 C627.065,2873.646 321.749,2873.676 316.878,2873.646 C303.647,2873.566 302.165,2864.679 265.701,2864.646 C229.237,2864.614 226.789,2873.646 214.408,2873.646 C86.724,2873.646 7.411,2787.202 7.411,2666.65 L7.411,981.12 C7.411,977.452 9.678,971.369 10.303,968.678 C10.931,965.998 12.035,961.973 12.035,958.569 L12.035,567.491 C12.035,565.513 11.319,559.489 10.484,558.12 C9.648,556.74 7.411,549.521 7.411,547.727 L7.411,207.987 C7.411,87.435 86.724,0.99 214.408,0.99 L1212.593,0.99 C1340.275,0.99 1419.59,87.435 1419.59,207.987 L1419.59,545.519 C1419.59,546.335 1418.647,547.186 1418.106,548.095 C1417.554,549.003 1416.381,551.119 1416.381,555.88 L1416.381,733.575 C1416.381,738.325 1417.554,740.452 1418.106,741.361 C1418.647,742.269 1419.59,743.12 1419.59,743.937 L1419.59,2666.647 L1419.59,2666.65 Z" id="Frame1"></path>
                    <g id="Buttons" transform="translate(0.000000, 341.000000)">
                        <path d="M1426.5,376.078 L1426.5,390.591 C1426.5,390.591 1426.608,392.185 1425.63,393.937 C1424.751,395.513 1422.577,397.224 1420.905,397.224 L1413.005,397.224 L1413.013,302.31 L1413.005,207.397 L1420.905,207.397 C1422.577,207.397 1424.751,209.108 1425.63,210.684 C1426.608,212.436 1426.5,214.03 1426.5,214.03 L1426.5,376.078 L1426.5,376.078 Z" id="Power"></path>
                        <path d="M4.105,625.719 C2.493,625.719 0.51,623.615 0.51,621.74 L0.51,445.627 C0.51,443.637 2.864,441.993 4.105,441.993 C5.343,441.993 14.005,441.994 14.005,441.994 L13.99,625.719 L4.105,625.719 L4.105,625.719 Z" id="Volume-Down"></path>
                        <path d="M4.105,398.125 C2.493,398.125 0.51,396.021 0.51,394.147 L0.51,218.033 C0.51,216.044 2.864,214.4 4.105,214.4 L14.005,214.4 L13.99,398.125 L4.105,398.125 L4.105,398.125 Z" id="Volume-Up"></path>
                        <path d="M3.919,98.125 C2.307,98.125 0.51,97.021 0.51,95.147 L0.51,3.033 C0.51,1.044 2.555,0.4 3.796,0.4 L9.005,0.4 L8.99,98.125 L3.919,98.125 L3.919,98.125 Z" id="Mute-Switch"></path>
                    </g>
                </g>
                <g id="Body" transform="translate(26.000000, 20.000000)" sketch:type="MSShapeGroup">
                    <path d="M1323.99,52.936 C1290.549,18.667 1243.043,0.543 1186.602,0.543 L188.417,0.543 C131.98,0.543 84.474,18.667 51.03,52.936 C35.022,69.347 22.599,89.103 14.105,111.677 C5.388,134.838 0.97,160.506 0.97,187.99 L0.97,2646.65 C0.97,2674.134 5.388,2699.802 14.105,2722.962 C22.599,2745.537 35.022,2765.293 51.03,2781.704 C84.474,2815.973 131.98,2834.097 188.417,2834.097 L1186.602,2834.097 C1243.043,2834.097 1290.549,2815.973 1323.99,2781.704 C1339.998,2765.293 1352.418,2745.537 1360.916,2722.962 C1369.633,2699.802 1374.049,2674.134 1374.049,2646.65 L1374.049,187.99 C1374.049,160.506 1369.633,134.838 1360.916,111.677 C1352.418,89.103 1339.998,69.347 1323.99,52.936 L1323.99,52.936 Z" id="Front" fill="#F7F7F7"></path>
                    <path d="M687.504,2588.13 C734.987,2588.13 773.627,2626.769 773.627,2674.252 C773.627,2721.735 734.987,2760.374 687.504,2760.374 C640.022,2760.374 601.382,2721.735 601.382,2674.252 C601.382,2626.769 640.022,2588.13 687.504,2588.13 L687.504,2588.13 Z M687.504,2578.8 C634.789,2578.8 592.056,2621.533 592.056,2674.248 C592.056,2726.963 634.789,2769.697 687.504,2769.697 C740.22,2769.697 782.953,2726.963 782.953,2674.248 C782.953,2621.533 740.22,2578.8 687.504,2578.8 L687.504,2578.8 Z" id="Home-Button" fill="#D5D2CF"></path>
                    <g id="Screen" transform="translate(61.000000, 305.000000)">
                        <path d="M6.664,2220.01 L4.368,2219.553 L2.421,2218.252 L1.121,2216.306 L0.664,2214.01 L0.664,6.04 L1.121,3.744 C2.412,1.811 2.435,1.789 4.368,0.497 L6.664,0.04 L1248.644,0.04 L1250.94,0.497 C1251.589,0.931 1252.335,1.246 1252.886,1.798 C1254.407,3.318 1254.249,4.054 1254.644,6.04 L1254.644,2214.01 L1254.187,2216.306 L1252.886,2218.252 L1250.94,2219.553 L1248.644,2220.01 L6.664,2220.01 L6.664,2220.01 Z" id="Screen-Panel" fill="#3E3E3E"></path>
                        <rect id="Screen---Off" fill="#343434" x="6.664" y="6.038" width="1241.98" height="2207.97"></rect>
                    </g>
                    <g id="Top-Sensors" transform="translate(471.000000, 58.000000)" fill="#3E3E3E">
                        <path d="M317.703,98.366 C317.703,103.759 313.321,108.141 307.916,108.141 L131.992,108.141 C126.587,108.141 122.206,103.759 122.206,98.366 C122.206,92.972 126.587,88.591 131.992,88.591 L307.916,88.591 C313.321,88.591 317.703,92.972 317.703,98.366 L317.703,98.366 Z" id="Speaker"></path>
                        <path d="M44.007,96.641 C44.007,108.704 34.221,118.49 22.157,118.49 C10.094,118.49 0.308,108.704 0.308,96.641 C0.308,84.577 10.094,74.791 22.157,74.791 C34.221,74.791 44.007,84.577 44.007,96.641 L44.007,96.641 Z" id="Camera"></path>
                        <path d="M221.104,0.042 C228.729,0.042 234.904,6.218 234.904,13.842 C234.904,21.466 228.729,27.642 221.104,27.642 C213.48,27.642 207.305,21.466 207.305,13.842 C207.305,6.218 213.48,0.042 221.104,0.042 L221.104,0.042 Z" id="Light-Sensor"></path>
                    </g>
                </g>
            </g>
        </g>
    </g>
</svg>