<?xml version="1.0" encoding="UTF-8" standalone="no"?>
<svg width="764px" height="1603px" viewBox="0 0 764 1603" version="1.1" xmlns="http://www.w3.org/2000/svg" xmlns:xlink="http://www.w3.org/1999/xlink" xmlns:sketch="http://www.bohemiancoding.com/sketch/ns">
    <!-- Generator: Sketch 3.3.3 (12072) - http://www.bohemiancoding.com/sketch -->
    <title>iPhone 5 Black</title>
    <desc>Created with Sketch.</desc>
    <defs></defs>
    <g id="iPhone" stroke="none" stroke-width="1" fill="none" fill-rule="evenodd" sketch:type="MSPage">
        <g id="iPhone-5" sketch:type="MSArtboardGroup" transform="translate(-618.000000, -199.000000)">
            <g id="iPhone-5-Black" sketch:type="MSLayerGroup" transform="translate(618.000000, 199.000000)">
                <g id="Frame" fill="#565554" sketch:type="MSShapeGroup">
                    <g id="Button">
                        <path d="M513.505,3.59 L513.505,12.59 L635.505,12.59 L635.505,3.59 L631.514,0.59 L517.514,0.59 L513.505,3.59 L513.505,3.59 Z" id="Power-Button"></path>
                        <path d="M3.505,512.59 L0.505,515.59 L0.505,565.59 L3.505,568.59 L12.505,568.59 L12.505,512.59 L3.505,512.59 L3.505,512.59 Z" id="Volume-Down-Button"></path>
                        <path d="M3.505,379.59 L0.505,382.59 L0.505,432.59 L3.505,435.59 L12.505,435.59 L12.505,379.59 L3.505,379.59 L3.505,379.59 Z" id="Volume-Up-Button"></path>
                        <path d="M3.505,228.59 L0.505,231.59 L0.505,298.59 L3.505,301.59 L12.505,301.59 L12.505,228.59 L3.505,228.59 L3.505,228.59 Z" id="Mute-Switch"></path>
                    </g>
                    <path d="M9.505,121.6 C9.505,91.68 21.175,63.55 42.355,42.39 C63.535,21.24 91.685,9.59 121.635,9.59 L651.375,9.59 C681.325,9.59 709.475,21.24 730.655,42.39 C751.845,63.55 763.505,91.68 763.505,121.6 L763.505,1490.58 C763.505,1520.502 751.845,1548.634 730.655,1569.791 C709.475,1590.944 681.325,1602.594 651.375,1602.594 L121.635,1602.594 C91.685,1602.594 63.535,1590.944 42.355,1569.791 C21.175,1548.634 9.505,1520.502 9.505,1490.58 L9.505,121.6 L9.505,121.6 Z" id="Frame1"></path>
                </g>
                <g id="Body" transform="translate(18.000000, 18.000000)" sketch:type="MSShapeGroup">
                    <path d="M103.635,0.584 L633.375,0.584 C690.245,0.584 736.505,46.796 736.505,103.599 L736.505,1471.569 C736.505,1528.369 690.245,1574.579 633.375,1574.579 L103.635,1574.579 C46.775,1574.579 0.505,1528.369 0.505,1471.569 L0.505,103.599 C0.505,46.796 46.775,0.584 103.635,0.584 L103.635,0.584 Z" id="Front" fill="#343434"></path>
                    <g id="Home-Button" transform="translate(300.000000, 1400.000000)">
                        <path d="M68.063,0.15 C105.593,0.15 136.063,30.619 136.063,68.15 C136.063,105.68 105.593,136.15 68.063,136.15 C30.533,136.15 0.063,105.68 0.063,68.15 C0.063,30.619 30.533,0.15 68.063,0.15 L68.063,0.15 Z M68.063,5.22 C102.794,5.22 130.992,33.417 130.992,68.149 C130.992,102.88 102.794,131.077 68.063,131.077 C33.332,131.077 5.134,102.88 5.134,68.149 C5.134,33.417 33.332,5.22 68.063,5.22 L68.063,5.22 Z" id="Home-Button-Circle" fill="#3E3E3E"></path>
                        <path d="M51.879,92.65 C51.56,92.648 51.242,92.632 50.924,92.595 C50.309,92.525 49.701,92.385 49.117,92.179 C47.979,91.778 46.934,91.126 46.071,90.283 C45.184,89.417 44.494,88.355 44.068,87.192 C43.855,86.611 43.708,86.006 43.63,85.392 C43.59,85.077 43.57,84.759 43.564,84.441 C43.495,73.58 43.495,62.719 43.564,51.858 C43.57,51.54 43.59,51.223 43.63,50.907 C43.708,50.293 43.855,49.688 44.068,49.107 C44.494,47.944 45.184,46.882 46.071,46.016 C46.934,45.174 47.979,44.521 49.117,44.12 C49.701,43.914 50.309,43.774 50.924,43.704 C51.206,43.672 51.488,43.656 51.771,43.65 C62.632,43.582 73.494,43.582 84.355,43.65 C84.673,43.656 84.99,43.676 85.306,43.717 C85.919,43.795 86.524,43.942 87.105,44.155 C88.269,44.581 89.331,45.271 90.196,46.157 C91.039,47.021 91.691,48.065 92.092,49.203 C92.298,49.788 92.438,50.395 92.509,51.011 C92.541,51.293 92.557,51.575 92.562,51.858 C92.631,62.719 92.631,73.58 92.562,84.441 C92.556,84.759 92.536,85.077 92.496,85.392 C92.418,86.006 92.271,86.611 92.058,87.192 C91.632,88.355 90.942,89.417 90.055,90.283 C89.192,91.126 88.147,91.778 87.009,92.179 C86.425,92.385 85.817,92.525 85.201,92.595 C84.92,92.628 84.638,92.644 84.355,92.649 C73.53,92.718 62.704,92.65 51.879,92.65 L51.879,92.65 Z M51.898,87.15 C62.719,87.15 73.544,87.489 84.359,87.147 C84.443,87.144 84.527,87.137 84.611,87.127 C84.896,87.089 85.172,87.01 85.433,86.889 C86.103,86.576 86.639,85.994 86.894,85.299 C87.003,85.002 87.057,84.688 87.063,84.372 C87.132,73.532 87.407,62.687 87.061,51.854 C87.048,51.562 86.994,51.274 86.894,51 C86.61,50.226 85.982,49.602 85.209,49.318 C84.914,49.209 84.602,49.156 84.288,49.15 C73.448,49.088 62.601,48.795 51.767,49.152 C51.477,49.164 51.189,49.217 50.917,49.318 C50.155,49.598 49.533,50.209 49.244,50.968 C49.127,51.275 49.07,51.6 49.063,51.928 C48.998,62.767 48.723,73.613 49.065,84.447 C49.079,84.761 49.141,85.07 49.256,85.363 C49.528,86.052 50.078,86.62 50.757,86.918 C51.031,87.038 51.323,87.11 51.621,87.138 C51.713,87.146 51.805,87.149 51.898,87.15 L51.898,87.15 Z" id="Rounded-Rectangle-Symbol" fill="#D5D2CF"></path>
                    </g>
                    <g id="Screen" transform="translate(39.000000, 211.000000)" fill="#343434">
                        <path d="M8.505,1152.59 C7.681,1152.459 6.826,1152.456 6.033,1152.198 C4.426,1151.676 3.026,1150.659 2.033,1149.292 C1.542,1148.617 1.154,1147.855 0.897,1147.062 C0.639,1146.268 0.636,1145.414 0.505,1144.59 L0.505,8.59 C0.636,7.766 0.639,6.911 0.897,6.118 C1.419,4.511 2.436,3.111 3.803,2.118 C4.478,1.627 5.239,1.239 6.033,0.981 C6.826,0.723 7.681,0.72 8.505,0.59 L648.505,0.59 C649.329,0.72 650.184,0.723 650.977,0.981 C652.584,1.503 653.984,2.521 654.977,3.887 C655.468,4.562 655.856,5.324 656.113,6.118 C656.371,6.911 656.374,7.766 656.505,8.59 L656.505,1144.59 C656.374,1145.414 656.371,1146.268 656.113,1147.062 C655.591,1148.669 654.574,1150.069 653.207,1151.062 C652.532,1151.552 651.771,1151.94 650.977,1152.198 C650.184,1152.456 649.329,1152.459 648.505,1152.59 L8.505,1152.59 L8.505,1152.59 Z" id="Screen-Frame"></path>
                        <rect x="8.505" y="8.59" width="640" height="1136"></rect>
                    </g>
                    <g id="Top-Sensors" transform="translate(303.000000, 55.000000)" fill="#3E3E3E">
                        <path d="M8.505,65.59 L118.505,65.59 C122.915,65.59 126.505,69.179 126.505,73.59 C126.505,78.001 122.915,81.59 118.505,81.59 L8.505,81.59 C4.095,81.59 0.505,78.001 0.505,73.59 C0.505,69.179 4.095,65.59 8.505,65.59 L8.505,65.59 Z" id="Speaker"></path>
                        <path d="M64.505,0.223 C72.235,0.223 78.505,6.491 78.505,14.223 C78.505,21.955 72.235,28.223 64.505,28.223 C56.775,28.223 50.505,21.955 50.505,14.223 C50.505,6.491 56.775,0.223 64.505,0.223 L64.505,0.223 Z" id="Camera"></path>
                    </g>
                </g>
            </g>
        </g>
    </g>
</svg>