<?xml version="1.0" encoding="UTF-8" standalone="no"?>
<svg width="764px" height="1603px" viewBox="0 0 764 1603" version="1.1" xmlns="http://www.w3.org/2000/svg" xmlns:xlink="http://www.w3.org/1999/xlink" xmlns:sketch="http://www.bohemiancoding.com/sketch/ns">
    <!-- Generator: Sketch 3.3.3 (12072) - http://www.bohemiancoding.com/sketch -->
    <title>iPhone 5c</title>
    <desc>Created with Sketch.</desc>
    <defs></defs>
    <g id="iPhone" stroke="none" stroke-width="1" fill="none" fill-rule="evenodd" sketch:type="MSPage">
        <g id="iPhone-5c" sketch:type="MSArtboardGroup" transform="translate(-618.000000, -200.000000)">
            <g sketch:type="MSLayerGroup" transform="translate(617.500000, 199.000000)">
                <g transform="translate(0.967324, 0.763108)" sketch:type="MSShapeGroup">
                    <g id="Frame" fill="#86CD6C">
                        <g id="Button">
                            <path d="M513.5,3.58 L513.5,12.58 L635.5,12.58 L635.5,3.58 L631.509,0.58 L517.509,0.58 L513.5,3.58 L513.5,3.58 Z" id="Power-Button"></path>
                            <path d="M3.5,512.58 L0.5,515.58 L0.5,565.58 L3.5,568.58 L12.5,568.58 L12.5,512.58 L3.5,512.58 L3.5,512.58 Z" id="Volume-Down-Button"></path>
                            <path d="M3.5,379.58 L0.5,382.58 L0.5,432.58 L3.5,435.58 L12.5,435.58 L12.5,379.58 L3.5,379.58 L3.5,379.58 Z" id="Volume-Up-Button"></path>
                            <path d="M3.5,228.58 L0.5,231.58 L0.5,298.58 L3.5,301.58 L12.5,301.58 L12.5,228.58 L3.5,228.58 L3.5,228.58 Z" id="Mute-Switch"></path>
                        </g>
                        <path d="M9.5,121.59 C9.5,91.67 21.17,63.54 42.35,42.38 C63.53,21.23 91.68,9.58 121.63,9.58 L651.37,9.58 C681.32,9.58 709.47,21.23 730.65,42.38 C751.84,63.54 763.5,91.67 763.5,121.59 L763.5,1490.57 C763.5,1520.492 751.84,1548.624 730.65,1569.781 C709.47,1590.934 681.32,1602.584 651.37,1602.584 L121.63,1602.584 C91.68,1602.584 63.53,1590.934 42.35,1569.781 C21.17,1548.624 9.5,1520.492 9.5,1490.57 L9.5,121.59 L9.5,121.59 Z" id="Frame1"></path>
                    </g>
                    <g id="Body" transform="translate(18.000000, 18.000000)">
                        <path d="M103.63,0.574 L633.37,0.574 C690.24,0.574 736.5,46.786 736.5,103.589 L736.5,1471.559 C736.5,1528.359 690.24,1574.569 633.37,1574.569 L103.63,1574.569 C46.77,1574.569 0.5,1528.359 0.5,1471.559 L0.5,103.589 C0.5,46.786 46.77,0.574 103.63,0.574 L103.63,0.574 Z" id="Front" fill="#343434"></path>
                        <g id="Home-Button" transform="translate(300.000000, 1400.000000)">
                            <path d="M68.058,0.14 C105.588,0.14 136.058,30.609 136.058,68.14 C136.058,105.67 105.588,136.14 68.058,136.14 C30.528,136.14 0.058,105.67 0.058,68.14 C0.058,30.609 30.528,0.14 68.058,0.14 L68.058,0.14 Z M68.058,5.21 C102.789,5.21 130.987,33.407 130.987,68.139 C130.987,102.87 102.789,131.067 68.058,131.067 C33.327,131.067 5.129,102.87 5.129,68.139 C5.129,33.407 33.327,5.21 68.058,5.21 L68.058,5.21 Z" id="Home-Button-Circle" fill="#3E3E3E"></path>
                            <path d="M51.874,92.64 C51.555,92.638 51.237,92.622 50.919,92.585 C50.304,92.515 49.696,92.375 49.112,92.169 C47.974,91.768 46.929,91.116 46.066,90.273 C45.179,89.407 44.489,88.345 44.063,87.182 C43.85,86.601 43.703,85.996 43.625,85.382 C43.585,85.067 43.565,84.749 43.559,84.431 C43.49,73.57 43.49,62.709 43.559,51.848 C43.565,51.53 43.585,51.213 43.625,50.897 C43.703,50.283 43.85,49.678 44.063,49.097 C44.489,47.934 45.179,46.872 46.066,46.006 C46.929,45.164 47.974,44.511 49.112,44.11 C49.696,43.904 50.304,43.764 50.919,43.694 C51.201,43.662 51.483,43.646 51.766,43.64 C62.627,43.572 73.489,43.572 84.35,43.64 C84.668,43.646 84.985,43.666 85.301,43.707 C85.914,43.785 86.519,43.932 87.1,44.145 C88.264,44.571 89.326,45.261 90.191,46.147 C91.034,47.011 91.686,48.055 92.087,49.193 C92.293,49.778 92.433,50.385 92.504,51.001 C92.536,51.283 92.552,51.565 92.557,51.848 C92.626,62.709 92.626,73.57 92.557,84.431 C92.551,84.749 92.531,85.067 92.491,85.382 C92.413,85.996 92.266,86.601 92.053,87.182 C91.627,88.345 90.937,89.407 90.05,90.273 C89.187,91.116 88.142,91.768 87.004,92.169 C86.42,92.375 85.812,92.515 85.196,92.585 C84.915,92.618 84.633,92.634 84.35,92.639 C73.525,92.708 62.699,92.64 51.874,92.64 L51.874,92.64 Z M51.893,87.14 C62.714,87.14 73.539,87.479 84.354,87.137 C84.438,87.134 84.522,87.127 84.606,87.117 C84.891,87.079 85.167,87 85.428,86.879 C86.098,86.566 86.634,85.984 86.889,85.289 C86.998,84.992 87.052,84.678 87.058,84.362 C87.127,73.522 87.402,62.677 87.056,51.844 C87.043,51.552 86.989,51.264 86.889,50.99 C86.605,50.216 85.977,49.592 85.204,49.308 C84.909,49.199 84.597,49.146 84.283,49.14 C73.443,49.078 62.596,48.785 51.762,49.142 C51.472,49.154 51.184,49.207 50.912,49.308 C50.15,49.588 49.528,50.199 49.239,50.958 C49.122,51.265 49.065,51.59 49.058,51.918 C48.993,62.757 48.718,73.603 49.06,84.437 C49.074,84.751 49.136,85.06 49.251,85.353 C49.523,86.042 50.073,86.61 50.752,86.908 C51.026,87.028 51.318,87.1 51.616,87.128 C51.708,87.136 51.8,87.139 51.893,87.14 L51.893,87.14 Z" id="Rounded-Rectangle-Symbol" fill="#D5D2CF"></path>
                        </g>
                        <g id="Screen" transform="translate(39.000000, 211.000000)" fill="#343434">
                            <path d="M8.5,1152.58 C7.676,1152.449 6.821,1152.446 6.028,1152.188 C4.421,1151.666 3.021,1150.649 2.028,1149.282 C1.537,1148.607 1.149,1147.845 0.892,1147.052 C0.634,1146.258 0.631,1145.404 0.5,1144.58 L0.5,8.58 C0.631,7.756 0.634,6.901 0.892,6.108 C1.414,4.501 2.431,3.101 3.798,2.108 C4.473,1.617 5.234,1.229 6.028,0.971 C6.821,0.713 7.676,0.71 8.5,0.58 L648.5,0.58 C649.324,0.71 650.179,0.713 650.972,0.971 C652.579,1.493 653.979,2.511 654.972,3.877 C655.463,4.552 655.851,5.314 656.108,6.108 C656.366,6.901 656.369,7.756 656.5,8.58 L656.5,1144.58 C656.369,1145.404 656.366,1146.258 656.108,1147.052 C655.586,1148.659 654.569,1150.059 653.202,1151.052 C652.527,1151.542 651.766,1151.93 650.972,1152.188 C650.179,1152.446 649.324,1152.449 648.5,1152.58 L8.5,1152.58 L8.5,1152.58 Z" id="Screen-Frame"></path>
                            <rect id="Screen1" x="8.5" y="8.58" width="640" height="1136"></rect>
                        </g>
                        <g id="Top-Sensors" transform="translate(303.000000, 55.000000)" fill="#3E3E3E">
                            <path d="M8.5,65.58 L118.5,65.58 C122.91,65.58 126.5,69.169 126.5,73.58 C126.5,77.991 122.91,81.58 118.5,81.58 L8.5,81.58 C4.09,81.58 0.5,77.991 0.5,73.58 C0.5,69.169 4.09,65.58 8.5,65.58 L8.5,65.58 Z" id="Speaker"></path>
                            <path d="M64.5,0.213 C72.23,0.213 78.5,6.481 78.5,14.213 C78.5,21.945 72.23,28.213 64.5,28.213 C56.77,28.213 50.5,21.945 50.5,14.213 C50.5,6.481 56.77,0.213 64.5,0.213 L64.5,0.213 Z" id="Camera"></path>
                        </g>
                    </g>
                </g>
            </g>
        </g>
    </g>
</svg>