<?xml version="1.0" encoding="UTF-8"?>
<svg width="866px" height="1764px" viewBox="0 0 866 1764" version="1.1" xmlns="http://www.w3.org/2000/svg" xmlns:xlink="http://www.w3.org/1999/xlink">
    <!-- Generator: Sketch 41.2 (35397) - http://www.bohemiancoding.com/sketch -->
    <title>iPhone 6-6s Gold</title>
    <desc>Created with Sketch.</desc>
    <defs></defs>
    <g id="iPhone" stroke="none" stroke-width="1" fill="none" fill-rule="evenodd">
        <g id="iPhone-6-6s" transform="translate(-4567.000000, -118.000000)">
            <g id="iPhone-6-6s-Gold" transform="translate(4567.000000, 118.000000)">
                <g id="Frame" fill="#DCC6AA">
                    <path d="M860.481,508.18 L860.986,1618.58 C860.986,1705.327 811.676,1763.075 722.476,1763.075 L487.991,1763.075 C484.189,1763.075 478.792,1760.054 474.991,1760.054 L390.991,1760.054 C387.19,1760.054 381.793,1763.074 377.991,1763.075 C377.775,1763.076 195.228,1763.075 194.991,1763.075 C187.525,1763.075 184.579,1759.075 170.954,1759.075 C157.329,1759.075 149.952,1763.075 146.991,1763.075 L143.516,1763.075 C54.35,1763.075 5.047,1705.374 5.007,1618.686 C4.672,1618.647 4.502,1618.614 4.502,1618.585 L4.502,672.655 C4.502,670.095 6.084,665.845 6.521,663.965 C6.958,662.095 7.728,659.285 7.728,656.905 L7.728,386.245 C7.728,384.875 7.229,379.455 6.646,378.495 C6.063,377.545 4.502,371.295 4.502,370.045 L4.502,144.549 C4.502,57.802 53.809,0.054 143.011,0.054 L721.971,0.054 C811.171,0.054 860.481,57.802 860.481,144.549 L860.481,371.725 C860.481,372.295 859.831,372.875 859.461,373.495 C859.081,374.125 858.271,375.585 858.271,378.855 L858.271,501.045 C858.271,504.325 859.081,505.775 859.461,506.405 C859.831,507.025 860.481,507.615 860.481,508.175 L860.481,508.18 Z" id="Shape"></path>
                    <g id="Button" transform="translate(0.000000, 224.000000)">
                        <path d="M856.491,282.07 L862.124,282.07 C863.419,282.07 865.491,281 865.491,278.68 L865.491,154.46 C865.491,152.14 863.419,151.07 862.124,151.07 L856.491,151.07 L856.491,282.07 L856.491,282.07 Z" id="Power-Button"></path>
                        <path d="M9.491,312.07 L3.858,312.07 C2.563,312.07 0.491,313.14 0.491,315.46 L0.491,439.68 C0.491,442 2.563,443.07 3.858,443.07 L9.491,443.07 L9.491,312.07 L9.491,312.07 Z" id="Volume-Down"></path>
                        <path d="M9.491,282.07 L3.858,282.07 C2.563,282.07 0.491,281 0.491,278.68 L0.491,154.46 C0.491,152.14 2.563,151.07 3.858,151.07 L9.491,151.07 L9.491,282.07 L9.491,282.07 Z" id="Volume-Up"></path>
                        <path d="M6.504,0.737 L6.504,70.737 L2.608,70.737 C1.612,70.737 0.501,69.941 0.501,68.6 L0.501,2.622 C0.501,1.198 1.765,0.737 2.531,0.737 L6.504,0.737 L6.504,0.737 Z" id="Mute-Switch"></path>
                    </g>
                </g>
                <g id="Body" transform="translate(17.000000, 13.000000)">
                    <path d="M759.471,9.532 C743.531,3.247 725.191,0.059 704.961,0.059 L126.021,0.059 C105.789,0.059 87.449,3.247 71.508,9.532 C56.385,15.496 43.372,24.275 32.831,35.625 C11.681,58.4 0.502,91.571 0.502,131.554 L0.502,1606.584 C0.502,1646.574 11.681,1679.744 32.831,1702.514 C43.372,1713.874 56.385,1722.644 71.508,1728.614 C87.449,1734.894 105.789,1738.084 126.021,1738.084 L704.961,1738.084 C725.191,1738.084 743.531,1734.894 759.471,1728.614 C774.601,1722.644 787.611,1713.874 798.151,1702.514 C819.301,1679.744 830.481,1646.574 830.481,1606.584 L830.481,131.554 C830.481,91.571 819.301,58.4 798.151,35.625 C787.611,24.275 774.601,15.496 759.471,9.532 L759.471,9.532 Z" id="Front" fill="#F7F7F7"></path>
                    <path d="M415,1574.64662 C448.826165,1574.64662 476.353383,1602.17383 476.353383,1636 C476.353383,1669.82617 448.826165,1697.35338 415,1697.35338 C381.173835,1697.35338 353.646617,1669.82617 353.646617,1636 C353.646617,1602.17383 381.173835,1574.64662 415,1574.64662 L415,1574.64662 Z M415,1568 C377.441504,1568 347,1598.4415 347,1636 C347,1673.5585 377.441504,1704 415,1704 C452.558496,1704 483,1673.5585 483,1636 C483,1598.4415 452.558496,1568 415,1568 L415,1568 Z" id="Home-Button" fill="#DCC6AA"></path>
                    <g id="Screen" transform="translate(36.000000, 198.000000)">
                        <path d="M4.491,0.071 L2.96,0.375 L1.663,1.242 L0.795,2.54 L0.491,4.071 L0.491,1338.071 L0.795,1339.601 L1.663,1340.899 L2.96,1341.766 L4.491,1342.071 L754.491,1342.071 L756.022,1341.766 L757.319,1340.899 L758.187,1339.601 L758.491,1338.071 L758.491,4.071 L758.187,2.54 C757.325,1.251 757.31,1.236 756.022,0.375 L754.491,0.071 L4.491,0.071 L4.491,0.071 Z" id="Screen-Panel" fill="#3E3E3E"></path>
                        <rect id="Screen---off" fill="#343434" x="4.491" y="4.07" width="750" height="1334"></rect>
                    </g>
                    <g id="Top-Sensors" transform="translate(264.000000, 35.000000)" fill="#3E3E3E">
                        <path d="M0.491,63.57 C0.491,71.578 6.981,78.07 14.991,78.07 C23.001,78.07 29.491,71.578 29.491,63.57 C29.491,55.562 23.001,49.07 14.991,49.07 C6.981,49.07 0.491,55.562 0.491,63.57 L0.491,63.57 Z" id="Camera"></path>
                        <path d="M151.491,0.07 C156.461,0.07 160.491,4.099 160.491,9.07 C160.491,14.04 156.461,18.07 151.491,18.07 C146.521,18.07 142.491,14.04 142.491,9.07 C142.491,4.099 146.521,0.07 151.491,0.07 L151.491,0.07 Z" id="Light-Sensor"></path>
                        <path d="M82.481,63.07 C82.481,67.491 86.111,71.074 90.591,71.074 L213.391,71.074 C217.871,71.074 221.501,67.491 221.501,63.07 C221.501,58.649 217.871,55.066 213.391,55.066 L90.591,55.066 C86.111,55.066 82.481,58.649 82.481,63.07 L82.481,63.07 Z" id="Speaker"></path>
                    </g>
                </g>
            </g>
        </g>
    </g>
</svg>