<?xml version="1.0" encoding="UTF-8" standalone="no"?>
<svg width="1427px" height="2874px" viewBox="0 0 1427 2874" version="1.1" xmlns="http://www.w3.org/2000/svg" xmlns:xlink="http://www.w3.org/1999/xlink" xmlns:sketch="http://www.bohemiancoding.com/sketch/ns">
    <!-- Generator: Sketch 3.3.3 (12072) - http://www.bohemiancoding.com/sketch -->
    <title>iPhone 6-6s Plus Rose Gold</title>
    <desc>Created with Sketch.</desc>
    <defs></defs>
    <g id="iPhone" stroke="none" stroke-width="1" fill="none" fill-rule="evenodd" sketch:type="MSPage">
        <g id="iPhone-6-6s-Plus" sketch:type="MSArtboardGroup" transform="translate(-6287.000000, -395.000000)">
            <g id="iPhone-6-6s-Plus-Rose-Gold" sketch:type="MSLayerGroup" transform="translate(6287.000000, 395.000000)">
                <g id="Frame" fill="#DDB1AD" sketch:type="MSShapeGroup">
                    <path d="M1419.58,2666.21 C1419.58,2786.763 1340.265,2873.207 1212.583,2873.207 L792.991,2873.207 C785.999,2873.207 779.883,2867.207 772.891,2867.207 L652.291,2867.207 C645.299,2867.207 639.183,2873.207 632.191,2873.207 C627.055,2873.207 321.739,2873.236 316.868,2873.207 C303.638,2873.126 302.155,2864.239 265.691,2864.207 C229.227,2864.174 226.779,2873.207 214.398,2873.207 C86.715,2873.207 7.401,2786.763 7.401,2666.21 L7.401,980.68 C7.401,977.011 9.668,970.928 10.294,968.237 C10.921,965.557 12.025,961.532 12.025,958.129 L12.025,567.05 C12.025,565.072 11.309,559.048 10.474,557.68 C9.638,556.3 7.401,549.08 7.401,547.286 L7.401,207.547 C7.401,86.994 86.715,0.55 214.398,0.55 L1212.583,0.55 C1340.265,0.55 1419.58,86.994 1419.58,207.547 L1419.58,545.078 C1419.58,545.894 1418.637,546.745 1418.096,547.654 C1417.544,548.562 1416.371,550.678 1416.371,555.439 L1416.371,733.134 C1416.371,737.884 1417.544,740.011 1418.096,740.92 C1418.637,741.828 1419.58,742.679 1419.58,743.496 L1419.58,2666.206 L1419.58,2666.21 Z" id="Frame1"></path>
                    <g id="Buttons" transform="translate(0.000000, 340.000000)">
                        <path d="M1426.49,376.634 L1426.49,391.147 C1426.49,391.147 1426.597,392.741 1425.619,394.493 C1424.74,396.069 1422.566,397.781 1420.894,397.781 L1412.994,397.781 L1413.002,302.867 L1412.994,207.953 L1420.894,207.953 C1422.566,207.953 1424.74,209.664 1425.619,211.24 C1426.597,212.992 1426.49,214.586 1426.49,214.586 L1426.49,376.634 L1426.49,376.634 Z" id="Power"></path>
                        <path d="M4.088,626.275 C2.476,626.275 0.493,624.171 0.493,622.297 L0.493,446.183 C0.493,444.194 2.847,442.55 4.088,442.55 L13.988,442.55 L13.973,626.275 L4.088,626.275 L4.088,626.275 Z" id="Volume-Down"></path>
                        <path d="M4.088,398.681 C2.476,398.681 0.493,396.578 0.493,394.703 L0.493,218.589 C0.493,216.6 2.847,214.956 4.088,214.956 L13.988,214.956 L13.973,398.681 L4.088,398.681 L4.088,398.681 Z" id="Volume-Up"></path>
                        <path d="M3.902,98.681 C2.29,98.681 0.493,97.578 0.493,95.703 L0.493,3.589 C0.493,1.6 2.539,0.956 3.779,0.956 L8.988,0.956 L8.973,98.681 L3.902,98.681 L3.902,98.681 Z" id="Mute-Switch"></path>
                    </g>
                </g>
                <g id="Body" transform="translate(26.000000, 20.000000)" sketch:type="MSShapeGroup">
                    <path d="M1323.97,52.493 C1290.529,18.223 1243.023,0.099 1186.582,0.099 L188.397,0.099 C131.961,0.099 84.454,18.223 51.01,52.493 C35.002,68.903 22.579,88.66 14.085,111.234 C5.368,134.394 0.95,160.062 0.95,187.547 L0.95,2646.207 C0.95,2673.691 5.368,2699.359 14.085,2722.52 C22.579,2745.094 35.002,2764.851 51.01,2781.261 C84.454,2815.53 131.961,2833.654 188.397,2833.654 L1186.582,2833.654 C1243.023,2833.654 1290.529,2815.53 1323.97,2781.261 C1339.978,2764.851 1352.398,2745.094 1360.896,2722.52 C1369.613,2699.359 1374.029,2673.691 1374.029,2646.207 L1374.029,187.547 C1374.029,160.062 1369.613,134.394 1360.896,111.234 C1352.398,88.66 1339.978,68.903 1323.97,52.493 L1323.97,52.493 Z" id="Front" fill="#F7F7F7"></path>
                    <path d="M687.488,2587.69 C734.97,2587.69 773.61,2626.33 773.61,2673.812 C773.61,2721.295 734.97,2759.935 687.488,2759.935 C640.005,2759.935 601.365,2721.295 601.365,2673.812 C601.365,2626.33 640.005,2587.69 687.488,2587.69 L687.488,2587.69 Z M687.488,2578.36 C634.772,2578.36 592.039,2621.093 592.039,2673.808 C592.039,2726.524 634.772,2769.257 687.488,2769.257 C740.203,2769.257 782.936,2726.524 782.936,2673.808 C782.936,2621.093 740.203,2578.36 687.488,2578.36 L687.488,2578.36 Z" id="Home-Button" fill="#DDB1AD"></path>
                    <g id="Screen" transform="translate(61.000000, 304.000000)">
                        <path d="M6.647,2220.56 L4.351,2220.103 L2.404,2218.803 L1.104,2216.856 L0.647,2214.56 L0.647,6.59 L1.104,4.294 C2.395,2.36 2.418,2.338 4.351,1.046 L6.647,0.59 L1248.627,0.59 L1250.923,1.046 C1251.572,1.48 1252.318,1.795 1252.87,2.347 C1254.39,3.867 1254.232,4.603 1254.627,6.59 L1254.627,2214.56 L1254.17,2216.856 L1252.87,2218.803 L1250.923,2220.103 L1248.627,2220.56 L6.647,2220.56 L6.647,2220.56 Z" id="Screen-Panel" fill="#3E3E3E"></path>
                        <rect id="Screen---Off" fill="#343434" x="6.647" y="6.595" width="1241.98" height="2207.97"></rect>
                    </g>
                    <g id="Top-Sensors" transform="translate(471.000000, 57.000000)" fill="#3E3E3E">
                        <path d="M317.686,98.922 C317.686,104.315 313.305,108.697 307.9,108.697 L131.975,108.697 C126.57,108.697 122.189,104.315 122.189,98.922 C122.189,93.529 126.57,89.147 131.975,89.147 L307.9,89.147 C313.305,89.147 317.686,93.529 317.686,98.922 L317.686,98.922 Z" id="Speaker"></path>
                        <path d="M43.99,97.197 C43.99,109.26 34.204,119.047 22.141,119.047 C10.077,119.047 0.291,109.26 0.291,97.197 C0.291,85.134 10.077,75.347 22.141,75.347 C34.204,75.347 43.99,85.134 43.99,97.197 L43.99,97.197 Z" id="Camera"></path>
                        <path d="M221.088,0.599 C228.712,0.599 234.887,6.774 234.887,14.398 C234.887,22.023 228.712,28.198 221.088,28.198 C213.463,28.198 207.288,22.023 207.288,14.398 C207.288,6.774 213.463,0.599 221.088,0.599 L221.088,0.599 Z" id="Light-Sensor"></path>
                    </g>
                </g>
            </g>
        </g>
    </g>
</svg>