<svg xmlns="http://www.w3.org/2000/svg" width="866" height="1764" viewBox="0 0 866 1764">
  <g fill="none" fill-rule="evenodd">
    <g fill="#DCC6AA">
      <path d="M4.5,1618.57441 L4.5,672.653513 C4.5,670.093525 6.08199258,665.844212 6.51905719,663.964221 C6.95598847,662.093563 7.72598486,659.284243 7.72598486,656.904254 L7.72598486,386.248191 C7.72598486,384.874864 7.22705387,379.461556 6.64398994,378.50156 C6.06105934,377.541565 4.5,371.301594 4.5,370.048267 L4.5,144.555992 C4.5,57.809732 53.8068353,0.0500030518 143.008683,0.0500030518 L721.965966,0.0500030518 C811.165548,0.0500030518 860.47465,57.809732 860.47465,144.555992 L860.47465,371.728259 C860.47465,372.301589 859.825319,372.87492 859.454654,373.501584 C859.074656,374.128247 858.265327,375.581574 858.265327,378.861559 L858.265327,501.044985 C858.265327,504.32497 859.074656,505.774296 859.454654,506.40496 C859.825319,507.024957 860.47465,507.614288 860.47465,508.174285 L860.47465,508.179618 L860.97998,1618.57441 C860.97998,1705.3204 811.670879,1763.068 722.471297,1763.0684 L487.987064,1763.0684 C484.184415,1763.0684 478.788441,1760.04748 474.987125,1760.04748 L390.492855,1760.04748 C386.692873,1760.04748 381.295565,1763.0684 377.492916,1763.0684 L143.008683,1763.0684 C53.8097686,1763.0684 4.5,1705.32067 4.5,1618.57441 Z"/>
      <g transform="translate(0 224)">
        <path d="M856.491 282.07L862.124 282.07C863.419 282.07 865.491 281 865.491 278.68L865.491 154.46C865.491 152.14 863.419 151.07 862.124 151.07L856.491 151.07 856.491 282.07 856.491 282.07zM9.491 312.07L3.858 312.07C2.563 312.07.491 313.14.491 315.46L.491 439.68C.491 442 2.563 443.07 3.858 443.07L9.491 443.07 9.491 312.07 9.491 312.07zM9.491 282.07L3.858 282.07C2.563 282.07.491 281 .491 278.68L.491 154.46C.491 152.14 2.563 151.07 3.858 151.07L9.491 151.07 9.491 282.07 9.491 282.07zM6.504.737L6.504 70.737 2.608 70.737C1.612 70.737.501 69.941.501 68.6L.501 2.622C.501 1.198 1.765.737 2.531.737L6.504.737 6.504.737z"/>
      </g>
    </g>
    <g transform="translate(17 13)">
      <path fill="#F7F7F7" d="M759.469,9.53299756 C743.529,3.24799756 725.189,0.0599975586 704.959,0.0599975586 L126.019,0.0599975586 C105.787,0.0599975586 87.447,3.24799756 71.506,9.53299756 C56.383,15.4969976 43.37,24.2759976 32.829,35.6259976 C11.679,58.4009976 0.5,91.5719976 0.5,131.554998 L0.5,1606.585 C0.5,1646.575 11.679,1679.745 32.829,1702.515 C43.37,1713.875 56.383,1722.645 71.506,1728.615 C87.447,1734.895 105.787,1738.085 126.019,1738.085 L704.959,1738.085 C725.189,1738.085 743.529,1734.895 759.469,1728.615 C774.599,1722.645 787.609,1713.875 798.149,1702.515 C819.299,1679.745 830.479,1646.575 830.479,1606.585 L830.479,131.554998 C830.479,91.5719976 819.299,58.4009976 798.149,35.6259976 C787.609,24.2759976 774.599,15.4969976 759.469,9.53299756 L759.469,9.53299756 Z"/>
      <path fill="#DCC6AA" d="M415,1574.64662 C448.826165,1574.64662 476.353383,1602.17383 476.353383,1636 C476.353383,1669.82617 448.826165,1697.35338 415,1697.35338 C381.173835,1697.35338 353.646617,1669.82617 353.646617,1636 C353.646617,1602.17383 381.173835,1574.64662 415,1574.64662 L415,1574.64662 Z M415,1568 C377.441504,1568 347,1598.4415 347,1636 C347,1673.5585 377.441504,1704 415,1704 C452.558496,1704 483,1673.5585 483,1636 C483,1598.4415 452.558496,1568 415,1568 L415,1568 Z"/>
      <g transform="translate(36 198)">
        <path fill="#3E3E3E" d="M4.491,0.071 L2.96,0.375 L1.663,1.242 L0.795,2.54 L0.491,4.071 L0.491,1338.071 L0.795,1339.601 L1.663,1340.899 L2.96,1341.766 L4.491,1342.071 L754.491,1342.071 L756.022,1341.766 L757.319,1340.899 L758.187,1339.601 L758.491,1338.071 L758.491,4.071 L758.187,2.54 C757.325,1.251 757.31,1.236 756.022,0.375 L754.491,0.071 L4.491,0.071 L4.491,0.071 Z"/>
        <rect width="750" height="1334" x="4.491" y="4.07" fill="#343434"/>
      </g>
      <g fill="#3E3E3E" transform="translate(264 35)">
        <path d="M.491 63.57C.491 71.578 6.981 78.07 14.991 78.07 23.001 78.07 29.491 71.578 29.491 63.57 29.491 55.562 23.001 49.07 14.991 49.07 6.981 49.07.491 55.562.491 63.57L.491 63.57zM151.491.07C156.461.07 160.491 4.099 160.491 9.07 160.491 14.04 156.461 18.07 151.491 18.07 146.521 18.07 142.491 14.04 142.491 9.07 142.491 4.099 146.521.07 151.491.07L151.491.07zM82.481 63.07C82.481 67.491 86.111 71.074 90.591 71.074L213.391 71.074C217.871 71.074 221.501 67.491 221.501 63.07 221.501 58.649 217.871 55.066 213.391 55.066L90.591 55.066C86.111 55.066 82.481 58.649 82.481 63.07L82.481 63.07z"/>
      </g>
    </g>
  </g>
</svg>
