<?xml version="1.0" encoding="UTF-8" standalone="no"?>
<svg width="763px" height="1485px" viewBox="0 0 763 1485" version="1.1" xmlns="http://www.w3.org/2000/svg" xmlns:xlink="http://www.w3.org/1999/xlink" xmlns:sketch="http://www.bohemiancoding.com/sketch/ns">
    <!-- Generator: Sketch 3.3.3 (12072) - http://www.bohemiancoding.com/sketch -->
    <title>iPhone 4s White</title>
    <desc>Created with Sketch.</desc>
    <defs></defs>
    <g id="iPhone" stroke="none" stroke-width="1" fill="none" fill-rule="evenodd" sketch:type="MSPage">
        <g id="iPhone-4s" sketch:type="MSArtboardGroup" transform="translate(-2618.000000, -258.000000)">
            <g id="iPhone-4s-White" sketch:type="MSLayerGroup" transform="translate(2618.000000, 258.000000)">
                <g id="Frame" fill="#D5D2CF" sketch:type="MSShapeGroup">
                    <path d="M9,121.6 C9,91.68 20.67,63.55 41.85,42.39 C63.03,21.24 91.18,9.59 121.13,9.59 L650.87,9.59 C680.82,9.59 708.97,21.24 730.15,42.39 C751.34,63.55 763,91.68 763,121.6 L763,1372.58 C763,1402.502 751.34,1430.634 730.15,1451.791 C708.97,1472.944 680.82,1484.594 650.87,1484.594 L121.13,1484.594 C91.18,1484.594 63.03,1472.944 41.85,1451.791 C20.67,1430.634 9,1402.502 9,1372.58 L9,121.6 L9,121.6 Z" id="Frame1"></path>
                    <g id="Buttons">
                        <path d="M513,3.59 L513,10.59 L635,10.59 L635,3.59 L631.009,0.59 L517.009,0.59 L513,3.59 L513,3.59 Z" id="Top-Button"></path>
                        <path d="M3,429.59 L0,432.59 L0,482.59 L3,485.59 L10,485.59 L10,429.59 L3,429.59 L3,429.59 Z" id="Sound-Down-Button"></path>
                        <path d="M3,305.59 L0,308.59 L0,358.59 L3,361.59 L10,361.59 L10,305.59 L3,305.59 L3,305.59 Z" id="Sound-Up-Button"></path>
                        <path d="M3,168.59 L0,171.59 L0,238.59 L3,241.59 L10,241.59 L10,168.59 L3,168.59 L3,168.59 Z" id="Sound-Switch-Button"></path>
                    </g>
                </g>
                <g id="Body" transform="translate(18.000000, 18.000000)" sketch:type="MSShapeGroup">
                    <path d="M103.13,0.584 L632.87,0.584 C689.74,0.584 736,46.796 736,103.599 L736,1353.569 C736,1410.369 689.74,1456.579 632.87,1456.579 L103.13,1456.579 C46.27,1456.579 0,1410.369 0,1353.569 L0,103.599 C0,46.796 46.27,0.584 103.13,0.584 L103.13,0.584 Z" id="Front" fill="#F7F7F7"></path>
                    <g id="Home-Button" transform="translate(300.000000, 1268.000000)" fill="#D5D2CF">
                        <path d="M68,0.15 C105.53,0.15 136,30.619 136,68.15 C136,105.68 105.53,136.15 68,136.15 C30.47,136.15 0,105.68 0,68.15 C0,30.619 30.47,0.15 68,0.15 L68,0.15 Z M68,5.22 C102.731,5.22 130.929,33.417 130.929,68.149 C130.929,102.88 102.731,131.077 68,131.077 C33.269,131.077 5.071,102.88 5.071,68.149 C5.071,33.417 33.269,5.22 68,5.22 L68,5.22 Z" id="Home-Button-Circle"></path>
                        <path d="M51.816,92.65 C51.497,92.648 51.179,92.632 50.861,92.595 C50.246,92.525 49.638,92.385 49.054,92.179 C47.916,91.778 46.871,91.126 46.008,90.283 C45.121,89.417 44.431,88.355 44.005,87.192 C43.792,86.611 43.645,86.006 43.567,85.392 C43.527,85.077 43.507,84.759 43.501,84.441 C43.432,73.58 43.432,62.719 43.501,51.858 C43.507,51.54 43.527,51.223 43.567,50.907 C43.645,50.293 43.792,49.688 44.005,49.107 C44.431,47.944 45.121,46.882 46.008,46.016 C46.871,45.174 47.916,44.521 49.054,44.12 C49.638,43.914 50.246,43.774 50.861,43.704 C51.143,43.672 51.425,43.656 51.708,43.65 C62.569,43.582 73.431,43.582 84.292,43.65 C84.61,43.656 84.927,43.676 85.243,43.717 C85.856,43.795 86.461,43.942 87.042,44.155 C88.206,44.581 89.268,45.271 90.133,46.157 C90.976,47.021 91.628,48.065 92.029,49.203 C92.236,49.788 92.375,50.395 92.446,51.011 C92.478,51.293 92.494,51.575 92.499,51.858 C92.568,62.719 92.568,73.58 92.499,84.441 C92.493,84.759 92.473,85.077 92.433,85.392 C92.355,86.006 92.208,86.611 91.995,87.192 C91.569,88.355 90.879,89.417 89.992,90.283 C89.129,91.126 88.084,91.778 86.946,92.179 C86.362,92.385 85.754,92.525 85.139,92.595 C84.857,92.628 84.575,92.644 84.292,92.649 C73.467,92.718 62.641,92.65 51.816,92.65 L51.816,92.65 Z M51.835,87.15 C62.656,87.15 73.481,87.489 84.296,87.147 C84.38,87.144 84.464,87.137 84.548,87.127 C84.833,87.089 85.109,87.01 85.37,86.889 C86.04,86.576 86.576,85.994 86.831,85.299 C86.94,85.002 86.994,84.688 87,84.372 C87.069,73.532 87.344,62.687 86.998,51.854 C86.985,51.562 86.931,51.274 86.831,51 C86.547,50.226 85.919,49.602 85.146,49.318 C84.851,49.209 84.539,49.156 84.225,49.15 C73.385,49.088 62.538,48.795 51.704,49.152 C51.414,49.164 51.126,49.217 50.854,49.318 C50.092,49.598 49.47,50.209 49.181,50.968 C49.064,51.275 49.007,51.6 49,51.928 C48.935,62.767 48.66,73.613 49.002,84.447 C49.016,84.761 49.078,85.07 49.193,85.363 C49.465,86.052 50.015,86.62 50.694,86.918 C50.968,87.038 51.26,87.11 51.558,87.138 C51.65,87.146 51.743,87.149 51.835,87.15 L51.835,87.15 Z" id="Rounded-Rectangle-Symbol"></path>
                    </g>
                    <g id="Screen" transform="translate(39.000000, 237.000000)">
                        <path d="M8,0.59 C7.176,0.72 6.321,0.723 5.528,0.981 C4.734,1.239 3.973,1.627 3.298,2.118 C1.931,3.111 0.914,4.511 0.392,6.118 C0.134,6.911 0.131,7.766 0,8.59 L0,968.59 C0.131,969.414 0.134,970.268 0.392,971.062 C0.649,971.855 1.037,972.617 1.528,973.292 C2.521,974.659 3.921,975.676 5.528,976.198 C6.321,976.456 7.176,976.459 8,976.59 L648,976.59 C648.824,976.459 649.679,976.456 650.472,976.198 C652.079,975.676 653.479,974.659 654.472,973.292 C654.963,972.617 655.351,971.855 655.608,971.062 C655.866,970.268 655.87,969.414 656,968.59 L656,8.59 C655.87,7.766 655.866,6.911 655.608,6.118 C655.086,4.511 654.069,3.111 652.702,2.118 C652.027,1.627 651.266,1.239 650.472,0.981 C649.679,0.723 648.824,0.72 648,0.59 L8,0.59 L8,0.59 Z" id="Screen-Panel" fill="#3E3E3E"></path>
                        <rect id="Screen---Off" fill="#343434" x="8" y="8.59" width="640" height="960"></rect>
                    </g>
                    <g id="Top-Sensors" transform="translate(206.000000, 47.000000)" fill="#3E3E3E">
                        <path d="M111,62.59 L221,62.59 C225.41,62.59 229,66.179 229,70.59 C229,75.001 225.41,78.59 221,78.59 L111,78.59 C106.59,78.59 103,75.001 103,70.59 C103,66.179 106.59,62.59 111,62.59 L111,62.59 Z" id="Speaker"></path>
                        <path d="M137,0.59 L196,0.59 C200.41,0.59 204,4.179 204,8.59 C204,13.001 200.41,16.59 196,16.59 L137,16.59 C132.59,16.59 129,13.001 129,8.59 C129,4.179 132.59,0.59 137,0.59 L137,0.59 Z" id="Light-Sensor"></path>
                        <path d="M18.46,52.606 C28.115,52.606 35.939,60.433 35.939,70.087 C35.939,79.74 28.115,87.567 18.46,87.567 C8.805,87.567 0.981,79.74 0.981,70.087 C0.981,60.433 8.805,52.606 18.46,52.606 L18.46,52.606 Z" id="Camera"></path>
                    </g>
                </g>
            </g>
        </g>
    </g>
</svg>