<svg xmlns="http://www.w3.org/2000/svg" width="1427" height="2874" viewBox="0 0 1427 2874">
  <g fill="none" fill-rule="evenodd">
    <g fill="#D5D2CF">
      <path d="M643.436939,2870.93791 C640.364924,2872.33859 637.279576,2873.65699 634.002227,2873.65699 L214.408231,2873.65699 C86.7253562,2873.65699 7.40991211,2787.21258 7.40991211,2666.66001 L7.40991211,981.127988 C7.40991211,977.44797 9.67685623,971.367941 10.3019259,968.674595 C10.9299289,965.994583 12.0339341,961.98123 12.0339341,958.567881 L12.0339341,567.486019 C12.0339341,565.512677 11.3179307,559.485981 10.4828601,558.125975 C9.64698942,556.739302 7.40991211,549.525934 7.40991211,547.725925 L7.40991211,207.990975 C7.40991211,87.4304016 86.7233562,0.989990234 214.408231,0.989990234 L1212.59698,0.989990234 C1340.28026,0.989990234 1419.58997,87.4304016 1419.58997,207.990975 L1419.58997,545.512582 C1419.58997,546.339252 1418.65663,547.179256 1418.10996,548.099261 C1417.56329,549.005932 1416.38995,551.112608 1416.38995,555.885964 L1416.38995,733.580143 C1416.38995,738.326832 1417.56329,740.446843 1418.10996,741.366847 C1418.65663,742.273518 1419.58997,743.126855 1419.58997,743.940193 L1419.58997,2666.66001 C1419.58997,2787.21232 1340.28026,2873.65659 1212.59698,2873.65699 L793.002984,2873.65699 C789.725635,2873.65699 786.64162,2872.33859 783.568272,2870.93791 L782.338933,2870.37605 C779.266919,2868.97551 776.181571,2867.65723 772.904222,2867.65697 L654.102323,2867.65697 C650.824974,2867.65697 647.739626,2868.97537 644.666278,2870.37605 L643.436939,2870.93791 Z"/>
      <g transform="translate(0 341)">
        <path d="M1426.5 376.078L1426.5 390.591C1426.5 390.591 1426.608 392.185 1425.63 393.937 1424.751 395.513 1422.577 397.224 1420.905 397.224L1413.005 397.224 1413.013 302.31 1413.005 207.397 1420.905 207.397C1422.577 207.397 1424.751 209.108 1425.63 210.684 1426.608 212.436 1426.5 214.03 1426.5 214.03L1426.5 376.078 1426.5 376.078zM4.105 625.719C2.493 625.719.51 623.615.51 621.74L.51 445.627C.51 443.637 2.864 441.993 4.105 441.993 5.343 441.993 14.005 441.994 14.005 441.994L13.99 625.719 4.105 625.719 4.105 625.719zM4.105 398.125C2.493 398.125.51 396.021.51 394.147L.51 218.033C.51 216.044 2.864 214.4 4.105 214.4L14.005 214.4 13.99 398.125 4.105 398.125 4.105 398.125zM3.919 98.125C2.307 98.125.51 97.021.51 95.147L.51 3.033C.51 1.044 2.555.4 3.796.4L9.005.4 8.99 98.125 3.919 98.125 3.919 98.125z"/>
      </g>
    </g>
    <g transform="translate(26 20)">
      <path fill="#F7F7F7" d="M1323.99,52.936 C1290.549,18.667 1243.043,0.543 1186.602,0.543 L188.417,0.543 C131.98,0.543 84.474,18.667 51.03,52.936 C35.022,69.347 22.599,89.103 14.105,111.677 C5.388,134.838 0.97,160.506 0.97,187.99 L0.97,2646.65 C0.97,2674.134 5.388,2699.802 14.105,2722.962 C22.599,2745.537 35.022,2765.293 51.03,2781.704 C84.474,2815.973 131.98,2834.097 188.417,2834.097 L1186.602,2834.097 C1243.043,2834.097 1290.549,2815.973 1323.99,2781.704 C1339.998,2765.293 1352.418,2745.537 1360.916,2722.962 C1369.633,2699.802 1374.049,2674.134 1374.049,2646.65 L1374.049,187.99 C1374.049,160.506 1369.633,134.838 1360.916,111.677 C1352.418,89.103 1339.998,69.347 1323.99,52.936 L1323.99,52.936 Z"/>
      <path fill="#D5D2CF" d="M687.504,2588.13 C734.987,2588.13 773.627,2626.769 773.627,2674.252 C773.627,2721.735 734.987,2760.374 687.504,2760.374 C640.022,2760.374 601.382,2721.735 601.382,2674.252 C601.382,2626.769 640.022,2588.13 687.504,2588.13 L687.504,2588.13 Z M687.504,2578.8 C634.789,2578.8 592.056,2621.533 592.056,2674.248 C592.056,2726.963 634.789,2769.697 687.504,2769.697 C740.22,2769.697 782.953,2726.963 782.953,2674.248 C782.953,2621.533 740.22,2578.8 687.504,2578.8 L687.504,2578.8 Z"/>
      <g transform="translate(61 305)">
        <path fill="#3E3E3E" d="M6.664,2220.01 L4.368,2219.553 L2.421,2218.252 L1.121,2216.306 L0.664,2214.01 L0.664,6.04 L1.121,3.744 C2.412,1.811 2.435,1.789 4.368,0.497 L6.664,0.04 L1248.644,0.04 L1250.94,0.497 C1251.589,0.931 1252.335,1.246 1252.886,1.798 C1254.407,3.318 1254.249,4.054 1254.644,6.04 L1254.644,2214.01 L1254.187,2216.306 L1252.886,2218.252 L1250.94,2219.553 L1248.644,2220.01 L6.664,2220.01 L6.664,2220.01 Z"/>
        <rect width="1241.98" height="2207.97" x="6.664" y="6.038" fill="#343434"/>
      </g>
      <g fill="#3E3E3E" transform="translate(471 58)">
        <path d="M317.703 98.366C317.703 103.759 313.321 108.141 307.916 108.141L131.992 108.141C126.587 108.141 122.206 103.759 122.206 98.366 122.206 92.972 126.587 88.591 131.992 88.591L307.916 88.591C313.321 88.591 317.703 92.972 317.703 98.366L317.703 98.366zM44.0090586 98.85C44.0090586 110.913 34.2230586 120.699 22.1590586 120.699 10.0960586 120.699.310058594 110.913.310058594 98.85.310058594 86.786 10.0960586 77 22.1590586 77 34.2230586 77 44.0090586 86.786 44.0090586 98.85L44.0090586 98.85zM221.104.042C228.729.042 234.904 6.218 234.904 13.842 234.904 21.466 228.729 27.642 221.104 27.642 213.48 27.642 207.305 21.466 207.305 13.842 207.305 6.218 213.48.042 221.104.042L221.104.042z"/>
      </g>
    </g>
  </g>
</svg>
