<?xml version="1.0" encoding="UTF-8" standalone="no"?>
<svg width="2836px" height="1634px" viewBox="0 0 2836 1634" version="1.1" xmlns="http://www.w3.org/2000/svg" xmlns:xlink="http://www.w3.org/1999/xlink" xmlns:sketch="http://www.bohemiancoding.com/sketch/ns">
    <!-- Generator: Sketch 3.3.3 (12072) - http://www.bohemiancoding.com/sketch -->
    <title>MacBook Pro 15 inches</title>
    <desc>Created with Sketch.</desc>
    <defs></defs>
    <g id="Mac" stroke="none" stroke-width="1" fill="none" fill-rule="evenodd" sketch:type="MSPage">
        <g id="MacBook-Pro-15-inches" sketch:type="MSArtboardGroup" transform="translate(-583.000000, -183.000000)">
            <g sketch:type="MSLayerGroup" transform="translate(583.000000, 183.000000)">
                <g id="MacBook-Pro-13-Screen" transform="translate(262.000000, 0.000000)" sketch:type="MSShapeGroup">
                    <g id="Frames">
                        <path d="M2310.98,81.184 C2310.98,36.377 2274.603,0 2229.796,0 L81.726,0 C36.92,0 0.542,36.377 0.542,81.184 L0.542,1513.984 C0.542,1558.79 36.92,1595.167 81.726,1595.167 L2229.796,1595.167 C2274.603,1595.167 2310.98,1558.79 2310.98,1513.984 L2310.98,81.184 L2310.98,81.184 Z" id="Metal-Frame" fill="#D5D2CF"></path>
                        <path d="M2303.89,80.941 C2303.89,40.185 2270.802,7.096 2230.046,7.096 L81.496,7.096 C40.74,7.096 7.651,40.185 7.651,80.941 L7.651,1514.221 C7.651,1554.977 40.74,1588.066 81.496,1588.066 L2230.046,1588.066 C2270.802,1588.066 2303.89,1554.977 2303.89,1514.221 L2303.89,80.941 L2303.89,80.941 Z" id="Plastic-Band" fill="#3E3E3E"></path>
                        <path d="M2302.47,81.975 L2302.47,1475.365 C2302.47,1496.032 2285.691,1512.811 2265.024,1512.811 L46.514,1512.811 C25.847,1512.811 9.068,1496.032 9.068,1475.365 L9.068,81.975 C9.068,41.431 41.985,8.515 82.528,8.515 L2229.018,8.515 C2269.561,8.515 2302.477,41.431 2302.477,81.975 L2302.47,81.975 Z" id="Thin-Plastic-Frame" fill="#4D4D4D"></path>
                        <path d="M2296.79,81.836 L2296.79,1473.806 C2296.79,1492.203 2281.855,1507.138 2263.458,1507.138 L48.068,1507.138 C29.672,1507.138 14.736,1492.203 14.736,1473.806 L14.736,81.836 C14.736,44.502 45.046,14.192 82.38,14.192 L2229.14,14.192 C2266.474,14.192 2296.784,44.502 2296.784,81.836 L2296.79,81.836 Z" id="Black-Frame" fill="#343434"></path>
                    </g>
                    <g id="Screen" transform="translate(71.000000, 93.000000)" fill="#343434">
                        <path d="M2169.27,4.642 C2169.27,2.448 2167.489,0.666 2165.294,0.666 L4.244,0.666 C2.05,0.666 0.268,2.448 0.268,4.642 L0.268,1355.692 C0.268,1357.887 2.05,1359.668 4.244,1359.668 L2165.294,1359.668 C2167.489,1359.668 2169.27,1357.887 2169.27,1355.692 L2169.27,4.642 L2169.27,4.642 Z" id="Screen-Frame"></path>
                        <rect id="Screen---Off" x="4.766" y="4.924" width="2160" height="1350"></rect>
                    </g>
                    <path d="M1155.77,67.751 C1162.426,67.751 1167.822,62.355 1167.822,55.699 C1167.822,49.043 1162.426,43.647 1155.77,43.647 C1149.115,43.647 1143.718,49.043 1143.718,55.699 C1143.718,62.355 1149.115,67.751 1155.77,67.751 L1155.77,67.751 Z" id="Camera" fill="#3E3E3E"></path>
                    <path d="M2060.92,1520.48 L250.61,1520.48 L246.758,1548.725 L2064.768,1548.725 L2060.917,1520.48 L2060.92,1520.48 Z" id="Pivoting-Support" fill="#4D4D4D"></path>
                </g>
                <g id="MacBook-Pro-15-Body" transform="translate(0.000000, 1544.000000)" sketch:type="MSShapeGroup">
                    <path d="M134.809,89.32 C86.419,89.32 18.921,70.18 0,49.521 L2835.53,49.521 C2816.61,70.18 2749.112,89.32 2700.722,89.32 L134.802,89.32 L134.806,89.32 L134.809,89.32 Z" id="Bottom-Body" fill="#A9A9A9"></path>
                    <path d="M2835.53,49.53 C2833.95,51.255 2832.03,52.971 2829.811,54.665 L5.721,54.665 C3.501,52.971 1.582,51.255 0.001,49.53 L0.001,48.247 L0.001,0.741 L2835.531,0.741 L2835.531,49.53 L2835.53,49.53 Z" id="Top-Body" fill="#D5D2CF"></path>
                    <path d="M1246.98,33.59 C1233.746,33.59 1220.018,16.969 1220.018,1.493 L1615.523,1.493 C1615.523,16.969 1601.795,33.59 1588.56,33.59 L1246.98,33.59 L1246.98,33.59 Z" id="Hollow" fill="#949494"></path>
                </g>
            </g>
        </g>
    </g>
</svg>