<?xml version="1.0" encoding="UTF-8" standalone="no"?>
<svg width="3062px" height="1768px" viewBox="0 0 3062 1768" version="1.1" xmlns="http://www.w3.org/2000/svg" xmlns:xlink="http://www.w3.org/1999/xlink" xmlns:sketch="http://www.bohemiancoding.com/sketch/ns">
    <!-- Generator: Sketch 3.3.3 (12072) - http://www.bohemiancoding.com/sketch -->
    <title>MacBook Gold</title>
    <desc>Created with Sketch.</desc>
    <defs></defs>
    <g id="Mac" stroke="none" stroke-width="1" fill="none" fill-rule="evenodd" sketch:type="MSPage">
        <g id="MacBook" sketch:type="MSArtboardGroup" transform="translate(-8469.000000, -116.000000)">
            <g id="MacBook-Gold" sketch:type="MSLayerGroup" transform="translate(8469.000000, 116.000000)">
                <g id="Full-Screen" transform="translate(280.000000, 0.000000)" sketch:type="MSShapeGroup">
                    <path d="M2501.62,92.767 C2501.62,42.117 2460.499,0.996 2409.85,0.996 L92.15,0.996 C41.501,0.996 0.38,42.117 0.38,92.767 L0.38,1672.197 C0.38,1722.847 41.501,1763.968 92.15,1763.968 L2409.85,1763.968 C2460.499,1763.968 2501.62,1722.847 2501.62,1672.197 L2501.62,92.767 L2501.62,92.767 Z" id="Metal-Frame" fill="#DCC6AA"></path>
                    <path d="M2493.55,92.433 C2493.55,46.421 2456.193,9.065 2410.181,9.065 L91.821,9.065 C45.809,9.065 8.452,46.421 8.452,92.433 L8.452,1672.533 C8.452,1718.545 45.809,1755.901 91.821,1755.901 L2410.181,1755.901 C2456.193,1755.901 2493.55,1718.545 2493.55,1672.533 L2493.55,92.433 L2493.55,92.433 Z" id="Black-Frame" fill="#343434"></path>
                    <path d="M2489.11,1699.42 L12.89,1699.42 C10.013,1690.982 8.451,1681.937 8.451,1672.531 L8.451,1634.872 L2493.551,1634.872 L2493.551,1672.531 C2493.551,1681.937 2491.989,1690.982 2489.112,1699.42 L2489.11,1699.42 Z" id="Plastic-Band" fill="#3E3E3E"></path>
                    <g id="Screen" transform="translate(95.000000, 128.000000)" fill="#343434">
                        <path d="M4,1446.83 C2.733,1446.578 2.717,1446.572 1.643,1445.854 L0.92,1444.773 L0.667,1443.497 L0.667,3.497 C0.919,2.23 0.925,2.214 1.643,1.14 L2.724,0.417 L4,0.164 L2308,0.164 L2309.276,0.417 L2310.357,1.14 L2311.08,2.221 L2311.333,3.497 L2311.333,1443.497 L2311.08,1444.773 C2310.839,1445.133 2310.664,1445.547 2310.357,1445.854 C2309.512,1446.699 2309.104,1446.611 2308,1446.83 L4,1446.83 L4,1446.83 Z" id="Screen-Frame"></path>
                        <rect id="Screen---Off" x="4" y="3.498" width="2304" height="1440"></rect>
                    </g>
                </g>
                <g id="Body" transform="translate(0.000000, 1699.000000)" sketch:type="MSShapeGroup">
                    <path d="M350.98,69 C211.218,69 40.484,44.877 0,20.589 L0,12 L3062,12 L3062,20.589 C3021.516,44.877 2850.782,69 2711.02,69 L350.98,69 L350.98,69 Z" id="Body-Bottom" fill="#C3AD90"></path>
                    <rect id="Body-Top" fill="#DCC6AA" x="0" y="0.42" width="3062" height="20.171"></rect>
                    <path d="M1825.5,0.42 L1825.5,11.498 C1825.5,20.969 1817.81,28.659 1808.338,28.659 L1253.66,28.659 C1244.188,28.659 1236.498,20.969 1236.498,11.498 L1236.498,0.42 L1825.5,0.42 L1825.5,0.42 Z" id="Hollow" fill="#AD9576"></path>
                </g>
                <g id="Sensors" transform="translate(1519.000000, 55.000000)" fill="#3E3E3E" sketch:type="MSShapeGroup">
                    <circle id="Camera" cx="12" cy="12.498" r="12"></circle>
                </g>
            </g>
        </g>
    </g>
</svg>