<?xml version="1.0" encoding="UTF-8" standalone="no"?>
<svg width="1457px" height="754px" viewBox="0 0 1457 754" version="1.1" xmlns="http://www.w3.org/2000/svg" xmlns:xlink="http://www.w3.org/1999/xlink" xmlns:sketch="http://www.bohemiancoding.com/sketch/ns">
    <!-- Generator: Sketch 3.3.3 (12072) - http://www.bohemiancoding.com/sketch -->
    <title>MacBook Air 10 inches</title>
    <desc>Created with Sketch.</desc>
    <defs></defs>
    <g id="Mac" stroke="none" stroke-width="1" fill="none" fill-rule="evenodd" sketch:type="MSPage">
        <g id="MacBook-Air-10-inches" sketch:type="MSArtboardGroup" transform="translate(-772.000000, -373.000000)">
            <g sketch:type="MSLayerGroup" transform="translate(772.000000, 373.000000)">
                <g id="Screen" transform="translate(143.000000, 0.000000)" sketch:type="MSShapeGroup">
                    <path d="M1170.39,45.727 C1170.39,20.49 1149.901,0 1124.663,0 L45.833,0 C20.595,0 0.106,20.49 0.106,45.727 L0.106,704.54 C0.106,729.777 20.595,750.267 45.833,750.267 L1124.663,750.267 C1149.901,750.267 1170.39,729.777 1170.39,704.54 L1170.39,45.727 L1170.39,45.727 Z" id="Outer-Frame" fill="#D5D2CF"></path>
                    <path d="M1165.31,45.727 C1165.31,23.294 1147.097,5.081 1124.663,5.081 L45.833,5.081 C23.399,5.081 5.186,23.294 5.186,45.727 L5.186,706.233 C5.186,715.58 12.775,723.169 22.122,723.169 L1148.372,723.169 C1157.719,723.169 1165.308,715.58 1165.308,706.233 L1165.308,45.727 L1165.31,45.727 Z" id="Thin-Plastic-Frame" fill="#4D4D4D"></path>
                    <path d="M1160.23,45.599 C1160.23,25.97 1144.293,10.033 1124.664,10.033 L45.834,10.033 C26.205,10.033 10.268,25.97 10.268,45.599 L10.268,706.362 C10.268,712.905 15.58,718.217 22.123,718.217 L1148.373,718.217 C1154.916,718.217 1160.228,712.905 1160.228,706.362 L1160.228,45.599 L1160.23,45.599 Z" id="Metal-Frame" fill="#D5D2CF"></path>
                    <g id="Screen1" transform="translate(70.000000, 60.000000)">
                        <path d="M1030.5,2.503 C1030.5,1.536 1029.714,0.75 1028.747,0.75 L1.757,0.75 C0.79,0.75 0.004,1.536 0.004,2.503 L0.004,580.997 C0.004,581.964 0.79,582.75 1.757,582.75 L1028.747,582.75 C1029.714,582.75 1030.5,581.964 1030.5,580.997 L1030.5,2.503 L1030.5,2.503 Z" id="Screen-Frame" fill="#4D4D4D"></path>
                        <rect id="Screen---Off" fill="#343434" x="3" y="3.75" width="1024.5" height="576"></rect>
                    </g>
                    <g id="Sensors" transform="translate(577.000000, 32.000000)" fill="#4D4D4D">
                        <circle id="Camera" cx="8.25" cy="7.8" r="7.621"></circle>
                    </g>
                </g>
                <g id="Body" transform="translate(0.000000, 719.000000)" sketch:type="MSShapeGroup">
                    <path d="M0,4.169 L0,2.476 L1456.5,2.476 L1456.5,4.169 C1431.912,19.337 1309.783,34.654 1243.106,34.654 L213.396,34.654 C146.719,34.654 24.59,19.337 0.002,4.169 L0,4.169 Z" id="Bottom-Body" fill="#BCBCBC"></path>
                    <rect id="Top-Body" fill="#D5D2CF" x="0" y="0.782" width="1456.5" height="3.387"></rect>
                    <path d="M839.331,9.25 L617.169,9.25 C613.405,9.25 599.501,8.61 596.38,4.169 L596.38,0.782 L860.12,0.782 L860.12,4.169 C856.999,8.61 843.095,9.25 839.331,9.25 L839.331,9.25 Z" id="Hollow" fill="#949494"></path>
                </g>
            </g>
        </g>
    </g>
</svg>