<?xml version="1.0" encoding="UTF-8"?>
<svg width="2764px" height="1621px" viewBox="0 0 2764 1621" version="1.1" xmlns="http://www.w3.org/2000/svg" xmlns:xlink="http://www.w3.org/1999/xlink">
    <!-- Generator: Sketch 41.2 (35397) - http://www.bohemiancoding.com/sketch -->
    <title>MacBook Pro TouchBar 15 inches Silver</title>
    <desc>Created with Sketch.</desc>
    <defs></defs>
    <g id="Mac" stroke="none" stroke-width="1" fill="none" fill-rule="evenodd">
        <g id="MacBook-Pro-Touch-Bar-15-inches" transform="translate(-4582.000000, -190.000000)">
            <g id="MacBook-Pro-TouchBar-15-inches-Silver" transform="translate(4582.000000, 190.000000)">
                <g id="MacBook-Pro-13-Screen" transform="translate(236.000000, 0.000000)">
                    <g id="Frames">
                        <g id="Group">
                            <rect id="Metal-Frame" fill="#D5D2CF" x="0.748876531" y="0" width="2289.78456" height="1580.85633" rx="67"></rect>
                            <rect id="Plastic-Band" fill="#4D4D4D" x="4.73365139" y="4" width="2280.80849" height="1572.01716" rx="62"></rect>
                            <rect id="Black-Frame" fill="#343434" x="9.71461995" y="9" width="2271.83242" height="1563.17859" rx="59"></rect>
                        </g>
                        <path d="M2281.55005,1481 L2281.55005,1513.8761 C2281.55005,1546.4575 2255.13121,1572.87 2222.5403,1572.87 L69.0105447,1572.87 C36.41994,1572.87 10,1546.4518 10,1513.8761 L10,1481 L2281.55005,1481 Z" id="Plastic-Band" fill="#3E3E3E"></path>
                    </g>
                    <g id="Screen" transform="translate(66.000000, 96.000000)" fill="#343434">
                        <rect id="Screen---Off" x="0" y="-2.39808173e-13" width="2160" height="1350"></rect>
                    </g>
                    <g id="Sensors" transform="translate(1136.000000, 41.000000)" fill="#3E3E3E">
                        <path d="M10,20 C15.5225,20 20,15.5225 20,10 C20,4.47666667 15.5225,-1.42108547e-13 10,-1.42108547e-13 C4.4775,-1.42108547e-13 0,4.47666667 0,10 C0,15.5225 4.4775,20 10,20 L10,20 Z" id="Camera"></path>
                    </g>
                </g>
                <g id="MacBook-Pro-13-Body" transform="translate(0.000000, 1541.000000)">
                    <path d="M0,40 L2763.75,40 C2744.911,60.57 2677.704,79.628 2629.523,79.628 L134.223,79.628 C86.046,79.628 18.839,60.57 0,40 Z" id="Bottom-Body" fill="#A9A9A9"></path>
                    <polygon id="Top-Body" fill="#D5D2CF" points="0 39.5779951 0 0 2763.61011 0 2763.61011 39.578"></polygon>
                    <path d="M1206.46,32.25 C1193.283,32.25 1179.614,15.7 1179.614,0.291 L1586.13,0.291 C1586.13,15.7 1572.461,32.25 1559.284,32.25 L1206.46,32.25 L1206.46,32.25 Z" id="Hollow" fill="#949494"></path>
                </g>
            </g>
        </g>
    </g>
</svg>