<?xml version="1.0" encoding="UTF-8" standalone="no"?>
<svg width="2548px" height="1477px" viewBox="0 0 2548 1477" version="1.1" xmlns="http://www.w3.org/2000/svg" xmlns:xlink="http://www.w3.org/1999/xlink" xmlns:sketch="http://www.bohemiancoding.com/sketch/ns">
    <!-- Generator: Sketch 3.3.3 (12072) - http://www.bohemiancoding.com/sketch -->
    <title>MacBook Pro 13 inches</title>
    <desc>Created with Sketch.</desc>
    <defs></defs>
    <g id="Mac" stroke="none" stroke-width="1" fill="none" fill-rule="evenodd" sketch:type="MSPage">
        <g id="MacBook-Pro-13-inches" sketch:type="MSArtboardGroup" transform="translate(-728.000000, -262.000000)">
            <g sketch:type="MSLayerGroup" transform="translate(728.000000, 262.000000)">
                <g id="MacBook-Pro-13-Screen" transform="translate(236.000000, 0.000000)" sketch:type="MSShapeGroup">
                    <g id="Frames">
                        <path d="M2075.26,83.128 C2075.26,37.248 2038.012,0 1992.133,0 L83.623,0 C37.744,0 0.496,37.248 0.496,83.128 L0.496,1353.738 C0.496,1399.617 37.744,1436.866 83.623,1436.866 L1992.133,1436.866 C2038.012,1436.866 2075.26,1399.617 2075.26,1353.738 L2075.26,83.128 L2075.26,83.128 Z" id="Metal-Frame" fill="#D5D2CF"></path>
                        <path d="M2068.86,83.284 C2068.86,40.846 2034.405,6.392 1991.967,6.392 L83.777,6.392 C41.339,6.392 6.884,40.846 6.884,83.284 L6.884,1352.304 C6.884,1394.742 41.339,1429.196 83.777,1429.196 L1991.967,1429.196 C2034.405,1429.196 2068.86,1394.742 2068.86,1352.304 L2068.86,83.284 L2068.86,83.284 Z" id="Pastic-Band" fill="#3E3E3E"></path>
                        <path d="M2065.57,1182.13 C2066.055,1184.496 2066.309,1186.945 2066.309,1189.453 L2066.309,1317.361 C2066.309,1337.439 2050.008,1353.74 2029.93,1353.74 L45.82,1353.74 C25.742,1353.74 9.441,1337.439 9.441,1317.361 L9.441,1189.453 C9.441,1186.945 9.695,1184.496 10.18,1182.13 C9.693,1178.654 9.441,1175.102 9.441,1171.493 L9.441,85.093 C9.441,43.067 43.56,8.948 85.585,8.948 L1990.165,8.948 C2032.19,8.948 2066.309,43.067 2066.309,85.093 L2066.309,1171.493 C2066.309,1175.102 2066.057,1178.654 2065.57,1182.13 L2065.57,1182.13 Z" id="Thin-Plastic-Frame" fill="#4D4D4D"></path>
                        <path d="M2059.79,1180.7 C2059.871,1181.602 2059.912,1182.515 2059.912,1183.439 L2059.912,1316.984 C2059.912,1333.742 2046.306,1347.348 2029.548,1347.348 L46.198,1347.348 C29.44,1347.348 15.834,1333.742 15.834,1316.984 L15.834,1183.439 C15.834,1182.515 15.875,1181.602 15.956,1180.7 C15.875,1179.312 15.834,1177.913 15.834,1176.504 L15.834,86.474 C15.834,47.215 47.707,15.341 86.966,15.341 L1988.786,15.341 C2028.045,15.341 2059.918,47.215 2059.918,86.474 L2059.918,1176.504 C2059.918,1177.913 2059.877,1179.312 2059.796,1180.7 L2059.79,1180.7 Z" id="Black-Frame" fill="#343434"></path>
                    </g>
                    <g id="Screen" transform="translate(76.000000, 97.000000)" fill="#343434">
                        <path d="M1923.38,3.981 C1923.38,2.33 1922.039,0.99 1920.388,0.99 L3.368,0.99 C1.717,0.99 0.376,2.33 0.376,3.981 L0.376,1204.001 C0.376,1205.652 1.717,1206.993 3.368,1206.993 L1920.388,1206.993 C1922.039,1206.993 1923.38,1205.652 1923.38,1204.001 L1923.38,3.981 L1923.38,3.981 Z" id="Screen-Frame"></path>
                        <rect id="Screen---Off" x="1.875" y="3.99" width="1920" height="1200"></rect>
                    </g>
                    <g id="Sensors" transform="translate(1025.000000, 43.000000)" fill="#3E3E3E">
                        <path d="M12.88,24.459 C19.507,24.459 24.88,19.086 24.88,12.459 C24.88,5.831 19.507,0.459 12.88,0.459 C6.253,0.459 0.88,5.831 0.88,12.459 C0.88,19.086 6.253,24.459 12.88,24.459 L12.88,24.459 Z" id="Camera"></path>
                    </g>
                    <path d="M1818.31,1362.72 L257.45,1362.72 L253.615,1390.844 L1822.145,1390.844 L1818.31,1362.72 L1818.31,1362.72 Z" id="Pivoting-Support" fill="#4D4D4D"></path>
                </g>
                <g id="MacBook-Pro-13-Body" transform="translate(0.000000, 1388.000000)" sketch:type="MSShapeGroup">
                    <path d="M134.227,88.49 C86.046,88.49 18.839,69.432 0,48.862 L2547.75,48.862 C2528.911,69.432 2461.704,88.49 2413.523,88.49 L134.223,88.49 L134.227,88.49 Z" id="Bottom-Body" fill="#A9A9A9"></path>
                    <path d="M2547.75,48.87 C2546.176,50.588 2544.265,52.296 2542.055,53.983 L5.695,53.983 C3.485,52.296 1.574,50.588 2.27373675e-13,48.87 L2.27373675e-13,47.593 L2.27373675e-13,0.292 L2547.75,0.292 L2547.75,48.87 L2547.75,48.87 Z" id="Top-Body" fill="#D5D2CF"></path>
                    <path d="M1097.46,32.25 C1084.283,32.25 1070.614,15.7 1070.614,0.291 L1477.13,0.291 C1477.13,15.7 1463.461,32.25 1450.284,32.25 L1097.46,32.25 L1097.46,32.25 Z" id="Hollow" fill="#949494"></path>
                </g>
            </g>
        </g>
    </g>
</svg>