<?xml version="1.0" standalone="no"?><!DOCTYPE svg PUBLIC "-//W3C//DTD SVG 1.1//EN" "http://www.w3.org/Graphics/SVG/1.1/DTD/svg11.dtd"><svg width="100%" height="100%" viewBox="0 0 572 1113" version="1.1" xmlns="http://www.w3.org/2000/svg" xmlns:xlink="http://www.w3.org/1999/xlink" xml:space="preserve" style="fill-rule:evenodd;clip-rule:evenodd;stroke-linejoin:round;stroke-miterlimit:1.41421;"><g id="iPhone 4S"><g id="Frame"><path id="Frame1" d="M6.75,90.758c0,-22.44 8.752,-43.538 24.637,-59.408c15.885,-15.862 36.998,-24.6 59.46,-24.6l397.305,0c22.463,0 43.575,8.737 59.46,24.6c15.893,15.87 24.638,36.967 24.638,59.407l0,938.232c0,22.442 -8.745,43.541 -24.638,59.409c-15.885,15.864 -36.997,24.602 -59.46,24.602l-397.305,0c-22.462,0 -43.575,-8.738 -59.46,-24.602c-15.885,-15.868 -24.637,-36.967 -24.637,-59.409l0,-938.231Z" style="fill:#d5d2cf;"/><g id="Buttons"><path id="Top Button" d="M384.75,2.25l0,5.25l91.5,0l0,-5.25l-2.993,-2.25l-85.5,0l-3.007,2.25Z" style="fill:#d5d2cf;"/><path id="Sound Down Button" d="M2.25,321.75l-2.25,2.25l0,37.5l2.25,2.25l5.25,0l0,-42l-5.25,0Z" style="fill:#d5d2cf;"/><path id="Sound Up Button" d="M2.25,228.75l-2.25,2.25l0,37.5l2.25,2.25l5.25,0l0,-42l-5.25,0Z" style="fill:#d5d2cf;"/><path id="Sound Switch Button" d="M2.25,126l-2.25,2.25l0,50.25l2.25,2.25l5.25,0l0,-54.75l-5.25,0Z" style="fill:#d5d2cf;"/></g></g><g id="Body"><path id="Front" d="M90.847,13.495l397.306,0c42.652,0 77.347,34.659 77.347,77.262l0,937.478c0,42.6 -34.695,77.257 -77.347,77.257l-397.306,0c-42.645,0 -77.347,-34.657 -77.347,-77.257l0,-937.478c0,-42.603 34.702,-77.262 77.347,-77.262Z" style="fill:#f7f7f7;"/><g id="Home Button"><path id="Home Button Circle" d="M289.5,964.168c28.148,0 51,22.853 51,51c0,28.148 -22.852,51 -51,51c-28.148,0 -51,-22.852 -51,-51c0,-28.147 22.852,-51 51,-51ZM289.5,967.972c26.048,0 47.196,21.148 47.196,47.196c0,26.049 -21.148,47.197 -47.196,47.197c-26.048,0 -47.196,-21.148 -47.196,-47.197c0,-26.048 21.148,-47.196 47.196,-47.196Z" style="fill:#d5d2cf;"/><path id="Rounded Rectangle Symbol" d="M277.362,1033.54c-0.239,-0.001 -0.478,-0.013 -0.716,-0.04c-0.462,-0.053 -0.917,-0.158 -1.356,-0.312c-0.853,-0.301 -1.637,-0.79 -2.284,-1.423c-0.665,-0.649 -1.183,-1.445 -1.502,-2.318c-0.16,-0.436 -0.27,-0.889 -0.329,-1.35c-0.03,-0.236 -0.045,-0.474 -0.049,-0.713c-0.052,-8.145 -0.052,-16.292 0,-24.437c0.004,-0.239 0.019,-0.477 0.049,-0.714c0.059,-0.46 0.169,-0.913 0.329,-1.349c0.319,-0.873 0.837,-1.669 1.502,-2.319c0.647,-0.632 1.431,-1.121 2.284,-1.422c0.439,-0.154 0.894,-0.259 1.356,-0.312c0.211,-0.024 0.423,-0.036 0.635,-0.04c8.146,-0.052 16.292,-0.052 24.438,0c0.238,0.005 0.476,0.019 0.713,0.05c0.46,0.058 0.914,0.169 1.35,0.328c0.872,0.32 1.669,0.837 2.318,1.502c0.632,0.648 1.121,1.431 1.422,2.285c0.155,0.438 0.259,0.894 0.312,1.356c0.024,0.211 0.036,0.422 0.04,0.635c0.052,8.145 0.052,16.292 0,24.437c-0.004,0.239 -0.019,0.477 -0.049,0.713c-0.059,0.461 -0.169,0.914 -0.329,1.35c-0.319,0.873 -0.837,1.669 -1.502,2.318c-0.647,0.633 -1.431,1.122 -2.284,1.423c-0.439,0.154 -0.894,0.259 -1.356,0.312c-0.211,0.024 -0.423,0.036 -0.635,0.04c-8.119,0.051 -16.238,0 -24.357,0ZM277.377,1029.42c8.115,0 16.234,0.255 24.345,-0.001c0.063,-0.003 0.126,-0.008 0.189,-0.016c0.213,-0.028 0.421,-0.087 0.616,-0.178c0.503,-0.235 0.905,-0.671 1.096,-1.192c0.082,-0.224 0.122,-0.459 0.127,-0.696c0.052,-8.129 0.258,-16.263 -0.002,-24.389c-0.009,-0.218 -0.049,-0.434 -0.125,-0.64c-0.213,-0.58 -0.684,-1.048 -1.263,-1.262c-0.222,-0.081 -0.456,-0.121 -0.691,-0.125c-8.131,-0.047 -16.265,-0.267 -24.391,0.001c-0.218,0.01 -0.433,0.049 -0.638,0.124c-0.571,0.211 -1.038,0.669 -1.254,1.238c-0.088,0.231 -0.131,0.474 -0.136,0.72c-0.049,8.13 -0.255,16.264 0.002,24.389c0.01,0.236 0.056,0.468 0.143,0.688c0.204,0.517 0.616,0.942 1.125,1.165c0.206,0.091 0.425,0.145 0.648,0.166c0.07,0.006 0.139,0.008 0.209,0.008Z" style="fill:#d5d2cf;fill-rule:nonzero;"/></g><g id="Screen"><path id="Screen Panel" d="M48.75,191.25c-0.618,0.098 -1.259,0.1 -1.854,0.294c-0.595,0.193 -1.166,0.484 -1.673,0.852c-1.025,0.745 -1.788,1.795 -2.179,3c-0.194,0.595 -0.196,1.236 -0.294,1.854l0,720c0.098,0.618 0.1,1.259 0.294,1.854c0.193,0.595 0.484,1.166 0.852,1.673c0.745,1.025 1.795,1.788 3,2.179c0.595,0.194 1.236,0.196 1.854,0.294l480,0c0.618,-0.098 1.259,-0.1 1.854,-0.294c1.205,-0.391 2.255,-1.154 3,-2.179c0.368,-0.507 0.659,-1.078 0.852,-1.673c0.194,-0.595 0.196,-1.236 0.294,-1.854l0,-720c-0.098,-0.618 -0.1,-1.259 -0.294,-1.854c-0.391,-1.205 -1.154,-2.255 -2.179,-3c-0.507,-0.368 -1.078,-0.659 -1.673,-0.852c-0.595,-0.194 -1.236,-0.196 -1.854,-0.294c-160,0 -320,0 -480,0Z" style="fill:#3e3e3e;"/><rect id="Screen - Off" x="48.75" y="197.25" width="480" height="720" style="fill:#000;"/><path d="M48.75,923.25l-1.854,-0.294l-1.673,-0.852l-1.327,-1.327l-0.852,-1.673l-0.294,-1.854l0,-720l0.294,-1.854l0.852,-1.673l1.327,-1.327l1.673,-0.852l1.854,-0.294l480,0l1.854,0.294l1.673,0.852l1.327,1.327l0.852,1.673l0.294,1.854l0,720l-0.294,1.854l-0.852,1.673l-1.327,1.327l-1.673,0.852l-1.854,0.294l-480,0ZM48.75,917.25l480,0l0,-720l-480,0l0,720Z" style="fill:#3e3e3e;"/></g><g id="Top Captors"><path id="Speaker" d="M251.25,95.25l82.5,0c3.307,0 6,2.692 6,6c0,3.308 -2.693,6 -6,6l-82.5,0c-3.307,0 -6,-2.692 -6,-6c0,-3.308 2.693,-6 6,-6Z" style="fill:#3e3e3e;"/><path id="Camera" d="M270.75,48.75l44.25,0c3.307,0 6,2.692 6,6c0,3.308 -2.693,6 -6,6l-44.25,0c-3.307,0 -6,-2.692 -6,-6c0,-3.308 2.693,-6 6,-6Z" style="fill:#3e3e3e;"/><path id="Light Captor" d="M181.845,87.762c7.242,0 13.109,5.871 13.109,13.111c0,7.24 -5.867,13.11 -13.109,13.11c-7.242,0 -13.109,-5.87 -13.109,-13.11c0,-7.24 5.867,-13.111 13.109,-13.111Z" style="fill:#3e3e3e;"/></g></g></g></svg>