<?xml version="1.0" encoding="UTF-8"?>
<svg width="2301px" height="3188px" viewBox="0 0 2301 3188" version="1.1" xmlns="http://www.w3.org/2000/svg" xmlns:xlink="http://www.w3.org/1999/xlink">
    <!-- Generator: Sketch 41.2 (35397) - http://www.bohemiancoding.com/sketch -->
    <title>iPad Pro 12.9 Space Gray</title>
    <desc>Created with Sketch.</desc>
    <defs></defs>
    <g id="iPad" stroke="none" stroke-width="1" fill="none" fill-rule="evenodd">
        <g id="iPad-Pro" transform="translate(-350.000000, -156.000000)">
            <g id="iPad-Pro-12.9-Space-Gray" transform="translate(350.000000, 156.000000)">
                <path d="M2300.00432,102.861262 C2300.00432,46.6375296 2254.35544,0.9912 2198.1371,0.9912 L101.870483,0.9912 C45.652136,0.9912 0.00326,46.6375296 0.00326,102.861262 L0.00326,3085.68874 C0.00326,3141.91247 45.652136,3187.5588 101.870483,3187.5588 L2198.1371,3187.5588 C2254.35544,3187.5588 2300.00432,3141.91247 2300.00432,3085.68874 L2300.00432,102.861262 L2300.00432,102.861262 Z" id="Frame" fill="#545454"></path>
                <path d="M2287.26888,102.875016 C2287.26888,53.6709739 2247.32567,13.7351 2198.13674,13.7351 L101.868979,13.7351 C52.6800534,13.7351 12.73684,53.6709739 12.73684,102.875016 L12.73684,3085.70248 C12.73684,3134.90653 52.6800534,3174.8424 101.868979,3174.8424 L2198.13674,3174.8424 C2247.32567,3174.8424 2287.26888,3134.90653 2287.26888,3085.70248 L2287.26888,102.875016 L2287.26888,102.875016 Z" id="Body" fill="#343434"></path>
                <g id="Screen" transform="translate(118.787100, 221.655900)" fill="#343434">
                    <path d="M7.21458225,2745.6344 C6.52758016,2745.5244 5.815578,2745.5244 5.154576,2745.3044 C3.81557193,2744.8744 2.64856839,2744.02439 1.82156589,2742.88439 C1.41256464,2742.32439 1.08856366,2741.68439 0.874563013,2741.02438 C0.65956236,2740.36438 0.656562351,2739.65438 0.547562021,2738.96438 L0.547562021,6.95809051 C0.656562351,6.27208843 0.65956236,5.56008627 0.874563013,4.89808426 C1.08856366,4.23708225 1.41256464,3.60208033 1.82156589,3.04007862 C2.64856839,1.90107517 3.81557193,1.05307259 5.154576,0.618071273 C5.815578,0.403070621 6.52758016,0.401070615 7.21458225,0.292070284 L2055.2208,0.292070284 C2055.9108,0.401070615 2056.6208,0.403070621 2057.2808,0.618071273 C2057.9408,0.833071925 2058.58081,1.1560729 2059.14081,1.56507415 C2060.28081,2.39307666 2061.13081,3.55908019 2061.56081,4.89808426 C2061.77082,5.56008627 2061.78082,6.27208843 2061.89082,6.95809051 L2061.89082,2738.96438 C2061.78082,2739.65438 2061.77082,2740.36438 2061.56081,2741.02438 C2061.13081,2742.36439 2060.28081,2743.53439 2059.14081,2744.36439 C2058.58081,2744.7644 2057.9408,2745.0944 2057.2808,2745.3044 C2056.6208,2745.5244 2055.9108,2745.5244 2055.2208,2745.6344 L7.21458225,2745.6344 L7.21458225,2745.6344 Z" id="Screen-Frame"></path>
                    <rect id="Screen---Off" x="7.23370493" y="6.90692892" width="2048.01094" height="2732.00598"></rect>
                </g>
                <path d="M1149.99918,3037.34484 C1176.66551,3037.34484 1198.3594,3059.03975 1198.3594,3085.70507 C1198.3594,3112.3714 1176.66551,3134.06529 1149.99918,3134.06529 C1123.33386,3134.06529 1101.63895,3112.3714 1101.63895,3085.70507 C1101.63895,3059.03975 1123.33386,3037.34484 1149.99918,3037.34484 L1149.99918,3037.34484 Z M1149.99918,3029.19996 C1118.79309,3029.19996 1093.49509,3054.49796 1093.49509,3085.70507 C1093.49509,3116.91116 1118.79309,3142.21017 1149.99918,3142.21017 C1181.20629,3142.21017 1206.5053,3116.91116 1206.5053,3085.70507 C1206.5053,3054.49796 1181.20629,3029.19996 1149.99918,3029.19996 L1149.99918,3029.19996 Z" id="Home-Button" fill="#545454"></path>
                <circle id="Camera" fill="#3E3E3E" cx="1149.99988" cy="117.98916" r="16.7128"></circle>
            </g>
        </g>
    </g>
</svg>