<?xml version="1.0" encoding="UTF-8" standalone="no"?>
<svg width="970px" height="1259px" viewBox="0 0 970 1259" version="1.1" xmlns="http://www.w3.org/2000/svg" xmlns:xlink="http://www.w3.org/1999/xlink" xmlns:sketch="http://www.bohemiancoding.com/sketch/ns">
    <!-- Generator: Sketch 3.3.3 (12072) - http://www.bohemiancoding.com/sketch -->
    <title>iPad 2 Black</title>
    <desc>Created with Sketch.</desc>
    <defs></defs>
    <g id="iPad" stroke="none" stroke-width="1" fill="none" fill-rule="evenodd" sketch:type="MSPage">
        <g id="iPad-2" sketch:type="MSArtboardGroup" transform="translate(-140.000000, -121.000000)">
            <g id="iPad-2-Black" sketch:type="MSLayerGroup" transform="translate(140.000000, 121.000000)">
                <path d="M923.268,0.877 L46.01,0.877 C20.328,0.877 0.5,20.328 0.5,44.237 L0.5,1215.527 C0.5,1239.435 19.952,1258.886 43.861,1258.886 L926.133,1258.886 C950.042,1258.886 969.494,1239.435 969.494,1215.527 L969.494,44.237 C969.494,20.328 949.784,0.877 923.268,0.877 L923.268,0.877 Z" id="Frame" fill="#D5D2CF" sketch:type="MSShapeGroup"></path>
                <g id="Body" transform="translate(4.000000, 4.000000)" sketch:type="MSShapeGroup">
                    <path d="M961.477,1211.48 C961.477,1233.25 943.829,1250.898 922.058,1250.898 L39.91,1250.898 C18.138,1250.898 0.492,1233.25 0.492,1211.48 L0.492,40.31 C0.492,18.541 18.138,0.892 39.91,0.892 L922.058,0.892 C943.829,0.892 961.477,18.541 961.477,40.31 L961.477,1211.48 L961.477,1211.48 Z" id="Body1" fill="#343434"></path>
                    <g id="Screen" transform="translate(95.000000, 102.000000)" fill="#343434">
                        <path d="M4.495,1032.88 C4.083,1032.815 3.656,1032.813 3.259,1032.684 C2.862,1032.555 2.481,1032.361 2.144,1032.116 C1.46,1031.62 0.952,1030.92 0.691,1030.116 C0.562,1029.719 0.56,1029.292 0.495,1028.88 L0.495,4.89 C0.56,4.478 0.562,4.051 0.691,3.654 C0.82,3.257 1.014,2.876 1.259,2.539 C1.755,1.855 2.456,1.347 3.259,1.086 C3.656,0.957 4.083,0.955 4.495,0.89 L772.499,0.89 C772.911,0.955 773.339,0.957 773.735,1.086 C774.539,1.347 775.239,1.855 775.735,2.539 C775.981,2.876 776.175,3.257 776.304,3.654 C776.432,4.051 776.434,4.478 776.499,4.89 L776.499,1028.88 C776.434,1029.292 776.432,1029.719 776.304,1030.116 C776.175,1030.513 775.981,1030.894 775.735,1031.231 C775.239,1031.915 774.539,1032.423 773.735,1032.684 C773.339,1032.813 772.911,1032.815 772.499,1032.88 L4.495,1032.88 L4.495,1032.88 Z" id="Frame1"></path>
                        <rect id="Screen---Off" x="4.495" y="4.898" width="768.004" height="1023.99"></rect>
                    </g>
                    <g id="Home-Button" transform="translate(455.000000, 1167.000000)">
                        <path d="M27.681,0.66 C42.721,0.66 54.931,12.87 54.931,27.91 C54.931,42.95 42.721,55.16 27.681,55.16 C12.641,55.16 0.431,42.95 0.431,27.91 C0.431,12.87 12.641,0.66 27.681,0.66 L27.681,0.66 Z M27.681,2.69 C41.599,2.69 52.899,13.99 52.899,27.908 C52.899,41.826 41.599,53.126 27.681,53.126 C13.763,53.126 2.463,41.826 2.463,27.908 C2.463,13.99 13.763,2.69 27.681,2.69 L27.681,2.69 Z" id="Home-Button-Circle" fill="#3E3E3E"></path>
                        <path d="M21.195,37.73 C21.067,37.729 20.94,37.723 20.813,37.708 C20.566,37.68 20.323,37.624 20.088,37.541 C19.632,37.381 19.214,37.119 18.868,36.782 C18.512,36.435 18.236,36.009 18.065,35.543 C17.98,35.31 17.921,35.068 17.89,34.822 C17.873,34.695 17.865,34.568 17.863,34.441 C17.835,30.088 17.835,25.736 17.863,21.383 C17.865,21.256 17.873,21.129 17.89,21.002 C17.921,20.756 17.98,20.514 18.065,20.281 C18.236,19.815 18.512,19.389 18.868,19.042 C19.214,18.704 19.632,18.443 20.088,18.282 C20.323,18.2 20.566,18.144 20.813,18.116 C20.926,18.103 21.039,18.096 21.152,18.094 C25.505,18.066 29.857,18.066 34.209,18.094 C34.337,18.096 34.464,18.104 34.591,18.121 C34.837,18.152 35.079,18.211 35.312,18.296 C35.778,18.467 36.204,18.744 36.55,19.099 C36.888,19.445 37.15,19.863 37.31,20.319 C37.393,20.554 37.449,20.797 37.477,21.044 C37.49,21.157 37.496,21.27 37.499,21.383 C37.526,25.736 37.526,30.088 37.499,34.441 C37.496,34.568 37.488,34.695 37.472,34.822 C37.441,35.068 37.382,35.31 37.297,35.543 C37.126,36.009 36.849,36.435 36.494,36.782 C36.148,37.119 35.729,37.381 35.273,37.541 C35.039,37.624 34.796,37.68 34.549,37.708 C34.436,37.721 34.323,37.728 34.209,37.73 C29.871,37.757 25.533,37.73 21.195,37.73 L21.195,37.73 Z M21.203,35.53 C25.539,35.53 29.877,35.666 34.211,35.529 C34.245,35.527 34.279,35.525 34.312,35.521 C34.426,35.505 34.537,35.474 34.642,35.425 C34.91,35.3 35.125,35.067 35.227,34.788 C35.271,34.669 35.292,34.543 35.295,34.417 C35.323,30.073 35.433,25.727 35.294,21.385 C35.289,21.269 35.267,21.153 35.227,21.043 C35.113,20.733 34.862,20.483 34.552,20.369 C34.434,20.326 34.308,20.304 34.183,20.302 C29.839,20.277 25.492,20.16 21.15,20.303 C21.034,20.308 20.919,20.329 20.81,20.369 C20.504,20.481 20.255,20.726 20.139,21.031 C20.093,21.154 20.069,21.284 20.067,21.415 C20.041,25.759 19.931,30.105 20.068,34.447 C20.073,34.573 20.098,34.697 20.144,34.814 C20.253,35.09 20.474,35.318 20.745,35.437 C20.855,35.485 20.972,35.514 21.092,35.525 C21.129,35.528 21.166,35.53 21.203,35.53 L21.203,35.53 Z" id="Rounded-Rectangle" fill="#D5D2CF"></path>
                    </g>
                    <path d="M480.941,43.16 C485.359,43.16 488.941,46.742 488.941,51.16 C488.941,55.579 485.359,59.16 480.941,59.16 C476.523,59.16 472.941,55.579 472.941,51.16 C472.941,46.742 476.523,43.16 480.941,43.16 L480.941,43.16 Z" id="Camera" fill="#3E3E3E"></path>
                </g>
            </g>
        </g>
    </g>
</svg>