<?xml version="1.0" standalone="no"?><!DOCTYPE svg PUBLIC "-//W3C//DTD SVG 1.1//EN" "http://www.w3.org/Graphics/SVG/1.1/DTD/svg11.dtd"><svg width="100%" height="100%" viewBox="0 0 970 1259" version="1.1" xmlns="http://www.w3.org/2000/svg" xmlns:xlink="http://www.w3.org/1999/xlink" xml:space="preserve" style="fill-rule:evenodd;clip-rule:evenodd;stroke-linejoin:round;stroke-miterlimit:1.41421;"><g id="iPad 2 White"><path id="Frame" d="M923.274,0.869l-877.258,0c-25.682,0 -45.51,19.451 -45.51,43.36l0,1171.29c0,23.908 19.452,43.359 43.36,43.359l882.273,0c23.909,0 43.361,-19.451 43.361,-43.359l0,-1171.29c0,-23.909 -19.71,-43.36 -46.226,-43.36Z" style="fill:#d5d2cf;"/><g id="Body"><path id="Body1" d="M965.483,1215.47c0,21.769 -17.649,39.418 -39.419,39.418l-882.148,0c-21.772,0 -39.418,-17.649 -39.418,-39.418l0,-1171.17c0,-21.769 17.646,-39.418 39.418,-39.418l882.148,0c21.77,0 39.419,17.649 39.419,39.418l0,1171.17Z" style="fill:#f3f5f7;"/><g id="Screen"><path id="Frame1" d="M103.501,1138.88c-0.412,-0.065 -0.84,-0.067 -1.236,-0.196c-0.397,-0.129 -0.778,-0.323 -1.115,-0.568c-0.684,-0.496 -1.192,-1.197 -1.453,-2c-0.129,-0.397 -0.131,-0.824 -0.196,-1.236l0,-1023.99c0.065,-0.412 0.067,-0.839 0.196,-1.236c0.128,-0.397 0.322,-0.778 0.568,-1.115c0.496,-0.684 1.196,-1.192 2,-1.453c0.396,-0.129 0.824,-0.131 1.236,-0.196l768.004,0c0.412,0.065 0.839,0.067 1.236,0.196c0.804,0.261 1.504,0.769 2,1.453c0.245,0.337 0.439,0.718 0.568,1.115c0.129,0.397 0.131,0.824 0.196,1.236l0,1023.99c-0.065,0.412 -0.067,0.839 -0.196,1.236c-0.129,0.397 -0.323,0.778 -0.568,1.115c-0.496,0.684 -1.196,1.192 -2,1.453c-0.397,0.129 -0.824,0.131 -1.236,0.196c-256.001,0 -512.003,0 -768.004,0Z" style="fill:#3e3e3e;"/><rect id="Screen - Off" x="103.501" y="110.89" width="768.004" height="1023.99" style="fill:#000;"/></g><g id="Home Button"><path id="Home Button Circle" d="M486.687,1171.65c15.039,0 27.25,12.21 27.25,27.25c0,15.04 -12.211,27.25 -27.25,27.25c-15.04,0 -27.251,-12.21 -27.251,-27.25c0,-15.04 12.211,-27.25 27.251,-27.25ZM486.687,1173.69c13.918,0 25.217,11.3 25.217,25.218c0,13.918 -11.299,25.218 -25.217,25.218c-13.919,0 -25.218,-11.3 -25.218,-25.218c0,-13.918 11.299,-25.218 25.218,-25.218Z" style="fill:#d5d2cf;"/><path id="Rounded Rectangle" d="M480.201,1208.72c-0.128,-0.001 -0.255,-0.007 -0.382,-0.022c-0.247,-0.028 -0.491,-0.084 -0.725,-0.167c-0.456,-0.16 -0.875,-0.422 -1.22,-0.76c-0.356,-0.346 -0.632,-0.772 -0.803,-1.238c-0.085,-0.233 -0.144,-0.475 -0.176,-0.721c-0.016,-0.127 -0.024,-0.254 -0.026,-0.382c-0.028,-4.352 -0.028,-8.704 0,-13.057c0.002,-0.127 0.01,-0.254 0.026,-0.381c0.032,-0.246 0.091,-0.488 0.176,-0.721c0.171,-0.466 0.447,-0.892 0.803,-1.239c0.345,-0.338 0.764,-0.599 1.22,-0.76c0.234,-0.082 0.478,-0.138 0.725,-0.166c0.112,-0.013 0.225,-0.02 0.339,-0.022c4.352,-0.028 8.705,-0.028 13.057,0c0.128,0.002 0.255,0.01 0.381,0.027c0.246,0.031 0.489,0.09 0.722,0.175c0.466,0.171 0.891,0.447 1.238,0.803c0.338,0.346 0.599,0.764 0.76,1.22c0.083,0.235 0.139,0.478 0.167,0.725c0.013,0.113 0.019,0.226 0.021,0.339c0.028,4.353 0.028,8.705 0,13.057c-0.002,0.128 -0.01,0.255 -0.026,0.382c-0.031,0.246 -0.09,0.488 -0.176,0.721c-0.171,0.466 -0.447,0.892 -0.802,1.238c-0.346,0.338 -0.765,0.6 -1.221,0.76c-0.234,0.083 -0.478,0.139 -0.724,0.167c-0.113,0.013 -0.226,0.019 -0.34,0.022c-4.338,0.027 -8.676,0 -13.014,0ZM480.209,1206.52c4.336,0 8.674,0.136 13.008,-0.001c0.034,-0.002 0.067,-0.004 0.101,-0.008c0.114,-0.016 0.225,-0.047 0.329,-0.096c0.269,-0.125 0.484,-0.358 0.586,-0.637c0.044,-0.119 0.065,-0.245 0.067,-0.371c0.028,-4.344 0.138,-8.69 0,-13.032c-0.005,-0.116 -0.027,-0.232 -0.067,-0.342c-0.114,-0.31 -0.366,-0.56 -0.675,-0.674c-0.118,-0.043 -0.244,-0.065 -0.369,-0.067c-4.345,-0.025 -8.691,-0.143 -13.033,0.001c-0.116,0.005 -0.231,0.026 -0.341,0.066c-0.305,0.112 -0.554,0.357 -0.67,0.661c-0.047,0.124 -0.07,0.254 -0.072,0.385c-0.027,4.344 -0.137,8.69 0.001,13.032c0.005,0.126 0.03,0.25 0.076,0.367c0.109,0.276 0.329,0.504 0.601,0.623c0.11,0.048 0.227,0.077 0.347,0.088c0.037,0.003 0.074,0.005 0.111,0.005Z" style="fill:#d5d2cf;fill-rule:nonzero;"/></g><path id="Camera" d="M484.947,47.152c4.418,0 8,3.582 8,8c0,4.419 -3.582,8 -8,8c-4.418,0 -8,-3.581 -8,-8c0,-4.418 3.582,-8 8,-8Z" style="fill:#3e3e3e;"/></g></g></svg>