<?xml version="1.0" standalone="no"?><!DOCTYPE svg PUBLIC "-//W3C//DTD SVG 1.1//EN" "http://www.w3.org/Graphics/SVG/1.1/DTD/svg11.dtd"><svg width="100%" height="100%" viewBox="0 0 1741 2579" version="1.1" xmlns="http://www.w3.org/2000/svg" xmlns:xlink="http://www.w3.org/1999/xlink" xml:space="preserve" style="fill-rule:evenodd;clip-rule:evenodd;stroke-linejoin:round;stroke-miterlimit:1.41421;"><g id="iPad Mini 2 Silver"><path id="Frame" d="M1740.52,2451.74c0,73.026 -54.751,126.876 -126.889,126.876l-93.496,0l-1299.29,0l-93.433,0c-72.138,0 -126.888,-53.85 -126.888,-126.876l0,-2324.26c0,-73.026 54.75,-126.873 126.888,-126.873l1486.22,0c72.138,0 126.889,53.847 126.889,126.873l0,2324.26Z" style="fill:#d5d2cf;"/><g id="Body"><path id="Body1" d="M1728.98,128.513c-0.373,11.817 -0.373,2310.28 0,2322.09c0,30.744 -10.691,60.721 -33.244,83.148c-22.552,22.429 -52.445,33.044 -83.011,33.044l-1484.75,0c-30.566,0 -60.459,-10.615 -83.012,-33.044c-22.553,-22.427 -33.243,-52.404 -33.243,-83.148c0.372,-11.816 0.372,-2310.28 0,-2322.09c0,-30.744 10.69,-60.72 33.243,-83.148c22.553,-22.429 52.446,-33.044 83.012,-33.044l1484.75,0c30.566,0 60.459,10.615 83.011,33.044c22.553,22.428 33.244,52.404 33.244,83.148Z" style="fill:#f3f5f7;"/><g id="Home Button"><path id="Home Button Circle" d="M870.352,2386.65c37.531,0 68,30.469 68,68c0,37.53 -30.469,68 -68,68c-37.53,0 -68,-30.47 -68,-68c0,-37.531 30.47,-68 68,-68ZM870.352,2391.72c34.732,0 62.929,28.197 62.929,62.929c0,34.731 -28.197,62.928 -62.929,62.928c-34.731,0 -62.928,-28.197 -62.928,-62.928c0,-34.732 28.197,-62.929 62.928,-62.929Z" style="fill:#d5d2cf;"/><path id="Rounded Rectangle Symbol" d="M854.168,2479.15c-0.319,-0.002 -0.637,-0.018 -0.954,-0.055c-0.616,-0.07 -1.224,-0.21 -1.808,-0.416c-1.138,-0.401 -2.183,-1.053 -3.046,-1.896c-0.886,-0.866 -1.576,-1.928 -2.003,-3.091c-0.213,-0.581 -0.36,-1.186 -0.438,-1.8c-0.04,-0.315 -0.06,-0.633 -0.066,-0.951c-0.069,-10.861 -0.069,-21.722 0,-32.583c0.006,-0.318 0.026,-0.635 0.066,-0.951c0.078,-0.614 0.225,-1.219 0.438,-1.8c0.427,-1.163 1.117,-2.225 2.003,-3.091c0.863,-0.842 1.908,-1.495 3.046,-1.896c0.584,-0.206 1.192,-0.346 1.808,-0.416c0.281,-0.032 0.564,-0.048 0.847,-0.054c10.861,-0.069 21.722,-0.069 32.583,0c0.318,0.006 0.635,0.026 0.951,0.066c0.614,0.079 1.219,0.226 1.8,0.439c1.163,0.426 2.225,1.116 3.091,2.002c0.842,0.863 1.495,1.908 1.896,3.046c0.206,0.585 0.346,1.192 0.416,1.808c0.032,0.282 0.048,0.564 0.054,0.847c0.069,10.861 0.069,21.722 0,32.583c-0.006,0.318 -0.026,0.636 -0.067,0.951c-0.078,0.614 -0.225,1.219 -0.438,1.8c-0.426,1.163 -1.116,2.225 -2.002,3.091c-0.863,0.843 -1.908,1.495 -3.046,1.896c-0.585,0.206 -1.192,0.346 -1.808,0.416c-0.282,0.033 -0.564,0.049 -0.847,0.054c-10.825,0.069 -21.651,0.001 -32.476,0.001ZM854.188,2473.65c10.82,0 21.646,0.339 32.46,-0.003c0.085,-0.003 0.168,-0.01 0.252,-0.02c0.285,-0.039 0.562,-0.117 0.822,-0.238c0.671,-0.313 1.207,-0.895 1.461,-1.59c0.109,-0.298 0.163,-0.611 0.169,-0.928c0.069,-10.839 0.344,-21.684 -0.002,-32.518c-0.013,-0.291 -0.066,-0.579 -0.167,-0.853c-0.283,-0.774 -0.912,-1.398 -1.684,-1.682c-0.295,-0.109 -0.608,-0.162 -0.922,-0.168c-10.84,-0.062 -21.686,-0.356 -32.521,0.002c-0.29,0.012 -0.577,0.065 -0.85,0.166c-0.761,0.28 -1.384,0.891 -1.673,1.65c-0.116,0.307 -0.174,0.632 -0.18,0.96c-0.066,10.839 -0.34,21.684 0.002,32.519c0.013,0.314 0.075,0.623 0.191,0.916c0.272,0.689 0.822,1.257 1.5,1.555c0.274,0.12 0.566,0.192 0.864,0.22c0.093,0.008 0.185,0.011 0.278,0.012Z" style="fill:#d5d2cf;fill-rule:nonzero;"/></g><g id="Screen"><path id="Screen Frame" d="M102.518,2320.59c-0.824,-0.13 -1.678,-0.134 -2.472,-0.391c-1.606,-0.523 -3.007,-1.54 -4,-2.907c-0.49,-0.675 -0.878,-1.436 -1.136,-2.23c-0.258,-0.793 -0.261,-1.648 -0.392,-2.472l0,-2047.96c0.131,-0.824 0.134,-1.679 0.392,-2.472c0.258,-0.794 0.646,-1.556 1.136,-2.231c0.993,-1.366 2.394,-2.384 4,-2.906c0.794,-0.258 1.648,-0.261 2.472,-0.391l1536,0c0.824,0.13 1.679,0.133 2.472,0.391c0.794,0.258 1.555,0.646 2.23,1.137c1.367,0.993 2.384,2.393 2.906,4c0.258,0.793 0.261,1.648 0.392,2.472l0,2047.96c-0.131,0.824 -0.134,1.679 -0.392,2.472c-0.522,1.607 -1.539,3.007 -2.906,4c-0.675,0.491 -1.436,0.879 -2.23,1.137c-0.793,0.257 -1.648,0.261 -2.472,0.391c-512,0 -1024,0 -1536,0Z" style="fill:#3e3e3e;"/><rect id="Screen - Off" x="102.519" y="264.628" width="1536" height="2047.96" style="fill:#000;"/></g><g id="Top Sensors"><path id="Microphone" d="M822.518,134.555c4.418,0 8,3.582 8,8.001c0,4.418 -3.582,7.999 -8,7.999c-4.419,0 -8,-3.581 -8,-7.999c0,-4.419 3.581,-8.001 8,-8.001Z" style="fill:#e0e0e0;"/><path d="M822.518,134.555c4.418,0 8,3.582 8,8.001c0,4.418 -3.582,7.999 -8,7.999c-4.419,0 -8,-3.581 -8,-7.999c0,-4.419 3.581,-8.001 8,-8.001Z" style="fill:#e0e0e0;"/><path id="Camera" d="M870.518,124.594c8.837,0 16,7.163 16,16c0,8.837 -7.163,16 -16,16c-8.835,0 -16,-7.163 -16,-16c0,-8.837 7.165,-16 16,-16Z" style="fill:#3e3e3e;"/></g></g></g></svg>