<?xml version="1.0" standalone="no"?><!DOCTYPE svg PUBLIC "-//W3C//DTD SVG 1.1//EN" "http://www.w3.org/Graphics/SVG/1.1/DTD/svg11.dtd"><svg width="100%" height="100%" viewBox="0 0 1741 2579" version="1.1" xmlns="http://www.w3.org/2000/svg" xmlns:xlink="http://www.w3.org/1999/xlink" xml:space="preserve" style="fill-rule:evenodd;clip-rule:evenodd;stroke-linejoin:round;stroke-miterlimit:1.41421;"><g id="iPad Mini 3-4 Gold"><path id="Frame" d="M1740.85,2451.51c0,73.026 -54.751,126.876 -126.889,126.876l-93.496,0l-1299.29,0l-93.433,0c-72.138,0 -126.888,-53.85 -126.888,-126.876l0,-2324.26c0,-73.027 54.75,-126.874 126.888,-126.874l1486.22,0c72.138,0 126.889,53.847 126.889,126.874l0,2324.26Z" style="fill:#c7b78c;"/><g id="Body"><path id="Body1" d="M1729.32,128.282c-0.373,11.816 -0.373,2310.28 0,2322.09c0,30.744 -10.69,60.72 -33.244,83.148c-22.552,22.429 -52.445,33.044 -83.011,33.044l-1484.75,0c-30.566,0 -60.459,-10.615 -83.012,-33.044c-22.553,-22.428 -33.243,-52.404 -33.243,-83.148c0.372,-11.816 0.372,-2310.28 0,-2322.09c0,-30.744 10.69,-60.72 33.243,-83.148c22.553,-22.429 52.446,-33.044 83.012,-33.044l1484.75,0c30.566,0 60.459,10.615 83.011,33.044c22.554,22.428 33.244,52.404 33.244,83.148Z" style="fill:#f3f5f7;"/><path id="Home Button" d="M870.686,2392.32c34.214,0 62.05,27.836 62.05,62.05c0,34.214 -27.836,62.049 -62.05,62.049c-34.213,0 -62.049,-27.835 -62.049,-62.049c0,-34.214 27.836,-62.05 62.049,-62.05M870.686,2381.87c-40.04,0 -72.5,32.459 -72.5,72.5c0,40.039 32.46,72.5 72.5,72.5c40.04,0 72.5,-32.461 72.5,-72.5c0,-40.041 -32.46,-72.5 -72.5,-72.5l0,0Z" style="fill:#c7b78c;"/><g id="Screen"><path id="Screen Frame" d="M102.852,2320.36c-0.824,-0.131 -1.678,-0.134 -2.472,-0.392c-1.606,-0.522 -3.007,-1.539 -4,-2.906c-0.49,-0.675 -0.878,-1.436 -1.136,-2.23c-0.258,-0.793 -0.261,-1.648 -0.392,-2.472l0,-2047.96c0.131,-0.824 0.134,-1.678 0.392,-2.472c0.258,-0.793 0.646,-1.555 1.136,-2.23c0.993,-1.367 2.394,-2.384 4,-2.906c0.794,-0.258 1.648,-0.261 2.472,-0.392l1536,0c0.824,0.131 1.679,0.134 2.472,0.392c0.794,0.258 1.555,0.646 2.23,1.136c1.367,0.993 2.384,2.394 2.906,4c0.258,0.794 0.261,1.648 0.392,2.472l0,2047.96c-0.131,0.824 -0.134,1.679 -0.392,2.472c-0.522,1.607 -1.539,3.007 -2.906,4c-0.675,0.49 -1.436,0.879 -2.23,1.136c-0.793,0.258 -1.648,0.261 -2.472,0.392c-512,0 -1024,0 -1536,0Z" style="fill:#3e3e3e;"/><rect id="Screen - Off" x="102.853" y="264.396" width="1536" height="2047.96" style="fill:#000;"/></g><g id="Top Sensors"><path id="Microphone" d="M822.852,134.324c4.418,0 8,3.582 8,8.001c0,4.418 -3.582,7.999 -8,7.999c-4.419,0 -8,-3.581 -8,-7.999c0,-4.419 3.581,-8.001 8,-8.001Z" style="fill:#e0e0e0;"/><path d="M822.852,134.324c4.418,0 8,3.582 8,8.001c0,4.418 -3.582,7.999 -8,7.999c-4.419,0 -8,-3.581 -8,-7.999c0,-4.419 3.581,-8.001 8,-8.001Z" style="fill:#e0e0e0;"/><path id="Camera" d="M870.852,124.363c8.837,0 16,7.163 16,16c0,8.836 -7.163,16 -16,16c-8.835,0 -16,-7.164 -16,-16c0,-8.837 7.165,-16 16,-16Z" style="fill:#3e3e3e;"/></g></g></g></svg>