<?xml version="1.0" encoding="UTF-8" standalone="no"?>
<svg width="1938px" height="2517px" viewBox="0 0 1938 2517" version="1.1" xmlns="http://www.w3.org/2000/svg" xmlns:xlink="http://www.w3.org/1999/xlink" xmlns:sketch="http://www.bohemiancoding.com/sketch/ns">
    <!-- Generator: Sketch 3.3.3 (12072) - http://www.bohemiancoding.com/sketch -->
    <title>iPad 3-4 White</title>
    <desc>Created with Sketch.</desc>
    <defs></defs>
    <g id="iPad" stroke="none" stroke-width="1" fill="none" fill-rule="evenodd" sketch:type="MSPage">
        <g id="iPad-3-4" sketch:type="MSArtboardGroup" transform="translate(-2781.000000, -242.000000)">
            <g id="iPad-3-4-White" sketch:type="MSLayerGroup" transform="translate(2781.000000, 242.000000)">
                <path d="M1845.55,0.387 L91.04,0.387 C39.676,0.387 0.02,39.288 0.02,87.106 L0.02,2429.676 C0.02,2477.492 38.924,2516.394 86.741,2516.394 L1851.281,2516.394 C1899.097,2516.394 1938.002,2477.492 1938.002,2429.676 L1938.002,87.106 C1938.002,39.288 1898.582,0.387 1845.55,0.387 L1845.55,0.387 Z" id="Frame" fill="#D5D2CF" sketch:type="MSShapeGroup"></path>
                <g id="Body" transform="translate(8.000000, 8.000000)" sketch:type="MSShapeGroup">
                    <path d="M1921.97,2421.57 C1921.97,2465.108 1886.673,2500.405 1843.132,2500.405 L78.842,2500.405 C35.299,2500.405 0.006,2465.108 0.006,2421.57 L0.006,79.25 C0.006,35.712 35.299,0.414 78.842,0.414 L1843.132,0.414 C1886.673,0.414 1921.97,35.712 1921.97,79.25 L1921.97,2421.57 L1921.97,2421.57 Z" id="Body1" fill="#F3F5F7"></path>
                    <g id="Screen" transform="translate(190.000000, 204.000000)">
                        <path d="M8.018,2064.39 C7.194,2064.26 6.339,2064.257 5.546,2063.999 C4.752,2063.741 3.99,2063.353 3.315,2062.863 C1.949,2061.87 0.931,2060.469 0.409,2058.863 C0.151,2058.069 0.148,2057.215 0.018,2056.39 L0.018,8.43 C0.148,7.606 0.151,6.752 0.409,5.958 C0.667,5.165 1.055,4.403 1.546,3.728 C2.539,2.361 3.939,1.344 5.546,0.822 C6.339,0.564 7.194,0.561 8.018,0.43 L1544.018,0.43 C1544.842,0.561 1545.697,0.564 1546.49,0.822 C1548.097,1.344 1549.497,2.361 1550.49,3.728 C1550.981,4.403 1551.369,5.165 1551.627,5.958 C1551.884,6.752 1551.888,7.606 1552.018,8.43 L1552.018,2056.39 C1551.888,2057.215 1551.884,2058.069 1551.627,2058.863 C1551.369,2059.656 1550.981,2060.418 1550.49,2061.093 C1549.497,2062.46 1548.097,2063.477 1546.49,2063.999 C1545.697,2064.257 1544.842,2064.26 1544.018,2064.39 L8.018,2064.39 L8.018,2064.39 Z" id="Frame1" fill="#3E3E3E"></path>
                        <rect id="Screen---Off" fill="#343434" x="8.018" y="8.427" width="1536" height="2047.96"></rect>
                    </g>
                    <g id="Home-Button" transform="translate(909.000000, 2333.000000)" fill="#D5D2CF">
                        <path d="M55.385,0.94 C85.464,0.94 109.885,25.361 109.885,55.44 C109.885,85.52 85.464,109.94 55.385,109.94 C25.305,109.94 0.885,85.52 0.885,55.44 C0.885,25.361 25.305,0.94 55.385,0.94 L55.385,0.94 Z M55.385,5.01 C83.221,5.01 105.82,27.609 105.82,55.445 C105.82,83.281 83.221,105.881 55.385,105.881 C27.549,105.881 4.949,83.281 4.949,55.445 C4.949,27.609 27.549,5.01 55.385,5.01 L55.385,5.01 Z" id="Home-Button-Circle"></path>
                        <path d="M42.414,75.08 C42.158,75.079 41.903,75.066 41.649,75.037 C41.155,74.98 40.668,74.868 40.2,74.703 C39.288,74.382 38.45,73.859 37.759,73.184 C37.048,72.49 36.495,71.639 36.153,70.706 C35.983,70.241 35.865,69.756 35.802,69.264 C35.77,69.011 35.754,68.757 35.749,68.502 C35.694,59.797 35.694,51.092 35.749,42.387 C35.754,42.132 35.77,41.878 35.802,41.625 C35.865,41.133 35.983,40.648 36.153,40.183 C36.495,39.25 37.048,38.399 37.759,37.705 C38.45,37.03 39.288,36.507 40.2,36.185 C40.668,36.02 41.155,35.908 41.649,35.852 C41.874,35.826 42.101,35.813 42.328,35.809 C51.032,35.754 59.737,35.754 68.442,35.809 C68.697,35.814 68.951,35.83 69.204,35.862 C69.696,35.925 70.181,36.042 70.647,36.213 C71.579,36.555 72.43,37.108 73.124,37.818 C73.799,38.51 74.322,39.347 74.644,40.259 C74.809,40.728 74.921,41.215 74.977,41.708 C75.003,41.934 75.016,42.16 75.02,42.387 C75.075,51.092 75.075,59.797 75.02,68.502 C75.015,68.757 74.999,69.011 74.967,69.264 C74.905,69.756 74.787,70.241 74.616,70.706 C74.274,71.639 73.721,72.49 73.011,73.184 C72.319,73.859 71.482,74.382 70.57,74.703 C70.101,74.868 69.614,74.98 69.121,75.037 C68.895,75.063 68.669,75.076 68.442,75.08 C59.766,75.135 51.09,75.08 42.414,75.08 L42.414,75.08 Z M42.429,70.67 C51.101,70.67 59.778,70.942 68.446,70.669 C68.513,70.666 68.58,70.66 68.647,70.652 C68.876,70.621 69.097,70.559 69.306,70.461 C69.844,70.211 70.273,69.744 70.477,69.187 C70.565,68.949 70.608,68.698 70.612,68.444 C70.668,59.756 70.888,51.064 70.611,42.381 C70.601,42.148 70.558,41.917 70.477,41.697 C70.25,41.077 69.746,40.577 69.127,40.349 C68.891,40.262 68.64,40.219 68.389,40.215 C59.7,40.165 51.007,39.93 42.324,40.216 C42.092,40.226 41.861,40.269 41.643,40.349 C41.032,40.574 40.534,41.063 40.302,41.672 C40.208,41.918 40.162,42.178 40.157,42.441 C40.104,51.129 39.885,59.821 40.159,68.504 C40.17,68.756 40.219,69.004 40.312,69.238 C40.53,69.791 40.971,70.246 41.514,70.484 C41.734,70.581 41.968,70.638 42.207,70.661 C42.281,70.667 42.355,70.67 42.429,70.67 L42.429,70.67 Z" id="Rounded-Rectangle-Symbol"></path>
                    </g>
                    <path d="M960.905,84.952 C969.742,84.952 976.905,92.116 976.905,100.953 C976.905,109.789 969.742,116.952 960.905,116.952 C952.069,116.952 944.905,109.789 944.905,100.953 C944.905,92.116 952.069,84.952 960.905,84.952 L960.905,84.952 Z" id="Camera" fill="#3E3E3E"></path>
                </g>
            </g>
        </g>
    </g>
</svg>