<svg xmlns="http://www.w3.org/2000/svg" width="1741" height="2579" viewBox="0 0 1741 2579">
  <g fill="none" fill-rule="evenodd">
    <path fill="#545454" d="M1740.85,2451.61 C1740.85,2524.636 1686.099,2578.485 1613.961,2578.485 L1520.465,2578.485 L221.175,2578.485 L127.742,2578.485 C55.604,2578.485 0.854,2524.636 0.854,2451.61 L0.854,127.35 C0.854,54.323 55.604,0.476 127.742,0.476 L1613.962,0.476 C1686.1,0.476 1740.851,54.323 1740.851,127.35 L1740.851,2451.61 L1740.85,2451.61 Z"/>
    <g transform="translate(12 12)">
      <path fill="#343434" d="M1717.32,116.379 C1716.947,128.196 1716.947,2426.659 1717.32,2438.469 C1717.32,2469.214 1706.63,2499.19 1684.076,2521.617 C1661.524,2544.046 1631.631,2554.661 1601.065,2554.661 L116.315,2554.661 C85.749,2554.661 55.856,2544.046 33.303,2521.617 C10.75,2499.19 0.06,2469.214 0.06,2438.469 C0.432,2426.653 0.432,128.189 0.06,116.379 C0.06,85.635 10.75,55.659 33.303,33.231 C55.856,10.802 85.749,0.187 116.315,0.187 L1601.065,0.187 C1631.631,0.187 1661.524,10.802 1684.076,33.231 C1706.63,55.659 1717.32,85.635 1717.32,116.379 L1717.32,116.379 Z"/>
      <path fill="#545454" d="M858.686,2380.42 C892.9,2380.42 920.736,2408.255 920.736,2442.469 C920.736,2476.683 892.9,2504.519 858.686,2504.519 C824.473,2504.519 796.637,2476.683 796.637,2442.469 C796.637,2408.255 824.473,2380.42 858.686,2380.42 L858.686,2380.42 Z M858.686,2369.97 C818.646,2369.97 786.186,2402.429 786.186,2442.47 C786.186,2482.509 818.646,2514.97 858.686,2514.97 C898.726,2514.97 931.186,2482.509 931.186,2442.47 C931.186,2402.429 898.726,2369.97 858.686,2369.97 L858.686,2369.97 L858.686,2369.97 Z"/>
      <g fill="#343434" transform="translate(82 244)">
        <path d="M8.852,2064.45 C8.028,2064.32 7.174,2064.316 6.38,2064.059 C4.774,2063.537 3.373,2062.519 2.38,2061.152 C1.89,2060.477 1.502,2059.716 1.244,2058.922 C0.986,2058.129 0.983,2057.274 0.852,2056.45 L0.852,8.49 C0.983,7.666 0.986,6.811 1.244,6.018 C1.502,5.224 1.89,4.462 2.38,3.787 C3.373,2.421 4.774,1.403 6.38,0.881 C7.174,0.623 8.028,0.62 8.852,0.49 L1544.852,0.49 C1545.676,0.62 1546.531,0.623 1547.324,0.881 C1548.118,1.139 1548.879,1.527 1549.554,2.018 C1550.921,3.011 1551.938,4.411 1552.46,6.018 C1552.718,6.811 1552.721,7.666 1552.852,8.49 L1552.852,2056.45 C1552.721,2057.274 1552.718,2058.129 1552.46,2058.922 C1551.938,2060.529 1550.921,2061.929 1549.554,2062.922 C1548.879,2063.413 1548.118,2063.801 1547.324,2064.059 C1546.531,2064.316 1545.676,2064.32 1544.852,2064.45 L8.852,2064.45 L8.852,2064.45 Z"/>
        <polygon points="0 0 1536 0 1536 2048 0 2048" transform="translate(8.853 8.494)"/>
      </g>
      <g transform="translate(802 112)">
        <path d="M8.852,10.422 C13.27,10.422 16.852,14.003 16.852,18.422 C16.852,22.84 13.27,26.422 8.852,26.422 C4.433,26.422 0.852,22.84 0.852,18.422 C0.852,14.003 4.433,10.422 8.852,10.422 L8.852,10.422 Z"/>
        <path fill="#3E3E3E" d="M56.852,0.46 C65.689,0.46 72.852,7.623 72.852,16.46 C72.852,25.297 65.689,32.46 56.852,32.46 C48.017,32.46 40.852,25.297 40.852,16.46 C40.852,7.623 48.017,0.46 56.852,0.46 L56.852,0.46 Z"/>
      </g>
    </g>
  </g>
</svg>
