<?xml version="1.0" encoding="UTF-8" standalone="no"?>
<svg width="1767px" height="2498px" viewBox="0 0 1767 2498" version="1.1" xmlns="http://www.w3.org/2000/svg" xmlns:xlink="http://www.w3.org/1999/xlink" xmlns:sketch="http://www.bohemiancoding.com/sketch/ns">
    <!-- Generator: Sketch 3.3.3 (12072) - http://www.bohemiancoding.com/sketch -->
    <title>iPad Air Silver</title>
    <desc>Created with Sketch.</desc>
    <defs></defs>
    <g id="iPad" stroke="none" stroke-width="1" fill="none" fill-rule="evenodd" sketch:type="MSPage">
        <g id="iPad-Air" sketch:type="MSArtboardGroup" transform="translate(-2867.000000, -251.000000)">
            <g id="iPad-Air-Silver" sketch:type="MSLayerGroup" transform="translate(2867.000000, 251.000000)">
                <path d="M1766.01,121.285 C1766.01,36.617 1722.515,0.631 1642.182,0.631 L116.092,0.631 C31.841,0.631 0.009,49.451 0.009,120.701 L0.009,2377.551 C0.009,2448.801 31.841,2497.621 116.092,2497.621 L1642.182,2497.621 C1722.515,2497.621 1766.01,2461.635 1766.01,2376.968 L1766.01,121.288 L1766.01,121.285 Z" id="Frame" fill="#D5D2CF" sketch:type="MSShapeGroup"></path>
                <g id="Body" transform="translate(12.000000, 13.000000)" sketch:type="MSShapeGroup">
                    <path d="M1711.73,26.294 C1693.285,9.025 1666.279,0.63 1629.173,0.63 L103.963,0.63 C85.907,0.63 69.873,3.188 56.305,8.232 C43.044,13.163 32.088,20.494 23.743,30.023 C7.992,48.007 0.005,74.142 0.005,107.701 L0.005,2364.551 C0.005,2397.981 8.022,2424.086 23.832,2442.138 C40.966,2461.702 67.631,2471.621 103.088,2471.621 L1629.178,2471.621 C1667.114,2471.621 1694.315,2463.422 1712.332,2446.554 C1721.278,2438.179 1728.124,2427.312 1732.68,2414.256 C1737.541,2400.328 1740.006,2383.408 1740.006,2363.968 L1740.006,108.288 C1740.006,88.846 1737.541,71.929 1732.68,58.001 C1728.461,45.913 1721.61,35.542 1711.735,26.297 L1711.73,26.294 Z" id="Body1" fill="#F3F5F7"></path>
                    <g id="Home-Button" transform="translate(816.000000, 2324.000000)" fill="#D5D2CF">
                        <path d="M54.505,0.62 C84.584,0.62 109.005,25.04 109.005,55.12 C109.005,85.199 84.584,109.62 54.505,109.62 C24.425,109.62 0.005,85.199 0.005,55.12 C0.005,25.04 24.425,0.62 54.505,0.62 L54.505,0.62 Z M54.505,4.69 C82.341,4.69 104.94,27.29 104.94,55.126 C104.94,82.962 82.341,105.561 54.505,105.561 C26.669,105.561 4.069,82.962 4.069,55.126 C4.069,27.29 26.669,4.69 54.505,4.69 L54.505,4.69 Z" id="Home-Button-Circle"></path>
                        <path d="M41.533,74.76 C41.278,74.758 41.023,74.745 40.769,74.716 C40.275,74.66 39.788,74.548 39.32,74.383 C38.408,74.061 37.57,73.538 36.878,72.863 C36.168,72.169 35.615,71.318 35.273,70.385 C35.103,69.92 34.985,69.435 34.922,68.943 C34.89,68.69 34.874,68.436 34.869,68.181 C34.814,59.476 34.814,50.771 34.869,42.066 C34.874,41.811 34.89,41.557 34.922,41.304 C34.985,40.812 35.103,40.328 35.273,39.862 C35.615,38.929 36.168,38.078 36.878,37.384 C37.57,36.709 38.408,36.186 39.32,35.865 C39.788,35.7 40.275,35.588 40.769,35.531 C40.994,35.505 41.22,35.493 41.447,35.488 C50.152,35.433 58.857,35.433 67.562,35.488 C67.817,35.493 68.071,35.509 68.324,35.541 C68.816,35.604 69.301,35.722 69.766,35.892 C70.699,36.234 71.55,36.787 72.244,37.498 C72.919,38.189 73.442,39.027 73.764,39.939 C73.929,40.407 74.041,40.894 74.097,41.388 C74.123,41.613 74.136,41.84 74.14,42.066 C74.195,50.771 74.195,59.476 74.14,68.181 C74.135,68.436 74.119,68.69 74.087,68.943 C74.024,69.435 73.907,69.92 73.736,70.385 C73.394,71.318 72.841,72.169 72.131,72.863 C71.439,73.538 70.602,74.061 69.69,74.383 C69.221,74.548 68.734,74.66 68.241,74.716 C68.015,74.742 67.789,74.755 67.562,74.759 C58.886,74.814 50.21,74.76 41.533,74.76 L41.533,74.76 Z M41.549,70.35 C50.221,70.35 58.898,70.621 67.566,70.348 C67.633,70.345 67.7,70.339 67.767,70.331 C67.995,70.301 68.217,70.238 68.426,70.141 C68.963,69.89 69.393,69.423 69.597,68.867 C69.684,68.628 69.727,68.377 69.732,68.123 C69.788,59.436 70.008,50.744 69.731,42.061 C69.72,41.827 69.678,41.597 69.597,41.377 C69.37,40.757 68.866,40.256 68.247,40.028 C68.01,39.941 67.76,39.899 67.508,39.894 C58.82,39.844 50.127,39.609 41.444,39.896 C41.211,39.906 40.981,39.948 40.762,40.028 C40.152,40.253 39.653,40.743 39.422,41.351 C39.328,41.597 39.282,41.857 39.277,42.12 C39.224,50.808 39.004,59.5 39.278,68.183 C39.29,68.435 39.339,68.683 39.432,68.918 C39.65,69.47 40.09,69.925 40.634,70.164 C40.854,70.26 41.088,70.318 41.327,70.34 C41.401,70.346 41.475,70.349 41.549,70.35 L41.549,70.35 Z" id="Rounded-Rectangle-Symbol"></path>
                    </g>
                    <g id="Screen" transform="translate(94.000000, 206.000000)">
                        <path d="M1544,0.624 L8,0.624 C3.583,0.624 0.001,4.206 0.001,8.624 L0.001,2056.624 C0.001,2058.746 0.843,2060.781 2.343,2062.282 C3.844,2063.782 5.878,2064.624 8,2064.624 L1544,2064.624 C1548.418,2064.624 1552.001,2061.042 1552.001,2056.624 L1552.001,8.624 C1552.001,4.206 1548.418,0.624 1544,0.624 L1544,0.624 Z" id="Screen-Frame" fill="#3E3E3E"></path>
                        <rect id="Screen---Off" fill="#343434" x="8.005" y="8.624" width="1536" height="2048"></rect>
                    </g>
                    <g id="Top-Sensors" transform="translate(819.000000, 91.000000)">
                        <path d="M7.504,7.624 C11.369,7.624 14.504,10.758 14.504,14.624 C14.504,18.49 11.369,21.624 7.504,21.624 C3.637,21.624 0.504,18.49 0.504,14.624 C0.504,10.758 3.637,7.624 7.504,7.624 L7.504,7.624 Z" id="Microphone" fill="#E0E0E0"></path>
                        <path d="M50.005,0.623 C57.461,0.623 63.505,6.667 63.505,14.124 C63.505,21.58 57.461,27.623 50.005,27.623 C42.549,27.623 36.505,21.58 36.505,14.124 C36.505,6.667 42.549,0.623 50.005,0.623 L50.005,0.623 Z" id="Camera" fill="#3E3E3E"></path>
                    </g>
                </g>
            </g>
        </g>
    </g>
</svg>