<svg xmlns="http://www.w3.org/2000/svg" width="2240" height="2924" viewBox="0 0 2240 2924">
  <g fill="none" fill-rule="evenodd">
    <path fill="#D5D2CF" d="M2234,141 C2234,66.4912 2173.50813,6 2098.99923,6 L135.000774,6 C60.4918666,6 0,66.4912 0,141 L0,2789 C0,2863.50848 60.4918666,2924 135.000774,2924 L2098.99923,2924 C2173.50813,2924 2234,2863.50848 2234,2789 L2234,141 Z"/>
    <path fill="#3E3E3E" d="M2224,140 C2224,71.56256 2168.43744,16 2100,16 L134,16 C65.56256,16 10,71.56256 10,140 L10,2790 C10,2858.43744 65.56256,2914 134,2914 L2100,2914 C2168.43744,2914 2224,2858.43744 2224,2790 L2224,140 Z"/>
    <path fill="#D5D2CF" d="M255 344L255 448 258.677024 448C259.483582 448 262 446.101703 262 445.451939L262 346.422662C262 345.735696 259.36042 344 258.738777 344L255 344 255 344zM255 218L255 322 258.677024 322C259.483582 322 262 320.101703 262 319.451939L262 220.422662C262 219.735696 259.36042 218 258.738777 218L255 218 255 218zM0 7L123 7 123 3.32263282C123 2.51641835 121.102035 0 120.452815 0L2.4218291 0C1.73477856 0 0 2.6392374 0 3.26122329L0 7z" transform="translate(1978)"/>
    <g fill="#343434" transform="translate(16 22)">
      <path d="M2202,117.982694 C2202,52.8662283 2149.13331,0 2084.01629,0 L117.983714,0 C52.8666856,0 0,52.8662283 0,117.982694 L0,2768.01731 C0,2833.13345 52.8666856,2886 117.983714,2886 L2084.01629,2886 C2149.13331,2886 2202,2833.13345 2202,2768.01731 L2202,117.982694 Z"/>
      <rect width="2048" height="2732" transform="translate(77 77)"/>
      <path d="M2202,117.982694 C2202,52.8662283 2149.13331,0 2084.01629,0 L117.983714,0 C52.8666856,0 0,52.8662283 0,117.982694 L0,2768.01731 C0,2833.13345 52.8666856,2886 117.983714,2886 L2084.01629,2886 C2149.13331,2886 2202,2833.13345 2202,2768.01731 L2202,117.982694 Z M2124.99935,110.999983 C2124.99935,92.2348595 2109.76434,76.9999829 2090.99906,76.9999829 L110.998376,76.9999829 C92.2330974,76.9999829 76.998089,92.2348595 76.998089,110.999983 L76.998089,2774.99938 C76.998089,2793.7645 92.2330974,2808.99938 110.998376,2808.99938 L2090.99906,2808.99938 C2109.76434,2808.99938 2124.99935,2793.7645 2124.99935,2774.99938 L2124.99935,110.999983 Z"/>
    </g>
    <g fill="#3E3E3E" transform="translate(1111 49)">
      <circle cx="12.5" cy="12.5" r="12.5"/>
      <circle cx="82" cy="11" r="4"/>
    </g>
  </g>
</svg>
