<?xml version="1.0" encoding="UTF-8" standalone="no"?>
<svg width="1741px" height="2579px" viewBox="0 0 1741 2579" version="1.1" xmlns="http://www.w3.org/2000/svg" xmlns:xlink="http://www.w3.org/1999/xlink" xmlns:sketch="http://www.bohemiancoding.com/sketch/ns">
    <!-- Generator: Sketch 3.3.3 (12072) - http://www.bohemiancoding.com/sketch -->
    <title>iPad Mini 3-4 Gold</title>
    <desc>Created with Sketch.</desc>
    <defs></defs>
    <g id="iPad" stroke="none" stroke-width="1" fill="none" fill-rule="evenodd" sketch:type="MSPage">
        <g id="iPad-Mini-3-4" sketch:type="MSArtboardGroup" transform="translate(-5380.000000, -210.000000)">
            <g id="iPad-Mini-3-4-Gold" sketch:type="MSLayerGroup" transform="translate(5380.000000, 210.500000)">
                <path d="M1740.85,2451.51 C1740.85,2524.536 1686.099,2578.386 1613.961,2578.386 L1520.465,2578.386 L221.175,2578.386 L127.742,2578.386 C55.604,2578.386 0.854,2524.536 0.854,2451.51 L0.854,127.25 C0.854,54.223 55.604,0.376 127.742,0.376 L1613.962,0.376 C1686.1,0.376 1740.851,54.223 1740.851,127.25 L1740.851,2451.51 L1740.85,2451.51 Z" id="Frame" fill="#DCC6AA" sketch:type="MSShapeGroup"></path>
                <g id="Body" transform="translate(12.000000, 12.000000)" sketch:type="MSShapeGroup">
                    <path d="M1717.32,116.282 C1716.947,128.098 1716.947,2426.562 1717.32,2438.372 C1717.32,2469.116 1706.63,2499.092 1684.076,2521.52 C1661.524,2543.949 1631.631,2554.564 1601.065,2554.564 L116.315,2554.564 C85.749,2554.564 55.856,2543.949 33.303,2521.52 C10.75,2499.092 0.06,2469.116 0.06,2438.372 C0.432,2426.556 0.432,128.092 0.06,116.282 C0.06,85.538 10.75,55.562 33.303,33.134 C55.856,10.705 85.749,0.09 116.315,0.09 L1601.065,0.09 C1631.631,0.09 1661.524,10.705 1684.076,33.134 C1706.63,55.562 1717.32,85.538 1717.32,116.282 L1717.32,116.282 Z" id="Body1" fill="#F3F5F7"></path>
                    <path d="M858.686,2380.32 C892.9,2380.32 920.736,2408.156 920.736,2442.37 C920.736,2476.584 892.9,2504.419 858.686,2504.419 C824.473,2504.419 796.637,2476.584 796.637,2442.37 C796.637,2408.156 824.473,2380.32 858.686,2380.32 L858.686,2380.32 Z M858.686,2369.87 C818.646,2369.87 786.186,2402.329 786.186,2442.37 C786.186,2482.409 818.646,2514.87 858.686,2514.87 C898.726,2514.87 931.186,2482.409 931.186,2442.37 C931.186,2402.329 898.726,2369.87 858.686,2369.87 L858.686,2369.87 L858.686,2369.87 Z" id="Home-Button" fill="#DCC6AA"></path>
                    <g id="Screen" transform="translate(82.000000, 244.000000)">
                        <path d="M8.852,2064.36 C8.028,2064.229 7.174,2064.226 6.38,2063.968 C4.774,2063.446 3.373,2062.429 2.38,2061.062 C1.89,2060.387 1.502,2059.626 1.244,2058.832 C0.986,2058.039 0.983,2057.184 0.852,2056.36 L0.852,8.4 C0.983,7.576 0.986,6.722 1.244,5.928 C1.502,5.135 1.89,4.373 2.38,3.698 C3.373,2.331 4.774,1.314 6.38,0.792 C7.174,0.534 8.028,0.531 8.852,0.4 L1544.852,0.4 C1545.676,0.531 1546.531,0.534 1547.324,0.792 C1548.118,1.05 1548.879,1.438 1549.554,1.928 C1550.921,2.921 1551.938,4.322 1552.46,5.928 C1552.718,6.722 1552.721,7.576 1552.852,8.4 L1552.852,2056.36 C1552.721,2057.184 1552.718,2058.039 1552.46,2058.832 C1551.938,2060.439 1550.921,2061.839 1549.554,2062.832 C1548.879,2063.322 1548.118,2063.711 1547.324,2063.968 C1546.531,2064.226 1545.676,2064.229 1544.852,2064.36 L8.852,2064.36 L8.852,2064.36 Z" id="Screen-Frame" fill="#3E3E3E"></path>
                        <rect id="Screen---Off" fill="#343434" x="8.853" y="8.396" width="1536" height="2047.96"></rect>
                    </g>
                    <g id="Top-Sensors" transform="translate(802.000000, 112.000000)">
                        <path d="M8.852,10.324 C13.27,10.324 16.852,13.906 16.852,18.325 C16.852,22.743 13.27,26.324 8.852,26.324 C4.433,26.324 0.852,22.743 0.852,18.325 C0.852,13.906 4.433,10.324 8.852,10.324 L8.852,10.324 Z" id="Microphone" fill="#E0E0E0"></path>
                        <path d="M8.852,10.324 C13.27,10.324 16.852,13.906 16.852,18.325 C16.852,22.743 13.27,26.324 8.852,26.324 C4.433,26.324 0.852,22.743 0.852,18.325 C0.852,13.906 4.433,10.324 8.852,10.324 L8.852,10.324 Z" id="Shape" fill="#E0E0E0"></path>
                        <path d="M56.852,0.363 C65.689,0.363 72.852,7.526 72.852,16.363 C72.852,25.199 65.689,32.363 56.852,32.363 C48.017,32.363 40.852,25.199 40.852,16.363 C40.852,7.526 48.017,0.363 56.852,0.363 L56.852,0.363 Z" id="Camera" fill="#3E3E3E"></path>
                    </g>
                </g>
            </g>
        </g>
    </g>
</svg>