<svg xmlns="http://www.w3.org/2000/svg" width="1861" height="2581" viewBox="0 0 1861 2581">
  <g fill="none" fill-rule="evenodd">
    <path fill="#545454" d="M1854,142 C1854,67.4912 1793.50848,7 1719,7 L135,7 C60.49152,7 0,67.4912 0,142 L0,2446 C0,2520.50848 60.49152,2581 135,2581 L1719,2581 C1793.50848,2581 1854,2520.50848 1854,2446 L1854,142 Z"/>
    <path fill="#3E3E3E" d="M1844,141 C1844,72.56256 1788.43744,17 1720,17 L134,17 C65.56256,17 10,72.56256 10,141 L10,2447 C10,2515.43744 65.56256,2571 134,2571 L1720,2571 C1788.43744,2571 1844,2515.43744 1844,2447 L1844,141 Z"/>
    <path fill="#545454" d="M255 335L255 439 258.677024 439C259.483582 439 262 437.101703 262 436.451939L262 337.422662C262 336.735696 259.36042 335 258.738777 335L255 335 255 335zM255 209L255 313 258.677024 313C259.483582 313 262 311.101703 262 310.451939L262 211.422662C262 210.735696 259.36042 209 258.738777 209L255 209 255 209zM0 7L123 7 123 3.32263282C123 2.51641835 121.102035 0 120.452815 0L2.4218291 0C1.73477856 0 0 2.6392374 0 3.26122329L0 7z" transform="translate(1599)"/>
    <g fill="#343434" transform="translate(16 23)">
      <path d="M1822,117.98269 C1822,52.8662267 1769.13347,0 1704.01702,0 L117.982658,0 C52.8662121,0 0,52.8662267 0,117.98269 L0,2424.01731 C0,2489.13345 52.8662121,2542 117.982658,2542 L1704.01702,2542 C1769.13347,2542 1822,2489.13345 1822,2424.01731 L1822,117.98269 Z"/>
      <rect width="1668" height="2388" transform="translate(77 77)"/>
      <path d="M1822,117.98269 C1822,52.8662267 1769.13347,0 1704.01702,0 L117.982658,0 C52.8662121,0 0,52.8662267 0,117.98269 L0,2424.01731 C0,2489.13345 52.8662121,2542 117.982658,2542 L1704.01702,2542 C1769.13347,2542 1822,2489.13345 1822,2424.01731 L1822,117.98269 Z M1745.00004,110.999981 C1745.00004,92.2348568 1729.76517,76.9999806 1711.00006,76.9999806 L111.000902,76.9999806 C92.2357914,76.9999806 77.0009194,92.2348568 77.0009194,110.999981 L77.0009194,2430.99939 C77.0009194,2449.7645 92.2357914,2464.99938 111.000902,2464.99938 L1711.00006,2464.99938 C1729.76517,2464.99938 1745.00004,2449.7645 1745.00004,2430.99939 L1745.00004,110.999981 Z"/>
    </g>
    <g fill="#3E3E3E" transform="translate(917 49)">
      <circle cx="12.5" cy="12.5" r="12.5"/>
      <circle cx="82" cy="11" r="4"/>
    </g>
  </g>
</svg>
