<?xml version="1.0" standalone="no"?><!DOCTYPE svg PUBLIC "-//W3C//DTD SVG 1.1//EN" "http://www.w3.org/Graphics/SVG/1.1/DTD/svg11.dtd"><svg width="100%" height="100%" viewBox="0 0 1939 2517" version="1.1" xmlns="http://www.w3.org/2000/svg" xmlns:xlink="http://www.w3.org/1999/xlink" xml:space="preserve" style="fill-rule:evenodd;clip-rule:evenodd;stroke-linejoin:round;stroke-miterlimit:1.41421;"><g id="iPad 3-4 Black"><path id="Frame" d="M1845.56,0.403l-1754.51,0c-51.363,0 -91.02,38.902 -91.02,86.719l0,2342.57c0,47.816 38.905,86.718 86.721,86.718l1764.54,0c47.817,0 86.721,-38.902 86.721,-86.718l0,-2342.57c0,-47.817 -39.42,-86.719 -92.451,-86.719Z" style="fill:#d5d2cf;"/><g id="Body"><path id="Body1" d="M1929.97,2429.59c0,43.538 -35.297,78.835 -78.838,78.835l-1764.29,0c-43.543,0 -78.836,-35.297 -78.836,-78.835l0,-2342.32c0,-43.538 35.293,-78.836 78.836,-78.836l1764.29,0c43.541,0 78.838,35.298 78.838,78.836l0,2342.32Z" style="fill:#141414;"/><g id="Screen"><path id="Frame1" d="M206.018,2276.4c-0.824,-0.131 -1.678,-0.134 -2.472,-0.392c-0.793,-0.258 -1.555,-0.646 -2.23,-1.136c-1.367,-0.993 -2.384,-2.394 -2.906,-4c-0.258,-0.794 -0.261,-1.648 -0.392,-2.472l0,-2047.96c0.131,-0.824 0.134,-1.678 0.392,-2.472c0.258,-0.793 0.646,-1.555 1.136,-2.23c0.993,-1.367 2.393,-2.384 4,-2.906c0.794,-0.258 1.648,-0.261 2.472,-0.392l1536,0c0.824,0.131 1.678,0.134 2.472,0.392c1.607,0.522 3.007,1.539 4,2.906c0.49,0.675 0.878,1.437 1.136,2.23c0.258,0.794 0.261,1.648 0.392,2.472l0,2047.96c-0.131,0.824 -0.134,1.678 -0.392,2.472c-0.258,0.793 -0.646,1.555 -1.136,2.23c-0.993,1.367 -2.393,2.384 -4,2.906c-0.794,0.258 -1.648,0.261 -2.472,0.392c-512,0 -1024,0 -1536,0Z" style="fill:#141414;"/><rect id="Screen - Off" x="206.018" y="220.443" width="1536" height="2047.96" style="fill:#141414;"/></g><g id="Home Button"><path id="Home Button Circle" d="M972.385,2341.96c30.08,0 54.5,24.421 54.5,54.5c0,30.08 -24.42,54.5 -54.5,54.5c-30.079,0 -54.5,-24.42 -54.5,-54.5c0,-30.079 24.421,-54.5 54.5,-54.5ZM972.385,2346.02c27.836,0 50.436,22.599 50.436,50.435c0,27.837 -22.6,50.436 -50.436,50.436c-27.836,0 -50.435,-22.599 -50.435,-50.436c0,-27.836 22.599,-50.435 50.435,-50.435Z" style="fill:#1d1d1d;"/><path id="Rounded Rectangle Symbol" d="M959.414,2416.09c-0.256,-0.001 -0.511,-0.014 -0.765,-0.043c-0.493,-0.057 -0.98,-0.168 -1.449,-0.334c-0.912,-0.321 -1.749,-0.844 -2.441,-1.519c-0.71,-0.694 -1.263,-1.545 -1.605,-2.478c-0.171,-0.465 -0.288,-0.95 -0.351,-1.442c-0.032,-0.253 -0.048,-0.507 -0.053,-0.762c-0.055,-8.705 -0.055,-17.41 0,-26.115c0.005,-0.255 0.021,-0.509 0.053,-0.762c0.063,-0.492 0.18,-0.977 0.351,-1.442c0.342,-0.933 0.895,-1.784 1.605,-2.478c0.692,-0.675 1.529,-1.198 2.441,-1.519c0.469,-0.166 0.956,-0.278 1.449,-0.334c0.226,-0.026 0.452,-0.039 0.679,-0.043c8.705,-0.055 17.41,-0.055 26.115,0c0.255,0.005 0.509,0.021 0.762,0.053c0.492,0.063 0.976,0.18 1.442,0.351c0.933,0.342 1.784,0.895 2.478,1.605c0.675,0.692 1.198,1.529 1.519,2.441c0.165,0.469 0.277,0.956 0.334,1.449c0.026,0.226 0.039,0.452 0.043,0.679c0.055,8.705 0.055,17.41 0,26.115c-0.005,0.255 -0.021,0.509 -0.053,0.762c-0.063,0.492 -0.181,0.977 -0.351,1.442c-0.342,0.933 -0.895,1.784 -1.606,2.478c-0.691,0.675 -1.529,1.198 -2.441,1.519c-0.468,0.166 -0.955,0.277 -1.449,0.334c-0.225,0.026 -0.451,0.039 -0.678,0.043c-8.676,0.055 -17.353,0 -26.029,0ZM959.43,2411.69c8.672,0 17.348,0.272 26.016,-0.001c0.068,-0.003 0.135,-0.009 0.202,-0.017c0.228,-0.031 0.45,-0.093 0.659,-0.191c0.537,-0.25 0.967,-0.717 1.171,-1.274c0.087,-0.238 0.13,-0.489 0.135,-0.743c0.056,-8.687 0.276,-17.379 -0.001,-26.062c-0.011,-0.234 -0.054,-0.465 -0.134,-0.684c-0.228,-0.621 -0.731,-1.121 -1.35,-1.349c-0.237,-0.087 -0.487,-0.13 -0.739,-0.134c-8.688,-0.05 -17.381,-0.285 -26.065,0.001c-0.232,0.01 -0.462,0.053 -0.681,0.133c-0.61,0.225 -1.109,0.714 -1.34,1.323c-0.094,0.246 -0.14,0.506 -0.145,0.769c-0.053,8.688 -0.273,17.38 0.001,26.063c0.011,0.252 0.061,0.5 0.153,0.734c0.218,0.553 0.659,1.008 1.203,1.246c0.22,0.097 0.454,0.154 0.692,0.177c0.075,0.006 0.148,0.009 0.223,0.009Z" style="fill:#d5d2cf;fill-rule:nonzero;"/></g><path id="Camera" d="M968.906,92.969c8.837,0 16,7.163 16,16c0,8.836 -7.163,16 -16,16c-8.836,0 -16,-7.164 -16,-16c0,-8.837 7.164,-16 16,-16Z" style="fill:#1d1d1d;"/></g></g></svg>