<svg xmlns="http://www.w3.org/2000/svg" width="1806" height="2609" viewBox="0 0 1806 2609">
  <g fill="none" fill-rule="evenodd">
    <path fill="#D5D2CF" d="M1806,102.999937 C1806,46.1526117 1759.84736,0 1703,0 L103,0 C46.15264,0 0,46.1526117 0,102.999937 L0,2506.00006 C0,2562.84739 46.15264,2609 103,2609 L1703,2609 C1759.84736,2609 1806,2562.84739 1806,2506.00006 L1806,102.999937 Z"/>
    <g transform="translate(11 11)">
      <path fill="#F3F5F7" d="M1784,91.9999431 C1784,41.2236545 1742.77632,0 1692,0 L92,0 C41.22368,0 0,41.2236545 0,91.9999431 L0,2495.00006 C0,2545.77635 41.22368,2587 92,2587 L1692,2587 C1742.77632,2587 1784,2545.77635 1784,2495.00006 L1784,91.9999431 Z"/>
      <circle cx="892" cy="106" r="14" fill="#3E3E3E"/>
      <path fill="#D5D2CF" d="M892,2437 C923.4592,2437 949,2462.5408 949,2494 C949,2525.4592 923.4592,2551 892,2551 C860.5408,2551 835,2525.4592 835,2494 C835,2462.5408 860.5408,2437 892,2437 Z M892,2444 C919.59584,2444 942,2466.40416 942,2494 C942,2521.59584 919.59584,2544 892,2544 C864.40416,2544 842,2521.59584 842,2494 C842,2466.40416 864.40416,2444 892,2444 Z"/>
    </g>
    <g transform="translate(85 217)">
      <path fill="#3E3E3E" d="M1636,8 C1636,3.58464 1632.41536,0 1628,0 L8,0 C3.58464,0 0,3.58464 0,8 L0,2168 C0,2172.41536 3.58464,2176 8,2176 L1628,2176 C1632.41536,2176 1636,2172.41536 1636,2168 L1636,8 Z"/>
      <rect width="1620" height="2160" fill="#343434" transform="translate(8 8)"/>
    </g>
  </g>
</svg>
