<?xml version="1.0" encoding="UTF-8" standalone="no"?>
<svg width="1741px" height="2579px" viewBox="0 0 1741 2579" version="1.1" xmlns="http://www.w3.org/2000/svg" xmlns:xlink="http://www.w3.org/1999/xlink" xmlns:sketch="http://www.bohemiancoding.com/sketch/ns">
    <!-- Generator: Sketch 3.3.3 (12072) - http://www.bohemiancoding.com/sketch -->
    <title>iPad Mini 3-4 Space Gray</title>
    <desc>Created with Sketch.</desc>
    <defs></defs>
    <g id="iPad" stroke="none" stroke-width="1" fill="none" fill-rule="evenodd" sketch:type="MSPage">
        <g id="iPad-Mini-3-4" sketch:type="MSArtboardGroup" transform="translate(-380.000000, -210.000000)">
            <g id="iPad-Mini-3-4-Space-Gray" sketch:type="MSLayerGroup" transform="translate(380.000000, 210.500000)">
                <path d="M1740.85,2451.56 C1740.85,2524.586 1686.099,2578.436 1613.961,2578.436 L1520.465,2578.436 L221.175,2578.436 L127.742,2578.436 C55.604,2578.436 0.854,2524.586 0.854,2451.56 L0.854,127.3 C0.854,54.273 55.604,0.426 127.742,0.426 L1613.962,0.426 C1686.1,0.426 1740.851,54.273 1740.851,127.3 L1740.851,2451.56 L1740.85,2451.56 Z" id="Frame" fill="#545454" sketch:type="MSShapeGroup"></path>
                <g id="Body" transform="translate(12.000000, 12.000000)" sketch:type="MSShapeGroup">
                    <path d="M1717.32,116.331 C1716.947,128.147 1716.947,2426.611 1717.32,2438.421 C1717.32,2469.165 1706.63,2499.141 1684.076,2521.569 C1661.524,2543.997 1631.631,2554.613 1601.065,2554.613 L116.315,2554.613 C85.749,2554.613 55.856,2543.997 33.303,2521.569 C10.75,2499.141 0.06,2469.165 0.06,2438.421 C0.432,2426.604 0.432,128.141 0.06,116.331 C0.06,85.586 10.75,55.61 33.303,33.183 C55.856,10.754 85.749,0.139 116.315,0.139 L1601.065,0.139 C1631.631,0.139 1661.524,10.754 1684.076,33.183 C1706.63,55.61 1717.32,85.586 1717.32,116.331 L1717.32,116.331 Z" id="Body1" fill="#343434"></path>
                    <path d="M858.686,2380.42 C892.9,2380.42 920.736,2408.255 920.736,2442.469 C920.736,2476.683 892.9,2504.519 858.686,2504.519 C824.473,2504.519 796.637,2476.683 796.637,2442.469 C796.637,2408.255 824.473,2380.42 858.686,2380.42 L858.686,2380.42 Z M858.686,2369.97 C818.646,2369.97 786.186,2402.429 786.186,2442.47 C786.186,2482.509 818.646,2514.97 858.686,2514.97 C898.726,2514.97 931.186,2482.509 931.186,2442.47 C931.186,2402.429 898.726,2369.97 858.686,2369.97 L858.686,2369.97 L858.686,2369.97 Z" id="Home-Button" fill="#545454"></path>
                    <g id="Screen" transform="translate(82.000000, 244.000000)" fill="#343434">
                        <path d="M8.852,2064.41 C8.028,2064.279 7.174,2064.276 6.38,2064.018 C4.774,2063.496 3.373,2062.479 2.38,2061.112 C1.89,2060.437 1.502,2059.675 1.244,2058.882 C0.986,2058.088 0.983,2057.234 0.852,2056.41 L0.852,8.45 C0.983,7.626 0.986,6.771 1.244,5.978 C1.502,5.184 1.89,4.423 2.38,3.748 C3.373,2.381 4.774,1.364 6.38,0.842 C7.174,0.584 8.028,0.581 8.852,0.45 L1544.852,0.45 C1545.676,0.581 1546.531,0.584 1547.324,0.842 C1548.118,1.099 1548.879,1.488 1549.554,1.978 C1550.921,2.971 1551.938,4.371 1552.46,5.978 C1552.718,6.771 1552.721,7.626 1552.852,8.45 L1552.852,2056.41 C1552.721,2057.234 1552.718,2058.088 1552.46,2058.882 C1551.938,2060.488 1550.921,2061.889 1549.554,2062.882 C1548.879,2063.372 1548.118,2063.76 1547.324,2064.018 C1546.531,2064.276 1545.676,2064.279 1544.852,2064.41 L8.852,2064.41 L8.852,2064.41 Z" id="Screen-Frame"></path>
                        <rect id="Screen---Off" x="8.853" y="8.445" width="1536" height="2047.96"></rect>
                    </g>
                    <g id="Top-Sensors" transform="translate(842.000000, 112.000000)" fill="#3E3E3E">
                        <path d="M16.852,0.411 C25.689,0.411 32.852,7.574 32.852,16.412 C32.852,25.248 25.689,32.411 16.852,32.411 C8.017,32.411 0.852,25.248 0.852,16.412 C0.852,7.574 8.017,0.411 16.852,0.411 L16.852,0.411 Z" id="Camera"></path>
                    </g>
                </g>
            </g>
        </g>
    </g>
</svg>