<?xml version="1.0" standalone="no"?><!DOCTYPE svg PUBLIC "-//W3C//DTD SVG 1.1//EN" "http://www.w3.org/Graphics/SVG/1.1/DTD/svg11.dtd"><svg width="100%" height="100%" viewBox="0 0 1741 2579" version="1.1" xmlns="http://www.w3.org/2000/svg" xmlns:xlink="http://www.w3.org/1999/xlink" xml:space="preserve" style="fill-rule:evenodd;clip-rule:evenodd;stroke-linejoin:round;stroke-miterlimit:1.41421;"><g id="iPad Mini 2 Space Gray"><path id="Frame" d="M1740.52,2451.69c0,73.026 -54.751,126.875 -126.889,126.875l-93.496,0l-1299.29,0l-93.433,0c-72.138,0 -126.888,-53.849 -126.888,-126.875l0,-2324.26c0,-73.027 54.75,-126.874 126.888,-126.874l1486.22,0c72.138,0 126.889,53.847 126.889,126.874l0,2324.26Z" style="fill:#343438;"/><g id="Body"><path id="Body1" d="M1728.98,128.465c-0.373,11.816 -0.373,2310.28 0,2322.09c0,30.745 -10.691,60.721 -33.244,83.149c-22.552,22.428 -52.445,33.044 -83.011,33.044l-1484.75,0c-30.566,0 -60.459,-10.616 -83.012,-33.044c-22.553,-22.428 -33.243,-52.404 -33.243,-83.149c0.372,-11.816 0.372,-2310.28 0,-2322.09c0,-30.745 10.69,-60.721 33.243,-83.149c22.553,-22.428 52.446,-33.043 83.012,-33.043l1484.75,0c30.566,0 60.459,10.615 83.011,33.043c22.553,22.428 33.244,52.404 33.244,83.149Z" style="fill:#141414;"/><g id="Home Button"><path id="Home Button Circle" d="M870.352,2386.6c37.531,0 68,30.47 68,68c0,37.53 -30.469,68 -68,68c-37.53,0 -68,-30.47 -68,-68c0,-37.53 30.47,-68 68,-68ZM870.352,2391.67c34.732,0 62.929,28.198 62.929,62.929c0,34.731 -28.197,62.929 -62.929,62.929c-34.731,0 -62.928,-28.198 -62.928,-62.929c0,-34.731 28.197,-62.929 62.928,-62.929Z" style="fill:#343438;"/><path id="Rounded Rectangle Symbol" d="M854.168,2479.1c-0.319,-0.002 -0.637,-0.018 -0.954,-0.054c-0.616,-0.071 -1.224,-0.21 -1.808,-0.417c-1.138,-0.401 -2.183,-1.053 -3.046,-1.896c-0.886,-0.865 -1.576,-1.927 -2.003,-3.091c-0.213,-0.581 -0.36,-1.186 -0.438,-1.799c-0.04,-0.316 -0.06,-0.633 -0.066,-0.951c-0.069,-10.861 -0.069,-21.723 0,-32.584c0.006,-0.318 0.026,-0.635 0.066,-0.951c0.078,-0.613 0.225,-1.218 0.438,-1.799c0.427,-1.164 1.117,-2.226 2.003,-3.091c0.863,-0.843 1.908,-1.495 3.046,-1.896c0.584,-0.207 1.192,-0.346 1.808,-0.417c0.281,-0.032 0.564,-0.048 0.847,-0.053c10.861,-0.069 21.722,-0.069 32.583,0c0.318,0.006 0.635,0.026 0.951,0.066c0.614,0.078 1.219,0.225 1.8,0.438c1.163,0.426 2.225,1.116 3.091,2.003c0.842,0.863 1.495,1.908 1.896,3.046c0.206,0.584 0.346,1.192 0.416,1.807c0.032,0.282 0.048,0.564 0.054,0.847c0.069,10.861 0.069,21.723 0,32.584c-0.006,0.318 -0.026,0.635 -0.067,0.951c-0.078,0.613 -0.225,1.218 -0.438,1.799c-0.426,1.164 -1.116,2.226 -2.002,3.091c-0.863,0.843 -1.908,1.495 -3.046,1.896c-0.585,0.207 -1.192,0.346 -1.808,0.417c-0.282,0.032 -0.564,0.048 -0.847,0.053c-10.825,0.069 -21.651,0.001 -32.476,0.001ZM854.188,2473.6c10.82,0 21.646,0.339 32.46,-0.002c0.085,-0.004 0.168,-0.011 0.252,-0.021c0.285,-0.038 0.562,-0.116 0.822,-0.238c0.671,-0.313 1.207,-0.895 1.461,-1.589c0.109,-0.298 0.163,-0.611 0.169,-0.928c0.069,-10.839 0.344,-21.684 -0.002,-32.518c-0.013,-0.292 -0.066,-0.579 -0.167,-0.854c-0.283,-0.773 -0.912,-1.398 -1.684,-1.682c-0.295,-0.109 -0.608,-0.162 -0.922,-0.168c-10.84,-0.061 -21.686,-0.355 -32.521,0.002c-0.29,0.013 -0.577,0.066 -0.85,0.166c-0.761,0.28 -1.384,0.891 -1.673,1.65c-0.116,0.308 -0.174,0.632 -0.18,0.96c-0.066,10.84 -0.34,21.685 0.002,32.519c0.013,0.314 0.075,0.624 0.191,0.916c0.272,0.69 0.822,1.257 1.5,1.555c0.274,0.12 0.566,0.192 0.864,0.22c0.093,0.008 0.185,0.011 0.278,0.012Z" style="fill:#d5d2cf;fill-rule:nonzero;"/></g><g id="Screen"><path id="Screen Frame" d="M102.518,2320.54c-0.824,-0.13 -1.678,-0.133 -2.472,-0.391c-1.606,-0.522 -3.007,-1.539 -4,-2.906c-0.49,-0.675 -0.878,-1.437 -1.136,-2.23c-0.258,-0.794 -0.261,-1.648 -0.392,-2.473l0,-2047.96c0.131,-0.824 0.134,-1.679 0.392,-2.472c0.258,-0.794 0.646,-1.555 1.136,-2.23c0.993,-1.367 2.394,-2.384 4,-2.906c0.794,-0.258 1.648,-0.261 2.472,-0.392l1536,0c0.824,0.131 1.679,0.134 2.472,0.392c0.794,0.257 1.555,0.645 2.23,1.136c1.367,0.993 2.384,2.393 2.906,4c0.258,0.793 0.261,1.648 0.392,2.472l0,2047.96c-0.131,0.825 -0.134,1.679 -0.392,2.473c-0.522,1.606 -1.539,3.007 -2.906,4c-0.675,0.49 -1.436,0.878 -2.23,1.136c-0.793,0.258 -1.648,0.261 -2.472,0.391c-512,0 -1024,0 -1536,0Z" style="fill:#141414;"/><rect id="Screen - Off" x="102.519" y="264.579" width="1536" height="2047.96" style="fill:#141414;"/></g><g id="Top Sensors"><path id="Camera" d="M870.518,124.545c8.837,0 16,7.163 16,16c0,8.837 -7.163,16 -16,16c-8.835,0 -16,-7.163 -16,-16c0,-8.837 7.165,-16 16,-16Z" style="fill:#1d1d1d;"/></g></g></g></svg>