<?xml version="1.0" standalone="no"?><!DOCTYPE svg PUBLIC "-//W3C//DTD SVG 1.1//EN" "http://www.w3.org/Graphics/SVG/1.1/DTD/svg11.dtd"><svg width="100%" height="100%" viewBox="0 0 1767 2498" version="1.1" xmlns="http://www.w3.org/2000/svg" xmlns:xlink="http://www.w3.org/1999/xlink" xml:space="preserve" style="fill-rule:evenodd;clip-rule:evenodd;stroke-linejoin:round;stroke-miterlimit:1.41421;"><g id="iPad Air Silver"><path id="Frame" d="M1766.01,121.285c0,-84.668 -43.495,-120.654 -123.828,-120.654l-1526.09,0c-84.251,0 -116.083,48.82 -116.083,120.07l0,2256.85c0,71.25 31.832,120.07 116.083,120.07l1526.09,0c80.333,0 123.828,-35.986 123.828,-120.653l0,-2255.68Z" style="fill:#d5d2cf;"/><g id="Body"><path id="Body1" d="M1723.73,39.294c-18.445,-17.269 -45.451,-25.664 -82.557,-25.664l-1525.21,0c-18.056,0 -34.09,2.558 -47.658,7.602c-13.261,4.931 -24.217,12.262 -32.562,21.791c-15.751,17.984 -23.738,44.119 -23.738,77.678l0,2256.85c0,33.43 8.017,59.535 23.827,77.587c17.134,19.564 43.799,29.483 79.256,29.483l1526.09,0c37.936,0 65.137,-8.199 83.154,-25.067c8.946,-8.375 15.792,-19.242 20.348,-32.298c4.861,-13.928 7.326,-30.848 7.326,-50.288l0,-2255.68c0,-19.442 -2.465,-36.359 -7.326,-50.287c-4.219,-12.088 -11.07,-22.459 -20.945,-31.704Z" style="fill:#f3f5f7;"/><g id="Home Button"><path id="Home Button Circle" d="M882.505,2337.62c30.079,0 54.5,24.42 54.5,54.5c0,30.079 -24.421,54.5 -54.5,54.5c-30.08,0 -54.5,-24.421 -54.5,-54.5c0,-30.08 24.42,-54.5 54.5,-54.5ZM882.505,2341.69c27.836,0 50.435,22.6 50.435,50.436c0,27.836 -22.599,50.435 -50.435,50.435c-27.836,0 -50.436,-22.599 -50.436,-50.435c0,-27.836 22.6,-50.436 50.436,-50.436Z" style="fill:#d5d2cf;"/><path id="Rounded Rectangle Symbol" d="M869.533,2411.76c-0.255,-0.002 -0.51,-0.015 -0.764,-0.044c-0.494,-0.056 -0.981,-0.168 -1.449,-0.333c-0.912,-0.322 -1.75,-0.845 -2.442,-1.52c-0.71,-0.694 -1.263,-1.545 -1.605,-2.478c-0.17,-0.465 -0.288,-0.95 -0.351,-1.442c-0.032,-0.253 -0.048,-0.507 -0.053,-0.762c-0.055,-8.705 -0.055,-17.41 0,-26.115c0.005,-0.255 0.021,-0.509 0.053,-0.762c0.063,-0.492 0.181,-0.976 0.351,-1.442c0.342,-0.933 0.895,-1.784 1.605,-2.478c0.692,-0.675 1.53,-1.198 2.442,-1.519c0.468,-0.165 0.955,-0.277 1.449,-0.334c0.225,-0.026 0.451,-0.038 0.678,-0.043c8.705,-0.055 17.41,-0.055 26.115,0c0.255,0.005 0.509,0.021 0.762,0.053c0.492,0.063 0.977,0.181 1.442,0.351c0.933,0.342 1.784,0.895 2.478,1.606c0.675,0.691 1.198,1.529 1.52,2.441c0.165,0.468 0.277,0.955 0.333,1.449c0.026,0.225 0.039,0.452 0.043,0.678c0.055,8.705 0.055,17.41 0,26.115c-0.005,0.255 -0.021,0.509 -0.053,0.762c-0.063,0.492 -0.18,0.977 -0.351,1.442c-0.342,0.933 -0.895,1.784 -1.605,2.478c-0.692,0.675 -1.529,1.198 -2.441,1.52c-0.469,0.165 -0.956,0.277 -1.449,0.333c-0.226,0.026 -0.452,0.039 -0.679,0.043c-8.676,0.055 -17.352,0.001 -26.029,0.001ZM869.549,2407.35c8.672,0 17.349,0.271 26.017,-0.002c0.067,-0.003 0.134,-0.009 0.201,-0.017c0.228,-0.03 0.45,-0.093 0.659,-0.19c0.537,-0.251 0.967,-0.718 1.171,-1.274c0.087,-0.239 0.13,-0.49 0.135,-0.744c0.056,-8.687 0.276,-17.379 -0.001,-26.062c-0.011,-0.234 -0.053,-0.464 -0.134,-0.684c-0.227,-0.62 -0.731,-1.121 -1.35,-1.349c-0.237,-0.087 -0.487,-0.129 -0.739,-0.134c-8.688,-0.05 -17.381,-0.285 -26.064,0.002c-0.233,0.01 -0.463,0.052 -0.682,0.132c-0.61,0.225 -1.109,0.715 -1.34,1.323c-0.094,0.246 -0.14,0.506 -0.145,0.769c-0.053,8.688 -0.273,17.38 0.001,26.063c0.012,0.252 0.061,0.5 0.154,0.735c0.218,0.552 0.658,1.007 1.202,1.246c0.22,0.096 0.454,0.154 0.693,0.176c0.074,0.006 0.148,0.009 0.222,0.01Z" style="fill:#d5d2cf;fill-rule:nonzero;"/></g><g id="Screen"><path id="Screen Frame" d="M1650,219.624l-1536,0c-4.417,0 -7.999,3.582 -7.999,8l0,2048c0,2.122 0.842,4.157 2.342,5.658c1.501,1.5 3.535,2.342 5.657,2.342l1536,0c4.418,0 8.001,-3.582 8.001,-8l0,-2048c0,-4.418 -3.583,-8 -8.001,-8Z" style="fill:#3e3e3e;"/><rect id="Screen - Off" x="114.005" y="227.624" width="1536" height="2048" style="fill:#000;"/><path d="M114.005,2283.62l-2.472,-0.392l-2.231,-1.136l-1.769,-1.77l-1.137,-2.23l-0.391,-2.472l0,-2048l0.391,-2.472l1.137,-2.23l1.769,-1.77l2.231,-1.136l2.472,-0.392l1536,0l2.472,0.392l2.23,1.136l1.77,1.77l1.136,2.23l0.392,2.472l0,2048l-0.392,2.472l-1.136,2.23l-1.77,1.77l-2.23,1.136l-2.472,0.392l-1536,0ZM114.005,2275.62l1536,0l0,-2048l-1536,0l0,2048Z" style="fill:#3e3e3e;"/></g><g id="Top Sensors"><path id="Microphone" d="M838.504,111.624c3.865,0 7,3.134 7,7c0,3.866 -3.135,7 -7,7c-3.867,0 -7,-3.134 -7,-7c0,-3.866 3.133,-7 7,-7Z" style="fill:#e0e0e0;"/><path d="M838.504,111.624c3.865,0 7,3.134 7,7c0,3.866 -3.135,7 -7,7c-3.867,0 -7,-3.134 -7,-7c0,-3.866 3.133,-7 7,-7Z" style="fill:#e0e0e0;"/><path id="Camera" d="M881.005,104.623c7.456,0 13.5,6.044 13.5,13.501c0,7.456 -6.044,13.499 -13.5,13.499c-7.456,0 -13.5,-6.043 -13.5,-13.499c0,-7.457 6.044,-13.501 13.5,-13.501Z" style="fill:#3e3e3e;"/></g></g></g></svg>