<?xml version="1.0" encoding="UTF-8" standalone="no"?>
<svg width="871px" height="1290px" viewBox="0 0 871 1290" version="1.1" xmlns="http://www.w3.org/2000/svg" xmlns:xlink="http://www.w3.org/1999/xlink" xmlns:sketch="http://www.bohemiancoding.com/sketch/ns">
    <!-- Generator: Sketch 3.3.3 (12072) - http://www.bohemiancoding.com/sketch -->
    <title>iPad Mini Space Gray</title>
    <desc>Created with Sketch.</desc>
    <defs></defs>
    <g id="iPad" stroke="none" stroke-width="1" fill="none" fill-rule="evenodd" sketch:type="MSPage">
        <g id="iPad-Mini" sketch:type="MSArtboardGroup" transform="translate(-190.000000, -106.000000)">
            <g id="iPad-Mini-Space-Gray" sketch:type="MSLayerGroup" transform="translate(190.000000, 106.000000)">
                <path d="M870.317,1225.63 C870.317,1262.143 842.941,1289.068 806.872,1289.068 L760.124,1289.068 L110.477,1289.068 L63.76,1289.068 C27.691,1289.068 0.317,1262.143 0.317,1225.63 L0.317,63.5 C0.317,26.987 27.691,0.063 63.76,0.063 L806.872,0.063 C842.941,0.063 870.317,26.987 870.317,63.5 L870.317,1225.63 L870.317,1225.63 Z" id="Frame" fill="#545454" sketch:type="MSShapeGroup"></path>
                <g id="Body" transform="translate(5.000000, 5.000000)" sketch:type="MSShapeGroup">
                    <path d="M859.549,59.014 C859.363,64.922 859.363,1214.154 859.549,1220.064 C859.549,1235.436 854.204,1250.424 842.927,1261.638 C831.651,1272.852 816.704,1278.16 801.421,1278.16 L59.046,1278.16 C43.763,1278.16 28.816,1272.852 17.54,1261.638 C6.264,1250.424 0.919,1235.436 0.919,1220.064 C1.105,1214.156 1.105,64.924 0.919,59.014 C0.919,43.642 6.264,28.654 17.54,17.44 C28.816,6.225 43.763,0.918 59.046,0.918 L801.421,0.918 C816.704,0.918 831.651,6.225 842.927,17.44 C854.204,28.654 859.549,43.642 859.549,59.014 L859.549,59.014 Z" id="Body1" fill="#343434"></path>
                    <g id="Home-Button" transform="translate(396.000000, 1188.000000)">
                        <path d="M34.234,0.08 C52.999,0.08 68.234,15.315 68.234,34.08 C68.234,52.845 52.999,68.08 34.234,68.08 C15.468,68.08 0.234,52.845 0.234,34.08 C0.234,15.315 15.468,0.08 34.234,0.08 L34.234,0.08 Z M34.234,2.62 C51.599,2.62 65.698,16.718 65.698,34.084 C65.698,51.45 51.599,65.548 34.234,65.548 C16.868,65.548 2.769,51.45 2.769,34.084 C2.769,16.718 16.868,2.62 34.234,2.62 L34.234,2.62 Z" id="Home-Button-Circle" fill="#3E3E3E"></path>
                        <path d="M26.142,46.33 C25.982,46.329 25.823,46.321 25.664,46.303 C25.356,46.268 25.053,46.198 24.76,46.095 C24.191,45.894 23.669,45.568 23.237,45.147 C22.794,44.714 22.449,44.183 22.236,43.601 C22.13,43.311 22.056,43.008 22.017,42.701 C21.997,42.543 21.987,42.385 21.984,42.226 C21.95,36.795 21.95,31.365 21.984,25.934 C21.987,25.775 21.997,25.617 22.017,25.459 C22.056,25.152 22.13,24.849 22.236,24.559 C22.449,23.977 22.794,23.446 23.237,23.013 C23.669,22.592 24.191,22.266 24.76,22.065 C25.053,21.962 25.356,21.892 25.664,21.857 C25.805,21.841 25.946,21.833 26.088,21.83 C31.518,21.796 36.949,21.796 42.379,21.83 C42.538,21.833 42.697,21.843 42.855,21.863 C43.162,21.903 43.464,21.976 43.755,22.083 C44.336,22.296 44.868,22.641 45.3,23.084 C45.722,23.515 46.048,24.038 46.248,24.607 C46.351,24.899 46.421,25.203 46.456,25.511 C46.473,25.652 46.481,25.793 46.483,25.934 C46.518,31.365 46.518,36.795 46.483,42.226 C46.48,42.385 46.47,42.543 46.45,42.701 C46.411,43.008 46.338,43.311 46.231,43.601 C46.018,44.183 45.673,44.714 45.23,45.147 C44.798,45.568 44.276,45.894 43.707,46.095 C43.415,46.198 43.111,46.268 42.803,46.303 C42.662,46.319 42.521,46.327 42.379,46.33 C36.967,46.364 31.554,46.33 26.142,46.33 L26.142,46.33 Z M26.151,43.58 C31.561,43.58 36.974,43.75 42.382,43.579 C42.424,43.577 42.466,43.574 42.508,43.569 C42.65,43.549 42.788,43.51 42.919,43.45 C43.254,43.293 43.522,43.002 43.649,42.655 C43.704,42.506 43.73,42.349 43.733,42.191 C43.768,36.771 43.905,31.349 43.732,25.932 C43.726,25.786 43.699,25.642 43.649,25.505 C43.507,25.118 43.193,24.806 42.807,24.664 C42.659,24.61 42.503,24.583 42.346,24.58 C36.926,24.549 31.503,24.402 26.086,24.581 C25.941,24.587 25.797,24.614 25.66,24.664 C25.28,24.804 24.969,25.11 24.824,25.489 C24.766,25.643 24.737,25.805 24.734,25.969 C24.701,31.389 24.564,36.811 24.735,42.229 C24.742,42.386 24.773,42.54 24.83,42.687 C24.966,43.031 25.241,43.315 25.58,43.464 C25.718,43.524 25.864,43.56 26.012,43.574 C26.059,43.578 26.105,43.58 26.151,43.58 L26.151,43.58 Z" id="Rounded-Rectangle-Symbol" fill="#D5D2CF"></path>
                    </g>
                    <g id="Screen" transform="translate(42.000000, 123.000000)" fill="#343434">
                        <path d="M4.317,1032.05 C3.905,1031.985 3.477,1031.983 3.081,1031.854 C2.277,1031.593 1.577,1031.085 1.081,1030.401 C0.835,1030.064 0.641,1029.683 0.512,1029.286 C0.384,1028.89 0.382,1028.462 0.317,1028.05 L0.317,4.07 C0.382,3.658 0.384,3.231 0.512,2.834 C0.641,2.437 0.835,2.056 1.081,1.719 C1.577,1.036 2.277,0.527 3.081,0.266 C3.477,0.137 3.905,0.135 4.317,0.07 L772.316,0.07 C772.728,0.135 773.156,0.137 773.552,0.266 C773.949,0.395 774.33,0.589 774.668,0.834 C775.351,1.33 775.86,2.031 776.121,2.834 C776.25,3.231 776.251,3.658 776.316,4.07 L776.316,1028.05 C776.251,1028.462 776.25,1028.89 776.121,1029.286 C775.86,1030.09 775.351,1030.79 774.668,1031.286 C774.33,1031.532 773.949,1031.726 773.552,1031.854 C773.156,1031.983 772.728,1031.985 772.316,1032.05 L4.317,1032.05 L4.317,1032.05 Z" id="Screen-Frame"></path>
                        <rect id="Screen---Off" x="4.317" y="4.071" width="768" height="1023.98"></rect>
                    </g>
                    <g id="Top-Sensors" transform="translate(422.000000, 57.000000)" fill="#3E3E3E">
                        <path d="M8.317,0.054 C12.735,0.054 16.317,3.636 16.317,8.054 C16.317,12.473 12.735,16.054 8.317,16.054 C3.899,16.054 0.317,12.473 0.317,8.054 C0.317,3.636 3.899,0.054 8.317,0.054 L8.317,0.054 Z" id="Camera"></path>
                    </g>
                </g>
            </g>
        </g>
    </g>
</svg>