<?xml version="1.0" standalone="no"?><!DOCTYPE svg PUBLIC "-//W3C//DTD SVG 1.1//EN" "http://www.w3.org/Graphics/SVG/1.1/DTD/svg11.dtd"><svg width="100%" height="100%" viewBox="0 0 871 1290" version="1.1" xmlns="http://www.w3.org/2000/svg" xmlns:xlink="http://www.w3.org/1999/xlink" xml:space="preserve" style="fill-rule:evenodd;clip-rule:evenodd;stroke-linejoin:round;stroke-miterlimit:1.41421;"><g id="iPad Mini Silver"><path id="Frame" d="M870.317,1225.65c0,36.513 -27.376,63.438 -63.445,63.438l-46.748,0l-649.647,0l-46.717,0c-36.069,0 -63.443,-26.925 -63.443,-63.438l0,-1162.13c0,-36.513 27.374,-63.437 63.443,-63.437l743.112,0c36.069,0 63.445,26.924 63.445,63.437l0,1162.13Z" style="fill:#d5d2cf;"/><g id="Body"><path id="Body1" d="M864.549,64.038c-0.186,5.908 -0.186,1155.14 0,1161.05c0,15.372 -5.345,30.36 -16.622,41.574c-11.276,11.215 -26.223,16.522 -41.506,16.522l-742.375,0c-15.283,0 -30.23,-5.307 -41.506,-16.522c-11.276,-11.214 -16.621,-26.202 -16.621,-41.574c0.186,-5.908 0.186,-1155.14 0,-1161.05c0,-15.372 5.345,-30.36 16.621,-41.574c11.276,-11.214 26.223,-16.522 41.506,-16.522l742.375,0c15.283,0 30.23,5.308 41.506,16.522c11.277,11.214 16.622,26.202 16.622,41.574Z" style="fill:#f3f5f7;"/><g id="Home Button"><path id="Home Button Circle" d="M435.234,1193.11c18.765,0 34,15.235 34,34c0,18.765 -15.235,34 -34,34c-18.766,0 -34,-15.235 -34,-34c0,-18.765 15.234,-34 34,-34ZM435.234,1195.64c17.365,0 31.464,14.099 31.464,31.464c0,17.366 -14.099,31.465 -31.464,31.465c-17.366,0 -31.465,-14.099 -31.465,-31.465c0,-17.365 14.099,-31.464 31.465,-31.464Z" style="fill:#d5d2cf;"/><path id="Rounded Rectangle Symbol" d="M427.142,1239.36c-0.16,-0.001 -0.319,-0.009 -0.478,-0.027c-0.308,-0.035 -0.611,-0.105 -0.904,-0.208c-0.569,-0.2 -1.091,-0.527 -1.523,-0.948c-0.443,-0.433 -0.788,-0.964 -1.001,-1.546c-0.106,-0.29 -0.18,-0.592 -0.219,-0.899c-0.02,-0.158 -0.03,-0.317 -0.033,-0.476c-0.034,-5.43 -0.034,-10.861 0,-16.291c0.003,-0.16 0.013,-0.318 0.033,-0.476c0.039,-0.307 0.113,-0.609 0.219,-0.9c0.213,-0.581 0.558,-1.113 1.001,-1.545c0.432,-0.422 0.954,-0.748 1.523,-0.948c0.293,-0.103 0.596,-0.173 0.904,-0.209c0.141,-0.016 0.282,-0.024 0.424,-0.026c5.43,-0.035 10.861,-0.035 16.291,0c0.159,0.003 0.318,0.013 0.476,0.033c0.307,0.039 0.609,0.112 0.9,0.219c0.581,0.213 1.113,0.558 1.545,1.001c0.422,0.432 0.748,0.954 0.948,1.523c0.103,0.292 0.173,0.596 0.208,0.904c0.017,0.141 0.025,0.282 0.027,0.424c0.035,5.43 0.035,10.861 0,16.291c-0.003,0.159 -0.013,0.318 -0.033,0.476c-0.039,0.307 -0.112,0.609 -0.219,0.899c-0.213,0.582 -0.558,1.113 -1.001,1.546c-0.432,0.421 -0.954,0.748 -1.523,0.948c-0.292,0.103 -0.596,0.173 -0.904,0.208c-0.141,0.016 -0.282,0.024 -0.424,0.027c-5.412,0.034 -10.825,0 -16.237,0ZM427.151,1236.61c5.41,0 10.823,0.17 16.231,-0.001c0.042,-0.002 0.084,-0.005 0.126,-0.01c0.142,-0.019 0.28,-0.058 0.411,-0.119c0.335,-0.156 0.603,-0.448 0.73,-0.795c0.055,-0.149 0.081,-0.305 0.084,-0.464c0.035,-5.419 0.172,-10.842 -0.001,-16.259c-0.006,-0.145 -0.033,-0.289 -0.083,-0.426c-0.142,-0.387 -0.456,-0.699 -0.842,-0.842c-0.148,-0.054 -0.304,-0.081 -0.461,-0.083c-5.42,-0.031 -10.843,-0.178 -16.26,0c-0.145,0.007 -0.289,0.033 -0.426,0.083c-0.38,0.14 -0.691,0.446 -0.836,0.826c-0.058,0.153 -0.087,0.315 -0.09,0.479c-0.033,5.42 -0.17,10.843 0.001,16.26c0.007,0.157 0.038,0.312 0.095,0.458c0.136,0.345 0.411,0.629 0.75,0.777c0.138,0.06 0.284,0.096 0.432,0.111c0.047,0.003 0.093,0.005 0.139,0.005Z" style="fill:#d5d2cf;fill-rule:nonzero;"/></g><g id="Screen"><path id="Screen Frame" d="M51.317,1160.08c-0.412,-0.066 -0.84,-0.067 -1.236,-0.196c-0.804,-0.261 -1.504,-0.77 -2,-1.453c-0.246,-0.338 -0.44,-0.719 -0.569,-1.115c-0.128,-0.397 -0.13,-0.824 -0.195,-1.236l0,-1023.98c0.065,-0.412 0.067,-0.839 0.195,-1.236c0.129,-0.396 0.323,-0.777 0.569,-1.115c0.496,-0.683 1.196,-1.192 2,-1.453c0.396,-0.129 0.824,-0.13 1.236,-0.196l767.999,0c0.412,0.066 0.84,0.067 1.236,0.196c0.397,0.129 0.778,0.323 1.116,0.568c0.683,0.497 1.192,1.197 1.453,2c0.129,0.397 0.13,0.824 0.195,1.236l0,1023.98c-0.065,0.412 -0.066,0.839 -0.195,1.236c-0.261,0.803 -0.77,1.503 -1.453,2c-0.338,0.245 -0.719,0.439 -1.116,0.568c-0.396,0.129 -0.824,0.13 -1.236,0.196c-256,0 -511.999,0 -767.999,0Z" style="fill:#3e3e3e;"/><rect id="Screen - Off" x="51.317" y="132.095" width="768" height="1023.98" style="fill:#000;"/></g><g id="Top Sensors"><path id="Microphone" d="M411.317,67.059c2.208,0 4,1.791 4,4c0,2.21 -1.792,4 -4,4c-2.21,0 -4,-1.79 -4,-4c0,-2.209 1.79,-4 4,-4Z" style="fill:#e0e0e0;"/><path d="M411.317,67.059c2.208,0 4,1.791 4,4c0,2.21 -1.792,4 -4,4c-2.21,0 -4,-1.79 -4,-4c0,-2.209 1.79,-4 4,-4Z" style="fill:#e0e0e0;"/><path id="Camera" d="M435.317,62.078c4.418,0 8,3.582 8,8.001c0,4.418 -3.582,7.999 -8,7.999c-4.418,0 -8,-3.581 -8,-7.999c0,-4.419 3.582,-8.001 8,-8.001Z" style="fill:#3e3e3e;"/></g></g></g></svg>