<svg xmlns="http://www.w3.org/2000/svg" width="1812" height="2611" viewBox="0 0 1812 2611">
  <g fill="none" fill-rule="evenodd">
    <path fill="#DDB2AD" d="M1716,2611 C1768.98,2611 1812,2567.98 1812,2515 L1812,96 C1812,43.016 1768.98,0 1716,0 L96,0 C43.016,0 0,43.016 0,96 L0,2515 C0,2567.98 43.016,2611 96,2611 L1716,2611 Z"/>
    <path fill="#F3F5F7" d="M1714,2599 C1760.91,2599 1799,2560.91 1799,2514 L1799,98 C1799,51.087 1760.91,13 1714,13 L97,13 C50.087,13 12,51.087 12,98 L12,2514 C12,2560.91 50.087,2599 97,2599 L1714,2599 Z"/>
    <g transform="translate(63 186)">
      <path fill="#3E3E3E" d="M1676.3,2240 C1680.71,2240 1684.3,2236.41 1684.3,2232 L1684.3,8 C1684.3,3.585 1680.71,0 1676.3,0 L8.295,0 C3.88,0 0.295,3.585 0.295,8 L0.295,2232 C0.295,2236.41 3.88,2240 8.295,2240 L1676.3,2240 Z"/>
      <polygon fill="#343434" points="1676.3 2232 1676.3 8 8.295 8 8.295 2232"/>
    </g>
    <path fill="#3E3E3E" d="M918.5,100 C918.5,107.175 912.675,113 905.5,113 C898.325,113 892.5,107.175 892.5,100 C892.5,92.825 898.325,87 905.5,87 C912.675,87 918.5,92.825 918.5,100 Z"/>
    <path fill="#DDB2AD" d="M960.5,2519 C960.5,2549.36 935.855,2574 905.5,2574 C875.145,2574 850.5,2549.36 850.5,2519 C850.5,2488.64 875.145,2464 905.5,2464 C935.855,2464 960.5,2488.64 960.5,2519 Z M954.5,2519 C954.5,2546.04 932.544,2568 905.5,2568 C878.456,2568 856.5,2546.04 856.5,2519 C856.5,2491.96 878.456,2470 905.5,2470 C932.544,2470 954.5,2491.96 954.5,2519 Z"/>
  </g>
</svg>
