<?xml version="1.0" standalone="no"?><!DOCTYPE svg PUBLIC "-//W3C//DTD SVG 1.1//EN" "http://www.w3.org/Graphics/SVG/1.1/DTD/svg11.dtd"><svg width="100%" height="100%" viewBox="0 0 1767 2498" version="1.1" xmlns="http://www.w3.org/2000/svg" xmlns:xlink="http://www.w3.org/1999/xlink" xml:space="preserve" style="fill-rule:evenodd;clip-rule:evenodd;stroke-linejoin:round;stroke-miterlimit:1.41421;"><g id="iPad Air 2 Gold"><path id="Frame" d="M1766.01,121.208c0,-84.668 -43.495,-120.654 -123.828,-120.654l-1526.09,0c-84.251,0 -116.083,48.82 -116.083,120.07l0,2256.85c0,71.25 31.832,120.07 116.083,120.07l1526.09,0c80.333,0 123.828,-35.986 123.828,-120.653l0,-2255.68Z" style="fill:#c7b78c;"/><g id="Body"><path id="Body1" d="M1723.73,39.217c-18.445,-17.269 -45.451,-25.663 -82.558,-25.663l-1525.21,0c-18.056,0 -34.09,2.558 -47.658,7.602c-13.261,4.93 -24.217,12.261 -32.562,21.791c-15.751,17.984 -23.739,44.119 -23.739,77.677l0,2256.85c0,33.431 8.018,59.535 23.828,77.588c17.134,19.563 43.799,29.482 79.256,29.482l1526.09,0c37.937,0 65.138,-8.199 83.155,-25.066c8.946,-8.375 15.792,-19.242 20.348,-32.299c4.861,-13.928 7.326,-30.848 7.326,-50.288l0,-2255.68c0,-19.441 -2.465,-36.359 -7.326,-50.287c-4.219,-12.088 -11.07,-22.459 -20.945,-31.704Z" style="fill:#f3f5f7;"/><path id="Home Button" d="M882.504,2344.55c26.192,0 47.5,21.309 47.5,47.5c0,26.192 -21.308,47.5 -47.5,47.5c-26.191,0 -47.5,-21.308 -47.5,-47.5c0,-26.191 21.309,-47.5 47.5,-47.5M882.504,2336.55c-30.651,0 -55.499,24.848 -55.499,55.5c0,30.651 24.848,55.5 55.499,55.5c30.652,0 55.501,-24.849 55.501,-55.5c0,-30.652 -24.849,-55.5 -55.501,-55.5l0,0Z" style="fill:#c7b78c;"/><g id="Screen"><path id="Screen Frame" d="M1650,219.547l-1536,0c-4.417,0 -7.999,3.582 -7.999,8l0,2048c0,2.122 0.842,4.157 2.342,5.658c1.501,1.5 3.535,2.342 5.657,2.342l1536,0c4.418,0 8.001,-3.582 8.001,-8l0,-2048c0,-4.418 -3.583,-8 -8.001,-8Z" style="fill:#3e3e3e;"/><rect id="Screen - Off" x="114.005" y="227.547" width="1536" height="2048" style="fill:#000;"/><path d="M114.004,2283.55l-2.472,-0.392l-2.23,-1.136l-1.77,-1.77l-1.136,-2.23l-0.392,-2.472l0,-2048l0.392,-2.472l1.136,-2.23l1.77,-1.77l2.23,-1.136l2.472,-0.392l1536,0l2.473,0.392l2.23,1.136l1.77,1.77l1.136,2.23l0.391,2.472l0,2048l-0.391,2.472l-1.136,2.23l-1.77,1.77l-2.23,1.136l-2.473,0.392l-1536,0ZM114.005,2275.55l1536,0l0,-2048l-1536,0l0,2048Z" style="fill:#3e3e3e;"/></g><g id="Top Sensors"><path id="Microphone" d="M838.504,111.547c3.865,0 7,3.134 7,7c0,3.866 -3.135,7 -7,7c-3.867,0 -7,-3.134 -7,-7c0,-3.866 3.133,-7 7,-7Z" style="fill:#e0e0e0;"/><path d="M838.504,111.547c3.865,0 7,3.134 7,7c0,3.866 -3.135,7 -7,7c-3.867,0 -7,-3.134 -7,-7c0,-3.866 3.133,-7 7,-7Z" style="fill:#e0e0e0;"/><path id="Camera" d="M881.005,104.547c7.456,0 13.5,6.044 13.5,13.5c0,7.456 -6.044,13.5 -13.5,13.5c-7.456,0 -13.5,-6.044 -13.5,-13.5c0,-7.456 6.044,-13.5 13.5,-13.5Z" style="fill:#3e3e3e;"/></g></g></g></svg>