<?xml version="1.0" encoding="UTF-8" standalone="no"?>
<svg width="970px" height="1259px" viewBox="0 0 970 1259" version="1.1" xmlns="http://www.w3.org/2000/svg" xmlns:xlink="http://www.w3.org/1999/xlink" xmlns:sketch="http://www.bohemiancoding.com/sketch/ns">
    <!-- Generator: Sketch 3.3.3 (12072) - http://www.bohemiancoding.com/sketch -->
    <title>iPad 2 White</title>
    <desc>Created with Sketch.</desc>
    <defs></defs>
    <g id="iPad" stroke="none" stroke-width="1" fill="none" fill-rule="evenodd" sketch:type="MSPage">
        <g id="iPad-2" sketch:type="MSArtboardGroup" transform="translate(-1390.000000, -121.000000)">
            <g id="iPad-2-White" sketch:type="MSLayerGroup" transform="translate(1390.000000, 121.000000)">
                <path d="M923.274,0.869 L46.016,0.869 C20.334,0.869 0.506,20.32 0.506,44.229 L0.506,1215.519 C0.506,1239.427 19.958,1258.878 43.866,1258.878 L926.139,1258.878 C950.048,1258.878 969.5,1239.427 969.5,1215.519 L969.5,44.229 C969.5,20.32 949.79,0.869 923.274,0.869 L923.274,0.869 Z" id="Frame" fill="#D5D2CF" sketch:type="MSShapeGroup"></path>
                <g id="Body" transform="translate(4.000000, 4.000000)" sketch:type="MSShapeGroup">
                    <path d="M961.483,1211.47 C961.483,1233.239 943.834,1250.888 922.064,1250.888 L39.916,1250.888 C18.144,1250.888 0.498,1233.239 0.498,1211.47 L0.498,40.3 C0.498,18.531 18.144,0.882 39.916,0.882 L922.064,0.882 C943.834,0.882 961.483,18.531 961.483,40.3 L961.483,1211.47 L961.483,1211.47 Z" id="Body1" fill="#F3F5F7"></path>
                    <g id="Screen" transform="translate(95.000000, 102.000000)">
                        <path d="M4.501,1032.88 C4.089,1032.815 3.661,1032.813 3.265,1032.684 C2.868,1032.555 2.487,1032.361 2.15,1032.116 C1.466,1031.62 0.958,1030.919 0.697,1030.116 C0.568,1029.719 0.566,1029.292 0.501,1028.88 L0.501,4.89 C0.566,4.478 0.568,4.051 0.697,3.654 C0.825,3.257 1.019,2.876 1.265,2.539 C1.761,1.855 2.461,1.347 3.265,1.086 C3.661,0.957 4.089,0.955 4.501,0.89 L772.505,0.89 C772.917,0.955 773.344,0.957 773.741,1.086 C774.545,1.347 775.245,1.855 775.741,2.539 C775.986,2.876 776.18,3.257 776.309,3.654 C776.438,4.051 776.44,4.478 776.505,4.89 L776.505,1028.88 C776.44,1029.292 776.438,1029.719 776.309,1030.116 C776.18,1030.513 775.986,1030.894 775.741,1031.231 C775.245,1031.915 774.545,1032.423 773.741,1032.684 C773.344,1032.813 772.917,1032.815 772.505,1032.88 L4.501,1032.88 L4.501,1032.88 Z" id="Frame1" fill="#3E3E3E"></path>
                        <rect id="Screen---Off" fill="#343434" x="4.501" y="4.89" width="768.004" height="1023.99"></rect>
                    </g>
                    <g id="Home-Button" transform="translate(455.000000, 1167.000000)" fill="#D5D2CF">
                        <path d="M27.687,0.65 C42.726,0.65 54.937,12.86 54.937,27.9 C54.937,42.94 42.726,55.15 27.687,55.15 C12.647,55.15 0.436,42.94 0.436,27.9 C0.436,12.86 12.647,0.65 27.687,0.65 L27.687,0.65 Z M27.687,2.69 C41.605,2.69 52.904,13.99 52.904,27.908 C52.904,41.826 41.605,53.126 27.687,53.126 C13.768,53.126 2.469,41.826 2.469,27.908 C2.469,13.99 13.768,2.69 27.687,2.69 L27.687,2.69 Z" id="Home-Button-Circle"></path>
                        <path d="M21.201,37.72 C21.073,37.719 20.946,37.713 20.819,37.698 C20.572,37.67 20.328,37.614 20.094,37.531 C19.638,37.371 19.219,37.109 18.874,36.771 C18.518,36.425 18.242,35.999 18.071,35.533 C17.986,35.3 17.927,35.058 17.895,34.812 C17.879,34.685 17.871,34.558 17.869,34.43 C17.841,30.078 17.841,25.726 17.869,21.373 C17.871,21.246 17.879,21.119 17.895,20.992 C17.927,20.746 17.986,20.504 18.071,20.271 C18.242,19.805 18.518,19.379 18.874,19.032 C19.219,18.694 19.638,18.433 20.094,18.272 C20.328,18.19 20.572,18.134 20.819,18.106 C20.931,18.093 21.044,18.086 21.158,18.084 C25.51,18.056 29.863,18.056 34.215,18.084 C34.343,18.086 34.47,18.094 34.596,18.111 C34.842,18.142 35.085,18.201 35.318,18.286 C35.784,18.457 36.209,18.733 36.556,19.089 C36.894,19.435 37.155,19.853 37.316,20.309 C37.399,20.544 37.455,20.787 37.483,21.034 C37.496,21.147 37.502,21.26 37.504,21.373 C37.532,25.726 37.532,30.078 37.504,34.43 C37.502,34.558 37.494,34.685 37.478,34.812 C37.447,35.058 37.388,35.3 37.302,35.533 C37.131,35.999 36.855,36.425 36.5,36.771 C36.154,37.109 35.735,37.371 35.279,37.531 C35.045,37.614 34.801,37.67 34.555,37.698 C34.442,37.711 34.329,37.717 34.215,37.72 C29.877,37.747 25.539,37.72 21.201,37.72 L21.201,37.72 Z M21.209,35.52 C25.545,35.52 29.883,35.656 34.217,35.519 C34.251,35.517 34.284,35.515 34.318,35.511 C34.432,35.495 34.543,35.464 34.647,35.415 C34.916,35.29 35.131,35.057 35.233,34.778 C35.277,34.659 35.298,34.533 35.3,34.407 C35.328,30.063 35.438,25.717 35.3,21.375 C35.295,21.259 35.273,21.143 35.233,21.033 C35.119,20.723 34.867,20.473 34.558,20.359 C34.44,20.316 34.314,20.294 34.189,20.292 C29.844,20.267 25.498,20.149 21.156,20.293 C21.04,20.298 20.925,20.319 20.815,20.359 C20.51,20.471 20.261,20.716 20.145,21.02 C20.098,21.144 20.075,21.274 20.073,21.405 C20.046,25.749 19.936,30.095 20.074,34.437 C20.079,34.563 20.104,34.687 20.15,34.804 C20.259,35.08 20.479,35.308 20.751,35.427 C20.861,35.475 20.978,35.504 21.098,35.515 C21.135,35.518 21.172,35.52 21.209,35.52 L21.209,35.52 Z" id="Rounded-Rectangle"></path>
                    </g>
                    <path d="M480.947,43.152 C485.365,43.152 488.947,46.734 488.947,51.152 C488.947,55.571 485.365,59.152 480.947,59.152 C476.529,59.152 472.947,55.571 472.947,51.152 C472.947,46.734 476.529,43.152 480.947,43.152 L480.947,43.152 Z" id="Camera" fill="#3E3E3E"></path>
                </g>
            </g>
        </g>
    </g>
</svg>