<?xml version="1.0" standalone="no"?><!DOCTYPE svg PUBLIC "-//W3C//DTD SVG 1.1//EN" "http://www.w3.org/Graphics/SVG/1.1/DTD/svg11.dtd"><svg width="100%" height="100%" viewBox="0 0 1070 2155" version="1.1" xmlns="http://www.w3.org/2000/svg" xmlns:xlink="http://www.w3.org/1999/xlink" xml:space="preserve" style="fill-rule:evenodd;clip-rule:evenodd;stroke-linejoin:round;stroke-miterlimit:1.41421;"><g id="iPhone 6-6s Plus Rose Gold"><g id="Frame"><path id="Frame1" d="M1064.32,1999.24c0,90.415 -59.485,155.248 -155.247,155.248c0,0 -307.727,0 -314.694,0c-5.244,0 -9.831,-4.5 -15.075,-4.5c-13.703,0 -84.316,0 -90.45,0c-5.244,0 -9.831,4.5 -15.075,4.5c-3.852,0 -232.839,0.022 -236.492,0c-9.923,-0.06 -11.035,-6.726 -38.383,-6.75c-27.348,-0.024 -29.184,6.75 -38.47,6.75c-95.762,0 -155.247,-64.833 -155.247,-155.248c0,0 0,-1264.15 0,-1264.15c0,-2.751 1.7,-7.313 2.169,-9.332c0.471,-2.009 1.299,-5.028 1.299,-7.581c0,-2.553 0,-292.705 0,-293.309c0,-1.483 -0.538,-6.001 -1.164,-7.027c-0.627,-1.035 -2.304,-6.45 -2.304,-7.796l0,-254.804c0,-90.415 59.485,-155.248 155.247,-155.248l748.639,0c95.762,0 155.247,64.833 155.247,155.248l0,253.148c0,0.612 -0.707,1.251 -1.112,1.932c-0.414,0.681 -1.294,2.268 -1.294,5.839l0,133.272c0,3.562 0.88,5.157 1.294,5.839c0.405,0.681 1.112,1.319 1.112,1.932l0,1442.03Z" style="fill:#ceaea2;"/><g id="Buttons"><path id="Power" d="M1069.5,537.063l0,10.885c0,0 0.081,1.196 -0.652,2.51c-0.66,1.182 -2.29,2.465 -3.544,2.465c-0.929,0 -5.925,0 -5.925,0l0.006,-71.185l-0.006,-71.186c0,0 4.996,0 5.925,0c1.254,0 2.884,1.284 3.544,2.466c0.733,1.314 0.652,2.509 0.652,2.509l0,121.536Z" style="fill:#ceaea2;"/><path id="Volume Down" d="M2.7,724.294c-1.209,0 -2.697,-1.578 -2.697,-2.984c0,-1.406 0,-130.601 0,-132.085c0,-1.492 1.766,-2.725 2.697,-2.725c0.929,0 7.425,0 7.425,0l-0.011,137.794l-7.414,0Z" style="fill:#ceaea2;"/><path id="Volume Up" d="M2.7,553.599c-1.209,0 -2.697,-1.578 -2.697,-2.984c0,-1.406 0,-130.602 0,-132.085c0,-1.492 1.766,-2.725 2.697,-2.725c0.929,0 7.425,0 7.425,0l-0.011,137.794l-7.414,0Z" style="fill:#ceaea2;"/><path id="Mute Switch" d="M2.561,328.599c-1.209,0 -2.558,-0.828 -2.558,-2.234c0,-1.406 0,-67.602 0,-69.085c0,-1.492 1.535,-1.975 2.465,-1.975c0.929,0 3.907,0 3.907,0l-0.011,73.294l-3.803,0Z" style="fill:#ceaea2;"/></g></g><g id="Body"><path id="Front" d="M1012.11,53.957c-25.081,-25.702 -60.71,-39.295 -103.041,-39.295l-748.639,0c-42.327,0 -77.957,13.593 -103.04,39.295c-12.006,12.308 -21.323,27.125 -27.694,44.056c-6.537,17.37 -9.851,36.621 -9.851,57.235l0,1844c0,20.614 3.314,39.865 9.851,57.235c6.371,16.931 15.688,31.748 27.694,44.056c25.083,25.702 60.713,39.295 103.04,39.295l748.639,0c42.331,0 77.96,-13.593 103.041,-39.295c12.006,-12.308 21.321,-27.125 27.695,-44.056c6.537,-17.37 9.849,-36.621 9.849,-57.235l0,-1844c0,-20.614 -3.312,-39.865 -9.849,-57.235c-6.374,-16.931 -15.689,-31.748 -27.695,-44.056Z" style="fill:#f7f7f7;"/><path id="Home Button" d="M534.75,1955.35c35.612,0 64.591,28.98 64.591,64.592c0,35.612 -28.979,64.592 -64.591,64.592c-35.613,0 -64.592,-28.98 -64.592,-64.592c0,-35.612 28.979,-64.592 64.592,-64.592M534.75,1948.36c-39.537,0 -71.587,32.05 -71.587,71.586c0,39.536 32.05,71.586 71.587,71.586c39.536,0 71.586,-32.05 71.586,-71.586c0,-39.536 -32.05,-71.586 -71.586,-71.586Z" style="fill:#ceaea2;"/><g id="Screen"><path id="Screen Panel" d="M69.869,1908.01l-1.722,-0.342l-1.46,-0.976l-0.975,-1.46l-0.343,-1.722l0,-1655.97l0.343,-1.722c0.968,-1.45 0.985,-1.467 2.435,-2.436l1.722,-0.342l931.486,0l1.722,0.342c0.487,0.325 1.046,0.562 1.46,0.976c1.14,1.14 1.022,1.692 1.318,3.182l0,1655.97l-0.343,1.722l-0.975,1.46l-1.46,0.976l-1.722,0.342c-310.495,0 -620.991,0 -931.486,0Z" style="fill:#3e3e3e;"/><rect id="Screen - Off" x="69.869" y="247.534" width="931.486" height="1655.98" style="fill:#000;"/></g><g id="Top Sensors"><path id="Speaker" d="M610.648,131.529c0,4.045 -3.286,7.331 -7.339,7.331l-131.944,0c-4.053,0 -7.339,-3.286 -7.339,-7.331c0,-4.045 3.286,-7.331 7.339,-7.331l131.944,0c4.053,0 7.339,3.286 7.339,7.331Z" style="fill:#3e3e3e;"/><path id="Camera" d="M405.377,130.236c0,9.047 -7.34,16.387 -16.388,16.387c-9.047,0 -16.387,-7.34 -16.387,-16.387c0,-9.048 7.34,-16.388 16.387,-16.388c9.048,0 16.388,7.34 16.388,16.388Z" style="fill:#3e3e3e;"/><path id="Light Sensor" d="M538.2,57.787c5.718,0 10.349,4.631 10.349,10.349c0,5.719 -4.631,10.35 -10.349,10.35c-5.719,0 -10.35,-4.631 -10.35,-10.35c0,-5.718 4.631,-10.349 10.35,-10.349Z" style="fill:#3e3e3e;"/></g></g></g></svg>