<?xml version="1.0" standalone="no"?><!DOCTYPE svg PUBLIC "-//W3C//DTD SVG 1.1//EN" "http://www.w3.org/Graphics/SVG/1.1/DTD/svg11.dtd"><svg width="100%" height="100%" viewBox="0 0 649 1323" version="1.1" xmlns="http://www.w3.org/2000/svg" xmlns:xlink="http://www.w3.org/1999/xlink" xml:space="preserve" style="fill-rule:evenodd;clip-rule:evenodd;stroke-linejoin:round;stroke-miterlimit:1.41421;"><g id="iPhone 6-6s Rose Gold"><g id="Frame"><path d="M644.993,381.091l0.378,832.804c0,65.06 -36.983,108.371 -103.883,108.371c0,0 -175.701,0 -175.863,0c-2.852,0 -6.9,-2.266 -9.75,-2.266c-0.312,0 -62.688,0 -63,0c-2.85,0 -6.898,2.265 -9.75,2.266c-0.162,0 -137.073,0 -137.25,0c-5.599,0 -7.809,-3 -18.028,-3c-10.219,0 -15.751,3 -17.972,3c-0.074,0 -2.607,0 -2.607,0c-66.874,0 -103.851,-43.276 -103.881,-108.292c-0.251,-0.029 -0.379,-0.055 -0.379,-0.076l0,-709.447c0,-1.92 1.187,-5.108 1.514,-6.518c0.328,-1.402 0.906,-3.51 0.906,-5.295c0,-1.777 0,-202.567 0,-202.995c0,-1.027 -0.375,-5.092 -0.812,-5.812c-0.437,-0.713 -1.608,-5.4 -1.608,-6.338l0,-169.122c0,-65.06 36.98,-108.371 103.882,-108.371l434.22,0c66.9,0 103.882,43.311 103.882,108.371l0,170.382c0,0.428 -0.487,0.863 -0.765,1.328c-0.285,0.472 -0.892,1.567 -0.892,4.02l0,91.642c0,2.46 0.607,3.548 0.892,4.02c0.278,0.465 0.765,0.908 0.765,1.328Z" style="fill:#ceaea2;"/><g id="Button"><path id="Power Button" d="M642,379.508l4.225,0c0.971,0 2.525,-0.802 2.525,-2.542l0,-93.165c0,-1.74 -1.554,-2.543 -2.525,-2.543l-4.225,0l0,98.25Z" style="fill:#ceaea2;"/><path id="Volume Down" d="M6.75,402.008l-4.225,0c-0.971,0 -2.525,0.803 -2.525,2.543l0,93.165c0,1.74 1.554,2.542 2.525,2.542l4.225,0l0,-98.25Z" style="fill:#ceaea2;"/><path id="Volume Up" d="M6.75,379.508l-4.225,0c-0.971,0 -2.525,-0.802 -2.525,-2.542l0,-93.165c0,-1.74 1.554,-2.543 2.525,-2.543l4.225,0l0,98.25Z" style="fill:#ceaea2;"/><path id="Mute Switch" d="M4.51,168.508l0,52.5c0,0 -2.176,0 -2.922,0c-0.747,0 -1.581,-0.597 -1.581,-1.603c0,-1.005 0,-48.415 0,-49.483c0,-1.068 0.949,-1.414 1.523,-1.414c0.575,0 2.98,0 2.98,0Z" style="fill:#ceaea2;"/></g></g><g id="Body"><path id="Front" d="M581.985,16.855c-11.955,-4.714 -25.71,-7.105 -40.883,-7.105l-434.204,0c-15.174,0 -28.93,2.391 -40.885,7.105c-11.343,4.473 -21.102,11.057 -29.008,19.569c-15.862,17.082 -24.247,41.96 -24.247,71.947l0,1106.27c0,29.992 8.385,54.87 24.247,71.947c7.906,8.52 17.665,15.098 29.008,19.575c11.955,4.71 25.711,7.103 40.885,7.103l434.205,0c15.172,0 28.927,-2.393 40.882,-7.103c11.348,-4.477 21.105,-11.055 29.01,-19.575c15.863,-17.077 24.248,-41.955 24.248,-71.947l0,-1106.27c0,-29.987 -8.385,-54.865 -24.248,-71.947c-7.905,-8.512 -17.662,-15.096 -29.01,-19.569Z" style="fill:#f7f7f7;"/><path id="Home Button" d="M323.625,1191.38c24.81,0 45,20.19 45,45c0,24.81 -20.19,45 -45,45c-24.81,0 -45,-20.19 -45,-45c0,-24.81 20.19,-45 45,-45M323.625,1186.51c-27.548,0 -49.875,22.328 -49.875,49.875c0,27.548 22.327,49.875 49.875,49.875c27.548,0 49.875,-22.327 49.875,-49.875c0,-27.547 -22.327,-49.875 -49.875,-49.875Z" style="fill:#ceaea2;"/><g id="Screen"><path id="Screen Panel" d="M42.75,158.258l-1.148,0.229l-0.973,0.65l-0.651,0.973l-0.228,1.148l0,1000.5l0.228,1.148l0.651,0.974l0.973,0.65l1.148,0.228l562.5,0l1.148,-0.228l0.973,-0.65l0.651,-0.974l0.228,-1.148l0,-1000.5l-0.228,-1.148c-0.646,-0.967 -0.657,-0.978 -1.624,-1.623l-1.148,-0.229c-187.5,0 -375,0 -562.5,0Z" style="fill:#3e3e3e;"/><rect id="Screen - off" x="42.75" y="161.258" width="562.5" height="1000.5" style="fill:#000;"/></g><g id="Top Sensors"><path id="Camera" d="M210.75,83.633c0,6.006 4.867,10.875 10.875,10.875c6.007,0 10.875,-4.869 10.875,-10.875c0,-6.006 -4.868,-10.875 -10.875,-10.875c-6.008,0 -10.875,4.869 -10.875,10.875Z" style="fill:#3e3e3e;"/><path id="Light Sensor" d="M324,36.008c3.727,0 6.75,3.022 6.75,6.75c0,3.728 -3.023,6.75 -6.75,6.75c-3.727,0 -6.75,-3.022 -6.75,-6.75c0,-3.728 3.023,-6.75 6.75,-6.75Z" style="fill:#3e3e3e;"/><path id="Speaker" d="M272.243,83.258c0,3.316 2.722,6.003 6.082,6.003l92.1,0c3.36,0 6.082,-2.687 6.082,-6.003c0,-3.316 -2.722,-6.003 -6.082,-6.003l-92.1,0c-3.36,0 -6.082,2.688 -6.082,6.003Z" style="fill:#3e3e3e;"/></g></g></g></svg>