<svg xmlns="http://www.w3.org/2000/svg" width="246" height="440" viewBox="0 0 246 440">
  <g fill="none" fill-rule="evenodd">
    <g fill="#B6B6B6" transform="translate(18)">
      <path d="M99,0.5 C104.849,0.502 159.78,1.282 165,12 C168.412,19.006 170.444348,53.3679137 170.771851,55.2578801 C174.213561,75.1194274 179.031,83.124 197.262,93.195 L0.738,93.195 C18.969,83.124 23.7864385,75.1194274 27.2281486,55.2578801 C27.5556516,53.3679137 29.588,19.006 33,12 C38.22,1.282 93.151,0.502 99,0.5 Z"/>
      <path d="M99,346.5 C104.849,346.502 159.78,347.282 165,358 C168.412,365.006 170.444348,399.367914 170.771851,401.25788 C174.213561,421.119427 179.031,429.124 197.262,439.195 L0.738,439.195 C18.969,429.124 23.7864385,421.119427 27.2281486,401.25788 C27.5556516,399.367914 29.588,365.006 33,358 C38.22,347.282 93.151,346.502 99,346.5 Z" transform="matrix(1 0 0 -1 0 785.695)"/>
    </g>
    <g transform="translate(226 147)">
      <rect width="7" height="46" fill="#030303"/>
      <path fill="#3B3B3B" d="M19.5 10L19.5 37C19.5 37.719 20.1015105 47 13.746 47L4 47 4 0 13.746 0C20.1015105 0 19.5 9.281 19.5 10zM8.66 148.5L4.909 148.5 4.909 80 8.66 80C9.362 80 10 80.859 10 81.5L10 147C10 147.641 9.362 148.5 8.66 148.5z"/>
    </g>
    <g transform="translate(0 84)">
      <path fill="#4A4A4A" d="M233,59.5 C233,60.4874202 233,61.2279853 233,61.7216954 C233,63 227,65 227,86 C227,107 233,110.160558 233,111 C233,111.810057 233,122.4919 233,143 C231,148 231,148 231,176.657058 C231,205.314117 231,209 233,212 C233,228.369995 231.451882,244.259872 222.149013,254.953852 C212.846144,265.647832 205,271 177.953613,271 L55.5,271 C29,271 20.6538556,265.647832 11.3509869,254.953852 C2.04811815,244.259872 0.5,228.368278 0.5,212 L0.5,59.5 C0.5,43.1317224 2.04811815,27.2401279 11.3509869,16.5461479 C20.6538556,5.8521679 29,0.5 55.5,0.5 L177.953613,0.5 C205,0.5 212.846144,5.8521679 222.149013,16.5461479 C231.451882,27.2401279 233,43.1317224 233,59.5 Z"/>
      <path fill="#222" stroke="#000" stroke-width=".5" d="M224.758563,207.207948 L224.758565,207.207089 L225.25,64.2920518 C225.25,63.5246342 225.251051,62.9165855 225.254282,61.5057159 C225.262877,57.7527355 225.259857,56.0505866 225.230652,53.9395844 C225.010541,38.0294764 223.020139,28.3486476 217.22134,21.6554366 C208.947774,12.1057498 201.475016,9.25 186.166667,9.25 L47.8333333,9.25 C32.5249837,9.25 25.0522265,12.1057498 16.7786605,21.6554366 C10.9798606,28.3486476 8.98945866,38.0294764 8.7693483,53.9395844 C8.74014338,56.0505866 8.7371228,57.7527355 8.74571771,61.5057159 C8.74894882,62.9165855 8.75,63.5246342 8.74999852,64.2929114 L8.25856327,207.207948 C8.25856327,207.975366 8.25751209,208.583414 8.25428098,209.994284 C8.24568607,213.747264 8.24870665,215.449413 8.27791157,217.560416 C8.49802192,233.470524 10.4884239,243.151352 16.2872238,249.844563 C24.5607898,259.39425 32.033547,262.25 47.3418966,262.25 L185.67523,262.25 C200.98358,262.25 208.456337,259.39425 216.729903,249.844563 C222.528703,243.151352 224.519105,233.470524 224.739215,217.560416 C224.76842,215.449413 224.77144,213.747264 224.762846,209.994284 C224.759614,208.583414 224.758563,207.975366 224.758563,207.207948 Z"/>
      <rect width="156" height="195" x="39" y="38" fill="#222"/>
    </g>
  </g>
</svg>
