<svg xmlns="http://www.w3.org/2000/svg" xmlns:xlink="http://www.w3.org/1999/xlink" width="508" height="878" viewBox="0 0 508 878">
  <defs>
    <path id="apple-watch-44mm-a" d="M335.22,567.52 L154.56,567.52 C88.48,567.52 57.84,552.66 30.6,523.42 C3.34,494.22 0.888,448.22 0.888,390.34 L0.888,178.48 C0.888,120.6 3.34,74.62 30.6,45.4 C57.84,16.18 88.48,1.3 154.56,1.3 L335.22,1.3 C401.3,1.3 431.94,16.18 459.18,45.4 C478.08,65.66 485.04,93.96 487.56,128.72 L486.74,128.72 C482.24,131.2 475.98,145.24 475.98,157.44 L475.98,195.48 C475.98,207.68 482.24,221.72 486.74,224.2 L488.88,224.2 L488.88,390.34 C488.88,448.22 486.44,494.22 459.18,523.42 C431.94,552.66 401.3,567.52 335.22,567.52 Z"/>
    <path id="apple-watch-44mm-c" d="M335.22,567.52 L154.56,567.52 C88.48,567.52 57.84,552.66 30.6,523.42 C3.34,494.22 0.888,448.22 0.888,390.34 L0.888,178.48 C0.888,120.6 3.34,74.62 30.6,45.4 C57.84,16.18 88.48,1.3 154.56,1.3 L335.22,1.3 C401.3,1.3 431.94,16.18 459.18,45.4 C478.08,65.66 485.04,93.96 487.56,128.72 L486.74,128.72 C482.24,131.2 475.98,145.24 475.98,157.44 L475.98,195.48 C475.98,207.68 482.24,221.72 486.74,224.2 L488.88,224.2 L488.88,390.34 C488.88,448.22 486.44,494.22 459.18,523.42 C431.94,552.66 401.3,567.52 335.22,567.52 Z"/>
  </defs>
  <g fill="none" fill-rule="evenodd" transform="translate(-1 -1)">
    <g fill="#B6B6B6" transform="translate(44)">
      <path d="M198,1 C209.698,1.004 319.56,2.564 330,24 C336.824,38.012 340.888,106.736 341.544,110.516 C348.428,150.238 358.062,166.248 394.524,186.39 L1.476,186.39 C37.938,166.248 47.572,150.238 54.456,110.516 C55.112,106.736 59.176,38.012 66,24 C76.44,2.564 186.302,1.004 198,1 Z"/>
      <path d="M198,693 C209.698,693.004 319.56,694.564 330,716 C336.824,730.012 340.888,798.736 341.544,802.516 C348.428,842.238 358.062,858.248 394.524,878.39 L1.476,878.39 C37.938,858.248 47.572,842.238 54.456,802.516 C55.112,798.736 59.176,730.012 66,716 C76.44,694.564 186.302,693.004 198,693 Z" transform="matrix(1 0 0 -1 0 1571.39)"/>
    </g>
    <g transform="translate(474 284)">
      <rect width="14" height="92" y="2" fill="#111"/>
      <path fill="#3B3B3B" d="M34.5,75.24 C34.5,91.4 28.16,96.56 22.24,96.56 L12.86,96.56 C10.44,95.22 7.48,90.5 5.28,84.5 C5.28,82.72 5.28,14.26 5.28,12.48 C7.48,6.48 10.44,1.76 12.86,0.42 L22.24,0.42 C28.16,0.42 34.5,5.58 34.5,21.76 L34.5,75.24 Z"/>
    </g>
    <g transform="translate(0 155)">
      <path fill="#4A4A4A" d="M335.332,568.22 L154.672,568.22 C88.592,568.22 57.952,553.36 30.712,524.12 C3.452,494.92 1,448.92 1,391.04 L1,179.18 C1,121.3 3.452,75.32 30.712,46.1 C57.952,16.88 88.592,2 154.672,2 L335.332,2 C401.412,2 432.052,16.88 459.292,46.1 C478.192,66.36 485.152,94.66 487.672,129.42 L486.852,129.42 C482.352,131.9 476.092,145.94 476.092,158.14 L476.092,196.18 C476.092,208.38 482.352,222.42 486.852,224.9 L488.992,224.9 L488.992,391.04 C488.992,448.92 486.552,494.92 459.292,524.12 C432.052,553.36 401.412,568.22 335.332,568.22 Z"/>
      <g transform="translate(.112 .7)">
        <mask id="apple-watch-44mm-b" fill="#fff">
          <use xlink:href="#apple-watch-44mm-a"/>
        </mask>
        <path fill="#111" d="M490.2,302.28 C485.82,306.8 485.36,313.68 484.9,320.24 C484.68,323.46 484.6,326.7 484.58,329.94 C484.54,360.58 484.5,391.2 484.58,421.84 C484.64,430.06 484.64,438.78 487.78,445.7 L488.28,446.8 L486.6,447.6 L486.08,446.5 C482.72,439.04 482.78,430.3 482.72,421.84 C482.64,391 482.58,360.18 482.72,329.34 C482.78,321.36 482.84,313.1 485.64,305.94 C486.36,304.08 488.12,301.76 488.12,301.76 L488.86,300.98 C489.32,301.42 489.76,301.86 490.2,302.28 Z" mask="url(#apple-watch-44mm-b)"/>
      </g>
      <g transform="translate(.112 .7)">
        <mask id="apple-watch-44mm-d" fill="#fff">
          <use xlink:href="#apple-watch-44mm-c"/>
        </mask>
        <path fill="#111" d="M487.56,129.64 C487.56,129.64 487.08,129.58 486.68,129.88 C484.18,131.82 482.7,134.88 481.36,137.86 C478.62,143.94 477,150.52 476.92,157.16 C476.86,170.12 476.76,183.08 476.92,196.04 C477.1,205.46 479.5,215.5 485.68,222.12 C486.18,222.66 487,223.28 487,223.28 L488.88,223.28 L488.88,225.14 L486.58,225.12 C486.44,225.08 486.3,225.02 486.18,224.96 C486.04,224.88 485.92,224.8 485.78,224.7 C483.6,223.2 482.16,220.76 480.88,218.32 C477.26,211.5 475.2,203.8 475.06,196.06 C474.9,183.1 475,170.12 475.04,157.14 C475.16,147.76 477.76,138.1 483.22,130.82 C484.24,129.48 486.18,127.98 486.18,127.98 C486.62,127.72 487.56,127.78 487.56,127.78 C487.56,128.4 487.56,129.02 487.56,129.64 Z" mask="url(#apple-watch-44mm-d)"/>
      </g>
      <path fill="#000" d="M18.112,388.6 C18.112,387.7 18.112,180.98 18.112,180.08 C18.832,128.68 17.732,85.76 42.132,55.52 C68.752,22.54 104.652,18.7 172.252,18.7 L318.112,18.7 C385.712,18.7 421.612,22.54 448.212,55.52 C472.632,85.76 471.532,128.68 472.232,180.08 C472.252,180.98 472.252,387.7 472.232,388.6 C471.532,440 472.632,482.92 448.212,513.16 C421.612,546.14 385.712,549.98 318.112,549.98 L172.252,549.98 C104.652,549.98 68.752,546.14 42.132,513.16 C17.732,482.92 18.832,440 18.112,388.6 Z"/>
      <path fill="#000" d="M428.514668,122.90449 C428.514668,88.5821426 400.645167,60.702624 366.319795,60.702624 L122.724865,60.702624 C88.3994929,60.702624 60.510128,88.5821426 60.510128,122.90449 L60.510128,446.503934 C60.510128,480.845984 88.3994929,508.7058 122.724865,508.7058 L366.319795,508.7058 C400.645167,508.7058 428.514668,480.845984 428.514668,446.503934 L428.514668,122.90449 Z"/>
      <path fill="#000" d="M18.112,388.6 C18.112,387.7 18.112,180.98 18.112,180.08 C18.832,128.68 17.732,85.76 42.132,55.52 C68.752,22.54 104.652,18.7 172.252,18.7 L318.112,18.7 C385.712,18.7 421.612,22.54 448.212,55.52 C472.632,85.76 471.532,128.68 472.232,180.08 C472.252,180.98 472.252,387.7 472.232,388.6 C471.532,440 472.632,482.92 448.212,513.16 C421.612,546.14 385.712,549.98 318.112,549.98 L172.252,549.98 C104.652,549.98 68.752,546.14 42.132,513.16 C17.732,482.92 18.832,440 18.112,388.6 Z M428.514668,122.90449 C428.514668,88.5821426 400.645167,60.702624 366.319795,60.702624 L122.724865,60.702624 C88.3994929,60.702624 60.510128,88.5821426 60.510128,122.90449 L60.510128,446.503934 C60.510128,480.845984 88.3994929,508.7058 122.724865,508.7058 L366.319795,508.7058 C400.645167,508.7058 428.514668,480.845984 428.514668,446.503934 L428.514668,122.90449 Z"/>
      <path stroke="#222" stroke-width="1.74" d="M18.112,388.6 C18.112,387.7 18.112,180.98 18.112,180.08 C18.832,128.68 17.732,85.76 42.132,55.52 C68.752,22.54 104.652,18.7 172.252,18.7 L318.112,18.7 C385.712,18.7 421.612,22.54 448.212,55.52 C472.632,85.76 471.532,128.68 472.232,180.08 C472.252,180.98 472.252,387.7 472.232,388.6 C471.532,440 472.632,482.92 448.212,513.16 C421.612,546.14 385.712,549.98 318.112,549.98 L172.252,549.98 C104.652,549.98 68.752,546.14 42.132,513.16 C17.732,482.92 18.832,440 18.112,388.6 Z"/>
    </g>
    <path fill="#3B3B3B" d="M6.88,88.34 C6.88,108.54 6.58,127.26 5.04,144.34 C2.48,139.08 1.64,129.5 1.64,118.84 L1.64,28.54 C1.64,15.64 2.88,4.36 6.88,0.3 L6.88,88.34 Z" transform="translate(482.112 457.7)"/>
  </g>
</svg>
