<svg xmlns="http://www.w3.org/2000/svg" xmlns:xlink="http://www.w3.org/1999/xlink" width="448" height="773" viewBox="0 0 448 773">
  <defs>
    <path id="apple-watch-40mm-a" d="M295.28168,499.314649 L136.145625,499.314649 C77.9384375,499.314649 50.9489062,486.240544 26.9542969,460.514649 C2.94207031,434.823946 0.782203125,394.35229 0.782203125,343.42839 L0.782203125,157.030023 C0.782203125,106.106122 2.94207031,65.6520635 26.9542969,39.9437642 C50.9489062,14.2354649 77.9384375,1.14376417 136.145625,1.14376417 L295.28168,1.14376417 C353.488867,1.14376417 380.478398,14.2354649 404.473008,39.9437642 C421.12125,57.7688889 427.252031,82.6677551 429.471797,113.250249 L428.749492,113.250249 C424.785625,115.4322 419.271445,127.784853 419.271445,138.518639 L419.271445,171.986939 C419.271445,182.720726 424.785625,195.073379 428.749492,197.255329 L430.634531,197.255329 L430.634531,343.42839 C430.634531,394.35229 428.485234,434.823946 404.473008,460.514649 C380.478398,486.240544 353.488867,499.314649 295.28168,499.314649 Z"/>
    <path id="apple-watch-40mm-c" d="M295.28168,499.314649 L136.145625,499.314649 C77.9384375,499.314649 50.9489062,486.240544 26.9542969,460.514649 C2.94207031,434.823946 0.782203125,394.35229 0.782203125,343.42839 L0.782203125,157.030023 C0.782203125,106.106122 2.94207031,65.6520635 26.9542969,39.9437642 C50.9489062,14.2354649 77.9384375,1.14376417 136.145625,1.14376417 L295.28168,1.14376417 C353.488867,1.14376417 380.478398,14.2354649 404.473008,39.9437642 C421.12125,57.7688889 427.252031,82.6677551 429.471797,113.250249 L428.749492,113.250249 C424.785625,115.4322 419.271445,127.784853 419.271445,138.518639 L419.271445,171.986939 C419.271445,182.720726 424.785625,195.073379 428.749492,197.255329 L430.634531,197.255329 L430.634531,343.42839 C430.634531,394.35229 428.485234,434.823946 404.473008,460.514649 C380.478398,486.240544 353.488867,499.314649 295.28168,499.314649 Z"/>
  </defs>
  <g fill="none" fill-rule="evenodd" transform="translate(-1 -1)">
    <g fill="#B6B6B6" transform="translate(39.639 .88)">
      <path d="M174.410156,0.879818594 C184.714449,0.883337868 281.487422,2.25585488 290.683594,21.1156463 C296.694578,33.4436644 300.274391,93.9083175 300.852234,97.2340317 C306.91607,132.182186 315.40227,146.268082 347.520164,163.989388 L1.30014844,163.989388 C33.418043,146.268082 41.9042422,132.182186 47.9680781,97.2340317 C48.5459219,93.9083175 52.1257344,33.4436644 58.1367187,21.1156463 C67.3328906,2.25585488 164.105863,0.883337868 174.410156,0.879818594 Z"/>
      <path d="M174.410156,609.714286 C184.714449,609.717805 281.487422,611.090322 290.683594,629.950113 C296.694578,642.278132 300.274391,702.742785 300.852234,706.068499 C306.91607,741.016653 315.40227,755.102549 347.520164,772.823855 L1.30014844,772.823855 C33.418043,755.102549 41.9042422,741.016653 47.9680781,706.068499 C48.5459219,702.742785 52.1257344,642.278132 58.1367187,629.950113 C67.3328906,611.090322 164.105863,609.717805 174.410156,609.714286 Z" transform="matrix(1 0 0 -1 0 1382.538)"/>
    </g>
    <g transform="translate(418.408 250.748)">
      <rect width="12.332" height="80.943" y="1.76" fill="#111"/>
      <path fill="#3B3B3B" d="M30.3896484,66.197551 C30.3896484,80.4154195 24.805,84.9552834 19.5903125,84.9552834 L11.3278516,84.9552834 C9.19617187,83.7763265 6.58882812,79.6235828 4.6509375,74.3446712 C4.6509375,72.7785941 4.6509375,12.5462132 4.6509375,10.9801361 C6.58882812,5.70122449 9.19617187,1.54848073 11.3278516,0.36952381 L19.5903125,0.36952381 C24.805,0.36952381 30.3896484,4.90938776 30.3896484,19.1448526 L30.3896484,66.197551 Z"/>
    </g>
    <g transform="translate(.88 137.372)">
      <path fill="#4A4A4A" d="M295.380336,499.81034 L136.244281,499.81034 C78.0370938,499.81034 51.0475625,486.736236 27.0529531,461.01034 C3.04072656,435.319637 0.880859375,394.847982 0.880859375,343.924082 L0.880859375,157.525714 C0.880859375,106.601814 3.04072656,66.1477551 27.0529531,40.4394558 C51.0475625,14.7311565 78.0370938,1.63945578 136.244281,1.63945578 L295.380336,1.63945578 C353.587523,1.63945578 380.577055,14.7311565 404.571664,40.4394558 C421.219906,58.2645805 427.350688,83.1634467 429.570453,113.745941 L428.848148,113.745941 C424.884281,115.927891 419.370102,128.280544 419.370102,139.014331 L419.370102,172.48263 C419.370102,183.216417 424.884281,195.56907 428.848148,197.75102 L430.733188,197.75102 L430.733188,343.924082 C430.733188,394.847982 428.583891,435.319637 404.571664,461.01034 C380.577055,486.736236 353.587523,499.81034 295.380336,499.81034 Z"/>
      <g transform="translate(.099 .496)">
        <mask id="apple-watch-40mm-b" fill="#fff">
          <use xlink:href="#apple-watch-40mm-a"/>
        </mask>
        <path fill="#111" d="M431.797266,265.951565 C427.939102,269.928345 427.533906,275.981497 427.128711,281.753107 C426.934922,284.586122 426.864453,287.436735 426.846836,290.287347 C426.811602,317.244989 426.776367,344.185034 426.846836,371.142676 C426.899688,378.374785 426.899688,386.046803 429.665586,392.135147 L430.106016,393.102948 L428.626172,393.806803 L428.168125,392.839002 C425.208438,386.275556 425.261289,378.585941 425.208438,371.142676 C425.137969,344.00907 425.085117,316.893061 425.208438,289.759456 C425.261289,282.738503 425.314141,275.471202 427.780547,269.171701 C428.414766,267.535238 429.965078,265.494059 429.965078,265.494059 L430.616914,264.8078 C431.022109,265.194921 431.409688,265.582041 431.797266,265.951565 Z" mask="url(#apple-watch-40mm-b)"/>
      </g>
      <g transform="translate(.099 .496)">
        <mask id="apple-watch-40mm-d" fill="#fff">
          <use xlink:href="#apple-watch-40mm-c"/>
        </mask>
        <path fill="#111" d="M429.471797,114.059683 C429.471797,114.059683 429.048984,114.006893 428.696641,114.270839 C426.494492,115.977687 425.19082,118.669932 424.010469,121.291791 C421.596914,126.641088 420.169922,132.430295 420.099453,138.27229 C420.046602,149.674739 419.958516,161.077188 420.099453,172.479637 C420.258008,180.767528 422.37207,189.600907 427.815781,195.425306 C428.256211,195.900408 428.978516,196.445896 428.978516,196.445896 L430.634531,196.445896 L430.634531,198.082358 L428.608555,198.064762 C428.485234,198.029569 428.361914,197.97678 428.256211,197.923991 C428.132891,197.853605 428.027188,197.78322 427.903867,197.695238 C425.983594,196.37551 424.715156,194.228753 423.587656,192.081995 C420.398945,186.081633 418.584375,179.307029 418.461055,172.497234 C418.320117,161.094785 418.408203,149.674739 418.443437,138.254694 C418.549141,130.001995 420.839375,121.502948 425.648867,115.097868 C426.547344,113.918912 428.256211,112.599184 428.256211,112.599184 C428.643789,112.370431 429.471797,112.42322 429.471797,112.42322 C429.471797,112.968707 429.471797,113.514195 429.471797,114.059683 Z" mask="url(#apple-watch-40mm-d)"/>
      </g>
      <path fill="#000" d="M16,341.444898 C16,340.653061 16,158.776961 16,157.985125 C16.6342188,112.762449 15.6652734,75.0006349 37.1582422,48.3949206 C60.6067187,19.3785034 92.2295703,16 151.775664,16 L280.257812,16 C339.803906,16 371.426758,19.3785034 394.857617,48.3949206 C416.368203,75.0006349 415.399258,112.762449 416.015859,157.985125 C416.033477,158.776961 416.033477,340.653061 416.015859,341.444898 C415.399258,386.667574 416.368203,424.429388 394.857617,451.035102 C371.426758,480.051519 339.803906,483.430023 280.257812,483.430023 L151.775664,483.430023 C92.2295703,483.430023 60.6067187,480.051519 37.1582422,451.035102 C15.6652734,424.429388 16.6342188,386.667574 16,341.444898 Z"/>
      <path fill="#000" d="M378,107.703932 C378,77.5188671 353.463025,53 323.242146,53 L108.775343,53 C78.554464,53 54,77.5188671 54,107.703932 L54,392.296068 C54,422.498461 78.554464,447 108.775343,447 L323.242146,447 C353.463025,447 378,422.498461 378,392.296068 L378,107.703932 Z"/>
      <path fill="#000" d="M280.257812,16 C339.803906,16 371.426758,19.3785034 394.857617,48.3949206 C416.368203,75.0006349 415.399258,112.762449 416.015859,157.985125 C416.033477,158.776961 416.033477,340.653061 416.015859,341.444898 C415.399258,386.667574 416.368203,424.429388 394.857617,451.035102 C371.426758,480.051519 339.803906,483.430023 280.257812,483.430023 L151.775664,483.430023 C92.2295703,483.430023 60.6067187,480.051519 37.1582422,451.035102 C15.6652734,424.429388 16.6342188,386.667574 16,341.444898 L16,157.985125 L16,157.985125 C16.6342188,112.762449 15.6652734,75.0006349 37.1582422,48.3949206 C60.6067187,19.3785034 92.2295703,16 151.775664,16 L280.257812,16 Z M323.242146,53 L108.775343,53 C78.554464,53 54,77.5188671 54,107.703932 L54,392.296068 C54,422.498461 78.554464,447 108.775343,447 L323.242146,447 C353.463025,447 378,422.498461 378,392.296068 L378,107.703932 C378,77.5188671 353.463025,53 323.242146,53 Z"/>
      <path stroke="#222" stroke-width="1.531" d="M15.954125,341.777324 C15.954125,340.985488 15.954125,159.109388 15.954125,158.317551 C16.5883438,113.094875 15.6193984,75.3330612 37.1123672,48.7273469 C60.5608438,19.7109297 92.1836953,16.3324263 151.729789,16.3324263 L280.211938,16.3324263 C339.758031,16.3324263 371.380883,19.7109297 394.811742,48.7273469 C416.322328,75.3330612 415.353383,113.094875 415.969984,158.317551 C415.987602,159.109388 415.987602,340.985488 415.969984,341.777324 C415.353383,387 416.322328,424.761814 394.811742,451.367528 C371.380883,480.383946 339.758031,483.762449 280.211938,483.762449 L151.729789,483.762449 C92.1836953,483.762449 60.5608438,480.383946 37.1123672,451.367528 C15.6193984,424.761814 16.5883438,387 15.954125,341.777324 Z"/>
    </g>
    <path fill="#3B3B3B" d="M6.0603125,77.7231746 C6.0603125,95.4955102 5.79605469,111.965714 4.43953125,126.993016 C2.18453125,122.36517 1.44460937,113.936508 1.44460937,104.557642 L1.44460937,25.1100227 C1.44460937,13.7603628 2.536875,3.83600907 6.0603125,0.263945578 L6.0603125,77.7231746 Z" transform="translate(425.554 403.573)"/>
  </g>
</svg>
