<svg xmlns="http://www.w3.org/2000/svg" width="214" height="383" viewBox="0 0 214 383">
  <g fill="none" fill-rule="evenodd">
    <g fill="#B6B6B6" transform="translate(15.659)">
      <path d="M86.1219512,0.435227273 C91.2101057,0.436968182 138.99561,1.11592273 143.536585,10.4454545 C146.504748,16.5438591 148.272726,46.4543431 148.557627,48.0994729 C151.551635,65.388047 155.742415,72.3556636 171.601902,81.1220114 L0.642,81.1220114 C16.5014878,72.3556636 20.6922676,65.388047 23.6862756,48.0994729 C23.9711766,46.4543431 25.7391545,16.5438591 28.7073171,10.4454545 C33.2482927,1.11592273 81.0337967,0.436968182 86.1219512,0.435227273 Z"/>
      <path d="M86.1219512,301.6125 C91.2101057,301.614241 138.99561,302.293195 143.536585,311.622727 C146.504748,317.721132 148.272726,347.631616 148.557627,349.276746 C151.551635,366.56532 155.742415,373.532936 171.601902,382.299284 L0.642,382.299284 C16.5014878,373.532936 20.6922676,366.56532 23.6862756,349.276746 C23.9711766,347.631616 25.7391545,317.721132 28.7073171,311.622727 C33.2482927,302.293195 81.0337967,301.614241 86.1219512,301.6125 Z" transform="matrix(1 0 0 -1 0 683.912)"/>
    </g>
    <g transform="translate(196.602 127.957)">
      <rect width="6.089" height="40.041" fill="#030303"/>
      <path fill="#3B3B3B" d="M16.9634146 8.70454545L16.9634146 32.2068182C16.9634146 32.832675 17.4866799 40.9113636 11.9579024 40.9113636L3.4796748 40.9113636 3.4796748 0 11.9579024 0C17.4866799 0 16.9634146 8.07868864 16.9634146 8.70454545zM7.53349593 129.2625L4.27043089 129.2625 4.27043089 69.6363636 7.53349593 69.6363636C8.14417886 69.6363636 8.69918699 70.3840841 8.69918699 70.9420455L8.69918699 127.956818C8.69918699 128.51478 8.14417886 129.2625 7.53349593 129.2625z"/>
    </g>
    <g transform="translate(0 73.118)">
      <path fill="#4A4A4A" d="M202.691057,51.7920455 C202.691057,52.6515498 202.691057,53.2961781 202.691057,53.7259303 C202.691057,54.8386364 197.471545,56.5795455 197.471545,74.8590909 C197.471545,93.1386364 202.691057,95.8897581 202.691057,96.6204545 C202.691057,97.3255722 202.691057,106.623631 202.691057,124.475 C200.95122,128.827273 200.95122,128.827273 200.95122,153.771939 C200.95122,178.716606 200.95122,181.925 202.691057,184.536364 C202.691057,198.7857 201.34432,212.617116 193.251581,221.925739 C185.158841,231.234363 178.333333,235.893182 154.805175,235.893182 L48.2804878,235.893182 C25.2276423,235.893182 17.9671752,231.234363 9.87443574,221.925739 C1.78169628,212.617116 0.43495935,198.784205 0.43495935,184.536364 L0.43495935,51.7920455 C0.43495935,37.5442038 1.78169628,23.7112931 9.87443574,14.4026696 C17.9671752,5.09404615 25.2276423,0.435227273 48.2804878,0.435227273 L154.805175,0.435227273 C178.333333,0.435227273 185.158841,5.09404615 193.251581,14.4026696 C201.34432,23.7112931 202.691057,37.5442038 202.691057,51.7920455 Z"/>
      <path fill="#222" stroke="#000" stroke-width=".5" d="M195.529807,180.531009 L195.529809,180.53015 L195.957317,56.1292178 C195.957317,55.4611827 195.958232,54.931888 195.961042,53.7037653 C195.968519,50.4371389 195.965891,48.9556124 195.940489,47.1183114 C195.749111,33.2765185 194.018828,24.8556643 188.980927,19.0371314 C181.790323,10.7323317 175.298703,8.25 161.990515,8.25 L41.6517615,8.25 C28.3435733,8.25 21.8519531,10.7323317 14.6613496,19.0371314 C9.62344811,24.8556643 7.89316583,33.2765185 7.70178772,47.1183114 C7.676385,48.9556124 7.67375754,50.4371389 7.68123402,53.7037653 C7.68404488,54.931888 7.68495935,55.4611827 7.68495787,56.1300769 L7.25744934,180.531009 C7.25744934,181.199045 7.25653488,181.728339 7.25372402,182.956462 C7.24624754,186.223088 7.24887499,187.704615 7.27427771,189.541916 C7.46565582,203.383709 9.1959381,211.804563 14.2338396,217.623096 C21.4244431,225.927896 27.9160633,228.410227 41.2242515,228.410227 L161.563005,228.410227 C174.871193,228.410227 181.362813,225.927896 188.553417,217.623096 C193.591318,211.804563 195.321601,203.383709 195.512979,189.541916 C195.538381,187.704615 195.541009,186.223088 195.533532,182.956462 C195.530722,181.728339 195.529807,181.199045 195.529807,180.531009 Z M196.029807,180.531439 L196.029806,180.531869 L196.029807,180.531009 C196.029807,180.531153 196.029807,180.531296 196.029807,180.531439 Z"/>
      <rect width="136" height="170" x="34" y="33" fill="#222"/>
    </g>
  </g>
</svg>
