<?xml version="1.0" encoding="UTF-8" standalone="no"?>
<svg width="212px" height="380px" viewBox="0 0 212 380" version="1.1" xmlns="http://www.w3.org/2000/svg" xmlns:xlink="http://www.w3.org/1999/xlink" xmlns:sketch="http://www.bohemiancoding.com/sketch/ns">
    <!-- Generator: Sketch 3.3.3 (12072) - http://www.bohemiancoding.com/sketch -->
    <title>Apple Watch 38mm</title>
    <desc>Created with Sketch.</desc>
    <defs></defs>
    <g id="Apple-Watch" stroke="none" stroke-width="1" fill="none" fill-rule="evenodd" sketch:type="MSPage">
        <g id="Apple-Watch-38mm" sketch:type="MSArtboardGroup" transform="translate(-269.000000, -185.000000)">
            <g sketch:type="MSLayerGroup" transform="translate(269.000000, 185.000000)">
                <g id="Bracelet1" transform="translate(16.000000, 0.000000)" fill="#86CD6C" sketch:type="MSShapeGroup">
                    <path d="M169.5,80.786 L0.351,80.786 C16.357,71.944 19.539,65.353 22.389,46.961 C22.646,45.297 24.518,16.724 27.514,10.573 C32.097,1.162 79.78,0.836 84.914,0.835 L84.914,0.835 L84.926,0.835 L84.937,0.835 C90.071,0.836 137.754,1.162 142.337,10.573 C145.333,16.724 147.205,45.297 147.462,46.961 C150.312,65.353 153.494,71.944 169.5,80.786 L169.5,80.786 Z" id="Bracelet-Top1"></path>
                    <path d="M169.5,299.214 L0.351,299.214 C16.357,308.056 19.539,314.647 22.389,333.039 C22.646,334.703 24.518,363.276 27.514,369.427 C32.097,378.838 79.78,379.164 84.914,379.165 L84.914,379.165 L84.926,379.165 L84.937,379.165 C90.071,379.164 137.754,378.838 142.337,369.427 C145.333,363.276 147.205,334.703 147.462,333.039 C150.312,314.647 153.494,308.056 169.5,299.214 L169.5,299.214 Z" id="Bracelet-Bottom1"></path>
                </g>
                <g id="Body2" transform="translate(0.000000, 73.000000)" sketch:type="MSShapeGroup">
                    <path d="M201.851,35.287 C201.851,15.97 186.168,0.287 166.851,0.287 L35,0.287 C15.683,0.287 0,15.97 0,35.287 L0,198.713 C0,218.03 15.683,233.713 35,233.713 L166.851,233.713 C186.168,233.713 201.851,218.03 201.851,198.713 L201.851,35.287 L201.851,35.287 Z" id="Metal-Frame" fill="#D5D2CF"></path>
                    <path d="M191.702,34.436 C191.702,21.19 180.948,10.436 167.702,10.436 L34.149,10.436 C20.903,10.436 10.149,21.19 10.149,34.436 L10.149,200.128 C10.149,213.374 20.903,224.128 34.149,224.128 L167.702,224.128 C180.948,224.128 191.702,213.374 191.702,200.128 L191.702,34.436 L191.702,34.436 Z" id="Glass-Frame" fill="#343434"></path>
                    <rect id="Screen1" fill="#343434" x="32.926" y="32.282" width="136" height="170"></rect>
                </g>
                <g id="Buttons1" transform="translate(193.000000, 124.000000)" fill="#B1B1B1" sketch:type="MSShapeGroup">
                    <path d="M19,33.862 C19,34.556 18.547,42.443 13.926,44.574 L7.723,44.574 C5.639,43.557 1.059,40.044 0.959,23.149 L0.957,23.149 L0.957,22.021 L0.959,22.021 C1.059,5.126 5.639,1.614 7.723,0.596 L13.926,0.596 C18.547,2.727 19,10.614 19,11.309 L19,33.862 L19,33.862 Z" id="Crown1"></path>
                    <path d="M11.106,133.096 C11.106,133.715 10.657,134.223 9.979,134.223 L8.287,134.223 C7.315,134.223 6.596,132.136 6.596,130.277 L6.596,72.202 C6.596,70.343 7.315,68.255 8.287,68.255 L9.979,68.255 C10.657,68.255 11.106,68.764 11.106,69.383 L11.106,133.096 L11.106,133.096 Z" id="Button1"></path>
                </g>
            </g>
        </g>
    </g>
</svg>