<svg xmlns="http://www.w3.org/2000/svg" width="428" height="765" viewBox="0 0 428 765">
  <g fill="none" fill-rule="evenodd">
    <g fill="#B6B6B6" transform="translate(31.317)">
      <path d="M172.243902,0.870454545 C182.420211,0.873936364 277.99122,2.23184545 287.073171,20.8909091 C293.009496,33.0877182 296.545452,92.9086861 297.115254,96.1989458 C303.10327,130.776094 311.484829,144.711327 343.203805,162.244023 L1.284,162.244023 C33.0029756,144.711327 41.3845353,130.776094 47.3725513,96.1989458 C47.9423533,92.9086861 51.4783089,33.0877182 57.4146341,20.8909091 C66.4965854,2.23184545 162.067593,0.873936364 172.243902,0.870454545 Z"/>
      <path d="M172.243902,603.225 C182.420211,603.228482 277.99122,604.586391 287.073171,623.245455 C293.009496,635.442264 296.545452,695.263232 297.115254,698.553491 C303.10327,733.130639 311.484829,747.065873 343.203805,764.598568 L1.284,764.598568 C33.0029756,747.065873 41.3845353,733.130639 47.3725513,698.553491 C47.9423533,695.263232 51.4783089,635.442264 57.4146341,623.245455 C66.4965854,604.586391 162.067593,603.228482 172.243902,603.225 Z" transform="matrix(1 0 0 -1 0 1367.824)"/>
    </g>
    <g transform="translate(393.203 255.914)">
      <rect width="12.179" height="80.082" fill="#030303"/>
      <path fill="#3B3B3B" d="M33.9268293 17.4090909L33.9268293 64.4136364C33.9268293 65.66535 34.9733598 81.8227273 23.9158049 81.8227273L6.95934959 81.8227273 6.95934959 0 23.9158049 0C34.9733598 0 33.9268293 16.1573773 33.9268293 17.4090909zM15.0669919 258.525L8.54086179 258.525 8.54086179 139.272727 15.0669919 139.272727C16.2883577 139.272727 17.398374 140.768168 17.398374 141.884091L17.398374 255.913636C17.398374 257.029559 16.2883577 258.525 15.0669919 258.525z"/>
    </g>
    <g transform="translate(0 146.236)">
      <path fill="#4A4A4A" d="M405.382114,103.584091 C405.382114,105.3031 405.382114,106.592356 405.382114,107.451861 C405.382114,109.677273 394.943089,113.159091 394.943089,149.718182 C394.943089,186.277273 405.382114,191.779516 405.382114,193.240909 C405.382114,194.651144 405.382114,213.247263 405.382114,248.95 C401.902439,257.654545 401.902439,257.654545 401.902439,307.543879 C401.902439,357.433212 401.902439,363.85 405.382114,369.072727 C405.382114,397.571401 402.68864,425.234232 386.503161,443.851479 C370.317682,462.468726 356.666667,471.786364 309.610351,471.786364 L96.5609756,471.786364 C50.4552846,471.786364 35.9343504,462.468726 19.7488715,443.851479 C3.56339255,425.234232 0.869918699,397.56841 0.869918699,369.072727 L0.869918699,103.584091 C0.869918699,75.0884077 3.56339255,47.4225862 19.7488715,28.8053393 C35.9343504,10.1880923 50.4552846,0.870454545 96.5609756,0.870454545 L309.610351,0.870454545 C356.666667,0.870454545 370.317682,10.1880923 386.503161,28.8053393 C402.68864,47.4225862 405.382114,75.0884077 405.382114,103.584091 Z"/>
      <path fill="#000" stroke="#222" stroke-width="1.74" d="M323.98103,16.87 C349.154286,16.87 362.758469,21.080342 377.682134,38.3164545 C391.769829,54.5870623 391.609766,82.2057732 391.55202,107.435549 C391.548316,109.053867 391.544634,110.662673 391.544639,112.255446 L391.544639,112.255446 L390.689614,361.062019 C390.689614,362.657781 390.693296,364.266587 390.697,365.884906 C390.754746,391.114681 390.914809,418.733392 376.827114,435.004 C361.903449,452.240112 348.299266,456.450455 323.12601,456.450455 L323.12601,456.450455 L82.448503,456.450455 C57.2752467,456.450455 43.6710642,452.240112 28.7473991,435.004 C14.6597037,418.733392 14.8197666,391.114681 14.8775131,365.884906 C14.8812172,364.266587 14.8848987,362.657781 14.8848936,361.065009 L14.8848936,361.065009 L15.7399187,112.258436 C15.7399187,110.662673 15.7362372,109.053867 15.7325331,107.435549 C15.6747866,82.2057732 15.5147237,54.5870623 29.6024191,38.3164545 C44.5260843,21.080342 58.1302667,16.87 83.303523,16.87 L83.303523,16.87 Z"/>
      <polygon fill="#000" points="68 66 340 66 340 406 68 406"/>
    </g>
  </g>
</svg>
