<svg xmlns="http://www.w3.org/2000/svg" width="491" height="878" viewBox="0 0 491 878">
  <g fill="none" fill-rule="evenodd" transform="translate(0 -1)">
    <g fill="#B6B6B6" transform="translate(35)">
      <path d="M198,1 C209.698,1.004 319.56,2.564 330,24 C336.824,38.012 340.888697,106.735827 341.543703,110.51576 C348.427123,150.238855 358.062,166.248 394.524,186.39 L1.476,186.39 C37.938,166.248 47.572877,150.238855 54.4562973,110.51576 C55.1113033,106.735827 59.176,38.012 66,24 C76.44,2.564 186.302,1.004 198,1 Z"/>
      <path d="M198,693 C209.698,693.004 319.56,694.564 330,716 C336.824,730.012 340.888697,798.735827 341.543703,802.51576 C348.427123,842.238855 358.062,858.248 394.524,878.39 L1.476,878.39 C37.938,858.248 47.572877,842.238855 54.4562973,802.51576 C55.1113033,798.735827 59.176,730.012 66,716 C76.44,694.564 186.302,693.004 198,693 Z" transform="matrix(1 0 0 -1 0 1571.39)"/>
    </g>
    <g transform="translate(451 294)">
      <rect width="14" height="92" fill="#111"/>
      <path fill="#3B3B3B" d="M39 20L39 74C39 75.438 40.2030211 94 27.492 94L8 94 8 0 27.492 0C40.2030211 0 39 18.562 39 20zM17.32 297L9.818 297 9.818 160 17.32 160C18.724 160 20 161.718 20 163L20 294C20 295.282 18.724 297 17.32 297z"/>
    </g>
    <g transform="translate(0 169)">
      <path fill="#4A4A4A" d="M465,118 C465,119.97484 465,121.455971 465,122.443391 C465,125 453,129 453,171 C453,213 465,219.321115 465,221 C465,222.620114 465,243.9838 465,285 C461,295 461,295 461,352.314117 C461,409.628233 461,417 465,423 C465,455.73999 461.903764,487.519744 443.298026,508.907704 C424.692289,530.295664 409,541 354.907225,541 L110,541 C57,541 40.3077112,530.295664 21.7019738,508.907704 C3.0962363,487.519744 -1.28466127e-11,455.736555 -1.8189894e-11,423 L-1.8189894e-11,118 C-1.28466127e-11,85.2634449 3.0962363,53.4802557 21.7019738,32.0922958 C40.3077112,10.7043358 57,-3.63797881e-12 110,-3.63797881e-12 L354.907225,-3.63797881e-12 C409,-3.63797881e-12 424.692289,10.7043358 443.298026,32.0922958 C461.903764,53.4802557 465,85.2634449 465,118 Z"/>
      <path fill="#000" stroke="#222" stroke-width="1.74" d="M448.147127,413.415896 L448.147132,413.412905 L449.13,127.584104 C449.13,126.04889 449.132103,124.832609 449.138566,122.010584 C449.155751,114.506604 449.149712,111.103647 449.091339,106.884287 C448.652264,75.1469303 444.68531,55.8526309 433.163033,42.5531502 C416.692482,23.5421699 401.849884,17.87 371.333333,17.87 L94.6666667,17.87 C64.1501165,17.87 49.3075176,23.5421699 32.8369669,42.5531502 C21.3146904,55.8526309 17.3477356,75.1469303 16.9086612,106.884287 C16.850288,111.103647 16.8442492,114.506604 16.8614345,122.010584 C16.8678973,124.832609 16.87,126.04889 16.8699949,127.587095 L15.8871265,413.415896 C15.8871265,414.95111 15.8850239,416.167391 15.878561,418.989416 C15.8613757,426.493396 15.8674145,429.896353 15.9257877,434.115713 C16.3648621,465.85307 20.331817,485.147369 31.8540935,498.44685 C48.3246441,517.45783 63.167243,523.13 93.6837932,523.13 L370.35046,523.13 C400.86701,523.13 415.709609,517.45783 432.18016,498.44685 C443.702436,485.147369 447.669391,465.85307 448.108465,434.115713 C448.166839,429.896353 448.172877,426.493396 448.155692,418.989416 C448.149229,416.167391 448.147127,414.95111 448.147127,413.415896 Z"/>
      <rect width="312" height="390" x="77" y="75" fill="#000"/>
    </g>
  </g>
</svg>
