<svg xmlns="http://www.w3.org/2000/svg" width="491" height="878" viewBox="0 0 491 878">
  <g fill="none" fill-rule="evenodd" transform="translate(0 -1)">
    <g fill="#B6B6B6" transform="translate(35)">
      <path d="M198,1 C209.698,1.004 319.56,2.564 330,24 C336.824,38.012 340.888697,106.735827 341.543703,110.51576 C348.427123,150.238855 358.062,166.248 394.524,186.39 L1.476,186.39 C37.938,166.248 47.572877,150.238855 54.4562973,110.51576 C55.1113033,106.735827 59.176,38.012 66,24 C76.44,2.564 186.302,1.004 198,1 Z"/>
      <path d="M198,693 C209.698,693.004 319.56,694.564 330,716 C336.824,730.012 340.888697,798.735827 341.543703,802.51576 C348.427123,842.238855 358.062,858.248 394.524,878.39 L1.476,878.39 C37.938,858.248 47.572877,842.238855 54.4562973,802.51576 C55.1113033,798.735827 59.176,730.012 66,716 C76.44,694.564 186.302,693.004 198,693 Z" transform="matrix(1 0 0 -1 0 1571.39)"/>
    </g>
    <g transform="translate(451 294)">
      <rect width="14" height="92" fill="#111"/>
      <path fill="#3B3B3B" d="M39 20L39 74C39 75.438 40.2030211 94 27.492 94L8 94 8 0 27.492 0C40.2030211 0 39 18.562 39 20zM17.32 297L9.818 297 9.818 160 17.32 160C18.724 160 20 161.718 20 163L20 294C20 295.282 18.724 297 17.32 297z"/>
    </g>
    <g transform="translate(0 169)">
      <path fill="#4A4A4A" d="M465,118 C465,119.97484 465,121.455971 465,122.443391 C465,125 453,129 453,171 C453,213 465,219.321115 465,221 C465,222.620114 465,243.9838 465,285 C461,295 461,295 461,352.314117 C461,409.628233 461,417 465,423 C465,455.73999 461.903764,487.519744 443.298026,508.907704 C424.692289,530.295664 409,541 354.907225,541 L110,541 C57,541 40.3077112,530.295664 21.7019738,508.907704 C3.0962363,487.519744 -1.8189894e-11,455.736555 -1.8189894e-11,423 L-1.8189894e-11,118 C-1.8189894e-11,85.2634449 3.0962363,53.4802557 21.7019738,32.0922958 C40.3077112,10.7043358 57,-3.63797881e-12 110,-3.63797881e-12 L354.907225,-3.63797881e-12 C409,-3.63797881e-12 424.692289,10.7043358 443.298026,32.0922958 C461.903764,53.4802557 465,85.2634449 465,118 Z"/>
      <path fill="#000" stroke="#222" stroke-width="1.74" d="M371.333333,17.87 C400.319088,17.87 415.980412,22.7202689 433.163033,42.5531502 C449.374597,61.2651975 449.204951,93.0242926 449.13849,122.043745 C449.134232,123.902811 449.13,125.75095 449.130005,127.581112 L449.130005,127.581112 L448.147127,413.415896 C448.147127,415.24905 448.151358,417.097189 448.155616,418.956255 C448.222078,447.975707 448.391724,479.734803 432.18016,498.44685 C414.997538,518.279731 399.336215,523.13 370.35046,523.13 L370.35046,523.13 L93.6837932,523.13 C64.6980381,523.13 49.0367148,518.279731 31.8540935,498.44685 C15.6425295,479.734803 15.8121755,447.975707 15.8786369,418.956255 C15.8828946,417.097189 15.8871265,415.24905 15.8871214,413.418888 L15.8871214,413.418888 L16.87,127.584104 C16.87,125.75095 16.8657681,123.902811 16.8615104,122.043745 C16.795049,93.0242926 16.6254029,61.2651975 32.8369669,42.5531502 C50.0195883,22.7202689 65.6809116,17.87 94.6666667,17.87 L94.6666667,17.87 L371.333333,17.87 Z"/>
      <polygon fill="#000" points="77 75 389 75 389 465 77 465"/>
    </g>
  </g>
</svg>
