<?xml version="1.0" encoding="UTF-8" standalone="no"?>
<svg width="241px" height="435px" viewBox="0 0 241 435" version="1.1" xmlns="http://www.w3.org/2000/svg" xmlns:xlink="http://www.w3.org/1999/xlink" xmlns:sketch="http://www.bohemiancoding.com/sketch/ns">
    <!-- Generator: Sketch 3.3.3 (12072) - http://www.bohemiancoding.com/sketch -->
    <title>Apple Watch 42mm</title>
    <desc>Created with Sketch.</desc>
    <defs></defs>
    <g id="Apple-Watch" stroke="none" stroke-width="1" fill="none" fill-rule="evenodd" sketch:type="MSPage">
        <g id="Apple-Watch-42mm" sketch:type="MSArtboardGroup" transform="translate(-255.000000, -158.000000)">
            <g sketch:type="MSLayerGroup" transform="translate(255.000000, 158.000000)">
                <g id="Bracelet" transform="translate(19.000000, 0.000000)" fill="#86CD6C" sketch:type="MSShapeGroup">
                    <path d="M193.397,91.195 L0.738,91.195 C18.969,81.124 22.593,73.617 25.839,52.668 C26.132,50.773 28.264,18.228 31.676,11.222 C36.896,0.504 91.206,0.133 97.055,0.131 L97.055,0.131 L97.067,0.131 L97.08,0.131 C102.928,0.133 157.239,0.504 162.459,11.222 C165.871,18.228 168.003,50.773 168.296,52.668 C171.542,73.617 175.166,81.124 193.397,91.195 L193.397,91.195 Z" id="Bracelet-Top"></path>
                    <path d="M193.397,343.369 L0.738,343.369 C18.969,353.44 22.593,360.947 25.839,381.896 C26.132,383.791 28.264,416.336 31.676,423.341 C36.896,434.06 91.206,434.431 97.055,434.432 L97.055,434.432 L97.067,434.432 L97.08,434.432 C102.928,434.431 157.239,434.06 162.459,423.341 C165.871,416.336 168.003,383.791 168.296,381.896 C171.542,360.947 175.166,353.44 193.397,343.369 L193.397,343.369 Z" id="Bracelet-Bottom"></path>
                </g>
                <g id="Body" transform="translate(0.000000, 83.000000)" sketch:type="MSShapeGroup">
                    <path d="M230.442,36.814 C230.442,16.669 214.087,0.314 193.942,0.314 L37,0.314 C16.855,0.314 0.5,16.669 0.5,36.814 L0.5,231.75 C0.5,251.895 16.855,268.25 37,268.25 L193.942,268.25 C214.087,268.25 230.442,251.895 230.442,231.75 L230.442,36.814 L230.442,36.814 Z" id="Body1" fill="#D5D2CF"></path>
                    <path d="M220.569,37.212 C220.569,22.311 208.471,10.212 193.569,10.212 L37.424,10.212 C22.522,10.212 10.424,22.311 10.424,37.212 L10.424,231.301 C10.424,246.203 22.522,258.301 37.424,258.301 L193.569,258.301 C208.471,258.301 220.569,246.203 220.569,231.301 L220.569,37.212 L220.569,37.212 Z" id="Glace-Frame" fill="#343434"></path>
                    <rect id="Screen" fill="#343434" x="37.496" y="36.757" width="156" height="195"></rect>
                </g>
                <g id="Buttons" transform="translate(222.000000, 145.000000)" fill="#B1B1B1" sketch:type="MSShapeGroup">
                    <path d="M19,34.631 C19,35.35 18.531,43.515 13.746,45.722 L7.325,45.722 C5.167,44.668 0.425,41.032 0.322,23.54 L0.32,23.54 L0.32,22.372 L0.322,22.372 C0.425,4.88 5.167,1.244 7.325,0.19 L13.746,0.19 C18.531,2.397 19,10.562 19,11.281 L19,34.631 L19,34.631 Z" id="Crown"></path>
                    <path d="M10.828,146.125 C10.828,146.766 10.362,147.292 9.66,147.292 L7.909,147.292 C6.903,147.292 6.158,145.131 6.158,143.206 L6.158,83.081 C6.158,81.156 6.903,78.995 7.909,78.995 L9.66,78.995 C10.362,78.995 10.828,79.521 10.828,80.162 L10.828,146.125 L10.828,146.125 Z" id="Button"></path>
                </g>
            </g>
        </g>
    </g>
</svg>