<?xml version="1.0" encoding="UTF-8"?>
<svg width="1427px" height="2874px" viewBox="0 0 1427 2874" version="1.1" xmlns="http://www.w3.org/2000/svg" xmlns:xlink="http://www.w3.org/1999/xlink">
    <!-- Generator: Sketch 41.2 (35397) - http://www.bohemiancoding.com/sketch -->
    <title>iPhone 7 Plus Gold</title>
    <desc>Created with Sketch.</desc>
    <defs></defs>
    <g id="iPhone" stroke="none" stroke-width="1" fill="none" fill-rule="evenodd">
        <g id="iPhone-7-Plus" transform="translate(-6295.000000, -563.000000)">
            <g id="iPhone-7-Plus-Gold" transform="translate(6295.000000, 563.000000)">
                <g id="Frame" fill="#DCC6AA">
                    <path d="M643.446949,2870.93791 C640.374934,2872.33859 637.289586,2873.65699 634.012237,2873.65699 L214.41824,2873.65699 C86.735366,2873.65699 7.41992188,2787.21258 7.41992188,2666.66001 L7.41992188,981.127988 C7.41992188,977.44797 9.686866,971.367941 10.3119356,968.674595 C10.9399386,965.994583 12.0439439,961.98123 12.0439439,958.567881 L12.0439439,567.486019 C12.0439439,565.512677 11.3279405,559.485981 10.4928698,558.125975 C9.65699919,556.739302 7.41992188,549.525934 7.41992188,547.725925 L7.41992188,207.990975 C7.41992188,87.4304016 86.733366,0.989990234 214.41824,0.989990234 L1212.60699,0.989990234 C1340.29026,0.989990234 1419.59998,87.4304016 1419.59998,207.990975 L1419.59998,545.512582 C1419.59998,546.339252 1418.66664,547.179256 1418.11997,548.099261 C1417.5733,549.005932 1416.39996,551.112608 1416.39996,555.885964 L1416.39996,733.580143 C1416.39996,738.326832 1417.5733,740.446843 1418.11997,741.366847 C1418.66664,742.273518 1419.59998,743.126855 1419.59998,743.940193 L1419.59998,2666.66001 C1419.59998,2787.21232 1340.29026,2873.65659 1212.60699,2873.65699 L793.012994,2873.65699 C789.735645,2873.65699 786.65163,2872.33859 783.578282,2870.93791 L782.348943,2870.37605 C779.276928,2868.97551 776.19158,2867.65723 772.914231,2867.65697 L654.112333,2867.65697 C650.834984,2867.65697 647.749636,2868.97537 644.676288,2870.37605 L643.446949,2870.93791 Z" id="Shape"></path>
                    <g id="Buttons" transform="translate(0.000000, 341.000000)">
                        <path d="M1426.5,376.078 L1426.5,390.591 C1426.5,390.591 1426.607,392.185 1425.63,393.937 C1424.75,395.513 1422.576,397.224 1420.904,397.224 L1413.004,397.224 L1413.012,302.31 L1413.004,207.397 L1420.904,207.397 C1422.576,207.397 1424.75,209.108 1425.63,210.684 C1426.607,212.436 1426.5,214.03 1426.5,214.03 L1426.5,376.078 L1426.5,376.078 Z" id="Power"></path>
                        <path d="M4.107,625.719 C2.495,625.719 0.512,623.615 0.512,621.74 L0.512,445.627 C0.512,443.637 2.866,441.993 4.107,441.993 C5.346,441.993 14.007,441.994 14.007,441.994 L13.992,625.719 L4.107,625.719 L4.107,625.719 Z" id="Volume-Down"></path>
                        <path d="M4.107,398.125 C2.495,398.125 0.512,396.021 0.512,394.147 L0.512,218.033 C0.512,216.044 2.866,214.4 4.107,214.4 L14.007,214.4 L13.992,398.125 L4.107,398.125 L4.107,398.125 Z" id="Volume-Up"></path>
                        <path d="M3.922,98.125 C2.309,98.125 0.512,97.021 0.512,95.147 L0.512,3.033 C0.512,1.044 2.558,0.4 3.798,0.4 L9.007,0.4 L8.992,98.125 L3.922,98.125 L3.922,98.125 Z" id="Mute-Switch"></path>
                    </g>
                </g>
                <g id="Body" transform="translate(26.000000, 20.000000)">
                    <path d="M1323.99,52.936 C1290.549,18.667 1243.043,0.543 1186.602,0.543 L188.417,0.543 C131.981,0.543 84.474,18.667 51.03,52.936 C35.022,69.347 22.599,89.103 14.105,111.677 C5.388,134.838 0.97,160.506 0.97,187.99 L0.97,2646.65 C0.97,2674.134 5.388,2699.802 14.105,2722.962 C22.599,2745.537 35.022,2765.293 51.03,2781.704 C84.474,2815.973 131.981,2834.097 188.417,2834.097 L1186.602,2834.097 C1243.043,2834.097 1290.549,2815.973 1323.99,2781.704 C1339.998,2765.293 1352.418,2745.537 1360.916,2722.962 C1369.633,2699.802 1374.049,2674.134 1374.049,2646.65 L1374.049,187.99 C1374.049,160.506 1369.633,134.838 1360.916,111.677 C1352.418,89.103 1339.998,69.347 1323.99,52.936 L1323.99,52.936 Z" id="Front" fill="#F7F7F7"></path>
                    <path d="M687.507,2588.13 C734.989,2588.13 773.629,2626.769 773.629,2674.252 C773.629,2721.735 734.989,2760.374 687.507,2760.374 C640.024,2760.374 601.384,2721.735 601.384,2674.252 C601.384,2626.769 640.024,2588.13 687.507,2588.13 L687.507,2588.13 Z M687.507,2578.8 C634.791,2578.8 592.058,2621.533 592.058,2674.248 C592.058,2726.963 634.791,2769.697 687.507,2769.697 C740.222,2769.697 782.955,2726.963 782.955,2674.248 C782.955,2621.533 740.222,2578.8 687.507,2578.8 L687.507,2578.8 Z" id="Home-Button" fill="#DCC6AA"></path>
                    <g id="Screen" transform="translate(61.000000, 305.000000)">
                        <path d="M6.666,2220.01 L4.37,2219.553 L2.424,2218.252 L1.123,2216.306 L0.666,2214.01 L0.666,6.04 L1.123,3.744 C2.415,1.811 2.437,1.789 4.37,0.497 L6.666,0.04 L1248.646,0.04 L1250.942,0.497 C1251.591,0.931 1252.337,1.246 1252.889,1.798 C1254.409,3.318 1254.251,4.054 1254.646,6.04 L1254.646,2214.01 L1254.189,2216.306 L1252.889,2218.252 L1250.942,2219.553 L1248.646,2220.01 L6.666,2220.01 L6.666,2220.01 Z" id="Screen-Panel" fill="#3E3E3E"></path>
                        <rect id="Screen---Off" fill="#343434" x="6.666" y="6.038" width="1241.98" height="2207.97"></rect>
                    </g>
                    <g id="Top-Sensors" transform="translate(471.000000, 58.000000)" fill="#3E3E3E">
                        <path d="M317.705,98.366 C317.705,103.759 313.324,108.141 307.919,108.141 L131.994,108.141 C126.59,108.141 122.208,103.759 122.208,98.366 C122.208,92.972 126.59,88.591 131.994,88.591 L307.919,88.591 C313.324,88.591 317.705,92.972 317.705,98.366 L317.705,98.366 Z" id="Speaker"></path>
                        <path d="M44.0090586,98.85 C44.0090586,110.913 34.2230586,120.699 22.1600586,120.699 C10.0960586,120.699 0.310058594,110.913 0.310058594,98.85 C0.310058594,86.786 10.0960586,77 22.1600586,77 C34.2230586,77 44.0090586,86.786 44.0090586,98.85 L44.0090586,98.85 Z" id="Camera"></path>
                        <path d="M221.107,0.042 C228.731,0.042 234.906,6.218 234.906,13.842 C234.906,21.466 228.731,27.642 221.107,27.642 C213.482,27.642 207.307,21.466 207.307,13.842 C207.307,6.218 213.482,0.042 221.107,0.042 L221.107,0.042 Z" id="Light-Sensor"></path>
                    </g>
                </g>
            </g>
        </g>
    </g>
</svg>