<?xml version="1.0" standalone="no"?><!DOCTYPE svg PUBLIC "-//W3C//DTD SVG 1.1//EN" "http://www.w3.org/Graphics/SVG/1.1/DTD/svg11.dtd"><svg width="100%" height="100%" viewBox="0 0 866 1764" version="1.1" xmlns="http://www.w3.org/2000/svg" xmlns:xlink="http://www.w3.org/1999/xlink" xml:space="preserve" style="fill-rule:evenodd;clip-rule:evenodd;stroke-linejoin:round;stroke-miterlimit:1.41421;"><g id="iPhone 6 Silver"><g id="Frame"><path d="M859.995,508.181l0.505,1110.4c0,86.747 -49.31,144.495 -138.51,144.495c0,0 -234.269,0 -234.485,0c-3.802,0 -9.199,-3.021 -13,-3.021c-0.415,0 -83.584,0 -84,0c-3.801,0 -9.198,3.02 -13,3.021c-0.216,0 -182.763,0 -183,0c-7.466,0 -10.412,-4 -24.037,-4c-13.625,0 -21.002,4 -23.963,4c-0.098,0 -3.475,0 -3.475,0c-89.166,0 -138.469,-57.701 -138.509,-144.389c-0.335,-0.039 -0.505,-0.073 -0.505,-0.101l0,-945.93c0,-2.56 1.582,-6.81 2.019,-8.69c0.437,-1.87 1.207,-4.68 1.207,-7.06c0,-2.37 0,-270.09 0,-270.66c0,-1.37 -0.499,-6.79 -1.082,-7.75c-0.583,-0.95 -2.144,-7.2 -2.144,-8.45l0,-225.496c0,-86.747 49.307,-144.495 138.509,-144.495l578.96,0c89.2,0 138.51,57.748 138.51,144.495l0,227.176c0,0.57 -0.65,1.15 -1.02,1.77c-0.38,0.63 -1.19,2.09 -1.19,5.36l0,122.19c0,3.28 0.81,4.73 1.19,5.36c0.37,0.62 1.02,1.21 1.02,1.77Z" style="fill:#d5d2cf;"/><g id="Button"><path id="Power Button" d="M856.005,506.071l5.633,0c1.295,0 3.367,-1.07 3.367,-3.39l0,-124.22c0,-2.32 -2.072,-3.39 -3.367,-3.39l-5.633,0l0,131Z" style="fill:#d5d2cf;"/><path id="Volume Down" d="M9.005,536.071l-5.633,0c-1.295,0 -3.367,1.07 -3.367,3.39l0,124.22c0,2.32 2.072,3.39 3.367,3.39l5.633,0l0,-131Z" style="fill:#d5d2cf;"/><path id="Volume Up" d="M9.005,506.071l-5.633,0c-1.295,0 -3.367,-1.07 -3.367,-3.39l0,-124.22c0,-2.32 2.072,-3.39 3.367,-3.39l5.633,0l0,131Z" style="fill:#d5d2cf;"/><path id="Mute Switch" d="M6.018,224.738l0,70c0,0 -2.901,0 -3.896,0c-0.996,0 -2.107,-0.796 -2.107,-2.137c0,-1.34 0,-64.554 0,-65.978c0,-1.424 1.264,-1.885 2.03,-1.885c0.766,0 3.973,0 3.973,0Z" style="fill:#d5d2cf;"/></g></g><g id="Body"><path id="Front" d="M775.985,22.533c-15.94,-6.285 -34.28,-9.473 -54.51,-9.473l-578.94,0c-20.232,0 -38.572,3.188 -54.513,9.473c-15.123,5.964 -28.136,14.743 -38.677,26.093c-21.15,22.775 -32.329,55.946 -32.329,95.929l0,1475.03c0,39.99 11.179,73.16 32.329,95.93c10.541,11.36 23.554,20.13 38.677,26.1c15.941,6.28 34.281,9.47 54.513,9.47l578.94,0c20.23,0 38.57,-3.19 54.51,-9.47c15.13,-5.97 28.14,-14.74 38.68,-26.1c21.15,-22.77 32.33,-55.94 32.33,-95.93l0,-1475.03c0,-39.983 -11.18,-73.154 -32.33,-95.929c-10.54,-11.35 -23.55,-20.129 -38.68,-26.093Z" style="fill:#f7f7f7;"/><path id="Home Button" d="M431.505,1588.57c33.08,0 60,26.92 60,60c0,33.08 -26.92,60 -60,60c-33.08,0 -60,-26.92 -60,-60c0,-33.08 26.92,-60 60,-60M431.505,1582.07c-36.73,0 -66.5,29.77 -66.5,66.5c0,36.73 29.77,66.5 66.5,66.5c36.73,0 66.5,-29.77 66.5,-66.5c0,-36.73 -29.77,-66.5 -66.5,-66.5Z" style="fill:#d5d2cf;"/><g id="Screen"><path id="Screen Panel" d="M57.005,211.071l-1.531,0.304l-1.297,0.868l-0.868,1.297l-0.304,1.531l0,1334l0.304,1.531l0.868,1.297l1.297,0.868l1.531,0.304l750,0l1.531,-0.304l1.297,-0.868l0.868,-1.297l0.304,-1.531l0,-1334l-0.304,-1.531c-0.862,-1.289 -0.877,-1.303 -2.165,-2.165l-1.531,-0.304c-250,0 -500,0 -750,0Z" style="fill:#3e3e3e;"/><rect id="Screen - off" x="57.005" y="215.071" width="750" height="1334" style="fill:#000;"/></g><g id="Top Sensors"><path id="Light Sensor" d="M281.005,111.571c0,8.008 6.49,14.5 14.5,14.5c8.01,0 14.5,-6.492 14.5,-14.5c0,-8.008 -6.49,-14.5 -14.5,-14.5c-8.01,0 -14.5,6.492 -14.5,14.5Z" style="fill:#3e3e3e;"/><path id="Camera" d="M432.005,48.071c4.97,0 9,4.029 9,9c0,4.97 -4.03,9 -9,9c-4.97,0 -9,-4.03 -9,-9c0,-4.971 4.03,-9 9,-9Z" style="fill:#3e3e3e;"/><path id="Speaker" d="M362.995,111.071c0,4.421 3.63,8.004 8.11,8.004l122.8,0c4.48,0 8.11,-3.583 8.11,-8.004c0,-4.421 -3.63,-8.004 -8.11,-8.004l-122.8,0c-4.48,0 -8.11,3.583 -8.11,8.004Z" style="fill:#3e3e3e;"/></g></g></g></svg>