<?xml version="1.0" standalone="no"?><!DOCTYPE svg PUBLIC "-//W3C//DTD SVG 1.1//EN" "http://www.w3.org/Graphics/SVG/1.1/DTD/svg11.dtd"><svg width="100%" height="100%" viewBox="0 0 764 1603" version="1.1" xmlns="http://www.w3.org/2000/svg" xmlns:xlink="http://www.w3.org/1999/xlink" xml:space="preserve" style="fill-rule:evenodd;clip-rule:evenodd;stroke-linejoin:round;stroke-miterlimit:1.41421;"><g id="iPhone 5s Silver"><g id="Frame"><g id="Button"><path id="Power Button" d="M513.5,3.59l0,9l122,0l0,-9l-3.991,-3l-114,0l-4.009,3Z" style="fill:#d5d2cf;"/><path id="Volume Down Button" d="M3.5,512.59l-3,3l0,50l3,3l9,0l0,-56l-9,0Z" style="fill:#d5d2cf;"/><path id="Volume Up Button" d="M3.5,379.59l-3,3l0,50l3,3l9,0l0,-56l-9,0Z" style="fill:#d5d2cf;"/><path id="Mute Switch" d="M3.5,228.59l-3,3l0,67l3,3l9,0l0,-73l-9,0Z" style="fill:#d5d2cf;"/></g><path id="Frame1" d="M9.5,121.6c0,-29.92 11.67,-58.05 32.85,-79.21c21.18,-21.15 49.33,-32.8 79.28,-32.8l529.74,0c29.95,0 58.1,11.65 79.28,32.8c21.19,21.16 32.85,49.29 32.85,79.21l0,1368.98c0,29.922 -11.66,58.054 -32.85,79.211c-21.18,21.153 -49.33,32.803 -79.28,32.803l-529.74,0c-29.95,0 -58.1,-11.65 -79.28,-32.803c-21.18,-21.157 -32.85,-49.289 -32.85,-79.211l0,-1368.98Z" style="fill:#d5d2cf;"/></g><g id="Body"><path id="Front" d="M121.63,18.584l529.74,0c56.87,0 103.13,46.212 103.13,103.015l0,1367.97c0,56.8 -46.26,103.01 -103.13,103.01l-529.74,0c-56.86,0 -103.13,-46.21 -103.13,-103.01l0,-1367.97c0,-56.803 46.27,-103.015 103.13,-103.015Z" style="fill:#f7f7f7;"/><path id="Home Button" d="M386.058,1418.15c37.53,0 68,30.469 68,68c0,37.53 -30.47,68 -68,68c-37.53,0 -68,-30.47 -68,-68c0,-37.531 30.47,-68 68,-68ZM386.058,1426.25c33.06,0 59.901,26.841 59.901,59.901c0,33.06 -26.841,59.901 -59.901,59.901c-33.06,0 -59.901,-26.841 -59.901,-59.901c0,-33.06 26.841,-59.901 59.901,-59.901Z" style="fill:#d5d2cf;"/><g id="Screen"><path id="Screen Frame" d="M65.5,1381.59c-0.824,-0.131 -1.679,-0.134 -2.472,-0.392c-1.607,-0.522 -3.007,-1.539 -4,-2.906c-0.491,-0.675 -0.879,-1.437 -1.136,-2.23c-0.258,-0.794 -0.261,-1.648 -0.392,-2.472l0,-1136c0.131,-0.824 0.134,-1.679 0.392,-2.472c0.522,-1.607 1.539,-3.007 2.906,-4c0.675,-0.491 1.436,-0.879 2.23,-1.137c0.793,-0.258 1.648,-0.261 2.472,-0.391l640,0c0.824,0.13 1.679,0.133 2.472,0.391c1.607,0.522 3.007,1.54 4,2.906c0.491,0.675 0.879,1.437 1.136,2.231c0.258,0.793 0.261,1.648 0.392,2.472l0,1136c-0.131,0.824 -0.134,1.678 -0.392,2.472c-0.522,1.607 -1.539,3.007 -2.906,4c-0.675,0.49 -1.436,0.878 -2.23,1.136c-0.793,0.258 -1.648,0.261 -2.472,0.392c-213.333,0 -426.667,0 -640,0Z" style="fill:#3e3e3e;"/><rect id="Screen1" x="65.5" y="237.59" width="640" height="1136" style="fill:#000;"/></g><g id="Top Sensors"><path id="Speaker" d="M329.5,138.59l110,0c4.41,0 8,3.589 8,8c0,4.411 -3.59,8 -8,8l-110,0c-4.41,0 -8,-3.589 -8,-8c0,-4.411 3.59,-8 8,-8Z" style="fill:#3e3e3e;"/><path id="Light Sensor" d="M280.96,137.546c5.27,0 9.54,4.272 9.54,9.541c0,5.269 -4.27,9.541 -9.54,9.541c-5.27,0 -9.54,-4.272 -9.54,-9.541c0,-5.269 4.27,-9.541 9.54,-9.541Z" style="fill:#3e3e3e;"/><path id="Camera" d="M385.5,73.223c7.73,0 14,6.268 14,14c0,7.732 -6.27,14 -14,14c-7.73,0 -14,-6.268 -14,-14c0,-7.732 6.27,-14 14,-14Z" style="fill:#3e3e3e;"/></g></g></g></svg>