<?xml version="1.0" encoding="UTF-8" standalone="no"?>
<svg width="866px" height="1764px" viewBox="0 0 866 1764" version="1.1" xmlns="http://www.w3.org/2000/svg" xmlns:xlink="http://www.w3.org/1999/xlink" xmlns:sketch="http://www.bohemiancoding.com/sketch/ns">
    <!-- Generator: Sketch 3.3.3 (12072) - http://www.bohemiancoding.com/sketch -->
    <title>iPhone 6-6s Space Gray</title>
    <desc>Created with Sketch.</desc>
    <defs></defs>
    <g id="iPhone" stroke="none" stroke-width="1" fill="none" fill-rule="evenodd" sketch:type="MSPage">
        <g id="iPhone-6-6s" sketch:type="MSArtboardGroup" transform="translate(-567.000000, -118.000000)">
            <g id="iPhone-6-6s-Space-Gray" sketch:type="MSLayerGroup" transform="translate(567.000000, 118.000000)">
                <g id="Frame" fill="#545454" sketch:type="MSShapeGroup">
                    <path d="M859.995,508.18 L860.5,1618.58 C860.5,1705.327 811.19,1763.075 721.99,1763.075 L487.505,1763.075 C483.703,1763.075 478.306,1760.054 474.505,1760.054 L390.505,1760.054 C386.704,1760.054 381.307,1763.074 377.505,1763.075 C377.289,1763.076 194.742,1763.075 194.505,1763.075 C187.039,1763.075 184.093,1759.075 170.468,1759.075 C156.843,1759.075 149.466,1763.075 146.505,1763.075 L143.029,1763.075 C53.864,1763.075 4.561,1705.374 4.521,1618.686 C4.186,1618.647 4.016,1618.614 4.016,1618.585 L4.016,672.655 C4.016,670.095 5.598,665.845 6.035,663.965 C6.472,662.095 7.242,659.285 7.242,656.905 L7.242,386.245 C7.242,384.875 6.743,379.455 6.16,378.495 C5.577,377.545 4.016,371.295 4.016,370.045 L4.016,144.549 C4.016,57.802 53.323,0.054 142.525,0.054 L721.485,0.054 C810.685,0.054 859.995,57.802 859.995,144.549 L859.995,371.725 C859.995,372.295 859.345,372.875 858.975,373.495 C858.595,374.125 857.785,375.585 857.785,378.855 L857.785,501.045 C857.785,504.325 858.595,505.775 858.975,506.405 C859.345,507.025 859.995,507.615 859.995,508.175 L859.995,508.18 Z" id="Shape"></path>
                    <g id="Button" transform="translate(0.000000, 224.000000)">
                        <path d="M856.005,282.07 L861.638,282.07 C862.933,282.07 865.005,281 865.005,278.68 L865.005,154.46 C865.005,152.14 862.933,151.07 861.638,151.07 L856.005,151.07 L856.005,282.07 L856.005,282.07 Z" id="Power-Button"></path>
                        <path d="M9.005,312.07 L3.372,312.07 C2.077,312.07 0.005,313.14 0.005,315.46 L0.005,439.68 C0.005,442 2.077,443.07 3.372,443.07 L9.005,443.07 L9.005,312.07 L9.005,312.07 Z" id="Volume-Down"></path>
                        <path d="M9.005,282.07 L3.372,282.07 C2.077,282.07 0.005,281 0.005,278.68 L0.005,154.46 C0.005,152.14 2.077,151.07 3.372,151.07 L9.005,151.07 L9.005,282.07 L9.005,282.07 Z" id="Volume-Up"></path>
                        <path d="M6.018,0.737 L6.018,70.737 L2.122,70.737 C1.126,70.737 0.015,69.941 0.015,68.6 L0.015,2.622 C0.015,1.198 1.279,0.737 2.045,0.737 L6.018,0.737 L6.018,0.737 Z" id="Mute-Switch"></path>
                    </g>
                </g>
                <g id="Body" transform="translate(17.000000, 13.000000)" sketch:type="MSShapeGroup">
                    <path d="M758.985,9.532 C743.045,3.247 724.705,0.059 704.475,0.059 L125.535,0.059 C105.303,0.059 86.963,3.247 71.022,9.532 C55.899,15.496 42.886,24.275 32.345,35.625 C11.195,58.4 0.016,91.571 0.016,131.554 L0.016,1606.584 C0.016,1646.574 11.195,1679.744 32.345,1702.514 C42.886,1713.874 55.899,1722.644 71.022,1728.614 C86.963,1734.894 105.303,1738.084 125.535,1738.084 L704.475,1738.084 C724.705,1738.084 743.045,1734.894 758.985,1728.614 C774.115,1722.644 787.125,1713.874 797.665,1702.514 C818.815,1679.744 829.995,1646.574 829.995,1606.584 L829.995,131.554 C829.995,91.571 818.815,58.4 797.665,35.625 C787.125,24.275 774.115,15.496 758.985,9.532 L758.985,9.532 Z" id="Front" fill="#343434"></path>
                    <path d="M415,1574.64662 C448.826165,1574.64662 476.353383,1602.17383 476.353383,1636 C476.353383,1669.82617 448.826165,1697.35338 415,1697.35338 C381.173835,1697.35338 353.646617,1669.82617 353.646617,1636 C353.646617,1602.17383 381.173835,1574.64662 415,1574.64662 L415,1574.64662 Z M415,1568 C377.441504,1568 347,1598.4415 347,1636 C347,1673.5585 377.441504,1704 415,1704 C452.558496,1704 483,1673.5585 483,1636 C483,1598.4415 452.558496,1568 415,1568 L415,1568 Z" id="Home-Button" fill="#3E3E3E"></path>
                    <g id="Screen" transform="translate(36.000000, 198.000000)" fill="#343434">
                        <path d="M4.005,0.071 L2.474,0.375 L1.177,1.242 L0.309,2.54 L0.005,4.071 L0.005,1338.071 L0.309,1339.601 L1.177,1340.899 L2.474,1341.766 L4.005,1342.071 L754.005,1342.071 L755.536,1341.766 L756.833,1340.899 L757.701,1339.601 L758.005,1338.071 L758.005,4.071 L757.701,2.54 C756.839,1.251 756.824,1.236 755.536,0.375 L754.005,0.071 L4.005,0.071 L4.005,0.071 Z" id="Screen-Panel"></path>
                        <rect id="Screen---off" x="4.005" y="4.07" width="750" height="1334"></rect>
                    </g>
                    <g id="Top-Sensors" transform="translate(345.000000, 35.000000)" fill="#3E3E3E">
                        <path d="M70.005,0.07 C74.975,0.07 79.005,4.099 79.005,9.07 C79.005,14.04 74.975,18.07 70.005,18.07 C65.035,18.07 61.005,14.04 61.005,9.07 C61.005,4.099 65.035,0.07 70.005,0.07 L70.005,0.07 Z" id="Camera"></path>
                        <path d="M0.995,63.07 C0.995,67.491 4.625,71.074 9.105,71.074 L131.905,71.074 C136.385,71.074 140.015,67.491 140.015,63.07 C140.015,58.649 136.385,55.066 131.905,55.066 L9.105,55.066 C4.625,55.066 0.995,58.649 0.995,63.07 L0.995,63.07 Z" id="Speaker"></path>
                    </g>
                </g>
            </g>
        </g>
    </g>
</svg>