<svg xmlns="http://www.w3.org/2000/svg" width="982" height="1932" viewBox="0 0 982 1932">
  <g fill="none" fill-rule="evenodd" transform="translate(-1)">
    <g transform="translate(.435 .544)">
      <path fill="#00B2EB" d="M9.33538632.2980421L9.33538632 71.9407354 4.01874843 71.9407354C2.37872825 71.9407354.451023945 70.0035715.451023945 68.589508L.451023945 3.37705122C.451023945 1.8813223 2.63035987.2980421 3.89146108.2980421L9.33538632.2980421zM9.43397883 131.112081L9.43397883 266.903373 6.31212794 266.903373C4.67210775 266.903373.54888069 262.764184.54888069 261.356742L.54888069 136.393851C.54888069 134.898122 4.92447515 131.112081 6.18557636 131.112081L9.43397883 131.112081zM975.565529 175.378447L975.565529 390.397757 978.685172 390.397757C980.325928 390.397757 982.452289 386.265189 982.452289 384.851126L982.452289 180.652124C982.452289 179.15713 980.083126 175.378447 978.81761 175.378447L975.565529 175.378447zM9.43397883 298.872831L9.43397883 434.566271 6.31212794 434.566271C4.67210775 434.566271.54888069 430.463869.54888069 429.063784L.54888069 304.117079C.54888069 302.629443 4.92447515 298.872831 6.18557636 298.872831L9.43397883 298.872831z" transform="translate(.114 262.158)"/>
      <path fill="#00B2EB" d="M6,1713.095 L6,698.005 C6,698.005 9.259,697.895 9.294,687.015 C9.305,683.495 9.333,592.095 9.294,570.105 C9.275,559.169 6,559.117 6,559.117 L6,530.344 C6,530.344 9.274,530.278 9.294,519.355 C9.31,510.546 9.294,424.367 9.294,402.352 C9.294,391.407 6,391.362 6,391.362 L6,336.108 C6,336.108 8.197,335.055 8.196,332.808 L8.196,264.565 C8.18,262.37 6,261.265 6,261.265 L6,150.974 C6,67.65 73.649,0 156.974,0 L827.03,0 C910.35,0 978,67.65 978,150.974 L978,436.522 C978,436.522 975.81,436.85 975.8,446.414 C975.76,481.379 975.79,608.615 975.8,644.445 C975.81,653.715 978,653.845 978,653.845 L978,1780.025 C978,1863.355 910.35,1931.005 827.03,1931.005 L156.974,1931.005 C73.649,1931.005 6,1863.355 6,1780.025 L6,1713.095 Z"/>
      <path fill="#3E3E3E" d="M958.067304,148.296055 C958.067304,76.6496009 899.907056,18.4856187 828.261849,18.4856187 L155.874217,18.4856187 C84.2336374,18.4856187 26.0687615,76.6496009 26.0687615,148.296055 L26.0687615,1780.6921 C26.0687615,1852.32979 84.2336374,1910.49377 155.874217,1910.49377 L828.261849,1910.49377 C899.907056,1910.49377 958.067304,1852.32979 958.067304,1780.6921 L958.067304,148.296055 Z"/>
    </g>
    <g transform="translate(33.658 27.056)">
      <g fill="#343434" transform="translate(.843 .153)">
        <path d="M915.997893,124.705212 C915.997893,55.8813558 860.118738,0 791.295413,0 L124.702481,0 C55.8791553,0 -1.70530257e-13,55.8813558 -1.70530257e-13,124.705212 L-1.70530257e-13,1751.29683 C-1.70530257e-13,1820.12938 55.8791553,1876.00204 124.702481,1876.00204 L791.295413,1876.00204 C860.118738,1876.00204 915.997893,1820.12938 915.997893,1751.29683 L915.997893,124.705212 Z"/>
        <path d="M787.771365,1833.80908 C834.433793,1833.80908 871.999256,1796.02705 871.999256,1749.49099 L871.999256,126.138985 C871.999256,79.6029323 834.433793,41.8135067 787.771365,41.8135067 L702.435057,41.8135067 C695.355469,41.8135067 689.287145,46.8379025 689.222377,54.9887002 C689.202505,57.5192727 693.665612,110.808423 631.317542,110.977618 L457.999005,110.639228 L284.680469,110.977618 C222.332399,110.808423 226.795506,57.5192727 226.775634,54.9887002 C226.710866,46.8379025 220.642542,41.8135067 213.562954,41.8135067 L128.230326,41.8135067 C81.5627458,41.8135067 43.9987551,79.6029323 43.9987551,126.138985 L43.9987551,1749.49099 C43.9987551,1796.02705 81.5627458,1833.80908 128.230326,1833.80908 L787.771365,1833.80908 Z"/>
        <rect width="828" height="1792" transform="translate(44 42)"/>
        <path d="M791.295413,0 C860.118738,0 915.997893,55.8813558 915.997893,124.705212 L915.997893,124.705212 L915.997893,1751.29683 C915.997893,1820.12938 860.118738,1876.00204 791.295413,1876.00204 L791.295413,1876.00204 L124.702481,1876.00204 C55.8791553,1876.00204 7.38964445e-13,1820.12938 7.38964445e-13,1751.29683 L7.38964445e-13,1751.29683 L7.38964445e-13,124.705212 C7.38964445e-13,55.8813558 55.8791553,0 124.702481,0 L124.702481,0 Z M213.562954,41.8135067 L128.230326,41.8135067 C81.5627458,41.8135067 43.9987551,79.6029323 43.9987551,126.138985 L43.9987551,1749.49099 C43.9987551,1796.02705 81.5627458,1833.80908 128.230326,1833.80908 L787.771365,1833.80908 C834.433793,1833.80908 871.999256,1796.02705 871.999256,1749.49099 L871.999256,126.138985 C871.999256,79.6029323 834.433793,41.8135067 787.771365,41.8135067 L702.435057,41.8135067 C695.355469,41.8135067 689.287145,46.8379025 689.222377,54.9887002 C689.202505,57.5192727 693.665612,110.808423 631.317542,110.977618 L457.999005,110.639228 L284.680469,110.977618 C222.332399,110.808423 226.795506,57.5192727 226.775634,54.9887002 C226.710866,46.8379025 220.642542,41.8135067 213.562954,41.8135067 Z"/>
      </g>
      <path fill="#3E3E3E" d="M.221465265 15.2545222C.221465265 20.116193 3.23221564 22.9516771 6.94782889 22.9516771L108.798306 22.9516771C112.51392 22.9516771 115.52467 20.116193 115.52467 15.2545222 115.52467 10.3928514 112.51392 7.5573672 108.798306 7.5573672L6.94782889 7.5573672C3.23221564 7.5573672.221465265 10.3928514.221465265 15.2545222zM141.05498 15.2545221C141.05498 23.4453486 147.688637 30.0889453 155.876966 30.0889453 164.064559 30.0889453 170.698952 23.4453486 170.698952 15.2545221 170.698952 7.05633847 164.064559.412741725 155.876966.412741725 147.688637.412741725 141.05498 7.05633847 141.05498 15.2545221z" transform="translate(399.935 41.602)"/>
    </g>
  </g>
</svg>
