<svg xmlns="http://www.w3.org/2000/svg" width="1411" height="2840" viewBox="0 0 1411 2840">
  <g fill="none" fill-rule="evenodd" transform="translate(0 -1)">
    <g fill="#3E3E3E" transform="translate(.375 346.404)">
      <path d="M13.4339985.17999998L13.4339985 100.275989 6.2079993 100.275989C3.97899955 100.275989 0 97.6429891 0 95.7209893L0 4.36499951C0 2.33299974 4.32099952.17999998 6.03499932.17999998L13.4339985.17999998zM14.9269983 182.44098L14.9269983 375.163958 10.6839988 375.163958C8.45499905 375.163958 1.49199983 369.537959 1.49199983 367.624959L1.49199983 189.618979C1.49199983 187.586979 8.79799901 182.44098 10.5119988 182.44098L14.9269983 182.44098zM1396.81984 246.685972L1396.81984 548.454939 1401.05984 548.454939C1403.28984 548.454939 1410.24984 542.837939 1410.24984 540.915939L1410.24984 253.853972C1410.24984 251.820972 1402.94984 246.685972 1401.22984 246.685972L1396.81984 246.685972zM14.9269983 419.975953L14.9269983 611.206932 10.6839988 611.206932C8.45499905 611.206932 1.49199983 605.630932 1.49199983 603.728932L1.49199983 427.103952C1.49199983 425.081952 8.79799901 419.975953 10.5119988 419.975953L14.9269983 419.975953z"/>
    </g>
    <g transform="translate(8.984 .312)">
      <path fill="#3E3E3E" d="M1393.46553,589.784252 C1393.46553,589.784252 1390.48553,591.346251 1390.47553,603.23025 C1390.42553,650.755245 1390.45553,826.418225 1390.47553,875.12822 C1390.48553,894.378217 1393.46553,896.048217 1393.46553,896.048217 L1393.46553,2652.48802 C1393.46553,2756.12801 1309.32554,2840.268 1205.68555,2840.268 L188.196668,2840.268 C84.5556796,2840.268 0.412688996,2756.12801 0.412688996,2652.48802 L0.383688999,958.78821 C0.383688999,958.78821 4.96968849,958.64821 5.01768848,943.858212 C5.03268848,939.068212 5.07068847,809.398227 5.01768848,779.51823 C4.99068848,764.648232 0.383688999,764.578232 0.383688999,764.578232 L0.383688999,722.748237 C0.383688999,722.748237 4.99068848,722.658237 5.01768848,707.808238 C5.03868848,695.83824 5.01668848,571.904254 5.01768848,541.979257 C5.01768848,527.102259 0.383688999,527.042259 0.383688999,527.042259 L0.383688999,447.860267 C0.383688999,447.860267 3.52668865,446.429268 3.52468865,443.375268 L3.52468865,349.256278 C3.50368865,346.273279 0.383688999,344.771279 0.383688999,344.771279 L0.412688996,188.572296 C0.412688996,84.9313081 84.5556796,0.788317493 188.196668,0.788317493 L1205.68555,0.788317493 C1309.32554,0.788317493 1393.46553,84.9313081 1393.46553,188.572296 L1393.46553,589.784252 Z"/>
      <path fill="#191919" d="M1375.67629,185.932637 C1375.67629,93.5180276 1300.64913,18.4884345 1208.23404,18.4884345 L185.426907,18.4884345 C93.0118196,18.4884345 17.9846569,93.5180276 17.9846569,185.932637 L17.9846569,2655.19021 C17.9846569,2747.60028 93.0118196,2822.62988 185.426907,2822.62988 L1208.23404,2822.62988 C1300.64913,2822.62988 1375.67629,2747.60028 1375.67629,2655.19021 L1375.67629,185.932637 Z"/>
      <path fill="#000" d="M615.426179,2840.27165 C615.426179,2840.27165 626.065178,2831.61165 632.426177,2831.59165 C668.479173,2831.50165 668.474173,2831.50165 694.76417,2831.51165 C720.345167,2831.52165 720.382167,2831.54165 760.426163,2831.59165 C767.085162,2831.60165 778.426161,2840.27165 778.426161,2840.27165 L615.426179,2840.27165 Z" opacity=".25"/>
    </g>
    <g fill="#222" transform="translate(38.984 29.312)">
      <path d="M1333.20084,157.958298 C1333.20084,71.2154917 1262.77916,0.7954016 1176.04017,0.7954016 L157.775501,0.7954016 C71.0365087,0.7954016 0.6148256,71.2154917 0.6148256,157.958298 L0.6148256,2624.49107 C0.6148256,2711.23388 71.0365087,2781.65397 157.775501,2781.65397 L1176.04017,2781.65397 C1262.77916,2781.65397 1333.20084,2711.23388 1333.20084,2624.49107 L1333.20084,157.958298 Z"/>
      <path d="M1173.57322,2734.99574 C1236.96144,2734.99574 1288,2683.63575 1288,2620.37576 L1288,161.630031 C1288,98.3700379 1236.96144,47.0000437 1173.57322,47.0000437 L999.16214,47.0000437 C989.543411,46.9800437 981.298643,53.8300429 981.210645,64.9100417 C981.183646,68.3500413 987.247475,140.790033 902.537862,141.020033 L667.057498,140.560033 L431.577134,141.020033 C346.867521,140.790033 352.931351,68.3500413 352.904351,64.9100417 C352.816354,53.8300429 344.571586,46.9800437 334.952857,47.0000437 L160.441775,47.0000437 C97.0365618,47.0000437 46,98.3700379 46,161.630031 L46,2620.37576 C46,2683.63575 97.0365618,2734.99574 160.441775,2734.99574 L1173.57322,2734.99574 Z"/>
      <path d="M1333.20084,157.958298 L1333.20084,2624.49107 C1333.20084,2711.23388 1262.77916,2781.65397 1176.04017,2781.65397 L157.775501,2781.65397 C71.0365087,2781.65397 0.6148256,2711.23388 0.6148256,2624.49107 L0.6148256,157.958298 C0.6148256,71.2154917 71.0365087,0.7954016 157.775501,0.7954016 L1176.04017,0.7954016 C1262.77916,0.7954016 1333.20084,71.2154917 1333.20084,157.958298 Z M1173.57322,2734.99574 C1236.96144,2734.99574 1288,2683.63575 1288,2620.37576 L1288,161.630031 C1288,98.3700379 1236.96144,47.0000437 1173.57322,47.0000437 L999.16214,47.0000437 C989.543411,46.9800437 981.298643,53.8300429 981.210645,64.9100417 C981.183646,68.3500413 987.247475,140.790033 902.537862,141.020033 L667.057498,140.560033 L431.577134,141.020033 C346.867521,140.790033 352.931351,68.3500413 352.904351,64.9100417 C352.816354,53.8300429 344.571586,46.9800437 334.952857,47.0000437 L160.441775,47.0000437 C97.0365618,47.0000437 46,98.3700379 46,161.630031 L46,2620.37576 C46,2683.63575 97.0365618,2734.99574 160.441775,2734.99574 L1173.57322,2734.99574 Z"/>
    </g>
    <g fill="#3E3E3E" transform="translate(625.375 80.096)">
      <path d="M.223999975 20.7339977C.223999975 27.3419969 4.31599952 31.1959965 9.36599895 31.1959965L147.793983 31.1959965C152.843983 31.1959965 156.935982 27.3419969 156.935982 20.7339977 156.935982 14.1259984 152.843983 10.2719988 147.793983 10.2719988L9.36599895 10.2719988C4.31599952 10.2719988.223999975 14.1259984.223999975 20.7339977zM195.711978 20.7339977C195.711978 31.8669964 204.727977 40.8969954 215.856976 40.8969954 226.984975 40.8969954 236.001974 31.8669964 236.001974 20.7339977 236.001974 9.59099893 226.984975.560999937 215.856976.560999937 204.727977.560999937 195.711978 9.59099893 195.711978 20.7339977z"/>
    </g>
  </g>
</svg>
