<svg xmlns="http://www.w3.org/2000/svg" width="982" height="1932" viewBox="0 0 982 1932">
  <g fill="none" fill-rule="evenodd" transform="translate(-1)">
    <g transform="translate(.435 .544)">
      <g fill="#DCCE82" transform="translate(.114 262.158)">
        <path d="M9.33538632.2980421L9.33538632 71.9407354 4.01874843 71.9407354C2.37872825 71.9407354.451023945 70.0035715.451023945 68.589508L.451023945 3.37705122C.451023945 1.8813223 2.63035987.2980421 3.89146108.2980421L9.33538632.2980421zM9.43397883 131.112081L9.43397883 266.903373 6.31212794 266.903373C4.67210775 266.903373.54888069 262.764184.54888069 261.356742L.54888069 136.393851C.54888069 134.898122 4.92447515 131.112081 6.18557636 131.112081L9.43397883 131.112081zM975.565529 175.378447L975.565529 390.397757 978.685172 390.397757C980.325928 390.397757 982.452289 386.265189 982.452289 384.851126L982.452289 180.652124C982.452289 179.15713 980.083126 175.378447 978.81761 175.378447L975.565529 175.378447zM9.43397883 298.872831L9.43397883 434.566271 6.31212794 434.566271C4.67210775 434.566271.54888069 430.463869.54888069 429.063784L.54888069 304.117079C.54888069 302.629443 4.92447515 298.872831 6.18557636 298.872831L9.43397883 298.872831z"/>
      </g>
      <g transform="translate(6)">
        <path fill="#DCCE82" d="M0,1713.095 L0,698.005 C0,698.005 3.259,697.895 3.294,687.015 C3.305,683.495 3.333,592.095 3.294,570.105 C3.275,559.169 0,559.117 0,559.117 L0,530.344 C0,530.344 3.274,530.278 3.294,519.355 C3.31,510.546 3.294,424.367 3.294,402.352 C3.294,391.407 0,391.362 0,391.362 L0,336.108 C0,336.108 2.197,335.055 2.196,332.808 L2.196,264.565 C2.18,262.37 0,261.265 0,261.265 L0,150.974 C0,67.65 67.649,0.001 150.974,0 L821.03,0 C904.35,0.001 972,67.65 972,150.974 L972,436.522 C972,436.522 969.81,436.85 969.8,446.414 C969.76,481.379 969.79,608.615 969.8,644.445 C969.81,653.715 972,653.845 972,653.845 L972,1780.025 C972,1863.355 904.35,1931.005 821.03,1931.005 L150.974,1931.005 C67.649,1931.005 0,1863.355 0,1780.025 L0,1713.095 Z"/>
        <path fill="#333" d="M952.067304,148.296055 C952.067304,76.6496009 893.907056,18.4856187 822.261849,18.4856187 L149.874217,18.4856187 C78.2336374,18.4856187 20.0687615,76.6496009 20.0687615,148.296055 L20.0687615,1780.6921 C20.0687615,1852.32979 78.2336374,1910.49377 149.874217,1910.49377 L822.261849,1910.49377 C893.907056,1910.49377 952.067304,1852.32979 952.067304,1780.6921 L952.067304,148.296055 Z"/>
      </g>
    </g>
    <g fill="#222" transform="translate(33.658 27.056)">
      <path d="M916.840785,124.857766 C916.840785,56.0339093 860.96163,0.152553594 792.138304,0.152553594 L125.545372,0.152553594 C56.7220469,0.152553594 0.842891619,56.0339093 0.842891619,124.857766 L0.842891619,1751.44938 C0.842891619,1820.28193 56.7220469,1876.1546 125.545372,1876.1546 L792.138304,1876.1546 C860.96163,1876.1546 916.840785,1820.28193 916.840785,1751.44938 L916.840785,124.857766 Z"/>
      <path d="M788.614256,1833.96164 C835.276684,1833.96164 872.842147,1796.1796 872.842147,1749.64355 L872.842147,126.291539 C872.842147,79.7554859 835.276684,41.9660925 788.614256,41.9660925 L703.277949,41.9660925 C696.19836,41.9513798 690.130037,46.990456 690.065269,55.1412538 C690.045397,57.6718263 694.508503,110.960977 632.160434,111.130172 L458.841897,110.791781 L285.52336,111.130172 C223.175291,110.960977 227.638397,57.6718263 227.618525,55.1412538 C227.553757,46.990456 221.485433,41.9513798 214.405845,41.9660925 L129.073218,41.9660925 C82.4056374,41.9660925 44.8416467,79.7554859 44.8416467,126.291539 L44.8416467,1749.64355 C44.8416467,1796.1796 82.4056374,1833.96164 129.073218,1833.96164 L788.614256,1833.96164 Z"/>
      <path d="M916.840785,124.857766 L916.840785,1751.44938 C916.840785,1820.28193 860.96163,1876.1546 792.138304,1876.1546 L125.545372,1876.1546 C56.7220469,1876.1546 0.842891619,1820.28193 0.842891619,1751.44938 L0.842891619,124.857766 C0.842891619,56.0339093 56.7220469,0.152553594 125.545372,0.152553594 L792.138304,0.152553594 C860.96163,0.152553594 916.840785,56.0339093 916.840785,124.857766 Z M788.614256,1833.96164 C835.276684,1833.96164 872.842147,1796.1796 872.842147,1749.64355 L872.842147,126.291539 C872.842147,79.7554859 835.276684,41.9660925 788.614256,41.9660925 L703.277949,41.9660925 C696.19836,41.9513798 690.130037,46.990456 690.065269,55.1412538 C690.045397,57.6718263 694.508503,110.960977 632.160434,111.130172 L458.841897,110.791781 L285.52336,111.130172 C223.175291,110.960977 227.638397,57.6718263 227.618525,55.1412538 C227.553757,46.990456 221.485433,41.9513798 214.405845,41.9660925 L129.073218,41.9660925 C82.4056374,41.9660925 44.8416467,79.7554859 44.8416467,126.291539 L44.8416467,1749.64355 C44.8416467,1796.1796 82.4056374,1833.96164 129.073218,1833.96164 L788.614256,1833.96164 Z"/>
    </g>
    <g fill="#3E3E3E" transform="translate(433.593 68.658)">
      <path d="M.221465265 15.2545222C.221465265 20.116193 3.23221564 22.9516771 6.94782889 22.9516771L108.798306 22.9516771C112.51392 22.9516771 115.52467 20.116193 115.52467 15.2545222 115.52467 10.3928514 112.51392 7.5573672 108.798306 7.5573672L6.94782889 7.5573672C3.23221564 7.5573672.221465265 10.3928514.221465265 15.2545222zM141.05498 15.2545221C141.05498 23.4453486 147.688637 30.0889453 155.876966 30.0889453 164.064559 30.0889453 170.698952 23.4453486 170.698952 15.2545221 170.698952 7.05633847 164.064559.412741725 155.876966.412741725 147.688637.412741725 141.05498 7.05633847 141.05498 15.2545221z"/>
    </g>
  </g>
</svg>
