<svg xmlns="http://www.w3.org/2000/svg" width="866" height="1764" viewBox="0 0 866 1764">
  <g fill="none" fill-rule="evenodd">
    <g fill="#545454">
      <path d="M4.02001953,1618.57441 L4.02001953,672.653513 C4.02001953,670.093525 5.60201211,665.844212 6.03907672,663.964221 C6.47600801,662.093563 7.24600439,659.284243 7.24600439,656.904254 L7.24600439,386.248191 C7.24600439,384.874864 6.7470734,379.461556 6.16400947,378.50156 C5.58107887,377.541565 4.02001953,371.301594 4.02001953,370.048267 L4.02001953,144.555992 C4.02001953,57.809732 53.3268548,0.0500030518 142.528703,0.0500030518 L721.485986,0.0500030518 C810.685567,0.0500030518 859.994669,57.809732 859.994669,144.555992 L859.994669,371.728259 C859.994669,372.301589 859.345339,372.87492 858.974674,373.501584 C858.594676,374.128247 857.785346,375.581574 857.785346,378.861559 L857.785346,501.044985 C857.785346,504.32497 858.594676,505.774296 858.974674,506.40496 C859.345339,507.024957 859.994669,507.614288 859.994669,508.174285 L859.994669,508.179618 L860.5,1618.57441 C860.5,1705.3204 811.190898,1763.068 721.991317,1763.0684 L487.507084,1763.0684 C483.704435,1763.0684 478.30846,1760.04748 474.507145,1760.04748 L390.012875,1760.04748 C386.212893,1760.04748 380.815585,1763.0684 377.012936,1763.0684 L142.528703,1763.0684 C53.3297881,1763.0684 4.02001953,1705.32067 4.02001953,1618.57441 Z"/>
      <g transform="translate(0 224)">
        <path d="M856.005 282.07L861.638 282.07C862.933 282.07 865.005 281 865.005 278.68L865.005 154.46C865.005 152.14 862.933 151.07 861.638 151.07L856.005 151.07 856.005 282.07 856.005 282.07zM9.005 312.07L3.372 312.07C2.077 312.07.005 313.14.005 315.46L.005 439.68C.005 442 2.077 443.07 3.372 443.07L9.005 443.07 9.005 312.07 9.005 312.07zM9.005 282.07L3.372 282.07C2.077 282.07.005 281 .005 278.68L.005 154.46C.005 152.14 2.077 151.07 3.372 151.07L9.005 151.07 9.005 282.07 9.005 282.07zM6.018.737L6.018 70.737 2.122 70.737C1.126 70.737.015 69.941.015 68.6L.015 2.622C.015 1.198 1.279.737 2.045.737L6.018.737 6.018.737z"/>
      </g>
    </g>
    <g transform="translate(17 13)">
      <path fill="#343434" d="M758.985,9.532 C743.045,3.247 724.705,0.059 704.475,0.059 L125.535,0.059 C105.303,0.059 86.963,3.247 71.022,9.532 C55.899,15.496 42.886,24.275 32.345,35.625 C11.195,58.4 0.016,91.571 0.016,131.554 L0.016,1606.584 C0.016,1646.574 11.195,1679.744 32.345,1702.514 C42.886,1713.874 55.899,1722.644 71.022,1728.614 C86.963,1734.894 105.303,1738.084 125.535,1738.084 L704.475,1738.084 C724.705,1738.084 743.045,1734.894 758.985,1728.614 C774.115,1722.644 787.125,1713.874 797.665,1702.514 C818.815,1679.744 829.995,1646.574 829.995,1606.584 L829.995,131.554 C829.995,91.571 818.815,58.4 797.665,35.625 C787.125,24.275 774.115,15.496 758.985,9.532 L758.985,9.532 Z"/>
      <path fill="#3E3E3E" d="M415,1574.64662 C448.826165,1574.64662 476.353383,1602.17383 476.353383,1636 C476.353383,1669.82617 448.826165,1697.35338 415,1697.35338 C381.173835,1697.35338 353.646617,1669.82617 353.646617,1636 C353.646617,1602.17383 381.173835,1574.64662 415,1574.64662 L415,1574.64662 Z M415,1568 C377.441504,1568 347,1598.4415 347,1636 C347,1673.5585 377.441504,1704 415,1704 C452.558496,1704 483,1673.5585 483,1636 C483,1598.4415 452.558496,1568 415,1568 L415,1568 Z"/>
      <g fill="#343434" transform="translate(36 198)">
        <path d="M4.005,0.071 L2.474,0.375 L1.177,1.242 L0.309,2.54 L0.005,4.071 L0.005,1338.071 L0.309,1339.601 L1.177,1340.899 L2.474,1341.766 L4.005,1342.071 L754.005,1342.071 L755.536,1341.766 L756.833,1340.899 L757.701,1339.601 L758.005,1338.071 L758.005,4.071 L757.701,2.54 C756.839,1.251 756.824,1.236 755.536,0.375 L754.005,0.071 L4.005,0.071 L4.005,0.071 Z"/>
        <rect width="750" height="1334" x="4.005" y="4.07"/>
      </g>
      <g fill="#3E3E3E" transform="translate(264 84)">
        <path d="M0 14.5C0 22.508 6.49 29 14.5 29 22.51 29 29 22.508 29 14.5 29 6.492 22.51 0 14.5 0 6.49 0 0 6.492 0 14.5L0 14.5zM81.995 14.07C81.995 18.491 85.625 22.074 90.105 22.074L212.905 22.074C217.385 22.074 221.015 18.491 221.015 14.07 221.015 9.649 217.385 6.066 212.905 6.066L90.105 6.066C85.625 6.066 81.995 9.649 81.995 14.07L81.995 14.07z"/>
      </g>
    </g>
  </g>
</svg>
