<svg xmlns="http://www.w3.org/2000/svg" width="866" height="1764" viewBox="0 0 866 1764">
  <g fill="none" fill-rule="evenodd">
    <g fill="#545454">
      <path d="M4.02001953,1618.57441 L4.02001953,672.653513 C4.02001953,670.093525 5.60201211,665.844212 6.03907672,663.964221 C6.47600801,662.093563 7.24600439,659.284243 7.24600439,656.904254 L7.24600439,386.248191 C7.24600439,384.874864 6.7470734,379.461556 6.16400947,378.50156 C5.58107887,377.541565 4.02001953,371.301594 4.02001953,370.048267 L4.02001953,144.555992 C4.02001953,57.809732 53.3268548,0.0500030518 142.528703,0.0500030518 L721.485986,0.0500030518 C810.685567,0.0500030518 859.994669,57.809732 859.994669,144.555992 L859.994669,371.728259 C859.994669,372.301589 859.345339,372.87492 858.974674,373.501584 C858.594676,374.128247 857.785346,375.581574 857.785346,378.861559 L857.785346,501.044985 C857.785346,504.32497 858.594676,505.774296 858.974674,506.40496 C859.345339,507.024957 859.994669,507.614288 859.994669,508.174285 L859.994669,508.179618 L860.5,1618.57441 C860.5,1705.3204 811.190898,1763.068 721.991317,1763.0684 L487.507084,1763.0684 C483.704435,1763.0684 478.30846,1760.04748 474.507145,1760.04748 L390.012875,1760.04748 C386.212893,1760.04748 380.815585,1763.0684 377.012936,1763.0684 L142.528703,1763.0684 C53.3297881,1763.0684 4.02001953,1705.32067 4.02001953,1618.57441 Z"/>
      <path d="M856.005 282.07L861.638 282.07C862.933 282.07 865.005 281 865.005 278.68L865.005 154.46C865.005 152.14 862.933 151.07 861.638 151.07L856.005 151.07 856.005 282.07 856.005 282.07zM9.005 312.07L3.372 312.07C2.077 312.07.005 313.14.005 315.46L.005 439.68C.005 442 2.077 443.07 3.372 443.07L9.005 443.07 9.005 312.07 9.005 312.07zM9.005 282.07L3.372 282.07C2.077 282.07.005 281 .005 278.68L.005 154.46C.005 152.14 2.077 151.07 3.372 151.07L9.005 151.07 9.005 282.07 9.005 282.07zM6.018.737L6.018 70.737 2.122 70.737C1.126 70.737.015 69.941.015 68.6L.015 2.622C.015 1.198 1.279.737 2.045.737L6.018.737 6.018.737z" transform="translate(0 224)"/>
    </g>
    <g transform="translate(17 13)">
      <g fill="#343434">
        <g transform="translate(.016 .059)">
          <path d="M758.969,9.473 C743.029,3.188 724.689,-2.57571742e-13 704.459,-2.57571742e-13 L125.519,-2.57571742e-13 C105.287,-2.57571742e-13 86.947,3.188 71.006,9.473 C55.883,15.437 42.87,24.216 32.329,35.566 C11.179,58.341 -4.54747351e-13,91.512 -4.54747351e-13,131.495 L-4.54747351e-13,1606.525 C-4.54747351e-13,1646.515 11.179,1679.685 32.329,1702.455 C42.87,1713.815 55.883,1722.585 71.006,1728.555 C86.947,1734.835 105.287,1738.025 125.519,1738.025 L704.459,1738.025 C724.689,1738.025 743.029,1734.835 758.969,1728.555 C774.099,1722.585 787.109,1713.815 797.649,1702.455 C818.799,1679.685 829.979,1646.515 829.979,1606.525 L829.979,131.495 C829.979,91.512 818.799,58.341 797.649,35.566 C787.109,24.216 774.099,15.437 758.969,9.473 L758.969,9.473 Z"/>
          <path d="M39.989,198.012 L38.458,198.316 L37.161,199.183 L36.293,200.481 L35.989,202.012 L35.989,1536.012 L36.293,1537.542 L37.161,1538.84 L38.458,1539.707 L39.989,1540.012 L789.989,1540.012 L791.52,1539.707 L792.817,1538.84 L793.685,1537.542 L793.989,1536.012 L793.989,202.012 L793.685,200.481 C792.823,199.192 792.808,199.177 791.52,198.316 L789.989,198.012 L39.989,198.012 L39.989,198.012 Z"/>
        </g>
        <polygon points="0 0 750 0 750 1334 0 1334" transform="translate(40.005 202.07)"/>
      </g>
      <path fill="#545454" d="M415,1574.64662 C448.826165,1574.64662 476.353383,1602.17383 476.353383,1636 C476.353383,1669.82617 448.826165,1697.35338 415,1697.35338 C381.173835,1697.35338 353.646617,1669.82617 353.646617,1636 C353.646617,1602.17383 381.173835,1574.64662 415,1574.64662 L415,1574.64662 Z M415,1568 C377.441504,1568 347,1598.4415 347,1636 C347,1673.5585 377.441504,1704 415,1704 C452.558496,1704 483,1673.5585 483,1636 C483,1598.4415 452.558496,1568 415,1568 L415,1568 Z"/>
      <path fill="#3E3E3E" d="M0 14.5C0 22.508 6.49 29 14.5 29 22.51 29 29 22.508 29 14.5 29 6.492 22.51 0 14.5 0 6.49 0 0 6.492 0 14.5L0 14.5zM81.995 14.07C81.995 18.491 85.625 22.074 90.105 22.074L212.905 22.074C217.385 22.074 221.015 18.491 221.015 14.07 221.015 9.649 217.385 6.066 212.905 6.066L90.105 6.066C85.625 6.066 81.995 9.649 81.995 14.07L81.995 14.07z" transform="translate(264 84)"/>
    </g>
  </g>
</svg>
