<?xml version="1.0" encoding="UTF-8" standalone="no"?>
<svg width="1427px" height="2873px" viewBox="0 0 1427 2873" version="1.1" xmlns="http://www.w3.org/2000/svg" xmlns:xlink="http://www.w3.org/1999/xlink" xmlns:sketch="http://www.bohemiancoding.com/sketch/ns">
    <!-- Generator: Sketch 3.3.3 (12072) - http://www.bohemiancoding.com/sketch -->
    <title>iPhone 6-6s Plus Space Gray</title>
    <desc>Created with Sketch.</desc>
    <defs></defs>
    <g id="iPhone" stroke="none" stroke-width="1" fill="none" fill-rule="evenodd" sketch:type="MSPage">
        <g id="iPhone-6-6s-Plus" sketch:type="MSArtboardGroup" transform="translate(-287.000000, -396.000000)">
            <g id="iPhone-6-6s-Plus-Space-Gray" sketch:type="MSLayerGroup" transform="translate(287.000000, 396.000000)">
                <g id="Frame" fill="#3E3E3E" sketch:type="MSShapeGroup">
                    <path d="M1419.6,2665.66 C1419.6,2786.213 1340.286,2872.657 1212.603,2872.657 L793.011,2872.657 C786.019,2872.657 779.903,2866.657 772.911,2866.657 L652.311,2866.657 C645.319,2866.657 639.203,2872.657 632.211,2872.657 C627.076,2872.657 321.759,2872.687 316.888,2872.657 C303.658,2872.577 302.176,2863.689 265.711,2863.657 C229.247,2863.625 226.799,2872.657 214.418,2872.657 C86.735,2872.657 7.421,2786.213 7.421,2665.66 L7.421,980.13 C7.421,976.462 9.688,970.378 10.314,967.687 C10.942,965.008 12.046,960.983 12.046,957.579 L12.046,566.5 C12.046,564.522 11.329,558.499 10.494,557.13 C9.658,555.75 7.421,548.53 7.421,546.736 L7.421,206.997 C7.421,86.444 86.735,0 214.418,0 L1212.603,0 C1340.286,0 1419.6,86.444 1419.6,206.997 L1419.6,544.528 C1419.6,545.345 1418.657,546.196 1418.116,547.104 C1417.564,548.013 1416.391,550.129 1416.391,554.889 L1416.391,732.585 C1416.391,737.334 1417.564,739.462 1418.116,740.37 C1418.657,741.279 1419.6,742.13 1419.6,742.946 L1419.6,2665.656 L1419.6,2665.66 Z" id="Frame1"></path>
                    <g id="Buttons" transform="translate(0.000000, 340.000000)">
                        <path d="M1426.5,376.085 L1426.5,390.598 C1426.5,390.598 1426.607,392.191 1425.63,393.944 C1424.75,395.52 1422.576,397.231 1420.904,397.231 L1413.004,397.231 L1413.012,302.317 L1413.004,207.403 L1420.904,207.403 C1422.576,207.403 1424.75,209.114 1425.63,210.691 C1426.607,212.443 1426.5,214.037 1426.5,214.037 L1426.5,376.085 L1426.5,376.085 Z" id="Power"></path>
                        <path d="M4.107,625.726 C2.495,625.726 0.512,623.622 0.512,621.747 L0.512,445.633 C0.512,443.644 2.866,442 4.107,442 L14.007,442 L13.992,625.726 L4.107,625.726 L4.107,625.726 Z" id="Volume-Down"></path>
                        <path d="M4.107,398.132 C2.495,398.132 0.512,396.028 0.512,394.153 L0.512,218.04 C0.512,216.05 2.866,214.406 4.107,214.406 L14.007,214.406 L13.992,398.132 L4.107,398.132 L4.107,398.132 Z" id="Volume-Up"></path>
                        <path d="M3.922,98.132 C2.309,98.132 0.512,97.028 0.512,95.153 L0.512,3.04 C0.512,1.05 2.558,0.406 3.798,0.406 L9.007,0.406 L8.992,98.132 L3.922,98.132 L3.922,98.132 Z" id="Mute-Switch"></path>
                    </g>
                </g>
                <g id="Body" transform="translate(26.000000, 19.000000)" sketch:type="MSShapeGroup">
                    <path d="M1323.99,52.943 C1290.549,18.673 1243.043,0.55 1186.602,0.55 L188.417,0.55 C131.981,0.55 84.474,18.673 51.03,52.943 C35.022,69.353 22.599,89.11 14.105,111.684 C5.388,134.845 0.97,160.512 0.97,187.997 L0.97,2646.657 C0.97,2674.142 5.388,2699.809 14.105,2722.97 C22.599,2745.544 35.022,2765.301 51.03,2781.711 C84.474,2815.981 131.981,2834.104 188.417,2834.104 L1186.602,2834.104 C1243.043,2834.104 1290.549,2815.981 1323.99,2781.711 C1339.998,2765.301 1352.418,2745.544 1360.916,2722.97 C1369.633,2699.809 1374.049,2674.142 1374.049,2646.657 L1374.049,187.997 C1374.049,160.512 1369.633,134.845 1360.916,111.684 C1352.418,89.11 1339.998,69.353 1323.99,52.943 L1323.99,52.943 Z" id="Front" fill="#343434"></path>
                    <path d="M687.507,2588.14 C734.989,2588.14 773.629,2626.779 773.629,2674.262 C773.629,2721.745 734.989,2760.384 687.507,2760.384 C640.024,2760.384 601.384,2721.745 601.384,2674.262 C601.384,2626.779 640.024,2588.14 687.507,2588.14 L687.507,2588.14 Z M687.507,2578.81 C634.791,2578.81 592.058,2621.544 592.058,2674.259 C592.058,2726.974 634.791,2769.707 687.507,2769.707 C740.222,2769.707 782.955,2726.974 782.955,2674.259 C782.955,2621.544 740.222,2578.81 687.507,2578.81 L687.507,2578.81 Z" id="Home-Button" fill="#3E3E3E"></path>
                    <g id="Screen" transform="translate(61.000000, 305.000000)" fill="#343434">
                        <path d="M6.666,2220.01 L4.37,2219.554 L2.424,2218.253 L1.123,2216.306 L0.666,2214.01 L0.666,6.04 L1.123,3.744 C2.415,1.811 2.437,1.788 4.37,0.497 L6.666,0.04 L1248.646,0.04 L1250.942,0.497 C1251.591,0.93 1252.337,1.246 1252.889,1.797 C1254.409,3.318 1254.251,4.054 1254.646,6.04 L1254.646,2214.01 L1254.189,2216.306 L1252.889,2218.253 L1250.942,2219.554 L1248.646,2220.01 L6.666,2220.01 L6.666,2220.01 Z" id="Screen-Panel"></path>
                        <rect id="Screen---Off" x="6.666" y="6.045" width="1241.98" height="2207.97"></rect>
                    </g>
                    <g id="Top-Sensors" transform="translate(471.000000, 132.000000)" fill="#3E3E3E">
                        <path d="M317.705,24.372 C317.705,29.766 313.324,34.147 307.919,34.147 L131.994,34.147 C126.59,34.147 122.208,29.766 122.208,24.372 C122.208,18.979 126.59,14.597 131.994,14.597 L307.919,14.597 C313.324,14.597 317.705,18.979 317.705,24.372 L317.705,24.372 Z" id="Speaker"></path>
                        <path d="M44.009,22.647 C44.009,34.711 34.223,44.497 22.16,44.497 C10.096,44.497 0.31,34.711 0.31,22.647 C0.31,10.584 10.096,0.798 22.16,0.798 C34.223,0.798 44.009,10.584 44.009,22.647 L44.009,22.647 Z" id="Camera"></path>
                    </g>
                </g>
            </g>
        </g>
    </g>
</svg>