<?xml version="1.0" encoding="UTF-8" standalone="no"?>
<svg width="866px" height="1764px" viewBox="0 0 866 1764" version="1.1" xmlns="http://www.w3.org/2000/svg" xmlns:xlink="http://www.w3.org/1999/xlink" xmlns:sketch="http://www.bohemiancoding.com/sketch/ns">
    <!-- Generator: Sketch 3.3.3 (12072) - http://www.bohemiancoding.com/sketch -->
    <title>iPhone 6-6s Silver</title>
    <desc>Created with Sketch.</desc>
    <defs></defs>
    <g id="iPhone" stroke="none" stroke-width="1" fill="none" fill-rule="evenodd" sketch:type="MSPage">
        <g id="iPhone-6-6s" sketch:type="MSArtboardGroup" transform="translate(-2567.000000, -118.000000)">
            <g id="iPhone-6-6s-Silver" sketch:type="MSLayerGroup" transform="translate(2567.000000, 118.000000)">
                <g id="Frame" fill="#D5D2CF" sketch:type="MSShapeGroup">
                    <path d="M859.995,508.181 L860.5,1618.581 C860.5,1705.328 811.19,1763.076 721.99,1763.076 L487.505,1763.076 C483.703,1763.076 478.306,1760.055 474.505,1760.055 L390.505,1760.055 C386.704,1760.055 381.307,1763.075 377.505,1763.076 L194.505,1763.076 C187.039,1763.076 184.093,1759.076 170.468,1759.076 C156.843,1759.076 149.466,1763.076 146.505,1763.076 L143.03,1763.076 C53.864,1763.076 4.561,1705.375 4.521,1618.687 C4.186,1618.648 4.016,1618.614 4.016,1618.586 L4.016,672.656 C4.016,670.096 5.598,665.846 6.035,663.966 C6.472,662.096 7.242,659.286 7.242,656.906 L7.242,386.246 C7.242,384.876 6.743,379.456 6.16,378.496 C5.577,377.546 4.016,371.296 4.016,370.046 L4.016,144.55 C4.016,57.803 53.323,0.055 142.525,0.055 L721.485,0.055 C810.685,0.055 859.995,57.803 859.995,144.55 L859.995,371.726 C859.995,372.296 859.345,372.876 858.975,373.496 C858.595,374.126 857.785,375.586 857.785,378.856 L857.785,501.046 C857.785,504.326 858.595,505.776 858.975,506.406 C859.345,507.026 859.995,507.616 859.995,508.176 L859.995,508.181 Z" id="Shape"></path>
                    <g id="Button" transform="translate(0.000000, 224.000000)">
                        <path d="M856.005,282.071 L861.638,282.071 C862.933,282.071 865.005,281.001 865.005,278.681 L865.005,154.461 C865.005,152.141 862.933,151.071 861.638,151.071 L856.005,151.071 L856.005,282.071 L856.005,282.071 Z" id="Power-Button"></path>
                        <path d="M9.005,312.071 L3.372,312.071 C2.077,312.071 0.005,313.141 0.005,315.461 L0.005,439.681 C0.005,442.001 2.077,443.071 3.372,443.071 L9.005,443.071 L9.005,312.071 L9.005,312.071 Z" id="Volume-Down"></path>
                        <path d="M9.005,282.071 L3.372,282.071 C2.077,282.071 0.005,281.001 0.005,278.681 L0.005,154.461 C0.005,152.141 2.077,151.071 3.372,151.071 L9.005,151.071 L9.005,282.071 L9.005,282.071 Z" id="Volume-Up"></path>
                        <path d="M6.018,0.738 L6.018,70.738 L2.122,70.738 C1.126,70.738 0.015,69.942 0.015,68.601 L0.015,2.623 C0.015,1.199 1.279,0.738 2.045,0.738 L6.018,0.738 L6.018,0.738 Z" id="Mute-Switch"></path>
                    </g>
                </g>
                <g id="Body" transform="translate(17.000000, 13.000000)" sketch:type="MSShapeGroup">
                    <path d="M758.985,9.533 C743.045,3.248 724.705,0.06 704.475,0.06 L125.535,0.06 C105.303,0.06 86.963,3.248 71.022,9.533 C55.899,15.497 42.886,24.276 32.345,35.626 C11.195,58.401 0.016,91.572 0.016,131.555 L0.016,1606.585 C0.016,1646.575 11.195,1679.745 32.345,1702.515 C42.886,1713.875 55.899,1722.645 71.022,1728.615 C86.963,1734.895 105.303,1738.085 125.535,1738.085 L704.475,1738.085 C724.705,1738.085 743.045,1734.895 758.985,1728.615 C774.115,1722.645 787.125,1713.875 797.665,1702.515 C818.815,1679.745 829.995,1646.575 829.995,1606.585 L829.995,131.555 C829.995,91.572 818.815,58.401 797.665,35.626 C787.125,24.276 774.115,15.497 758.985,9.533 L758.985,9.533 Z" id="Front" fill="#F7F7F7"></path>
                    <path d="M415,1574.64662 C448.826165,1574.64662 476.353383,1602.17383 476.353383,1636 C476.353383,1669.82617 448.826165,1697.35338 415,1697.35338 C381.173835,1697.35338 353.646617,1669.82617 353.646617,1636 C353.646617,1602.17383 381.173835,1574.64662 415,1574.64662 L415,1574.64662 Z M415,1568 C377.441504,1568 347,1598.4415 347,1636 C347,1673.5585 377.441504,1704 415,1704 C452.558496,1704 483,1673.5585 483,1636 C483,1598.4415 452.558496,1568 415,1568 L415,1568 Z" id="Home-Button" fill="#D5D2CF"></path>
                    <g id="Screen" transform="translate(36.000000, 198.000000)">
                        <path d="M4.005,0.071 L2.474,0.375 L1.177,1.243 L0.309,2.54 L0.005,4.071 L0.005,1338.071 L0.309,1339.602 L1.177,1340.899 L2.474,1341.767 L4.005,1342.071 L754.005,1342.071 L755.536,1341.767 L756.833,1340.899 L757.701,1339.602 L758.005,1338.071 L758.005,4.071 L757.701,2.54 C756.839,1.251 756.824,1.237 755.536,0.375 L754.005,0.071 L4.005,0.071 L4.005,0.071 Z" id="Screen-Panel" fill="#3E3E3E"></path>
                        <rect id="Screen---off" fill="#343434" x="4.005" y="4.071" width="750" height="1334"></rect>
                    </g>
                    <g id="Top-Sensors" transform="translate(264.000000, 35.000000)" fill="#3E3E3E">
                        <path d="M0.005,63.571 C0.005,71.579 6.495,78.071 14.505,78.071 C22.515,78.071 29.005,71.579 29.005,63.571 C29.005,55.563 22.515,49.071 14.505,49.071 C6.495,49.071 0.005,55.563 0.005,63.571 L0.005,63.571 Z" id="Light-Sensor"></path>
                        <path d="M151.005,0.071 C155.975,0.071 160.005,4.1 160.005,9.071 C160.005,14.041 155.975,18.071 151.005,18.071 C146.035,18.071 142.005,14.041 142.005,9.071 C142.005,4.1 146.035,0.071 151.005,0.071 L151.005,0.071 Z" id="Camera"></path>
                        <path d="M81.995,63.071 C81.995,67.492 85.625,71.075 90.105,71.075 L212.905,71.075 C217.385,71.075 221.015,67.492 221.015,63.071 C221.015,58.65 217.385,55.067 212.905,55.067 L90.105,55.067 C85.625,55.067 81.995,58.65 81.995,63.071 L81.995,63.071 Z" id="Speaker"></path>
                    </g>
                </g>
            </g>
        </g>
    </g>
</svg>