<?xml version="1.0" standalone="no"?><!DOCTYPE svg PUBLIC "-//W3C//DTD SVG 1.1//EN" "http://www.w3.org/Graphics/SVG/1.1/DTD/svg11.dtd"><svg width="100%" height="100%" viewBox="0 0 764 1603" version="1.1" xmlns="http://www.w3.org/2000/svg" xmlns:xlink="http://www.w3.org/1999/xlink" xml:space="preserve" style="fill-rule:evenodd;clip-rule:evenodd;stroke-linejoin:round;stroke-miterlimit:1.41421;"><g id="iPhone 5 Black"><g id="Frame"><g id="Button"><path id="Power Button" d="M513.505,3.59l0,9l122,0l0,-9l-3.991,-3l-114,0l-4.009,3Z" style="fill:#343438;"/><path id="Volume Down Button" d="M3.505,512.59l-3,3l0,50l3,3l9,0l0,-56l-9,0Z" style="fill:#343438;"/><path id="Volume Up Button" d="M3.505,379.59l-3,3l0,50l3,3l9,0l0,-56l-9,0Z" style="fill:#343438;"/><path id="Mute Switch" d="M3.505,228.59l-3,3l0,67l3,3l9,0l0,-73l-9,0Z" style="fill:#343438;"/></g><path id="Frame1" d="M9.505,121.6c0,-29.92 11.67,-58.05 32.85,-79.21c21.18,-21.15 49.33,-32.8 79.28,-32.8l529.74,0c29.95,0 58.1,11.65 79.28,32.8c21.19,21.16 32.85,49.29 32.85,79.21l0,1368.98c0,29.922 -11.66,58.054 -32.85,79.211c-21.18,21.153 -49.33,32.803 -79.28,32.803l-529.74,0c-29.95,0 -58.1,-11.65 -79.28,-32.803c-21.18,-21.157 -32.85,-49.289 -32.85,-79.211l0,-1368.98Z" style="fill:#343438;"/></g><g id="Body"><path id="Front" d="M121.635,18.584l529.74,0c56.87,0 103.13,46.212 103.13,103.015l0,1367.97c0,56.8 -46.26,103.01 -103.13,103.01l-529.74,0c-56.86,0 -103.13,-46.21 -103.13,-103.01l0,-1367.97c0,-56.803 46.27,-103.015 103.13,-103.015Z" style="fill:#141414;"/><g id="Home Button"><path id="Home Button Circle" d="M386.063,1418.15c37.53,0 68,30.469 68,68c0,37.53 -30.47,68 -68,68c-37.53,0 -68,-30.47 -68,-68c0,-37.531 30.47,-68 68,-68ZM386.063,1423.22c34.731,0 62.929,28.197 62.929,62.929c0,34.731 -28.198,62.928 -62.929,62.928c-34.731,0 -62.929,-28.197 -62.929,-62.928c0,-34.732 28.198,-62.929 62.929,-62.929Z" style="fill:#1d1d1d;"/><path id="Rounded Rectangle Symbol" d="M369.879,1510.65c-0.319,-0.002 -0.637,-0.018 -0.955,-0.055c-0.615,-0.07 -1.223,-0.21 -1.807,-0.416c-1.138,-0.401 -2.183,-1.053 -3.046,-1.896c-0.887,-0.866 -1.577,-1.928 -2.003,-3.091c-0.213,-0.581 -0.36,-1.186 -0.438,-1.8c-0.04,-0.315 -0.06,-0.633 -0.066,-0.951c-0.069,-10.861 -0.069,-21.722 0,-32.583c0.006,-0.318 0.026,-0.635 0.066,-0.951c0.078,-0.614 0.225,-1.219 0.438,-1.8c0.426,-1.163 1.116,-2.225 2.003,-3.091c0.863,-0.842 1.908,-1.495 3.046,-1.896c0.584,-0.206 1.192,-0.346 1.807,-0.416c0.282,-0.032 0.564,-0.048 0.847,-0.054c10.861,-0.068 21.723,-0.068 32.584,0c0.318,0.006 0.635,0.026 0.951,0.067c0.613,0.078 1.218,0.225 1.799,0.438c1.164,0.426 2.226,1.116 3.091,2.002c0.843,0.864 1.495,1.908 1.896,3.046c0.206,0.585 0.346,1.192 0.417,1.808c0.032,0.282 0.048,0.564 0.053,0.847c0.069,10.861 0.069,21.722 0,32.583c-0.006,0.318 -0.026,0.636 -0.066,0.951c-0.078,0.614 -0.225,1.219 -0.438,1.8c-0.426,1.163 -1.116,2.225 -2.003,3.091c-0.863,0.843 -1.908,1.495 -3.046,1.896c-0.584,0.206 -1.192,0.346 -1.808,0.416c-0.281,0.033 -0.563,0.049 -0.846,0.054c-10.825,0.069 -21.651,0.001 -32.476,0.001ZM369.898,1505.15c10.821,0 21.646,0.339 32.461,-0.003c0.084,-0.003 0.168,-0.01 0.252,-0.02c0.285,-0.038 0.561,-0.117 0.822,-0.238c0.67,-0.313 1.206,-0.895 1.461,-1.59c0.109,-0.297 0.163,-0.611 0.169,-0.927c0.069,-10.84 0.344,-21.685 -0.002,-32.518c-0.013,-0.292 -0.067,-0.58 -0.167,-0.854c-0.284,-0.774 -0.912,-1.398 -1.685,-1.682c-0.295,-0.109 -0.607,-0.162 -0.921,-0.168c-10.84,-0.062 -21.687,-0.355 -32.521,0.002c-0.29,0.012 -0.578,0.065 -0.85,0.166c-0.762,0.28 -1.384,0.891 -1.673,1.65c-0.117,0.307 -0.174,0.632 -0.181,0.96c-0.065,10.839 -0.34,21.685 0.002,32.519c0.014,0.314 0.076,0.623 0.191,0.916c0.272,0.689 0.822,1.257 1.501,1.555c0.274,0.12 0.566,0.192 0.864,0.22c0.092,0.008 0.184,0.011 0.277,0.012Z" style="fill:#d5d2cf;fill-rule:nonzero;"/></g><g id="Screen"><path id="Screen Frame" d="M65.505,1381.59c-0.824,-0.131 -1.679,-0.134 -2.472,-0.392c-1.607,-0.522 -3.007,-1.539 -4,-2.906c-0.491,-0.675 -0.879,-1.437 -1.136,-2.23c-0.258,-0.794 -0.261,-1.648 -0.392,-2.472l0,-1136c0.131,-0.824 0.134,-1.679 0.392,-2.472c0.522,-1.607 1.539,-3.007 2.906,-4c0.675,-0.491 1.436,-0.879 2.23,-1.137c0.793,-0.258 1.648,-0.261 2.472,-0.391l640,0c0.824,0.13 1.679,0.133 2.472,0.391c1.607,0.522 3.007,1.54 4,2.906c0.491,0.675 0.879,1.437 1.136,2.231c0.258,0.793 0.261,1.648 0.392,2.472l0,1136c-0.131,0.824 -0.134,1.678 -0.392,2.472c-0.522,1.607 -1.539,3.007 -2.906,4c-0.675,0.49 -1.436,0.878 -2.23,1.136c-0.793,0.258 -1.648,0.261 -2.472,0.392c-213.333,0 -426.667,0 -640,0Z" style="fill:#141414;"/><rect id="Screen1" x="65.505" y="237.59" width="640" height="1136" style="fill:#141414;"/></g><g id="Top Sensors"><path id="Speaker" d="M329.505,138.59l110,0c4.41,0 8,3.589 8,8c0,4.411 -3.59,8 -8,8l-110,0c-4.41,0 -8,-3.589 -8,-8c0,-4.411 3.59,-8 8,-8Z" style="fill:#1d1d1d;"/><path id="Camera" d="M385.505,73.223c7.73,0 14,6.268 14,14c0,7.732 -6.27,14 -14,14c-7.73,0 -14,-6.268 -14,-14c0,-7.732 6.27,-14 14,-14Z" style="fill:#1d1d1d;"/></g></g></g></svg>