<?xml version="1.0" encoding="UTF-8" standalone="no"?>
<svg width="764px" height="1603px" viewBox="0 0 764 1603" version="1.1" xmlns="http://www.w3.org/2000/svg" xmlns:xlink="http://www.w3.org/1999/xlink" xmlns:sketch="http://www.bohemiancoding.com/sketch/ns">
    <!-- Generator: Sketch 3.3.3 (12072) - http://www.bohemiancoding.com/sketch -->
    <title>iPhone 5s Space Gray</title>
    <desc>Created with Sketch.</desc>
    <defs></defs>
    <g id="iPhone" stroke="none" stroke-width="1" fill="none" fill-rule="evenodd" sketch:type="MSPage">
        <g id="iPhone-5s" sketch:type="MSArtboardGroup" transform="translate(-618.000000, -199.000000)">
            <g id="iPhone-5s-Space-Gray" sketch:type="MSLayerGroup" transform="translate(618.000000, 199.000000)">
                <g id="Frame" fill="#535353" sketch:type="MSShapeGroup">
                    <g id="Button">
                        <path d="M513.5,3.59 L513.5,12.59 L635.5,12.59 L635.5,3.59 L631.509,0.59 L517.509,0.59 L513.5,3.59 L513.5,3.59 Z" id="Power-Button"></path>
                        <path d="M3.5,512.59 L0.5,515.59 L0.5,565.59 L3.5,568.59 L12.5,568.59 L12.5,512.59 L3.5,512.59 L3.5,512.59 Z" id="Volume-Down-Button"></path>
                        <path d="M3.5,379.59 L0.5,382.59 L0.5,432.59 L3.5,435.59 L12.5,435.59 L12.5,379.59 L3.5,379.59 L3.5,379.59 Z" id="Volume-Up-Button"></path>
                        <path d="M3.5,228.59 L0.5,231.59 L0.5,298.59 L3.5,301.59 L12.5,301.59 L12.5,228.59 L3.5,228.59 L3.5,228.59 Z" id="Mute-Switch"></path>
                    </g>
                    <path d="M9.5,121.6 C9.5,91.68 21.17,63.55 42.35,42.39 C63.53,21.24 91.68,9.59 121.63,9.59 L651.37,9.59 C681.32,9.59 709.47,21.24 730.65,42.39 C751.84,63.55 763.5,91.68 763.5,121.6 L763.5,1490.58 C763.5,1520.502 751.84,1548.634 730.65,1569.791 C709.47,1590.944 681.32,1602.594 651.37,1602.594 L121.63,1602.594 C91.68,1602.594 63.53,1590.944 42.35,1569.791 C21.17,1548.634 9.5,1520.502 9.5,1490.58 L9.5,121.6 L9.5,121.6 Z" id="Frame1"></path>
                </g>
                <g id="Body" transform="translate(18.000000, 18.000000)" sketch:type="MSShapeGroup">
                    <path d="M103.63,0.584 L633.37,0.584 C690.24,0.584 736.5,46.796 736.5,103.599 L736.5,1471.569 C736.5,1528.369 690.24,1574.579 633.37,1574.579 L103.63,1574.579 C46.77,1574.579 0.5,1528.369 0.5,1471.569 L0.5,103.599 C0.5,46.796 46.77,0.584 103.63,0.584 L103.63,0.584 Z" id="Front" fill="#343434"></path>
                    <path d="M368.058,1400.15 C405.588,1400.15 436.058,1430.619 436.058,1468.15 C436.058,1505.68 405.588,1536.15 368.058,1536.15 C330.528,1536.15 300.058,1505.68 300.058,1468.15 C300.058,1430.619 330.528,1400.15 368.058,1400.15 L368.058,1400.15 Z M368.058,1408.25 C401.118,1408.25 427.959,1435.091 427.959,1468.151 C427.959,1501.211 401.118,1528.052 368.058,1528.052 C334.998,1528.052 308.157,1501.211 308.157,1468.151 C308.157,1435.091 334.998,1408.25 368.058,1408.25 L368.058,1408.25 Z" id="Home-Button" fill="#535353"></path>
                    <g id="Screen" transform="translate(39.000000, 211.000000)" fill="#343434">
                        <path d="M8.5,1152.59 C7.676,1152.459 6.821,1152.456 6.028,1152.198 C4.421,1151.676 3.021,1150.659 2.028,1149.292 C1.537,1148.617 1.149,1147.855 0.892,1147.062 C0.634,1146.268 0.631,1145.414 0.5,1144.59 L0.5,8.59 C0.631,7.766 0.634,6.911 0.892,6.118 C1.414,4.511 2.431,3.111 3.798,2.118 C4.473,1.627 5.234,1.239 6.028,0.981 C6.821,0.723 7.676,0.72 8.5,0.59 L648.5,0.59 C649.324,0.72 650.179,0.723 650.972,0.981 C652.579,1.503 653.979,2.521 654.972,3.887 C655.463,4.562 655.851,5.324 656.108,6.118 C656.366,6.911 656.369,7.766 656.5,8.59 L656.5,1144.59 C656.369,1145.414 656.366,1146.268 656.108,1147.062 C655.586,1148.669 654.569,1150.069 653.202,1151.062 C652.527,1151.552 651.766,1151.94 650.972,1152.198 C650.179,1152.456 649.324,1152.459 648.5,1152.59 L8.5,1152.59 L8.5,1152.59 Z" id="Screen-Frame"></path>
                        <rect x="8.5" y="8.59" width="640" height="1136"></rect>
                    </g>
                    <g id="Top-Sensors" transform="translate(303.000000, 55.000000)" fill="#3E3E3E">
                        <path d="M8.5,65.59 L118.5,65.59 C122.91,65.59 126.5,69.179 126.5,73.59 C126.5,78.001 122.91,81.59 118.5,81.59 L8.5,81.59 C4.09,81.59 0.5,78.001 0.5,73.59 C0.5,69.179 4.09,65.59 8.5,65.59 L8.5,65.59 Z" id="Speaker"></path>
                        <path d="M64.5,0.223 C72.23,0.223 78.5,6.491 78.5,14.223 C78.5,21.955 72.23,28.223 64.5,28.223 C56.77,28.223 50.5,21.955 50.5,14.223 C50.5,6.491 56.77,0.223 64.5,0.223 L64.5,0.223 Z" id="Camera"></path>
                    </g>
                </g>
            </g>
        </g>
    </g>
</svg>