<svg xmlns="http://www.w3.org/2000/svg" width="1296" height="2592" viewBox="0 0 1296 2592">
  <g fill="none" fill-rule="evenodd">
    <g fill="#DCC6AA" transform="translate(0 349.404)">
      <path d="M13.4344.180208575L13.4344 100.27606 6.2076 100.27606C3.9786 100.27606 0 97.6430127 0 95.7207879L0 4.36505214C0 2.33269988 4.321.180208575 6.0353.180208575L13.4344.180208575zM14.9267 182.441159L14.9267 375.164218 10.6842 375.164218C8.4552 375.164218 1.4922 369.537706 1.4922 367.625492L1.4922 189.619467C1.4922 187.587115 8.7977 182.441159 10.5119 182.441159L14.9267 182.441159zM1281.82 246.685516L1281.82 548.454786 1286.06 548.454786C1288.29 548.454786 1295.25 542.838285 1295.25 540.91606L1295.25 253.853812C1295.25 251.82146 1287.95 246.685516 1286.23 246.685516L1281.82 246.685516zM14.9267 419.976083L14.9267 611.207416 10.6842 611.207416C8.4552 611.207416 1.4922 605.630962 1.4922 603.72876L1.4922 427.104334C1.4922 425.081993 8.7977 419.976083 10.5119 419.976083L14.9267 419.976083z"/>
    </g>
    <g transform="translate(8)">
      <path fill="#DCC6AA" d="M1279.79,193.654137 C1279.79,86.7704287 1193.11,0 1086.36,0 L194.379,0 C87.6246,0 0.9533,86.7704287 0.9533,193.654137 L0.9533,348.082874 C0.9533,348.082874 3.9162,349.584612 3.9378,352.568065 C3.9384,352.668181 3.9378,387.328297 3.9378,400.323337 C3.9378,411.215944 3.9377,446.686999 3.9378,446.686999 C3.9396,449.740533 0.9533,451.17219 0.9533,451.17219 L0.9533,530.353835 C0.9533,530.353835 5.43,530.413905 5.43,545.291124 C5.4298,575.215759 5.4516,699.1492 5.43,711.123059 C5.4031,725.970243 0.9533,726.060348 0.9533,726.060348 L0.9533,767.88876 C0.9533,767.88876 5.4036,767.958841 5.43,782.826049 C5.483,812.710637 5.4454,942.380718 5.43,947.166257 C5.3821,961.963384 0.9533,962.103546 0.9533,962.103546 L0.9533,2398.34987 C0.9533,2505.22827 87.6246,2592 194.379,2592 L1086.36,2592 C1193.11,2592 1279.79,2505.22827 1279.79,2398.34987 L1279.79,899.360927 C1279.79,899.360927 1276.81,897.688992 1276.8,878.436709 C1276.78,829.730336 1276.75,654.067022 1276.8,606.542016 C1276.81,594.658262 1279.79,593.096454 1279.79,593.096454 L1279.79,193.654137 Z"/>
      <path fill="#191919" d="M1258.89,191.481622 C1258.89,96.5217149 1181.89,19.4224797 1087.04,19.4224797 L192.209,19.4224797 C97.359,19.4224797 20.3522,96.5217149 20.3522,191.481622 L20.3522,2400.52238 C20.3522,2495.48289 97.359,2572.57872 192.209,2572.57872 L1087.04,2572.57872 C1181.89,2572.57872 1258.89,2495.48289 1258.89,2400.52238 L1258.89,191.481622 Z"/>
      <path fill="#000" d="M559,2592 C559,2592 569.639,2583.33988 576,2583.32326 C612.053,2583.22905 612.048,2583.23005 638.338,2583.24006 C663.919,2583.24977 663.956,2583.2702 704,2583.32326 C710.659,2583.33207 722,2592 722,2592 L559,2592 Z" opacity=".25"/>
    </g>
    <g fill="#222" transform="translate(40 31.036)">
      <path d="M1054.9401,2529.25077 L161.0611,2529.25077 C72.1691,2529.25077 0,2456.98874 0,2367.98172 L0,161.266651 C0,72.2636385 72.1681,0 161.0611,0 L1054.9401,0 C1143.8301,0 1216.0001,72.2636385 1216.0001,161.266651 L1216.0001,2367.98172 C1216.0001,2456.94869 1143.9001,2529.1863 1054.9401,2529.25077 Z"/>
      <path d="M1056.5601,2483 C1119.9601,2482.9988 1171.0001,2431.63697 1171.0001,2368.37305 L1171.0001,161.629896 C1171.0001,98.3699774 1119.9601,47.0000437 1056.5601,47.0000437 L940.6141,47.0000437 C930.9951,46.9800437 922.7501,53.8300349 922.6621,64.9100206 C922.6351,68.3500161 928.6991,140.789923 843.9871,141.019922 L608.5001,140.559923 L373.0131,141.019922 C288.3011,140.789923 294.3651,68.3500161 294.3381,64.9100206 C294.2501,53.8300349 286.0051,46.9800437 276.3861,47.0000437 L160.4451,47.0000437 C97.0381,47.0000437 46,98.3699774 46,161.629896 L46,2368.37305 C46,2431.63697 97.0381,2483 160.4451,2483 L1056.5601,2483 Z"/>
      <path d="M1054.9401,2529.25077 L161.0611,2529.25077 C72.1691,2529.25077 0,2456.98874 0,2367.98172 L0,161.266651 C0,72.2636385 72.1681,0 161.0611,0 L1054.9401,0 C1143.8301,0 1216.0001,72.2636385 1216.0001,161.266651 L1216.0001,2367.98172 C1216.0001,2456.94869 1143.9001,2529.1863 1054.9401,2529.25077 Z M1056.5601,2483 C1119.9601,2482.9988 1171.0001,2431.63697 1171.0001,2368.37305 L1171.0001,161.629896 C1171.0001,98.3699774 1119.9601,47.0000437 1056.5601,47.0000437 L940.6141,47.0000437 C930.9951,46.9800437 922.7501,53.8300349 922.6621,64.9100206 C922.6351,68.3500161 928.6991,140.789923 843.9871,141.019922 L608.5001,140.559923 L373.0131,141.019922 C288.3011,140.789923 294.3651,68.3500161 294.3381,64.9100206 C294.2501,53.8300349 286.0051,46.9800437 276.3861,47.0000437 L160.4451,47.0000437 C97.0381,47.0000437 46,98.3699774 46,161.629896 L46,2368.37305 C46,2431.63697 97.0381,2483 160.4451,2483 L1056.5601,2483 Z"/>
    </g>
    <g fill="#3E3E3E" transform="translate(569 83.096)">
      <path d="M.224 20.7339977C.224 27.3416454 4.316 31.1961066 9.366 31.1961066L147.794 31.1961066C152.844 31.1961066 156.936 27.3416454 156.936 20.7339977 156.936 14.1263499 152.844 10.2718888 147.794 10.2718888L9.366 10.2718888C4.316 10.2718888.224 14.1263499.224 20.7339977zM195.712 20.7339977C195.712 31.866883 204.728 40.8973349 215.857 40.8973349 226.985 40.8973349 236.002 31.866883 236.002 20.7339977 236.002 9.59110081 226.985.560648899 215.857.560648899 204.728.560648899 195.712 9.59110081 195.712 20.7339977z"/>
    </g>
  </g>
</svg>
