<svg xmlns="http://www.w3.org/2000/svg" width="1411" height="2840" viewBox="0 0 1411 2840">
  <g fill="none" fill-rule="evenodd" transform="translate(0 -1)">
    <g transform="translate(0 1)">
      <path fill="#6A7970" d="M13.4339985.17999998L13.4339985 100.275989 6.2079993 100.275989C3.97899955 100.275989 0 97.6429891 0 95.7209893L0 4.36499951C0 2.33299974 4.32099952.17999998 6.03499932.17999998L13.4339985.17999998zM14.9269983 182.44098L14.9269983 375.163958 10.6839988 375.163958C8.45499905 375.163958 1.49199983 369.537959 1.49199983 367.624959L1.49199983 189.618979C1.49199983 187.586979 8.79799901 182.44098 10.5119988 182.44098L14.9269983 182.44098zM1396.81984 246.685972L1396.81984 548.454939 1401.05984 548.454939C1403.28984 548.454939 1410.24984 542.837939 1410.24984 540.915939L1410.24984 253.853972C1410.24984 251.820972 1402.94984 246.685972 1401.22984 246.685972L1396.81984 246.685972zM14.9269983 419.975953L14.9269983 611.206932 10.6839988 611.206932C8.45499905 611.206932 1.49199983 605.630932 1.49199983 603.728932L1.49199983 427.103952C1.49199983 425.081952 8.79799901 419.975953 10.5119988 419.975953L14.9269983 419.975953z" transform="translate(.375 345.404)"/>
      <path fill="#6A7970" d="M1402.44983,589.096252 C1402.44983,589.096252 1399.46983,590.658251 1399.45983,602.54225 C1399.40983,650.067245 1399.43983,825.730225 1399.45983,874.44022 C1399.46983,893.690217 1402.44983,895.360217 1402.44983,895.360217 L1402.44983,2651.80002 C1402.44983,2755.44001 1318.30984,2839.58 1214.66985,2839.58 L197.180968,2839.58 C93.5399796,2839.58 9.396989,2755.44001 9.396989,2651.80002 L9.367989,958.10021 C9.367989,958.10021 13.9539885,957.96021 14.0019885,943.170212 C14.0169885,938.380212 14.0549885,808.710227 14.0019885,778.83023 C13.9749885,763.960232 9.367989,763.890232 9.367989,763.890232 L9.367989,722.060237 C9.367989,722.060237 13.9749885,721.970237 14.0019885,707.120238 C14.0229885,695.15024 14.0009885,571.216254 14.0019885,541.291257 C14.0019885,526.414259 9.367989,526.354259 9.367989,526.354259 L9.367989,447.172267 C9.367989,447.172267 12.5109886,445.741268 12.5089886,442.687268 L12.5089886,348.568278 C12.4879886,345.585279 9.367989,344.083279 9.367989,344.083279 L9.396989,187.884296 C9.396989,84.2433081 93.5399796,0.100317493 197.180968,0.100317493 L1214.66985,0.100317493 C1318.30984,0.100317493 1402.44983,84.2433081 1402.44983,187.884296 L1402.44983,589.096252 Z"/>
      <path fill="#3E3E3E" d="M1384.66059,185.244637 C1384.66059,92.8300276 1309.63343,17.8004345 1217.21834,17.8004345 L194.411207,17.8004345 C101.99612,17.8004345 26.9689569,92.8300276 26.9689569,185.244637 L26.9689569,2654.50221 C26.9689569,2746.91228 101.99612,2821.94188 194.411207,2821.94188 L1217.21834,2821.94188 C1309.63343,2821.94188 1384.66059,2746.91228 1384.66059,2654.50221 L1384.66059,185.244637 Z"/>
      <path fill="#000" d="M624.410479,2839.58365 C624.410479,2839.58365 635.049478,2830.92365 641.410479,2830.90365 C677.463473,2830.81365 677.458473,2830.81365 703.74847,2830.82365 C729.329467,2830.83365 729.366467,2830.85365 769.410463,2830.90365 C776.069462,2830.91365 787.410461,2839.58365 787.410461,2839.58365 L624.410479,2839.58365 Z" opacity=".25"/>
    </g>
    <g transform="translate(38.984 29.312)">
      <g fill="#222" transform="translate(.615 .795)">
        <path d="M1332.58602,157.162896 C1332.58602,70.4200901 1262.16433,-4.54747351e-13 1175.42534,-4.54747351e-13 L157.160676,-4.54747351e-13 C70.4216831,-4.54747351e-13 -1.13686838e-13,70.4200901 -1.13686838e-13,157.162896 L-1.13686838e-13,2623.69567 C-1.13686838e-13,2710.43847 70.4216831,2780.85856 157.160676,2780.85856 L1175.42534,2780.85856 C1262.16433,2780.85856 1332.58602,2710.43847 1332.58602,2623.69567 L1332.58602,157.162896 Z"/>
        <path d="M1172.9584,2734.20034 C1236.34661,2734.20034 1287.38517,2682.84035 1287.38517,2619.58035 L1287.38517,160.834629 C1287.38517,97.5746363 1236.34661,46.2045984 1172.9584,46.2045984 L998.547314,46.2045984 C988.928585,46.2045984 980.683817,53.0346413 980.59582,64.1146401 C980.568821,67.5546397 986.63265,139.994632 901.923037,140.224632 L666.442673,139.764632 L430.962309,140.224632 C346.252696,139.994632 352.316525,67.5546397 352.289526,64.1146401 C352.201528,53.0346413 343.956761,46.2045984 334.338032,46.2045984 L159.826949,46.2045984 C96.4217362,46.2045984 45.3851744,97.5746363 45.3851744,160.834629 L45.3851744,2619.58035 C45.3851744,2682.84035 96.4217362,2734.20034 159.826949,2734.20034 L1172.9584,2734.20034 Z"/>
        <rect width="1242" height="2688" transform="translate(45.4 45.893)"/>
        <path d="M1175.42534,0 C1262.16433,0 1332.58602,70.4200901 1332.58602,157.162896 L1332.58602,157.162896 L1332.58602,2623.69567 C1332.58602,2710.43847 1262.16433,2780.85856 1175.42534,2780.85856 L1175.42534,2780.85856 L157.160676,2780.85856 C70.4216831,2780.85856 -1.13686838e-13,2710.43847 -1.13686838e-13,2623.69567 L-1.13686838e-13,2623.69567 L-1.13686838e-13,157.162896 C-1.13686838e-13,70.4200901 70.4216831,0 157.160676,0 L157.160676,0 Z M334.338032,46.2045984 L159.826949,46.2045984 C96.4217362,46.2045984 45.3851744,97.5746363 45.3851744,160.834629 L45.3851744,2619.58035 C45.3851744,2682.84035 96.4217362,2734.20034 159.826949,2734.20034 L1172.9584,2734.20034 C1236.34661,2734.20034 1287.38517,2682.84035 1287.38517,2619.58035 L1287.38517,160.834629 C1287.38517,97.5746363 1236.34661,46.2045984 1172.9584,46.2045984 L998.547314,46.2045984 C988.928585,46.2045984 980.683817,53.0346413 980.59582,64.1146401 C980.568821,67.5546397 986.63265,139.994632 901.923037,140.224632 L666.442673,139.764632 L430.962309,140.224632 C346.252696,139.994632 352.316525,67.5546397 352.289526,64.1146401 C352.201528,53.0346413 343.956761,46.2045984 334.338032,46.2045984 Z"/>
      </g>
      <path fill="#3E3E3E" d="M.223999975 20.7339977C.223999975 27.3419969 4.31599952 31.1959965 9.36599895 31.1959965L147.793983 31.1959965C152.843983 31.1959965 156.935982 27.3419969 156.935982 20.7339977 156.935982 14.1259984 152.843983 10.2719988 147.793983 10.2719988L9.36599895 10.2719988C4.31599952 10.2719988.223999975 14.1259984.223999975 20.7339977zM195.711978 20.7339977C195.711978 31.8669964 204.727977 40.8969954 215.856976 40.8969954 226.984975 40.8969954 236.001974 31.8669964 236.001974 20.7339977 236.001974 9.59099893 226.984975.560999937 215.856976.560999937 204.727977.560999937 195.711978 9.59099893 195.711978 20.7339977z" transform="translate(586.39 50.784)"/>
    </g>
  </g>
</svg>
