<?xml version="1.0" standalone="no"?><!DOCTYPE svg PUBLIC "-//W3C//DTD SVG 1.1//EN" "http://www.w3.org/Graphics/SVG/1.1/DTD/svg11.dtd"><svg width="100%" height="100%" viewBox="0 0 1427 2873" version="1.1" xmlns="http://www.w3.org/2000/svg" xmlns:xlink="http://www.w3.org/1999/xlink" xml:space="preserve" style="fill-rule:evenodd;clip-rule:evenodd;stroke-linejoin:round;stroke-miterlimit:1.41421;"><g id="iPhone 6-6s Plus Space Gray"><g id="Frame"><path id="Frame1" d="M1419.6,2665.66c0,120.553 -79.314,206.997 -206.997,206.997c0,0 -410.302,0 -419.592,0c-6.992,0 -13.108,-6 -20.1,-6c-18.271,0 -112.421,0 -120.6,0c-6.992,0 -13.108,6 -20.1,6c-5.135,0 -310.452,0.03 -315.323,0c-13.23,-0.08 -14.712,-8.968 -51.177,-9c-36.464,-0.032 -38.912,9 -51.293,9c-127.683,0 -206.997,-86.444 -206.997,-206.997c0,0 0,-1685.53 0,-1685.53c0,-3.668 2.267,-9.752 2.893,-12.443c0.628,-2.679 1.732,-6.704 1.732,-10.108c0,-3.404 0,-390.274 0,-391.079c0,-1.978 -0.717,-8.001 -1.552,-9.37c-0.836,-1.38 -3.073,-8.6 -3.073,-10.394l0,-339.739c0,-120.553 79.314,-206.997 206.997,-206.997l998.185,0c127.683,0 206.997,86.444 206.997,206.997l0,337.531c0,0.817 -0.943,1.668 -1.484,2.576c-0.552,0.909 -1.725,3.025 -1.725,7.785l0,177.696c0,4.749 1.173,6.877 1.725,7.785c0.541,0.909 1.484,1.76 1.484,2.576l0,1922.71Z" style="fill:#343438;"/><g id="Buttons"><path id="Power" d="M1426.5,716.085l0,14.513c0,0 0.107,1.593 -0.87,3.346c-0.88,1.576 -3.054,3.287 -4.726,3.287c-1.238,0 -7.9,0 -7.9,0l0.008,-94.914l-0.008,-94.914c0,0 6.662,0 7.9,0c1.672,0 3.846,1.711 4.726,3.288c0.977,1.752 0.87,3.346 0.87,3.346l0,162.048Z" style="fill:#343438;"/><path id="Volume Down" d="M4.107,965.726c-1.612,0 -3.595,-2.104 -3.595,-3.979c0,-1.874 0,-174.136 0,-176.114c0,-1.989 2.354,-3.633 3.595,-3.633c1.239,0 9.9,0 9.9,0l-0.015,183.726l-9.885,0Z" style="fill:#343438;"/><path id="Volume Up" d="M4.107,738.132c-1.612,0 -3.595,-2.104 -3.595,-3.979c0,-1.874 0,-174.135 0,-176.113c0,-1.99 2.354,-3.634 3.595,-3.634c1.239,0 9.9,0 9.9,0l-0.015,183.726l-9.885,0Z" style="fill:#343438;"/><path id="Mute Switch" d="M3.922,438.132c-1.613,0 -3.41,-1.104 -3.41,-2.979c0,-1.874 0,-90.135 0,-92.113c0,-1.99 2.046,-2.634 3.286,-2.634c1.239,0 5.209,0 5.209,0l-0.015,97.726l-5.07,0Z" style="fill:#343438;"/></g></g><g id="Body"><path id="Front" d="M1349.99,71.943c-33.441,-34.27 -80.947,-52.393 -137.388,-52.393l-998.185,0c-56.436,0 -103.943,18.123 -137.387,52.393c-16.008,16.41 -28.431,36.167 -36.925,58.741c-8.717,23.161 -13.135,48.828 -13.135,76.313l0,2458.66c0,27.485 4.418,53.152 13.135,76.313c8.494,22.574 20.917,42.331 36.925,58.741c33.444,34.27 80.951,52.393 137.387,52.393l998.185,0c56.441,0 103.947,-18.123 137.388,-52.393c16.008,-16.41 28.428,-36.167 36.926,-58.741c8.717,-23.161 13.133,-48.828 13.133,-76.313l0,-2458.66c0,-27.485 -4.416,-53.152 -13.133,-76.313c-8.498,-22.574 -20.918,-42.331 -36.926,-58.741Z" style="fill:#141414;"/><path id="Home Button" d="M713.507,2607.14c47.482,0 86.122,38.639 86.122,86.122c0,47.483 -38.64,86.122 -86.122,86.122c-47.483,0 -86.123,-38.639 -86.123,-86.122c0,-47.483 38.64,-86.122 86.123,-86.122M713.507,2597.81c-52.716,0 -95.449,42.734 -95.449,95.449c0,52.715 42.733,95.448 95.449,95.448c52.715,0 95.448,-42.733 95.448,-95.448c0,-52.715 -42.733,-95.449 -95.448,-95.449Z" style="fill:#343438;"/><g id="Screen"><path id="Screen Panel" d="M93.666,2544.01l-2.296,-0.456l-1.946,-1.301l-1.301,-1.947l-0.457,-2.296l0,-2207.97l0.457,-2.296c1.292,-1.933 1.314,-1.956 3.247,-3.247l2.296,-0.457l1241.98,0l2.296,0.457c0.649,0.433 1.395,0.749 1.947,1.3c1.52,1.521 1.362,2.257 1.757,4.243l0,2207.97l-0.457,2.296l-1.3,1.947l-1.947,1.301l-2.296,0.456c-413.994,0 -827.987,0 -1241.98,0Z" style="fill:#141414;"/><rect id="Screen - Off" x="93.666" y="330.045" width="1241.98" height="2207.97" style="fill:#141414;"/></g><g id="Top Sensors"><path id="Speaker" d="M814.705,175.372c0,5.394 -4.381,9.775 -9.786,9.775l-175.925,0c-5.404,0 -9.786,-4.381 -9.786,-9.775c0,-5.393 4.382,-9.775 9.786,-9.775l175.925,0c5.405,0 9.786,4.382 9.786,9.775Z" style="fill:#1d1d1d;"/><path id="Camera" d="M541.009,173.647c0,12.064 -9.786,21.85 -21.849,21.85c-12.064,0 -21.85,-9.786 -21.85,-21.85c0,-12.063 9.786,-21.849 21.85,-21.849c12.063,0 21.849,9.786 21.849,21.849Z" style="fill:#1d1d1d;"/></g></g></g></svg>