<?xml version="1.0" standalone="no"?><!DOCTYPE svg PUBLIC "-//W3C//DTD SVG 1.1//EN" "http://www.w3.org/Graphics/SVG/1.1/DTD/svg11.dtd"><svg width="100%" height="100%" viewBox="0 0 1427 2874" version="1.1" xmlns="http://www.w3.org/2000/svg" xmlns:xlink="http://www.w3.org/1999/xlink" xml:space="preserve" style="fill-rule:evenodd;clip-rule:evenodd;stroke-linejoin:round;stroke-miterlimit:1.41421;"><g id="iPhone 6-6s Plus Rose Gold"><g id="Frame"><path id="Frame1" d="M1419.58,2666.21c0,120.553 -79.315,206.997 -206.997,206.997c0,0 -410.302,0 -419.592,0c-6.992,0 -13.108,-6 -20.1,-6c-18.271,0 -112.421,0 -120.6,0c-6.992,0 -13.108,6 -20.1,6c-5.136,0 -310.452,0.029 -315.323,0c-13.23,-0.081 -14.713,-8.968 -51.177,-9c-36.464,-0.033 -38.912,9 -51.293,9c-127.683,0 -206.997,-86.444 -206.997,-206.997c0,0 0,-1685.53 0,-1685.53c0,-3.669 2.267,-9.752 2.893,-12.443c0.627,-2.68 1.731,-6.705 1.731,-10.108c0,-3.404 0,-390.274 0,-391.079c0,-1.978 -0.716,-8.002 -1.551,-9.37c-0.836,-1.38 -3.073,-8.6 -3.073,-10.394l0,-339.739c0,-120.553 79.314,-206.997 206.997,-206.997l998.185,0c127.682,0 206.997,86.444 206.997,206.997l0,337.531c0,0.816 -0.943,1.667 -1.484,2.576c-0.552,0.908 -1.725,3.024 -1.725,7.785l0,177.695c0,4.75 1.173,6.877 1.725,7.786c0.541,0.908 1.484,1.759 1.484,2.576l0,1922.71Z" style="fill:#ceaea2;"/><g id="Buttons"><path id="Power" d="M1426.49,716.634l0,14.513c0,0 0.107,1.594 -0.871,3.346c-0.879,1.576 -3.053,3.288 -4.725,3.288c-1.238,0 -7.9,0 -7.9,0l0.008,-94.914l-0.008,-94.914c0,0 6.662,0 7.9,0c1.672,0 3.846,1.711 4.725,3.287c0.978,1.752 0.871,3.346 0.871,3.346l0,162.048Z" style="fill:#ceaea2;"/><path id="Volume Down" d="M4.088,966.275c-1.612,0 -3.595,-2.104 -3.595,-3.978c0,-1.875 0,-174.136 0,-176.114c0,-1.989 2.354,-3.633 3.595,-3.633c1.239,0 9.9,0 9.9,0l-0.015,183.725l-9.885,0Z" style="fill:#ceaea2;"/><path id="Volume Up" d="M4.088,738.681c-1.612,0 -3.595,-2.103 -3.595,-3.978c0,-1.874 0,-174.136 0,-176.114c0,-1.989 2.354,-3.633 3.595,-3.633c1.239,0 9.9,0 9.9,0l-0.015,183.725l-9.885,0Z" style="fill:#ceaea2;"/><path id="Mute Switch" d="M3.902,438.681c-1.612,0 -3.409,-1.103 -3.409,-2.978c0,-1.874 0,-90.136 0,-92.114c0,-1.989 2.046,-2.633 3.286,-2.633c1.239,0 5.209,0 5.209,0l-0.015,97.725l-5.071,0Z" style="fill:#ceaea2;"/></g></g><g id="Body"><path id="Front" d="M1349.97,72.493c-33.441,-34.27 -80.947,-52.394 -137.388,-52.394l-998.185,0c-56.436,0 -103.943,18.124 -137.387,52.394c-16.008,16.41 -28.431,36.167 -36.925,58.741c-8.717,23.16 -13.135,48.828 -13.135,76.313l0,2458.66c0,27.484 4.418,53.152 13.135,76.313c8.494,22.574 20.917,42.331 36.925,58.741c33.444,34.269 80.951,52.393 137.387,52.393l998.185,0c56.441,0 103.947,-18.124 137.388,-52.393c16.008,-16.41 28.428,-36.167 36.926,-58.741c8.717,-23.161 13.133,-48.829 13.133,-76.313l0,-2458.66c0,-27.485 -4.416,-53.153 -13.133,-76.313c-8.498,-22.574 -20.918,-42.331 -36.926,-58.741Z" style="fill:#f7f7f7;"/><path id="Home Button" d="M713.488,2607.69c47.482,0 86.122,38.64 86.122,86.122c0,47.483 -38.64,86.123 -86.122,86.123c-47.483,0 -86.123,-38.64 -86.123,-86.123c0,-47.482 38.64,-86.122 86.123,-86.122M713.488,2598.36c-52.716,0 -95.449,42.733 -95.449,95.448c0,52.716 42.733,95.449 95.449,95.449c52.715,0 95.448,-42.733 95.448,-95.449c0,-52.715 -42.733,-95.448 -95.448,-95.448Z" style="fill:#ceaea2;"/><g id="Screen"><path id="Screen Panel" d="M93.647,2544.56l-2.296,-0.457l-1.947,-1.3l-1.3,-1.947l-0.457,-2.296l0,-2207.97l0.457,-2.296c1.291,-1.934 1.314,-1.956 3.247,-3.248l2.296,-0.456l1241.98,0l2.296,0.456c0.649,0.434 1.395,0.749 1.947,1.301c1.52,1.52 1.362,2.256 1.757,4.243l0,2207.97l-0.457,2.296l-1.3,1.947l-1.947,1.3l-2.296,0.457c-413.994,0 -827.987,0 -1241.98,0Z" style="fill:#3e3e3e;"/><rect id="Screen - Off" x="93.647" y="330.595" width="1241.98" height="2207.97" style="fill:#000;"/></g><g id="Top Sensors"><path id="Speaker" d="M814.686,175.922c0,5.393 -4.381,9.775 -9.786,9.775l-175.925,0c-5.405,0 -9.786,-4.382 -9.786,-9.775c0,-5.393 4.381,-9.775 9.786,-9.775l175.925,0c5.405,0 9.786,4.382 9.786,9.775Z" style="fill:#3e3e3e;"/><path id="Camera" d="M540.99,174.197c0,12.063 -9.786,21.85 -21.849,21.85c-12.064,0 -21.85,-9.787 -21.85,-21.85c0,-12.063 9.786,-21.85 21.85,-21.85c12.063,0 21.849,9.787 21.849,21.85Z" style="fill:#3e3e3e;"/><path id="Light Sensor" d="M718.088,77.599c7.624,0 13.799,6.175 13.799,13.799c0,7.625 -6.175,13.8 -13.799,13.8c-7.625,0 -13.8,-6.175 -13.8,-13.8c0,-7.624 6.175,-13.799 13.8,-13.799Z" style="fill:#3e3e3e;"/></g></g></g></svg>