<svg xmlns="http://www.w3.org/2000/svg" width="1296" height="2589" viewBox="0 0 1296 2589">
  <g fill="none" fill-rule="evenodd">
    <g fill="#D5D2CF" transform="translate(0 349)">
      <path d="M13.4344.18L13.4344 100.16 6.2076 100.16C3.9786 100.16 0 97.53 0 95.61L0 4.36C0 2.33 4.321.18 6.0353.18L13.4344.18zM14.9267 182.23L14.9267 374.73 10.6842 374.73C8.4552 374.73 1.4922 369.11 1.4922 367.2L1.4922 189.4C1.4922 187.37 8.7977 182.23 10.5119 182.23L14.9267 182.23zM1281.82 246.4L1281.82 547.82 1286.06 547.82C1288.29 547.82 1295.25 542.21 1295.25 540.29L1295.25 253.56C1295.25 251.53 1287.95 246.4 1286.23 246.4L1281.82 246.4zM14.9267 419.49L14.9267 610.5 10.6842 610.5C8.4552 610.5 1.4922 604.93 1.4922 603.03L1.4922 426.61C1.4922 424.59 8.7977 419.49 10.5119 419.49L14.9267 419.49z"/>
    </g>
    <g transform="translate(8)">
      <path fill="#D5D2CF" d="M1279.79,193.43 C1279.79,86.67 1193.11,0 1086.36,0 L194.379,0 C87.6246,0 0.9533,86.67 0.9533,193.43 L0.9533,347.68 C0.9533,347.68 3.9162,349.18 3.9378,352.16 C3.9384,352.26 3.9378,386.88 3.9378,399.86 C3.9378,410.74 3.9377,446.17 3.9378,446.17 C3.9396,449.22 0.9533,450.65 0.9533,450.65 L0.9533,529.74 C0.9533,529.74 5.43,529.8 5.43,544.66 C5.4298,574.55 5.4516,698.34 5.43,710.3 C5.4031,725.13 0.9533,725.22 0.9533,725.22 L0.9533,767 C0.9533,767 5.4036,767.07 5.43,781.92 C5.483,811.77 5.4454,941.29 5.43,946.07 C5.3821,960.85 0.9533,960.99 0.9533,960.99 L0.9533,2395.574 C0.9533,2502.3287 87.6246,2589 194.379,2589 L1086.36,2589 C1193.11,2589 1279.79,2502.3287 1279.79,2395.574 L1279.79,898.32 C1279.79,898.32 1276.81,896.65 1276.8,877.42 C1276.78,828.77 1276.75,653.31 1276.8,605.84 C1276.81,593.97 1279.79,592.41 1279.79,592.41 L1279.79,193.43 Z"/>
      <path fill="#545454" d="M1258.89,191.26 C1258.89,96.41 1181.89,19.4 1087.04,19.4 L192.209,19.4 C97.359,19.4 20.3522,96.41 20.3522,191.26 L20.3522,2397.744 C20.3522,2492.5946 97.359,2569.6012 192.209,2569.6012 L1087.04,2569.6012 C1181.89,2569.6012 1258.89,2492.5946 1258.89,2397.744 L1258.89,191.26 Z"/>
      <path fill="#BCBCBC" d="M559,2589 C559,2589 569.639,2580.3499 576,2580.3333 C612.053,2580.2392 612.048,2580.2402 638.338,2580.2502 C663.919,2580.2599 663.956,2580.2803 704,2580.3333 C710.659,2580.3421 722,2589 722,2589 L559,2589 Z"/>
    </g>
    <g fill="#222222" transform="translate(40 31)">
      <path d="M1055.23,2526.6634 L161.351,2526.6634 C72.459,2526.6634 0.2899,2454.485 0.2899,2365.581 L0.2899,161.42 C0.2899,72.52 72.458,0.34 161.351,0.34 L1055.23,0.34 C1144.12,0.34 1216.29,72.52 1216.29,161.42 L1216.29,2365.581 C1216.29,2454.445 1144.19,2526.599 1055.23,2526.6634 Z"/>
      <path d="M1056.35,2481.1031 C1119.75,2481.1019 1170.79,2429.74 1170.79,2366.476 L1170.79,159.73 C1170.79,96.47 1119.75,45.1 1056.35,45.1 L940.404,45.1 C930.785,45.08 922.54,51.93 922.452,63.01 C922.425,66.45 928.489,138.89 843.777,139.12 L608.29,138.66 L372.803,139.12 C288.091,138.89 294.155,66.45 294.128,63.01 C294.04,51.93 285.795,45.08 276.176,45.1 L160.235,45.1 C96.828,45.1 45.7899,96.47 45.7899,159.73 L45.7899,2366.476 C45.7899,2429.74 96.828,2481.1031 160.235,2481.1031 L1056.35,2481.1031 Z"/>
      <path d="M1055.23,2526.6634 L161.351,2526.6634 C72.459,2526.6634 0.2899,2454.485 0.2899,2365.581 L0.2899,161.42 C0.2899,72.52 72.458,0.34 161.351,0.34 L1055.23,0.34 C1144.12,0.34 1216.29,72.52 1216.29,161.42 L1216.29,2365.581 C1216.29,2454.445 1144.19,2526.5985 1055.23,2526.6634 Z M1056.35,2481.1031 C1119.75,2481.1019 1170.79,2429.74 1170.79,2366.476 L1170.79,159.73 C1170.79,96.47 1119.75,45.1 1056.35,45.1 L940.404,45.1 C930.785,45.08 922.54,51.93 922.452,63.01 C922.425,66.45 928.489,138.89 843.777,139.12 L608.29,138.66 L372.803,139.12 C288.091,138.89 294.155,66.45 294.128,63.01 C294.04,51.93 285.795,45.08 276.176,45.1 L160.235,45.1 C96.828,45.1 45.7899,96.47 45.7899,159.73 L45.7899,2366.476 C45.7899,2429.74 96.828,2481.1031 160.235,2481.1031 L1056.35,2481.1031 Z"/>
    </g>
    <g fill="#3E3E3E" transform="translate(569 83)">
      <path d="M.224 20.71C.224 27.31 4.316 31.16 9.366 31.16L147.794 31.16C152.844 31.16 156.936 27.31 156.936 20.71 156.936 14.11 152.844 10.26 147.794 10.26L9.366 10.26C4.316 10.26.224 14.11.224 20.71zM195.712 20.71C195.712 31.83 204.728 40.85 215.857 40.85 226.985 40.85 236.002 31.83 236.002 20.71 236.002 9.58 226.985.56 215.857.56 204.728.56 195.712 9.58 195.712 20.71z"/>
    </g>
  </g>
</svg>
