<svg xmlns="http://www.w3.org/2000/svg" width="1296" height="2592" viewBox="0 0 1296 2592">
  <g fill="none" fill-rule="evenodd">
    <path fill="#F0D0A7" d="M13.4344.180208575L13.4344 100.27606 6.2076 100.27606C3.9786 100.27606 0 97.6430127 0 95.7207879L0 4.36505214C0 2.33269988 4.321.180208575 6.0353.180208575L13.4344.180208575zM14.9267 182.441159L14.9267 375.164218 10.6842 375.164218C8.4552 375.164218 1.4922 369.537706 1.4922 367.625492L1.4922 189.619467C1.4922 187.587115 8.7977 182.441159 10.5119 182.441159L14.9267 182.441159zM1281.82 246.685516L1281.82 548.454786 1286.06 548.454786C1288.29 548.454786 1295.25 542.838285 1295.25 540.91606L1295.25 253.853812C1295.25 251.82146 1287.95 246.685516 1286.23 246.685516L1281.82 246.685516zM14.9267 419.976083L14.9267 611.207416 10.6842 611.207416C8.4552 611.207416 1.4922 605.630962 1.4922 603.72876L1.4922 427.104334C1.4922 425.081993 8.7977 419.976083 10.5119 419.976083L14.9267 419.976083z" transform="translate(0 349.404)"/>
    <path fill="#F0D0A7" d="M1287.79,193.654137 C1287.79,86.7704287 1201.11,0 1094.36,0 L202.379,0 C95.6246,0 8.9533,86.7704287 8.9533,193.654137 L8.9533,348.082874 C8.9533,348.082874 11.9162,349.584612 11.9378,352.568065 C11.9384,352.668181 11.9378,387.328297 11.9378,400.323337 C11.9378,411.215944 11.9377,446.686999 11.9378,446.686999 C11.9396,449.740533 8.9533,451.17219 8.9533,451.17219 L8.9533,530.353835 C8.9533,530.353835 13.43,530.413905 13.43,545.291124 C13.4298,575.215759 13.4516,699.1492 13.43,711.123059 C13.4031,725.970243 8.9533,726.060348 8.9533,726.060348 L8.9533,767.88876 C8.9533,767.88876 13.4036,767.958841 13.43,782.826049 C13.483,812.710637 13.4454,942.380718 13.43,947.166257 C13.3821,961.963384 8.9533,962.103546 8.9533,962.103546 L8.9533,2398.34987 C8.9533,2505.22827 95.6246,2592 202.379,2592 L1094.36,2592 C1201.11,2592 1287.79,2505.22827 1287.79,2398.34987 L1287.79,899.360927 C1287.79,899.360927 1284.81,897.688992 1284.8,878.436709 C1284.78,829.730336 1284.75,654.067022 1284.8,606.542016 C1284.81,594.658262 1287.79,593.096454 1287.79,593.096454 L1287.79,193.654137 Z"/>
    <path fill="#3E3E3E" d="M1266.89,191.481622 C1266.89,96.5217149 1189.89,19.4224797 1095.04,19.4224797 L200.209,19.4224797 C105.359,19.4224797 28.3522,96.5217149 28.3522,191.481622 L28.3522,2400.52238 C28.3522,2495.48289 105.359,2572.57872 200.209,2572.57872 L1095.04,2572.57872 C1189.89,2572.57872 1266.89,2495.48289 1266.89,2400.52238 L1266.89,191.481622 Z"/>
    <path fill="#000" d="M567,2592 C567,2592 577.639,2583.33988 584,2583.32326 C620.053,2583.22905 620.048,2583.23005 646.338,2583.24006 C671.919,2583.24977 671.956,2583.2702 712,2583.32326 C718.659,2583.33207 730,2592 730,2592 L567,2592 Z" opacity=".25"/>
    <g transform="translate(40 31.036)">
      <g transform="translate(.29 .34)">
        <path fill="#222" d="M1054.9401,2529.25077 L161.0611,2529.25077 C72.1691,2529.25077 -3.41060513e-13,2456.98874 -3.41060513e-13,2367.98172 L-3.41060513e-13,161.266651 C-3.41060513e-13,72.2636385 72.1681,0 161.0611,0 L1054.9401,0 C1143.8301,0 1216.0001,72.2636385 1216.0001,161.266651 L1216.0001,2367.98172 C1216.0001,2456.94869 1143.9001,2529.1863 1054.9401,2529.25077 Z"/>
        <path fill="#222" d="M1056.2702,2482.65961 C1119.6702,2482.65961 1170.7102,2431.29657 1170.7102,2368.03265 L1170.7102,161.289502 C1170.7102,98.0295834 1119.6702,46.659606 1056.2702,46.659606 L940.3242,46.659606 C930.7052,46.659606 922.4602,53.4896409 922.3722,64.5696266 C922.3452,68.0096221 928.4092,140.449529 843.6972,140.679528 L608.2102,140.219529 L372.7232,140.679528 C288.0112,140.449529 294.0752,68.0096221 294.0482,64.5696266 C293.9602,53.4896409 285.7152,46.659606 276.0962,46.659606 L160.1552,46.659606 C96.7482,46.659606 45.7101,98.0295834 45.7101,161.289502 L45.7101,2368.03265 C45.7101,2431.29657 96.7482,2482.65961 160.1552,2482.65961 L1056.2702,2482.65961 Z"/>
        <rect width="1125" height="2436" fill="#222" transform="translate(46 47)"/>
        <path d="M1054.9401,0 C1143.8301,0 1216.0001,72.2636385 1216.0001,161.266651 L1216.0001,2367.98172 C1216.0001,2456.94869 1143.9001,2529.1863 1054.9401,2529.25077 L161.0611,2529.25077 C72.1691,2529.25077 5.68434189e-13,2456.98874 5.68434189e-13,2367.98172 L5.68434189e-13,161.266651 C5.68434189e-13,72.2636385 72.1681,0 161.0611,0 L1054.9401,0 Z M276.0962,46.659606 L160.1552,46.659606 C96.7482,46.659606 45.7101,98.0295834 45.7101,161.289502 L45.7101,2368.03265 C45.7101,2431.29657 96.7482,2482.65961 160.1552,2482.65961 L1056.2702,2482.65961 C1119.6702,2482.65961 1170.7102,2431.29657 1170.7102,2368.03265 L1170.7102,161.289502 C1170.7102,98.0295834 1119.6702,46.659606 1056.2702,46.659606 L940.3242,46.659606 C930.7052,46.659606 922.4602,53.4896409 922.3722,64.5696266 C922.3452,68.0096221 928.4092,140.449529 843.6972,140.679528 L608.2102,140.219529 L372.7232,140.679528 C288.0112,140.449529 294.0752,68.0096221 294.0482,64.5696266 C293.9602,53.4896409 285.7152,46.659606 276.0962,46.659606 Z"/>
      </g>
      <path fill="#3E3E3E" d="M.224 20.7339977C.224 27.3416454 4.316 31.1961066 9.366 31.1961066L147.794 31.1961066C152.844 31.1961066 156.936 27.3416454 156.936 20.7339977 156.936 14.1263499 152.844 10.2718888 147.794 10.2718888L9.366 10.2718888C4.316 10.2718888.224 14.1263499.224 20.7339977zM195.712 20.7339977C195.712 31.866883 204.728 40.8973349 215.857 40.8973349 226.985 40.8973349 236.002 31.866883 236.002 20.7339977 236.002 9.59110081 226.985.560648899 215.857.560648899 204.728.560648899 195.712 9.59110081 195.712 20.7339977z" transform="translate(529 52.06)"/>
    </g>
  </g>
</svg>
