<?xml version="1.0" standalone="no"?><!DOCTYPE svg PUBLIC "-//W3C//DTD SVG 1.1//EN" "http://www.w3.org/Graphics/SVG/1.1/DTD/svg11.dtd"><svg width="100%" height="100%" viewBox="0 0 763 1485" version="1.1" xmlns="http://www.w3.org/2000/svg" xmlns:xlink="http://www.w3.org/1999/xlink" xml:space="preserve" style="fill-rule:evenodd;clip-rule:evenodd;stroke-linejoin:round;stroke-miterlimit:1.41421;"><g id="iPhone 4s White"><g id="Frame"><path id="Frame1" d="M9,121.6c0,-29.92 11.67,-58.05 32.85,-79.21c21.18,-21.15 49.33,-32.8 79.28,-32.8l529.74,0c29.95,0 58.1,11.65 79.28,32.8c21.19,21.16 32.85,49.29 32.85,79.21l0,1250.98c0,29.922 -11.66,58.054 -32.85,79.211c-21.18,21.153 -49.33,32.803 -79.28,32.803l-529.74,0c-29.95,0 -58.1,-11.65 -79.28,-32.803c-21.18,-21.157 -32.85,-49.289 -32.85,-79.211l0,-1250.98Z" style="fill:#d5d2cf;"/><g id="Buttons"><path id="Top Button" d="M513,3.59l0,7l122,0l0,-7l-3.991,-3l-114,0l-4.009,3Z" style="fill:#d5d2cf;"/><path id="Sound Down Button" d="M3,429.59l-3,3l0,50l3,3l7,0l0,-56l-7,0Z" style="fill:#d5d2cf;"/><path id="Sound Up Button" d="M3,305.59l-3,3l0,50l3,3l7,0l0,-56l-7,0Z" style="fill:#d5d2cf;"/><path id="Sound Switch Button" d="M3,168.59l-3,3l0,67l3,3l7,0l0,-73l-7,0Z" style="fill:#d5d2cf;"/></g></g><g id="Body"><path id="Front" d="M121.13,18.584l529.74,0c56.87,0 103.13,46.212 103.13,103.015l0,1249.97c0,56.8 -46.26,103.01 -103.13,103.01l-529.74,0c-56.86,0 -103.13,-46.21 -103.13,-103.01l0,-1249.97c0,-56.803 46.27,-103.015 103.13,-103.015Z" style="fill:#f7f7f7;"/><g id="Home Button"><path id="Home Button Circle" d="M386,1286.15c37.53,0 68,30.469 68,68c0,37.53 -30.47,68 -68,68c-37.53,0 -68,-30.47 -68,-68c0,-37.531 30.47,-68 68,-68ZM386,1291.22c34.731,0 62.929,28.197 62.929,62.929c0,34.731 -28.198,62.928 -62.929,62.928c-34.731,0 -62.929,-28.197 -62.929,-62.928c0,-34.732 28.198,-62.929 62.929,-62.929Z" style="fill:#d5d2cf;"/><path id="Rounded Rectangle Symbol" d="M369.816,1378.65c-0.319,-0.002 -0.637,-0.018 -0.955,-0.055c-0.615,-0.07 -1.223,-0.21 -1.807,-0.416c-1.138,-0.401 -2.183,-1.053 -3.046,-1.896c-0.887,-0.866 -1.577,-1.928 -2.003,-3.091c-0.213,-0.581 -0.36,-1.186 -0.438,-1.8c-0.04,-0.315 -0.06,-0.633 -0.066,-0.951c-0.069,-10.861 -0.069,-21.722 0,-32.583c0.006,-0.318 0.026,-0.635 0.066,-0.951c0.078,-0.614 0.225,-1.219 0.438,-1.8c0.426,-1.163 1.116,-2.225 2.003,-3.091c0.863,-0.842 1.908,-1.495 3.046,-1.896c0.584,-0.206 1.192,-0.346 1.807,-0.416c0.282,-0.032 0.564,-0.048 0.847,-0.054c10.861,-0.068 21.723,-0.068 32.584,0c0.318,0.006 0.635,0.026 0.951,0.067c0.613,0.078 1.218,0.225 1.799,0.438c1.164,0.426 2.226,1.116 3.091,2.002c0.843,0.864 1.495,1.908 1.896,3.046c0.207,0.585 0.346,1.192 0.417,1.808c0.032,0.282 0.048,0.564 0.053,0.847c0.069,10.861 0.069,21.722 0,32.583c-0.006,0.318 -0.026,0.636 -0.066,0.951c-0.078,0.614 -0.225,1.219 -0.438,1.8c-0.426,1.163 -1.116,2.225 -2.003,3.091c-0.863,0.843 -1.908,1.495 -3.046,1.896c-0.584,0.206 -1.192,0.346 -1.807,0.416c-0.282,0.033 -0.564,0.049 -0.847,0.054c-10.825,0.069 -21.651,0.001 -32.476,0.001ZM369.835,1373.15c10.821,0 21.646,0.339 32.461,-0.003c0.084,-0.003 0.168,-0.01 0.252,-0.02c0.285,-0.038 0.561,-0.117 0.822,-0.238c0.67,-0.313 1.206,-0.895 1.461,-1.59c0.109,-0.297 0.163,-0.611 0.169,-0.927c0.069,-10.84 0.344,-21.685 -0.002,-32.518c-0.013,-0.292 -0.067,-0.58 -0.167,-0.854c-0.284,-0.774 -0.912,-1.398 -1.685,-1.682c-0.295,-0.109 -0.607,-0.162 -0.921,-0.168c-10.84,-0.062 -21.687,-0.355 -32.521,0.002c-0.29,0.012 -0.578,0.065 -0.85,0.166c-0.762,0.28 -1.384,0.891 -1.673,1.65c-0.117,0.307 -0.174,0.632 -0.181,0.96c-0.065,10.839 -0.34,21.685 0.002,32.519c0.014,0.314 0.076,0.623 0.191,0.916c0.272,0.689 0.822,1.257 1.501,1.555c0.274,0.12 0.566,0.192 0.864,0.22c0.092,0.008 0.185,0.011 0.277,0.012Z" style="fill:#d5d2cf;fill-rule:nonzero;"/></g><g id="Screen"><path id="Screen Panel" d="M65,255.59c-0.824,0.13 -1.679,0.133 -2.472,0.391c-0.794,0.258 -1.555,0.646 -2.23,1.137c-1.367,0.993 -2.384,2.393 -2.906,4c-0.258,0.793 -0.261,1.648 -0.392,2.472l0,960c0.131,0.824 0.134,1.678 0.392,2.472c0.257,0.793 0.645,1.555 1.136,2.23c0.993,1.367 2.393,2.384 4,2.906c0.793,0.258 1.648,0.261 2.472,0.392l640,0c0.824,-0.131 1.679,-0.134 2.472,-0.392c1.607,-0.522 3.007,-1.539 4,-2.906c0.491,-0.675 0.879,-1.437 1.136,-2.23c0.258,-0.794 0.262,-1.648 0.392,-2.472l0,-960c-0.13,-0.824 -0.134,-1.679 -0.392,-2.472c-0.522,-1.607 -1.539,-3.007 -2.906,-4c-0.675,-0.491 -1.436,-0.879 -2.23,-1.137c-0.793,-0.258 -1.648,-0.261 -2.472,-0.391c-213.333,0 -426.667,0 -640,0Z" style="fill:#3e3e3e;"/><rect id="Screen - Off" x="65" y="263.59" width="640" height="960" style="fill:#000;"/><path d="M65,1231.59l-2.472,-0.392l-2.23,-1.136l-1.77,-1.77l-1.136,-2.23l-0.392,-2.472l0,-960l0.392,-2.472l1.136,-2.231l1.77,-1.769l2.23,-1.137l2.472,-0.391l640,0l2.472,0.391l2.23,1.137l1.77,1.769l1.136,2.231l0.392,2.472l0,960l-0.392,2.472l-1.136,2.23l-1.77,1.77l-2.23,1.136l-2.472,0.392l-640,0ZM65,1223.59l640,0l0,-960l-640,0l0,960Z" style="fill:#3e3e3e;"/></g><g id="Top Sensors"><path id="Speaker" d="M335,127.59l110,0c4.41,0 8,3.589 8,8c0,4.411 -3.59,8 -8,8l-110,0c-4.41,0 -8,-3.589 -8,-8c0,-4.411 3.59,-8 8,-8Z" style="fill:#3e3e3e;"/><path id="Light Sensor" d="M361,65.59l59,0c4.41,0 8,3.589 8,8c0,4.411 -3.59,8 -8,8l-59,0c-4.41,0 -8,-3.589 -8,-8c0,-4.411 3.59,-8 8,-8Z" style="fill:#3e3e3e;"/><path id="Camera" d="M242.46,117.606c9.655,0 17.479,7.827 17.479,17.481c0,9.653 -7.824,17.48 -17.479,17.48c-9.655,0 -17.479,-7.827 -17.479,-17.48c0,-9.654 7.824,-17.481 17.479,-17.481Z" style="fill:#3e3e3e;"/></g></g></g></svg>