<?xml version="1.0" encoding="UTF-8"?>
<svg width="1427px" height="2874px" viewBox="0 0 1427 2874" version="1.1" xmlns="http://www.w3.org/2000/svg" xmlns:xlink="http://www.w3.org/1999/xlink">
    <!-- Generator: Sketch 41.2 (35397) - http://www.bohemiancoding.com/sketch -->
    <title>iPhone 7 Plus Jet Black</title>
    <desc>Created with Sketch.</desc>
    <defs></defs>
    <g id="iPhone" stroke="none" stroke-width="1" fill="none" fill-rule="evenodd">
        <g id="iPhone-7-Plus" transform="translate(-295.000000, -563.000000)">
            <g id="iPhone-7-Plus-Jet-Black" transform="translate(295.000000, 563.000000)">
                <g id="Frame" fill="#222222">
                    <path d="M643.44704,2870.93791 C640.375026,2872.33859 637.289678,2873.65699 634.012329,2873.65699 L214.418332,2873.65699 C86.7354575,2873.65699 7.42001343,2787.21258 7.42001343,2666.66001 L7.42001343,981.127988 C7.42001343,977.44797 9.68695755,971.367941 10.3120272,968.674595 C10.9400302,965.994583 12.0440354,961.98123 12.0440354,958.567881 L12.0440354,567.486019 C12.0440354,565.512677 11.328032,559.485981 10.4929614,558.125975 C9.65709074,556.739302 7.42001343,549.525934 7.42001343,547.725925 L7.42001343,207.990975 C7.42001343,87.4304016 86.7334575,0.989990234 214.418332,0.989990234 L1212.60708,0.989990234 C1340.29036,0.989990234 1419.60007,87.4304016 1419.60007,207.990975 L1419.60007,545.512582 C1419.60007,546.339252 1418.66673,547.179256 1418.12006,548.099261 C1417.57339,549.005932 1416.40005,551.112608 1416.40005,555.885964 L1416.40005,733.580143 C1416.40005,738.326832 1417.57339,740.446843 1418.12006,741.366847 C1418.66673,742.273518 1419.60007,743.126855 1419.60007,743.940193 L1419.60007,2666.66001 C1419.60007,2787.21232 1340.29036,2873.65659 1212.60708,2873.65699 L793.013085,2873.65699 C789.735736,2873.65699 786.651722,2872.33859 783.578374,2870.93791 L782.349035,2870.37605 C779.27702,2868.97551 776.191672,2867.65723 772.914323,2867.65697 L654.112424,2867.65697 C650.835075,2867.65697 647.749727,2868.97537 644.676379,2870.37605 L643.44704,2870.93791 Z" id="Shape"></path>
                    <g id="Buttons" transform="translate(0.000000, 340.000000)">
                        <path d="M1426.5,376.085 L1426.5,390.598 C1426.5,390.598 1426.607,392.191 1425.63,393.944 C1424.75,395.52 1422.576,397.231 1420.904,397.231 L1413.004,397.231 L1413.012,302.317 L1413.004,207.403 L1420.904,207.403 C1422.576,207.403 1424.75,209.114 1425.63,210.691 C1426.607,212.443 1426.5,214.037 1426.5,214.037 L1426.5,376.085 L1426.5,376.085 Z" id="Power"></path>
                        <path d="M4.107,625.726 C2.495,625.726 0.512,623.622 0.512,621.747 L0.512,445.633 C0.512,443.644 2.866,442 4.107,442 L14.007,442 L13.992,625.726 L4.107,625.726 L4.107,625.726 Z" id="Volume-Down"></path>
                        <path d="M4.107,398.132 C2.495,398.132 0.512,396.028 0.512,394.153 L0.512,218.04 C0.512,216.05 2.866,214.406 4.107,214.406 L14.007,214.406 L13.992,398.132 L4.107,398.132 L4.107,398.132 Z" id="Volume-Up"></path>
                        <path d="M3.922,98.132 C2.309,98.132 0.512,97.028 0.512,95.153 L0.512,3.04 C0.512,1.05 2.558,0.406 3.798,0.406 L9.007,0.406 L8.992,98.132 L3.922,98.132 L3.922,98.132 Z" id="Mute-Switch"></path>
                    </g>
                </g>
                <g id="Body" transform="translate(26.000000, 19.000000)">
                    <path d="M1323.99,52.943 C1290.549,18.673 1243.043,0.55 1186.602,0.55 L188.417,0.55 C131.981,0.55 84.474,18.673 51.03,52.943 C35.022,69.353 22.599,89.11 14.105,111.684 C5.388,134.845 0.97,160.512 0.97,187.997 L0.97,2646.657 C0.97,2674.142 5.388,2699.809 14.105,2722.97 C22.599,2745.544 35.022,2765.301 51.03,2781.711 C84.474,2815.981 131.981,2834.104 188.417,2834.104 L1186.602,2834.104 C1243.043,2834.104 1290.549,2815.981 1323.99,2781.711 C1339.998,2765.301 1352.418,2745.544 1360.916,2722.97 C1369.633,2699.809 1374.049,2674.142 1374.049,2646.657 L1374.049,187.997 C1374.049,160.512 1369.633,134.845 1360.916,111.684 C1352.418,89.11 1339.998,69.353 1323.99,52.943 L1323.99,52.943 Z" id="Front" fill="#222222"></path>
                    <path d="M687.507,2588.14 C734.989,2588.14 773.629,2626.779 773.629,2674.262 C773.629,2721.745 734.989,2760.384 687.507,2760.384 C640.024,2760.384 601.384,2721.745 601.384,2674.262 C601.384,2626.779 640.024,2588.14 687.507,2588.14 L687.507,2588.14 Z M687.507,2578.81 C634.791,2578.81 592.058,2621.544 592.058,2674.259 C592.058,2726.974 634.791,2769.707 687.507,2769.707 C740.222,2769.707 782.955,2726.974 782.955,2674.259 C782.955,2621.544 740.222,2578.81 687.507,2578.81 L687.507,2578.81 Z" id="Home-Button" fill="#3E3E3E"></path>
                    <g id="Screen" transform="translate(61.000000, 305.000000)" fill="#222222">
                        <path d="M6.666,2220.01 L4.37,2219.554 L2.424,2218.253 L1.123,2216.306 L0.666,2214.01 L0.666,6.04 L1.123,3.744 C2.415,1.811 2.437,1.788 4.37,0.497 L6.666,0.04 L1248.646,0.04 L1250.942,0.497 C1251.591,0.93 1252.337,1.246 1252.889,1.797 C1254.409,3.318 1254.251,4.054 1254.646,6.04 L1254.646,2214.01 L1254.189,2216.306 L1252.889,2218.253 L1250.942,2219.554 L1248.646,2220.01 L6.666,2220.01 L6.666,2220.01 Z" id="Screen-Panel"></path>
                        <rect id="Screen---Off" x="6.666" y="6.045" width="1241.98" height="2207.97"></rect>
                    </g>
                    <g id="Top-Sensors" transform="translate(471.000000, 135.000000)" fill="#3E3E3E">
                        <path d="M317.705,21.372 C317.705,26.766 313.324,31.147 307.919,31.147 L131.994,31.147 C126.59,31.147 122.208,26.766 122.208,21.372 C122.208,15.979 126.59,11.597 131.994,11.597 L307.919,11.597 C313.324,11.597 317.705,15.979 317.705,21.372 L317.705,21.372 Z" id="Speaker"></path>
                        <path d="M44.0089976,21.849 C44.0089976,33.913 34.2229976,43.699 22.1599976,43.699 C10.0959976,43.699 0.309997559,33.913 0.309997559,21.849 C0.309997559,9.786 10.0959976,0 22.1599976,0 C34.2229976,0 44.0089976,9.786 44.0089976,21.849 L44.0089976,21.849 Z" id="Camera"></path>
                    </g>
                </g>
            </g>
        </g>
    </g>
</svg>