<svg xmlns="http://www.w3.org/2000/svg" width="728" height="570" viewBox="0 0 728 570">
  <g fill="none" fill-rule="evenodd">
    <rect width="728" height="570" fill="#F4F4F4"/>
    <g transform="translate(102 37)">
      <g transform="translate(25 170)">
        <g fill="#B6B6B6" transform="translate(11.78)">
          <path d="M64.7926829,0.326136364 C68.620687,0.327440909 104.571463,0.836213636 107.987805,7.82727273 C110.220862,12.3970955 111.550976,34.8104346 111.765317,36.0432082 C114.017819,48.9983538 117.170695,54.2195182 129.102366,60.7885568 L0.483,60.7885568 C12.4146707,54.2195182 15.5675471,48.9983538 17.8200485,36.0432082 C18.0343899,34.8104346 19.3645041,12.3970955 21.597561,7.82727273 C25.0139024,0.836213636 60.9646789,0.327440909 64.7926829,0.326136364 Z"/>
          <path d="M64.7926829,226.0125 C68.620687,226.013805 104.571463,226.522577 107.987805,233.513636 C110.220862,238.083459 111.550976,260.496798 111.765317,261.729572 C114.017819,274.684717 117.170695,279.905882 129.102366,286.47492 L0.483,286.47492 C12.4146707,279.905882 15.5675471,274.684717 17.8200485,261.729572 C18.0343899,260.496798 19.3645041,238.083459 21.597561,233.513636 C25.0139024,226.522577 60.9646789,226.013805 64.7926829,226.0125 Z" transform="matrix(1 0 0 -1 0 512.487)"/>
        </g>
        <g transform="translate(147.91 95.884)">
          <rect width="4.581" height="30.005" fill="#030303"/>
          <path fill="#3B3B3B" d="M12.7621951 6.52272727L12.7621951 24.1340909C12.7621951 24.603075 13.1558667 30.6568182 8.99636585 30.6568182L2.61788618 30.6568182 2.61788618 0 8.99636585 0C13.1558667 0 12.7621951 6.05374318 12.7621951 6.52272727zM5.66772358 96.8625L3.21280081 96.8625 3.21280081 52.1818182 5.66772358 52.1818182C6.1271626 52.1818182 6.54471545 52.7421205 6.54471545 53.1602273L6.54471545 95.8840909C6.54471545 96.3021977 6.1271626 96.8625 5.66772358 96.8625z"/>
        </g>
        <g transform="translate(0 54.79)">
          <path fill="#4A4A4A" d="M152.49187,38.8102273 C152.49187,39.4542945 152.49187,39.937345 152.49187,40.2593786 C152.49187,41.0931818 148.565041,42.3977273 148.565041,56.0954545 C148.565041,69.7931818 152.49187,71.8547274 152.49187,72.4022727 C152.49187,72.9306507 152.49187,79.8981258 152.49187,93.275 C151.182927,96.5363636 151.182927,96.5363636 151.182927,115.228581 C151.182927,133.920799 151.182927,136.325 152.49187,138.281818 C152.49187,148.95952 151.478671,159.324053 145.390208,166.299444 C139.301745,173.274836 134.166667,176.765909 116.465576,176.765909 L36.3231707,176.765909 C18.9796748,176.765909 13.5173608,173.274836 7.42889792,166.299444 C1.34043505,159.324053 0.327235772,148.958399 0.327235772,138.281818 L0.327235772,38.8102273 C0.327235772,28.1336462 1.34043505,17.7679925 7.42889792,10.792601 C13.5173608,3.81720951 18.9796748,0.326136364 36.3231707,0.326136364 L116.465576,0.326136364 C134.166667,0.326136364 139.301745,3.81720951 145.390208,10.792601 C151.478671,17.7679925 152.49187,28.1336462 152.49187,38.8102273 Z"/>
          <path fill="#222" stroke="#000" stroke-width=".5" d="M147.042285,135.280417 L147.042286,135.279554 L147.363916,42.0602755 C147.363916,41.5596201 147.364604,41.162963 147.366719,40.2426236 C147.372343,37.7951266 147.370367,36.6851793 147.351262,35.3088576 C147.207477,24.9507038 145.908113,18.6521457 142.130754,14.3068119 C136.733844,8.09840757 131.867025,6.24477807 121.871369,6.24477807 L31.3361383,6.24477807 C21.340482,6.24477807 16.473663,8.09840757 11.0767533,14.3068119 C7.29939392,18.6521457 6.00002963,24.9507038 5.8562454,35.3088576 C5.83714032,36.6851793 5.835164,37.7951266 5.84078805,40.2426236 C5.84290287,41.162963 5.84359091,41.5596201 5.84358942,42.061138 L5.52195955,135.280417 C5.52195955,135.781072 5.52127151,136.177729 5.51915669,137.098069 C5.51353264,139.545566 5.51550896,140.655513 5.53461404,142.031835 C5.67839827,152.389989 6.97776256,158.688547 10.7551219,163.033881 C16.1520316,169.242285 21.0188507,171.095914 31.014507,171.095914 L121.549737,171.095914 C131.545394,171.095914 136.412213,169.242285 141.809122,163.033881 C145.586482,158.688547 146.885846,152.389989 147.02963,142.031835 C147.048735,140.655513 147.050712,139.545566 147.045088,137.098069 C147.042973,136.177729 147.042285,135.781072 147.042285,135.280417 Z"/>
          <rect width="102.318" height="127.389" x="25.579" y="24.728" fill="#222"/>
        </g>
      </g>
      <path fill="#222" d="M18.8945312,34 L16.9609375,27.8476562 L8.04882812,27.8476562 L6.11523438,34 L0.666015625,34 L9.47265625,8.63476562 L15.7128906,8.63476562 L24.5371094,34 L18.8945312,34 Z M12.4433594,13.4863281 L9.19140625,23.875 L15.8183594,23.875 L12.5664062,13.4863281 L12.4433594,13.4863281 Z M37.6855469,14.8574219 C42.4667969,14.8574219 45.4023438,18.4960938 45.4023438,24.578125 C45.4023438,30.6425781 42.484375,34.2988281 37.7734375,34.2988281 C35.03125,34.2988281 32.921875,32.9628906 31.9199219,30.8359375 L31.8144531,30.8359375 L31.8144531,40.1523438 L26.6816406,40.1523438 L26.6816406,15.15625 L31.7441406,15.15625 L31.7441406,18.4433594 L31.8496094,18.4433594 C32.8691406,16.2285156 34.9609375,14.8574219 37.6855469,14.8574219 Z M35.9628906,30.1679688 C38.5292969,30.1679688 40.1464844,28.0058594 40.1464844,24.578125 C40.1464844,21.1679688 38.5292969,18.9707031 35.9628906,18.9707031 C33.4492188,18.9707031 31.796875,21.203125 31.796875,24.578125 C31.796875,27.9882812 33.4492188,30.1679688 35.9628906,30.1679688 Z M59.0429688,14.8574219 C63.8242188,14.8574219 66.7597656,18.4960938 66.7597656,24.578125 C66.7597656,30.6425781 63.8417969,34.2988281 59.1308594,34.2988281 C56.3886719,34.2988281 54.2792969,32.9628906 53.2773438,30.8359375 L53.171875,30.8359375 L53.171875,40.1523438 L48.0390625,40.1523438 L48.0390625,15.15625 L53.1015625,15.15625 L53.1015625,18.4433594 L53.2070312,18.4433594 C54.2265625,16.2285156 56.3183594,14.8574219 59.0429688,14.8574219 Z M57.3203125,30.1679688 C59.8867188,30.1679688 61.5039062,28.0058594 61.5039062,24.578125 C61.5039062,21.1679688 59.8867188,18.9707031 57.3203125,18.9707031 C54.8066406,18.9707031 53.1542969,21.203125 53.1542969,24.578125 C53.1542969,27.9882812 54.8066406,30.1679688 57.3203125,30.1679688 Z M69.5195312,34 L69.5195312,8.63476562 L74.6523438,8.63476562 L74.6523438,34 L69.5195312,34 Z M86.5703125,18.5488281 C84.3203125,18.5488281 82.703125,20.2539062 82.5273438,22.609375 L90.5253906,22.609375 C90.4199219,20.2011719 88.8554688,18.5488281 86.5703125,18.5488281 Z M90.5957031,28.234375 L95.3066406,28.234375 C94.7441406,31.9257812 91.3691406,34.4042969 86.7109375,34.4042969 C80.9101562,34.4042969 77.4296875,30.6953125 77.4296875,24.6660156 C77.4296875,18.6542969 80.9453125,14.7519531 86.5175781,14.7519531 C92.0019531,14.7519531 95.4648438,18.4609375 95.4648438,24.1914062 L95.4648438,25.7558594 L82.4746094,25.7558594 L82.4746094,26.0722656 C82.4746094,28.7617188 84.1796875,30.6074219 86.7988281,30.6074219 C88.6796875,30.6074219 90.1210938,29.6757812 90.5957031,28.234375 Z M120.847656,16.6679688 L116.03125,34 L111.021484,34 L104.306641,8.63476562 L109.808594,8.63476562 L113.798828,27.0039062 L113.939453,27.0039062 L118.685547,8.63476562 L123.167969,8.63476562 L127.914062,27.0039062 L128.054688,27.0039062 L132.0625,8.63476562 L137.564453,8.63476562 L130.832031,34 L125.822266,34 L121.005859,16.6679688 L120.847656,16.6679688 Z M144.876953,30.5898438 C147.109375,30.5898438 148.955078,29.1308594 148.955078,27.0917969 L148.955078,25.7207031 L144.982422,25.9667969 C143.066406,26.1074219 141.976562,26.96875 141.976562,28.3046875 C141.976562,29.7109375 143.136719,30.5898438 144.876953,30.5898438 Z M143.189453,34.2988281 C139.603516,34.2988281 136.878906,31.9785156 136.878906,28.5859375 C136.878906,25.1582031 139.515625,23.171875 144.208984,22.890625 L148.955078,22.609375 L148.955078,21.3613281 C148.955078,19.6035156 147.724609,18.5839844 145.791016,18.5839844 C143.875,18.5839844 142.662109,19.5332031 142.416016,20.921875 L137.722656,20.921875 C137.916016,17.265625 141.027344,14.7519531 146.019531,14.7519531 C150.853516,14.7519531 154,17.2480469 154,21.0449219 L154,34 L149.042969,34 L149.042969,31.1171875 L148.9375,31.1171875 C147.882812,33.1210938 145.544922,34.2988281 143.189453,34.2988281 Z M158.675781,10.8144531 L163.808594,10.8144531 L163.808594,15.15625 L167.289062,15.15625 L167.289062,19.0234375 L163.808594,19.0234375 L163.808594,28.0410156 C163.808594,29.4824219 164.511719,30.1679688 166.023438,30.1679688 C166.480469,30.1679688 166.955078,30.1328125 167.271484,30.0800781 L167.271484,33.859375 C166.744141,33.9824219 165.865234,34.0703125 164.828125,34.0703125 C160.398438,34.0703125 158.675781,32.59375 158.675781,28.9199219 L158.675781,19.0234375 L156.021484,19.0234375 L156.021484,15.15625 L158.675781,15.15625 L158.675781,10.8144531 Z M186.958984,22.1699219 L182.195312,22.1699219 C181.896484,20.1835938 180.578125,18.7773438 178.46875,18.7773438 C175.9375,18.7773438 174.355469,20.921875 174.355469,24.5605469 C174.355469,28.2695312 175.9375,30.3789062 178.486328,30.3789062 C180.542969,30.3789062 181.878906,29.1484375 182.195312,27.0917969 L186.976562,27.0917969 C186.712891,31.5390625 183.390625,34.4042969 178.433594,34.4042969 C172.755859,34.4042969 169.152344,30.7128906 169.152344,24.5605469 C169.152344,18.5136719 172.755859,14.7519531 178.398438,14.7519531 C183.496094,14.7519531 186.730469,17.8984375 186.958984,22.1699219 Z M189.578125,34 L189.578125,8.63476562 L194.623047,8.63476562 L194.623047,18.5136719 L194.728516,18.5136719 C195.730469,16.140625 197.787109,14.8046875 200.652344,14.8046875 C204.835938,14.8046875 207.226562,17.5117188 207.226562,21.8710938 L207.226562,34 L202.09375,34 L202.09375,22.9609375 C202.09375,20.5351562 200.898438,19.0585938 198.560547,19.0585938 C196.134766,19.0585938 194.710938,20.7636719 194.710938,23.2421875 L194.710938,34 L189.578125,34 Z M58.3046875,65.9257812 L58.3046875,62.09375 L61.3808594,62.09375 C63.8066406,62.09375 65.4414062,60.6523438 65.4414062,58.5605469 C65.4414062,56.5039062 63.9824219,55.1503906 61.3457031,55.1503906 C58.8847656,55.1503906 57.25,56.609375 57.109375,58.8242188 L52.2226562,58.8242188 C52.4160156,54.1308594 56.0722656,51.0722656 61.5742188,51.0722656 C66.8476562,51.0722656 70.4511719,53.7792969 70.4511719,57.8398438 C70.4511719,60.9511719 68.3242188,63.2011719 65.2128906,63.7636719 L65.2128906,63.8691406 C68.9921875,64.1855469 71.4355469,66.4707031 71.4355469,69.9863281 C71.4355469,74.5390625 67.3046875,77.5625 61.4511719,77.5625 C55.7207031,77.5625 51.9765625,74.4160156 51.7304688,69.7402344 L56.8105469,69.7402344 C56.96875,71.8847656 58.7265625,73.2910156 61.5214844,73.2910156 C64.1757812,73.2910156 66.0390625,71.796875 66.0390625,69.6523438 C66.0390625,67.3320312 64.2988281,65.9257812 61.4335938,65.9257812 L58.3046875,65.9257812 Z M84.7597656,77.5625 C78.6074219,77.5625 74.4765625,74.5214844 74.4765625,70.1269531 C74.4765625,66.7871094 76.9023438,64.203125 80.4355469,63.6230469 L80.4355469,63.5175781 C77.4824219,62.8320312 75.4960938,60.5644531 75.4960938,57.7695312 C75.4960938,53.9023438 79.328125,51.0722656 84.7597656,51.0722656 C90.2089844,51.0722656 94.0058594,53.8847656 94.0058594,57.7871094 C94.0058594,60.546875 92.0371094,62.8144531 89.0839844,63.5175781 L89.0839844,63.6230469 C92.6347656,64.2207031 95.0429688,66.8046875 95.0429688,70.1445312 C95.0429688,74.5390625 90.859375,77.5625 84.7597656,77.5625 Z M84.7597656,73.6953125 C87.5546875,73.6953125 89.4882812,72.0253906 89.4882812,69.7402344 C89.4882812,67.4550781 87.5546875,65.7851562 84.7597656,65.7851562 C81.9648438,65.7851562 80.0136719,67.4550781 80.0136719,69.7402344 C80.0136719,72.0253906 81.9648438,73.6953125 84.7597656,73.6953125 Z M84.7597656,61.9179688 C87.0976562,61.9179688 88.7675781,60.4414062 88.7675781,58.4199219 C88.7675781,56.3808594 87.0976562,54.9042969 84.7597656,54.9042969 C82.4042969,54.9042969 80.7519531,56.3984375 80.7519531,58.4199219 C80.7519531,60.4414062 82.4042969,61.9179688 84.7597656,61.9179688 Z M98.171875,77 L98.171875,58.15625 L103.128906,58.15625 L103.128906,61.5664062 L103.234375,61.5664062 C104.025391,59.2988281 106.046875,57.8046875 108.613281,57.8046875 C111.337891,57.8046875 113.236328,59.2109375 113.869141,61.671875 L113.974609,61.671875 C114.818359,59.2988281 117.068359,57.8046875 119.828125,57.8046875 C123.519531,57.8046875 125.998047,60.3359375 125.998047,64.1328125 L125.998047,77 L120.865234,77 L120.865234,65.4160156 C120.865234,63.2363281 119.775391,62.0410156 117.789062,62.0410156 C115.837891,62.0410156 114.554688,63.4648438 114.554688,65.5566406 L114.554688,77 L109.615234,77 L109.615234,65.2578125 C109.615234,63.2363281 108.472656,62.0410156 106.574219,62.0410156 C104.623047,62.0410156 103.304688,63.5175781 103.304688,65.6269531 L103.304688,77 L98.171875,77 Z M129.25,77 L129.25,58.15625 L134.207031,58.15625 L134.207031,61.5664062 L134.3125,61.5664062 C135.103516,59.2988281 137.125,57.8046875 139.691406,57.8046875 C142.416016,57.8046875 144.314453,59.2109375 144.947266,61.671875 L145.052734,61.671875 C145.896484,59.2988281 148.146484,57.8046875 150.90625,57.8046875 C154.597656,57.8046875 157.076172,60.3359375 157.076172,64.1328125 L157.076172,77 L151.943359,77 L151.943359,65.4160156 C151.943359,63.2363281 150.853516,62.0410156 148.867188,62.0410156 C146.916016,62.0410156 145.632812,63.4648438 145.632812,65.5566406 L145.632812,77 L140.693359,77 L140.693359,65.2578125 C140.693359,63.2363281 139.550781,62.0410156 137.652344,62.0410156 C135.701172,62.0410156 134.382812,63.5175781 134.382812,65.6269531 L134.382812,77 L129.25,77 Z"/>
    </g>
    <g transform="translate(416 37)">
      <g transform="translate(16 149)">
        <g fill="#B6B6B6" transform="translate(13.537)">
          <path d="M74.4512195,0.375 C78.8498577,0.3765 120.159756,0.9615 124.085366,9 C126.651301,14.2545 128.179693,40.0259353 128.425986,41.4434101 C131.014264,56.3395705 134.637134,62.343 148.347439,69.89625 L0.555,69.89625 C14.2653049,62.343 17.8881753,56.3395705 20.4764532,41.4434101 C20.7227462,40.0259353 22.2511382,14.2545 24.8170732,9 C28.7426829,0.9615 70.0525813,0.3765 74.4512195,0.375 Z"/>
          <path d="M74.4512195,259.875 C78.8498577,259.8765 120.159756,260.4615 124.085366,268.5 C126.651301,273.7545 128.179693,299.525935 128.425986,300.94341 C131.014264,315.839571 134.637134,321.843 148.347439,329.39625 L0.555,329.39625 C14.2653049,321.843 17.8881753,315.839571 20.4764532,300.94341 C20.7227462,299.525935 22.2511382,273.7545 24.8170732,268.5 C28.7426829,260.4615 70.0525813,259.8765 74.4512195,259.875 Z" transform="matrix(1 0 0 -1 0 589.271)"/>
        </g>
        <g transform="translate(169.96 110.25)">
          <rect width="5.264" height="34.5" fill="#030303"/>
          <path fill="#3B3B3B" d="M14.6646341 7.5L14.6646341 27.75C14.6646341 28.28925 15.1169896 35.25 10.337439 35.25L3.00813008 35.25 3.00813008 0 10.337439 0C15.1169896 0 14.6646341 6.96075 14.6646341 7.5zM6.51260163 111.375L3.69172764 111.375 3.69172764 60 6.51260163 60C7.04052846 60 7.5203252 60.64425 7.5203252 61.125L7.5203252 110.25C7.5203252 110.73075 7.04052846 111.375 6.51260163 111.375z"/>
        </g>
        <g transform="translate(0 63)">
          <path fill="#4A4A4A" d="M175.223577,44.625 C175.223577,45.3655651 175.223577,45.920989 175.223577,46.2912716 C175.223577,47.25 170.711382,48.75 170.711382,64.5 C170.711382,80.25 175.223577,82.6204182 175.223577,83.25 C175.223577,83.8575426 175.223577,91.8689251 175.223577,107.25 C173.719512,111 173.719512,111 173.719512,132.492794 C173.719512,153.985587 173.719512,156.75 175.223577,159 C175.223577,171.277496 174.059342,183.194904 167.063282,191.215389 C160.067222,199.235874 154.166667,203.25 133.826904,203.25 L41.7378049,203.25 C21.8089431,203.25 15.5323711,199.235874 8.53631127,191.215389 C1.54025145,183.194904 0.37601626,171.276208 0.37601626,159 L0.37601626,44.625 C0.37601626,32.3487918 1.54025145,20.4300959 8.53631127,12.4096109 C15.5323711,4.38912592 21.8089431,0.375 41.7378049,0.375 L133.826904,0.375 C154.166667,0.375 160.067222,4.38912592 167.063282,12.4096109 C174.059342,20.4300959 175.223577,32.3487918 175.223577,44.625 Z"/>
          <path fill="#222" stroke="#000" stroke-width=".5" d="M168.963757,155.405961 L168.963758,155.405099 L169.333333,48.2190388 C169.333333,47.643411 169.334124,47.1873432 169.336554,46.1291423 C169.343017,43.3147451 169.340746,42.0383623 169.318789,40.4555623 C169.153454,28.5370645 167.658979,21.287947 163.310877,16.2827556 C157.101738,9.13528333 151.499112,7 140.003388,7 L35.9722222,7 C24.4764976,7 18.8738722,9.13528333 12.6647323,16.2827556 C8.31663101,21.287947 6.82215569,28.5370645 6.65682091,40.4555623 C6.63486413,42.0383623 6.63259296,43.3147451 6.63905584,46.1291423 C6.64148585,47.1873432 6.64227642,47.643411 6.64227494,48.2199008 L6.27270002,155.405961 C6.27270002,155.981589 6.27190944,156.437657 6.26947943,157.495858 C6.26301655,160.310255 6.26528772,161.586638 6.28724451,163.169438 C6.45257929,175.087935 7.9470546,182.337053 12.2951559,187.342244 C18.5042958,194.489717 24.1069212,196.625 35.6026458,196.625 L139.633811,196.625 C151.129536,196.625 156.732161,194.489717 162.941301,187.342244 C167.289402,182.337053 168.783878,175.087935 168.949212,163.169438 C168.971169,161.586638 168.97344,160.310255 168.966978,157.495858 C168.964548,156.437657 168.963757,155.981589 168.963757,155.405961 Z M169.463757,155.406392 L169.463755,155.406823 L169.463757,155.405961 C169.463757,155.406105 169.463757,155.406248 169.463757,155.406392 Z"/>
          <rect width="117.317" height="146.25" x="29.329" y="28.5" fill="#222"/>
        </g>
      </g>
      <path fill="#222" d="M18.8945312,34 L16.9609375,27.8476562 L8.04882812,27.8476562 L6.11523438,34 L0.666015625,34 L9.47265625,8.63476562 L15.7128906,8.63476562 L24.5371094,34 L18.8945312,34 Z M12.4433594,13.4863281 L9.19140625,23.875 L15.8183594,23.875 L12.5664062,13.4863281 L12.4433594,13.4863281 Z M37.6855469,14.8574219 C42.4667969,14.8574219 45.4023438,18.4960938 45.4023438,24.578125 C45.4023438,30.6425781 42.484375,34.2988281 37.7734375,34.2988281 C35.03125,34.2988281 32.921875,32.9628906 31.9199219,30.8359375 L31.8144531,30.8359375 L31.8144531,40.1523438 L26.6816406,40.1523438 L26.6816406,15.15625 L31.7441406,15.15625 L31.7441406,18.4433594 L31.8496094,18.4433594 C32.8691406,16.2285156 34.9609375,14.8574219 37.6855469,14.8574219 Z M35.9628906,30.1679688 C38.5292969,30.1679688 40.1464844,28.0058594 40.1464844,24.578125 C40.1464844,21.1679688 38.5292969,18.9707031 35.9628906,18.9707031 C33.4492188,18.9707031 31.796875,21.203125 31.796875,24.578125 C31.796875,27.9882812 33.4492188,30.1679688 35.9628906,30.1679688 Z M59.0429688,14.8574219 C63.8242188,14.8574219 66.7597656,18.4960938 66.7597656,24.578125 C66.7597656,30.6425781 63.8417969,34.2988281 59.1308594,34.2988281 C56.3886719,34.2988281 54.2792969,32.9628906 53.2773438,30.8359375 L53.171875,30.8359375 L53.171875,40.1523438 L48.0390625,40.1523438 L48.0390625,15.15625 L53.1015625,15.15625 L53.1015625,18.4433594 L53.2070312,18.4433594 C54.2265625,16.2285156 56.3183594,14.8574219 59.0429688,14.8574219 Z M57.3203125,30.1679688 C59.8867188,30.1679688 61.5039062,28.0058594 61.5039062,24.578125 C61.5039062,21.1679688 59.8867188,18.9707031 57.3203125,18.9707031 C54.8066406,18.9707031 53.1542969,21.203125 53.1542969,24.578125 C53.1542969,27.9882812 54.8066406,30.1679688 57.3203125,30.1679688 Z M69.5195312,34 L69.5195312,8.63476562 L74.6523438,8.63476562 L74.6523438,34 L69.5195312,34 Z M86.5703125,18.5488281 C84.3203125,18.5488281 82.703125,20.2539062 82.5273438,22.609375 L90.5253906,22.609375 C90.4199219,20.2011719 88.8554688,18.5488281 86.5703125,18.5488281 Z M90.5957031,28.234375 L95.3066406,28.234375 C94.7441406,31.9257812 91.3691406,34.4042969 86.7109375,34.4042969 C80.9101562,34.4042969 77.4296875,30.6953125 77.4296875,24.6660156 C77.4296875,18.6542969 80.9453125,14.7519531 86.5175781,14.7519531 C92.0019531,14.7519531 95.4648438,18.4609375 95.4648438,24.1914062 L95.4648438,25.7558594 L82.4746094,25.7558594 L82.4746094,26.0722656 C82.4746094,28.7617188 84.1796875,30.6074219 86.7988281,30.6074219 C88.6796875,30.6074219 90.1210938,29.6757812 90.5957031,28.234375 Z M120.847656,16.6679688 L116.03125,34 L111.021484,34 L104.306641,8.63476562 L109.808594,8.63476562 L113.798828,27.0039062 L113.939453,27.0039062 L118.685547,8.63476562 L123.167969,8.63476562 L127.914062,27.0039062 L128.054688,27.0039062 L132.0625,8.63476562 L137.564453,8.63476562 L130.832031,34 L125.822266,34 L121.005859,16.6679688 L120.847656,16.6679688 Z M144.876953,30.5898438 C147.109375,30.5898438 148.955078,29.1308594 148.955078,27.0917969 L148.955078,25.7207031 L144.982422,25.9667969 C143.066406,26.1074219 141.976562,26.96875 141.976562,28.3046875 C141.976562,29.7109375 143.136719,30.5898438 144.876953,30.5898438 Z M143.189453,34.2988281 C139.603516,34.2988281 136.878906,31.9785156 136.878906,28.5859375 C136.878906,25.1582031 139.515625,23.171875 144.208984,22.890625 L148.955078,22.609375 L148.955078,21.3613281 C148.955078,19.6035156 147.724609,18.5839844 145.791016,18.5839844 C143.875,18.5839844 142.662109,19.5332031 142.416016,20.921875 L137.722656,20.921875 C137.916016,17.265625 141.027344,14.7519531 146.019531,14.7519531 C150.853516,14.7519531 154,17.2480469 154,21.0449219 L154,34 L149.042969,34 L149.042969,31.1171875 L148.9375,31.1171875 C147.882812,33.1210938 145.544922,34.2988281 143.189453,34.2988281 Z M158.675781,10.8144531 L163.808594,10.8144531 L163.808594,15.15625 L167.289062,15.15625 L167.289062,19.0234375 L163.808594,19.0234375 L163.808594,28.0410156 C163.808594,29.4824219 164.511719,30.1679688 166.023438,30.1679688 C166.480469,30.1679688 166.955078,30.1328125 167.271484,30.0800781 L167.271484,33.859375 C166.744141,33.9824219 165.865234,34.0703125 164.828125,34.0703125 C160.398438,34.0703125 158.675781,32.59375 158.675781,28.9199219 L158.675781,19.0234375 L156.021484,19.0234375 L156.021484,15.15625 L158.675781,15.15625 L158.675781,10.8144531 Z M186.958984,22.1699219 L182.195312,22.1699219 C181.896484,20.1835938 180.578125,18.7773438 178.46875,18.7773438 C175.9375,18.7773438 174.355469,20.921875 174.355469,24.5605469 C174.355469,28.2695312 175.9375,30.3789062 178.486328,30.3789062 C180.542969,30.3789062 181.878906,29.1484375 182.195312,27.0917969 L186.976562,27.0917969 C186.712891,31.5390625 183.390625,34.4042969 178.433594,34.4042969 C172.755859,34.4042969 169.152344,30.7128906 169.152344,24.5605469 C169.152344,18.5136719 172.755859,14.7519531 178.398438,14.7519531 C183.496094,14.7519531 186.730469,17.8984375 186.958984,22.1699219 Z M189.578125,34 L189.578125,8.63476562 L194.623047,8.63476562 L194.623047,18.5136719 L194.728516,18.5136719 C195.730469,16.140625 197.787109,14.8046875 200.652344,14.8046875 C204.835938,14.8046875 207.226562,17.5117188 207.226562,21.8710938 L207.226562,34 L202.09375,34 L202.09375,22.9609375 C202.09375,20.5351562 200.898438,19.0585938 198.560547,19.0585938 C196.134766,19.0585938 194.710938,20.7636719 194.710938,23.2421875 L194.710938,34 L189.578125,34 Z M64.7910156,77 L64.7910156,72.4824219 L52.1699219,72.4824219 L52.1699219,67.9648438 C54.3847656,63.7460938 57.1445312,59.2988281 62.3476562,51.6347656 L69.8359375,51.6347656 L69.8359375,68.2285156 L73.140625,68.2285156 L73.140625,72.4824219 L69.8359375,72.4824219 L69.8359375,77 L64.7910156,77 Z M56.828125,68.2460938 L56.828125,68.3867188 L64.8964844,68.3867188 L64.8964844,55.3964844 L64.7910156,55.3964844 C61.0996094,60.8105469 58.8847656,64.2734375 56.828125,68.2460938 Z M75.7246094,59.2636719 C75.7246094,54.4648438 79.5566406,51.0722656 85.09375,51.0722656 C90.4375,51.0722656 94.1113281,54.1660156 94.1113281,58.4023438 C94.1113281,61.5664062 92.0019531,63.9394531 89.2070312,66.7167969 L83.0195312,72.6757812 L83.0195312,72.78125 L94.4628906,72.78125 L94.4628906,77 L76.0234375,77 L76.0234375,73.4316406 L85.5859375,64.2207031 C88.1523438,61.6542969 88.9433594,60.3710938 88.9433594,58.6132812 C88.9433594,56.7148438 87.2734375,55.203125 84.9179688,55.203125 C82.4570312,55.203125 80.6464844,56.9257812 80.6464844,59.2636719 L80.6464844,59.3515625 L75.7246094,59.3515625 L75.7246094,59.2636719 Z M97.609375,77 L97.609375,58.15625 L102.566406,58.15625 L102.566406,61.5664062 L102.671875,61.5664062 C103.462891,59.2988281 105.484375,57.8046875 108.050781,57.8046875 C110.775391,57.8046875 112.673828,59.2109375 113.306641,61.671875 L113.412109,61.671875 C114.255859,59.2988281 116.505859,57.8046875 119.265625,57.8046875 C122.957031,57.8046875 125.435547,60.3359375 125.435547,64.1328125 L125.435547,77 L120.302734,77 L120.302734,65.4160156 C120.302734,63.2363281 119.212891,62.0410156 117.226562,62.0410156 C115.275391,62.0410156 113.992188,63.4648438 113.992188,65.5566406 L113.992188,77 L109.052734,77 L109.052734,65.2578125 C109.052734,63.2363281 107.910156,62.0410156 106.011719,62.0410156 C104.060547,62.0410156 102.742188,63.5175781 102.742188,65.6269531 L102.742188,77 L97.609375,77 Z M128.6875,77 L128.6875,58.15625 L133.644531,58.15625 L133.644531,61.5664062 L133.75,61.5664062 C134.541016,59.2988281 136.5625,57.8046875 139.128906,57.8046875 C141.853516,57.8046875 143.751953,59.2109375 144.384766,61.671875 L144.490234,61.671875 C145.333984,59.2988281 147.583984,57.8046875 150.34375,57.8046875 C154.035156,57.8046875 156.513672,60.3359375 156.513672,64.1328125 L156.513672,77 L151.380859,77 L151.380859,65.4160156 C151.380859,63.2363281 150.291016,62.0410156 148.304688,62.0410156 C146.353516,62.0410156 145.070312,63.4648438 145.070312,65.5566406 L145.070312,77 L140.130859,77 L140.130859,65.2578125 C140.130859,63.2363281 138.988281,62.0410156 137.089844,62.0410156 C135.138672,62.0410156 133.820312,63.5175781 133.820312,65.6269531 L133.820312,77 L128.6875,77 Z"/>
    </g>
  </g>
</svg>
