<svg xmlns="http://www.w3.org/2000/svg" xmlns:xlink="http://www.w3.org/1999/xlink" width="888" height="1140" viewBox="0 0 888 1140">
  <defs>
    <path id="apple-watch-overview-a" d="M117.850781,199.468481 L54.3375,199.468481 C31.10625,199.468481 20.334375,194.245578 10.7578125,183.968481 C1.17421875,173.705442 0.3121875,157.537642 0.3121875,137.194331 L0.3121875,62.7310658 C0.3121875,42.3877551 1.17421875,26.2269841 10.7578125,15.9569161 C20.334375,5.68684807 31.10625,0.4569161 54.3375,0.4569161 L117.850781,0.4569161 C141.082031,0.4569161 151.853906,5.68684807 161.430469,15.9569161 C168.075,23.0777778 170.521875,33.0244898 171.407813,45.2417234 L171.119531,45.2417234 C169.5375,46.1133787 167.336719,51.0480726 167.336719,55.3360544 L167.336719,68.7061224 C167.336719,72.9941043 169.5375,77.9287982 171.119531,78.8004535 L171.871875,78.8004535 L171.871875,137.194331 C171.871875,157.537642 171.014063,173.705442 161.430469,183.968481 C151.853906,194.245578 141.082031,199.468481 117.850781,199.468481 Z"/>
    <path id="apple-watch-overview-c" d="M117.850781,199.468481 L54.3375,199.468481 C31.10625,199.468481 20.334375,194.245578 10.7578125,183.968481 C1.17421875,173.705442 0.3121875,157.537642 0.3121875,137.194331 L0.3121875,62.7310658 C0.3121875,42.3877551 1.17421875,26.2269841 10.7578125,15.9569161 C20.334375,5.68684807 31.10625,0.4569161 54.3375,0.4569161 L117.850781,0.4569161 C141.082031,0.4569161 151.853906,5.68684807 161.430469,15.9569161 C168.075,23.0777778 170.521875,33.0244898 171.407813,45.2417234 L171.119531,45.2417234 C169.5375,46.1133787 167.336719,51.0480726 167.336719,55.3360544 L167.336719,68.7061224 C167.336719,72.9941043 169.5375,77.9287982 171.119531,78.8004535 L171.871875,78.8004535 L171.871875,137.194331 C171.871875,157.537642 171.014063,173.705442 161.430469,183.968481 C151.853906,194.245578 141.082031,199.468481 117.850781,199.468481 Z"/>
    <path id="apple-watch-overview-e" d="M134.088,227.008 L61.824,227.008 C35.392,227.008 23.136,221.064 12.24,209.368 C1.336,197.688 0.3552,179.288 0.3552,156.136 L0.3552,71.392 C0.3552,48.24 1.336,29.848 12.24,18.16 C23.136,6.472 35.392,0.52 61.824,0.52 L134.088,0.52 C160.52,0.52 172.776,6.472 183.672,18.16 C191.232,26.264 194.016,37.584 195.024,51.488 L194.696,51.488 C192.896,52.48 190.392,58.096 190.392,62.976 L190.392,78.192 C190.392,83.072 192.896,88.688 194.696,89.68 L195.552,89.68 L195.552,156.136 C195.552,179.288 194.576,197.688 183.672,209.368 C172.776,221.064 160.52,227.008 134.088,227.008 Z"/>
    <path id="apple-watch-overview-g" d="M134.088,227.008 L61.824,227.008 C35.392,227.008 23.136,221.064 12.24,209.368 C1.336,197.688 0.3552,179.288 0.3552,156.136 L0.3552,71.392 C0.3552,48.24 1.336,29.848 12.24,18.16 C23.136,6.472 35.392,0.52 61.824,0.52 L134.088,0.52 C160.52,0.52 172.776,6.472 183.672,18.16 C191.232,26.264 194.016,37.584 195.024,51.488 L194.696,51.488 C192.896,52.48 190.392,58.096 190.392,62.976 L190.392,78.192 C190.392,83.072 192.896,88.688 194.696,89.68 L195.552,89.68 L195.552,156.136 C195.552,179.288 194.576,197.688 183.672,209.368 C172.776,221.064 160.52,227.008 134.088,227.008 Z"/>
  </defs>
  <g fill="none" fill-rule="evenodd">
    <rect width="888" height="1140" fill="#F4F4F4"/>
    <g transform="translate(156 55)">
      <path fill="#222" d="M18.8945312,26 L16.9609375,19.8476562 L8.04882812,19.8476562 L6.11523438,26 L0.666015625,26 L9.47265625,0.634765625 L15.7128906,0.634765625 L24.5371094,26 L18.8945312,26 Z M12.4433594,5.48632812 L9.19140625,15.875 L15.8183594,15.875 L12.5664062,5.48632812 L12.4433594,5.48632812 Z M37.6855469,6.85742188 C42.4667969,6.85742188 45.4023438,10.4960938 45.4023438,16.578125 C45.4023438,22.6425781 42.484375,26.2988281 37.7734375,26.2988281 C35.03125,26.2988281 32.921875,24.9628906 31.9199219,22.8359375 L31.8144531,22.8359375 L31.8144531,32.1523438 L26.6816406,32.1523438 L26.6816406,7.15625 L31.7441406,7.15625 L31.7441406,10.4433594 L31.8496094,10.4433594 C32.8691406,8.22851562 34.9609375,6.85742188 37.6855469,6.85742188 Z M35.9628906,22.1679688 C38.5292969,22.1679688 40.1464844,20.0058594 40.1464844,16.578125 C40.1464844,13.1679688 38.5292969,10.9707031 35.9628906,10.9707031 C33.4492188,10.9707031 31.796875,13.203125 31.796875,16.578125 C31.796875,19.9882812 33.4492188,22.1679688 35.9628906,22.1679688 Z M59.0429688,6.85742188 C63.8242188,6.85742188 66.7597656,10.4960938 66.7597656,16.578125 C66.7597656,22.6425781 63.8417969,26.2988281 59.1308594,26.2988281 C56.3886719,26.2988281 54.2792969,24.9628906 53.2773438,22.8359375 L53.171875,22.8359375 L53.171875,32.1523438 L48.0390625,32.1523438 L48.0390625,7.15625 L53.1015625,7.15625 L53.1015625,10.4433594 L53.2070312,10.4433594 C54.2265625,8.22851562 56.3183594,6.85742188 59.0429688,6.85742188 Z M57.3203125,22.1679688 C59.8867188,22.1679688 61.5039062,20.0058594 61.5039062,16.578125 C61.5039062,13.1679688 59.8867188,10.9707031 57.3203125,10.9707031 C54.8066406,10.9707031 53.1542969,13.203125 53.1542969,16.578125 C53.1542969,19.9882812 54.8066406,22.1679688 57.3203125,22.1679688 Z M69.5195312,26 L69.5195312,0.634765625 L74.6523438,0.634765625 L74.6523438,26 L69.5195312,26 Z M86.5703125,10.5488281 C84.3203125,10.5488281 82.703125,12.2539062 82.5273438,14.609375 L90.5253906,14.609375 C90.4199219,12.2011719 88.8554688,10.5488281 86.5703125,10.5488281 Z M90.5957031,20.234375 L95.3066406,20.234375 C94.7441406,23.9257812 91.3691406,26.4042969 86.7109375,26.4042969 C80.9101562,26.4042969 77.4296875,22.6953125 77.4296875,16.6660156 C77.4296875,10.6542969 80.9453125,6.75195312 86.5175781,6.75195312 C92.0019531,6.75195312 95.4648438,10.4609375 95.4648438,16.1914062 L95.4648438,17.7558594 L82.4746094,17.7558594 L82.4746094,18.0722656 C82.4746094,20.7617188 84.1796875,22.6074219 86.7988281,22.6074219 C88.6796875,22.6074219 90.1210938,21.6757812 90.5957031,20.234375 Z M120.847656,8.66796875 L116.03125,26 L111.021484,26 L104.306641,0.634765625 L109.808594,0.634765625 L113.798828,19.0039062 L113.939453,19.0039062 L118.685547,0.634765625 L123.167969,0.634765625 L127.914062,19.0039062 L128.054688,19.0039062 L132.0625,0.634765625 L137.564453,0.634765625 L130.832031,26 L125.822266,26 L121.005859,8.66796875 L120.847656,8.66796875 Z M144.876953,22.5898438 C147.109375,22.5898438 148.955078,21.1308594 148.955078,19.0917969 L148.955078,17.7207031 L144.982422,17.9667969 C143.066406,18.1074219 141.976562,18.96875 141.976562,20.3046875 C141.976562,21.7109375 143.136719,22.5898438 144.876953,22.5898438 Z M143.189453,26.2988281 C139.603516,26.2988281 136.878906,23.9785156 136.878906,20.5859375 C136.878906,17.1582031 139.515625,15.171875 144.208984,14.890625 L148.955078,14.609375 L148.955078,13.3613281 C148.955078,11.6035156 147.724609,10.5839844 145.791016,10.5839844 C143.875,10.5839844 142.662109,11.5332031 142.416016,12.921875 L137.722656,12.921875 C137.916016,9.265625 141.027344,6.75195312 146.019531,6.75195312 C150.853516,6.75195312 154,9.24804688 154,13.0449219 L154,26 L149.042969,26 L149.042969,23.1171875 L148.9375,23.1171875 C147.882812,25.1210938 145.544922,26.2988281 143.189453,26.2988281 Z M158.675781,2.81445312 L163.808594,2.81445312 L163.808594,7.15625 L167.289062,7.15625 L167.289062,11.0234375 L163.808594,11.0234375 L163.808594,20.0410156 C163.808594,21.4824219 164.511719,22.1679688 166.023438,22.1679688 C166.480469,22.1679688 166.955078,22.1328125 167.271484,22.0800781 L167.271484,25.859375 C166.744141,25.9824219 165.865234,26.0703125 164.828125,26.0703125 C160.398438,26.0703125 158.675781,24.59375 158.675781,20.9199219 L158.675781,11.0234375 L156.021484,11.0234375 L156.021484,7.15625 L158.675781,7.15625 L158.675781,2.81445312 Z M186.958984,14.1699219 L182.195312,14.1699219 C181.896484,12.1835938 180.578125,10.7773438 178.46875,10.7773438 C175.9375,10.7773438 174.355469,12.921875 174.355469,16.5605469 C174.355469,20.2695312 175.9375,22.3789062 178.486328,22.3789062 C180.542969,22.3789062 181.878906,21.1484375 182.195312,19.0917969 L186.976562,19.0917969 C186.712891,23.5390625 183.390625,26.4042969 178.433594,26.4042969 C172.755859,26.4042969 169.152344,22.7128906 169.152344,16.5605469 C169.152344,10.5136719 172.755859,6.75195312 178.398438,6.75195312 C183.496094,6.75195312 186.730469,9.8984375 186.958984,14.1699219 Z M189.578125,26 L189.578125,0.634765625 L194.623047,0.634765625 L194.623047,10.5136719 L194.728516,10.5136719 C195.730469,8.140625 197.787109,6.8046875 200.652344,6.8046875 C204.835938,6.8046875 207.226562,9.51171875 207.226562,13.8710938 L207.226562,26 L202.09375,26 L202.09375,14.9609375 C202.09375,12.5351562 200.898438,11.0585938 198.560547,11.0585938 C196.134766,11.0585938 194.710938,12.7636719 194.710938,15.2421875 L194.710938,26 L189.578125,26 Z M58.3046875,57.9257812 L58.3046875,54.09375 L61.3808594,54.09375 C63.8066406,54.09375 65.4414062,52.6523438 65.4414062,50.5605469 C65.4414062,48.5039062 63.9824219,47.1503906 61.3457031,47.1503906 C58.8847656,47.1503906 57.25,48.609375 57.109375,50.8242188 L52.2226562,50.8242188 C52.4160156,46.1308594 56.0722656,43.0722656 61.5742188,43.0722656 C66.8476562,43.0722656 70.4511719,45.7792969 70.4511719,49.8398438 C70.4511719,52.9511719 68.3242188,55.2011719 65.2128906,55.7636719 L65.2128906,55.8691406 C68.9921875,56.1855469 71.4355469,58.4707031 71.4355469,61.9863281 C71.4355469,66.5390625 67.3046875,69.5625 61.4511719,69.5625 C55.7207031,69.5625 51.9765625,66.4160156 51.7304688,61.7402344 L56.8105469,61.7402344 C56.96875,63.8847656 58.7265625,65.2910156 61.5214844,65.2910156 C64.1757812,65.2910156 66.0390625,63.796875 66.0390625,61.6523438 C66.0390625,59.3320312 64.2988281,57.9257812 61.4335938,57.9257812 L58.3046875,57.9257812 Z M84.7597656,69.5625 C78.6074219,69.5625 74.4765625,66.5214844 74.4765625,62.1269531 C74.4765625,58.7871094 76.9023438,56.203125 80.4355469,55.6230469 L80.4355469,55.5175781 C77.4824219,54.8320312 75.4960938,52.5644531 75.4960938,49.7695312 C75.4960938,45.9023438 79.328125,43.0722656 84.7597656,43.0722656 C90.2089844,43.0722656 94.0058594,45.8847656 94.0058594,49.7871094 C94.0058594,52.546875 92.0371094,54.8144531 89.0839844,55.5175781 L89.0839844,55.6230469 C92.6347656,56.2207031 95.0429688,58.8046875 95.0429688,62.1445312 C95.0429688,66.5390625 90.859375,69.5625 84.7597656,69.5625 Z M84.7597656,65.6953125 C87.5546875,65.6953125 89.4882812,64.0253906 89.4882812,61.7402344 C89.4882812,59.4550781 87.5546875,57.7851562 84.7597656,57.7851562 C81.9648438,57.7851562 80.0136719,59.4550781 80.0136719,61.7402344 C80.0136719,64.0253906 81.9648438,65.6953125 84.7597656,65.6953125 Z M84.7597656,53.9179688 C87.0976562,53.9179688 88.7675781,52.4414062 88.7675781,50.4199219 C88.7675781,48.3808594 87.0976562,46.9042969 84.7597656,46.9042969 C82.4042969,46.9042969 80.7519531,48.3984375 80.7519531,50.4199219 C80.7519531,52.4414062 82.4042969,53.9179688 84.7597656,53.9179688 Z M98.171875,69 L98.171875,50.15625 L103.128906,50.15625 L103.128906,53.5664062 L103.234375,53.5664062 C104.025391,51.2988281 106.046875,49.8046875 108.613281,49.8046875 C111.337891,49.8046875 113.236328,51.2109375 113.869141,53.671875 L113.974609,53.671875 C114.818359,51.2988281 117.068359,49.8046875 119.828125,49.8046875 C123.519531,49.8046875 125.998047,52.3359375 125.998047,56.1328125 L125.998047,69 L120.865234,69 L120.865234,57.4160156 C120.865234,55.2363281 119.775391,54.0410156 117.789062,54.0410156 C115.837891,54.0410156 114.554688,55.4648438 114.554688,57.5566406 L114.554688,69 L109.615234,69 L109.615234,57.2578125 C109.615234,55.2363281 108.472656,54.0410156 106.574219,54.0410156 C104.623047,54.0410156 103.304688,55.5175781 103.304688,57.6269531 L103.304688,69 L98.171875,69 Z M129.25,69 L129.25,50.15625 L134.207031,50.15625 L134.207031,53.5664062 L134.3125,53.5664062 C135.103516,51.2988281 137.125,49.8046875 139.691406,49.8046875 C142.416016,49.8046875 144.314453,51.2109375 144.947266,53.671875 L145.052734,53.671875 C145.896484,51.2988281 148.146484,49.8046875 150.90625,49.8046875 C154.597656,49.8046875 157.076172,52.3359375 157.076172,56.1328125 L157.076172,69 L151.943359,69 L151.943359,57.4160156 C151.943359,55.2363281 150.853516,54.0410156 148.867188,54.0410156 C146.916016,54.0410156 145.632812,55.4648438 145.632812,57.5566406 L145.632812,69 L140.693359,69 L140.693359,57.2578125 C140.693359,55.2363281 139.550781,54.0410156 137.652344,54.0410156 C135.701172,54.0410156 134.382812,55.5175781 134.382812,57.6269531 L134.382812,69 L129.25,69 Z"/>
      <g transform="translate(18 139)">
        <g fill="#B6B6B6" transform="translate(12.512)">
          <path d="M68.8170732,0.347727273 C72.8828415,0.349118182 111.066585,0.891572727 114.695122,8.34545455 C117.066878,13.2178091 118.479608,37.1149582 118.707263,38.4293439 C121.099671,52.2421472 124.448378,57.8089636 137.121146,64.8128864 L0.513,64.8128864 C13.1857683,57.8089636 16.5344755,52.2421472 18.9268838,38.4293439 C19.1545383,37.1149582 20.5672683,13.2178091 22.9390244,8.34545455 C26.567561,0.891572727 64.7513049,0.349118182 68.8170732,0.347727273 Z"/>
          <path d="M68.8170732,240.975 C72.8828415,240.976391 111.066585,241.518845 114.695122,248.972727 C117.066878,253.845082 118.479608,277.742231 118.707263,279.056617 C121.099671,292.86942 124.448378,298.436236 137.121146,305.440159 L0.513,305.440159 C13.1857683,298.436236 16.5344755,292.86942 18.9268838,279.056617 C19.1545383,277.742231 20.5672683,253.845082 22.9390244,248.972727 C26.567561,241.518845 64.7513049,240.976391 68.8170732,240.975 Z" transform="matrix(1 0 0 -1 0 546.415)"/>
        </g>
        <g transform="translate(157.098 102.232)">
          <rect width="4.866" height="31.991" fill="#030303"/>
          <path fill="#3B3B3B" d="M13.554878 6.95454545L13.554878 25.7318182C13.554878 26.23185 13.9730012 32.6863636 9.55514634 32.6863636L2.7804878 32.6863636 2.7804878 0 9.55514634 0C13.9730012 0 13.554878 6.45451364 13.554878 6.95454545zM6.0197561 103.275L3.41235366 103.275 3.41235366 55.6363636 6.0197561 55.6363636C6.50773171 55.6363636 6.95121951 56.2337591 6.95121951 56.6795455L6.95121951 102.231818C6.95121951 102.677605 6.50773171 103.275 6.0197561 103.275z"/>
        </g>
        <g transform="translate(0 58.418)">
          <path fill="#4A4A4A" d="M161.963415,41.3795455 C161.963415,42.0662513 161.963415,42.5812807 161.963415,42.9246336 C161.963415,43.8136364 157.792683,45.2045455 157.792683,59.8090909 C157.792683,74.4136364 161.963415,76.6116606 161.963415,77.1954545 C161.963415,77.7588123 161.963415,85.1875488 161.963415,99.45 C160.573171,102.927273 160.573171,102.927273 160.573171,122.856954 C160.573171,142.786636 160.573171,145.35 161.963415,147.436364 C161.963415,158.820951 160.887284,169.871638 154.420655,177.308815 C147.954027,184.745992 142.5,188.468182 123.699462,188.468182 L38.5792683,188.468182 C20.1585366,188.468182 14.3569484,184.745992 7.89032015,177.308815 C1.42369188,169.871638 0.347560976,158.819757 0.347560976,147.436364 L0.347560976,41.3795455 C0.347560976,29.9961524 1.42369188,18.9442707 7.89032015,11.5070938 C14.3569484,4.06991676 20.1585366,0.347727273 38.5792683,0.347727273 L123.699462,0.347727273 C142.5,0.347727273 147.954027,4.06991676 154.420655,11.5070938 C160.887284,18.9442707 161.963415,29.9961524 161.963415,41.3795455 Z"/>
          <path fill="#000" stroke="#222" stroke-width=".696" d="M129.441019,6.73964491 C139.498414,6.73964491 144.933663,8.42153774 150.896075,15.3068885 C156.333711,21.5862329 156.458302,32.096725 156.439697,41.8900973 L156.437433,42.9181162 C156.435953,43.5645989 156.434482,44.2072817 156.434484,44.8435576 L156.434484,44.8435576 L156.092874,144.236263 C156.092874,144.873735 156.094345,145.516418 156.095825,146.162901 C156.118896,156.241505 156.182897,167.274456 150.554466,173.774129 C144.592055,180.659479 139.156806,182.341372 129.09941,182.341372 L129.09941,182.341372 L32.9408739,182.341372 C22.8834787,182.341372 17.4482294,180.659479 11.4858181,173.774129 C6.04818172,167.494784 5.92359044,156.984292 5.94219568,147.19092 L5.94445968,146.162901 C5.94593957,145.516418 5.94741046,144.873735 5.9474084,144.23746 L5.9474084,144.23746 L6.28901892,44.8447536 C6.28901892,44.2072817 6.28754804,43.5645989 6.28606815,42.9181162 C6.2629968,32.8395126 6.19899592,21.8065607 11.8274266,15.3068885 C17.7898379,8.42153774 23.2250871,6.73964491 33.2824823,6.73964491 L33.2824823,6.73964491 Z"/>
          <polygon fill="#000" points="27.168 26.366 135.841 26.366 135.841 162.188 27.168 162.188"/>
          <polygon fill="#000" points="0 0 108.673 0 108.673 135.822 0 135.822" transform="translate(27.168 26.366)"/>
        </g>
      </g>
      <g transform="translate(367)">
        <path fill="#222" d="M18.8945312,26 L16.9609375,19.8476562 L8.04882812,19.8476562 L6.11523438,26 L0.666015625,26 L9.47265625,0.634765625 L15.7128906,0.634765625 L24.5371094,26 L18.8945312,26 Z M12.4433594,5.48632812 L9.19140625,15.875 L15.8183594,15.875 L12.5664062,5.48632812 L12.4433594,5.48632812 Z M37.6855469,6.85742188 C42.4667969,6.85742188 45.4023438,10.4960938 45.4023438,16.578125 C45.4023438,22.6425781 42.484375,26.2988281 37.7734375,26.2988281 C35.03125,26.2988281 32.921875,24.9628906 31.9199219,22.8359375 L31.8144531,22.8359375 L31.8144531,32.1523438 L26.6816406,32.1523438 L26.6816406,7.15625 L31.7441406,7.15625 L31.7441406,10.4433594 L31.8496094,10.4433594 C32.8691406,8.22851562 34.9609375,6.85742188 37.6855469,6.85742188 Z M35.9628906,22.1679688 C38.5292969,22.1679688 40.1464844,20.0058594 40.1464844,16.578125 C40.1464844,13.1679688 38.5292969,10.9707031 35.9628906,10.9707031 C33.4492188,10.9707031 31.796875,13.203125 31.796875,16.578125 C31.796875,19.9882812 33.4492188,22.1679688 35.9628906,22.1679688 Z M59.0429688,6.85742188 C63.8242188,6.85742188 66.7597656,10.4960938 66.7597656,16.578125 C66.7597656,22.6425781 63.8417969,26.2988281 59.1308594,26.2988281 C56.3886719,26.2988281 54.2792969,24.9628906 53.2773438,22.8359375 L53.171875,22.8359375 L53.171875,32.1523438 L48.0390625,32.1523438 L48.0390625,7.15625 L53.1015625,7.15625 L53.1015625,10.4433594 L53.2070312,10.4433594 C54.2265625,8.22851562 56.3183594,6.85742188 59.0429688,6.85742188 Z M57.3203125,22.1679688 C59.8867188,22.1679688 61.5039062,20.0058594 61.5039062,16.578125 C61.5039062,13.1679688 59.8867188,10.9707031 57.3203125,10.9707031 C54.8066406,10.9707031 53.1542969,13.203125 53.1542969,16.578125 C53.1542969,19.9882812 54.8066406,22.1679688 57.3203125,22.1679688 Z M69.5195312,26 L69.5195312,0.634765625 L74.6523438,0.634765625 L74.6523438,26 L69.5195312,26 Z M86.5703125,10.5488281 C84.3203125,10.5488281 82.703125,12.2539062 82.5273438,14.609375 L90.5253906,14.609375 C90.4199219,12.2011719 88.8554688,10.5488281 86.5703125,10.5488281 Z M90.5957031,20.234375 L95.3066406,20.234375 C94.7441406,23.9257812 91.3691406,26.4042969 86.7109375,26.4042969 C80.9101562,26.4042969 77.4296875,22.6953125 77.4296875,16.6660156 C77.4296875,10.6542969 80.9453125,6.75195312 86.5175781,6.75195312 C92.0019531,6.75195312 95.4648438,10.4609375 95.4648438,16.1914062 L95.4648438,17.7558594 L82.4746094,17.7558594 L82.4746094,18.0722656 C82.4746094,20.7617188 84.1796875,22.6074219 86.7988281,22.6074219 C88.6796875,22.6074219 90.1210938,21.6757812 90.5957031,20.234375 Z M120.847656,8.66796875 L116.03125,26 L111.021484,26 L104.306641,0.634765625 L109.808594,0.634765625 L113.798828,19.0039062 L113.939453,19.0039062 L118.685547,0.634765625 L123.167969,0.634765625 L127.914062,19.0039062 L128.054688,19.0039062 L132.0625,0.634765625 L137.564453,0.634765625 L130.832031,26 L125.822266,26 L121.005859,8.66796875 L120.847656,8.66796875 Z M144.876953,22.5898438 C147.109375,22.5898438 148.955078,21.1308594 148.955078,19.0917969 L148.955078,17.7207031 L144.982422,17.9667969 C143.066406,18.1074219 141.976562,18.96875 141.976562,20.3046875 C141.976562,21.7109375 143.136719,22.5898438 144.876953,22.5898438 Z M143.189453,26.2988281 C139.603516,26.2988281 136.878906,23.9785156 136.878906,20.5859375 C136.878906,17.1582031 139.515625,15.171875 144.208984,14.890625 L148.955078,14.609375 L148.955078,13.3613281 C148.955078,11.6035156 147.724609,10.5839844 145.791016,10.5839844 C143.875,10.5839844 142.662109,11.5332031 142.416016,12.921875 L137.722656,12.921875 C137.916016,9.265625 141.027344,6.75195312 146.019531,6.75195312 C150.853516,6.75195312 154,9.24804688 154,13.0449219 L154,26 L149.042969,26 L149.042969,23.1171875 L148.9375,23.1171875 C147.882812,25.1210938 145.544922,26.2988281 143.189453,26.2988281 Z M158.675781,2.81445312 L163.808594,2.81445312 L163.808594,7.15625 L167.289062,7.15625 L167.289062,11.0234375 L163.808594,11.0234375 L163.808594,20.0410156 C163.808594,21.4824219 164.511719,22.1679688 166.023438,22.1679688 C166.480469,22.1679688 166.955078,22.1328125 167.271484,22.0800781 L167.271484,25.859375 C166.744141,25.9824219 165.865234,26.0703125 164.828125,26.0703125 C160.398438,26.0703125 158.675781,24.59375 158.675781,20.9199219 L158.675781,11.0234375 L156.021484,11.0234375 L156.021484,7.15625 L158.675781,7.15625 L158.675781,2.81445312 Z M186.958984,14.1699219 L182.195312,14.1699219 C181.896484,12.1835938 180.578125,10.7773438 178.46875,10.7773438 C175.9375,10.7773438 174.355469,12.921875 174.355469,16.5605469 C174.355469,20.2695312 175.9375,22.3789062 178.486328,22.3789062 C180.542969,22.3789062 181.878906,21.1484375 182.195312,19.0917969 L186.976562,19.0917969 C186.712891,23.5390625 183.390625,26.4042969 178.433594,26.4042969 C172.755859,26.4042969 169.152344,22.7128906 169.152344,16.5605469 C169.152344,10.5136719 172.755859,6.75195312 178.398438,6.75195312 C183.496094,6.75195312 186.730469,9.8984375 186.958984,14.1699219 Z M189.578125,26 L189.578125,0.634765625 L194.623047,0.634765625 L194.623047,10.5136719 L194.728516,10.5136719 C195.730469,8.140625 197.787109,6.8046875 200.652344,6.8046875 C204.835938,6.8046875 207.226562,9.51171875 207.226562,13.8710938 L207.226562,26 L202.09375,26 L202.09375,14.9609375 C202.09375,12.5351562 200.898438,11.0585938 198.560547,11.0585938 C196.134766,11.0585938 194.710938,12.7636719 194.710938,15.2421875 L194.710938,26 L189.578125,26 Z M64.7910156,69 L64.7910156,64.4824219 L52.1699219,64.4824219 L52.1699219,59.9648438 C54.3847656,55.7460938 57.1445312,51.2988281 62.3476562,43.6347656 L69.8359375,43.6347656 L69.8359375,60.2285156 L73.140625,60.2285156 L73.140625,64.4824219 L69.8359375,64.4824219 L69.8359375,69 L64.7910156,69 Z M56.828125,60.2460938 L56.828125,60.3867188 L64.8964844,60.3867188 L64.8964844,47.3964844 L64.7910156,47.3964844 C61.0996094,52.8105469 58.8847656,56.2734375 56.828125,60.2460938 Z M75.7246094,51.2636719 C75.7246094,46.4648438 79.5566406,43.0722656 85.09375,43.0722656 C90.4375,43.0722656 94.1113281,46.1660156 94.1113281,50.4023438 C94.1113281,53.5664062 92.0019531,55.9394531 89.2070312,58.7167969 L83.0195312,64.6757812 L83.0195312,64.78125 L94.4628906,64.78125 L94.4628906,69 L76.0234375,69 L76.0234375,65.4316406 L85.5859375,56.2207031 C88.1523438,53.6542969 88.9433594,52.3710938 88.9433594,50.6132812 C88.9433594,48.7148438 87.2734375,47.203125 84.9179688,47.203125 C82.4570312,47.203125 80.6464844,48.9257812 80.6464844,51.2636719 L80.6464844,51.3515625 L75.7246094,51.3515625 L75.7246094,51.2636719 Z M97.609375,69 L97.609375,50.15625 L102.566406,50.15625 L102.566406,53.5664062 L102.671875,53.5664062 C103.462891,51.2988281 105.484375,49.8046875 108.050781,49.8046875 C110.775391,49.8046875 112.673828,51.2109375 113.306641,53.671875 L113.412109,53.671875 C114.255859,51.2988281 116.505859,49.8046875 119.265625,49.8046875 C122.957031,49.8046875 125.435547,52.3359375 125.435547,56.1328125 L125.435547,69 L120.302734,69 L120.302734,57.4160156 C120.302734,55.2363281 119.212891,54.0410156 117.226562,54.0410156 C115.275391,54.0410156 113.992188,55.4648438 113.992188,57.5566406 L113.992188,69 L109.052734,69 L109.052734,57.2578125 C109.052734,55.2363281 107.910156,54.0410156 106.011719,54.0410156 C104.060547,54.0410156 102.742188,55.5175781 102.742188,57.6269531 L102.742188,69 L97.609375,69 Z M128.6875,69 L128.6875,50.15625 L133.644531,50.15625 L133.644531,53.5664062 L133.75,53.5664062 C134.541016,51.2988281 136.5625,49.8046875 139.128906,49.8046875 C141.853516,49.8046875 143.751953,51.2109375 144.384766,53.671875 L144.490234,53.671875 C145.333984,51.2988281 147.583984,49.8046875 150.34375,49.8046875 C154.035156,49.8046875 156.513672,52.3359375 156.513672,56.1328125 L156.513672,69 L151.380859,69 L151.380859,57.4160156 C151.380859,55.2363281 150.291016,54.0410156 148.304688,54.0410156 C146.353516,54.0410156 145.070312,55.4648438 145.070312,57.5566406 L145.070312,69 L140.130859,69 L140.130859,57.2578125 C140.130859,55.2363281 138.988281,54.0410156 137.089844,54.0410156 C135.138672,54.0410156 133.820312,55.5175781 133.820312,57.6269531 L133.820312,69 L128.6875,69 Z"/>
        <g transform="translate(13 116)">
          <g fill="#B6B6B6" transform="translate(13.971)">
            <path d="M79.0386965,0.4 C83.7083666,0.4016 127.563666,1.0256 131.731161,9.6 C134.455202,15.2048 136.077769,42.694331 136.339238,44.2063041 C139.086998,60.0955419 142.9331,66.4992 157.488196,74.556 L0.589197556,74.556 C15.1442933,66.4992 18.9903949,60.0955419 21.7381553,44.2063041 C21.9996241,42.694331 23.6221914,15.2048 26.3462322,9.6 C30.5137271,1.0256 74.3690265,0.4016 79.0386965,0.4 Z"/>
            <path d="M79.0386965,277.2 C83.7083666,277.2016 127.563666,277.8256 131.731161,286.4 C134.455202,292.0048 136.077769,319.494331 136.339238,321.006304 C139.086998,336.895542 142.9331,343.2992 157.488196,351.356 L0.589197556,351.356 C15.1442933,343.2992 18.9903949,336.895542 21.7381553,321.006304 C21.9996241,319.494331 23.6221914,292.0048 26.3462322,286.4 C30.5137271,277.8256 74.3690265,277.2016 79.0386965,277.2 Z" transform="matrix(1 0 0 -1 0 628.556)"/>
          </g>
          <g transform="translate(180.033 117.6)">
            <rect width="5.589" height="36.8" fill="#111"/>
            <path fill="#3B3B3B" d="M15.5682281 8L15.5682281 29.6C15.5682281 30.1752 16.0484565 37.6 10.9744033 37.6L3.19348269 37.6 3.19348269 0 10.9744033 0C16.0484565 0 15.5682281 7.4248 15.5682281 8zM6.91389002 118.8L3.91920163 118.8 3.91920163 64 6.91389002 64C7.47434623 64 7.98370672 64.6872 7.98370672 65.2L7.98370672 117.6C7.98370672 118.1128 7.47434623 118.8 6.91389002 118.8z"/>
          </g>
          <g transform="translate(0 67.6)">
            <path fill="#4A4A4A" d="M185.621181,47.2 C185.621181,47.9899361 185.621181,48.5823883 185.621181,48.9773563 C185.621181,50 180.830957,51.6 180.830957,68.4 C180.830957,85.2 185.621181,87.7284461 185.621181,88.4 C185.621181,89.0480455 185.621181,97.5935201 185.621181,114 C184.02444,118 184.02444,118 184.02444,140.925647 C184.02444,163.851293 184.02444,166.8 185.621181,169.2 C185.621181,182.295996 184.385209,195.007898 176.958072,203.563082 C169.530934,212.118266 163.266802,216.4 141.67376,216.4 L43.910387,216.4 C22.7535642,216.4 16.0902472,212.118266 8.66310969,203.563082 C1.23597213,195.007898 -7.26113896e-12,182.294622 -7.26113896e-12,169.2 L-7.26113896e-12,47.2 C-7.26113896e-12,34.1053779 1.23597213,21.3921023 8.66310969,12.8369183 C16.0902472,4.28173432 22.7535642,-1.45519152e-12 43.910387,-1.45519152e-12 L141.67376,-1.45519152e-12 C163.266802,-1.45519152e-12 169.530934,4.28173432 176.958072,12.8369183 C184.385209,21.3921023 185.621181,34.1053779 185.621181,47.2 Z"/>
            <path fill="#000" stroke="#222" stroke-width=".696" d="M148.230821,7.148 C159.801151,7.148 166.052728,9.08808812 172.911565,17.0209946 C179.383038,24.5058763 179.315321,37.2095842 179.28879,48.8174998 C179.287091,49.5611255 179.285401,50.3003804 179.285403,51.0324472 L179.285403,51.0324472 L178.893053,165.366359 C178.893053,166.09962 178.894742,166.838874 178.896441,167.5825 C178.922972,179.190416 178.99069,191.894124 172.519217,199.379005 C165.660379,207.311912 159.408802,209.252 147.838473,209.252 L147.838473,209.252 L37.3971965,209.252 C25.8268673,209.252 19.5752902,207.311912 12.7164524,199.379005 C6.24497953,191.894124 6.31269706,179.190416 6.33922778,167.5825 C6.34092739,166.838874 6.3426167,166.09962 6.34261465,165.367553 L6.34261465,165.367553 L6.73496538,51.0336414 C6.73496538,50.3003804 6.73327606,49.5611255 6.73157645,48.8174998 C6.70504573,37.2095842 6.63732821,24.5058763 13.1088011,17.0209946 C19.9676389,9.08808812 26.219216,7.148 37.7895451,7.148 L37.7895451,7.148 L148.230821,7.148 Z"/>
            <polygon fill="#000" points="30.737 30 155.283 30 155.283 186 30.737 186"/>
            <polygon fill="#000" points="0 0 124.546 0 124.546 156 0 156" transform="translate(30.737 30)"/>
          </g>
        </g>
      </g>
    </g>
    <g transform="translate(156 608)">
      <path fill="#222" d="M18.8945312,26 L16.9609375,19.8476562 L8.04882812,19.8476562 L6.11523438,26 L0.666015625,26 L9.47265625,0.634765625 L15.7128906,0.634765625 L24.5371094,26 L18.8945312,26 Z M12.4433594,5.48632812 L9.19140625,15.875 L15.8183594,15.875 L12.5664062,5.48632812 L12.4433594,5.48632812 Z M37.6855469,6.85742188 C42.4667969,6.85742188 45.4023438,10.4960938 45.4023438,16.578125 C45.4023438,22.6425781 42.484375,26.2988281 37.7734375,26.2988281 C35.03125,26.2988281 32.921875,24.9628906 31.9199219,22.8359375 L31.8144531,22.8359375 L31.8144531,32.1523438 L26.6816406,32.1523438 L26.6816406,7.15625 L31.7441406,7.15625 L31.7441406,10.4433594 L31.8496094,10.4433594 C32.8691406,8.22851562 34.9609375,6.85742188 37.6855469,6.85742188 Z M35.9628906,22.1679688 C38.5292969,22.1679688 40.1464844,20.0058594 40.1464844,16.578125 C40.1464844,13.1679688 38.5292969,10.9707031 35.9628906,10.9707031 C33.4492188,10.9707031 31.796875,13.203125 31.796875,16.578125 C31.796875,19.9882812 33.4492188,22.1679688 35.9628906,22.1679688 Z M59.0429688,6.85742188 C63.8242188,6.85742188 66.7597656,10.4960938 66.7597656,16.578125 C66.7597656,22.6425781 63.8417969,26.2988281 59.1308594,26.2988281 C56.3886719,26.2988281 54.2792969,24.9628906 53.2773438,22.8359375 L53.171875,22.8359375 L53.171875,32.1523438 L48.0390625,32.1523438 L48.0390625,7.15625 L53.1015625,7.15625 L53.1015625,10.4433594 L53.2070312,10.4433594 C54.2265625,8.22851562 56.3183594,6.85742188 59.0429688,6.85742188 Z M57.3203125,22.1679688 C59.8867188,22.1679688 61.5039062,20.0058594 61.5039062,16.578125 C61.5039062,13.1679688 59.8867188,10.9707031 57.3203125,10.9707031 C54.8066406,10.9707031 53.1542969,13.203125 53.1542969,16.578125 C53.1542969,19.9882812 54.8066406,22.1679688 57.3203125,22.1679688 Z M69.5195312,26 L69.5195312,0.634765625 L74.6523438,0.634765625 L74.6523438,26 L69.5195312,26 Z M86.5703125,10.5488281 C84.3203125,10.5488281 82.703125,12.2539062 82.5273438,14.609375 L90.5253906,14.609375 C90.4199219,12.2011719 88.8554688,10.5488281 86.5703125,10.5488281 Z M90.5957031,20.234375 L95.3066406,20.234375 C94.7441406,23.9257812 91.3691406,26.4042969 86.7109375,26.4042969 C80.9101562,26.4042969 77.4296875,22.6953125 77.4296875,16.6660156 C77.4296875,10.6542969 80.9453125,6.75195312 86.5175781,6.75195312 C92.0019531,6.75195312 95.4648438,10.4609375 95.4648438,16.1914062 L95.4648438,17.7558594 L82.4746094,17.7558594 L82.4746094,18.0722656 C82.4746094,20.7617188 84.1796875,22.6074219 86.7988281,22.6074219 C88.6796875,22.6074219 90.1210938,21.6757812 90.5957031,20.234375 Z M120.847656,8.66796875 L116.03125,26 L111.021484,26 L104.306641,0.634765625 L109.808594,0.634765625 L113.798828,19.0039062 L113.939453,19.0039062 L118.685547,0.634765625 L123.167969,0.634765625 L127.914062,19.0039062 L128.054688,19.0039062 L132.0625,0.634765625 L137.564453,0.634765625 L130.832031,26 L125.822266,26 L121.005859,8.66796875 L120.847656,8.66796875 Z M144.876953,22.5898438 C147.109375,22.5898438 148.955078,21.1308594 148.955078,19.0917969 L148.955078,17.7207031 L144.982422,17.9667969 C143.066406,18.1074219 141.976562,18.96875 141.976562,20.3046875 C141.976562,21.7109375 143.136719,22.5898438 144.876953,22.5898438 Z M143.189453,26.2988281 C139.603516,26.2988281 136.878906,23.9785156 136.878906,20.5859375 C136.878906,17.1582031 139.515625,15.171875 144.208984,14.890625 L148.955078,14.609375 L148.955078,13.3613281 C148.955078,11.6035156 147.724609,10.5839844 145.791016,10.5839844 C143.875,10.5839844 142.662109,11.5332031 142.416016,12.921875 L137.722656,12.921875 C137.916016,9.265625 141.027344,6.75195312 146.019531,6.75195312 C150.853516,6.75195312 154,9.24804688 154,13.0449219 L154,26 L149.042969,26 L149.042969,23.1171875 L148.9375,23.1171875 C147.882812,25.1210938 145.544922,26.2988281 143.189453,26.2988281 Z M158.675781,2.81445312 L163.808594,2.81445312 L163.808594,7.15625 L167.289062,7.15625 L167.289062,11.0234375 L163.808594,11.0234375 L163.808594,20.0410156 C163.808594,21.4824219 164.511719,22.1679688 166.023438,22.1679688 C166.480469,22.1679688 166.955078,22.1328125 167.271484,22.0800781 L167.271484,25.859375 C166.744141,25.9824219 165.865234,26.0703125 164.828125,26.0703125 C160.398438,26.0703125 158.675781,24.59375 158.675781,20.9199219 L158.675781,11.0234375 L156.021484,11.0234375 L156.021484,7.15625 L158.675781,7.15625 L158.675781,2.81445312 Z M186.958984,14.1699219 L182.195312,14.1699219 C181.896484,12.1835938 180.578125,10.7773438 178.46875,10.7773438 C175.9375,10.7773438 174.355469,12.921875 174.355469,16.5605469 C174.355469,20.2695312 175.9375,22.3789062 178.486328,22.3789062 C180.542969,22.3789062 181.878906,21.1484375 182.195312,19.0917969 L186.976562,19.0917969 C186.712891,23.5390625 183.390625,26.4042969 178.433594,26.4042969 C172.755859,26.4042969 169.152344,22.7128906 169.152344,16.5605469 C169.152344,10.5136719 172.755859,6.75195312 178.398438,6.75195312 C183.496094,6.75195312 186.730469,9.8984375 186.958984,14.1699219 Z M189.578125,26 L189.578125,0.634765625 L194.623047,0.634765625 L194.623047,10.5136719 L194.728516,10.5136719 C195.730469,8.140625 197.787109,6.8046875 200.652344,6.8046875 C204.835938,6.8046875 207.226562,9.51171875 207.226562,13.8710938 L207.226562,26 L202.09375,26 L202.09375,14.9609375 C202.09375,12.5351562 200.898438,11.0585938 198.560547,11.0585938 C196.134766,11.0585938 194.710938,12.7636719 194.710938,15.2421875 L194.710938,26 L189.578125,26 Z M63.9736328,69 L63.9736328,64.4824219 L51.3525391,64.4824219 L51.3525391,59.9648438 C53.5673828,55.7460938 56.3271484,51.2988281 61.5302734,43.6347656 L69.0185547,43.6347656 L69.0185547,60.2285156 L72.3232422,60.2285156 L72.3232422,64.4824219 L69.0185547,64.4824219 L69.0185547,69 L63.9736328,69 Z M56.0107422,60.2460938 L56.0107422,60.3867188 L64.0791016,60.3867188 L64.0791016,47.3964844 L63.9736328,47.3964844 C60.2822266,52.8105469 58.0673828,56.2734375 56.0107422,60.2460938 Z M85.0498047,69.5625 C78.6689453,69.5625 74.7841797,64.4824219 74.7841797,56.2734375 C74.7841797,48.0820312 78.7041016,43.0546875 85.0498047,43.0546875 C91.3955078,43.0546875 95.2978516,48.0644531 95.2978516,56.2558594 C95.2978516,64.4472656 91.4306641,69.5625 85.0498047,69.5625 Z M85.0498047,65.3085938 C88.0732422,65.3085938 89.9013672,62.0566406 89.9013672,56.2734375 C89.9013672,50.5429688 88.0556641,47.3085938 85.0498047,47.3085938 C82.0615234,47.3085938 80.1806641,50.5605469 80.1806641,56.2734375 C80.1806641,62.0390625 82.0263672,65.3085938 85.0498047,65.3085938 Z M98.4267578,69 L98.4267578,50.15625 L103.383789,50.15625 L103.383789,53.5664062 L103.489258,53.5664062 C104.280273,51.2988281 106.301758,49.8046875 108.868164,49.8046875 C111.592773,49.8046875 113.491211,51.2109375 114.124023,53.671875 L114.229492,53.671875 C115.073242,51.2988281 117.323242,49.8046875 120.083008,49.8046875 C123.774414,49.8046875 126.25293,52.3359375 126.25293,56.1328125 L126.25293,69 L121.120117,69 L121.120117,57.4160156 C121.120117,55.2363281 120.030273,54.0410156 118.043945,54.0410156 C116.092773,54.0410156 114.80957,55.4648438 114.80957,57.5566406 L114.80957,69 L109.870117,69 L109.870117,57.2578125 C109.870117,55.2363281 108.727539,54.0410156 106.829102,54.0410156 C104.87793,54.0410156 103.55957,55.5175781 103.55957,57.6269531 L103.55957,69 L98.4267578,69 Z M129.504883,69 L129.504883,50.15625 L134.461914,50.15625 L134.461914,53.5664062 L134.567383,53.5664062 C135.358398,51.2988281 137.379883,49.8046875 139.946289,49.8046875 C142.670898,49.8046875 144.569336,51.2109375 145.202148,53.671875 L145.307617,53.671875 C146.151367,51.2988281 148.401367,49.8046875 151.161133,49.8046875 C154.852539,49.8046875 157.331055,52.3359375 157.331055,56.1328125 L157.331055,69 L152.198242,69 L152.198242,57.4160156 C152.198242,55.2363281 151.108398,54.0410156 149.12207,54.0410156 C147.170898,54.0410156 145.887695,55.4648438 145.887695,57.5566406 L145.887695,69 L140.948242,69 L140.948242,57.2578125 C140.948242,55.2363281 139.805664,54.0410156 137.907227,54.0410156 C135.956055,54.0410156 134.637695,55.5175781 134.637695,57.6269531 L134.637695,69 L129.504883,69 Z"/>
      <g transform="translate(14 137)">
        <g fill="#B6B6B6" transform="translate(15.82 .351)">
          <path d="M69.609375,0.351473923 C73.7219531,0.352879819 112.345312,0.901179138 116.015625,8.43537415 C118.414687,13.3602268 119.843437,37.5149206 120.074062,38.8434921 C122.494219,52.8047392 125.881172,58.4318367 138.699844,65.5112245 L0.51890625,65.5112245 C13.3375781,58.4318367 16.7245312,52.8047392 19.1446875,38.8434921 C19.3753125,37.5149206 20.8040625,13.3602268 23.203125,8.43537415 C26.8734375,0.901179138 65.4967969,0.352879819 69.609375,0.351473923 Z"/>
          <path d="M69.609375,243.571429 C73.7219531,243.572834 112.345312,244.121134 116.015625,251.655329 C118.414687,256.580181 119.843437,280.734875 120.074062,282.063447 C122.494219,296.024694 125.881172,301.651791 138.699844,308.731179 L0.51890625,308.731179 C13.3375781,301.651791 16.7245312,296.024694 19.1446875,282.063447 C19.3753125,280.734875 20.8040625,256.580181 23.203125,251.655329 C26.8734375,244.121134 65.4967969,243.572834 69.609375,243.571429 Z" transform="matrix(1 0 0 -1 0 552.303)"/>
        </g>
        <g transform="translate(166.992 100.17)">
          <rect width="4.922" height="32.336" y=".703" fill="#111"/>
          <path fill="#3B3B3B" d="M12.1289062,26.444898 C12.1289062,32.1247166 9.9,33.938322 7.81875,33.938322 L4.52109375,33.938322 C3.6703125,33.4673469 2.6296875,31.80839 1.85625,29.6995465 C1.85625,29.0739229 1.85625,5.01201814 1.85625,4.38639456 C2.6296875,2.27755102 3.6703125,0.618594104 4.52109375,0.147619048 L7.81875,0.147619048 C9.9,0.147619048 12.1289062,1.96122449 12.1289062,7.64807256 L12.1289062,26.444898 Z"/>
        </g>
        <g transform="translate(.352 54.878)">
          <path fill="#4A4A4A" d="M117.890156,199.666502 L54.376875,199.666502 C31.145625,199.666502 20.37375,194.443599 10.7971875,184.166502 C1.21359375,173.903463 0.3515625,157.735663 0.3515625,137.392352 L0.3515625,62.9290869 C0.3515625,42.5857762 1.21359375,26.4250053 10.7971875,16.1549372 C20.37375,5.88486921 31.145625,0.654937233 54.376875,0.654937233 L117.890156,0.654937233 C141.121406,0.654937233 151.893281,5.88486921 161.469844,16.1549372 C168.114375,23.2757989 170.56125,33.2225109 171.447188,45.4397445 L171.158906,45.4397445 C169.576875,46.3113998 167.376094,51.2460937 167.376094,55.5340756 L167.376094,68.9041436 C167.376094,73.1921254 169.576875,78.1268193 171.158906,78.9984746 L171.91125,78.9984746 L171.91125,137.392352 C171.91125,157.735663 171.053438,173.903463 161.469844,184.166502 C151.893281,194.443599 141.121406,199.666502 117.890156,199.666502 Z"/>
          <g transform="translate(.04 .198)">
            <mask id="apple-watch-overview-b" fill="#fff">
              <use xlink:href="#apple-watch-overview-a"/>
            </mask>
            <path fill="#111" d="M172.335938,106.243537 C170.796094,107.8322 170.634375,110.25034 170.472656,112.556009 C170.395312,113.687755 170.367188,114.826531 170.360156,115.965306 C170.346094,126.734467 170.332031,137.496599 170.360156,148.26576 C170.38125,151.154875 170.38125,154.219728 171.485156,156.651927 L171.660938,157.038549 L171.070312,157.319728 L170.8875,156.933107 C169.70625,154.311111 169.727344,151.239229 169.70625,148.26576 C169.678125,137.426304 169.657031,126.593878 169.70625,115.754422 C169.727344,112.94966 169.748438,110.046485 170.732812,107.529932 C170.985938,106.87619 171.604688,106.060771 171.604688,106.060771 L171.864844,105.786621 C172.026563,105.94127 172.18125,106.095918 172.335938,106.243537 Z" mask="url(#apple-watch-overview-b)"/>
          </g>
          <g transform="translate(.04 .198)">
            <mask id="apple-watch-overview-d" fill="#fff">
              <use xlink:href="#apple-watch-overview-c"/>
            </mask>
            <path fill="#111" d="M171.407812,45.5650794 C171.407812,45.5650794 171.239062,45.5439909 171.098437,45.6494331 C170.219531,46.3312925 169.699219,47.4068027 169.228125,48.454195 C168.264844,50.5911565 167.695312,52.9038549 167.667188,55.2376417 C167.646094,59.7927438 167.610938,64.3478458 167.667188,68.9029478 C167.730469,72.2138322 168.574219,75.7426304 170.746875,78.0693878 C170.922656,78.2591837 171.210938,78.4770975 171.210938,78.4770975 L171.871875,78.4770975 L171.871875,79.130839 L171.063281,79.1238095 C171.014063,79.1097506 170.964844,79.0886621 170.922656,79.0675737 C170.873437,79.0394558 170.83125,79.0113379 170.782031,78.9761905 C170.015625,78.4489796 169.509375,77.5913832 169.059375,76.7337868 C167.786719,74.3367347 167.0625,71.6303855 167.013281,68.9099773 C166.957031,64.3548753 166.992188,59.7927438 167.00625,55.2306122 C167.048437,51.9337868 167.9625,48.5385488 169.882031,45.9798186 C170.240625,45.5088435 170.922656,44.9816327 170.922656,44.9816327 C171.077344,44.8902494 171.407812,44.9113379 171.407812,44.9113379 C171.407812,45.1292517 171.407812,45.3471655 171.407812,45.5650794 Z" mask="url(#apple-watch-overview-d)"/>
          </g>
          <path fill="#000" d="M6.38580931,136.401957 C6.38580931,136.08563 6.38580931,63.4289408 6.38580931,63.1126143 C6.63893431,45.0468546 6.25221556,29.9615938 14.8303406,19.3330224 C24.1889343,7.74141244 36.8100281,6.39175258 60.5756531,6.39175258 L111.854559,6.39175258 C135.620184,6.39175258 148.241278,7.74141244 157.592841,19.3330224 C166.177997,29.9615938 165.791278,45.0468546 166.037372,63.1126143 C166.044403,63.4289408 166.044403,136.08563 166.037372,136.401957 C165.791278,154.467716 166.177997,169.552977 157.592841,180.181548 C148.241278,191.773158 135.620184,193.122818 111.854559,193.122818 L60.5756531,193.122818 C36.8100281,193.122818 24.1889343,191.773158 14.8303406,180.181548 C6.25221556,169.552977 6.63893431,154.467716 6.38580931,136.401957 Z"/>
          <path fill="#000" d="M150.864745,43.0260552 C150.864745,30.9675887 141.071717,21.1726804 129.010169,21.1726804 L43.4136623,21.1726804 C31.3521142,21.1726804 21.5521064,30.9675887 21.5521064,43.0260552 L21.5521064,156.716213 C21.5521064,168.781602 31.3521142,178.569588 43.4136623,178.569588 L129.010169,178.569588 C141.071717,178.569588 150.864745,168.781602 150.864745,156.716213 L150.864745,43.0260552 Z"/>
          <rect width="129.313" height="157.397" fill="#000" transform="translate(21.552 21.173)"/>
          <path fill="#000" d="M157.592841,19.3330224 C166.177997,29.9615938 165.791278,45.0468546 166.037372,63.1126143 L166.037785,63.2172448 C166.0444,66.3062722 166.044262,136.091957 166.037372,136.401957 C165.791278,154.467716 166.177997,169.552977 157.592841,180.181548 C148.241278,191.773158 135.620184,193.122818 111.854559,193.122818 L60.5756531,193.122818 C36.8100281,193.122818 24.1889343,191.773158 14.8303406,180.181548 C6.25221556,169.552977 6.63893431,154.467716 6.38580931,136.401957 L6.38580931,63.1126143 L6.38580931,63.1126143 C6.63893431,45.0468546 6.25221556,29.9615938 14.8303406,19.3330224 C24.0953484,7.85732854 36.5579324,6.41976997 59.8660198,6.39216637 L111.854559,6.39175258 C135.620184,6.39175258 148.241278,7.74141244 157.592841,19.3330224 Z M129.010169,21.1726804 L43.4136623,21.1726804 C31.3521142,21.1726804 21.5521064,30.9675887 21.5521064,43.0260552 L21.5521064,156.716213 C21.5521064,168.781602 31.3521142,178.569588 43.4136623,178.569588 L129.010169,178.569588 C141.071717,178.569588 150.864745,168.781602 150.864745,156.716213 L150.864745,43.0260552 C150.864745,30.9675887 141.071717,21.1726804 129.010169,21.1726804 Z"/>
          <path stroke="#222" stroke-width=".612" d="M6.3675,136.534756 C6.3675,136.218429 6.3675,63.56174 6.3675,63.2454134 C6.620625,45.1796538 6.23390625,30.094393 14.8120313,19.4658216 C24.170625,7.87421161 36.7917188,6.52455175 60.5573438,6.52455175 L111.83625,6.52455175 C135.601875,6.52455175 148.222969,7.87421161 157.574531,19.4658216 C166.159688,30.094393 165.772969,45.1796538 166.019063,63.2454134 C166.026094,63.56174 166.026094,136.218429 166.019063,136.534756 C165.772969,154.600515 166.159688,169.685776 157.574531,180.314348 C148.222969,191.905958 135.601875,193.255618 111.83625,193.255618 L60.5573438,193.255618 C36.7917188,193.255618 24.170625,191.905958 14.8120313,180.314348 C6.23390625,169.685776 6.620625,154.600515 6.3675,136.534756 Z"/>
        </g>
        <path fill="#3B3B3B" d="M2.41875,31.0492063 C2.41875,38.1489796 2.31328125,44.7285714 1.771875,50.731746 C0.871875,48.8829932 0.5765625,45.515873 0.5765625,41.769161 L0.5765625,10.0310658 C0.5765625,5.49705215 1.0125,1.5324263 2.41875,0.105442177 L2.41875,31.0492063 Z" transform="translate(169.844 161.221)"/>
      </g>
      <g transform="translate(367)">
        <path fill="#222" d="M18.8945312,26 L16.9609375,19.8476562 L8.04882812,19.8476562 L6.11523438,26 L0.666015625,26 L9.47265625,0.634765625 L15.7128906,0.634765625 L24.5371094,26 L18.8945312,26 Z M12.4433594,5.48632812 L9.19140625,15.875 L15.8183594,15.875 L12.5664062,5.48632812 L12.4433594,5.48632812 Z M37.6855469,6.85742188 C42.4667969,6.85742188 45.4023438,10.4960938 45.4023438,16.578125 C45.4023438,22.6425781 42.484375,26.2988281 37.7734375,26.2988281 C35.03125,26.2988281 32.921875,24.9628906 31.9199219,22.8359375 L31.8144531,22.8359375 L31.8144531,32.1523438 L26.6816406,32.1523438 L26.6816406,7.15625 L31.7441406,7.15625 L31.7441406,10.4433594 L31.8496094,10.4433594 C32.8691406,8.22851562 34.9609375,6.85742188 37.6855469,6.85742188 Z M35.9628906,22.1679688 C38.5292969,22.1679688 40.1464844,20.0058594 40.1464844,16.578125 C40.1464844,13.1679688 38.5292969,10.9707031 35.9628906,10.9707031 C33.4492188,10.9707031 31.796875,13.203125 31.796875,16.578125 C31.796875,19.9882812 33.4492188,22.1679688 35.9628906,22.1679688 Z M59.0429688,6.85742188 C63.8242188,6.85742188 66.7597656,10.4960938 66.7597656,16.578125 C66.7597656,22.6425781 63.8417969,26.2988281 59.1308594,26.2988281 C56.3886719,26.2988281 54.2792969,24.9628906 53.2773438,22.8359375 L53.171875,22.8359375 L53.171875,32.1523438 L48.0390625,32.1523438 L48.0390625,7.15625 L53.1015625,7.15625 L53.1015625,10.4433594 L53.2070312,10.4433594 C54.2265625,8.22851562 56.3183594,6.85742188 59.0429688,6.85742188 Z M57.3203125,22.1679688 C59.8867188,22.1679688 61.5039062,20.0058594 61.5039062,16.578125 C61.5039062,13.1679688 59.8867188,10.9707031 57.3203125,10.9707031 C54.8066406,10.9707031 53.1542969,13.203125 53.1542969,16.578125 C53.1542969,19.9882812 54.8066406,22.1679688 57.3203125,22.1679688 Z M69.5195312,26 L69.5195312,0.634765625 L74.6523438,0.634765625 L74.6523438,26 L69.5195312,26 Z M86.5703125,10.5488281 C84.3203125,10.5488281 82.703125,12.2539062 82.5273438,14.609375 L90.5253906,14.609375 C90.4199219,12.2011719 88.8554688,10.5488281 86.5703125,10.5488281 Z M90.5957031,20.234375 L95.3066406,20.234375 C94.7441406,23.9257812 91.3691406,26.4042969 86.7109375,26.4042969 C80.9101562,26.4042969 77.4296875,22.6953125 77.4296875,16.6660156 C77.4296875,10.6542969 80.9453125,6.75195312 86.5175781,6.75195312 C92.0019531,6.75195312 95.4648438,10.4609375 95.4648438,16.1914062 L95.4648438,17.7558594 L82.4746094,17.7558594 L82.4746094,18.0722656 C82.4746094,20.7617188 84.1796875,22.6074219 86.7988281,22.6074219 C88.6796875,22.6074219 90.1210938,21.6757812 90.5957031,20.234375 Z M120.847656,8.66796875 L116.03125,26 L111.021484,26 L104.306641,0.634765625 L109.808594,0.634765625 L113.798828,19.0039062 L113.939453,19.0039062 L118.685547,0.634765625 L123.167969,0.634765625 L127.914062,19.0039062 L128.054688,19.0039062 L132.0625,0.634765625 L137.564453,0.634765625 L130.832031,26 L125.822266,26 L121.005859,8.66796875 L120.847656,8.66796875 Z M144.876953,22.5898438 C147.109375,22.5898438 148.955078,21.1308594 148.955078,19.0917969 L148.955078,17.7207031 L144.982422,17.9667969 C143.066406,18.1074219 141.976562,18.96875 141.976562,20.3046875 C141.976562,21.7109375 143.136719,22.5898438 144.876953,22.5898438 Z M143.189453,26.2988281 C139.603516,26.2988281 136.878906,23.9785156 136.878906,20.5859375 C136.878906,17.1582031 139.515625,15.171875 144.208984,14.890625 L148.955078,14.609375 L148.955078,13.3613281 C148.955078,11.6035156 147.724609,10.5839844 145.791016,10.5839844 C143.875,10.5839844 142.662109,11.5332031 142.416016,12.921875 L137.722656,12.921875 C137.916016,9.265625 141.027344,6.75195312 146.019531,6.75195312 C150.853516,6.75195312 154,9.24804688 154,13.0449219 L154,26 L149.042969,26 L149.042969,23.1171875 L148.9375,23.1171875 C147.882812,25.1210938 145.544922,26.2988281 143.189453,26.2988281 Z M158.675781,2.81445312 L163.808594,2.81445312 L163.808594,7.15625 L167.289062,7.15625 L167.289062,11.0234375 L163.808594,11.0234375 L163.808594,20.0410156 C163.808594,21.4824219 164.511719,22.1679688 166.023438,22.1679688 C166.480469,22.1679688 166.955078,22.1328125 167.271484,22.0800781 L167.271484,25.859375 C166.744141,25.9824219 165.865234,26.0703125 164.828125,26.0703125 C160.398438,26.0703125 158.675781,24.59375 158.675781,20.9199219 L158.675781,11.0234375 L156.021484,11.0234375 L156.021484,7.15625 L158.675781,7.15625 L158.675781,2.81445312 Z M186.958984,14.1699219 L182.195312,14.1699219 C181.896484,12.1835938 180.578125,10.7773438 178.46875,10.7773438 C175.9375,10.7773438 174.355469,12.921875 174.355469,16.5605469 C174.355469,20.2695312 175.9375,22.3789062 178.486328,22.3789062 C180.542969,22.3789062 181.878906,21.1484375 182.195312,19.0917969 L186.976562,19.0917969 C186.712891,23.5390625 183.390625,26.4042969 178.433594,26.4042969 C172.755859,26.4042969 169.152344,22.7128906 169.152344,16.5605469 C169.152344,10.5136719 172.755859,6.75195312 178.398438,6.75195312 C183.496094,6.75195312 186.730469,9.8984375 186.958984,14.1699219 Z M189.578125,26 L189.578125,0.634765625 L194.623047,0.634765625 L194.623047,10.5136719 L194.728516,10.5136719 C195.730469,8.140625 197.787109,6.8046875 200.652344,6.8046875 C204.835938,6.8046875 207.226562,9.51171875 207.226562,13.8710938 L207.226562,26 L202.09375,26 L202.09375,14.9609375 C202.09375,12.5351562 200.898438,11.0585938 198.560547,11.0585938 C196.134766,11.0585938 194.710938,12.7636719 194.710938,15.2421875 L194.710938,26 L189.578125,26 Z M63.9824219,69 L63.9824219,64.4824219 L51.3613281,64.4824219 L51.3613281,59.9648438 C53.5761719,55.7460938 56.3359375,51.2988281 61.5390625,43.6347656 L69.0273438,43.6347656 L69.0273438,60.2285156 L72.3320312,60.2285156 L72.3320312,64.4824219 L69.0273438,64.4824219 L69.0273438,69 L63.9824219,69 Z M56.0195312,60.2460938 L56.0195312,60.3867188 L64.0878906,60.3867188 L64.0878906,47.3964844 L63.9824219,47.3964844 C60.2910156,52.8105469 58.0761719,56.2734375 56.0195312,60.2460938 Z M87.3085938,69 L87.3085938,64.4824219 L74.6875,64.4824219 L74.6875,59.9648438 C76.9023438,55.7460938 79.6621094,51.2988281 84.8652344,43.6347656 L92.3535156,43.6347656 L92.3535156,60.2285156 L95.6582031,60.2285156 L95.6582031,64.4824219 L92.3535156,64.4824219 L92.3535156,69 L87.3085938,69 Z M79.3457031,60.2460938 L79.3457031,60.3867188 L87.4140625,60.3867188 L87.4140625,47.3964844 L87.3085938,47.3964844 C83.6171875,52.8105469 81.4023438,56.2734375 79.3457031,60.2460938 Z M98.4179688,69 L98.4179688,50.15625 L103.375,50.15625 L103.375,53.5664062 L103.480469,53.5664062 C104.271484,51.2988281 106.292969,49.8046875 108.859375,49.8046875 C111.583984,49.8046875 113.482422,51.2109375 114.115234,53.671875 L114.220703,53.671875 C115.064453,51.2988281 117.314453,49.8046875 120.074219,49.8046875 C123.765625,49.8046875 126.244141,52.3359375 126.244141,56.1328125 L126.244141,69 L121.111328,69 L121.111328,57.4160156 C121.111328,55.2363281 120.021484,54.0410156 118.035156,54.0410156 C116.083984,54.0410156 114.800781,55.4648438 114.800781,57.5566406 L114.800781,69 L109.861328,69 L109.861328,57.2578125 C109.861328,55.2363281 108.71875,54.0410156 106.820312,54.0410156 C104.869141,54.0410156 103.550781,55.5175781 103.550781,57.6269531 L103.550781,69 L98.4179688,69 Z M129.496094,69 L129.496094,50.15625 L134.453125,50.15625 L134.453125,53.5664062 L134.558594,53.5664062 C135.349609,51.2988281 137.371094,49.8046875 139.9375,49.8046875 C142.662109,49.8046875 144.560547,51.2109375 145.193359,53.671875 L145.298828,53.671875 C146.142578,51.2988281 148.392578,49.8046875 151.152344,49.8046875 C154.84375,49.8046875 157.322266,52.3359375 157.322266,56.1328125 L157.322266,69 L152.189453,69 L152.189453,57.4160156 C152.189453,55.2363281 151.099609,54.0410156 149.113281,54.0410156 C147.162109,54.0410156 145.878906,55.4648438 145.878906,57.5566406 L145.878906,69 L140.939453,69 L140.939453,57.2578125 C140.939453,55.2363281 139.796875,54.0410156 137.898438,54.0410156 C135.947266,54.0410156 134.628906,55.5175781 134.628906,57.6269531 L134.628906,69 L129.496094,69 Z"/>
        <g transform="translate(8 116)">
          <g fill="#B6B6B6" transform="translate(17.6)">
            <path d="M79.2,0.4 C83.8792,0.4016 127.824,1.0256 132,9.6 C134.7296,15.2048 136.3552,42.6944 136.6176,44.2064 C139.3712,60.0952 143.2248,66.4992 157.8096,74.556 L0.5904,74.556 C15.1752,66.4992 19.0288,60.0952 21.7824,44.2064 C22.0448,42.6944 23.6704,15.2048 26.4,9.6 C30.576,1.0256 74.5208,0.4016 79.2,0.4 Z"/>
            <path d="M79.2,277.2 C83.8792,277.2016 127.824,277.8256 132,286.4 C134.7296,292.0048 136.3552,319.4944 136.6176,321.0064 C139.3712,336.8952 143.2248,343.2992 157.8096,351.356 L0.5904,351.356 C15.1752,343.2992 19.0288,336.8952 21.7824,321.0064 C22.0448,319.4944 23.6704,292.0048 26.4,286.4 C30.576,277.8256 74.5208,277.2016 79.2,277.2 Z" transform="matrix(1 0 0 -1 0 628.556)"/>
          </g>
          <g transform="translate(189.6 113.6)">
            <rect width="5.6" height="36.8" y=".8" fill="#111"/>
            <path fill="#3B3B3B" d="M13.8,30.096 C13.8,36.56 11.264,38.624 8.896,38.624 L5.144,38.624 C4.176,38.088 2.992,36.2 2.112,33.8 C2.112,33.088 2.112,5.704 2.112,4.992 C2.992,2.592 4.176,0.704 5.144,0.168 L8.896,0.168 C11.264,0.168 13.8,2.232 13.8,8.704 L13.8,30.096 Z"/>
          </g>
          <g transform="translate(0 62)">
            <path fill="#4A4A4A" d="M134.1328,227.288 L61.8688,227.288 C35.4368,227.288 23.1808,221.344 12.2848,209.648 C1.3808,197.968 0.4,179.568 0.4,156.416 L0.4,71.672 C0.4,48.52 1.3808,30.128 12.2848,18.44 C23.1808,6.752 35.4368,0.8 61.8688,0.8 L134.1328,0.8 C160.5648,0.8 172.8208,6.752 183.7168,18.44 C191.2768,26.544 194.0608,37.864 195.0688,51.768 L194.7408,51.768 C192.9408,52.76 190.4368,58.376 190.4368,63.256 L190.4368,78.472 C190.4368,83.352 192.9408,88.968 194.7408,89.96 L195.5968,89.96 L195.5968,156.416 C195.5968,179.568 194.6208,197.968 183.7168,209.648 C172.8208,221.344 160.5648,227.288 134.1328,227.288 Z"/>
            <g transform="translate(.045 .28)">
              <mask id="apple-watch-overview-f" fill="#fff">
                <use xlink:href="#apple-watch-overview-e"/>
              </mask>
              <path fill="#111" d="M196.08,120.912 C194.328,122.72 194.144,125.472 193.96,128.096 C193.872,129.384 193.84,130.68 193.832,131.976 C193.816,144.232 193.8,156.48 193.832,168.736 C193.856,172.024 193.856,175.512 195.112,178.28 L195.312,178.72 L194.64,179.04 L194.432,178.6 C193.088,175.616 193.112,172.12 193.088,168.736 C193.056,156.4 193.032,144.072 193.088,131.736 C193.112,128.544 193.136,125.24 194.256,122.376 C194.544,121.632 195.248,120.704 195.248,120.704 L195.544,120.392 C195.728,120.568 195.904,120.744 196.08,120.912 Z" mask="url(#apple-watch-overview-f)"/>
            </g>
            <g transform="translate(.045 .28)">
              <mask id="apple-watch-overview-h" fill="#fff">
                <use xlink:href="#apple-watch-overview-g"/>
              </mask>
              <path fill="#111" d="M195.024,51.856 C195.024,51.856 194.832,51.832 194.672,51.952 C193.672,52.728 193.08,53.952 192.544,55.144 C191.448,57.576 190.8,60.208 190.768,62.864 C190.744,68.048 190.704,73.232 190.768,78.416 C190.84,82.184 191.8,86.2 194.272,88.848 C194.472,89.064 194.8,89.312 194.8,89.312 L195.552,89.312 L195.552,90.056 L194.632,90.048 C194.576,90.032 194.52,90.008 194.472,89.984 C194.416,89.952 194.368,89.92 194.312,89.88 C193.44,89.28 192.864,88.304 192.352,87.328 C190.904,84.6 190.08,81.52 190.024,78.424 C189.96,73.24 190,68.048 190.016,62.856 C190.064,59.104 191.104,55.24 193.288,52.328 C193.696,51.792 194.472,51.192 194.472,51.192 C194.648,51.088 195.024,51.112 195.024,51.112 C195.024,51.36 195.024,51.608 195.024,51.856 Z" mask="url(#apple-watch-overview-h)"/>
            </g>
            <path fill="#000" d="M7.2448,155.44 C7.2448,155.08 7.2448,72.392 7.2448,72.032 C7.5328,51.472 7.0928,34.304 16.8528,22.208 C27.5008,9.016 41.8608,7.48 68.9008,7.48 L127.2448,7.48 C154.2848,7.48 168.6448,9.016 179.2848,22.208 C189.0528,34.304 188.6128,51.472 188.8928,72.032 C188.9008,72.392 188.9008,155.08 188.8928,155.44 C188.6128,176 189.0528,193.168 179.2848,205.264 C168.6448,218.456 154.2848,219.992 127.2448,219.992 L68.9008,219.992 C41.8608,219.992 27.5008,218.456 16.8528,205.264 C7.0928,193.168 7.5328,176 7.2448,155.44 Z"/>
            <path fill="#000" d="M171.405867,49.161796 C171.405867,35.432857 160.258067,24.2810496 146.527918,24.2810496 L49.089946,24.2810496 C35.3597972,24.2810496 24.2040512,35.432857 24.2040512,49.161796 L24.2040512,178.601574 C24.2040512,192.338394 35.3597972,203.48232 49.089946,203.48232 L146.527918,203.48232 C160.258067,203.48232 171.405867,192.338394 171.405867,178.601574 L171.405867,49.161796 Z"/>
            <rect width="147.2" height="176.832" fill="#000" transform="translate(24.4 24.4)"/>
            <path fill="#000" d="M179.2848,22.208 C189.0528,34.304 188.6128,51.472 188.8928,72.032 C188.9008,72.392 188.9008,155.08 188.8928,155.44 C188.6128,176 189.0528,193.168 179.2848,205.264 C168.7512,218.32408 154.571628,219.960114 128.052205,219.991529 L68.9008,219.992 C41.8608,219.992 27.5008,218.456 16.8528,205.264 C7.0928,193.168 7.5328,176 7.2448,155.44 L7.2448,72.032 L7.2448,72.032 C7.5328,51.472 7.0928,34.304 16.8528,22.208 C27.39432,9.14792 41.5739712,7.5118856 68.093395,7.48047092 L127.2448,7.48 C154.2848,7.48 168.6448,9.016 179.2848,22.208 Z M146.527918,24.2810496 L49.089946,24.2810496 C35.3597972,24.2810496 24.2040512,35.432857 24.2040512,49.161796 L24.2040512,178.601574 C24.2040512,192.338394 35.3597972,203.48232 49.089946,203.48232 L146.527918,203.48232 C160.258067,203.48232 171.405867,192.338394 171.405867,178.601574 L171.405867,49.161796 C171.405867,35.432857 160.258067,24.2810496 146.527918,24.2810496 Z"/>
            <path stroke="#222" stroke-width=".696" d="M7.2448,155.44 C7.2448,155.08 7.2448,72.392 7.2448,72.032 C7.5328,51.472 7.0928,34.304 16.8528,22.208 C27.5008,9.016 41.8608,7.48 68.9008,7.48 L127.2448,7.48 C154.2848,7.48 168.6448,9.016 179.2848,22.208 C189.0528,34.304 188.6128,51.472 188.8928,72.032 C188.9008,72.392 188.9008,155.08 188.8928,155.44 C188.6128,176 189.0528,193.168 179.2848,205.264 C168.6448,218.456 154.2848,219.992 127.2448,219.992 L68.9008,219.992 C41.8608,219.992 27.5008,218.456 16.8528,205.264 C7.0928,193.168 7.5328,176 7.2448,155.44 Z"/>
          </g>
          <path fill="#3B3B3B" d="M2.752,35.336 C2.752,43.416 2.632,50.904 2.016,57.736 C0.992,55.632 0.656,51.8 0.656,47.536 L0.656,11.416 C0.656,6.256 1.152,1.744 2.752,0.12 L2.752,35.336 Z" transform="translate(192.845 183.08)"/>
        </g>
      </g>
    </g>
  </g>
</svg>
