<?xml version="1.0" encoding="UTF-8" standalone="no"?>
<svg width="728px" height="570px" viewBox="0 0 728 570" version="1.1" xmlns="http://www.w3.org/2000/svg" xmlns:xlink="http://www.w3.org/1999/xlink" xmlns:sketch="http://www.bohemiancoding.com/sketch/ns">
    <!-- Generator: Sketch 3.3.3 (12072) - http://www.bohemiancoding.com/sketch -->
    <title>Apple Watch Overview</title>
    <desc>Created with Sketch.</desc>
    <defs></defs>
    <g id="Overview" stroke="none" stroke-width="1" fill="none" fill-rule="evenodd" sketch:type="MSPage">
        <g id="Apple-Watch-Overview" sketch:type="MSArtboardGroup">
            <rect id="Background" fill="#F5515F" sketch:type="MSShapeGroup" x="0" y="0" width="728" height="1024"></rect>
            <g id="Apple-Watch-38mm-+-Apple-Watch" sketch:type="MSLayerGroup" transform="translate(109.000000, 39.000000)">
                <g id="Apple-Watch-38mm" transform="translate(13.125000, 159.500000)" sketch:type="MSShapeGroup">
                    <g id="Bracelet1" transform="translate(12.830189, 0.000000)" fill="#86CD6C">
                        <path d="M135.919811,64.6288 L0.281462264,64.6288 C13.1164623,57.5552 15.668066,52.2824 17.9534434,37.5688 C18.1595283,36.2376 19.6606604,13.3792 22.0631132,8.4584 C25.7381604,0.9296 63.9745283,0.6688 68.0914151,0.668 L68.0914151,0.668 L68.1010377,0.668 L68.1098585,0.668 C72.2267453,0.6688 110.463113,0.9296 114.13816,8.4584 C116.540613,13.3792 118.041745,36.2376 118.24783,37.5688 C120.533208,52.2824 123.084811,57.5552 135.919811,64.6288 L135.919811,64.6288 Z" id="Bracelet-Top1"></path>
                        <path d="M135.919811,239.3712 L0.281462264,239.3712 C13.1164623,246.4448 15.668066,251.7176 17.9534434,266.4312 C18.1595283,267.7624 19.6606604,290.6208 22.0631132,295.5416 C25.7381604,303.0704 63.9745283,303.3312 68.0914151,303.332 L68.0914151,303.332 L68.1010377,303.332 L68.1098585,303.332 C72.2267453,303.3312 110.463113,303.0704 114.13816,295.5416 C116.540613,290.6208 118.041745,267.7624 118.24783,266.4312 C120.533208,251.7176 123.084811,246.4448 135.919811,239.3712 L135.919811,239.3712 Z" id="Bracelet-Bottom1"></path>
                    </g>
                    <g id="Body2" transform="translate(0.000000, 58.400000)">
                        <path d="M161.861651,28.2296 C161.861651,12.776 149.28566,0.2296 133.795613,0.2296 L28.0660377,0.2296 C12.5759906,0.2296 0,12.776 0,28.2296 L0,158.9704 C0,174.424 12.5759906,186.9704 28.0660377,186.9704 L133.795613,186.9704 C149.28566,186.9704 161.861651,174.424 161.861651,158.9704 L161.861651,28.2296 L161.861651,28.2296 Z" id="Metal-Frame" fill="#D5D2CF"></path>
                        <path d="M153.723302,27.5488 C153.723302,16.952 145.099811,8.3488 134.478019,8.3488 L27.3836321,8.3488 C16.7618396,8.3488 8.13834906,16.952 8.13834906,27.5488 L8.13834906,160.1024 C8.13834906,170.6992 16.7618396,179.3024 27.3836321,179.3024 L134.478019,179.3024 C145.099811,179.3024 153.723302,170.6992 153.723302,160.1024 L153.723302,27.5488 L153.723302,27.5488 Z" id="Glass-Frame" fill="#343434"></path>
                        <rect id="Screen1" fill="#343434" x="26.4029245" y="25.8256" width="109.056604" height="136"></rect>
                    </g>
                    <g id="Buttons1" transform="translate(154.764151, 99.200000)" fill="#B1B1B1">
                        <path d="M15.2358491,27.0896 C15.2358491,27.6448 14.8725943,33.9544 11.1670755,35.6592 L6.1929717,35.6592 C4.52183962,34.8456 0.849198113,32.0352 0.769009434,18.5192 L0.76740566,18.5192 L0.76740566,17.6168 L0.769009434,17.6168 C0.849198113,4.1008 4.52183962,1.2912 6.1929717,0.4768 L11.1670755,0.4768 C14.8725943,2.1816 15.2358491,8.4912 15.2358491,9.0472 L15.2358491,27.0896 L15.2358491,27.0896 Z" id="Crown1"></path>
                        <path d="M8.90575472,106.4768 C8.90575472,106.972 8.54570755,107.3784 8.0020283,107.3784 L6.64523585,107.3784 C5.86580189,107.3784 5.28924528,105.7088 5.28924528,104.2216 L5.28924528,57.7616 C5.28924528,56.2744 5.86580189,54.604 6.64523585,54.604 L8.0020283,54.604 C8.54570755,54.604 8.90575472,55.0112 8.90575472,55.5064 L8.90575472,106.4768 L8.90575472,106.4768 Z" id="Button1"></path>
                    </g>
                </g>
                <path d="M15.865,20.12 L19.185,30 L20.625,30 L11.345,2.48 L9.585,2.48 L0.225,30 L1.625,30 L4.945,20.12 L15.865,20.12 Z M15.465,18.84 L5.385,18.84 L10.425,3.84 L15.465,18.84 Z M26.025,11.04 L24.865,11.04 L24.865,38.2 L26.225,38.2 L26.225,26 C27.145,28.88 29.785,30.4 32.225,30.4 C36.305,30.4 40.305,26.88 40.305,20.32 C40.305,14.8 37.465,10.64 32.665,10.64 C29.545,10.64 27.025,12.88 26.185,15.44 L26.025,11.04 Z M26.225,18.8 C26.225,15.48 28.945,11.88 32.345,11.88 C37.065,11.88 38.865,16.28 38.865,20.48 C38.865,26.6 35.185,29.16 32.105,29.16 C29.025,29.16 26.225,26.2 26.225,22.36 L26.225,18.8 Z M46.945,11.04 L45.785,11.04 L45.785,38.2 L47.145,38.2 L47.145,26 C48.065,28.88 50.705,30.4 53.145,30.4 C57.225,30.4 61.225,26.88 61.225,20.32 C61.225,14.8 58.385,10.64 53.585,10.64 C50.465,10.64 47.945,12.88 47.105,15.44 L46.945,11.04 Z M47.145,18.8 C47.145,15.48 49.865,11.88 53.265,11.88 C57.985,11.88 59.785,16.28 59.785,20.48 C59.785,26.6 56.105,29.16 53.025,29.16 C49.945,29.16 47.145,26.2 47.145,22.36 L47.145,18.8 Z M68.065,30 L68.065,0.6 L66.705,0.6 L66.705,30 L68.065,30 Z M86.145,27.84 C84.625,28.72 82.905,29.16 81.265,29.16 C77.145,29.16 74.785,26.28 74.785,20.8 L87.225,20.8 C87.305,20.32 87.345,19.68 87.345,19.2 C87.345,14.92 85.425,10.64 80.745,10.64 C76.665,10.64 73.345,14.72 73.345,20.96 C73.345,27.12 76.505,30.4 80.705,30.4 C82.985,30.4 84.865,29.96 86.225,29.12 L86.145,27.84 Z M74.825,19.6 C75.105,14.88 77.665,11.92 80.705,11.92 C83.865,11.92 85.985,14.4 85.985,19.6 L74.825,19.6 Z M101.025,2.48 L99.625,2.48 L106.985,30 L108.705,30 L113.305,10.88 C113.825,8.72 114.385,6.56 114.905,4.16 C115.425,6.56 115.945,8.72 116.465,10.88 L121.105,30 L122.825,30 L130.185,2.48 L128.785,2.48 L123.705,22 C123.145,24.16 122.545,26.32 121.985,28.72 C121.465,26.32 120.945,24.16 120.425,22 L115.825,2.88 L113.985,2.88 L109.305,22 C108.825,24.16 108.305,26.32 107.825,28.72 C107.265,26.32 106.745,24.16 106.185,22 L101.025,2.48 Z M134.225,13.32 C135.825,12.36 137.425,11.88 138.825,11.88 C141.625,11.88 143.665,13.2 143.665,16.48 L143.665,19 C142.745,18.8 141.905,18.72 140.705,18.72 C136.585,18.72 132.625,20.76 132.625,25.2 C132.625,28.48 135.105,30.4 137.705,30.4 C140.145,30.4 142.585,29.08 143.705,26.2 L143.865,30 L145.025,30 L145.025,16.24 C145.025,12.6 142.585,10.64 139.225,10.64 C137.185,10.64 135.625,11.08 134.145,12 L134.225,13.32 Z M143.665,22.2 C143.665,26.76 140.865,29.16 138.225,29.16 C135.905,29.16 134.065,27.6 134.065,24.96 C134.065,22.24 136.665,19.96 140.585,19.96 C141.705,19.96 142.745,20.04 143.665,20.2 L143.665,22.2 Z M154.305,11.2 L154.305,6 L152.945,6 L152.945,11.2 L149.905,11.2 L149.905,12.36 L152.945,12.36 L152.945,25.88 C152.945,29.12 154.745,30.4 156.905,30.4 C157.905,30.4 158.785,30.2 159.305,29.88 L159.225,28.72 C158.665,29.04 158.065,29.2 157.145,29.2 C155.545,29.2 154.305,28.16 154.305,25.68 L154.305,12.36 L159.065,12.36 L159.065,11.2 L154.305,11.2 Z M175.465,28.24 C174.385,28.76 172.825,29.16 171.465,29.16 C167.425,29.16 164.025,26.76 164.025,20.44 C164.025,14.64 167.665,11.88 171.585,11.88 C173.225,11.88 174.345,12.24 175.545,12.84 L175.705,11.52 C174.625,11 173.465,10.64 171.465,10.64 C166.625,10.64 162.585,13.96 162.585,20.68 C162.585,27.4 166.625,30.4 170.905,30.4 C172.865,30.4 174.225,30.16 175.545,29.52 L175.465,28.24 Z M181.665,0.6 L180.305,0.6 L180.305,30 L181.665,30 L181.665,18.72 C181.665,15.64 184.025,11.92 187.385,11.92 C190.545,11.92 192.345,14.16 192.345,17.76 L192.345,30 L193.705,30 L193.705,17.2 C193.705,13.52 191.585,10.64 187.545,10.64 C184.825,10.64 182.465,12.56 181.665,15.04 L181.665,0.6 Z M53.125,54.44 C54.725,53.08 56.565,52.4 58.205,52.4 C62.125,52.4 63.885,54.52 63.885,57.52 C63.885,61.16 60.125,63.68 55.845,63.84 L55.845,65.12 C61.405,65.12 64.005,67.68 64.005,71.36 C64.005,74.68 61.085,77.12 57.485,77.12 C55.485,77.12 53.765,76.64 51.845,75.32 L51.725,76.76 C53.245,77.92 55.165,78.4 57.325,78.4 C61.885,78.4 65.445,75.32 65.445,71.24 C65.445,67.44 62.845,64.76 58.725,64.28 C62.205,63.6 65.325,60.8 65.325,57.2 C65.325,53.84 62.925,51.12 58.605,51.12 C56.325,51.12 54.485,51.84 53.045,53 L53.125,54.44 Z M77.365,51.12 C73.805,51.12 70.725,53.88 70.725,57.76 C70.725,60.76 72.845,63.04 75.725,64.52 C72.765,65.8 69.965,68.64 69.965,72.04 C69.965,75.84 73.045,78.4 76.965,78.4 C80.845,78.4 84.045,75.76 84.045,71.72 C84.045,68.68 82.365,66.32 78.645,64.44 C81.565,62.88 83.965,60.64 83.965,57.44 C83.965,53.72 81.405,51.12 77.365,51.12 L77.365,51.12 Z M77.285,52.4 C80.565,52.4 82.525,54.28 82.525,57.68 C82.525,60.28 79.845,62.88 77.165,63.88 C74.405,62.6 72.165,60.44 72.165,57.32 C72.165,54.56 74.685,52.4 77.285,52.4 L77.285,52.4 Z M77.085,65.08 C80.485,66.68 82.605,68.8 82.605,71.92 C82.605,74.64 80.405,77.12 76.965,77.12 C73.845,77.12 71.405,74.96 71.405,71.68 C71.405,68.72 74.045,66.4 77.085,65.08 L77.085,65.08 Z M90.485,59.04 L89.325,59.04 L89.325,78 L90.685,78 L90.685,66.6 C90.685,63.36 93.085,59.96 95.965,59.96 C98.965,59.96 100.565,62.28 100.565,65.52 L100.565,78 L101.925,78 L101.925,66.6 C101.925,63.36 104.325,59.96 107.205,59.96 C110.205,59.96 111.805,62.28 111.805,65.52 L111.805,78 L113.165,78 L113.165,64.96 C113.165,61.64 111.165,58.64 107.365,58.64 C104.885,58.64 102.685,60.48 101.725,63.2 C101.125,60.64 99.245,58.64 96.125,58.64 C93.645,58.64 91.565,60.36 90.645,63.04 L90.485,59.04 Z M120.885,59.04 L119.725,59.04 L119.725,78 L121.085,78 L121.085,66.6 C121.085,63.36 123.485,59.96 126.365,59.96 C129.365,59.96 130.965,62.28 130.965,65.52 L130.965,78 L132.325,78 L132.325,66.6 C132.325,63.36 134.725,59.96 137.605,59.96 C140.605,59.96 142.205,62.28 142.205,65.52 L142.205,78 L143.565,78 L143.565,64.96 C143.565,61.64 141.565,58.64 137.765,58.64 C135.285,58.64 133.085,60.48 132.125,63.2 C131.525,60.64 129.645,58.64 126.525,58.64 C124.045,58.64 121.965,60.36 121.045,63.04 L120.885,59.04 Z" id="Apple-Watch" fill="#FFFFFF" sketch:type="MSShapeGroup"></path>
            </g>
            <g id="Apple-Watch-42mm-+-Apple-Watch" sketch:type="MSLayerGroup" transform="translate(423.000000, 39.000000)">
                <g id="Apple-Watch-42mm" transform="translate(4.000000, 138.000000)" sketch:type="MSShapeGroup">
                    <g id="Bracelet" transform="translate(15.215768, 0.000000)" fill="#86CD6C">
                        <path d="M154.878095,72.956 L0.591012448,72.956 C15.1909419,64.8992 18.0931494,58.8936 20.6926432,42.1344 C20.9272863,40.6184 22.6346556,14.5824 25.3670871,8.9776 C29.5474191,0.4032 73.0404896,0.1064 77.7245436,0.1048 L77.7245436,0.1048 L77.7341535,0.1048 L77.7445643,0.1048 C82.4278174,0.1064 125.921689,0.4032 130.102021,8.9776 C132.834452,14.5824 134.541822,40.6184 134.776465,42.1344 C137.375959,58.8936 140.278166,64.8992 154.878095,72.956 L154.878095,72.956 Z" id="Bracelet-Top"></path>
                        <path d="M154.878095,274.6952 L0.591012448,274.6952 C15.1909419,282.752 18.0931494,288.7576 20.6926432,305.5168 C20.9272863,307.0328 22.6346556,333.0688 25.3670871,338.6728 C29.5474191,347.248 73.0404896,347.5448 77.7245436,347.5456 L77.7245436,347.5456 L77.7341535,347.5456 L77.7445643,347.5456 C82.4278174,347.5448 125.921689,347.248 130.102021,338.6728 C132.834452,333.0688 134.541822,307.0328 134.776465,305.5168 C137.375959,288.7576 140.278166,282.752 154.878095,274.6952 L154.878095,274.6952 Z" id="Bracelet-Bottom"></path>
                    </g>
                    <g id="Body" transform="translate(0.000000, 66.400000)">
                        <path d="M184.544838,29.4512 C184.544838,13.3352 171.447266,0.2512 155.314548,0.2512 L29.6307054,0.2512 C13.4979876,0.2512 0.400414938,13.3352 0.400414938,29.4512 L0.400414938,185.4 C0.400414938,201.516 13.4979876,214.6 29.6307054,214.6 L155.314548,214.6 C171.447266,214.6 184.544838,201.516 184.544838,185.4 L184.544838,29.4512 L184.544838,29.4512 Z" id="Body1" fill="#D5D2CF"></path>
                        <path d="M176.638245,29.7696 C176.638245,17.8488 166.949805,8.1696 155.015838,8.1696 L29.9702573,8.1696 C18.0362905,8.1696 8.34785062,17.8488 8.34785062,29.7696 L8.34785062,185.0408 C8.34785062,196.9624 18.0362905,206.6408 29.9702573,206.6408 L155.015838,206.6408 C166.949805,206.6408 176.638245,196.9624 176.638245,185.0408 L176.638245,29.7696 L176.638245,29.7696 Z" id="Glace-Frame" fill="#343434"></path>
                        <rect id="Screen" fill="#343434" x="30.027917" y="29.4056" width="124.929461" height="156"></rect>
                    </g>
                    <g id="Buttons" transform="translate(177.784232, 116.000000)" fill="#B1B1B1">
                        <path d="M15.2157676,27.7048 C15.2157676,28.28 14.8401784,34.812 11.0082075,36.5776 L5.86607884,36.5776 C4.13788797,35.7344 0.340352697,32.8256 0.25786722,18.832 L0.25626556,18.832 L0.25626556,17.8976 L0.25786722,17.8976 C0.340352697,3.904 4.13788797,0.9952 5.86607884,0.152 L11.0082075,0.152 C14.8401784,1.9176 15.2157676,8.4496 15.2157676,9.0248 L15.2157676,27.7048 L15.2157676,27.7048 Z" id="Crown"></path>
                        <path d="M8.67138589,116.9 C8.67138589,117.4128 8.29819917,117.8336 7.7360166,117.8336 L6.33376349,117.8336 C5.52812863,117.8336 4.93151037,116.1048 4.93151037,114.5648 L4.93151037,66.4648 C4.93151037,64.9248 5.52812863,63.196 6.33376349,63.196 L7.7360166,63.196 C8.29819917,63.196 8.67138589,63.6168 8.67138589,64.1296 L8.67138589,116.9 L8.67138589,116.9 Z" id="Button"></path>
                    </g>
                </g>
                <path d="M15.74,20.12 L19.06,30 L20.5,30 L11.22,2.48 L9.46,2.48 L0.1,30 L1.5,30 L4.82,20.12 L15.74,20.12 Z M15.34,18.84 L5.26,18.84 L10.3,3.84 L15.34,18.84 Z M25.9,11.04 L24.74,11.04 L24.74,38.2 L26.1,38.2 L26.1,26 C27.02,28.88 29.66,30.4 32.1,30.4 C36.18,30.4 40.18,26.88 40.18,20.32 C40.18,14.8 37.34,10.64 32.54,10.64 C29.42,10.64 26.9,12.88 26.06,15.44 L25.9,11.04 Z M26.1,18.8 C26.1,15.48 28.82,11.88 32.22,11.88 C36.94,11.88 38.74,16.28 38.74,20.48 C38.74,26.6 35.06,29.16 31.98,29.16 C28.9,29.16 26.1,26.2 26.1,22.36 L26.1,18.8 Z M46.82,11.04 L45.66,11.04 L45.66,38.2 L47.02,38.2 L47.02,26 C47.94,28.88 50.58,30.4 53.02,30.4 C57.1,30.4 61.1,26.88 61.1,20.32 C61.1,14.8 58.26,10.64 53.46,10.64 C50.34,10.64 47.82,12.88 46.98,15.44 L46.82,11.04 Z M47.02,18.8 C47.02,15.48 49.74,11.88 53.14,11.88 C57.86,11.88 59.66,16.28 59.66,20.48 C59.66,26.6 55.98,29.16 52.9,29.16 C49.82,29.16 47.02,26.2 47.02,22.36 L47.02,18.8 Z M67.94,30 L67.94,0.6 L66.58,0.6 L66.58,30 L67.94,30 Z M86.02,27.84 C84.5,28.72 82.78,29.16 81.14,29.16 C77.02,29.16 74.66,26.28 74.66,20.8 L87.1,20.8 C87.18,20.32 87.22,19.68 87.22,19.2 C87.22,14.92 85.3,10.64 80.62,10.64 C76.54,10.64 73.22,14.72 73.22,20.96 C73.22,27.12 76.38,30.4 80.58,30.4 C82.86,30.4 84.74,29.96 86.1,29.12 L86.02,27.84 Z M74.7,19.6 C74.98,14.88 77.54,11.92 80.58,11.92 C83.74,11.92 85.86,14.4 85.86,19.6 L74.7,19.6 Z M100.9,2.48 L99.5,2.48 L106.86,30 L108.58,30 L113.18,10.88 C113.7,8.72 114.26,6.56 114.78,4.16 C115.3,6.56 115.82,8.72 116.34,10.88 L120.98,30 L122.7,30 L130.06,2.48 L128.66,2.48 L123.58,22 C123.02,24.16 122.42,26.32 121.86,28.72 C121.34,26.32 120.82,24.16 120.3,22 L115.7,2.88 L113.86,2.88 L109.18,22 C108.7,24.16 108.18,26.32 107.7,28.72 C107.14,26.32 106.62,24.16 106.06,22 L100.9,2.48 Z M134.1,13.32 C135.7,12.36 137.3,11.88 138.7,11.88 C141.5,11.88 143.54,13.2 143.54,16.48 L143.54,19 C142.62,18.8 141.78,18.72 140.58,18.72 C136.46,18.72 132.5,20.76 132.5,25.2 C132.5,28.48 134.98,30.4 137.58,30.4 C140.02,30.4 142.46,29.08 143.58,26.2 L143.74,30 L144.9,30 L144.9,16.24 C144.9,12.6 142.46,10.64 139.1,10.64 C137.06,10.64 135.5,11.08 134.02,12 L134.1,13.32 Z M143.54,22.2 C143.54,26.76 140.74,29.16 138.1,29.16 C135.78,29.16 133.94,27.6 133.94,24.96 C133.94,22.24 136.54,19.96 140.46,19.96 C141.58,19.96 142.62,20.04 143.54,20.2 L143.54,22.2 Z M154.18,11.2 L154.18,6 L152.82,6 L152.82,11.2 L149.78,11.2 L149.78,12.36 L152.82,12.36 L152.82,25.88 C152.82,29.12 154.62,30.4 156.78,30.4 C157.78,30.4 158.66,30.2 159.18,29.88 L159.1,28.72 C158.54,29.04 157.94,29.2 157.02,29.2 C155.42,29.2 154.18,28.16 154.18,25.68 L154.18,12.36 L158.94,12.36 L158.94,11.2 L154.18,11.2 Z M175.34,28.24 C174.26,28.76 172.7,29.16 171.34,29.16 C167.3,29.16 163.9,26.76 163.9,20.44 C163.9,14.64 167.54,11.88 171.46,11.88 C173.1,11.88 174.22,12.24 175.42,12.84 L175.58,11.52 C174.5,11 173.34,10.64 171.34,10.64 C166.5,10.64 162.46,13.96 162.46,20.68 C162.46,27.4 166.5,30.4 170.78,30.4 C172.74,30.4 174.1,30.16 175.42,29.52 L175.34,28.24 Z M181.54,0.6 L180.18,0.6 L180.18,30 L181.54,30 L181.54,18.72 C181.54,15.64 183.9,11.92 187.26,11.92 C190.42,11.92 192.22,14.16 192.22,17.76 L192.22,30 L193.58,30 L193.58,17.2 C193.58,13.52 191.46,10.64 187.42,10.64 C184.7,10.64 182.34,12.56 181.54,15.04 L181.54,0.6 Z M62.84,69.08 L62.84,51.52 L61.16,51.52 L51,69.4 L51,70.36 L61.48,70.36 L61.48,77.96 L62.84,77.96 L62.84,70.36 L66.36,70.36 L66.36,69.08 L62.84,69.08 Z M52.72,69.08 L61.64,52.92 C61.48,56.12 61.48,60.12 61.48,62.12 L61.48,69.08 L52.72,69.08 Z M71.32,54.92 C72.76,53.32 75.04,52.4 76.92,52.4 C80.16,52.4 82.24,54.08 82.24,57.48 C82.24,60.16 80.32,63.12 75.72,68.96 L69.32,77.08 L69.32,78 L83.88,78 L83.88,76.72 L71.2,76.72 L76.6,69.96 C81.76,63.48 83.68,60.36 83.68,57.32 C83.68,53.48 81.12,51.12 77,51.12 C75.04,51.12 72.68,51.92 71.2,53.4 L71.32,54.92 Z M90.36,59.04 L89.2,59.04 L89.2,78 L90.56,78 L90.56,66.6 C90.56,63.36 92.96,59.96 95.84,59.96 C98.84,59.96 100.44,62.28 100.44,65.52 L100.44,78 L101.8,78 L101.8,66.6 C101.8,63.36 104.2,59.96 107.08,59.96 C110.08,59.96 111.68,62.28 111.68,65.52 L111.68,78 L113.04,78 L113.04,64.96 C113.04,61.64 111.04,58.64 107.24,58.64 C104.76,58.64 102.56,60.48 101.6,63.2 C101,60.64 99.12,58.64 96,58.64 C93.52,58.64 91.44,60.36 90.52,63.04 L90.36,59.04 Z M120.76,59.04 L119.6,59.04 L119.6,78 L120.96,78 L120.96,66.6 C120.96,63.36 123.36,59.96 126.24,59.96 C129.24,59.96 130.84,62.28 130.84,65.52 L130.84,78 L132.2,78 L132.2,66.6 C132.2,63.36 134.6,59.96 137.48,59.96 C140.48,59.96 142.08,62.28 142.08,65.52 L142.08,78 L143.44,78 L143.44,64.96 C143.44,61.64 141.44,58.64 137.64,58.64 C135.16,58.64 132.96,60.48 132,63.2 C131.4,60.64 129.52,58.64 126.4,58.64 C123.92,58.64 121.84,60.36 120.92,63.04 L120.76,59.04 Z" id="Apple-Watch" fill="#FFFFFF" sketch:type="MSShapeGroup"></path>
            </g>
        </g>
    </g>
</svg>