<svg xmlns="http://www.w3.org/2000/svg" width="888" height="445" viewBox="0 0 888 445">
  <g fill="none" fill-rule="evenodd">
    <rect width="888" height="445" fill="#F4F4F4"/>
    <g transform="translate(91 45)">
      <path fill="#222" d="M94.7578125,34 L94.7578125,15.15625 L99.890625,15.15625 L99.890625,34 L94.7578125,34 Z M97.3242188,13.0820312 C95.7773438,13.0820312 94.5820312,11.9042969 94.5820312,10.4277344 C94.5820312,8.93359375 95.7773438,7.7734375 97.3242188,7.7734375 C98.8710938,7.7734375 100.066406,8.93359375 100.066406,10.4277344 C100.066406,11.9042969 98.8710938,13.0820312 97.3242188,13.0820312 Z M130.599609,34 L125.871094,34 L125.871094,16.8789062 L125.730469,16.8789062 L118.839844,33.7539062 L115.5,33.7539062 L108.609375,16.8789062 L108.46875,16.8789062 L108.46875,34 L103.740234,34 L103.740234,8.63476562 L109.892578,8.63476562 L117.099609,26.6171875 L117.240234,26.6171875 L124.447266,8.63476562 L130.599609,8.63476562 L130.599609,34 Z M141.251953,30.5898438 C143.484375,30.5898438 145.330078,29.1308594 145.330078,27.0917969 L145.330078,25.7207031 L141.357422,25.9667969 C139.441406,26.1074219 138.351562,26.96875 138.351562,28.3046875 C138.351562,29.7109375 139.511719,30.5898438 141.251953,30.5898438 Z M139.564453,34.2988281 C135.978516,34.2988281 133.253906,31.9785156 133.253906,28.5859375 C133.253906,25.1582031 135.890625,23.171875 140.583984,22.890625 L145.330078,22.609375 L145.330078,21.3613281 C145.330078,19.6035156 144.099609,18.5839844 142.166016,18.5839844 C140.25,18.5839844 139.037109,19.5332031 138.791016,20.921875 L134.097656,20.921875 C134.291016,17.265625 137.402344,14.7519531 142.394531,14.7519531 C147.228516,14.7519531 150.375,17.2480469 150.375,21.0449219 L150.375,34 L145.417969,34 L145.417969,31.1171875 L145.3125,31.1171875 C144.257812,33.1210938 141.919922,34.2988281 139.564453,34.2988281 Z M170.800781,22.1699219 L166.037109,22.1699219 C165.738281,20.1835938 164.419922,18.7773438 162.310547,18.7773438 C159.779297,18.7773438 158.197266,20.921875 158.197266,24.5605469 C158.197266,28.2695312 159.779297,30.3789062 162.328125,30.3789062 C164.384766,30.3789062 165.720703,29.1484375 166.037109,27.0917969 L170.818359,27.0917969 C170.554688,31.5390625 167.232422,34.4042969 162.275391,34.4042969 C156.597656,34.4042969 152.994141,30.7128906 152.994141,24.5605469 C152.994141,18.5136719 156.597656,14.7519531 162.240234,14.7519531 C167.337891,14.7519531 170.572266,17.8984375 170.800781,22.1699219 Z M180.240234,16.2636719 C180.240234,11.4648438 184.072266,8.07226562 189.609375,8.07226562 C194.953125,8.07226562 198.626953,11.1660156 198.626953,15.4023438 C198.626953,18.5664062 196.517578,20.9394531 193.722656,23.7167969 L187.535156,29.6757812 L187.535156,29.78125 L198.978516,29.78125 L198.978516,34 L180.539062,34 L180.539062,30.4316406 L190.101562,21.2207031 C192.667969,18.6542969 193.458984,17.3710938 193.458984,15.6132812 C193.458984,13.7148438 191.789062,12.203125 189.433594,12.203125 C186.972656,12.203125 185.162109,13.9257812 185.162109,16.2636719 L185.162109,16.3515625 L180.240234,16.3515625 L180.240234,16.2636719 Z M203.566406,34 L214.482422,12.9589844 L214.482422,12.8535156 L201.580078,12.8535156 L201.580078,8.63476562 L219.720703,8.63476562 L219.720703,12.90625 L209.138672,34 L203.566406,34 Z M227.015625,18.53125 L223.183594,18.53125 L224.501953,8.63476562 L229.371094,8.63476562 L227.015625,18.53125 Z M236.929688,18.53125 L233.097656,18.53125 L234.416016,8.63476562 L239.285156,8.63476562 L236.929688,18.53125 Z"/>
      <g transform="translate(0 82)">
        <g transform="translate(0 199.206)">
          <path fill="#D5D2CF" d="M126.377188,77.7472811 C120.623231,77.7472811 116.945841,77.3335819 116.627502,76.4884158 L116.627502,75.3868986 L218.371536,75.3868986 L218.371536,76.4884158 C218.053198,77.3335819 214.375808,77.7472811 208.621851,77.7472811 L126.377028,77.7472811 L126.377188,77.7472811 Z"/>
          <path fill="#C3C3C3" d="M116.627983,75.3874588 C117.482626,73.6527073 128.384224,68.0045004 129.803288,65.4508342 C131.908373,62.6935597 133.335447,43.6684377 134.267792,31.1692629 L134.267792,30.0542199 L200.732368,30.0542199 L200.732368,31.1692629 C201.664713,43.6684377 203.091787,62.6935597 205.196872,65.4508342 C206.615936,68.0045004 217.517535,73.6527073 218.372177,75.3874588 C218.291111,76.5446802 213.446187,76.8036723 208.764758,76.8036723 L126.235562,76.8036723 C121.553973,76.8036723 116.709049,76.5446802 116.627983,75.3874588 Z"/>
          <path fill="#D5D2CF" d="M335,0.0112048541 L0,0.0112048541 L0,23.2451101 C0,27.6181245 3.55346724,31.1685426 7.93041607,31.1685426 L327.069584,31.1685426 C331.446533,31.1685426 335,27.6181245 335,23.2451101 L335,0.0112048541 L335,0.0112048541 Z"/>
        </g>
        <g fill="#343434">
          <path d="M335,7.92343253 C335,3.55033805 331.446533,0 327.069584,0 L7.93041607,0 C3.55346724,0 0,3.55033805 0,7.92343253 L0,199.53284 L335,199.53284 L335,7.92343253 L335,7.92343253 Z"/>
          <path d="M321.662482,13.20364 C321.662482,13.0711826 321.554821,12.963536 321.422166,12.963536 L13.5778336,12.963536 C13.4451793,12.963536 13.3375179,13.0711826 13.3375179,13.20364 L13.3375179,186.318636 C13.3375179,186.451173 13.4451793,186.55874 13.5778336,186.55874 L321.422166,186.55874 C321.554821,186.55874 321.662482,186.451173 321.662482,186.318636 L321.662482,13.20364 L321.662482,13.20364 Z"/>
          <rect width="307.604" height="172.875" x="13.698" y="13.326"/>
        </g>
        <ellipse cx="167.5" cy="5.508" fill="#3E3E3E" rx="1.417" ry="1.416"/>
      </g>
    </g>
    <g transform="translate(524 45)">
      <path fill="#222" d="M49.7578125,34 L49.7578125,15.15625 L54.890625,15.15625 L54.890625,34 L49.7578125,34 Z M52.3242188,13.0820312 C50.7773438,13.0820312 49.5820312,11.9042969 49.5820312,10.4277344 C49.5820312,8.93359375 50.7773438,7.7734375 52.3242188,7.7734375 C53.8710938,7.7734375 55.0664062,8.93359375 55.0664062,10.4277344 C55.0664062,11.9042969 53.8710938,13.0820312 52.3242188,13.0820312 Z M85.5996094,34 L80.8710938,34 L80.8710938,16.8789062 L80.7304688,16.8789062 L73.8398438,33.7539062 L70.5,33.7539062 L63.609375,16.8789062 L63.46875,16.8789062 L63.46875,34 L58.7402344,34 L58.7402344,8.63476562 L64.8925781,8.63476562 L72.0996094,26.6171875 L72.2402344,26.6171875 L79.4472656,8.63476562 L85.5996094,8.63476562 L85.5996094,34 Z M96.2519531,30.5898438 C98.484375,30.5898438 100.330078,29.1308594 100.330078,27.0917969 L100.330078,25.7207031 L96.3574219,25.9667969 C94.4414062,26.1074219 93.3515625,26.96875 93.3515625,28.3046875 C93.3515625,29.7109375 94.5117188,30.5898438 96.2519531,30.5898438 Z M94.5644531,34.2988281 C90.9785156,34.2988281 88.2539062,31.9785156 88.2539062,28.5859375 C88.2539062,25.1582031 90.890625,23.171875 95.5839844,22.890625 L100.330078,22.609375 L100.330078,21.3613281 C100.330078,19.6035156 99.0996094,18.5839844 97.1660156,18.5839844 C95.25,18.5839844 94.0371094,19.5332031 93.7910156,20.921875 L89.0976562,20.921875 C89.2910156,17.265625 92.4023438,14.7519531 97.3945312,14.7519531 C102.228516,14.7519531 105.375,17.2480469 105.375,21.0449219 L105.375,34 L100.417969,34 L100.417969,31.1171875 L100.3125,31.1171875 C99.2578125,33.1210938 96.9199219,34.2988281 94.5644531,34.2988281 Z M125.800781,22.1699219 L121.037109,22.1699219 C120.738281,20.1835938 119.419922,18.7773438 117.310547,18.7773438 C114.779297,18.7773438 113.197266,20.921875 113.197266,24.5605469 C113.197266,28.2695312 114.779297,30.3789062 117.328125,30.3789062 C119.384766,30.3789062 120.720703,29.1484375 121.037109,27.0917969 L125.818359,27.0917969 C125.554688,31.5390625 122.232422,34.4042969 117.275391,34.4042969 C111.597656,34.4042969 107.994141,30.7128906 107.994141,24.5605469 C107.994141,18.5136719 111.597656,14.7519531 117.240234,14.7519531 C122.337891,14.7519531 125.572266,17.8984375 125.800781,22.1699219 Z M135.240234,16.2636719 C135.240234,11.4648438 139.072266,8.07226562 144.609375,8.07226562 C149.953125,8.07226562 153.626953,11.1660156 153.626953,15.4023438 C153.626953,18.5664062 151.517578,20.9394531 148.722656,23.7167969 L142.535156,29.6757812 L142.535156,29.78125 L153.978516,29.78125 L153.978516,34 L135.539062,34 L135.539062,30.4316406 L145.101562,21.2207031 C147.667969,18.6542969 148.458984,17.3710938 148.458984,15.6132812 C148.458984,13.7148438 146.789062,12.203125 144.433594,12.203125 C141.972656,12.203125 140.162109,13.9257812 140.162109,16.2636719 L140.162109,16.3515625 L135.240234,16.3515625 L135.240234,16.2636719 Z M163.59375,34 L163.59375,13.5039062 L163.488281,13.5039062 L157.019531,17.96875 L157.019531,13.1875 L163.576172,8.63476562 L168.849609,8.63476562 L168.849609,34 L163.59375,34 Z M177.304688,34.2109375 C175.722656,34.2109375 174.474609,32.9453125 174.474609,31.3808594 C174.474609,29.7988281 175.722656,28.5507812 177.304688,28.5507812 C178.869141,28.5507812 180.134766,29.7988281 180.134766,31.3808594 C180.134766,32.9453125 178.869141,34.2109375 177.304688,34.2109375 Z M193.705078,34.5625 C188.255859,34.5625 184.335938,31.328125 184.177734,26.7402344 L189.082031,26.7402344 C189.380859,28.8847656 191.279297,30.3613281 193.740234,30.3613281 C196.517578,30.3613281 198.433594,28.4277344 198.433594,25.6679688 C198.433594,22.8554688 196.517578,20.8867188 193.775391,20.8867188 C191.859375,20.8867188 190.207031,21.765625 189.328125,23.2246094 L184.582031,23.2246094 L185.830078,8.63476562 L201.966797,8.63476562 L201.966797,12.8535156 L189.996094,12.8535156 L189.416016,19.796875 L189.521484,19.796875 C190.558594,18.0917969 192.580078,17.0195312 195.164062,17.0195312 C200.015625,17.0195312 203.496094,20.5878906 203.496094,25.5273438 C203.496094,30.90625 199.523438,34.5625 193.705078,34.5625 Z M210.615234,18.53125 L206.783203,18.53125 L208.101562,8.63476562 L212.970703,8.63476562 L210.615234,18.53125 Z M220.529297,18.53125 L216.697266,18.53125 L218.015625,8.63476562 L222.884766,8.63476562 L220.529297,18.53125 Z"/>
      <g transform="translate(0 102)">
        <g transform="translate(0 165.207)">
          <path fill="#D5D2CF" d="M99.4810721,72.7317429 C94.3054271,72.7317429 90.997681,72.3455935 90.7112469,71.556718 L90.7112469,70.5286413 L182.229419,70.5286413 L182.229419,71.556718 C181.942985,72.3455935 178.635239,72.7317429 173.459594,72.7317429 L99.4813919,72.7317429 L99.4810721,72.7317429 Z"/>
          <path fill="#C3C3C3" d="M90.7113269,70.5289616 C91.480109,68.9098089 101.285959,63.6379327 102.562438,61.2544092 C104.455925,58.680854 105.886257,42.6857645 106.724928,31.01936 L106.724928,30.8310902 L166.21558,30.8310902 L166.215578,31.01936 C167.05425,42.6857645 168.484581,58.680854 170.378069,61.2544092 C171.654547,63.6379327 181.460397,68.9098089 182.229179,70.5289616 C182.156171,71.6090108 177.798247,71.8508546 173.587378,71.8508546 L99.3531283,71.8508546 C95.1422592,71.8508546 90.7843348,71.6090108 90.7113269,70.5289616 Z"/>
          <path fill="#D5D2CF" d="M272.940026,0.0288290713 L0,0.0288290713 L0,22.9414542 C0,27.3999502 3.61449121,31.0196003 8.06645431,31.0196003 L264.873572,31.0196003 C269.325535,31.0196003 272.940026,27.3999502 272.940026,22.9414542 L272.940026,0.0288290713 L272.940026,0.0288290713 Z"/>
        </g>
        <g fill="#343434">
          <path d="M272.940026,8.07814603 C272.940026,3.61973015 269.325535,0 264.873572,0 L8.07365114,0 C3.61776977,0 0.000159929701,3.6228533 0.000159929701,8.08519314 L0.000159929701,165.234863 L272.940186,165.234863 L272.940186,8.07798587 L272.940026,8.07814603 Z"/>
          <path d="M259.596292,13.4168896 C259.596292,13.2548062 259.464909,13.1232335 259.303061,13.1232335 L13.6374455,13.1232335 C13.4755967,13.1232335 13.3442144,13.2548062 13.3442144,13.4168896 L13.3442144,151.810046 C13.3442144,151.972129 13.4755967,152.103702 13.6374455,152.103702 L259.303061,152.103702 C259.464909,152.103702 259.596292,151.972129 259.596292,151.810046 L259.596292,13.4168896 L259.596292,13.4168896 Z"/>
          <rect width="245.652" height="138.38" x="13.644" y="13.428"/>
        </g>
        <ellipse cx="136.47" cy="5.648" fill="#3E3E3E" rx="1.393" ry="1.395"/>
      </g>
    </g>
  </g>
</svg>
