<svg xmlns="http://www.w3.org/2000/svg" width="888" height="445" viewBox="0 0 888 445">
  <g fill="none" fill-rule="evenodd">
    <rect width="888" height="445" fill="#F4F4F4"/>
    <g transform="translate(90 52)">
      <path fill="#222" d="M95.7578125,27 L95.7578125,8.15625 L100.890625,8.15625 L100.890625,27 L95.7578125,27 Z M98.3242188,6.08203125 C96.7773438,6.08203125 95.5820312,4.90429688 95.5820312,3.42773438 C95.5820312,1.93359375 96.7773438,0.7734375 98.3242188,0.7734375 C99.8710938,0.7734375 101.066406,1.93359375 101.066406,3.42773438 C101.066406,4.90429688 99.8710938,6.08203125 98.3242188,6.08203125 Z M131.599609,27 L126.871094,27 L126.871094,9.87890625 L126.730469,9.87890625 L119.839844,26.7539062 L116.5,26.7539062 L109.609375,9.87890625 L109.46875,9.87890625 L109.46875,27 L104.740234,27 L104.740234,1.63476562 L110.892578,1.63476562 L118.099609,19.6171875 L118.240234,19.6171875 L125.447266,1.63476562 L131.599609,1.63476562 L131.599609,27 Z M142.251953,23.5898438 C144.484375,23.5898438 146.330078,22.1308594 146.330078,20.0917969 L146.330078,18.7207031 L142.357422,18.9667969 C140.441406,19.1074219 139.351562,19.96875 139.351562,21.3046875 C139.351562,22.7109375 140.511719,23.5898438 142.251953,23.5898438 Z M140.564453,27.2988281 C136.978516,27.2988281 134.253906,24.9785156 134.253906,21.5859375 C134.253906,18.1582031 136.890625,16.171875 141.583984,15.890625 L146.330078,15.609375 L146.330078,14.3613281 C146.330078,12.6035156 145.099609,11.5839844 143.166016,11.5839844 C141.25,11.5839844 140.037109,12.5332031 139.791016,13.921875 L135.097656,13.921875 C135.291016,10.265625 138.402344,7.75195312 143.394531,7.75195312 C148.228516,7.75195312 151.375,10.2480469 151.375,14.0449219 L151.375,27 L146.417969,27 L146.417969,24.1171875 L146.3125,24.1171875 C145.257812,26.1210938 142.919922,27.2988281 140.564453,27.2988281 Z M171.800781,15.1699219 L167.037109,15.1699219 C166.738281,13.1835938 165.419922,11.7773438 163.310547,11.7773438 C160.779297,11.7773438 159.197266,13.921875 159.197266,17.5605469 C159.197266,21.2695312 160.779297,23.3789062 163.328125,23.3789062 C165.384766,23.3789062 166.720703,22.1484375 167.037109,20.0917969 L171.818359,20.0917969 C171.554688,24.5390625 168.232422,27.4042969 163.275391,27.4042969 C157.597656,27.4042969 153.994141,23.7128906 153.994141,17.5605469 C153.994141,11.5136719 157.597656,7.75195312 163.240234,7.75195312 C168.337891,7.75195312 171.572266,10.8984375 171.800781,15.1699219 Z M181.240234,9.26367188 C181.240234,4.46484375 185.072266,1.07226562 190.609375,1.07226562 C195.953125,1.07226562 199.626953,4.16601562 199.626953,8.40234375 C199.626953,11.5664062 197.517578,13.9394531 194.722656,16.7167969 L188.535156,22.6757812 L188.535156,22.78125 L199.978516,22.78125 L199.978516,27 L181.539062,27 L181.539062,23.4316406 L191.101562,14.2207031 C193.667969,11.6542969 194.458984,10.3710938 194.458984,8.61328125 C194.458984,6.71484375 192.789062,5.203125 190.433594,5.203125 C187.972656,5.203125 186.162109,6.92578125 186.162109,9.26367188 L186.162109,9.3515625 L181.240234,9.3515625 L181.240234,9.26367188 Z M204.566406,27 L215.482422,5.95898438 L215.482422,5.85351562 L202.580078,5.85351562 L202.580078,1.63476562 L220.720703,1.63476562 L220.720703,5.90625 L210.138672,27 L204.566406,27 Z M228.015625,11.53125 L224.183594,11.53125 L225.501953,1.63476562 L230.371094,1.63476562 L228.015625,11.53125 Z M237.929688,11.53125 L234.097656,11.53125 L235.416016,1.63476562 L240.285156,1.63476562 L237.929688,11.53125 Z"/>
      <g transform="translate(0 75)">
        <g transform="translate(0 199.206)">
          <path fill="#D5D2CF" d="M126.377188,77.7472811 C120.623231,77.7472811 116.945841,77.3335819 116.627502,76.4884158 L116.627502,75.3868986 L218.371536,75.3868986 L218.371536,76.4884158 C218.053198,77.3335819 214.375808,77.7472811 208.621851,77.7472811 L126.377028,77.7472811 L126.377188,77.7472811 Z"/>
          <path fill="#C3C3C3" d="M116.627983,75.3874588 C117.482626,73.6527073 128.384224,68.0045004 129.803288,65.4508342 C131.908373,62.6935597 133.335447,43.6684377 134.267792,31.1692629 L134.267792,30.0542199 L200.732368,30.0542199 L200.732368,31.1692629 C201.664713,43.6684377 203.091787,62.6935597 205.196872,65.4508342 C206.615936,68.0045004 217.517535,73.6527073 218.372177,75.3874588 C218.291111,76.5446802 213.446187,76.8036723 208.764758,76.8036723 L126.235562,76.8036723 C121.553973,76.8036723 116.709049,76.5446802 116.627983,75.3874588 Z"/>
          <path fill="#D5D2CF" d="M335,0.0112048541 L0,0.0112048541 L0,23.2451101 C0,27.6181245 3.55346724,31.1685426 7.93041607,31.1685426 L327.069584,31.1685426 C331.446533,31.1685426 335,27.6181245 335,23.2451101 L335,0.0112048541 L335,0.0112048541 Z"/>
        </g>
        <g fill="#343434">
          <path d="M335,7.92343253 C335,3.55033805 331.446533,0 327.069584,0 L7.93041607,0 C3.55346724,0 0,3.55033805 0,7.92343253 L0,199.53284 L335,199.53284 L335,7.92343253 L335,7.92343253 Z"/>
          <path d="M321.662482,13.20364 C321.662482,13.0711826 321.554821,12.963536 321.422166,12.963536 L13.5778336,12.963536 C13.4451793,12.963536 13.3375179,13.0711826 13.3375179,13.20364 L13.3375179,186.318636 C13.3375179,186.451173 13.4451793,186.55874 13.5778336,186.55874 L321.422166,186.55874 C321.554821,186.55874 321.662482,186.451173 321.662482,186.318636 L321.662482,13.20364 L321.662482,13.20364 Z"/>
          <rect width="307.604" height="172.875" transform="translate(13.698 13.326)"/>
        </g>
        <ellipse cx="167.5" cy="5.508" fill="#3E3E3E" rx="1.417" ry="1.416"/>
      </g>
    </g>
    <g transform="translate(524 52)">
      <path fill="#222" d="M49.7578125,27 L49.7578125,8.15625 L54.890625,8.15625 L54.890625,27 L49.7578125,27 Z M52.3242188,6.08203125 C50.7773438,6.08203125 49.5820312,4.90429688 49.5820312,3.42773438 C49.5820312,1.93359375 50.7773438,0.7734375 52.3242188,0.7734375 C53.8710938,0.7734375 55.0664062,1.93359375 55.0664062,3.42773438 C55.0664062,4.90429688 53.8710938,6.08203125 52.3242188,6.08203125 Z M85.5996094,27 L80.8710938,27 L80.8710938,9.87890625 L80.7304688,9.87890625 L73.8398438,26.7539062 L70.5,26.7539062 L63.609375,9.87890625 L63.46875,9.87890625 L63.46875,27 L58.7402344,27 L58.7402344,1.63476562 L64.8925781,1.63476562 L72.0996094,19.6171875 L72.2402344,19.6171875 L79.4472656,1.63476562 L85.5996094,1.63476562 L85.5996094,27 Z M96.2519531,23.5898438 C98.484375,23.5898438 100.330078,22.1308594 100.330078,20.0917969 L100.330078,18.7207031 L96.3574219,18.9667969 C94.4414062,19.1074219 93.3515625,19.96875 93.3515625,21.3046875 C93.3515625,22.7109375 94.5117188,23.5898438 96.2519531,23.5898438 Z M94.5644531,27.2988281 C90.9785156,27.2988281 88.2539062,24.9785156 88.2539062,21.5859375 C88.2539062,18.1582031 90.890625,16.171875 95.5839844,15.890625 L100.330078,15.609375 L100.330078,14.3613281 C100.330078,12.6035156 99.0996094,11.5839844 97.1660156,11.5839844 C95.25,11.5839844 94.0371094,12.5332031 93.7910156,13.921875 L89.0976562,13.921875 C89.2910156,10.265625 92.4023438,7.75195312 97.3945312,7.75195312 C102.228516,7.75195312 105.375,10.2480469 105.375,14.0449219 L105.375,27 L100.417969,27 L100.417969,24.1171875 L100.3125,24.1171875 C99.2578125,26.1210938 96.9199219,27.2988281 94.5644531,27.2988281 Z M125.800781,15.1699219 L121.037109,15.1699219 C120.738281,13.1835938 119.419922,11.7773438 117.310547,11.7773438 C114.779297,11.7773438 113.197266,13.921875 113.197266,17.5605469 C113.197266,21.2695312 114.779297,23.3789062 117.328125,23.3789062 C119.384766,23.3789062 120.720703,22.1484375 121.037109,20.0917969 L125.818359,20.0917969 C125.554688,24.5390625 122.232422,27.4042969 117.275391,27.4042969 C111.597656,27.4042969 107.994141,23.7128906 107.994141,17.5605469 C107.994141,11.5136719 111.597656,7.75195312 117.240234,7.75195312 C122.337891,7.75195312 125.572266,10.8984375 125.800781,15.1699219 Z M135.240234,9.26367188 C135.240234,4.46484375 139.072266,1.07226562 144.609375,1.07226562 C149.953125,1.07226562 153.626953,4.16601562 153.626953,8.40234375 C153.626953,11.5664062 151.517578,13.9394531 148.722656,16.7167969 L142.535156,22.6757812 L142.535156,22.78125 L153.978516,22.78125 L153.978516,27 L135.539062,27 L135.539062,23.4316406 L145.101562,14.2207031 C147.667969,11.6542969 148.458984,10.3710938 148.458984,8.61328125 C148.458984,6.71484375 146.789062,5.203125 144.433594,5.203125 C141.972656,5.203125 140.162109,6.92578125 140.162109,9.26367188 L140.162109,9.3515625 L135.240234,9.3515625 L135.240234,9.26367188 Z M163.59375,27 L163.59375,6.50390625 L163.488281,6.50390625 L157.019531,10.96875 L157.019531,6.1875 L163.576172,1.63476562 L168.849609,1.63476562 L168.849609,27 L163.59375,27 Z M177.304688,27.2109375 C175.722656,27.2109375 174.474609,25.9453125 174.474609,24.3808594 C174.474609,22.7988281 175.722656,21.5507812 177.304688,21.5507812 C178.869141,21.5507812 180.134766,22.7988281 180.134766,24.3808594 C180.134766,25.9453125 178.869141,27.2109375 177.304688,27.2109375 Z M193.705078,27.5625 C188.255859,27.5625 184.335938,24.328125 184.177734,19.7402344 L189.082031,19.7402344 C189.380859,21.8847656 191.279297,23.3613281 193.740234,23.3613281 C196.517578,23.3613281 198.433594,21.4277344 198.433594,18.6679688 C198.433594,15.8554688 196.517578,13.8867188 193.775391,13.8867188 C191.859375,13.8867188 190.207031,14.765625 189.328125,16.2246094 L184.582031,16.2246094 L185.830078,1.63476562 L201.966797,1.63476562 L201.966797,5.85351562 L189.996094,5.85351562 L189.416016,12.796875 L189.521484,12.796875 C190.558594,11.0917969 192.580078,10.0195312 195.164062,10.0195312 C200.015625,10.0195312 203.496094,13.5878906 203.496094,18.5273438 C203.496094,23.90625 199.523438,27.5625 193.705078,27.5625 Z M210.615234,11.53125 L206.783203,11.53125 L208.101562,1.63476562 L212.970703,1.63476562 L210.615234,11.53125 Z M220.529297,11.53125 L216.697266,11.53125 L218.015625,1.63476562 L222.884766,1.63476562 L220.529297,11.53125 Z"/>
      <g transform="translate(0 95)">
        <g transform="translate(0 165.207)">
          <path fill="#D5D2CF" d="M99.4810721,72.7317429 C94.3054271,72.7317429 90.997681,72.3455935 90.7112469,71.556718 L90.7112469,70.5286413 L182.229419,70.5286413 L182.229419,71.556718 C181.942985,72.3455935 178.635239,72.7317429 173.459594,72.7317429 L99.4813919,72.7317429 L99.4810721,72.7317429 Z"/>
          <path fill="#C3C3C3" d="M90.7113269,70.5289616 C91.480109,68.9098089 101.285959,63.6379327 102.562438,61.2544092 C104.455925,58.680854 105.886257,42.6857645 106.724928,31.01936 L106.724928,30.8310902 L166.21558,30.8310902 L166.215578,31.01936 C167.05425,42.6857645 168.484581,58.680854 170.378069,61.2544092 C171.654547,63.6379327 181.460397,68.9098089 182.229179,70.5289616 C182.156171,71.6090108 177.798247,71.8508546 173.587378,71.8508546 L99.3531283,71.8508546 C95.1422592,71.8508546 90.7843348,71.6090108 90.7113269,70.5289616 Z"/>
          <path fill="#D5D2CF" d="M272.940026,0.0288290713 L0,0.0288290713 L0,22.9414542 C0,27.3999502 3.61449121,31.0196003 8.06645431,31.0196003 L264.873572,31.0196003 C269.325535,31.0196003 272.940026,27.3999502 272.940026,22.9414542 L272.940026,0.0288290713 L272.940026,0.0288290713 Z"/>
        </g>
        <g fill="#343434">
          <path d="M272.940026,8.07814603 C272.940026,3.61973015 269.325535,0 264.873572,0 L8.07365114,0 C3.61776977,0 0.000159929701,3.6228533 0.000159929701,8.08519314 L0.000159929701,165.234863 L272.940186,165.234863 L272.940186,8.07798587 L272.940026,8.07814603 Z"/>
          <path d="M259.596292,13.4168896 C259.596292,13.2548062 259.464909,13.1232335 259.303061,13.1232335 L13.6374455,13.1232335 C13.4755967,13.1232335 13.3442144,13.2548062 13.3442144,13.4168896 L13.3442144,151.810046 C13.3442144,151.972129 13.4755967,152.103702 13.6374455,152.103702 L259.303061,152.103702 C259.464909,152.103702 259.596292,151.972129 259.596292,151.810046 L259.596292,13.4168896 L259.596292,13.4168896 Z"/>
          <polygon points="0 0 245.652 0 245.652 138.38 0 138.38" transform="translate(13.644 13.428)"/>
        </g>
        <ellipse cx="136.47" cy="5.648" fill="#3E3E3E" rx="1.393" ry="1.395"/>
      </g>
    </g>
  </g>
</svg>
