<?xml version="1.0" encoding="UTF-8" standalone="no"?>
<svg width="728px" height="445px" viewBox="0 0 728 445" version="1.1" xmlns="http://www.w3.org/2000/svg" xmlns:xlink="http://www.w3.org/1999/xlink" xmlns:sketch="http://www.bohemiancoding.com/sketch/ns">
    <!-- Generator: Sketch 3.3.3 (12072) - http://www.bohemiancoding.com/sketch -->
    <title>iMac Overview</title>
    <desc>Created with Sketch.</desc>
    <defs></defs>
    <g id="Overview" stroke="none" stroke-width="1" fill="none" fill-rule="evenodd" sketch:type="MSPage">
        <g id="iMac-Overview" sketch:type="MSArtboardGroup">
            <rect id="Background" fill="#F5515F" sketch:type="MSShapeGroup" x="0" y="0" width="728" height="1024"></rect>
            <g id="iMac-27’’-+-iMac-27-inches" sketch:type="MSLayerGroup" transform="translate(41.000000, 49.000000)">
                <path d="M101.68,4.84 C101.08,4.84 100.6,5.32 100.6,5.92 C100.6,6.52 101.08,7 101.68,7 C102.28,7 102.76,6.52 102.76,5.92 C102.76,5.32 102.28,4.84 101.68,4.84 L101.68,4.84 Z M101,30 L102.36,30 L102.36,11.04 L101,11.04 L101,30 Z M111.6,2.48 L109.44,2.48 L109,30 L110.36,30 L110.6,10.88 C110.64,8.56 110.64,6.28 110.56,3.28 C111.56,6.28 112.4,8.56 113.28,10.88 L120.32,29.68 L122.12,29.68 L129.36,10.88 C130.24,8.56 131.12,6.28 132.08,3.6 C132.04,6.28 132.04,8.56 132.08,10.88 L132.36,30 L133.8,30 L133.36,2.48 L131.16,2.48 L123.48,22.52 C122.72,24.48 122,26.48 121.32,28.48 C120.68,26.48 119.96,24.48 119.2,22.52 L111.6,2.48 Z M140.96,13.32 C142.56,12.36 144.16,11.88 145.56,11.88 C148.36,11.88 150.4,13.2 150.4,16.48 L150.4,19 C149.48,18.8 148.64,18.72 147.44,18.72 C143.32,18.72 139.36,20.76 139.36,25.2 C139.36,28.48 141.84,30.4 144.44,30.4 C146.88,30.4 149.32,29.08 150.44,26.2 L150.6,30 L151.76,30 L151.76,16.24 C151.76,12.6 149.32,10.64 145.96,10.64 C143.92,10.64 142.36,11.08 140.88,12 L140.96,13.32 Z M150.4,22.2 C150.4,26.76 147.6,29.16 144.96,29.16 C142.64,29.16 140.8,27.6 140.8,24.96 C140.8,22.24 143.4,19.96 147.32,19.96 C148.44,19.96 149.48,20.04 150.4,20.2 L150.4,22.2 Z M169.96,28.24 C168.88,28.76 167.32,29.16 165.96,29.16 C161.92,29.16 158.52,26.76 158.52,20.44 C158.52,14.64 162.16,11.88 166.08,11.88 C167.72,11.88 168.84,12.24 170.04,12.84 L170.2,11.52 C169.12,11 167.96,10.64 165.96,10.64 C161.12,10.64 157.08,13.96 157.08,20.68 C157.08,27.4 161.12,30.4 165.4,30.4 C167.36,30.4 168.72,30.16 170.04,29.52 L169.96,28.24 Z M184.52,6.92 C185.96,5.32 188.24,4.4 190.12,4.4 C193.36,4.4 195.44,6.08 195.44,9.48 C195.44,12.16 193.52,15.12 188.92,20.96 L182.52,29.08 L182.52,30 L197.08,30 L197.08,28.72 L184.4,28.72 L189.8,21.96 C194.96,15.48 196.88,12.36 196.88,9.32 C196.88,5.48 194.32,3.12 190.2,3.12 C188.24,3.12 185.88,3.92 184.4,5.4 L184.52,6.92 Z M215.96,4.68 L215.96,3.68 L201.36,3.68 L201.36,4.96 L214.36,4.96 L202.96,30 L204.44,30 L215.96,4.68 Z M219.84,11.28 L224.56,0.6 L222.96,0.68 L218.76,11.48 L219.84,11.28 Z M228.4,11.28 L233.12,0.6 L231.52,0.68 L227.32,11.48 L228.4,11.28 Z" id="iMac-27’’" fill="#FFFFFF" sketch:type="MSShapeGroup"></path>
                <g id="iMac-27-inches" transform="translate(0.000000, 78.000000)" sketch:type="MSShapeGroup">
                    <g id="Body" transform="translate(0.000000, 199.206299)">
                        <path d="M126.377188,77.7472811 C120.623231,77.7472811 116.945841,77.3335819 116.627502,76.4884158 L116.627502,75.3868986 L218.371536,75.3868986 L218.371536,76.4884158 C218.053198,77.3335819 214.375808,77.7472811 208.621851,77.7472811 L126.377028,77.7472811 L126.377188,77.7472811 Z" id="Leg-Front" fill="#D5D2CF"></path>
                        <path d="M116.627983,75.3874588 C117.482626,73.6527073 128.384224,68.0045004 129.803288,65.4508342 C131.908373,62.6935597 133.335447,43.6684377 134.267792,31.1692629 L134.267792,30.0542199 L200.732368,30.0542199 L200.732368,31.1692629 C201.664713,43.6684377 203.091787,62.6935597 205.196872,65.4508342 C206.615936,68.0045004 217.517535,73.6527073 218.372177,75.3874588 C218.291111,76.5446802 213.446187,76.8036723 208.764758,76.8036723 L126.235562,76.8036723 C121.553973,76.8036723 116.709049,76.5446802 116.627983,75.3874588 Z" id="Leg" fill="#C3C3C3"></path>
                        <path d="M335,0.0112048541 L0,0.0112048541 L0,23.2451101 C0,27.6181245 3.55346724,31.1685426 7.93041607,31.1685426 L327.069584,31.1685426 C331.446533,31.1685426 335,27.6181245 335,23.2451101 L335,0.0112048541 L335,0.0112048541 Z" id="Body1" fill="#D5D2CF"></path>
                    </g>
                    <g id="Screen" fill="#343434">
                        <path d="M335,7.92343253 C335,3.55033805 331.446533,0 327.069584,0 L7.93041607,0 C3.55346724,0 0,3.55033805 0,7.92343253 L0,199.53284 L335,199.53284 L335,7.92343253 L335,7.92343253 Z" id="Black-Frame"></path>
                        <path d="M321.662482,13.20364 C321.662482,13.0711826 321.554821,12.963536 321.422166,12.963536 L13.5778336,12.963536 C13.4451793,12.963536 13.3375179,13.0711826 13.3375179,13.20364 L13.3375179,186.318636 C13.3375179,186.451173 13.4451793,186.55874 13.5778336,186.55874 L321.422166,186.55874 C321.554821,186.55874 321.662482,186.451173 321.662482,186.318636 L321.662482,13.20364 L321.662482,13.20364 Z" id="Screen-Frame"></path>
                        <rect id="Screen1" x="13.6979914" y="13.3257729" width="307.604017" height="172.874892"></rect>
                    </g>
                    <ellipse id="Camera" fill="#3E3E3E" cx="167.5" cy="5.50758596" rx="1.41746174" ry="1.41621352"></ellipse>
                </g>
            </g>
            <g id="iMac-21,5’’-+-iMac-21-5-inches" sketch:type="MSLayerGroup" transform="translate(414.000000, 49.000000)">
                <path d="M57.7,4.84 C57.1,4.84 56.62,5.32 56.62,5.92 C56.62,6.52 57.1,7 57.7,7 C58.3,7 58.78,6.52 58.78,5.92 C58.78,5.32 58.3,4.84 57.7,4.84 L57.7,4.84 Z M57.02,30 L58.38,30 L58.38,11.04 L57.02,11.04 L57.02,30 Z M67.62,2.48 L65.46,2.48 L65.02,30 L66.38,30 L66.62,10.88 C66.66,8.56 66.66,6.28 66.58,3.28 C67.58,6.28 68.42,8.56 69.3,10.88 L76.34,29.68 L78.14,29.68 L85.38,10.88 C86.26,8.56 87.14,6.28 88.1,3.6 C88.06,6.28 88.06,8.56 88.1,10.88 L88.38,30 L89.82,30 L89.38,2.48 L87.18,2.48 L79.5,22.52 C78.74,24.48 78.02,26.48 77.34,28.48 C76.7,26.48 75.98,24.48 75.22,22.52 L67.62,2.48 Z M96.98,13.32 C98.58,12.36 100.18,11.88 101.58,11.88 C104.38,11.88 106.42,13.2 106.42,16.48 L106.42,19 C105.5,18.8 104.66,18.72 103.46,18.72 C99.34,18.72 95.38,20.76 95.38,25.2 C95.38,28.48 97.86,30.4 100.46,30.4 C102.9,30.4 105.34,29.08 106.46,26.2 L106.62,30 L107.78,30 L107.78,16.24 C107.78,12.6 105.34,10.64 101.98,10.64 C99.94,10.64 98.38,11.08 96.9,12 L96.98,13.32 Z M106.42,22.2 C106.42,26.76 103.62,29.16 100.98,29.16 C98.66,29.16 96.82,27.6 96.82,24.96 C96.82,22.24 99.42,19.96 103.34,19.96 C104.46,19.96 105.5,20.04 106.42,20.2 L106.42,22.2 Z M125.98,28.24 C124.9,28.76 123.34,29.16 121.98,29.16 C117.94,29.16 114.54,26.76 114.54,20.44 C114.54,14.64 118.18,11.88 122.1,11.88 C123.74,11.88 124.86,12.24 126.06,12.84 L126.22,11.52 C125.14,11 123.98,10.64 121.98,10.64 C117.14,10.64 113.1,13.96 113.1,20.68 C113.1,27.4 117.14,30.4 121.42,30.4 C123.38,30.4 124.74,30.16 126.06,29.52 L125.98,28.24 Z M140.54,6.92 C141.98,5.32 144.26,4.4 146.14,4.4 C149.38,4.4 151.46,6.08 151.46,9.48 C151.46,12.16 149.54,15.12 144.94,20.96 L138.54,29.08 L138.54,30 L153.1,30 L153.1,28.72 L140.42,28.72 L145.82,21.96 C150.98,15.48 152.9,12.36 152.9,9.32 C152.9,5.48 150.34,3.12 146.22,3.12 C144.26,3.12 141.9,3.92 140.42,5.4 L140.54,6.92 Z M167.62,30 L167.62,3.52 L166.94,3.52 L159.14,8.28 L159.22,9.68 L166.26,5.52 L166.26,30 L167.62,30 Z M173.38,35.68 L177.66,25.8 L176.02,25.88 L172.22,35.88 L173.38,35.68 Z M196.18,4.96 L196.18,3.68 L185.26,3.68 L184.54,16.08 L186.9,16.08 C192.42,16.08 195.22,18.4 195.22,22.96 C195.22,26.52 191.86,29.12 188.54,29.12 C186.7,29.12 185.14,28.76 183.38,27.48 L183.22,28.92 C184.82,30.04 186.22,30.4 188.38,30.4 C192.98,30.4 196.66,26.92 196.66,22.64 C196.66,17.6 193.14,14.8 187.22,14.8 L185.9,14.8 L186.46,4.96 L196.18,4.96 Z M201.82,11.28 L206.54,0.6 L204.94,0.68 L200.74,11.48 L201.82,11.28 Z M210.38,11.28 L215.1,0.6 L213.5,0.68 L209.3,11.48 L210.38,11.28 Z" id="iMac-21,5’’" fill="#FFFFFF" sketch:type="MSShapeGroup"></path>
                <g id="iMac-21-5-inches" transform="translate(0.000000, 98.000000)" sketch:type="MSShapeGroup">
                    <g id="Body" transform="translate(0.000000, 165.206595)">
                        <path d="M99.4810721,72.7317429 C94.3054271,72.7317429 90.997681,72.3455935 90.7112469,71.556718 L90.7112469,70.5286413 L182.229419,70.5286413 L182.229419,71.556718 C181.942985,72.3455935 178.635239,72.7317429 173.459594,72.7317429 L99.4813919,72.7317429 L99.4810721,72.7317429 Z" id="Leg-Front" fill="#D5D2CF"></path>
                        <path d="M90.7113269,70.5289616 C91.480109,68.9098089 101.285959,63.6379327 102.562438,61.2544092 C104.455925,58.680854 105.886257,42.6857645 106.724928,31.01936 L106.724928,30.8310902 L166.21558,30.8310902 L166.215578,31.01936 C167.05425,42.6857645 168.484581,58.680854 170.378069,61.2544092 C171.654547,63.6379327 181.460397,68.9098089 182.229179,70.5289616 C182.156171,71.6090108 177.798247,71.8508546 173.587378,71.8508546 L99.3531283,71.8508546 C95.1422592,71.8508546 90.7843348,71.6090108 90.7113269,70.5289616 Z" id="Leg" fill="#C3C3C3"></path>
                        <path d="M272.940026,0.0288290713 L0,0.0288290713 L0,22.9414542 C0,27.3999502 3.61449121,31.0196003 8.06645431,31.0196003 L264.873572,31.0196003 C269.325535,31.0196003 272.940026,27.3999502 272.940026,22.9414542 L272.940026,0.0288290713 L272.940026,0.0288290713 Z" id="Body1" fill="#D5D2CF"></path>
                    </g>
                    <g id="Screen" fill="#343434">
                        <path d="M272.940026,8.07814603 C272.940026,3.61973015 269.325535,0 264.873572,0 L8.07365114,0 C3.61776977,0 0.000159929701,3.6228533 0.000159929701,8.08519314 L0.000159929701,165.234863 L272.940186,165.234863 L272.940186,8.07798587 L272.940026,8.07814603 Z" id="Black-Frame"></path>
                        <path d="M259.596292,13.4168896 C259.596292,13.2548062 259.464909,13.1232335 259.303061,13.1232335 L13.6374455,13.1232335 C13.4755967,13.1232335 13.3442144,13.2548062 13.3442144,13.4168896 L13.3442144,151.810046 C13.3442144,151.972129 13.4755967,152.103702 13.6374455,152.103702 L259.303061,152.103702 C259.464909,152.103702 259.596292,151.972129 259.596292,151.810046 L259.596292,13.4168896 L259.596292,13.4168896 Z" id="Screen-Frame"></path>
                        <rect id="Screen1" x="13.6440026" y="13.4277806" width="245.652021" height="138.379542"></rect>
                    </g>
                    <ellipse id="Camera" fill="#3E3E3E" cx="136.469613" cy="5.64817564" rx="1.39330756" ry="1.39532705"></ellipse>
                </g>
            </g>
        </g>
    </g>
</svg>