<svg xmlns="http://www.w3.org/2000/svg" width="728" height="1061" viewBox="0 0 728 1061">
  <g fill="none" fill-rule="evenodd">
    <rect width="728" height="1061" fill="#F4F4F4"/>
    <g transform="translate(51 375)">
      <g transform="translate(0 73)">
        <g transform="translate(154)">
          <path fill="#D5D2CF" d="M141.920441,9.71056845 C141.920441,2.93170536 138.425088,0.0505204163 131.969351,0.0505204163 L9.32940804,0.0505204163 C2.55881268,0.0505204163 0.000723259762,3.9592474 0.000723259762,9.66381105 L0.000723259762,190.356365 C0.000723259762,196.060929 2.55881268,199.969656 9.32940804,199.969656 L131.969351,199.969656 C138.425088,199.969656 141.920441,197.088471 141.920441,190.309688 L141.920441,9.71080865 L141.920441,9.71056845 Z"/>
          <g transform="translate(.964 1.04)">
            <path fill="#F3F5F7" d="M137.558381,2.10520416 C136.076101,0.722578062 133.905839,0.0504403523 130.92392,0.0504403523 L8.35469496,0.0504403523 C6.90367516,0.0504403523 5.61514771,0.255244195 4.52479344,0.65908727 C3.45911036,1.05388311 2.57866214,1.64083267 1.90803962,2.40376301 C0.642254669,3.84363491 0.000401810979,5.93610889 0.000401810979,8.62297838 L0.000401810979,189.315532 C0.000401810979,191.992074 0.644665535,194.082146 1.91519185,195.527462 C3.29211771,197.093835 5.43497566,197.88799 8.28437804,197.88799 L130.924321,197.88799 C133.972942,197.88799 136.158874,197.231545 137.606759,195.881025 C138.32568,195.210488 138.875839,194.340432 139.241969,193.295116 C139.63261,192.179984 139.830703,190.8253 139.830703,189.268855 L139.830703,8.66997598 C139.830703,7.1133707 139.63261,5.75892714 139.241969,4.64379504 C138.902921,3.67598078 138.35236,2.84563651 137.558783,2.10544436 L137.558381,2.10520416 Z"/>
            <g fill="#D5D2CF" transform="translate(65.576 186.069)">
              <path d="M4.38014148,0.0496397118 C6.79735597,0.0496397118 8.75988115,2.00480384 8.75988115,4.4131305 C8.75988115,6.8213771 6.79735597,8.7766213 4.38014148,8.7766213 C1.96284663,8.7766213 0.000401810979,6.8213771 0.000401810979,4.4131305 C0.000401810979,2.00480384 1.96284663,0.0496397118 4.38014148,0.0496397118 L4.38014148,0.0496397118 Z M4.38014148,0.3755004 C6.61710357,0.3755004 8.43320883,2.18494796 8.43320883,4.41361089 C8.43320883,6.64227382 6.61710357,8.45164131 4.38014148,8.45164131 C2.1431794,8.45164131 0.326993775,6.64227382 0.326993775,4.41361089 C0.326993775,2.18494796 2.1431794,0.3755004 4.38014148,0.3755004 L4.38014148,0.3755004 Z"/>
              <path d="M3.33768308,5.98558847 C3.31719072,5.98542834 3.29669836,5.98438751 3.27628636,5.98206565 C3.23658744,5.97758207 3.19745105,5.96861489 3.15984154,5.95540432 C3.08655122,5.9296237 3.0192077,5.8877502 2.96359706,5.83370697 C2.9065399,5.77814251 2.8620996,5.71000801 2.83461573,5.63530825 C2.82095416,5.59807846 2.81147142,5.5592474 2.8064086,5.51985588 C2.80383701,5.49959968 2.80255122,5.47926341 2.80214941,5.45884708 C2.79772949,4.76188951 2.79772949,4.06493195 2.80214941,3.36797438 C2.80255122,3.34755805 2.80383701,3.32722178 2.8064086,3.30696557 C2.81147142,3.26757406 2.82095416,3.22882306 2.83461573,3.19151321 C2.8620996,3.11681345 2.9065399,3.04867894 2.96359706,2.99311449 C3.0192077,2.93907126 3.08655122,2.89719776 3.15984154,2.8714972 C3.19745105,2.85828663 3.23658744,2.84931946 3.27628636,2.8447558 C3.29436786,2.84267414 3.31252971,2.84171337 3.33077193,2.84131305 C4.03032484,2.83690953 4.72987776,2.83690953 5.42943067,2.84131305 C5.44992303,2.84171337 5.47033503,2.8429944 5.49066667,2.84555645 C5.53020487,2.85060048 5.56918053,2.86004804 5.60654895,2.87365893 C5.68152688,2.90104083 5.74991511,2.94531625 5.80568647,3.00224179 C5.85993096,3.05756605 5.90196038,3.12465973 5.92783701,3.19767814 C5.94109677,3.23514812 5.95009734,3.27413931 5.95459762,3.31369095 C5.95668704,3.33170536 5.95773175,3.3498799 5.9580532,3.36797438 C5.96247312,4.06493195 5.96247312,4.76188951 5.9580532,5.45884708 C5.95765139,5.47926341 5.95636559,5.49959968 5.953794,5.51985588 C5.94873118,5.5592474 5.93932881,5.59807846 5.92558687,5.63530825 C5.898103,5.71000801 5.85366271,5.77814251 5.79660555,5.83370697 C5.74099491,5.8877502 5.67373175,5.9296237 5.60044143,5.95540432 C5.56275156,5.96861489 5.52361517,5.97758207 5.4839966,5.98206565 C5.46583475,5.98414732 5.44767289,5.98518815 5.42943067,5.98550841 C4.73220826,5.98991193 4.03498585,5.98558847 3.33768308,5.98558847 L3.33768308,5.98558847 Z M3.33896887,5.632506 C4.03586984,5.632506 4.73317261,5.65420336 5.42975212,5.63234588 C5.43513639,5.63210568 5.44052066,5.6316253 5.44590492,5.63098479 C5.4642275,5.62858287 5.48206791,5.62353883 5.49886361,5.61577262 C5.54201811,5.59567654 5.57657385,5.55828663 5.59296774,5.51377102 C5.59995925,5.49463571 5.60341483,5.47453963 5.60381664,5.45420336 C5.60831692,4.75868695 5.6259966,4.06277022 5.60373628,3.36757406 C5.60285229,3.34883907 5.59947708,3.33042434 5.59296774,3.31281025 C5.57472552,3.26317054 5.53422298,3.22305845 5.48447878,3.20480384 C5.46543294,3.19783827 5.44534239,3.19447558 5.42509111,3.19407526 C4.72690436,3.19007206 4.02831579,3.17125701 3.33053084,3.19423539 C3.31180645,3.19503603 3.29332315,3.19839872 3.27572383,3.20480384 C3.22670289,3.22281825 3.18660215,3.26204964 3.16803848,3.31072858 C3.16048444,3.33042434 3.15678778,3.35124099 3.15638596,3.37229784 C3.15212677,4.06789432 3.13444709,4.76381105 3.15646633,5.45900721 C3.15743067,5.47918335 3.16136842,5.49903923 3.16884211,5.51785428 C3.18636106,5.56204964 3.22172043,5.59847878 3.26543746,5.61761409 C3.28311715,5.62530024 3.3019219,5.62994396 3.32112847,5.63170536 C3.32707527,5.63218575 3.33302207,5.63242594 3.33896887,5.632506 L3.33896887,5.632506 Z"/>
            </g>
            <g transform="translate(7.554 16.493)">
              <path fill="#3E3E3E" d="M124.07923,0.049959968 L0.642897566,0.049959968 C0.287937748,0.049959968 8.03621958e-05,0.3367494 8.03621958e-05,0.690472378 L8.03621958e-05,164.661649 C8.03621958e-05,164.831545 0.0677453311,164.994476 0.188288625,165.114652 C0.308912281,165.234748 0.472368987,165.302162 0.642897566,165.302162 L124.07923,165.302162 C124.434271,165.302162 124.722208,165.015372 124.722208,164.661649 L124.722208,0.690472378 C124.722208,0.3367494 124.434271,0.049959968 124.07923,0.049959968 L124.07923,0.049959968 Z"/>
              <rect width="123.436" height="163.971" x=".643" y=".69" fill="#343434"/>
            </g>
            <g transform="translate(65.817 7.286)">
              <path fill="#E0E0E0" d="M0.603037917,0.610408327 C0.913637804,0.610408327 1.16557329,0.861329063 1.16557329,1.17085669 C1.16557329,1.48038431 0.913637804,1.73130504 0.603037917,1.73130504 C0.292277306,1.73130504 0.0405025467,1.48038431 0.0405025467,1.17085669 C0.0405025467,0.861329063 0.292277306,0.610408327 0.603037917,0.610408327 L0.603037917,0.610408327 Z"/>
              <path fill="#3E3E3E" d="M4.0185116,0.0498799039 C4.61769213,0.0498799039 5.10340125,0.53378703 5.10340125,1.13082466 C5.10340125,1.72778223 4.61769213,2.21160929 4.0185116,2.21160929 C3.41933107,2.21160929 2.93362196,1.72778223 2.93362196,1.13082466 C2.93362196,0.53378703 3.41933107,0.0498799039 4.0185116,0.0498799039 L4.0185116,0.0498799039 Z"/>
            </g>
          </g>
        </g>
        <path fill="#545454" d="M141.920441,9.71056845 C141.920441,2.93170536 138.425088,0.0505204163 131.969351,0.0505204163 L9.32940804,0.0505204163 C2.55881268,0.0505204163 0.000723259762,3.9592474 0.000723259762,9.66381105 L0.000723259762,190.356365 C0.000723259762,196.060929 2.55881268,199.969656 9.32940804,199.969656 L131.969351,199.969656 C138.425088,199.969656 141.920441,197.088471 141.920441,190.309688 L141.920441,9.71080865 L141.920441,9.71056845 Z"/>
        <g transform="translate(.964 1.04)">
          <path fill="#343434" d="M137.558381,2.10520416 C136.076101,0.722578062 133.905839,0.0504403523 130.92392,0.0504403523 L8.35469496,0.0504403523 C6.90367516,0.0504403523 5.61514771,0.255244195 4.52479344,0.65908727 C3.45911036,1.05388311 2.57866214,1.64083267 1.90803962,2.40376301 C0.642254669,3.84363491 0.000401810979,5.93610889 0.000401810979,8.62297838 L0.000401810979,189.315532 C0.000401810979,191.992074 0.644665535,194.082146 1.91519185,195.527462 C3.29211771,197.093835 5.43497566,197.88799 8.28437804,197.88799 L130.924321,197.88799 C133.972942,197.88799 136.158874,197.231545 137.606759,195.881025 C138.32568,195.210488 138.875839,194.340432 139.241969,193.295116 C139.63261,192.179984 139.830703,190.8253 139.830703,189.268855 L139.830703,8.66997598 C139.830703,7.1133707 139.63261,5.75892714 139.241969,4.64379504 C138.902921,3.67598078 138.35236,2.84563651 137.558783,2.10544436 L137.558381,2.10520416 Z"/>
          <g transform="translate(65.576 186.069)">
            <path fill="#3E3E3E" d="M4.38014148,0.0496397118 C6.79735597,0.0496397118 8.75988115,2.00480384 8.75988115,4.4131305 C8.75988115,6.8213771 6.79735597,8.7766213 4.38014148,8.7766213 C1.96284663,8.7766213 0.000401810979,6.8213771 0.000401810979,4.4131305 C0.000401810979,2.00480384 1.96284663,0.0496397118 4.38014148,0.0496397118 L4.38014148,0.0496397118 Z M4.38014148,0.3755004 C6.61710357,0.3755004 8.43320883,2.18494796 8.43320883,4.41361089 C8.43320883,6.64227382 6.61710357,8.45164131 4.38014148,8.45164131 C2.1431794,8.45164131 0.326993775,6.64227382 0.326993775,4.41361089 C0.326993775,2.18494796 2.1431794,0.3755004 4.38014148,0.3755004 L4.38014148,0.3755004 Z"/>
            <path fill="#D5D2CF" d="M3.33768308,5.98558847 C3.31719072,5.98542834 3.29669836,5.98438751 3.27628636,5.98206565 C3.23658744,5.97758207 3.19745105,5.96861489 3.15984154,5.95540432 C3.08655122,5.9296237 3.0192077,5.8877502 2.96359706,5.83370697 C2.9065399,5.77814251 2.8620996,5.71000801 2.83461573,5.63530825 C2.82095416,5.59807846 2.81147142,5.5592474 2.8064086,5.51985588 C2.80383701,5.49959968 2.80255122,5.47926341 2.80214941,5.45884708 C2.79772949,4.76188951 2.79772949,4.06493195 2.80214941,3.36797438 C2.80255122,3.34755805 2.80383701,3.32722178 2.8064086,3.30696557 C2.81147142,3.26757406 2.82095416,3.22882306 2.83461573,3.19151321 C2.8620996,3.11681345 2.9065399,3.04867894 2.96359706,2.99311449 C3.0192077,2.93907126 3.08655122,2.89719776 3.15984154,2.8714972 C3.19745105,2.85828663 3.23658744,2.84931946 3.27628636,2.8447558 C3.29436786,2.84267414 3.31252971,2.84171337 3.33077193,2.84131305 C4.03032484,2.83690953 4.72987776,2.83690953 5.42943067,2.84131305 C5.44992303,2.84171337 5.47033503,2.8429944 5.49066667,2.84555645 C5.53020487,2.85060048 5.56918053,2.86004804 5.60654895,2.87365893 C5.68152688,2.90104083 5.74991511,2.94531625 5.80568647,3.00224179 C5.85993096,3.05756605 5.90196038,3.12465973 5.92783701,3.19767814 C5.94109677,3.23514812 5.95009734,3.27413931 5.95459762,3.31369095 C5.95668704,3.33170536 5.95773175,3.3498799 5.9580532,3.36797438 C5.96247312,4.06493195 5.96247312,4.76188951 5.9580532,5.45884708 C5.95765139,5.47926341 5.95636559,5.49959968 5.953794,5.51985588 C5.94873118,5.5592474 5.93932881,5.59807846 5.92558687,5.63530825 C5.898103,5.71000801 5.85366271,5.77814251 5.79660555,5.83370697 C5.74099491,5.8877502 5.67373175,5.9296237 5.60044143,5.95540432 C5.56275156,5.96861489 5.52361517,5.97758207 5.4839966,5.98206565 C5.46583475,5.98414732 5.44767289,5.98518815 5.42943067,5.98550841 C4.73220826,5.98991193 4.03498585,5.98558847 3.33768308,5.98558847 L3.33768308,5.98558847 Z M3.33896887,5.632506 C4.03586984,5.632506 4.73317261,5.65420336 5.42975212,5.63234588 C5.43513639,5.63210568 5.44052066,5.6316253 5.44590492,5.63098479 C5.4642275,5.62858287 5.48206791,5.62353883 5.49886361,5.61577262 C5.54201811,5.59567654 5.57657385,5.55828663 5.59296774,5.51377102 C5.59995925,5.49463571 5.60341483,5.47453963 5.60381664,5.45420336 C5.60831692,4.75868695 5.6259966,4.06277022 5.60373628,3.36757406 C5.60285229,3.34883907 5.59947708,3.33042434 5.59296774,3.31281025 C5.57472552,3.26317054 5.53422298,3.22305845 5.48447878,3.20480384 C5.46543294,3.19783827 5.44534239,3.19447558 5.42509111,3.19407526 C4.72690436,3.19007206 4.02831579,3.17125701 3.33053084,3.19423539 C3.31180645,3.19503603 3.29332315,3.19839872 3.27572383,3.20480384 C3.22670289,3.22281825 3.18660215,3.26204964 3.16803848,3.31072858 C3.16048444,3.33042434 3.15678778,3.35124099 3.15638596,3.37229784 C3.15212677,4.06789432 3.13444709,4.76381105 3.15646633,5.45900721 C3.15743067,5.47918335 3.16136842,5.49903923 3.16884211,5.51785428 C3.18636106,5.56204964 3.22172043,5.59847878 3.26543746,5.61761409 C3.28311715,5.62530024 3.3019219,5.62994396 3.32112847,5.63170536 C3.32707527,5.63218575 3.33302207,5.63242594 3.33896887,5.632506 L3.33896887,5.632506 Z"/>
          </g>
          <g fill="#343434" transform="translate(7.554 16.493)">
            <path d="M124.07923,0.049959968 L0.642897566,0.049959968 C0.287937748,0.049959968 8.03621958e-05,0.3367494 8.03621958e-05,0.690472378 L8.03621958e-05,164.661649 C8.03621958e-05,164.831545 0.0677453311,164.994476 0.188288625,165.114652 C0.308912281,165.234748 0.472368987,165.302162 0.642897566,165.302162 L124.07923,165.302162 C124.434271,165.302162 124.722208,165.015372 124.722208,164.661649 L124.722208,0.690472378 C124.722208,0.3367494 124.434271,0.049959968 124.07923,0.049959968 L124.07923,0.049959968 Z"/>
            <rect width="123.436" height="163.971" x=".643" y=".69"/>
          </g>
          <path fill="#3E3E3E" d="M1.12547255,0.0498799039 C1.72465308,0.0498799039 2.2103622,0.53378703 2.2103622,1.13082466 C2.2103622,1.72778223 1.72465308,2.21160929 1.12547255,2.21160929 C0.52629202,2.21160929 0.0405829089,1.72778223 0.0405829089,1.13082466 C0.0405829089,0.53378703 0.52629202,0.0498799039 1.12547255,0.0498799039 L1.12547255,0.0498799039 Z" transform="translate(68.71 7.286)"/>
        </g>
      </g>
      <path fill="#222" d="M82.7578125,34 L82.7578125,15.15625 L87.890625,15.15625 L87.890625,34 L82.7578125,34 Z M85.3242188,13.0820312 C83.7773438,13.0820312 82.5820312,11.9042969 82.5820312,10.4277344 C82.5820312,8.93359375 83.7773438,7.7734375 85.3242188,7.7734375 C86.8710938,7.7734375 88.0664062,8.93359375 88.0664062,10.4277344 C88.0664062,11.9042969 86.8710938,13.0820312 85.3242188,13.0820312 Z M91.7402344,8.63476562 L102.058594,8.63476562 C107.261719,8.63476562 110.847656,12.0976562 110.847656,17.3183594 C110.847656,22.5214844 107.138672,26.0019531 101.794922,26.0019531 L97.0488281,26.0019531 L97.0488281,34 L91.7402344,34 L91.7402344,8.63476562 Z M97.0488281,12.8359375 L97.0488281,21.8535156 L100.634766,21.8535156 C103.675781,21.8535156 105.451172,20.2363281 105.451172,17.3359375 C105.451172,14.453125 103.693359,12.8359375 100.652344,12.8359375 L97.0488281,12.8359375 Z M119.583984,30.5898438 C121.816406,30.5898438 123.662109,29.1308594 123.662109,27.0917969 L123.662109,25.7207031 L119.689453,25.9667969 C117.773438,26.1074219 116.683594,26.96875 116.683594,28.3046875 C116.683594,29.7109375 117.84375,30.5898438 119.583984,30.5898438 Z M117.896484,34.2988281 C114.310547,34.2988281 111.585938,31.9785156 111.585938,28.5859375 C111.585938,25.1582031 114.222656,23.171875 118.916016,22.890625 L123.662109,22.609375 L123.662109,21.3613281 C123.662109,19.6035156 122.431641,18.5839844 120.498047,18.5839844 C118.582031,18.5839844 117.369141,19.5332031 117.123047,20.921875 L112.429688,20.921875 C112.623047,17.265625 115.734375,14.7519531 120.726562,14.7519531 C125.560547,14.7519531 128.707031,17.2480469 128.707031,21.0449219 L128.707031,34 L123.75,34 L123.75,31.1171875 L123.644531,31.1171875 C122.589844,33.1210938 120.251953,34.2988281 117.896484,34.2988281 Z M139.007812,34.2988281 C134.296875,34.2988281 131.326172,30.5722656 131.326172,24.5429688 C131.326172,18.5664062 134.314453,14.8574219 139.042969,14.8574219 C141.767578,14.8574219 143.876953,16.2988281 144.791016,18.390625 L144.896484,18.390625 L144.896484,8.63476562 L150.029297,8.63476562 L150.029297,34 L144.966797,34 L144.966797,30.765625 L144.878906,30.765625 C143.964844,32.8398438 141.785156,34.2988281 139.007812,34.2988281 Z M140.748047,18.9707031 C138.164062,18.9707031 136.582031,21.1328125 136.582031,24.578125 C136.582031,28.0410156 138.164062,30.1679688 140.748047,30.1679688 C143.296875,30.1679688 144.931641,28.0234375 144.931641,24.578125 C144.931641,21.1503906 143.296875,18.9707031 140.748047,18.9707031 Z M177.626953,34 L175.693359,27.8476562 L166.78125,27.8476562 L164.847656,34 L159.398438,34 L168.205078,8.63476562 L174.445312,8.63476562 L183.269531,34 L177.626953,34 Z M171.175781,13.4863281 L167.923828,23.875 L174.550781,23.875 L171.298828,13.4863281 L171.175781,13.4863281 Z M185.501953,34 L185.501953,15.15625 L190.634766,15.15625 L190.634766,34 L185.501953,34 Z M188.068359,13.0820312 C186.521484,13.0820312 185.326172,11.9042969 185.326172,10.4277344 C185.326172,8.93359375 186.521484,7.7734375 188.068359,7.7734375 C189.615234,7.7734375 190.810547,8.93359375 190.810547,10.4277344 C190.810547,11.9042969 189.615234,13.0820312 188.068359,13.0820312 Z M194.044922,34 L194.044922,15.15625 L199.001953,15.15625 L199.001953,18.5488281 L199.107422,18.5488281 C199.775391,16.1582031 201.375,14.8574219 203.589844,14.8574219 C204.1875,14.8574219 204.697266,14.9453125 205.048828,15.0507812 L205.048828,19.5683594 C204.626953,19.3925781 203.923828,19.2695312 203.185547,19.2695312 C200.654297,19.2695312 199.177734,20.8164062 199.177734,23.4707031 L199.177734,34 L194.044922,34 Z"/>
    </g>
    <g transform="translate(381 375)">
      <g transform="translate(0 73)">
        <g transform="translate(154)">
          <path fill="#D5D2CF" d="M141.920441,9.70440352 C141.920441,2.92554043 138.425088,0.0443554844 131.969351,0.0443554844 L9.32940804,0.0443554844 C2.55881268,0.0443554844 0.000723259762,3.95308247 0.000723259762,9.65764612 L0.000723259762,190.3502 C0.000723259762,196.054764 2.55881268,199.963491 9.32940804,199.963491 L131.969351,199.963491 C138.425088,199.963491 141.920441,197.082306 141.920441,190.303523 L141.920441,9.70464371 L141.920441,9.70440352 Z"/>
          <g transform="translate(.964 1.04)">
            <path fill="#F3F5F7" d="M137.558381,2.09903923 C136.076101,0.716413131 133.905839,0.0443554844 130.923839,0.0443554844 L8.3546146,0.0443554844 C6.90359479,0.0443554844 5.61506735,0.249159327 4.52471307,0.653002402 C3.45902999,1.04771817 2.57858178,1.63466773 1.90795925,2.39767814 C0.642174307,3.83755004 0.000241086587,5.93002402 0.000241086587,8.61681345 L0.000241086587,189.309367 C0.000241086587,191.985989 0.644585173,194.075981 1.91511149,195.521377 C3.29203735,197.08767 5.4348953,197.881825 8.28429768,197.881825 L130.924241,197.881825 C133.972942,197.881825 136.158874,197.22538 137.606759,195.87494 C138.32568,195.204404 138.875839,194.334347 139.241969,193.288951 C139.63261,192.173819 139.830703,190.819135 139.830703,189.26269 L139.830703,8.66381105 C139.830703,7.10728583 139.63261,5.75276221 139.241969,4.6376301 C138.902921,3.66981585 138.35236,2.83947158 137.558783,2.09927942 L137.558381,2.09903923 Z"/>
            <path fill="#D5D2CF" d="M69.9556129,186.673339 C72.0604595,186.673339 73.7728172,188.379424 73.7728172,190.476381 C73.7728172,192.573419 72.0604595,194.279424 69.9556129,194.279424 C67.8508466,194.279424 66.1384086,192.573419 66.1384086,190.476381 C66.1384086,188.379424 67.8508466,186.673339 69.9556129,186.673339 L69.9556129,186.673339 Z M69.9556129,186.032826 C67.4924312,186.032826 65.4955914,188.022258 65.4955914,190.476381 C65.4955914,192.930424 67.4924312,194.919936 69.9556129,194.919936 C72.4188749,194.919936 74.4157951,192.930424 74.4157951,190.476381 C74.4157951,188.022258 72.4188749,186.032826 69.9556129,186.032826 L69.9556129,186.032826 L69.9556129,186.032826 Z"/>
            <g transform="translate(7.554 16.493)">
              <path fill="#3E3E3E" d="M124.07923,0.043795036 L0.642897566,0.043795036 C0.287937748,0.043795036 8.03621958e-05,0.330584468 8.03621958e-05,0.684307446 L8.03621958e-05,164.655484 C8.03621958e-05,164.82538 0.0677453311,164.988311 0.188288625,165.108487 C0.308912281,165.228583 0.472368987,165.295997 0.642897566,165.295997 L124.07923,165.295997 C124.434271,165.295997 124.722208,165.009207 124.722208,164.655484 L124.722208,0.684307446 C124.722208,0.330584468 124.434271,0.043795036 124.07923,0.043795036 L124.07923,0.043795036 Z"/>
              <rect width="123.436" height="163.971" x=".643" y=".684" fill="#343434"/>
            </g>
            <g transform="translate(65.817 7.286)">
              <path fill="#E0E0E0" d="M0.603037917,0.604243395 C0.913637804,0.604243395 1.16557329,0.855164131 1.16557329,1.16469175 C1.16557329,1.47421938 0.913637804,1.72514011 0.603037917,1.72514011 C0.292277306,1.72514011 0.0405025467,1.47421938 0.0405025467,1.16469175 C0.0405025467,0.855164131 0.292277306,0.604243395 0.603037917,0.604243395 L0.603037917,0.604243395 Z"/>
              <path fill="#E0E0E0" d="M0.603037917,0.604243395 C0.913637804,0.604243395 1.16557329,0.855164131 1.16557329,1.16469175 C1.16557329,1.47421938 0.913637804,1.72514011 0.603037917,1.72514011 C0.292277306,1.72514011 0.0405025467,1.47421938 0.0405025467,1.16469175 C0.0405025467,0.855164131 0.292277306,0.604243395 0.603037917,0.604243395 L0.603037917,0.604243395 Z"/>
              <path fill="#3E3E3E" d="M4.0185116,0.043795036 C4.61769213,0.043795036 5.10340125,0.527702162 5.10340125,1.12465973 C5.10340125,1.72161729 4.61769213,2.20552442 4.0185116,2.20552442 C3.41933107,2.20552442 2.93362196,1.72161729 2.93362196,1.12465973 C2.93362196,0.527702162 3.41933107,0.043795036 4.0185116,0.043795036 L4.0185116,0.043795036 Z"/>
            </g>
          </g>
        </g>
        <path fill="#545454" d="M141.920441,9.70440352 C141.920441,2.92554043 138.425088,0.0443554844 131.969351,0.0443554844 L9.32940804,0.0443554844 C2.55881268,0.0443554844 0.000723259762,3.95308247 0.000723259762,9.65764612 L0.000723259762,190.3502 C0.000723259762,196.054764 2.55881268,199.963491 9.32940804,199.963491 L131.969351,199.963491 C138.425088,199.963491 141.920441,197.082306 141.920441,190.303523 L141.920441,9.70464371 L141.920441,9.70440352 Z"/>
        <g transform="translate(.964 1.04)">
          <path fill="#343434" d="M137.558381,2.09903923 C136.076101,0.716413131 133.905839,0.0443554844 130.923839,0.0443554844 L8.3546146,0.0443554844 C6.90359479,0.0443554844 5.61506735,0.249159327 4.52471307,0.653002402 C3.45902999,1.04771817 2.57858178,1.63466773 1.90795925,2.39767814 C0.642174307,3.83755004 0.000241086587,5.93002402 0.000241086587,8.61681345 L0.000241086587,189.309367 C0.000241086587,191.985989 0.644585173,194.075981 1.91511149,195.521377 C3.29203735,197.08767 5.4348953,197.881825 8.28429768,197.881825 L130.924241,197.881825 C133.972942,197.881825 136.158874,197.22538 137.606759,195.87494 C138.32568,195.204404 138.875839,194.334347 139.241969,193.288951 C139.63261,192.173819 139.830703,190.819135 139.830703,189.26269 L139.830703,8.66381105 C139.830703,7.10728583 139.63261,5.75276221 139.241969,4.6376301 C138.902921,3.66981585 138.35236,2.83947158 137.558783,2.09927942 L137.558381,2.09903923 Z"/>
          <path fill="#545454" d="M69.9556129,186.673339 C72.0604595,186.673339 73.7728172,188.379424 73.7728172,190.476381 C73.7728172,192.573419 72.0604595,194.279424 69.9556129,194.279424 C67.8508466,194.279424 66.1384086,192.573419 66.1384086,190.476381 C66.1384086,188.379424 67.8508466,186.673339 69.9556129,186.673339 L69.9556129,186.673339 Z M69.9556129,186.032826 C67.4924312,186.032826 65.4955914,188.022258 65.4955914,190.476381 C65.4955914,192.930424 67.4924312,194.919936 69.9556129,194.919936 C72.4188749,194.919936 74.4157951,192.930424 74.4157951,190.476381 C74.4157951,188.022258 72.4188749,186.032826 69.9556129,186.032826 L69.9556129,186.032826 L69.9556129,186.032826 Z"/>
          <g fill="#343434" transform="translate(7.554 16.493)">
            <path d="M124.07923,0.043795036 L0.642897566,0.043795036 C0.287937748,0.043795036 8.03621958e-05,0.330584468 8.03621958e-05,0.684307446 L8.03621958e-05,164.655484 C8.03621958e-05,164.82538 0.0677453311,164.988311 0.188288625,165.108487 C0.308912281,165.228583 0.472368987,165.295997 0.642897566,165.295997 L124.07923,165.295997 C124.434271,165.295997 124.722208,165.009207 124.722208,164.655484 L124.722208,0.684307446 C124.722208,0.330584468 124.434271,0.043795036 124.07923,0.043795036 L124.07923,0.043795036 Z"/>
            <rect width="123.436" height="163.971" x=".643" y=".684"/>
          </g>
          <path fill="#3E3E3E" d="M1.12547255,0.043795036 C1.72465308,0.043795036 2.2103622,0.527702162 2.2103622,1.12465973 C2.2103622,1.72161729 1.72465308,2.20552442 1.12547255,2.20552442 C0.52629202,2.20552442 0.0405829089,1.72161729 0.0405829089,1.12465973 C0.0405829089,0.527702162 0.52629202,0.043795036 1.12547255,0.043795036 L1.12547255,0.043795036 Z" transform="translate(68.71 7.286)"/>
        </g>
      </g>
      <path fill="#222" d="M1.7578125,34 L1.7578125,15.15625 L6.890625,15.15625 L6.890625,34 L1.7578125,34 Z M4.32421875,13.0820312 C2.77734375,13.0820312 1.58203125,11.9042969 1.58203125,10.4277344 C1.58203125,8.93359375 2.77734375,7.7734375 4.32421875,7.7734375 C5.87109375,7.7734375 7.06640625,8.93359375 7.06640625,10.4277344 C7.06640625,11.9042969 5.87109375,13.0820312 4.32421875,13.0820312 Z M10.7402344,8.63476562 L21.0585938,8.63476562 C26.2617188,8.63476562 29.8476562,12.0976562 29.8476562,17.3183594 C29.8476562,22.5214844 26.1386719,26.0019531 20.7949219,26.0019531 L16.0488281,26.0019531 L16.0488281,34 L10.7402344,34 L10.7402344,8.63476562 Z M16.0488281,12.8359375 L16.0488281,21.8535156 L19.6347656,21.8535156 C22.6757812,21.8535156 24.4511719,20.2363281 24.4511719,17.3359375 C24.4511719,14.453125 22.6933594,12.8359375 19.6523438,12.8359375 L16.0488281,12.8359375 Z M38.5839844,30.5898438 C40.8164062,30.5898438 42.6621094,29.1308594 42.6621094,27.0917969 L42.6621094,25.7207031 L38.6894531,25.9667969 C36.7734375,26.1074219 35.6835938,26.96875 35.6835938,28.3046875 C35.6835938,29.7109375 36.84375,30.5898438 38.5839844,30.5898438 Z M36.8964844,34.2988281 C33.3105469,34.2988281 30.5859375,31.9785156 30.5859375,28.5859375 C30.5859375,25.1582031 33.2226562,23.171875 37.9160156,22.890625 L42.6621094,22.609375 L42.6621094,21.3613281 C42.6621094,19.6035156 41.4316406,18.5839844 39.4980469,18.5839844 C37.5820312,18.5839844 36.3691406,19.5332031 36.1230469,20.921875 L31.4296875,20.921875 C31.6230469,17.265625 34.734375,14.7519531 39.7265625,14.7519531 C44.5605469,14.7519531 47.7070312,17.2480469 47.7070312,21.0449219 L47.7070312,34 L42.75,34 L42.75,31.1171875 L42.6445312,31.1171875 C41.5898438,33.1210938 39.2519531,34.2988281 36.8964844,34.2988281 Z M58.0078125,34.2988281 C53.296875,34.2988281 50.3261719,30.5722656 50.3261719,24.5429688 C50.3261719,18.5664062 53.3144531,14.8574219 58.0429688,14.8574219 C60.7675781,14.8574219 62.8769531,16.2988281 63.7910156,18.390625 L63.8964844,18.390625 L63.8964844,8.63476562 L69.0292969,8.63476562 L69.0292969,34 L63.9667969,34 L63.9667969,30.765625 L63.8789062,30.765625 C62.9648438,32.8398438 60.7851562,34.2988281 58.0078125,34.2988281 Z M59.7480469,18.9707031 C57.1640625,18.9707031 55.5820312,21.1328125 55.5820312,24.578125 C55.5820312,28.0410156 57.1640625,30.1679688 59.7480469,30.1679688 C62.296875,30.1679688 63.9316406,28.0234375 63.9316406,24.578125 C63.9316406,21.1503906 62.296875,18.9707031 59.7480469,18.9707031 Z M96.6269531,34 L94.6933594,27.8476562 L85.78125,27.8476562 L83.8476562,34 L78.3984375,34 L87.2050781,8.63476562 L93.4453125,8.63476562 L102.269531,34 L96.6269531,34 Z M90.1757812,13.4863281 L86.9238281,23.875 L93.5507812,23.875 L90.2988281,13.4863281 L90.1757812,13.4863281 Z M104.501953,34 L104.501953,15.15625 L109.634766,15.15625 L109.634766,34 L104.501953,34 Z M107.068359,13.0820312 C105.521484,13.0820312 104.326172,11.9042969 104.326172,10.4277344 C104.326172,8.93359375 105.521484,7.7734375 107.068359,7.7734375 C108.615234,7.7734375 109.810547,8.93359375 109.810547,10.4277344 C109.810547,11.9042969 108.615234,13.0820312 107.068359,13.0820312 Z M113.044922,34 L113.044922,15.15625 L118.001953,15.15625 L118.001953,18.5488281 L118.107422,18.5488281 C118.775391,16.1582031 120.375,14.8574219 122.589844,14.8574219 C123.1875,14.8574219 123.697266,14.9453125 124.048828,15.0507812 L124.048828,19.5683594 C123.626953,19.3925781 122.923828,19.2695312 122.185547,19.2695312 C119.654297,19.2695312 118.177734,20.8164062 118.177734,23.4707031 L118.177734,34 L113.044922,34 Z M133.083984,16.2636719 C133.083984,11.4648438 136.916016,8.07226562 142.453125,8.07226562 C147.796875,8.07226562 151.470703,11.1660156 151.470703,15.4023438 C151.470703,18.5664062 149.361328,20.9394531 146.566406,23.7167969 L140.378906,29.6757812 L140.378906,29.78125 L151.822266,29.78125 L151.822266,34 L133.382812,34 L133.382812,30.4316406 L142.945312,21.2207031 C145.511719,18.6542969 146.302734,17.3710938 146.302734,15.6132812 C146.302734,13.7148438 144.632812,12.203125 142.277344,12.203125 C139.816406,12.203125 138.005859,13.9257812 138.005859,16.2636719 L138.005859,16.3515625 L133.083984,16.3515625 L133.083984,16.2636719 Z M165.164062,39.4492188 L160.417969,39.4492188 L169.435547,8.63476562 L174.164062,8.63476562 L165.164062,39.4492188 Z M183.392578,8.63476562 L193.710938,8.63476562 C198.914062,8.63476562 202.5,12.0976562 202.5,17.3183594 C202.5,22.5214844 198.791016,26.0019531 193.447266,26.0019531 L188.701172,26.0019531 L188.701172,34 L183.392578,34 L183.392578,8.63476562 Z M188.701172,12.8359375 L188.701172,21.8535156 L192.287109,21.8535156 C195.328125,21.8535156 197.103516,20.2363281 197.103516,17.3359375 C197.103516,14.453125 195.345703,12.8359375 192.304688,12.8359375 L188.701172,12.8359375 Z M205.189453,34 L205.189453,15.15625 L210.146484,15.15625 L210.146484,18.5488281 L210.251953,18.5488281 C210.919922,16.1582031 212.519531,14.8574219 214.734375,14.8574219 C215.332031,14.8574219 215.841797,14.9453125 216.193359,15.0507812 L216.193359,19.5683594 C215.771484,19.3925781 215.068359,19.2695312 214.330078,19.2695312 C211.798828,19.2695312 210.322266,20.8164062 210.322266,23.4707031 L210.322266,34 L205.189453,34 Z M226.318359,34.4042969 C220.623047,34.4042969 216.984375,30.7480469 216.984375,24.5605469 C216.984375,18.4609375 220.675781,14.7519531 226.318359,14.7519531 C231.960938,14.7519531 235.652344,18.4433594 235.652344,24.5605469 C235.652344,30.765625 232.013672,34.4042969 226.318359,34.4042969 Z M226.318359,30.484375 C228.832031,30.484375 230.431641,28.3574219 230.431641,24.578125 C230.431641,20.8339844 228.814453,18.671875 226.318359,18.671875 C223.822266,18.671875 222.1875,20.8339844 222.1875,24.578125 C222.1875,28.3574219 223.787109,30.484375 226.318359,30.484375 Z M254.830078,34.5625 C249.978516,34.5625 246.164062,31.6796875 245.460938,27.53125 L250.699219,27.53125 C251.208984,29.2363281 252.878906,30.3613281 254.917969,30.3613281 C258.416016,30.3613281 260.542969,27.0390625 260.402344,21.2207031 L260.296875,21.2207031 C259.382812,23.6992188 256.886719,25.3691406 253.546875,25.3691406 C248.765625,25.3691406 245.126953,21.8183594 245.126953,17.0019531 C245.126953,11.78125 249.240234,8.0546875 254.900391,8.0546875 C258.556641,8.0546875 261.597656,9.68945312 263.355469,12.6953125 C264.761719,14.8574219 265.482422,17.7050781 265.482422,21.0976562 C265.482422,29.5 261.509766,34.5625 254.830078,34.5625 Z M254.935547,21.3789062 C257.572266,21.3789062 259.576172,19.4453125 259.576172,16.8789062 C259.576172,14.2949219 257.554688,12.2910156 254.970703,12.2910156 C252.369141,12.2910156 250.3125,14.2949219 250.3125,16.84375 C250.3125,19.4453125 252.298828,21.3789062 254.935547,21.3789062 Z M271.089844,34.2109375 C269.507812,34.2109375 268.259766,32.9453125 268.259766,31.3808594 C268.259766,29.7988281 269.507812,28.5507812 271.089844,28.5507812 C272.654297,28.5507812 273.919922,29.7988281 273.919922,31.3808594 C273.919922,32.9453125 272.654297,34.2109375 271.089844,34.2109375 Z M278.138672,34 L289.054688,12.9589844 L289.054688,12.8535156 L276.152344,12.8535156 L276.152344,8.63476562 L294.292969,8.63476562 L294.292969,12.90625 L283.710938,34 L278.138672,34 Z M301.587891,18.53125 L297.755859,18.53125 L299.074219,8.63476562 L303.943359,8.63476562 L301.587891,18.53125 Z M311.501953,18.53125 L307.669922,18.53125 L308.988281,8.63476562 L313.857422,8.63476562 L311.501953,18.53125 Z"/>
    </g>
    <g transform="translate(55 39)">
      <g transform="translate(0 73)">
        <g transform="translate(153)">
          <path fill="#D5D2CF" d="M138.961677,195.83499 C138.961677,201.668009 134.590403,205.969328 128.830964,205.969328 L121.366321,205.969328 L17.6320821,205.969328 L10.1724687,205.969328 C4.41303044,205.969328 0.0418357266,201.668009 0.0418357266,195.83499 L0.0418357266,10.1825824 C0.0418357266,4.3495634 4.41303044,0.048484684 10.1724687,0.048484684 L128.831044,0.048484684 C134.590482,0.048484684 138.961757,4.3495634 138.961757,10.1825824 L138.961757,195.83499 L138.961677,195.83499 Z"/>
          <g transform="translate(.878 .959)">
            <path fill="#F3F5F7" d="M137.162102,9.30658317 C137.132322,10.2504769 137.132322,193.842326 137.162102,194.78566 C137.162102,197.241366 136.308542,199.635806 134.507929,201.427183 C132.707396,203.21872 130.320763,204.066603 127.880399,204.066603 L9.33918725,204.066603 C6.89882309,204.066603 4.5121907,203.21872 2.71157783,201.427183 C0.910964963,199.635806 0.0574842045,197.241366 0.0574842045,194.78566 C0.0871843768,193.841846 0.0871843768,10.2499178 0.0574842045,9.30658317 C0.0574842045,6.85087786 0.910964963,4.45651725 2.71157783,2.6650601 C4.5121907,0.873523071 6.89882309,0.0256401706 9.33918725,0.0256401706 L127.880399,0.0256401706 C130.320763,0.0256401706 132.707396,0.873523071 134.507929,2.6650601 C136.308542,4.45651725 137.162102,6.85087786 137.162102,9.30658317 L137.162102,9.30658317 Z"/>
            <g fill="#D5D2CF" transform="translate(63.153 189.625)">
              <path d="M5.45716715,0.0519193486 C8.45361114,0.0519193486 10.8862309,2.48565878 10.8862309,5.48348197 C10.8862309,8.48122528 8.45361114,10.9150446 5.45716715,10.9150446 C2.46080299,10.9150446 0.0281033889,8.48122528 0.0281033889,5.48348197 C0.0281033889,2.48565878 2.46080299,0.0519193486 5.45716715,0.0519193486 L5.45716715,0.0519193486 Z M5.45716715,0.456890268 C8.2301413,0.456890268 10.4813665,2.70915161 10.4813665,5.48340209 C10.4813665,8.2575727 8.2301413,10.509834 5.45716715,10.509834 C2.68427283,10.509834 0.433047674,8.2575727 0.433047674,5.48340209 C0.433047674,2.70915161 2.68427283,0.456890268 5.45716715,0.456890268 L5.45716715,0.456890268 Z"/>
              <path d="M4.16504997,7.44044203 C4.13958128,7.44028228 4.11419242,7.43900427 4.0888834,7.43604886 C4.03970247,7.43045754 3.99116025,7.41927491 3.94453418,7.40282047 C3.8536772,7.37079023 3.77024526,7.31871113 3.70134406,7.25137573 C3.63060655,7.18220318 3.57551752,7.09737495 3.54142619,7.00447926 C3.52442045,6.95807135 3.51268409,6.90974641 3.50645663,6.8607026 C3.50326307,6.83554168 3.50166628,6.81014114 3.50118725,6.7847406 C3.49567835,5.91720822 3.49567835,5.04967584 3.50118725,4.18214347 C3.50166628,4.15674292 3.50326307,4.13142226 3.50645663,4.10618147 C3.51268409,4.05713765 3.52442045,4.00881272 3.54142619,3.96240481 C3.57551752,3.86950911 3.63060655,3.78468088 3.70134406,3.71550834 C3.77024526,3.64825281 3.8536772,3.59609383 3.94453418,3.56406359 C3.99116025,3.54760915 4.03970247,3.53642652 4.0888834,3.53083521 C4.11131821,3.52827918 4.13391269,3.52700116 4.15650718,3.52652191 C5.02364044,3.52101047 5.89077369,3.52101047 6.75790695,3.52652191 C6.78329581,3.52700116 6.80860482,3.52859868 6.833834,3.53179372 C6.88285526,3.53810392 6.93115796,3.54984568 6.97754451,3.56685925 C7.07039747,3.60088639 7.15518667,3.65600078 7.2243274,3.72677084 C7.29155198,3.79570376 7.34368696,3.8791741 7.37570247,3.9700729 C7.39214934,4.01680031 7.40332682,4.06528499 7.40891557,4.11448856 C7.41147042,4.13701357 7.41274785,4.15953858 7.41322688,4.18214347 C7.41873578,5.04967584 7.41873578,5.91720822 7.41322688,6.7847406 C7.41274785,6.81014114 7.41115106,6.83554168 7.40787766,6.8607026 C7.4016502,6.90974641 7.38991384,6.95807135 7.3729081,7.00447926 C7.33889661,7.09737495 7.28380758,7.18220318 7.21307007,7.25137573 C7.14416887,7.31871113 7.06073693,7.37079023 6.96987995,7.40282047 C6.92317404,7.41927491 6.87471166,7.43045754 6.82553073,7.43604886 C6.80301608,7.43868476 6.78050144,7.43996278 6.75790695,7.44036216 C5.8936479,7.44587359 5.02930902,7.44044203 4.16504997,7.44044203 L4.16504997,7.44044203 Z M4.16664675,7.00112447 C5.03050661,7.00112447 5.89484549,7.0282024 6.75822631,7.00088484 C6.76501264,7.00064521 6.77163929,7.00008608 6.77834578,6.99928732 C6.80109994,6.99617216 6.82321539,6.98994184 6.84397358,6.98027685 C6.89754566,6.95527569 6.94033946,6.9087879 6.96061861,6.85327414 C6.96932108,6.82947111 6.9736324,6.80446995 6.97411143,6.77914928 C6.97962033,5.91337418 7.00157611,5.04711981 6.97395175,4.18174409 C6.97291384,4.15850019 6.96868237,4.13549593 6.96061861,4.11360993 C6.93802412,4.05178596 6.88780528,4.00194339 6.82616944,3.97925863 C6.80261689,3.97055215 6.77762723,3.96631873 6.75255773,3.96583947 C5.88710109,3.96088717 5.02116542,3.93740364 4.15610798,3.96599922 C4.13295462,3.96695774 4.11004078,3.97119116 4.08824469,3.97925863 C4.02748708,4.00162389 3.97774727,4.05042807 3.95467375,4.1110539 C3.94541241,4.1355758 3.94078173,4.16153548 3.9403027,4.18773478 C3.93503331,5.05350989 3.91315738,5.91976425 3.94046238,6.78521985 C3.94150029,6.81030089 3.94645032,6.83498255 3.95571166,6.8583862 C3.97742791,6.91342071 4.02133946,6.95879023 4.07547042,6.98259325 C4.09734635,6.99217836 4.12065939,6.99792943 4.14445146,7.00016596 C4.15187651,7.00080496 4.15922171,7.00104459 4.16664675,7.00112447 L4.16664675,7.00112447 Z"/>
            </g>
            <g transform="translate(6.627 19.49)">
              <path fill="#3E3E3E" d="M0.680070075,164.911028 C0.614282596,164.900644 0.546099943,164.900324 0.482707639,164.879796 C0.354485928,164.838021 0.242631246,164.756787 0.163350948,164.647597 C0.124229753,164.59368 0.0932521539,164.532895 0.0726536473,164.469473 C0.0520551407,164.406132 0.0518156232,164.337838 0.0413566916,164.27202 L0.0413566916,0.689329197 C0.0518156232,0.623511439 0.0520551407,0.555217526 0.0726536473,0.491875921 C0.0932521539,0.42845444 0.124229753,0.367588988 0.163350948,0.313672741 C0.242631246,0.204562233 0.354485928,0.123248546 0.482707639,0.0815533152 C0.546099943,0.0609453276 0.614282596,0.0607056999 0.680070075,0.0503218302 L123.31304,0.0503218302 C123.378827,0.0607056999 123.44709,0.0609453276 123.510402,0.0815533152 C123.573794,0.102161303 123.634552,0.13315316 123.688443,0.172372237 C123.797584,0.251689027 123.87878,0.363515316 123.920456,0.491875921 C123.941055,0.555217526 123.941294,0.623511439 123.951753,0.689329197 L123.951753,164.27202 C123.941294,164.337838 123.941055,164.406132 123.920456,164.469473 C123.87878,164.597834 123.797584,164.70966 123.688443,164.788977 C123.634552,164.828196 123.573794,164.859188 123.510402,164.879796 C123.44709,164.900324 123.378827,164.900644 123.31304,164.911028 L0.680070075,164.911028 L0.680070075,164.911028 Z"/>
              <rect width="122.633" height="163.583" x=".68" y=".689" fill="#343434"/>
            </g>
            <g transform="translate(64.11 8.946)">
              <path fill="#E0E0E0" d="M0.680070075,0.843090345 C1.03279954,0.843090345 1.31878346,1.12920589 1.31878346,1.48217759 C1.31878346,1.83506941 1.03279954,2.12110508 0.680070075,2.12110508 C0.32726077,2.12110508 0.0413566916,1.83506941 0.0413566916,1.48217759 C0.0413566916,1.12920589 0.32726077,0.843090345 0.680070075,0.843090345 L0.680070075,0.843090345 Z"/>
              <path fill="#E0E0E0" d="M0.680070075,0.843090345 C1.03279954,0.843090345 1.31878346,1.12920589 1.31878346,1.48217759 C1.31878346,1.83506941 1.03279954,2.12110508 0.680070075,2.12110508 C0.32726077,2.12110508 0.0413566916,1.83506941 0.0413566916,1.48217759 C0.0413566916,1.12920589 0.32726077,0.843090345 0.680070075,0.843090345 L0.680070075,0.843090345 Z"/>
              <path fill="#3E3E3E" d="M4.51235037,0.047446297 C5.21788914,0.047446297 5.78977714,0.619597518 5.78977714,1.32546103 C5.78977714,2.03132454 5.21788914,2.60347577 4.51235037,2.60347577 C3.80697128,2.60347577 3.23492361,2.03132454 3.23492361,1.32546103 C3.23492361,0.619597518 3.80697128,0.047446297 4.51235037,0.047446297 L4.51235037,0.047446297 Z"/>
            </g>
          </g>
        </g>
        <path fill="#545454" d="M138.961677,195.830997 C138.961677,201.664016 134.590403,205.965254 128.830964,205.965254 L121.366321,205.965254 L17.6320821,205.965254 L10.1724687,205.965254 C4.41303044,205.965254 0.0418357266,201.664016 0.0418357266,195.830997 L0.0418357266,10.1785886 C0.0418357266,4.34548972 4.41303044,0.044411012 10.1724687,0.044411012 L128.831044,0.044411012 C134.590482,0.044411012 138.961757,4.34548972 138.961757,10.1785886 L138.961757,195.830997 L138.961677,195.830997 Z"/>
        <g transform="translate(.878 .959)">
          <path fill="#343434" d="M137.162102,9.30274913 C137.132322,10.246563 137.132322,193.838492 137.162102,194.781826 C137.162102,197.237611 136.308542,199.631972 134.507929,201.423429 C132.707396,203.214886 130.320763,204.062849 127.880399,204.062849 L9.33918725,204.062849 C6.89882309,204.062849 4.5121907,203.214886 2.71157783,201.423429 C0.910964963,199.631972 0.0574842045,197.237611 0.0574842045,194.781826 C0.0871843768,193.838012 0.0871843768,10.2460838 0.0574842045,9.30274913 C0.0574842045,6.84696394 0.910964963,4.45260333 2.71157783,2.66114618 C4.5121907,0.869689027 6.89882309,0.0218061264 9.33918725,0.0218061264 L127.880399,0.0218061264 C130.320763,0.0218061264 132.707396,0.869689027 134.507929,2.66114618 C136.308542,4.45260333 137.162102,6.84696394 137.162102,9.30274913 L137.162102,9.30274913 Z"/>
          <g transform="translate(63.153 189.625)">
            <path fill="#3E3E3E" d="M5.45716715,0.0479255525 C8.45361114,0.0479255525 10.8862309,2.48174486 10.8862309,5.47948817 C10.8862309,8.47723149 8.45361114,10.9110508 5.45716715,10.9110508 C2.46080299,10.9110508 0.0281033889,8.47723149 0.0281033889,5.47948817 C0.0281033889,2.48174486 2.46080299,0.0479255525 5.45716715,0.0479255525 L5.45716715,0.0479255525 Z M5.45716715,0.452896472 C8.2301413,0.452896472 10.4813665,2.70523769 10.4813665,5.4794083 C10.4813665,8.25357891 8.2301413,10.5059201 5.45716715,10.5059201 C2.68427283,10.5059201 0.433047674,8.25357891 0.433047674,5.4794083 C0.433047674,2.70523769 2.68427283,0.452896472 5.45716715,0.452896472 L5.45716715,0.452896472 Z"/>
            <path fill="#D5D2CF" d="M4.16504997,7.43644824 C4.13958128,7.43628848 4.11419242,7.43501047 4.0888834,7.43213494 C4.03970247,7.42646375 3.99116025,7.41536099 3.94453418,7.39882668 C3.8536772,7.36679643 3.77024526,7.31471733 3.70134406,7.24738193 C3.63060655,7.17828926 3.57551752,7.09346103 3.54142619,7.00048546 C3.52442045,6.95407755 3.51268409,6.90575262 3.50645663,6.85678868 C3.50326307,6.83154789 3.50166628,6.80622722 3.50118725,6.78082668 C3.49567835,5.9132943 3.49567835,5.04568205 3.50118725,4.17814967 C3.50166628,4.15274913 3.50326307,4.12742846 3.50645663,4.10218767 C3.51268409,4.05322373 3.52442045,4.0048988 3.54142619,3.95849089 C3.57551752,3.86551532 3.63060655,3.78068709 3.70134406,3.71159442 C3.77024526,3.64425902 3.8536772,3.59217991 3.94453418,3.56014967 C3.99116025,3.54361535 4.03970247,3.5325126 4.0888834,3.52684141 C4.11131821,3.52428538 4.13391269,3.52300737 4.15650718,3.52260799 C5.02364044,3.51709655 5.89077369,3.51709655 6.75790695,3.52260799 C6.78329581,3.52308724 6.80860482,3.52468476 6.833834,3.5278798 C6.88285526,3.53411012 6.93115796,3.54585188 6.97754451,3.56286545 C7.07039747,3.59689259 7.15518667,3.65200698 7.2243274,3.72285692 C7.29155198,3.79178984 7.34368696,3.87526018 7.37570247,3.96615898 C7.39214934,4.01280651 7.40332682,4.06137107 7.40891557,4.11049477 C7.41147042,4.13301978 7.41274785,4.15554478 7.41322688,4.17814967 C7.41873578,5.04568205 7.41873578,5.9132943 7.41322688,6.78082668 C7.41274785,6.80622722 7.41115106,6.83154789 7.40787766,6.85678868 C7.4016502,6.90575262 7.38991384,6.95407755 7.3729081,7.00048546 C7.33889661,7.09346103 7.28380758,7.17828926 7.21307007,7.24738193 C7.14416887,7.31471733 7.06073693,7.36679643 6.96987995,7.39882668 C6.92317404,7.41536099 6.87471166,7.42646375 6.82553073,7.43213494 C6.80301608,7.43469097 6.78050144,7.43596898 6.75790695,7.43636836 C5.8936479,7.4418798 5.02930902,7.43644824 4.16504997,7.43644824 L4.16504997,7.43644824 Z M4.16664675,6.99713067 C5.03050661,6.99713067 5.89484549,7.02420861 6.75822631,6.99697092 C6.76501264,6.99665142 6.77163929,6.99609228 6.77834578,6.99529352 C6.80109994,6.99225824 6.82321539,6.98602792 6.84397358,6.97628306 C6.89754566,6.95128189 6.94033946,6.90479411 6.96061861,6.84936022 C6.96932108,6.82555719 6.9736324,6.80055603 6.97411143,6.77523536 C6.97962033,5.90946026 7.00157611,5.04320589 6.97395175,4.17783017 C6.97291384,4.1545064 6.96868237,4.13158201 6.96061861,4.10961613 C6.93802412,4.04787204 6.88780528,3.99794959 6.82616944,3.97526483 C6.80261689,3.96655836 6.77762723,3.96232493 6.75255773,3.96184568 C5.88710109,3.95697325 5.02116542,3.93348972 4.15610798,3.96200543 C4.13295462,3.96304382 4.11004078,3.96727724 4.08824469,3.97526483 C4.02748708,3.99763009 3.97774727,4.04643428 3.95467375,4.1070601 C3.94541241,4.13166188 3.94078173,4.15754168 3.9403027,4.18374098 C3.93503331,5.04959597 3.91315738,5.91585033 3.94046238,6.78122606 C3.94150029,6.8063071 3.94645032,6.83106863 3.95571166,6.8543924 C3.97742791,6.90950679 4.02133946,6.95479643 4.07547042,6.97859946 C4.09734635,6.98818457 4.12065939,6.99393563 4.14445146,6.99617216 C4.15187651,6.99681117 4.15922171,6.99705079 4.16664675,6.99713067 L4.16664675,6.99713067 Z"/>
          </g>
          <g fill="#343434" transform="translate(6.627 19.49)">
            <path d="M0.680070075,164.907034 C0.614282596,164.89665 0.546099943,164.89641 0.482707639,164.875802 C0.354485928,164.834107 0.242631246,164.752873 0.163350948,164.643683 C0.124229753,164.589767 0.0932521539,164.528901 0.0726536473,164.46556 C0.0520551407,164.402138 0.0518156232,164.333924 0.0413566916,164.268026 L0.0413566916,0.685335401 C0.0518156232,0.619517642 0.0520551407,0.55122373 0.0726536473,0.487882125 C0.0932521539,0.424460644 0.124229753,0.363675068 0.163350948,0.309758821 C0.242631246,0.200568437 0.354485928,0.119334626 0.482707639,0.0776393951 C0.546099943,0.0570314075 0.614282596,0.0567917798 0.680070075,0.0463280341 L123.31304,0.0463280341 C123.378827,0.0567917798 123.44709,0.0570314075 123.510402,0.0776393951 C123.573794,0.0981675068 123.634552,0.129159364 123.688443,0.168378441 C123.797584,0.247695231 123.87878,0.35952152 123.920456,0.487882125 C123.941055,0.55122373 123.941294,0.619517642 123.951753,0.685335401 L123.951753,164.268026 C123.941294,164.333924 123.941055,164.402138 123.920456,164.46556 C123.87878,164.59384 123.797584,164.705746 123.688443,164.785063 C123.634552,164.824202 123.573794,164.855194 123.510402,164.875802 C123.44709,164.89641 123.378827,164.89665 123.31304,164.907034 L0.680070075,164.907034 L0.680070075,164.907034 Z"/>
            <rect width="122.633" height="163.583" x=".68" y=".685"/>
          </g>
          <path fill="#3E3E3E" d="M1.31878346,0.0435323769 C2.02432223,0.0435323769 2.59621022,0.615683598 2.59621022,1.32154711 C2.59621022,2.02741062 2.02432223,2.59956185 1.31878346,2.59956185 C0.613404365,2.59956185 0.0413566916,2.02741062 0.0413566916,1.32154711 C0.0413566916,0.615683598 0.613404365,0.0435323769 1.31878346,0.0435323769 L1.31878346,0.0435323769 Z" transform="translate(67.304 8.946)"/>
        </g>
      </g>
      <path fill="#222" d="M57.7578125,34 L57.7578125,15.15625 L62.890625,15.15625 L62.890625,34 L57.7578125,34 Z M60.3242188,13.0820312 C58.7773438,13.0820312 57.5820312,11.9042969 57.5820312,10.4277344 C57.5820312,8.93359375 58.7773438,7.7734375 60.3242188,7.7734375 C61.8710938,7.7734375 63.0664062,8.93359375 63.0664062,10.4277344 C63.0664062,11.9042969 61.8710938,13.0820312 60.3242188,13.0820312 Z M66.7402344,8.63476562 L77.0585938,8.63476562 C82.2617188,8.63476562 85.8476562,12.0976562 85.8476562,17.3183594 C85.8476562,22.5214844 82.1386719,26.0019531 76.7949219,26.0019531 L72.0488281,26.0019531 L72.0488281,34 L66.7402344,34 L66.7402344,8.63476562 Z M72.0488281,12.8359375 L72.0488281,21.8535156 L75.6347656,21.8535156 C78.6757812,21.8535156 80.4511719,20.2363281 80.4511719,17.3359375 C80.4511719,14.453125 78.6933594,12.8359375 75.6523438,12.8359375 L72.0488281,12.8359375 Z M94.5839844,30.5898438 C96.8164062,30.5898438 98.6621094,29.1308594 98.6621094,27.0917969 L98.6621094,25.7207031 L94.6894531,25.9667969 C92.7734375,26.1074219 91.6835938,26.96875 91.6835938,28.3046875 C91.6835938,29.7109375 92.84375,30.5898438 94.5839844,30.5898438 Z M92.8964844,34.2988281 C89.3105469,34.2988281 86.5859375,31.9785156 86.5859375,28.5859375 C86.5859375,25.1582031 89.2226562,23.171875 93.9160156,22.890625 L98.6621094,22.609375 L98.6621094,21.3613281 C98.6621094,19.6035156 97.4316406,18.5839844 95.4980469,18.5839844 C93.5820312,18.5839844 92.3691406,19.5332031 92.1230469,20.921875 L87.4296875,20.921875 C87.6230469,17.265625 90.734375,14.7519531 95.7265625,14.7519531 C100.560547,14.7519531 103.707031,17.2480469 103.707031,21.0449219 L103.707031,34 L98.75,34 L98.75,31.1171875 L98.6445312,31.1171875 C97.5898438,33.1210938 95.2519531,34.2988281 92.8964844,34.2988281 Z M114.007812,34.2988281 C109.296875,34.2988281 106.326172,30.5722656 106.326172,24.5429688 C106.326172,18.5664062 109.314453,14.8574219 114.042969,14.8574219 C116.767578,14.8574219 118.876953,16.2988281 119.791016,18.390625 L119.896484,18.390625 L119.896484,8.63476562 L125.029297,8.63476562 L125.029297,34 L119.966797,34 L119.966797,30.765625 L119.878906,30.765625 C118.964844,32.8398438 116.785156,34.2988281 114.007812,34.2988281 Z M115.748047,18.9707031 C113.164062,18.9707031 111.582031,21.1328125 111.582031,24.578125 C111.582031,28.0410156 113.164062,30.1679688 115.748047,30.1679688 C118.296875,30.1679688 119.931641,28.0234375 119.931641,24.578125 C119.931641,21.1503906 118.296875,18.9707031 115.748047,18.9707031 Z M162.875,34 L158.146484,34 L158.146484,16.8789062 L158.005859,16.8789062 L151.115234,33.7539062 L147.775391,33.7539062 L140.884766,16.8789062 L140.744141,16.8789062 L140.744141,34 L136.015625,34 L136.015625,8.63476562 L142.167969,8.63476562 L149.375,26.6171875 L149.515625,26.6171875 L156.722656,8.63476562 L162.875,8.63476562 L162.875,34 Z M166.742188,34 L166.742188,15.15625 L171.875,15.15625 L171.875,34 L166.742188,34 Z M169.308594,13.0820312 C167.761719,13.0820312 166.566406,11.9042969 166.566406,10.4277344 C166.566406,8.93359375 167.761719,7.7734375 169.308594,7.7734375 C170.855469,7.7734375 172.050781,8.93359375 172.050781,10.4277344 C172.050781,11.9042969 170.855469,13.0820312 169.308594,13.0820312 Z M175.285156,34 L175.285156,15.15625 L180.242188,15.15625 L180.242188,18.5136719 L180.347656,18.5136719 C181.349609,16.1757812 183.335938,14.8046875 186.236328,14.8046875 C190.419922,14.8046875 192.775391,17.4414062 192.775391,21.8535156 L192.775391,34 L187.642578,34 L187.642578,22.9257812 C187.642578,20.4648438 186.482422,19.0585938 184.179688,19.0585938 C181.876953,19.0585938 180.417969,20.7460938 180.417969,23.1894531 L180.417969,34 L175.285156,34 Z M196.115234,34 L196.115234,15.15625 L201.248047,15.15625 L201.248047,34 L196.115234,34 Z M198.681641,13.0820312 C197.134766,13.0820312 195.939453,11.9042969 195.939453,10.4277344 C195.939453,8.93359375 197.134766,7.7734375 198.681641,7.7734375 C200.228516,7.7734375 201.423828,8.93359375 201.423828,10.4277344 C201.423828,11.9042969 200.228516,13.0820312 198.681641,13.0820312 Z M211.601562,16.2636719 C211.601562,11.4648438 215.433594,8.07226562 220.970703,8.07226562 C226.314453,8.07226562 229.988281,11.1660156 229.988281,15.4023438 C229.988281,18.5664062 227.878906,20.9394531 225.083984,23.7167969 L218.896484,29.6757812 L218.896484,29.78125 L230.339844,29.78125 L230.339844,34 L211.900391,34 L211.900391,30.4316406 L221.462891,21.2207031 C224.029297,18.6542969 224.820312,17.3710938 224.820312,15.6132812 C224.820312,13.7148438 223.150391,12.203125 220.794922,12.203125 C218.333984,12.203125 216.523438,13.9257812 216.523438,16.2636719 L216.523438,16.3515625 L211.601562,16.3515625 L211.601562,16.2636719 Z"/>
    </g>
    <g transform="translate(383 39)">
      <g transform="translate(0 73)">
        <g transform="translate(151)">
          <path fill="#D5D2CF" d="M138.988024,195.824606 C138.988024,201.657625 134.61675,205.958864 128.857311,205.958864 L121.392668,205.958864 L17.6584291,205.958864 L10.1988156,205.958864 C4.43937737,205.958864 0.0681826536,201.657625 0.0681826536,195.824606 L0.0681826536,10.1721985 C0.0681826536,4.33909965 4.43937737,0.0380209383 10.1988156,0.0380209383 L128.857391,0.0380209383 C134.616829,0.0380209383 138.988104,4.33909965 138.988104,10.1721985 L138.988104,195.824606 L138.988024,195.824606 Z"/>
          <g transform="translate(.958 .959)">
            <path fill="#F3F5F7" d="M137.109408,9.2958798 C137.079628,10.2397736 137.079628,193.831622 137.109408,194.774957 C137.109408,197.230742 136.255928,199.625103 134.455235,201.41648 C132.654702,203.208017 130.26807,204.0559 127.827705,204.0559 L9.28649339,204.0559 C6.84612924,204.0559 4.45949684,203.208017 2.65888397,201.41648 C0.858271109,199.625103 0.00479035037,197.230742 0.00479035037,194.774957 C0.0344905227,193.831143 0.0344905227,10.2392144 0.00479035037,9.2958798 C0.00479035037,6.84017449 0.858271109,4.44581388 2.65888397,2.65435673 C4.45949684,0.862819698 6.84612924,0.0149367972 9.28649339,0.0149367972 L127.827705,0.0149367972 C130.26807,0.0149367972 132.654702,0.862819698 134.455235,2.65435673 C136.255928,4.44581388 137.109408,6.84017449 137.109408,9.2958798 L137.109408,9.2958798 Z"/>
            <path fill="#D5D2CF" d="M68.55678,190.13824 C71.2883975,190.13824 73.5108007,192.361586 73.5108007,195.094461 C73.5108007,197.827335 71.2883975,200.050762 68.55678,200.050762 C65.8252424,200.050762 63.6028392,197.827335 63.6028392,195.094461 C63.6028392,192.361586 65.8252424,190.13824 68.55678,190.13824 L68.55678,190.13824 Z M68.55678,189.303536 C65.3600195,189.303536 62.76844,191.896229 62.76844,195.094541 C62.76844,198.292693 65.3600195,200.885545 68.55678,200.885545 C71.7535405,200.885545 74.34512,198.292693 74.34512,195.094541 C74.34512,191.896229 71.7535405,189.303536 68.55678,189.303536 L68.55678,189.303536 L68.55678,189.303536 Z"/>
            <g transform="translate(6.547 19.49)">
              <path fill="#3E3E3E" d="M0.706736358,164.899845 C0.64094888,164.889461 0.572766226,164.889142 0.509373923,164.868613 C0.381152211,164.826918 0.26929753,164.745604 0.190017231,164.636414 C0.150896037,164.582498 0.119918438,164.521712 0.0993199311,164.458291 C0.0787214245,164.394949 0.078481907,164.326655 0.0680229753,164.260838 L0.0680229753,0.678146568 C0.078481907,0.61232881 0.0787214245,0.544034897 0.0993199311,0.480693292 C0.119918438,0.417271811 0.150896037,0.356406359 0.190017231,0.302490112 C0.26929753,0.193379604 0.381152211,0.112065917 0.509373923,0.0703706863 C0.572766226,0.0497626987 0.64094888,0.049523071 0.706736358,0.0391392012 L123.339706,0.0391392012 C123.405493,0.049523071 123.473756,0.0497626987 123.537068,0.0703706863 C123.600461,0.0909786739 123.661218,0.121970531 123.71511,0.161189608 C123.82425,0.240506398 123.905446,0.352332687 123.947122,0.480693292 C123.967721,0.544034897 123.96796,0.61232881 123.978419,0.678146568 L123.978419,164.260838 C123.96796,164.326655 123.967721,164.394949 123.947122,164.458291 C123.905446,164.586651 123.82425,164.698478 123.71511,164.777794 C123.661218,164.817014 123.600461,164.848005 123.537068,164.868613 C123.473756,164.889142 123.405493,164.889461 123.339706,164.899845 L0.706736358,164.899845 L0.706736358,164.899845 Z"/>
              <rect width="122.633" height="163.583" x=".707" y=".678" fill="#343434"/>
            </g>
            <g transform="translate(64.031 8.946)">
              <path fill="#E0E0E0" d="M0.706736358,0.832466848 C1.05946582,0.832466848 1.34544974,1.11850252 1.34544974,1.47147421 C1.34544974,1.82436603 1.05946582,2.11048158 0.706736358,2.11048158 C0.353927053,2.11048158 0.0680229753,1.82436603 0.0680229753,1.47147421 C0.0680229753,1.11850252 0.353927053,0.832466848 0.706736358,0.832466848 L0.706736358,0.832466848 Z"/>
              <path fill="#E0E0E0" d="M0.706736358,0.832466848 C1.05946582,0.832466848 1.34544974,1.11850252 1.34544974,1.47147421 C1.34544974,1.82436603 1.05946582,2.11048158 0.706736358,2.11048158 C0.353927053,2.11048158 0.0680229753,1.82436603 0.0680229753,1.47147421 C0.0680229753,1.11850252 0.353927053,0.832466848 0.706736358,0.832466848 L0.706736358,0.832466848 Z"/>
              <path fill="#3E3E3E" d="M4.53901666,0.0367429236 C5.24455543,0.0367429236 5.81644342,0.608894145 5.81644342,1.31475766 C5.81644342,2.02062117 5.24455543,2.59277239 4.53901666,2.59277239 C3.83363756,2.59277239 3.26158989,2.02062117 3.26158989,1.31475766 C3.26158989,0.608894145 3.83363756,0.0367429236 4.53901666,0.0367429236 L4.53901666,0.0367429236 Z"/>
            </g>
          </g>
        </g>
        <path fill="#545454" d="M138.988024,195.820613 C138.988024,201.653632 134.61675,205.95495 128.857311,205.95495 L121.392668,205.95495 L17.6584291,205.95495 L10.1988156,205.95495 C4.43937737,205.95495 0.0681826536,201.653632 0.0681826536,195.820613 L0.0681826536,10.1682047 C0.0681826536,4.33510585 4.43937737,0.0340271423 10.1988156,0.0340271423 L128.857391,0.0340271423 C134.616829,0.0340271423 138.988104,4.33510585 138.988104,10.1682047 L138.988104,195.820613 L138.988024,195.820613 Z"/>
        <g transform="translate(.958 .959)">
          <path fill="#343434" d="M137.109408,9.29204575 C137.079628,10.2358596 137.079628,193.827788 137.109408,194.771123 C137.109408,197.226828 136.255928,199.621189 134.455235,201.412646 C132.654702,203.204103 130.26807,204.052066 127.827705,204.052066 L9.28649339,204.052066 C6.84612924,204.052066 4.45949684,203.204103 2.65888397,201.412646 C0.858271109,199.621189 0.00479035037,197.226828 0.00479035037,194.771123 C0.0344905227,193.827229 0.0344905227,10.2353804 0.00479035037,9.29204575 C0.00479035037,6.83626057 0.858271109,4.44189996 2.65888397,2.65052268 C4.45949684,0.858985653 6.84612924,0.011102753 9.28649339,0.011102753 L127.827705,0.011102753 C130.26807,0.011102753 132.654702,0.858985653 134.455235,2.65052268 C136.255928,4.44189996 137.109408,6.83626057 137.109408,9.29204575 L137.109408,9.29204575 Z"/>
          <path fill="#545454" d="M68.55678,190.13824 C71.2883975,190.13824 73.5108007,192.361586 73.5108007,195.094461 C73.5108007,197.827335 71.2883975,200.050762 68.55678,200.050762 C65.8252424,200.050762 63.6028392,197.827335 63.6028392,195.094461 C63.6028392,192.361586 65.8252424,190.13824 68.55678,190.13824 L68.55678,190.13824 Z M68.55678,189.303536 C65.3600195,189.303536 62.76844,191.896229 62.76844,195.094541 C62.76844,198.292693 65.3600195,200.885545 68.55678,200.885545 C71.7535405,200.885545 74.34512,198.292693 74.34512,195.094541 C74.34512,191.896229 71.7535405,189.303536 68.55678,189.303536 L68.55678,189.303536 L68.55678,189.303536 Z"/>
          <g fill="#343434" transform="translate(6.547 19.49)">
            <path d="M0.706736358,164.89665 C0.64094888,164.886186 0.572766226,164.885946 0.509373923,164.865339 C0.381152211,164.823643 0.26929753,164.742409 0.190017231,164.633219 C0.150896037,164.579303 0.119918438,164.518437 0.0993199311,164.455096 C0.0787214245,164.391674 0.078481907,164.32346 0.0680229753,164.257642 L0.0680229753,0.674951532 C0.078481907,0.609133773 0.0787214245,0.54083986 0.0993199311,0.477498255 C0.119918438,0.414076774 0.150896037,0.353291198 0.190017231,0.299374952 C0.26929753,0.190184568 0.381152211,0.108950756 0.509373923,0.0672555254 C0.572766226,0.0466475378 0.64094888,0.04640791 0.706736358,0.0359441644 L123.339706,0.0359441644 C123.405493,0.04640791 123.473756,0.0466475378 123.537068,0.0672555254 C123.600461,0.0877836371 123.661218,0.11885537 123.71511,0.157994572 C123.82425,0.237311361 123.905446,0.34913765 123.947122,0.477498255 C123.967721,0.54083986 123.96796,0.609133773 123.978419,0.674951532 L123.978419,164.257642 C123.96796,164.32346 123.967721,164.391674 123.947122,164.455096 C123.905446,164.583377 123.82425,164.695283 123.71511,164.774599 C123.661218,164.813739 123.600461,164.844731 123.537068,164.865339 C123.473756,164.885946 123.405493,164.886186 123.339706,164.89665 L0.706736358,164.89665 L0.706736358,164.89665 Z"/>
            <rect width="122.633" height="163.583" x=".707" y=".675"/>
          </g>
          <path fill="#3E3E3E" d="M1.34544974,0.0328290035 C2.05098851,0.0328290035 2.62287651,0.604980225 2.62287651,1.31092361 C2.62287651,2.01670725 2.05098851,2.58885847 1.34544974,2.58885847 C0.640070649,2.58885847 0.0680229753,2.01670725 0.0680229753,1.31092361 C0.0680229753,0.604980225 0.640070649,0.0328290035 1.34544974,0.0328290035 L1.34544974,0.0328290035 Z" transform="translate(67.225 8.946)"/>
        </g>
      </g>
      <path fill="#222" d="M40.7578125,34 L40.7578125,15.15625 L45.890625,15.15625 L45.890625,34 L40.7578125,34 Z M43.3242188,13.0820312 C41.7773438,13.0820312 40.5820312,11.9042969 40.5820312,10.4277344 C40.5820312,8.93359375 41.7773438,7.7734375 43.3242188,7.7734375 C44.8710938,7.7734375 46.0664062,8.93359375 46.0664062,10.4277344 C46.0664062,11.9042969 44.8710938,13.0820312 43.3242188,13.0820312 Z M49.7402344,8.63476562 L60.0585938,8.63476562 C65.2617188,8.63476562 68.8476562,12.0976562 68.8476562,17.3183594 C68.8476562,22.5214844 65.1386719,26.0019531 59.7949219,26.0019531 L55.0488281,26.0019531 L55.0488281,34 L49.7402344,34 L49.7402344,8.63476562 Z M55.0488281,12.8359375 L55.0488281,21.8535156 L58.6347656,21.8535156 C61.6757812,21.8535156 63.4511719,20.2363281 63.4511719,17.3359375 C63.4511719,14.453125 61.6933594,12.8359375 58.6523438,12.8359375 L55.0488281,12.8359375 Z M77.5839844,30.5898438 C79.8164062,30.5898438 81.6621094,29.1308594 81.6621094,27.0917969 L81.6621094,25.7207031 L77.6894531,25.9667969 C75.7734375,26.1074219 74.6835938,26.96875 74.6835938,28.3046875 C74.6835938,29.7109375 75.84375,30.5898438 77.5839844,30.5898438 Z M75.8964844,34.2988281 C72.3105469,34.2988281 69.5859375,31.9785156 69.5859375,28.5859375 C69.5859375,25.1582031 72.2226562,23.171875 76.9160156,22.890625 L81.6621094,22.609375 L81.6621094,21.3613281 C81.6621094,19.6035156 80.4316406,18.5839844 78.4980469,18.5839844 C76.5820312,18.5839844 75.3691406,19.5332031 75.1230469,20.921875 L70.4296875,20.921875 C70.6230469,17.265625 73.734375,14.7519531 78.7265625,14.7519531 C83.5605469,14.7519531 86.7070312,17.2480469 86.7070312,21.0449219 L86.7070312,34 L81.75,34 L81.75,31.1171875 L81.6445312,31.1171875 C80.5898438,33.1210938 78.2519531,34.2988281 75.8964844,34.2988281 Z M97.0078125,34.2988281 C92.296875,34.2988281 89.3261719,30.5722656 89.3261719,24.5429688 C89.3261719,18.5664062 92.3144531,14.8574219 97.0429688,14.8574219 C99.7675781,14.8574219 101.876953,16.2988281 102.791016,18.390625 L102.896484,18.390625 L102.896484,8.63476562 L108.029297,8.63476562 L108.029297,34 L102.966797,34 L102.966797,30.765625 L102.878906,30.765625 C101.964844,32.8398438 99.7851562,34.2988281 97.0078125,34.2988281 Z M98.7480469,18.9707031 C96.1640625,18.9707031 94.5820312,21.1328125 94.5820312,24.578125 C94.5820312,28.0410156 96.1640625,30.1679688 98.7480469,30.1679688 C101.296875,30.1679688 102.931641,28.0234375 102.931641,24.578125 C102.931641,21.1503906 101.296875,18.9707031 98.7480469,18.9707031 Z M145.875,34 L141.146484,34 L141.146484,16.8789062 L141.005859,16.8789062 L134.115234,33.7539062 L130.775391,33.7539062 L123.884766,16.8789062 L123.744141,16.8789062 L123.744141,34 L119.015625,34 L119.015625,8.63476562 L125.167969,8.63476562 L132.375,26.6171875 L132.515625,26.6171875 L139.722656,8.63476562 L145.875,8.63476562 L145.875,34 Z M149.742188,34 L149.742188,15.15625 L154.875,15.15625 L154.875,34 L149.742188,34 Z M152.308594,13.0820312 C150.761719,13.0820312 149.566406,11.9042969 149.566406,10.4277344 C149.566406,8.93359375 150.761719,7.7734375 152.308594,7.7734375 C153.855469,7.7734375 155.050781,8.93359375 155.050781,10.4277344 C155.050781,11.9042969 153.855469,13.0820312 152.308594,13.0820312 Z M158.285156,34 L158.285156,15.15625 L163.242188,15.15625 L163.242188,18.5136719 L163.347656,18.5136719 C164.349609,16.1757812 166.335938,14.8046875 169.236328,14.8046875 C173.419922,14.8046875 175.775391,17.4414062 175.775391,21.8535156 L175.775391,34 L170.642578,34 L170.642578,22.9257812 C170.642578,20.4648438 169.482422,19.0585938 167.179688,19.0585938 C164.876953,19.0585938 163.417969,20.7460938 163.417969,23.1894531 L163.417969,34 L158.285156,34 Z M179.115234,34 L179.115234,15.15625 L184.248047,15.15625 L184.248047,34 L179.115234,34 Z M181.681641,13.0820312 C180.134766,13.0820312 178.939453,11.9042969 178.939453,10.4277344 C178.939453,8.93359375 180.134766,7.7734375 181.681641,7.7734375 C183.228516,7.7734375 184.423828,8.93359375 184.423828,10.4277344 C184.423828,11.9042969 183.228516,13.0820312 181.681641,13.0820312 Z M201.070312,22.9257812 L201.070312,19.09375 L204.146484,19.09375 C206.572266,19.09375 208.207031,17.6523438 208.207031,15.5605469 C208.207031,13.5039062 206.748047,12.1503906 204.111328,12.1503906 C201.650391,12.1503906 200.015625,13.609375 199.875,15.8242188 L194.988281,15.8242188 C195.181641,11.1308594 198.837891,8.07226562 204.339844,8.07226562 C209.613281,8.07226562 213.216797,10.7792969 213.216797,14.8398438 C213.216797,17.9511719 211.089844,20.2011719 207.978516,20.7636719 L207.978516,20.8691406 C211.757812,21.1855469 214.201172,23.4707031 214.201172,26.9863281 C214.201172,31.5390625 210.070312,34.5625 204.216797,34.5625 C198.486328,34.5625 194.742188,31.4160156 194.496094,26.7402344 L199.576172,26.7402344 C199.734375,28.8847656 201.492188,30.2910156 204.287109,30.2910156 C206.941406,30.2910156 208.804688,28.796875 208.804688,26.6523438 C208.804688,24.3320312 207.064453,22.9257812 204.199219,22.9257812 L201.070312,22.9257812 Z M220.529297,39.4492188 L215.783203,39.4492188 L224.800781,8.63476562 L229.529297,8.63476562 L220.529297,39.4492188 Z M243.416016,34 L243.416016,29.4824219 L230.794922,29.4824219 L230.794922,24.9648438 C233.009766,20.7460938 235.769531,16.2988281 240.972656,8.63476562 L248.460938,8.63476562 L248.460938,25.2285156 L251.765625,25.2285156 L251.765625,29.4824219 L248.460938,29.4824219 L248.460938,34 L243.416016,34 Z M235.453125,25.2460938 L235.453125,25.3867188 L243.521484,25.3867188 L243.521484,12.3964844 L243.416016,12.3964844 C239.724609,17.8105469 237.509766,21.2734375 235.453125,25.2460938 Z"/>
    </g>
    <g transform="translate(166 689)">
      <g transform="translate(0 73)">
        <g transform="translate(213)">
          <path fill="#D5D2CF" d="M183.92038,8.22761032 C183.92038,3.7304172 180.270057,0.0792835634 175.774544,0.0792835634 L8.14609682,0.0792835634 C3.65058367,0.0792835634 0.000260686658,3.7304172 0.000260686658,8.22761032 L0.000260686658,246.816383 C0.000260686658,251.313576 3.65058367,254.96471 8.14609682,254.96471 L175.774544,254.96471 C180.270057,254.96471 183.92038,251.313576 183.92038,246.816383 L183.92038,8.22761032 L183.92038,8.22761032 Z"/>
          <path fill="#F3F5F7" d="M182.901988,8.22871049 C182.901988,4.2930045 179.707919,1.09863566 175.774516,1.09863566 L8.1459766,1.09863566 C4.21257272,1.09863566 1.01850437,4.2930045 1.01850437,8.22871049 L1.01850437,246.817482 C1.01850437,250.753188 4.21257272,253.947557 8.1459766,253.947557 L175.774516,253.947557 C179.707919,253.947557 182.901988,250.753188 182.901988,246.817482 L182.901988,8.22871049 L182.901988,8.22871049 Z"/>
          <g transform="translate(9.499 17.73)">
            <path fill="#3E3E3E" d="M0.576915747,219.616302 C0.521979465,219.607504 0.465044047,219.607504 0.412186868,219.589906 C0.305113097,219.555512 0.211793387,219.487522 0.14566194,219.396336 C0.11295606,219.351543 0.0870472463,219.300351 0.0699346346,219.247559 C0.0527420575,219.194767 0.0525021611,219.137976 0.0437859243,219.082784 L0.0437859243,0.556559937 C0.0525021611,0.501688378 0.0527420575,0.444737139 0.0699346346,0.391785284 C0.0870472463,0.338913417 0.11295606,0.288121231 0.14566194,0.243168146 C0.211793387,0.15206216 0.305113097,0.0842325944 0.412186868,0.0494379469 C0.465044047,0.0322405923 0.521979465,0.0320806169 0.576915747,0.0233619581 L164.346209,0.0233619581 C164.401385,0.0320806169 164.45816,0.0322405923 164.510938,0.0494379469 C164.563715,0.0666353014 164.614893,0.0924713271 164.659673,0.125186295 C164.750834,0.191416107 164.818805,0.28468176 164.85319,0.391785284 C164.869983,0.444737139 164.870782,0.501688378 164.879578,0.556559937 L164.879578,219.082784 C164.870782,219.137976 164.869983,219.194767 164.85319,219.247559 C164.818805,219.354743 164.750834,219.448328 164.659673,219.514718 C164.614893,219.546713 164.563715,219.573109 164.510938,219.589906 C164.45816,219.607504 164.401385,219.607504 164.346209,219.616302 L0.576915747,219.616302 L0.576915747,219.616302 Z"/>
            <rect width="163.77" height="218.526" x=".578" y=".552" fill="#343434"/>
          </g>
          <path fill="#D5D2CF" d="M91.9599516,242.949478 C94.0923315,242.949478 95.8270882,244.684798 95.8270882,246.817689 C95.8270882,248.950661 94.0923315,250.6859 91.9599516,250.6859 C89.8276532,250.6859 88.092815,248.950661 88.092815,246.817689 C88.092815,244.684798 89.8276532,242.949478 91.9599516,242.949478 L91.9599516,242.949478 Z M91.9599516,242.297989 C89.4645494,242.297989 87.4415892,244.321512 87.4415892,246.817689 C87.4415892,249.313784 89.4645494,251.337388 91.9599516,251.337388 C94.4554352,251.337388 96.4784769,249.313784 96.4784769,246.817689 C96.4784769,244.321512 94.4554352,242.297989 91.9599516,242.297989 L91.9599516,242.297989 Z"/>
          <ellipse cx="91.96" cy="9.438" fill="#3E3E3E" rx="1.336" ry="1.337"/>
        </g>
        <path fill="#545454" d="M183.92038,8.22761032 C183.92038,3.7304172 180.270057,0.0792835634 175.774544,0.0792835634 L8.14609682,0.0792835634 C3.65058367,0.0792835634 0.000260686658,3.7304172 0.000260686658,8.22761032 L0.000260686658,246.816383 C0.000260686658,251.313576 3.65058367,254.96471 8.14609682,254.96471 L175.774544,254.96471 C180.270057,254.96471 183.92038,251.313576 183.92038,246.816383 L183.92038,8.22761032 L183.92038,8.22761032 Z"/>
        <path fill="#343434" d="M182.901988,8.22871049 C182.901988,4.2930045 179.707919,1.09863566 175.774516,1.09863566 L8.1459766,1.09863566 C4.21257272,1.09863566 1.01850437,4.2930045 1.01850437,8.22871049 L1.01850437,246.817482 C1.01850437,250.753188 4.21257272,253.947557 8.1459766,253.947557 L175.774516,253.947557 C179.707919,253.947557 182.901988,250.753188 182.901988,246.817482 L182.901988,8.22871049 L182.901988,8.22871049 Z"/>
        <g fill="#343434" transform="translate(9.499 17.73)">
          <path d="M0.576915747,219.616302 C0.521979465,219.607504 0.465044047,219.607504 0.412186868,219.589906 C0.305113097,219.555512 0.211793387,219.487522 0.14566194,219.396336 C0.11295606,219.351543 0.0870472463,219.300351 0.0699346346,219.247559 C0.0527420575,219.194767 0.0525021611,219.137976 0.0437859243,219.082784 L0.0437859243,0.556559937 C0.0525021611,0.501688378 0.0527420575,0.444737139 0.0699346346,0.391785284 C0.0870472463,0.338913417 0.11295606,0.288121231 0.14566194,0.243168146 C0.211793387,0.15206216 0.305113097,0.0842325944 0.412186868,0.0494379469 C0.465044047,0.0322405923 0.521979465,0.0320806169 0.576915747,0.0233619581 L164.346209,0.0233619581 C164.401385,0.0320806169 164.45816,0.0322405923 164.510938,0.0494379469 C164.563715,0.0666353014 164.614893,0.0924713271 164.659673,0.125186295 C164.750834,0.191416107 164.818805,0.28468176 164.85319,0.391785284 C164.869983,0.444737139 164.870782,0.501688378 164.879578,0.556559937 L164.879578,219.082784 C164.870782,219.137976 164.869983,219.194767 164.85319,219.247559 C164.818805,219.354743 164.750834,219.448328 164.659673,219.514718 C164.614893,219.546713 164.563715,219.573109 164.510938,219.589906 C164.45816,219.607504 164.401385,219.607504 164.346209,219.616302 L0.576915747,219.616302 L0.576915747,219.616302 Z"/>
          <rect width="163.77" height="218.526" x=".578" y=".552"/>
        </g>
        <path fill="#545454" d="M91.9599516,242.949478 C94.0923315,242.949478 95.8270882,244.684798 95.8270882,246.817689 C95.8270882,248.950661 94.0923315,250.6859 91.9599516,250.6859 C89.8276532,250.6859 88.092815,248.950661 88.092815,246.817689 C88.092815,244.684798 89.8276532,242.949478 91.9599516,242.949478 L91.9599516,242.949478 Z M91.9599516,242.297989 C89.4645494,242.297989 87.4415892,244.321512 87.4415892,246.817689 C87.4415892,249.313784 89.4645494,251.337388 91.9599516,251.337388 C94.4554352,251.337388 96.4784769,249.313784 96.4784769,246.817689 C96.4784769,244.321512 94.4554352,242.297989 91.9599516,242.297989 L91.9599516,242.297989 Z"/>
        <ellipse cx="91.96" cy="9.438" fill="#3E3E3E" rx="1.336" ry="1.337"/>
      </g>
      <path fill="#222" d="M83.7578125,34 L83.7578125,15.15625 L88.890625,15.15625 L88.890625,34 L83.7578125,34 Z M86.3242188,13.0820312 C84.7773438,13.0820312 83.5820312,11.9042969 83.5820312,10.4277344 C83.5820312,8.93359375 84.7773438,7.7734375 86.3242188,7.7734375 C87.8710938,7.7734375 89.0664062,8.93359375 89.0664062,10.4277344 C89.0664062,11.9042969 87.8710938,13.0820312 86.3242188,13.0820312 Z M92.7402344,8.63476562 L103.058594,8.63476562 C108.261719,8.63476562 111.847656,12.0976562 111.847656,17.3183594 C111.847656,22.5214844 108.138672,26.0019531 102.794922,26.0019531 L98.0488281,26.0019531 L98.0488281,34 L92.7402344,34 L92.7402344,8.63476562 Z M98.0488281,12.8359375 L98.0488281,21.8535156 L101.634766,21.8535156 C104.675781,21.8535156 106.451172,20.2363281 106.451172,17.3359375 C106.451172,14.453125 104.693359,12.8359375 101.652344,12.8359375 L98.0488281,12.8359375 Z M120.583984,30.5898438 C122.816406,30.5898438 124.662109,29.1308594 124.662109,27.0917969 L124.662109,25.7207031 L120.689453,25.9667969 C118.773438,26.1074219 117.683594,26.96875 117.683594,28.3046875 C117.683594,29.7109375 118.84375,30.5898438 120.583984,30.5898438 Z M118.896484,34.2988281 C115.310547,34.2988281 112.585938,31.9785156 112.585938,28.5859375 C112.585938,25.1582031 115.222656,23.171875 119.916016,22.890625 L124.662109,22.609375 L124.662109,21.3613281 C124.662109,19.6035156 123.431641,18.5839844 121.498047,18.5839844 C119.582031,18.5839844 118.369141,19.5332031 118.123047,20.921875 L113.429688,20.921875 C113.623047,17.265625 116.734375,14.7519531 121.726562,14.7519531 C126.560547,14.7519531 129.707031,17.2480469 129.707031,21.0449219 L129.707031,34 L124.75,34 L124.75,31.1171875 L124.644531,31.1171875 C123.589844,33.1210938 121.251953,34.2988281 118.896484,34.2988281 Z M140.007812,34.2988281 C135.296875,34.2988281 132.326172,30.5722656 132.326172,24.5429688 C132.326172,18.5664062 135.314453,14.8574219 140.042969,14.8574219 C142.767578,14.8574219 144.876953,16.2988281 145.791016,18.390625 L145.896484,18.390625 L145.896484,8.63476562 L151.029297,8.63476562 L151.029297,34 L145.966797,34 L145.966797,30.765625 L145.878906,30.765625 C144.964844,32.8398438 142.785156,34.2988281 140.007812,34.2988281 Z M141.748047,18.9707031 C139.164062,18.9707031 137.582031,21.1328125 137.582031,24.578125 C137.582031,28.0410156 139.164062,30.1679688 141.748047,30.1679688 C144.296875,30.1679688 145.931641,28.0234375 145.931641,24.578125 C145.931641,21.1503906 144.296875,18.9707031 141.748047,18.9707031 Z M162.015625,8.63476562 L172.333984,8.63476562 C177.537109,8.63476562 181.123047,12.0976562 181.123047,17.3183594 C181.123047,22.5214844 177.414062,26.0019531 172.070312,26.0019531 L167.324219,26.0019531 L167.324219,34 L162.015625,34 L162.015625,8.63476562 Z M167.324219,12.8359375 L167.324219,21.8535156 L170.910156,21.8535156 C173.951172,21.8535156 175.726562,20.2363281 175.726562,17.3359375 C175.726562,14.453125 173.96875,12.8359375 170.927734,12.8359375 L167.324219,12.8359375 Z M183.8125,34 L183.8125,15.15625 L188.769531,15.15625 L188.769531,18.5488281 L188.875,18.5488281 C189.542969,16.1582031 191.142578,14.8574219 193.357422,14.8574219 C193.955078,14.8574219 194.464844,14.9453125 194.816406,15.0507812 L194.816406,19.5683594 C194.394531,19.3925781 193.691406,19.2695312 192.953125,19.2695312 C190.421875,19.2695312 188.945312,20.8164062 188.945312,23.4707031 L188.945312,34 L183.8125,34 Z M204.941406,34.4042969 C199.246094,34.4042969 195.607422,30.7480469 195.607422,24.5605469 C195.607422,18.4609375 199.298828,14.7519531 204.941406,14.7519531 C210.583984,14.7519531 214.275391,18.4433594 214.275391,24.5605469 C214.275391,30.765625 210.636719,34.4042969 204.941406,34.4042969 Z M204.941406,30.484375 C207.455078,30.484375 209.054688,28.3574219 209.054688,24.578125 C209.054688,20.8339844 207.4375,18.671875 204.941406,18.671875 C202.445312,18.671875 200.810547,20.8339844 200.810547,24.578125 C200.810547,28.3574219 202.410156,30.484375 204.941406,30.484375 Z M230.5,34 L230.5,13.5039062 L230.394531,13.5039062 L223.925781,17.96875 L223.925781,13.1875 L230.482422,8.63476562 L235.755859,8.63476562 L235.755859,34 L230.5,34 Z M241.134766,16.2636719 C241.134766,11.4648438 244.966797,8.07226562 250.503906,8.07226562 C255.847656,8.07226562 259.521484,11.1660156 259.521484,15.4023438 C259.521484,18.5664062 257.412109,20.9394531 254.617188,23.7167969 L248.429688,29.6757812 L248.429688,29.78125 L259.873047,29.78125 L259.873047,34 L241.433594,34 L241.433594,30.4316406 L250.996094,21.2207031 C253.5625,18.6542969 254.353516,17.3710938 254.353516,15.6132812 C254.353516,13.7148438 252.683594,12.203125 250.328125,12.203125 C247.867188,12.203125 246.056641,13.9257812 246.056641,16.2636719 L246.056641,16.3515625 L241.134766,16.3515625 L241.134766,16.2636719 Z M266.359375,34.2109375 C264.777344,34.2109375 263.529297,32.9453125 263.529297,31.3808594 C263.529297,29.7988281 264.777344,28.5507812 266.359375,28.5507812 C267.923828,28.5507812 269.189453,29.7988281 269.189453,31.3808594 C269.189453,32.9453125 267.923828,34.2109375 266.359375,34.2109375 Z M282.759766,34.5625 C277.310547,34.5625 273.390625,31.328125 273.232422,26.7402344 L278.136719,26.7402344 C278.435547,28.8847656 280.333984,30.3613281 282.794922,30.3613281 C285.572266,30.3613281 287.488281,28.4277344 287.488281,25.6679688 C287.488281,22.8554688 285.572266,20.8867188 282.830078,20.8867188 C280.914062,20.8867188 279.261719,21.765625 278.382812,23.2246094 L273.636719,23.2246094 L274.884766,8.63476562 L291.021484,8.63476562 L291.021484,12.8535156 L279.050781,12.8535156 L278.470703,19.796875 L278.576172,19.796875 C279.613281,18.0917969 281.634766,17.0195312 284.21875,17.0195312 C289.070312,17.0195312 292.550781,20.5878906 292.550781,25.5273438 C292.550781,30.90625 288.578125,34.5625 282.759766,34.5625 Z M299.669922,18.53125 L295.837891,18.53125 L297.15625,8.63476562 L302.025391,8.63476562 L299.669922,18.53125 Z M309.583984,18.53125 L305.751953,18.53125 L307.070312,8.63476562 L311.939453,8.63476562 L309.583984,18.53125 Z"/>
    </g>
  </g>
</svg>
