<svg xmlns="http://www.w3.org/2000/svg" width="888" height="1061" viewBox="0 0 888 1061">
  <g fill="none" fill-rule="evenodd">
    <rect width="888" height="1061" fill="#F4F4F4"/>
    <g transform="translate(57 103)">
      <g transform="translate(447 360)">
        <path fill="#545454" d="M137.317881,209 C141.55745,209 145,205.556423 145,201.315588 L145,7.6844121 C145,3.44325699 141.55745,0 137.317881,0 L7.68211921,0 C3.44222958,0 0,3.44325699 0,7.6844121 L0,201.315588 C0,205.556423 3.44222958,209 7.68211921,209 L137.317881,209 Z"/>
        <path fill="#343434" d="M137.157837,208.039448 C140.911672,208.039448 143.959713,204.990498 143.959713,201.235542 L143.959713,7.84450402 C143.959713,4.08930793 140.911672,1.04059747 137.157837,1.04059747 L7.76214128,1.04059747 C4.00806567,1.04059747 0.960264901,4.08930793 0.960264901,7.84450402 L0.960264901,201.235542 C0.960264901,204.990498 4.00806567,208.039448 7.76214128,208.039448 L137.157837,208.039448 Z"/>
        <g fill="#343434" transform="translate(5.041 14.889)">
          <path d="M134.141004,179.302949 C134.493902,179.302949 134.781181,179.015584 134.781181,178.662581 L134.781181,0.640367675 C134.781181,0.286964764 134.493902,0 134.141004,0 L0.663783113,0 C0.310485651,0 0.0236065121,0.286964764 0.0236065121,0.640367675 L0.0236065121,178.662581 C0.0236065121,179.015584 0.310485651,179.302949 0.663783113,179.302949 L134.141004,179.302949 Z"/>
          <polygon points="133.477 178.022 133.477 0 0 0 0 178.022" transform="translate(.664 .64)"/>
        </g>
        <path fill="#3E3E3E" d="M73.5002759,8.00459594 C73.5002759,8.5789257 73.0341474,9.04519341 72.459989,9.04519341 C71.8858306,9.04519341 71.419702,8.5789257 71.419702,8.00459594 C71.419702,7.43026618 71.8858306,6.96399847 72.459989,6.96399847 C73.0341474,6.96399847 73.5002759,7.43026618 73.5002759,8.00459594 Z"/>
        <path fill="#545454" d="M76.8612031,201.635772 C76.8612031,204.065967 74.8890591,206.0383 72.459989,206.0383 C70.0309189,206.0383 68.0587748,204.065967 68.0587748,201.635772 C68.0587748,199.205576 70.0309189,197.233244 72.459989,197.233244 C74.8890591,197.233244 76.8612031,199.205576 76.8612031,201.635772 Z M76.3810706,201.635772 C76.3810706,203.800214 74.624106,205.558024 72.459989,205.558024 C70.295872,205.558024 68.5389073,203.800214 68.5389073,201.635772 C68.5389073,199.471329 70.295872,197.71352 72.459989,197.71352 C74.624106,197.71352 76.3810706,199.471329 76.3810706,201.635772 Z"/>
        <g transform="translate(180)">
          <path fill="#D5D2CF" d="M137.317881,209 C141.55745,209 145,205.556423 145,201.315588 L145,7.6844121 C145,3.44325699 141.55745,0 137.317881,0 L7.68211921,0 C3.44222958,0 0,3.44325699 0,7.6844121 L0,201.315588 C0,205.556423 3.44222958,209 7.68211921,209 L137.317881,209 Z"/>
          <path fill="#F3F5F7" d="M137.157837,208.039448 C140.911672,208.039448 143.959713,204.990498 143.959713,201.235542 L143.959713,7.84450402 C143.959713,4.08930793 140.911672,1.04059747 137.157837,1.04059747 L7.76214128,1.04059747 C4.00806567,1.04059747 0.960264901,4.08930793 0.960264901,7.84450402 L0.960264901,201.235542 C0.960264901,204.990498 4.00806567,208.039448 7.76214128,208.039448 L137.157837,208.039448 Z"/>
          <g transform="translate(5.041 14.889)">
            <path fill="#3E3E3E" d="M134.141004,179.302949 C134.493902,179.302949 134.781181,179.015584 134.781181,178.662581 L134.781181,0.640367675 C134.781181,0.286964764 134.493902,0 134.141004,0 L0.663783113,0 C0.310485651,0 0.0236065121,0.286964764 0.0236065121,0.640367675 L0.0236065121,178.662581 C0.0236065121,179.015584 0.310485651,179.302949 0.663783113,179.302949 L134.141004,179.302949 Z"/>
            <polygon fill="#343434" points="133.477 178.022 133.477 0 0 0 0 178.022" transform="translate(.664 .64)"/>
          </g>
          <path fill="#3E3E3E" d="M73.5002759,8.00459594 C73.5002759,8.5789257 73.0341474,9.04519341 72.459989,9.04519341 C71.8858306,9.04519341 71.419702,8.5789257 71.419702,8.00459594 C71.419702,7.43026618 71.8858306,6.96399847 72.459989,6.96399847 C73.0341474,6.96399847 73.5002759,7.43026618 73.5002759,8.00459594 Z"/>
          <path fill="#D5D2CF" d="M76.8612031,201.635772 C76.8612031,204.065967 74.8890591,206.0383 72.459989,206.0383 C70.0309189,206.0383 68.0587748,204.065967 68.0587748,201.635772 C68.0587748,199.205576 70.0309189,197.233244 72.459989,197.233244 C74.8890591,197.233244 76.8612031,199.205576 76.8612031,201.635772 Z M76.3810706,201.635772 C76.3810706,203.800214 74.624106,205.558024 72.459989,205.558024 C70.295872,205.558024 68.5389073,203.800214 68.5389073,201.635772 C68.5389073,199.471329 70.295872,197.71352 72.459989,197.71352 C74.624106,197.71352 76.3810706,199.471329 76.3810706,201.635772 Z"/>
        </g>
      </g>
      <g transform="translate(0 360)">
        <g transform="translate(180)">
          <path fill="#D5D2CF" d="M144,8.25104898 C144,3.69716207 140.320055,0 135.787375,0 L8.21262458,0 C3.67994472,0 0,3.69716207 0,8.25104898 L0,200.748951 C0,205.302838 3.67994472,209 8.21262458,209 L135.787375,209 C140.320055,209 144,205.302838 144,200.748951 L144,8.25104898 Z"/>
          <g transform="translate(.877 .881)">
            <path fill="#F3F5F7" d="M142.245847,7.36986896 C142.245847,3.30231652 138.958909,0 134.910299,0 L7.33554817,0 C3.28693794,0 0,3.30231652 0,7.36986896 L0,199.86777 C0,203.935322 3.28693794,207.237639 7.33554817,207.237639 L134.910299,207.237639 C138.958909,207.237639 142.245847,203.935322 142.245847,199.86777 L142.245847,7.36986896 Z"/>
            <ellipse cx="71.123" cy="8.491" fill="#3E3E3E" rx="1.116" ry="1.122"/>
            <path fill="#D5D2CF" d="M71.1229236,195.221541 C73.6312983,195.221541 75.6677741,197.267546 75.6677741,199.787658 C75.6677741,202.30777 73.6312983,204.353775 71.1229236,204.353775 C68.6145488,204.353775 66.5780731,202.30777 66.5780731,199.787658 C66.5780731,197.267546 68.6145488,195.221541 71.1229236,195.221541 Z M71.1229236,195.782292 C73.3232563,195.782292 75.1096346,197.577029 75.1096346,199.787658 C75.1096346,201.998287 73.3232563,203.793024 71.1229236,203.793024 C68.9225908,203.793024 67.1362126,201.998287 67.1362126,199.787658 C67.1362126,197.577029 68.9225908,195.782292 71.1229236,195.782292 Z"/>
          </g>
          <g transform="translate(6.777 17.383)">
            <path fill="#3E3E3E" d="M130.445183,0.640858567 C130.445183,0.287155906 130.159364,0 129.807309,0 L0.637873754,0 C0.285818472,0 0,0.287155906 0,0.640858567 L0,173.672672 C0,174.026374 0.285818472,174.31353 0.637873754,174.31353 L129.807309,174.31353 C130.159364,174.31353 130.445183,174.026374 130.445183,173.672672 L130.445183,0.640858567 Z"/>
            <rect width="129.169" height="173.032" fill="#343434" transform="translate(.638 .64)"/>
          </g>
        </g>
        <path fill="#545454" d="M144,8.25104898 C144,3.69716207 140.320055,0 135.787375,0 L8.21262458,0 C3.67994472,0 0,3.69716207 0,8.25104898 L0,200.748951 C0,205.302838 3.67994472,209 8.21262458,209 L135.787375,209 C140.320055,209 144,205.302838 144,200.748951 L144,8.25104898 Z"/>
        <g transform="translate(.877 .881)">
          <path fill="#343434" d="M142.245847,7.36986896 C142.245847,3.30231652 138.958909,0 134.910299,0 L7.33554817,0 C3.28693794,0 0,3.30231652 0,7.36986896 L0,199.86777 C0,203.935322 3.28693794,207.237639 7.33554817,207.237639 L134.910299,207.237639 C138.958909,207.237639 142.245847,203.935322 142.245847,199.86777 L142.245847,7.36986896 Z"/>
          <ellipse cx="71.123" cy="8.491" fill="#3E3E3E" rx="1.116" ry="1.122"/>
          <path fill="#545454" d="M71.1229236,195.221541 C73.6312983,195.221541 75.6677741,197.267546 75.6677741,199.787658 C75.6677741,202.30777 73.6312983,204.353775 71.1229236,204.353775 C68.6145488,204.353775 66.5780731,202.30777 66.5780731,199.787658 C66.5780731,197.267546 68.6145488,195.221541 71.1229236,195.221541 Z M71.1229236,195.782292 C73.3232563,195.782292 75.1096346,197.577029 75.1096346,199.787658 C75.1096346,201.998287 73.3232563,203.793024 71.1229236,203.793024 C68.9225908,203.793024 67.1362126,201.998287 67.1362126,199.787658 C67.1362126,197.577029 68.9225908,195.782292 71.1229236,195.782292 Z"/>
        </g>
        <g fill="#343434" transform="translate(6.777 17.383)">
          <path d="M130.445183,0.640858567 C130.445183,0.287155906 130.159364,0 129.807309,0 L0.637873754,0 C0.285818472,0 0,0.287155906 0,0.640858567 L0,173.672672 C0,174.026374 0.285818472,174.31353 0.637873754,174.31353 L129.807309,174.31353 C130.159364,174.31353 130.445183,174.026374 130.445183,173.672672 L130.445183,0.640858567 Z"/>
          <rect width="129.169" height="173.032" transform="translate(.638 .64)"/>
        </g>
      </g>
      <g transform="translate(510 694)">
        <path fill="#D5D2CF" d="M178.520536,11.2838577 C178.520536,5.32111518 173.686587,0.480164159 167.732527,0.480164159 L10.7880082,0.480164159 C4.83394827,0.480164159 0,5.32111518 0,11.2838577 L0,223.196306 C0,229.159023 4.83394827,234 10.7880082,234 L167.732527,234 C173.686587,234 178.520536,229.159023 178.520536,223.196306 L178.520536,11.2838577 Z"/>
        <path fill="#3E3E3E" d="M177.721429,11.2038304 C177.721429,5.72696274 173.281385,1.28043776 167.8125,1.28043776 L10.7080357,1.28043776 C5.239151,1.28043776 0.799107143,5.72696274 0.799107143,11.2038304 L0.799107143,223.276334 C0.799107143,228.753201 5.239151,233.199726 10.7080357,233.199726 L167.8125,233.199726 C173.281385,233.199726 177.721429,228.753201 177.721429,223.276334 L177.721429,11.2038304 Z"/>
        <path fill="#D5D2CF" d="M20.3772321 27.5294118L20.3772321 35.8522572 20.6710658 35.8522572C20.7355184 35.8522572 20.9366071 35.7003415 20.9366071 35.6483426L20.9366071 27.723291C20.9366071 27.6683149 20.7256764 27.5294118 20.6760005 27.5294118L20.3772321 27.5294118 20.3772321 27.5294118zM20.3772321 17.4459644L20.3772321 25.7688098 20.6710658 25.7688098C20.7355184 25.7688098 20.9366071 25.6168941 20.9366071 25.5648953L20.9366071 17.6398437C20.9366071 17.5848676 20.7256764 17.4459644 20.6760005 17.4459644L20.3772321 17.4459644 20.3772321 17.4459644zM0 .560191518L9.82901786.560191518 9.82901786.265901532C9.82901786.201382317 9.67735011 0 9.62547052 0L.193530093 0C.138627394 0 0 .211211201 0 .26098709L0 .560191518z" transform="translate(158.063)"/>
        <g fill="#343434" transform="translate(1.279 1.76)">
          <path d="M175.963393,9.44184349 C175.963393,4.23074467 171.738778,0 166.53523,0 L9.4281629,0 C4.22461461,0 0,4.23074467 0,9.44184349 L0,221.517117 C0,226.72819 4.22461461,230.95896 9.4281629,230.95896 L166.53523,230.95896 C171.738778,230.95896 175.963393,226.72819 175.963393,221.517117 L175.963393,9.44184349 Z"/>
          <rect width="163.657" height="218.635" transform="translate(6.153 6.162)"/>
          <path d="M175.963393,9.44184349 C175.963393,4.23074467 171.738778,0 166.53523,0 L9.4281629,0 C4.22461461,0 0,4.23074467 0,9.44184349 L0,221.517117 C0,226.72819 4.22461461,230.95896 9.4281629,230.95896 L166.53523,230.95896 C171.738778,230.95896 175.963393,226.72819 175.963393,221.517117 L175.963393,9.44184349 Z M169.810216,8.88303497 C169.810216,7.38131229 168.592776,6.16210534 167.093229,6.16210534 L8.86995948,6.16210534 C7.37041269,6.16210534 6.15297229,7.38131229 6.15297229,8.88303497 L6.15297229,222.075874 C6.15297229,223.577597 7.37041269,224.796804 8.86995948,224.796804 L167.093229,224.796804 C168.592776,224.796804 169.810216,223.577597 169.810216,222.075874 L169.810216,8.88303497 Z"/>
        </g>
        <g fill="#3E3E3E" transform="translate(88.78 3.921)">
          <ellipse cx=".999" cy="1" rx="1" ry="1"/>
          <ellipse cx="6.553" cy=".88" rx="1" ry="1"/>
        </g>
      </g>
      <g transform="translate(78 708)">
        <path fill="#545454" d="M148.439549,11.3335916 C148.439549,5.38674436 143.596326,0.558698179 137.630844,0.558698179 L10.808705,0.558698179 C4.84322218,0.558698179 0,5.38674436 0,11.3335916 L0,195.225107 C0,201.171928 4.84322218,206 10.808705,206 L137.630844,206 C143.596326,206 148.439549,201.171928 148.439549,195.225107 L148.439549,11.3335916 Z"/>
        <path fill="#3E3E3E" d="M147.638904,11.2537776 C147.638904,5.79151002 143.190316,1.35683843 137.710908,1.35683843 L10.7286405,1.35683843 C5.24923237,1.35683843 0.800644815,5.79151002 0.800644815,11.2537776 L0.800644815,195.304921 C0.800644815,200.767188 5.24923237,205.20186 10.7286405,205.20186 L137.710908,205.20186 C143.190316,205.20186 147.638904,200.767188 147.638904,195.304921 L147.638904,11.2537776 Z"/>
        <path fill="#545454" d="M20.4164428 26.7376986L20.4164428 35.0383572 20.7108418 35.0383572C20.7754184 35.0383572 20.9768941 34.8868465 20.9768941 34.8349863L20.9768941 26.931061C20.9768941 26.8762314 20.7655575 26.7376986 20.715786 26.7376986L20.4164428 26.7376986 20.4164428 26.7376986zM20.4164428 16.6811313L20.4164428 24.98179 20.7108418 24.98179C20.7754184 24.98179 20.9768941 24.8302793 20.9768941 24.778419L20.9768941 16.8744938C20.9768941 16.8196642 20.7655575 16.6811313 20.715786 16.6811313L20.4164428 16.6811313 20.4164428 16.6811313zM0 .558698179L9.84793122.558698179 9.84793122.265192701C9.84793122.200845478 9.69597163 0 9.64399221 0L.193902491 0C.138894146 0 0 .210648162 0 .260291359L0 .558698179z" transform="translate(128.023)"/>
        <g fill="#343434" transform="translate(1.281 1.836)">
          <path d="M145.877485,9.41667346 C145.877485,4.21946637 141.644754,0 136.431239,0 L9.44622032,0 C4.23270586,0 0,4.21946637 0,9.41667346 L0,193.47058 C0,198.667761 4.23270586,202.887253 9.44622032,202.887253 L136.431239,202.887253 C141.644754,202.887253 145.877485,198.667761 145.877485,193.47058 L145.877485,9.41667346 Z"/>
          <rect width="133.548" height="190.596" transform="translate(6.165 6.146)"/>
          <path d="M145.877485,9.41667346 C145.877485,4.21946637 141.644754,0 136.431239,0 L9.44622032,0 C4.23270586,0 0,4.21946637 0,9.41667346 L0,193.47058 C0,198.667761 4.23270586,202.887253 9.44622032,202.887253 L136.431239,202.887253 C141.644754,202.887253 145.877485,198.667761 145.877485,193.47058 L145.877485,9.41667346 Z M139.712523,8.85935461 C139.712523,7.36163522 138.492751,6.14567842 136.990332,6.14567842 L8.88722962,6.14567842 C7.38481081,6.14567842 6.16503869,7.36163522 6.16503869,8.85935461 L6.16503869,194.027847 C6.16503869,195.525567 7.38481081,196.741524 8.88722962,196.741524 L136.990332,196.741524 C138.492751,196.741524 139.712523,195.525567 139.712523,194.027847 L139.712523,8.85935461 Z"/>
        </g>
        <g fill="#3E3E3E" transform="translate(73.42 3.91)">
          <ellipse cx="1.001" cy=".998" rx="1.001" ry="1"/>
          <ellipse cx="6.565" cy=".878" rx="1" ry="1"/>
        </g>
      </g>
      <g transform="translate(230)">
        <g transform="translate(174 1)">
          <path fill="#D5D2CF" d="M138.988024,195.824606 C138.988024,201.657625 134.61675,205.958864 128.857311,205.958864 L121.392668,205.958864 L17.6584291,205.958864 L10.1988156,205.958864 C4.43937737,205.958864 0.0681826536,201.657625 0.0681826536,195.824606 L0.0681826536,10.1721985 C0.0681826536,4.33909965 4.43937737,0.0380209383 10.1988156,0.0380209383 L128.857391,0.0380209383 C134.616829,0.0380209383 138.988104,4.33909965 138.988104,10.1721985 L138.988104,195.824606 L138.988024,195.824606 Z"/>
          <g transform="translate(.958 .959)">
            <path fill="#F3F5F7" d="M137.109408,9.2958798 C137.079628,10.2397736 137.079628,193.831622 137.109408,194.774957 C137.109408,197.230742 136.255928,199.625103 134.455235,201.41648 C132.654702,203.208017 130.26807,204.0559 127.827705,204.0559 L9.28649339,204.0559 C6.84612924,204.0559 4.45949684,203.208017 2.65888397,201.41648 C0.858271109,199.625103 0.00479035037,197.230742 0.00479035037,194.774957 C0.0344905227,193.831143 0.0344905227,10.2392144 0.00479035037,9.2958798 C0.00479035037,6.84017449 0.858271109,4.44581388 2.65888397,2.65435673 C4.45949684,0.862819698 6.84612924,0.0149367972 9.28649339,0.0149367972 L127.827705,0.0149367972 C130.26807,0.0149367972 132.654702,0.862819698 134.455235,2.65435673 C136.255928,4.44581388 137.109408,6.84017449 137.109408,9.2958798 L137.109408,9.2958798 Z"/>
            <path fill="#D5D2CF" d="M68.55678,190.13824 C71.2883975,190.13824 73.5108007,192.361586 73.5108007,195.094461 C73.5108007,197.827335 71.2883975,200.050762 68.55678,200.050762 C65.8252424,200.050762 63.6028392,197.827335 63.6028392,195.094461 C63.6028392,192.361586 65.8252424,190.13824 68.55678,190.13824 L68.55678,190.13824 Z M68.55678,189.303536 C65.3600195,189.303536 62.76844,191.896229 62.76844,195.094541 C62.76844,198.292693 65.3600195,200.885545 68.55678,200.885545 C71.7535405,200.885545 74.34512,198.292693 74.34512,195.094541 C74.34512,191.896229 71.7535405,189.303536 68.55678,189.303536 L68.55678,189.303536 L68.55678,189.303536 Z"/>
            <g transform="translate(6.547 19.49)">
              <path fill="#3E3E3E" d="M0.706736358,164.899845 C0.64094888,164.889461 0.572766226,164.889142 0.509373923,164.868613 C0.381152211,164.826918 0.26929753,164.745604 0.190017231,164.636414 C0.150896037,164.582498 0.119918438,164.521712 0.0993199311,164.458291 C0.0787214245,164.394949 0.078481907,164.326655 0.0680229753,164.260838 L0.0680229753,0.678146568 C0.078481907,0.61232881 0.0787214245,0.544034897 0.0993199311,0.480693292 C0.119918438,0.417271811 0.150896037,0.356406359 0.190017231,0.302490112 C0.26929753,0.193379604 0.381152211,0.112065917 0.509373923,0.0703706863 C0.572766226,0.0497626987 0.64094888,0.049523071 0.706736358,0.0391392012 L123.339706,0.0391392012 C123.405493,0.049523071 123.473756,0.0497626987 123.537068,0.0703706863 C123.600461,0.0909786739 123.661218,0.121970531 123.71511,0.161189608 C123.82425,0.240506398 123.905446,0.352332687 123.947122,0.480693292 C123.967721,0.544034897 123.96796,0.61232881 123.978419,0.678146568 L123.978419,164.260838 C123.96796,164.326655 123.967721,164.394949 123.947122,164.458291 C123.905446,164.586651 123.82425,164.698478 123.71511,164.777794 C123.661218,164.817014 123.600461,164.848005 123.537068,164.868613 C123.473756,164.889142 123.405493,164.889461 123.339706,164.899845 L0.706736358,164.899845 L0.706736358,164.899845 Z"/>
              <polygon fill="#343434" points="0 0 122.633 0 122.633 163.586 0 163.586" transform="translate(.707 .678)"/>
            </g>
            <g transform="translate(64.031 8.946)">
              <path fill="#E0E0E0" d="M0.706736358,0.832466848 C1.05946582,0.832466848 1.34544974,1.11850252 1.34544974,1.47147421 C1.34544974,1.82436603 1.05946582,2.11048158 0.706736358,2.11048158 C0.353927053,2.11048158 0.0680229753,1.82436603 0.0680229753,1.47147421 C0.0680229753,1.11850252 0.353927053,0.832466848 0.706736358,0.832466848 L0.706736358,0.832466848 Z"/>
              <path fill="#3E3E3E" d="M4.53901666,0.0367429236 C5.24455543,0.0367429236 5.81644342,0.608894145 5.81644342,1.31475766 C5.81644342,2.02062117 5.24455543,2.59277239 4.53901666,2.59277239 C3.83363756,2.59277239 3.26158989,2.02062117 3.26158989,1.31475766 C3.26158989,0.608894145 3.83363756,0.0367429236 4.53901666,0.0367429236 L4.53901666,0.0367429236 Z"/>
            </g>
          </g>
        </g>
        <path fill="#545454" d="M138.988024,195.824606 C138.988024,201.657625 134.61675,205.958864 128.857311,205.958864 L121.392668,205.958864 L17.6584291,205.958864 L10.1988156,205.958864 C4.43937737,205.958864 0.0681826536,201.657625 0.0681826536,195.824606 L0.0681826536,10.1721985 C0.0681826536,4.33909965 4.43937737,0.0380209383 10.1988156,0.0380209383 L128.857391,0.0380209383 C134.616829,0.0380209383 138.988104,4.33909965 138.988104,10.1721985 L138.988104,195.824606 L138.988024,195.824606 Z"/>
        <g transform="translate(.958 .959)">
          <path fill="#343434" d="M137.109408,9.2958798 C137.079628,10.2397736 137.079628,193.831622 137.109408,194.774957 C137.109408,197.230742 136.255928,199.625103 134.455235,201.41648 C132.654702,203.208017 130.26807,204.0559 127.827705,204.0559 L9.28649339,204.0559 C6.84612924,204.0559 4.45949684,203.208017 2.65888397,201.41648 C0.858271109,199.625103 0.00479035037,197.230742 0.00479035037,194.774957 C0.0344905227,193.831143 0.0344905227,10.2392144 0.00479035037,9.2958798 C0.00479035037,6.84017449 0.858271109,4.44581388 2.65888397,2.65435673 C4.45949684,0.862819698 6.84612924,0.0149367972 9.28649339,0.0149367972 L127.827705,0.0149367972 C130.26807,0.0149367972 132.654702,0.862819698 134.455235,2.65435673 C136.255928,4.44581388 137.109408,6.84017449 137.109408,9.2958798 L137.109408,9.2958798 Z"/>
          <path fill="#545454" d="M68.55678,190.13824 C71.2883975,190.13824 73.5108007,192.361586 73.5108007,195.094461 C73.5108007,197.827335 71.2883975,200.050762 68.55678,200.050762 C65.8252424,200.050762 63.6028392,197.827335 63.6028392,195.094461 C63.6028392,192.361586 65.8252424,190.13824 68.55678,190.13824 L68.55678,190.13824 Z M68.55678,189.303536 C65.3600195,189.303536 62.76844,191.896229 62.76844,195.094541 C62.76844,198.292693 65.3600195,200.885545 68.55678,200.885545 C71.7535405,200.885545 74.34512,198.292693 74.34512,195.094541 C74.34512,191.896229 71.7535405,189.303536 68.55678,189.303536 L68.55678,189.303536 L68.55678,189.303536 Z"/>
          <g fill="#343434" transform="translate(6.547 19.49)">
            <path d="M0.706736358,164.899845 C0.64094888,164.889461 0.572766226,164.889142 0.509373923,164.868613 C0.381152211,164.826918 0.26929753,164.745604 0.190017231,164.636414 C0.150896037,164.582498 0.119918438,164.521712 0.0993199311,164.458291 C0.0787214245,164.394949 0.078481907,164.326655 0.0680229753,164.260838 L0.0680229753,0.678146568 C0.078481907,0.61232881 0.0787214245,0.544034897 0.0993199311,0.480693292 C0.119918438,0.417271811 0.150896037,0.356406359 0.190017231,0.302490112 C0.26929753,0.193379604 0.381152211,0.112065917 0.509373923,0.0703706863 C0.572766226,0.0497626987 0.64094888,0.049523071 0.706736358,0.0391392012 L123.339706,0.0391392012 C123.405493,0.049523071 123.473756,0.0497626987 123.537068,0.0703706863 C123.600461,0.0909786739 123.661218,0.121970531 123.71511,0.161189608 C123.82425,0.240506398 123.905446,0.352332687 123.947122,0.480693292 C123.967721,0.544034897 123.96796,0.61232881 123.978419,0.678146568 L123.978419,164.260838 C123.96796,164.326655 123.967721,164.394949 123.947122,164.458291 C123.905446,164.586651 123.82425,164.698478 123.71511,164.777794 C123.661218,164.817014 123.600461,164.848005 123.537068,164.868613 C123.473756,164.889142 123.405493,164.889461 123.339706,164.899845 L0.706736358,164.899845 L0.706736358,164.899845 Z"/>
            <polygon points="0 0 122.633 0 122.633 163.586 0 163.586" transform="translate(.707 .678)"/>
          </g>
          <g transform="translate(64.031 8.946)">
            <path d="M0.706736358,0.832466848 C1.05946582,0.832466848 1.34544974,1.11850252 1.34544974,1.47147421 C1.34544974,1.82436603 1.05946582,2.11048158 0.706736358,2.11048158 C0.353927053,2.11048158 0.0680229753,1.82436603 0.0680229753,1.47147421 C0.0680229753,1.11850252 0.353927053,0.832466848 0.706736358,0.832466848 L0.706736358,0.832466848 Z"/>
            <path fill="#3E3E3E" d="M4.53901666,0.0367429236 C5.24455543,0.0367429236 5.81644342,0.608894145 5.81644342,1.31475766 C5.81644342,2.02062117 5.24455543,2.59277239 4.53901666,2.59277239 C3.83363756,2.59277239 3.26158989,2.02062117 3.26158989,1.31475766 C3.26158989,0.608894145 3.83363756,0.0367429236 4.53901666,0.0367429236 L4.53901666,0.0367429236 Z"/>
          </g>
        </g>
      </g>
    </g>
    <path fill="#222" fill-rule="nonzero" d="M352.341797 372.730469C353.888672 372.730469 355.083984 371.517578 355.083984 370.058594 355.083984 368.599609 353.888672 367.386719 352.341797 367.386719 350.794922 367.386719 349.599609 368.599609 349.599609 370.058594 349.599609 371.517578 350.794922 372.730469 352.341797 372.730469zM354.908203 394L354.908203 375.15625 349.775391 375.15625 349.775391 394 354.908203 394zM364.083984 394L364.083984 386.001953 368.970703 386.001953C374.314453 386.001953 377.882812 382.556641 377.882812 377.335938L377.882812 377.300781C377.882812 372.080078 374.314453 368.634766 368.970703 368.634766L358.775391 368.634766 358.775391 394 364.083984 394zM367.669922 381.853516L364.083984 381.853516 364.083984 372.835938 367.669922 372.835938C370.710938 372.835938 372.503906 374.435547 372.503906 377.318359L372.503906 377.353516C372.503906 380.236328 370.710938 381.853516 367.669922 381.853516zM384.949219 394.298828C387.427734 394.298828 389.431641 393.121094 390.503906 391.1875L390.609375 391.1875 390.609375 394 395.742188 394 395.742188 381.080078C395.742188 377.283203 392.595703 374.769531 387.726562 374.769531 382.751953 374.769531 379.763672 377.265625 379.482422 380.746094L379.464844 380.957031 384.158203 380.957031 384.193359 380.798828C384.439453 379.585938 385.599609 378.689453 387.515625 378.689453 389.519531 378.689453 390.609375 379.726562 390.609375 381.396484L390.609375 382.556641 385.951172 382.837891C381.275391 383.136719 378.621094 385.140625 378.621094 388.568359L378.621094 388.603516C378.621094 391.925781 381.169922 394.298828 384.949219 394.298828zM386.619141 390.554688C384.84375 390.554688 383.701172 389.728516 383.701172 388.339844L383.701172 388.304688C383.701172 386.96875 384.738281 386.125 386.724609 386.001953L390.609375 385.755859 390.609375 387.109375C390.609375 389.078125 388.921875 390.554688 386.619141 390.554688zM406.025391 394.386719C408.75 394.386719 410.824219 393.015625 411.826172 390.783203L411.931641 390.783203 411.931641 394 417.064453 394 417.064453 368.634766 411.931641 368.634766 411.931641 378.425781 411.826172 378.425781C410.806641 376.140625 408.697266 374.769531 406.025391 374.769531 401.279297 374.769531 398.361328 378.425781 398.361328 384.560547L398.361328 384.578125C398.361328 390.695312 401.279297 394.386719 406.025391 394.386719zM407.748047 390.132812C405.181641 390.132812 403.582031 388.005859 403.582031 384.578125L403.582031 384.560547C403.582031 381.115234 405.199219 379.023438 407.748047 379.023438 410.226562 379.023438 411.949219 381.167969 411.949219 384.560547L411.949219 384.578125C411.949219 387.988281 410.244141 390.132812 407.748047 390.132812zM432.005859 394L433.904297 387.847656 442.816406 387.847656 444.714844 394 450.304688 394 441.480469 368.634766 435.240234 368.634766 426.433594 394 432.005859 394zM441.585938 383.875L435.134766 383.875 438.316406 373.556641 438.421875 373.556641 441.585938 383.875zM455.121094 372.730469C456.667969 372.730469 457.863281 371.517578 457.863281 370.058594 457.863281 368.599609 456.667969 367.386719 455.121094 367.386719 453.574219 367.386719 452.378906 368.599609 452.378906 370.058594 452.378906 371.517578 453.574219 372.730469 455.121094 372.730469zM457.6875 394L457.6875 375.15625 452.554688 375.15625 452.554688 394 457.6875 394zM466.248047 394L466.248047 383.382812C466.248047 380.728516 467.724609 379.199219 470.255859 379.199219 470.994141 379.199219 471.697266 379.304688 472.119141 379.480469L472.119141 374.962891C471.732422 374.857422 471.205078 374.769531 470.642578 374.769531 468.410156 374.769531 466.810547 376.087891 466.265625 378.373047L466.160156 378.373047 466.160156 375.15625 461.115234 375.15625 461.115234 394 466.248047 394zM490.892578 394.439453C496.816406 394.439453 500.753906 391.380859 500.753906 386.845703L500.753906 386.810547C500.753906 383.365234 498.292969 381.185547 494.53125 380.833984L494.53125 380.728516C497.501953 380.113281 499.822266 378.056641 499.822266 374.892578L499.822266 374.857422C499.822266 370.867188 496.306641 368.195312 490.839844 368.195312 485.513672 368.195312 481.945312 371.078125 481.59375 375.472656L481.576172 375.683594 486.445312 375.683594 486.462891 375.525391C486.673828 373.556641 488.361328 372.273438 490.839844 372.273438 493.335938 372.273438 494.794922 373.503906 494.794922 375.560547L494.794922 375.595703C494.794922 377.652344 493.072266 379.058594 490.417969 379.058594L487.587891 379.058594 487.587891 382.837891 490.488281 382.837891C493.546875 382.837891 495.357422 384.173828 495.357422 386.599609L495.357422 386.634766C495.357422 388.708984 493.599609 390.167969 490.875 390.167969 488.132812 390.167969 486.339844 388.814453 486.111328 387.003906L486.076172 386.810547 481.013672 386.810547 481.03125 387.039062C481.382812 391.416016 485.144531 394.439453 490.892578 394.439453zM514.025391 400.152344L520.371094 368.634766 515.818359 368.634766 509.455078 400.152344 514.025391 400.152344zM531.814453 372.730469C533.361328 372.730469 534.556641 371.517578 534.556641 370.058594 534.556641 368.599609 533.361328 367.386719 531.814453 367.386719 530.267578 367.386719 529.072266 368.599609 529.072266 370.058594 529.072266 371.517578 530.267578 372.730469 531.814453 372.730469zM534.380859 394L534.380859 375.15625 529.248047 375.15625 529.248047 394 534.380859 394zM543.556641 394L543.556641 386.001953 548.443359 386.001953C553.787109 386.001953 557.355469 382.556641 557.355469 377.335938L557.355469 377.300781C557.355469 372.080078 553.787109 368.634766 548.443359 368.634766L538.248047 368.634766 538.248047 394 543.556641 394zM547.142578 381.853516L543.556641 381.853516 543.556641 372.835938 547.142578 372.835938C550.183594 372.835938 551.976562 374.435547 551.976562 377.318359L551.976562 377.353516C551.976562 380.236328 550.183594 381.853516 547.142578 381.853516zM564.421875 394.298828C566.900391 394.298828 568.904297 393.121094 569.976562 391.1875L570.082031 391.1875 570.082031 394 575.214844 394 575.214844 381.080078C575.214844 377.283203 572.068359 374.769531 567.199219 374.769531 562.224609 374.769531 559.236328 377.265625 558.955078 380.746094L558.9375 380.957031 563.630859 380.957031 563.666016 380.798828C563.912109 379.585938 565.072266 378.689453 566.988281 378.689453 568.992188 378.689453 570.082031 379.726562 570.082031 381.396484L570.082031 382.556641 565.423828 382.837891C560.748047 383.136719 558.09375 385.140625 558.09375 388.568359L558.09375 388.603516C558.09375 391.925781 560.642578 394.298828 564.421875 394.298828zM566.091797 390.554688C564.316406 390.554688 563.173828 389.728516 563.173828 388.339844L563.173828 388.304688C563.173828 386.96875 564.210938 386.125 566.197266 386.001953L570.082031 385.755859 570.082031 387.109375C570.082031 389.078125 568.394531 390.554688 566.091797 390.554688zM585.498047 394.386719C588.222656 394.386719 590.296875 393.015625 591.298828 390.783203L591.404297 390.783203 591.404297 394 596.537109 394 596.537109 368.634766 591.404297 368.634766 591.404297 378.425781 591.298828 378.425781C590.279297 376.140625 588.169922 374.769531 585.498047 374.769531 580.751953 374.769531 577.833984 378.425781 577.833984 384.560547L577.833984 384.578125C577.833984 390.695312 580.751953 394.386719 585.498047 394.386719zM587.220703 390.132812C584.654297 390.132812 583.054688 388.005859 583.054688 384.578125L583.054688 384.560547C583.054688 381.115234 584.671875 379.023438 587.220703 379.023438 589.699219 379.023438 591.421875 381.167969 591.421875 384.560547L591.421875 384.578125C591.421875 387.988281 589.716797 390.132812 587.220703 390.132812zM612.832031 394L612.832031 386.001953 617.71875 386.001953C623.0625 386.001953 626.630859 382.556641 626.630859 377.335938L626.630859 377.300781C626.630859 372.080078 623.0625 368.634766 617.71875 368.634766L607.523438 368.634766 607.523438 394 612.832031 394zM616.417969 381.853516L612.832031 381.853516 612.832031 372.835938 616.417969 372.835938C619.458984 372.835938 621.251953 374.435547 621.251953 377.318359L621.251953 377.353516C621.251953 380.236328 619.458984 381.853516 616.417969 381.853516zM634.453125 394L634.453125 383.382812C634.453125 380.728516 635.929688 379.199219 638.460938 379.199219 639.199219 379.199219 639.902344 379.304688 640.324219 379.480469L640.324219 374.962891C639.9375 374.857422 639.410156 374.769531 638.847656 374.769531 636.615234 374.769531 635.015625 376.087891 634.470703 378.373047L634.365234 378.373047 634.365234 375.15625 629.320312 375.15625 629.320312 394 634.453125 394zM650.449219 394.386719C656.144531 394.386719 659.783203 390.730469 659.783203 384.578125L659.783203 384.542969C659.783203 378.443359 656.074219 374.769531 650.431641 374.769531 644.806641 374.769531 641.115234 378.478516 641.115234 384.542969L641.115234 384.578125C641.115234 390.712891 644.71875 394.386719 650.449219 394.386719zM650.466797 390.361328C647.935547 390.361328 646.335938 388.269531 646.335938 384.578125L646.335938 384.542969C646.335938 380.904297 647.953125 378.794922 650.431641 378.794922 652.927734 378.794922 654.5625 380.904297 654.5625 384.542969L654.5625 384.578125C654.5625 388.251953 652.962891 390.361328 650.466797 390.361328zM681.263672 394L681.263672 368.634766 675.990234 368.634766 669.433594 373.1875 669.433594 377.898438 675.902344 373.503906 676.007812 373.503906 676.007812 394 681.263672 394zM696.960938 394.439453C703.394531 394.439453 707.296875 389.394531 707.296875 381.326172L707.296875 381.291016C707.296875 373.222656 703.394531 368.195312 696.960938 368.195312 690.527344 368.195312 686.625 373.222656 686.625 381.291016L686.625 381.326172C686.625 389.394531 690.527344 394.439453 696.960938 394.439453zM696.960938 390.185547C693.796875 390.185547 691.986328 386.898438 691.986328 381.326172L691.986328 381.291016C691.986328 375.71875 693.796875 372.449219 696.960938 372.449219 700.125 372.449219 701.935547 375.71875 701.935547 381.291016L701.935547 381.326172C701.935547 386.898438 700.125 390.185547 696.960938 390.185547zM712.21875 394.298828C713.800781 394.298828 715.066406 393.033203 715.066406 391.451172 715.066406 389.851562 713.800781 388.603516 712.21875 388.603516 710.619141 388.603516 709.371094 389.851562 709.371094 391.451172 709.371094 393.033203 710.619141 394.298828 712.21875 394.298828zM727.951172 394.439453C733.751953 394.439453 737.759766 390.835938 737.759766 385.527344L737.759766 385.492188C737.759766 380.710938 734.279297 377.248047 729.462891 377.248047 726.896484 377.248047 724.804688 378.285156 723.75 379.990234L723.644531 379.990234 724.259766 372.853516 736.230469 372.853516 736.230469 368.634766 720.041016 368.634766 718.880859 383.523438 723.503906 383.523438C723.802734 382.996094 724.207031 382.503906 724.716797 382.117188 725.578125 381.431641 726.685547 381.044922 727.986328 381.044922 730.728516 381.044922 732.679688 382.925781 732.697266 385.597656L732.697266 385.632812C732.697266 388.339844 730.746094 390.238281 727.96875 390.238281 725.525391 390.238281 723.75 388.761719 723.380859 386.845703L723.345703 386.722656 718.441406 386.722656 718.458984 386.986328C718.775391 391.222656 722.431641 394.439453 727.951172 394.439453zM743.753906 378.355469L746.320312 368.634766 741.46875 368.634766 740.203125 378.355469 743.753906 378.355469zM751.892578 378.355469L754.458984 368.634766 749.607422 368.634766 748.341797 378.355469 751.892578 378.355469zM60.3417969 372.730469C61.8886719 372.730469 63.0839844 371.517578 63.0839844 370.058594 63.0839844 368.599609 61.8886719 367.386719 60.3417969 367.386719 58.7949219 367.386719 57.5996094 368.599609 57.5996094 370.058594 57.5996094 371.517578 58.7949219 372.730469 60.3417969 372.730469zM62.9082031 394L62.9082031 375.15625 57.7753906 375.15625 57.7753906 394 62.9082031 394zM72.0839844 394L72.0839844 386.001953 76.9707031 386.001953C82.3144531 386.001953 85.8828125 382.556641 85.8828125 377.335938L85.8828125 377.300781C85.8828125 372.080078 82.3144531 368.634766 76.9707031 368.634766L66.7753906 368.634766 66.7753906 394 72.0839844 394zM75.6699219 381.853516L72.0839844 381.853516 72.0839844 372.835938 75.6699219 372.835938C78.7109375 372.835938 80.5039062 374.435547 80.5039062 377.318359L80.5039062 377.353516C80.5039062 380.236328 78.7109375 381.853516 75.6699219 381.853516zM92.9492188 394.298828C95.4277344 394.298828 97.4316406 393.121094 98.5039062 391.1875L98.609375 391.1875 98.609375 394 103.742188 394 103.742188 381.080078C103.742188 377.283203 100.595703 374.769531 95.7265625 374.769531 90.7519531 374.769531 87.7636719 377.265625 87.4824219 380.746094L87.4648438 380.957031 92.1582031 380.957031 92.1933594 380.798828C92.4394531 379.585938 93.5996094 378.689453 95.515625 378.689453 97.5195312 378.689453 98.609375 379.726562 98.609375 381.396484L98.609375 382.556641 93.9511719 382.837891C89.2753906 383.136719 86.6210938 385.140625 86.6210938 388.568359L86.6210938 388.603516C86.6210938 391.925781 89.1699219 394.298828 92.9492188 394.298828zM94.6191406 390.554688C92.84375 390.554688 91.7011719 389.728516 91.7011719 388.339844L91.7011719 388.304688C91.7011719 386.96875 92.7382812 386.125 94.7246094 386.001953L98.609375 385.755859 98.609375 387.109375C98.609375 389.078125 96.921875 390.554688 94.6191406 390.554688zM114.025391 394.386719C116.75 394.386719 118.824219 393.015625 119.826172 390.783203L119.931641 390.783203 119.931641 394 125.064453 394 125.064453 368.634766 119.931641 368.634766 119.931641 378.425781 119.826172 378.425781C118.806641 376.140625 116.697266 374.769531 114.025391 374.769531 109.279297 374.769531 106.361328 378.425781 106.361328 384.560547L106.361328 384.578125C106.361328 390.695312 109.279297 394.386719 114.025391 394.386719zM115.748047 390.132812C113.181641 390.132812 111.582031 388.005859 111.582031 384.578125L111.582031 384.560547C111.582031 381.115234 113.199219 379.023438 115.748047 379.023438 118.226562 379.023438 119.949219 381.167969 119.949219 384.560547L119.949219 384.578125C119.949219 387.988281 118.244141 390.132812 115.748047 390.132812zM142.625 394L153.207031 372.90625 153.207031 368.634766 135.066406 368.634766 135.066406 372.853516 147.96875 372.853516 147.96875 372.958984 137.052734 394 142.625 394zM211.341797 12.7304688C212.888672 12.7304688 214.083984 11.5175781 214.083984 10.0585938 214.083984 8.59960938 212.888672 7.38671875 211.341797 7.38671875 209.794922 7.38671875 208.599609 8.59960938 208.599609 10.0585938 208.599609 11.5175781 209.794922 12.7304688 211.341797 12.7304688zM213.908203 34L213.908203 15.15625 208.775391 15.15625 208.775391 34 213.908203 34zM223.083984 34L223.083984 26.0019531 227.970703 26.0019531C233.314453 26.0019531 236.882812 22.5566406 236.882812 17.3359375L236.882812 17.3007812C236.882812 12.0800781 233.314453 8.63476562 227.970703 8.63476562L217.775391 8.63476562 217.775391 34 223.083984 34zM226.669922 21.8535156L223.083984 21.8535156 223.083984 12.8359375 226.669922 12.8359375C229.710938 12.8359375 231.503906 14.4355469 231.503906 17.3183594L231.503906 17.3535156C231.503906 20.2363281 229.710938 21.8535156 226.669922 21.8535156zM243.949219 34.2988281C246.427734 34.2988281 248.431641 33.1210938 249.503906 31.1875L249.609375 31.1875 249.609375 34 254.742188 34 254.742188 21.0800781C254.742188 17.2832031 251.595703 14.7695312 246.726562 14.7695312 241.751953 14.7695312 238.763672 17.265625 238.482422 20.7460938L238.464844 20.9570312 243.158203 20.9570312 243.193359 20.7988281C243.439453 19.5859375 244.599609 18.6894531 246.515625 18.6894531 248.519531 18.6894531 249.609375 19.7265625 249.609375 21.3964844L249.609375 22.5566406 244.951172 22.8378906C240.275391 23.1367188 237.621094 25.140625 237.621094 28.5683594L237.621094 28.6035156C237.621094 31.9257812 240.169922 34.2988281 243.949219 34.2988281zM245.619141 30.5546875C243.84375 30.5546875 242.701172 29.7285156 242.701172 28.3398438L242.701172 28.3046875C242.701172 26.96875 243.738281 26.125 245.724609 26.0019531L249.609375 25.7558594 249.609375 27.109375C249.609375 29.078125 247.921875 30.5546875 245.619141 30.5546875zM265.025391 34.3867188C267.75 34.3867188 269.824219 33.015625 270.826172 30.7832031L270.931641 30.7832031 270.931641 34 276.064453 34 276.064453 8.63476562 270.931641 8.63476562 270.931641 18.4257812 270.826172 18.4257812C269.806641 16.140625 267.697266 14.7695312 265.025391 14.7695312 260.279297 14.7695312 257.361328 18.4257812 257.361328 24.5605469L257.361328 24.578125C257.361328 30.6953125 260.279297 34.3867188 265.025391 34.3867188zM266.748047 30.1328125C264.181641 30.1328125 262.582031 28.0058594 262.582031 24.578125L262.582031 24.5605469C262.582031 21.1152344 264.199219 19.0234375 266.748047 19.0234375 269.226562 19.0234375 270.949219 21.1679688 270.949219 24.5605469L270.949219 24.578125C270.949219 27.9882812 269.244141 30.1328125 266.748047 30.1328125zM291.779297 34L291.779297 16.84375 291.919922 16.84375 298.775391 34 302.115234 34 308.953125 16.84375 309.111328 16.84375 309.111328 34 313.839844 34 313.839844 8.63476562 307.705078 8.63476562 300.498047 26.8632812 300.392578 26.8632812 293.185547 8.63476562 287.050781 8.63476562 287.050781 34 291.779297 34zM320.291016 12.7304688C321.837891 12.7304688 323.033203 11.5175781 323.033203 10.0585938 323.033203 8.59960938 321.837891 7.38671875 320.291016 7.38671875 318.744141 7.38671875 317.548828 8.59960938 317.548828 10.0585938 317.548828 11.5175781 318.744141 12.7304688 320.291016 12.7304688zM322.857422 34L322.857422 15.15625 317.724609 15.15625 317.724609 34 322.857422 34zM331.417969 34L331.417969 23.171875C331.417969 20.7109375 332.876953 19.0234375 335.179688 19.0234375 337.482422 19.0234375 338.642578 20.4296875 338.642578 22.890625L338.642578 34 343.775391 34 343.775391 21.8359375C343.775391 17.4238281 341.419922 14.7695312 337.271484 14.7695312 334.423828 14.7695312 332.490234 16.0878906 331.523438 18.25L331.417969 18.25 331.417969 15.15625 326.285156 15.15625 326.285156 34 331.417969 34zM349.699219 12.7304688C351.246094 12.7304688 352.441406 11.5175781 352.441406 10.0585938 352.441406 8.59960938 351.246094 7.38671875 349.699219 7.38671875 348.152344 7.38671875 346.957031 8.59960938 346.957031 10.0585938 346.957031 11.5175781 348.152344 12.7304688 349.699219 12.7304688zM352.265625 34L352.265625 15.15625 347.132812 15.15625 347.132812 34 352.265625 34zM372.375 34.4394531C378.298828 34.4394531 382.236328 31.3808594 382.236328 26.8457031L382.236328 26.8105469C382.236328 23.3652344 379.775391 21.1855469 376.013672 20.8339844L376.013672 20.7285156C378.984375 20.1132812 381.304688 18.0566406 381.304688 14.8925781L381.304688 14.8574219C381.304688 10.8671875 377.789062 8.1953125 372.322266 8.1953125 366.996094 8.1953125 363.427734 11.078125 363.076172 15.4726562L363.058594 15.6835938 367.927734 15.6835938 367.945312 15.5253906C368.15625 13.5566406 369.84375 12.2734375 372.322266 12.2734375 374.818359 12.2734375 376.277344 13.5039062 376.277344 15.5605469L376.277344 15.5957031C376.277344 17.6523438 374.554688 19.0585938 371.900391 19.0585938L369.070312 19.0585938 369.070312 22.8378906 371.970703 22.8378906C375.029297 22.8378906 376.839844 24.1738281 376.839844 26.5996094L376.839844 26.6347656C376.839844 28.7089844 375.082031 30.1679688 372.357422 30.1679688 369.615234 30.1679688 367.822266 28.8144531 367.59375 27.0039062L367.558594 26.8105469 362.496094 26.8105469 362.513672 27.0390625C362.865234 31.4160156 366.626953 34.4394531 372.375 34.4394531zM388.388672 40.1523438L394.734375 8.63476562 390.181641 8.63476562 383.818359 40.1523438 388.388672 40.1523438zM413.648438 34L413.648438 29.3417969 416.988281 29.3417969 416.988281 25.1054688 413.648438 25.1054688 413.648438 8.63476562 406.160156 8.63476562 395.982422 24.9121094 395.982422 29.3417969 408.603516 29.3417969 408.603516 34 413.648438 34zM408.708984 25.2460938L400.605469 25.2460938 400.605469 25.1054688 408.585938 12.4667969 408.708984 12.4667969 408.708984 25.2460938zM422.595703 40.1523438L428.941406 8.63476562 424.388672 8.63476562 418.025391 40.1523438 422.595703 40.1523438zM440.455078 34.4394531C446.255859 34.4394531 450.263672 30.8359375 450.263672 25.5273438L450.263672 25.4921875C450.263672 20.7109375 446.783203 17.2480469 441.966797 17.2480469 439.400391 17.2480469 437.308594 18.2851562 436.253906 19.9902344L436.148438 19.9902344 436.763672 12.8535156 448.734375 12.8535156 448.734375 8.63476562 432.544922 8.63476562 431.384766 23.5234375 436.007812 23.5234375C436.306641 22.9960938 436.710938 22.5039062 437.220703 22.1171875 438.082031 21.4316406 439.189453 21.0449219 440.490234 21.0449219 443.232422 21.0449219 445.183594 22.9257812 445.201172 25.5976562L445.201172 25.6328125C445.201172 28.3398438 443.25 30.2382812 440.472656 30.2382812 438.029297 30.2382812 436.253906 28.7617188 435.884766 26.8457031L435.849609 26.7226562 430.945312 26.7226562 430.962891 26.9863281C431.279297 31.2226562 434.935547 34.4394531 440.455078 34.4394531zM432.768555 706.730469C434.31543 706.730469 435.510742 705.517578 435.510742 704.058594 435.510742 702.599609 434.31543 701.386719 432.768555 701.386719 431.22168 701.386719 430.026367 702.599609 430.026367 704.058594 430.026367 705.517578 431.22168 706.730469 432.768555 706.730469zM435.334961 728L435.334961 709.15625 430.202148 709.15625 430.202148 728 435.334961 728zM444.510742 728L444.510742 720.001953 449.397461 720.001953C454.741211 720.001953 458.30957 716.556641 458.30957 711.335938L458.30957 711.300781C458.30957 706.080078 454.741211 702.634766 449.397461 702.634766L439.202148 702.634766 439.202148 728 444.510742 728zM448.09668 715.853516L444.510742 715.853516 444.510742 706.835938 448.09668 706.835938C451.137695 706.835938 452.930664 708.435547 452.930664 711.318359L452.930664 711.353516C452.930664 714.236328 451.137695 715.853516 448.09668 715.853516zM465.375977 728.298828C467.854492 728.298828 469.858398 727.121094 470.930664 725.1875L471.036133 725.1875 471.036133 728 476.168945 728 476.168945 715.080078C476.168945 711.283203 473.022461 708.769531 468.15332 708.769531 463.178711 708.769531 460.19043 711.265625 459.90918 714.746094L459.891602 714.957031 464.584961 714.957031 464.620117 714.798828C464.866211 713.585938 466.026367 712.689453 467.942383 712.689453 469.946289 712.689453 471.036133 713.726562 471.036133 715.396484L471.036133 716.556641 466.37793 716.837891C461.702148 717.136719 459.047852 719.140625 459.047852 722.568359L459.047852 722.603516C459.047852 725.925781 461.59668 728.298828 465.375977 728.298828zM467.045898 724.554688C465.270508 724.554688 464.12793 723.728516 464.12793 722.339844L464.12793 722.304688C464.12793 720.96875 465.165039 720.125 467.151367 720.001953L471.036133 719.755859 471.036133 721.109375C471.036133 723.078125 469.348633 724.554688 467.045898 724.554688zM486.452148 728.386719C489.176758 728.386719 491.250977 727.015625 492.25293 724.783203L492.358398 724.783203 492.358398 728 497.491211 728 497.491211 702.634766 492.358398 702.634766 492.358398 712.425781 492.25293 712.425781C491.233398 710.140625 489.124023 708.769531 486.452148 708.769531 481.706055 708.769531 478.788086 712.425781 478.788086 718.560547L478.788086 718.578125C478.788086 724.695312 481.706055 728.386719 486.452148 728.386719zM488.174805 724.132812C485.608398 724.132812 484.008789 722.005859 484.008789 718.578125L484.008789 718.560547C484.008789 715.115234 485.625977 713.023438 488.174805 713.023438 490.65332 713.023438 492.375977 715.167969 492.375977 718.560547L492.375977 718.578125C492.375977 721.988281 490.670898 724.132812 488.174805 724.132812zM513.786133 728L513.786133 720.001953 518.672852 720.001953C524.016602 720.001953 527.584961 716.556641 527.584961 711.335938L527.584961 711.300781C527.584961 706.080078 524.016602 702.634766 518.672852 702.634766L508.477539 702.634766 508.477539 728 513.786133 728zM517.37207 715.853516L513.786133 715.853516 513.786133 706.835938 517.37207 706.835938C520.413086 706.835938 522.206055 708.435547 522.206055 711.318359L522.206055 711.353516C522.206055 714.236328 520.413086 715.853516 517.37207 715.853516zM535.407227 728L535.407227 717.382812C535.407227 714.728516 536.883789 713.199219 539.415039 713.199219 540.15332 713.199219 540.856445 713.304688 541.27832 713.480469L541.27832 708.962891C540.891602 708.857422 540.364258 708.769531 539.801758 708.769531 537.569336 708.769531 535.969727 710.087891 535.424805 712.373047L535.319336 712.373047 535.319336 709.15625 530.274414 709.15625 530.274414 728 535.407227 728zM551.40332 728.386719C557.098633 728.386719 560.737305 724.730469 560.737305 718.578125L560.737305 718.542969C560.737305 712.443359 557.02832 708.769531 551.385742 708.769531 545.760742 708.769531 542.069336 712.478516 542.069336 718.542969L542.069336 718.578125C542.069336 724.712891 545.672852 728.386719 551.40332 728.386719zM551.420898 724.361328C548.889648 724.361328 547.290039 722.269531 547.290039 718.578125L547.290039 718.542969C547.290039 714.904297 548.907227 712.794922 551.385742 712.794922 553.881836 712.794922 555.516602 714.904297 555.516602 718.542969L555.516602 718.578125C555.516602 722.251953 553.916992 724.361328 551.420898 724.361328zM582.217773 728L582.217773 702.634766 576.944336 702.634766 570.387695 707.1875 570.387695 711.898438 576.856445 707.503906 576.961914 707.503906 576.961914 728 582.217773 728zM606.352539 728L606.352539 723.78125 594.838867 723.78125 594.838867 723.570312 600.147461 718.71875C604.524414 714.693359 605.983398 712.689453 605.983398 709.613281L605.983398 709.578125C605.983398 705.253906 602.291992 702.195312 596.930664 702.195312 591.569336 702.195312 587.59668 705.552734 587.59668 710.333984L587.59668 710.474609 592.518555 710.474609 592.536133 710.316406C592.606445 708.03125 594.364258 706.326172 596.96582 706.326172 599.21582 706.326172 600.797852 707.802734 600.81543 709.876953L600.81543 709.912109C600.81543 711.669922 600.129883 712.917969 596.860352 715.976562L587.895508 724.361328 587.895508 728 606.352539 728zM612.15332 728.298828C613.735352 728.298828 615.000977 727.033203 615.000977 725.451172 615.000977 723.851562 613.735352 722.603516 612.15332 722.603516 610.553711 722.603516 609.305664 723.851562 609.305664 725.451172 609.305664 727.033203 610.553711 728.298828 612.15332 728.298828zM627.709961 728.439453C634.319336 728.439453 638.344727 723.429688 638.344727 715.115234L638.344727 715.080078C638.344727 706.484375 633.879883 702.195312 627.745117 702.195312 622.120117 702.195312 617.97168 705.869141 617.97168 711.054688L617.97168 711.089844C617.97168 715.853516 621.329102 719.316406 626.233398 719.316406 629.678711 719.316406 632.157227 717.59375 633.15918 715.238281L633.264648 715.238281C633.282227 720.177734 631.700195 724.220703 627.727539 724.220703 625.635742 724.220703 624.229492 723.183594 623.614258 721.654297L623.543945 721.513672 618.305664 721.513672 618.34082 721.671875C619.114258 725.591797 622.788086 728.439453 627.709961 728.439453zM627.762695 715.396484C625.143555 715.396484 623.157227 713.550781 623.157227 710.914062L623.157227 710.878906C623.157227 708.365234 625.231445 706.414062 627.81543 706.414062 630.43457 706.414062 632.473633 708.382812 632.473633 710.949219L632.473633 710.966797C632.473633 713.550781 630.43457 715.396484 627.762695 715.396484zM644.602539 712.355469L647.168945 702.634766 642.317383 702.634766 641.051758 712.355469 644.602539 712.355469zM652.741211 712.355469L655.307617 702.634766 650.456055 702.634766 649.19043 712.355469 652.741211 712.355469zM4.66503906 706.730469C6.21191406 706.730469 7.40722656 705.517578 7.40722656 704.058594 7.40722656 702.599609 6.21191406 701.386719 4.66503906 701.386719 3.11816406 701.386719 1.92285156 702.599609 1.92285156 704.058594 1.92285156 705.517578 3.11816406 706.730469 4.66503906 706.730469zM7.23144531 728L7.23144531 709.15625 2.09863281 709.15625 2.09863281 728 7.23144531 728zM16.4072266 728L16.4072266 720.001953 21.2939453 720.001953C26.6376953 720.001953 30.2060547 716.556641 30.2060547 711.335938L30.2060547 711.300781C30.2060547 706.080078 26.6376953 702.634766 21.2939453 702.634766L11.0986328 702.634766 11.0986328 728 16.4072266 728zM19.9931641 715.853516L16.4072266 715.853516 16.4072266 706.835938 19.9931641 706.835938C23.0341797 706.835938 24.8271484 708.435547 24.8271484 711.318359L24.8271484 711.353516C24.8271484 714.236328 23.0341797 715.853516 19.9931641 715.853516zM37.2724609 728.298828C39.7509766 728.298828 41.7548828 727.121094 42.8271484 725.1875L42.9326172 725.1875 42.9326172 728 48.0654297 728 48.0654297 715.080078C48.0654297 711.283203 44.9189453 708.769531 40.0498047 708.769531 35.0751953 708.769531 32.0869141 711.265625 31.8056641 714.746094L31.7880859 714.957031 36.4814453 714.957031 36.5166016 714.798828C36.7626953 713.585938 37.9228516 712.689453 39.8388672 712.689453 41.8427734 712.689453 42.9326172 713.726562 42.9326172 715.396484L42.9326172 716.556641 38.2744141 716.837891C33.5986328 717.136719 30.9443359 719.140625 30.9443359 722.568359L30.9443359 722.603516C30.9443359 725.925781 33.4931641 728.298828 37.2724609 728.298828zM38.9423828 724.554688C37.1669922 724.554688 36.0244141 723.728516 36.0244141 722.339844L36.0244141 722.304688C36.0244141 720.96875 37.0615234 720.125 39.0478516 720.001953L42.9326172 719.755859 42.9326172 721.109375C42.9326172 723.078125 41.2451172 724.554688 38.9423828 724.554688zM58.3486328 728.386719C61.0732422 728.386719 63.1474609 727.015625 64.1494141 724.783203L64.2548828 724.783203 64.2548828 728 69.3876953 728 69.3876953 702.634766 64.2548828 702.634766 64.2548828 712.425781 64.1494141 712.425781C63.1298828 710.140625 61.0205078 708.769531 58.3486328 708.769531 53.6025391 708.769531 50.6845703 712.425781 50.6845703 718.560547L50.6845703 718.578125C50.6845703 724.695312 53.6025391 728.386719 58.3486328 728.386719zM60.0712891 724.132812C57.5048828 724.132812 55.9052734 722.005859 55.9052734 718.578125L55.9052734 718.560547C55.9052734 715.115234 57.5224609 713.023438 60.0712891 713.023438 62.5498047 713.023438 64.2724609 715.167969 64.2724609 718.560547L64.2724609 718.578125C64.2724609 721.988281 62.5673828 724.132812 60.0712891 724.132812zM85.6826172 728L85.6826172 720.001953 90.5693359 720.001953C95.9130859 720.001953 99.4814453 716.556641 99.4814453 711.335938L99.4814453 711.300781C99.4814453 706.080078 95.9130859 702.634766 90.5693359 702.634766L80.3740234 702.634766 80.3740234 728 85.6826172 728zM89.2685547 715.853516L85.6826172 715.853516 85.6826172 706.835938 89.2685547 706.835938C92.3095703 706.835938 94.1025391 708.435547 94.1025391 711.318359L94.1025391 711.353516C94.1025391 714.236328 92.3095703 715.853516 89.2685547 715.853516zM107.303711 728L107.303711 717.382812C107.303711 714.728516 108.780273 713.199219 111.311523 713.199219 112.049805 713.199219 112.75293 713.304688 113.174805 713.480469L113.174805 708.962891C112.788086 708.857422 112.260742 708.769531 111.698242 708.769531 109.46582 708.769531 107.866211 710.087891 107.321289 712.373047L107.21582 712.373047 107.21582 709.15625 102.170898 709.15625 102.170898 728 107.303711 728zM123.299805 728.386719C128.995117 728.386719 132.633789 724.730469 132.633789 718.578125L132.633789 718.542969C132.633789 712.443359 128.924805 708.769531 123.282227 708.769531 117.657227 708.769531 113.96582 712.478516 113.96582 718.542969L113.96582 718.578125C113.96582 724.712891 117.569336 728.386719 123.299805 728.386719zM123.317383 724.361328C120.786133 724.361328 119.186523 722.269531 119.186523 718.578125L119.186523 718.542969C119.186523 714.904297 120.803711 712.794922 123.282227 712.794922 125.77832 712.794922 127.413086 714.904297 127.413086 718.542969L127.413086 718.578125C127.413086 722.251953 125.813477 724.361328 123.317383 724.361328zM154.114258 728L154.114258 702.634766 148.84082 702.634766 142.28418 707.1875 142.28418 711.898438 148.75293 707.503906 148.858398 707.503906 148.858398 728 154.114258 728zM171.393555 728L171.393555 702.634766 166.120117 702.634766 159.563477 707.1875 159.563477 711.898438 166.032227 707.503906 166.137695 707.503906 166.137695 728 171.393555 728zM178.706055 712.355469L181.272461 702.634766 176.420898 702.634766 175.155273 712.355469 178.706055 712.355469zM186.844727 712.355469L189.411133 702.634766 184.55957 702.634766 183.293945 712.355469 186.844727 712.355469z" transform="translate(114 30)"/>
  </g>
</svg>
