<svg xmlns="http://www.w3.org/2000/svg" width="888" height="1061" viewBox="0 0 888 1061">
  <g fill="none" fill-rule="evenodd">
    <rect width="888" height="1061" fill="#F4F4F4"/>
    <g transform="translate(57 103)">
      <g transform="translate(447 360)">
        <path fill="#545454" d="M137.317881,209 C141.55745,209 145,205.556423 145,201.315588 L145,7.6844121 C145,3.44325699 141.55745,0 137.317881,0 L7.68211921,0 C3.44222958,0 0,3.44325699 0,7.6844121 L0,201.315588 C0,205.556423 3.44222958,209 7.68211921,209 L137.317881,209 Z"/>
        <path fill="#343434" d="M137.157837,208.039448 C140.911672,208.039448 143.959713,204.990498 143.959713,201.235542 L143.959713,7.84450402 C143.959713,4.08930793 140.911672,1.04059747 137.157837,1.04059747 L7.76214128,1.04059747 C4.00806567,1.04059747 0.960264901,4.08930793 0.960264901,7.84450402 L0.960264901,201.235542 C0.960264901,204.990498 4.00806567,208.039448 7.76214128,208.039448 L137.157837,208.039448 Z"/>
        <g fill="#343434" transform="translate(5.041 14.889)">
          <path d="M134.141004,179.302949 C134.493902,179.302949 134.781181,179.015584 134.781181,178.662581 L134.781181,0.640367675 C134.781181,0.286964764 134.493902,0 134.141004,0 L0.663783113,0 C0.310485651,0 0.0236065121,0.286964764 0.0236065121,0.640367675 L0.0236065121,178.662581 C0.0236065121,179.015584 0.310485651,179.302949 0.663783113,179.302949 L134.141004,179.302949 Z"/>
          <polygon points="133.477 178.022 133.477 0 0 0 0 178.022" transform="translate(.664 .64)"/>
        </g>
        <path fill="#3E3E3E" d="M73.5002759,8.00459594 C73.5002759,8.5789257 73.0341474,9.04519341 72.459989,9.04519341 C71.8858306,9.04519341 71.419702,8.5789257 71.419702,8.00459594 C71.419702,7.43026618 71.8858306,6.96399847 72.459989,6.96399847 C73.0341474,6.96399847 73.5002759,7.43026618 73.5002759,8.00459594 Z"/>
        <path fill="#545454" d="M76.8612031,201.635772 C76.8612031,204.065967 74.8890591,206.0383 72.459989,206.0383 C70.0309189,206.0383 68.0587748,204.065967 68.0587748,201.635772 C68.0587748,199.205576 70.0309189,197.233244 72.459989,197.233244 C74.8890591,197.233244 76.8612031,199.205576 76.8612031,201.635772 Z M76.3810706,201.635772 C76.3810706,203.800214 74.624106,205.558024 72.459989,205.558024 C70.295872,205.558024 68.5389073,203.800214 68.5389073,201.635772 C68.5389073,199.471329 70.295872,197.71352 72.459989,197.71352 C74.624106,197.71352 76.3810706,199.471329 76.3810706,201.635772 Z"/>
        <g transform="translate(180)">
          <path fill="#D5D2CF" d="M137.317881,209 C141.55745,209 145,205.556423 145,201.315588 L145,7.6844121 C145,3.44325699 141.55745,0 137.317881,0 L7.68211921,0 C3.44222958,0 0,3.44325699 0,7.6844121 L0,201.315588 C0,205.556423 3.44222958,209 7.68211921,209 L137.317881,209 Z"/>
          <path fill="#F3F5F7" d="M137.157837,208.039448 C140.911672,208.039448 143.959713,204.990498 143.959713,201.235542 L143.959713,7.84450402 C143.959713,4.08930793 140.911672,1.04059747 137.157837,1.04059747 L7.76214128,1.04059747 C4.00806567,1.04059747 0.960264901,4.08930793 0.960264901,7.84450402 L0.960264901,201.235542 C0.960264901,204.990498 4.00806567,208.039448 7.76214128,208.039448 L137.157837,208.039448 Z"/>
          <g transform="translate(5.041 14.889)">
            <path fill="#3E3E3E" d="M134.141004,179.302949 C134.493902,179.302949 134.781181,179.015584 134.781181,178.662581 L134.781181,0.640367675 C134.781181,0.286964764 134.493902,0 134.141004,0 L0.663783113,0 C0.310485651,0 0.0236065121,0.286964764 0.0236065121,0.640367675 L0.0236065121,178.662581 C0.0236065121,179.015584 0.310485651,179.302949 0.663783113,179.302949 L134.141004,179.302949 Z"/>
            <polygon fill="#343434" points="133.477 178.022 133.477 0 0 0 0 178.022" transform="translate(.664 .64)"/>
          </g>
          <path fill="#3E3E3E" d="M73.5002759,8.00459594 C73.5002759,8.5789257 73.0341474,9.04519341 72.459989,9.04519341 C71.8858306,9.04519341 71.419702,8.5789257 71.419702,8.00459594 C71.419702,7.43026618 71.8858306,6.96399847 72.459989,6.96399847 C73.0341474,6.96399847 73.5002759,7.43026618 73.5002759,8.00459594 Z"/>
          <path fill="#D5D2CF" d="M76.8612031,201.635772 C76.8612031,204.065967 74.8890591,206.0383 72.459989,206.0383 C70.0309189,206.0383 68.0587748,204.065967 68.0587748,201.635772 C68.0587748,199.205576 70.0309189,197.233244 72.459989,197.233244 C74.8890591,197.233244 76.8612031,199.205576 76.8612031,201.635772 Z M76.3810706,201.635772 C76.3810706,203.800214 74.624106,205.558024 72.459989,205.558024 C70.295872,205.558024 68.5389073,203.800214 68.5389073,201.635772 C68.5389073,199.471329 70.295872,197.71352 72.459989,197.71352 C74.624106,197.71352 76.3810706,199.471329 76.3810706,201.635772 Z"/>
        </g>
      </g>
      <g transform="translate(0 360)">
        <g transform="translate(180)">
          <path fill="#D5D2CF" d="M144,8.25104898 C144,3.69716207 140.320055,0 135.787375,0 L8.21262458,0 C3.67994472,0 0,3.69716207 0,8.25104898 L0,200.748951 C0,205.302838 3.67994472,209 8.21262458,209 L135.787375,209 C140.320055,209 144,205.302838 144,200.748951 L144,8.25104898 Z"/>
          <g transform="translate(.877 .881)">
            <path fill="#F3F5F7" d="M142.245847,7.36986896 C142.245847,3.30231652 138.958909,0 134.910299,0 L7.33554817,0 C3.28693794,0 0,3.30231652 0,7.36986896 L0,199.86777 C0,203.935322 3.28693794,207.237639 7.33554817,207.237639 L134.910299,207.237639 C138.958909,207.237639 142.245847,203.935322 142.245847,199.86777 L142.245847,7.36986896 Z"/>
            <ellipse cx="71.123" cy="8.491" fill="#3E3E3E" rx="1.116" ry="1.122"/>
            <path fill="#D5D2CF" d="M71.1229236,195.221541 C73.6312983,195.221541 75.6677741,197.267546 75.6677741,199.787658 C75.6677741,202.30777 73.6312983,204.353775 71.1229236,204.353775 C68.6145488,204.353775 66.5780731,202.30777 66.5780731,199.787658 C66.5780731,197.267546 68.6145488,195.221541 71.1229236,195.221541 Z M71.1229236,195.782292 C73.3232563,195.782292 75.1096346,197.577029 75.1096346,199.787658 C75.1096346,201.998287 73.3232563,203.793024 71.1229236,203.793024 C68.9225908,203.793024 67.1362126,201.998287 67.1362126,199.787658 C67.1362126,197.577029 68.9225908,195.782292 71.1229236,195.782292 Z"/>
          </g>
          <g transform="translate(6.777 17.383)">
            <path fill="#3E3E3E" d="M130.445183,0.640858567 C130.445183,0.287155906 130.159364,0 129.807309,0 L0.637873754,0 C0.285818472,0 0,0.287155906 0,0.640858567 L0,173.672672 C0,174.026374 0.285818472,174.31353 0.637873754,174.31353 L129.807309,174.31353 C130.159364,174.31353 130.445183,174.026374 130.445183,173.672672 L130.445183,0.640858567 Z"/>
            <rect width="129.169" height="173.032" fill="#343434" transform="translate(.638 .64)"/>
          </g>
        </g>
        <path fill="#545454" d="M144,8.25104898 C144,3.69716207 140.320055,0 135.787375,0 L8.21262458,0 C3.67994472,0 0,3.69716207 0,8.25104898 L0,200.748951 C0,205.302838 3.67994472,209 8.21262458,209 L135.787375,209 C140.320055,209 144,205.302838 144,200.748951 L144,8.25104898 Z"/>
        <g transform="translate(.877 .881)">
          <path fill="#343434" d="M142.245847,7.36986896 C142.245847,3.30231652 138.958909,0 134.910299,0 L7.33554817,0 C3.28693794,0 0,3.30231652 0,7.36986896 L0,199.86777 C0,203.935322 3.28693794,207.237639 7.33554817,207.237639 L134.910299,207.237639 C138.958909,207.237639 142.245847,203.935322 142.245847,199.86777 L142.245847,7.36986896 Z"/>
          <ellipse cx="71.123" cy="8.491" fill="#3E3E3E" rx="1.116" ry="1.122"/>
          <path fill="#545454" d="M71.1229236,195.221541 C73.6312983,195.221541 75.6677741,197.267546 75.6677741,199.787658 C75.6677741,202.30777 73.6312983,204.353775 71.1229236,204.353775 C68.6145488,204.353775 66.5780731,202.30777 66.5780731,199.787658 C66.5780731,197.267546 68.6145488,195.221541 71.1229236,195.221541 Z M71.1229236,195.782292 C73.3232563,195.782292 75.1096346,197.577029 75.1096346,199.787658 C75.1096346,201.998287 73.3232563,203.793024 71.1229236,203.793024 C68.9225908,203.793024 67.1362126,201.998287 67.1362126,199.787658 C67.1362126,197.577029 68.9225908,195.782292 71.1229236,195.782292 Z"/>
        </g>
        <g fill="#343434" transform="translate(6.777 17.383)">
          <path d="M130.445183,0.640858567 C130.445183,0.287155906 130.159364,0 129.807309,0 L0.637873754,0 C0.285818472,0 0,0.287155906 0,0.640858567 L0,173.672672 C0,174.026374 0.285818472,174.31353 0.637873754,174.31353 L129.807309,174.31353 C130.159364,174.31353 130.445183,174.026374 130.445183,173.672672 L130.445183,0.640858567 Z"/>
          <rect width="129.169" height="173.032" transform="translate(.638 .64)"/>
        </g>
      </g>
      <g transform="translate(510 694)">
        <path fill="#D5D2CF" d="M178.520536,11.2838577 C178.520536,5.32111518 173.686587,0.480164159 167.732527,0.480164159 L10.7880082,0.480164159 C4.83394827,0.480164159 0,5.32111518 0,11.2838577 L0,223.196306 C0,229.159023 4.83394827,234 10.7880082,234 L167.732527,234 C173.686587,234 178.520536,229.159023 178.520536,223.196306 L178.520536,11.2838577 Z"/>
        <path fill="#3E3E3E" d="M177.721429,11.2038304 C177.721429,5.72696274 173.281385,1.28043776 167.8125,1.28043776 L10.7080357,1.28043776 C5.239151,1.28043776 0.799107143,5.72696274 0.799107143,11.2038304 L0.799107143,223.276334 C0.799107143,228.753201 5.239151,233.199726 10.7080357,233.199726 L167.8125,233.199726 C173.281385,233.199726 177.721429,228.753201 177.721429,223.276334 L177.721429,11.2038304 Z"/>
        <path fill="#D5D2CF" d="M20.3772321 27.5294118L20.3772321 35.8522572 20.6710658 35.8522572C20.7355184 35.8522572 20.9366071 35.7003415 20.9366071 35.6483426L20.9366071 27.723291C20.9366071 27.6683149 20.7256764 27.5294118 20.6760005 27.5294118L20.3772321 27.5294118 20.3772321 27.5294118zM20.3772321 17.4459644L20.3772321 25.7688098 20.6710658 25.7688098C20.7355184 25.7688098 20.9366071 25.6168941 20.9366071 25.5648953L20.9366071 17.6398437C20.9366071 17.5848676 20.7256764 17.4459644 20.6760005 17.4459644L20.3772321 17.4459644 20.3772321 17.4459644zM0 .560191518L9.82901786.560191518 9.82901786.265901532C9.82901786.201382317 9.67735011 0 9.62547052 0L.193530093 0C.138627394 0 0 .211211201 0 .26098709L0 .560191518z" transform="translate(158.063)"/>
        <g fill="#343434" transform="translate(1.279 1.76)">
          <path d="M175.963393,9.44184349 C175.963393,4.23074467 171.738778,0 166.53523,0 L9.4281629,0 C4.22461461,0 0,4.23074467 0,9.44184349 L0,221.517117 C0,226.72819 4.22461461,230.95896 9.4281629,230.95896 L166.53523,230.95896 C171.738778,230.95896 175.963393,226.72819 175.963393,221.517117 L175.963393,9.44184349 Z"/>
          <rect width="163.657" height="218.635" transform="translate(6.153 6.162)"/>
          <path d="M175.963393,9.44184349 C175.963393,4.23074467 171.738778,0 166.53523,0 L9.4281629,0 C4.22461461,0 0,4.23074467 0,9.44184349 L0,221.517117 C0,226.72819 4.22461461,230.95896 9.4281629,230.95896 L166.53523,230.95896 C171.738778,230.95896 175.963393,226.72819 175.963393,221.517117 L175.963393,9.44184349 Z M169.810216,8.88303497 C169.810216,7.38131229 168.592776,6.16210534 167.093229,6.16210534 L8.86995948,6.16210534 C7.37041269,6.16210534 6.15297229,7.38131229 6.15297229,8.88303497 L6.15297229,222.075874 C6.15297229,223.577597 7.37041269,224.796804 8.86995948,224.796804 L167.093229,224.796804 C168.592776,224.796804 169.810216,223.577597 169.810216,222.075874 L169.810216,8.88303497 Z"/>
        </g>
        <g fill="#3E3E3E" transform="translate(88.78 3.921)">
          <ellipse cx=".999" cy="1" rx="1" ry="1"/>
          <ellipse cx="6.553" cy=".88" rx="1" ry="1"/>
        </g>
      </g>
      <g transform="translate(78 708)">
        <path fill="#545454" d="M148.439549,11.3335916 C148.439549,5.38674436 143.596326,0.558698179 137.630844,0.558698179 L10.808705,0.558698179 C4.84322218,0.558698179 0,5.38674436 0,11.3335916 L0,195.225107 C0,201.171928 4.84322218,206 10.808705,206 L137.630844,206 C143.596326,206 148.439549,201.171928 148.439549,195.225107 L148.439549,11.3335916 Z"/>
        <path fill="#3E3E3E" d="M147.638904,11.2537776 C147.638904,5.79151002 143.190316,1.35683843 137.710908,1.35683843 L10.7286405,1.35683843 C5.24923237,1.35683843 0.800644815,5.79151002 0.800644815,11.2537776 L0.800644815,195.304921 C0.800644815,200.767188 5.24923237,205.20186 10.7286405,205.20186 L137.710908,205.20186 C143.190316,205.20186 147.638904,200.767188 147.638904,195.304921 L147.638904,11.2537776 Z"/>
        <path fill="#545454" d="M20.4164428 26.7376986L20.4164428 35.0383572 20.7108418 35.0383572C20.7754184 35.0383572 20.9768941 34.8868465 20.9768941 34.8349863L20.9768941 26.931061C20.9768941 26.8762314 20.7655575 26.7376986 20.715786 26.7376986L20.4164428 26.7376986 20.4164428 26.7376986zM20.4164428 16.6811313L20.4164428 24.98179 20.7108418 24.98179C20.7754184 24.98179 20.9768941 24.8302793 20.9768941 24.778419L20.9768941 16.8744938C20.9768941 16.8196642 20.7655575 16.6811313 20.715786 16.6811313L20.4164428 16.6811313 20.4164428 16.6811313zM0 .558698179L9.84793122.558698179 9.84793122.265192701C9.84793122.200845478 9.69597163 0 9.64399221 0L.193902491 0C.138894146 0 0 .210648162 0 .260291359L0 .558698179z" transform="translate(128.023)"/>
        <g fill="#343434" transform="translate(1.281 1.836)">
          <path d="M145.877485,9.41667346 C145.877485,4.21946637 141.644754,0 136.431239,0 L9.44622032,0 C4.23270586,0 0,4.21946637 0,9.41667346 L0,193.47058 C0,198.667761 4.23270586,202.887253 9.44622032,202.887253 L136.431239,202.887253 C141.644754,202.887253 145.877485,198.667761 145.877485,193.47058 L145.877485,9.41667346 Z"/>
          <rect width="133.548" height="190.596" transform="translate(6.165 6.146)"/>
          <path d="M145.877485,9.41667346 C145.877485,4.21946637 141.644754,0 136.431239,0 L9.44622032,0 C4.23270586,0 0,4.21946637 0,9.41667346 L0,193.47058 C0,198.667761 4.23270586,202.887253 9.44622032,202.887253 L136.431239,202.887253 C141.644754,202.887253 145.877485,198.667761 145.877485,193.47058 L145.877485,9.41667346 Z M139.712523,8.85935461 C139.712523,7.36163522 138.492751,6.14567842 136.990332,6.14567842 L8.88722962,6.14567842 C7.38481081,6.14567842 6.16503869,7.36163522 6.16503869,8.85935461 L6.16503869,194.027847 C6.16503869,195.525567 7.38481081,196.741524 8.88722962,196.741524 L136.990332,196.741524 C138.492751,196.741524 139.712523,195.525567 139.712523,194.027847 L139.712523,8.85935461 Z"/>
        </g>
        <g fill="#3E3E3E" transform="translate(73.42 3.91)">
          <ellipse cx="1.001" cy=".998" rx="1.001" ry="1"/>
          <ellipse cx="6.565" cy=".878" rx="1" ry="1"/>
        </g>
      </g>
      <g transform="translate(230)">
        <g transform="translate(174 1)">
          <path fill="#D5D2CF" d="M138.988024,195.824606 C138.988024,201.657625 134.61675,205.958864 128.857311,205.958864 L121.392668,205.958864 L17.6584291,205.958864 L10.1988156,205.958864 C4.43937737,205.958864 0.0681826536,201.657625 0.0681826536,195.824606 L0.0681826536,10.1721985 C0.0681826536,4.33909965 4.43937737,0.0380209383 10.1988156,0.0380209383 L128.857391,0.0380209383 C134.616829,0.0380209383 138.988104,4.33909965 138.988104,10.1721985 L138.988104,195.824606 L138.988024,195.824606 Z"/>
          <g transform="translate(.958 .959)">
            <path fill="#F3F5F7" d="M137.109408,9.2958798 C137.079628,10.2397736 137.079628,193.831622 137.109408,194.774957 C137.109408,197.230742 136.255928,199.625103 134.455235,201.41648 C132.654702,203.208017 130.26807,204.0559 127.827705,204.0559 L9.28649339,204.0559 C6.84612924,204.0559 4.45949684,203.208017 2.65888397,201.41648 C0.858271109,199.625103 0.00479035037,197.230742 0.00479035037,194.774957 C0.0344905227,193.831143 0.0344905227,10.2392144 0.00479035037,9.2958798 C0.00479035037,6.84017449 0.858271109,4.44581388 2.65888397,2.65435673 C4.45949684,0.862819698 6.84612924,0.0149367972 9.28649339,0.0149367972 L127.827705,0.0149367972 C130.26807,0.0149367972 132.654702,0.862819698 134.455235,2.65435673 C136.255928,4.44581388 137.109408,6.84017449 137.109408,9.2958798 L137.109408,9.2958798 Z"/>
            <path fill="#D5D2CF" d="M68.55678,190.13824 C71.2883975,190.13824 73.5108007,192.361586 73.5108007,195.094461 C73.5108007,197.827335 71.2883975,200.050762 68.55678,200.050762 C65.8252424,200.050762 63.6028392,197.827335 63.6028392,195.094461 C63.6028392,192.361586 65.8252424,190.13824 68.55678,190.13824 L68.55678,190.13824 Z M68.55678,189.303536 C65.3600195,189.303536 62.76844,191.896229 62.76844,195.094541 C62.76844,198.292693 65.3600195,200.885545 68.55678,200.885545 C71.7535405,200.885545 74.34512,198.292693 74.34512,195.094541 C74.34512,191.896229 71.7535405,189.303536 68.55678,189.303536 L68.55678,189.303536 L68.55678,189.303536 Z"/>
            <g transform="translate(6.547 19.49)">
              <path fill="#3E3E3E" d="M0.706736358,164.899845 C0.64094888,164.889461 0.572766226,164.889142 0.509373923,164.868613 C0.381152211,164.826918 0.26929753,164.745604 0.190017231,164.636414 C0.150896037,164.582498 0.119918438,164.521712 0.0993199311,164.458291 C0.0787214245,164.394949 0.078481907,164.326655 0.0680229753,164.260838 L0.0680229753,0.678146568 C0.078481907,0.61232881 0.0787214245,0.544034897 0.0993199311,0.480693292 C0.119918438,0.417271811 0.150896037,0.356406359 0.190017231,0.302490112 C0.26929753,0.193379604 0.381152211,0.112065917 0.509373923,0.0703706863 C0.572766226,0.0497626987 0.64094888,0.049523071 0.706736358,0.0391392012 L123.339706,0.0391392012 C123.405493,0.049523071 123.473756,0.0497626987 123.537068,0.0703706863 C123.600461,0.0909786739 123.661218,0.121970531 123.71511,0.161189608 C123.82425,0.240506398 123.905446,0.352332687 123.947122,0.480693292 C123.967721,0.544034897 123.96796,0.61232881 123.978419,0.678146568 L123.978419,164.260838 C123.96796,164.326655 123.967721,164.394949 123.947122,164.458291 C123.905446,164.586651 123.82425,164.698478 123.71511,164.777794 C123.661218,164.817014 123.600461,164.848005 123.537068,164.868613 C123.473756,164.889142 123.405493,164.889461 123.339706,164.899845 L0.706736358,164.899845 L0.706736358,164.899845 Z"/>
              <polygon fill="#343434" points="0 0 122.633 0 122.633 163.586 0 163.586" transform="translate(.707 .678)"/>
            </g>
            <g transform="translate(64.031 8.946)">
              <path fill="#E0E0E0" d="M0.706736358,0.832466848 C1.05946582,0.832466848 1.34544974,1.11850252 1.34544974,1.47147421 C1.34544974,1.82436603 1.05946582,2.11048158 0.706736358,2.11048158 C0.353927053,2.11048158 0.0680229753,1.82436603 0.0680229753,1.47147421 C0.0680229753,1.11850252 0.353927053,0.832466848 0.706736358,0.832466848 L0.706736358,0.832466848 Z"/>
              <path fill="#3E3E3E" d="M4.53901666,0.0367429236 C5.24455543,0.0367429236 5.81644342,0.608894145 5.81644342,1.31475766 C5.81644342,2.02062117 5.24455543,2.59277239 4.53901666,2.59277239 C3.83363756,2.59277239 3.26158989,2.02062117 3.26158989,1.31475766 C3.26158989,0.608894145 3.83363756,0.0367429236 4.53901666,0.0367429236 L4.53901666,0.0367429236 Z"/>
            </g>
          </g>
        </g>
        <path fill="#545454" d="M138.988024,195.824606 C138.988024,201.657625 134.61675,205.958864 128.857311,205.958864 L121.392668,205.958864 L17.6584291,205.958864 L10.1988156,205.958864 C4.43937737,205.958864 0.0681826536,201.657625 0.0681826536,195.824606 L0.0681826536,10.1721985 C0.0681826536,4.33909965 4.43937737,0.0380209383 10.1988156,0.0380209383 L128.857391,0.0380209383 C134.616829,0.0380209383 138.988104,4.33909965 138.988104,10.1721985 L138.988104,195.824606 L138.988024,195.824606 Z"/>
        <g transform="translate(.958 .959)">
          <path fill="#343434" d="M137.109408,9.2958798 C137.079628,10.2397736 137.079628,193.831622 137.109408,194.774957 C137.109408,197.230742 136.255928,199.625103 134.455235,201.41648 C132.654702,203.208017 130.26807,204.0559 127.827705,204.0559 L9.28649339,204.0559 C6.84612924,204.0559 4.45949684,203.208017 2.65888397,201.41648 C0.858271109,199.625103 0.00479035037,197.230742 0.00479035037,194.774957 C0.0344905227,193.831143 0.0344905227,10.2392144 0.00479035037,9.2958798 C0.00479035037,6.84017449 0.858271109,4.44581388 2.65888397,2.65435673 C4.45949684,0.862819698 6.84612924,0.0149367972 9.28649339,0.0149367972 L127.827705,0.0149367972 C130.26807,0.0149367972 132.654702,0.862819698 134.455235,2.65435673 C136.255928,4.44581388 137.109408,6.84017449 137.109408,9.2958798 L137.109408,9.2958798 Z"/>
          <path fill="#545454" d="M68.55678,190.13824 C71.2883975,190.13824 73.5108007,192.361586 73.5108007,195.094461 C73.5108007,197.827335 71.2883975,200.050762 68.55678,200.050762 C65.8252424,200.050762 63.6028392,197.827335 63.6028392,195.094461 C63.6028392,192.361586 65.8252424,190.13824 68.55678,190.13824 L68.55678,190.13824 Z M68.55678,189.303536 C65.3600195,189.303536 62.76844,191.896229 62.76844,195.094541 C62.76844,198.292693 65.3600195,200.885545 68.55678,200.885545 C71.7535405,200.885545 74.34512,198.292693 74.34512,195.094541 C74.34512,191.896229 71.7535405,189.303536 68.55678,189.303536 L68.55678,189.303536 L68.55678,189.303536 Z"/>
          <g fill="#343434" transform="translate(6.547 19.49)">
            <path d="M0.706736358,164.899845 C0.64094888,164.889461 0.572766226,164.889142 0.509373923,164.868613 C0.381152211,164.826918 0.26929753,164.745604 0.190017231,164.636414 C0.150896037,164.582498 0.119918438,164.521712 0.0993199311,164.458291 C0.0787214245,164.394949 0.078481907,164.326655 0.0680229753,164.260838 L0.0680229753,0.678146568 C0.078481907,0.61232881 0.0787214245,0.544034897 0.0993199311,0.480693292 C0.119918438,0.417271811 0.150896037,0.356406359 0.190017231,0.302490112 C0.26929753,0.193379604 0.381152211,0.112065917 0.509373923,0.0703706863 C0.572766226,0.0497626987 0.64094888,0.049523071 0.706736358,0.0391392012 L123.339706,0.0391392012 C123.405493,0.049523071 123.473756,0.0497626987 123.537068,0.0703706863 C123.600461,0.0909786739 123.661218,0.121970531 123.71511,0.161189608 C123.82425,0.240506398 123.905446,0.352332687 123.947122,0.480693292 C123.967721,0.544034897 123.96796,0.61232881 123.978419,0.678146568 L123.978419,164.260838 C123.96796,164.326655 123.967721,164.394949 123.947122,164.458291 C123.905446,164.586651 123.82425,164.698478 123.71511,164.777794 C123.661218,164.817014 123.600461,164.848005 123.537068,164.868613 C123.473756,164.889142 123.405493,164.889461 123.339706,164.899845 L0.706736358,164.899845 L0.706736358,164.899845 Z"/>
            <polygon points="0 0 122.633 0 122.633 163.586 0 163.586" transform="translate(.707 .678)"/>
          </g>
          <g transform="translate(64.031 8.946)">
            <path d="M0.706736358,0.832466848 C1.05946582,0.832466848 1.34544974,1.11850252 1.34544974,1.47147421 C1.34544974,1.82436603 1.05946582,2.11048158 0.706736358,2.11048158 C0.353927053,2.11048158 0.0680229753,1.82436603 0.0680229753,1.47147421 C0.0680229753,1.11850252 0.353927053,0.832466848 0.706736358,0.832466848 L0.706736358,0.832466848 Z"/>
            <path fill="#3E3E3E" d="M4.53901666,0.0367429236 C5.24455543,0.0367429236 5.81644342,0.608894145 5.81644342,1.31475766 C5.81644342,2.02062117 5.24455543,2.59277239 4.53901666,2.59277239 C3.83363756,2.59277239 3.26158989,2.02062117 3.26158989,1.31475766 C3.26158989,0.608894145 3.83363756,0.0367429236 4.53901666,0.0367429236 L4.53901666,0.0367429236 Z"/>
          </g>
        </g>
      </g>
    </g>
    <path fill="#222" fill-rule="nonzero" d="M437.341797 365.730469C438.888672 365.730469 440.083984 364.517578 440.083984 363.058594 440.083984 361.599609 438.888672 360.386719 437.341797 360.386719 435.794922 360.386719 434.599609 361.599609 434.599609 363.058594 434.599609 364.517578 435.794922 365.730469 437.341797 365.730469zM439.908203 387L439.908203 368.15625 434.775391 368.15625 434.775391 387 439.908203 387zM449.083984 387L449.083984 379.001953 453.970703 379.001953C459.314453 379.001953 462.882812 375.556641 462.882812 370.335938L462.882812 370.300781C462.882812 365.080078 459.314453 361.634766 453.970703 361.634766L443.775391 361.634766 443.775391 387 449.083984 387zM452.669922 374.853516L449.083984 374.853516 449.083984 365.835938 452.669922 365.835938C455.710938 365.835938 457.503906 367.435547 457.503906 370.318359L457.503906 370.353516C457.503906 373.236328 455.710938 374.853516 452.669922 374.853516zM469.949219 387.298828C472.427734 387.298828 474.431641 386.121094 475.503906 384.1875L475.609375 384.1875 475.609375 387 480.742188 387 480.742188 374.080078C480.742188 370.283203 477.595703 367.769531 472.726562 367.769531 467.751953 367.769531 464.763672 370.265625 464.482422 373.746094L464.464844 373.957031 469.158203 373.957031 469.193359 373.798828C469.439453 372.585938 470.599609 371.689453 472.515625 371.689453 474.519531 371.689453 475.609375 372.726562 475.609375 374.396484L475.609375 375.556641 470.951172 375.837891C466.275391 376.136719 463.621094 378.140625 463.621094 381.568359L463.621094 381.603516C463.621094 384.925781 466.169922 387.298828 469.949219 387.298828zM471.619141 383.554688C469.84375 383.554688 468.701172 382.728516 468.701172 381.339844L468.701172 381.304688C468.701172 379.96875 469.738281 379.125 471.724609 379.001953L475.609375 378.755859 475.609375 380.109375C475.609375 382.078125 473.921875 383.554688 471.619141 383.554688zM491.025391 387.386719C493.75 387.386719 495.824219 386.015625 496.826172 383.783203L496.931641 383.783203 496.931641 387 502.064453 387 502.064453 361.634766 496.931641 361.634766 496.931641 371.425781 496.826172 371.425781C495.806641 369.140625 493.697266 367.769531 491.025391 367.769531 486.279297 367.769531 483.361328 371.425781 483.361328 377.560547L483.361328 377.578125C483.361328 383.695312 486.279297 387.386719 491.025391 387.386719zM492.748047 383.132812C490.181641 383.132812 488.582031 381.005859 488.582031 377.578125L488.582031 377.560547C488.582031 374.115234 490.199219 372.023438 492.748047 372.023438 495.226562 372.023438 496.949219 374.167969 496.949219 377.560547L496.949219 377.578125C496.949219 380.988281 495.244141 383.132812 492.748047 383.132812zM517.005859 387L518.904297 380.847656 527.816406 380.847656 529.714844 387 535.304688 387 526.480469 361.634766 520.240234 361.634766 511.433594 387 517.005859 387zM526.585938 376.875L520.134766 376.875 523.316406 366.556641 523.421875 366.556641 526.585938 376.875zM540.121094 365.730469C541.667969 365.730469 542.863281 364.517578 542.863281 363.058594 542.863281 361.599609 541.667969 360.386719 540.121094 360.386719 538.574219 360.386719 537.378906 361.599609 537.378906 363.058594 537.378906 364.517578 538.574219 365.730469 540.121094 365.730469zM542.6875 387L542.6875 368.15625 537.554688 368.15625 537.554688 387 542.6875 387zM551.248047 387L551.248047 376.382812C551.248047 373.728516 552.724609 372.199219 555.255859 372.199219 555.994141 372.199219 556.697266 372.304688 557.119141 372.480469L557.119141 367.962891C556.732422 367.857422 556.205078 367.769531 555.642578 367.769531 553.410156 367.769531 551.810547 369.087891 551.265625 371.373047L551.160156 371.373047 551.160156 368.15625 546.115234 368.15625 546.115234 387 551.248047 387zM575.892578 387.439453C581.816406 387.439453 585.753906 384.380859 585.753906 379.845703L585.753906 379.810547C585.753906 376.365234 583.292969 374.185547 579.53125 373.833984L579.53125 373.728516C582.501953 373.113281 584.822266 371.056641 584.822266 367.892578L584.822266 367.857422C584.822266 363.867188 581.306641 361.195312 575.839844 361.195312 570.513672 361.195312 566.945312 364.078125 566.59375 368.472656L566.576172 368.683594 571.445312 368.683594 571.462891 368.525391C571.673828 366.556641 573.361328 365.273438 575.839844 365.273438 578.335938 365.273438 579.794922 366.503906 579.794922 368.560547L579.794922 368.595703C579.794922 370.652344 578.072266 372.058594 575.417969 372.058594L572.587891 372.058594 572.587891 375.837891 575.488281 375.837891C578.546875 375.837891 580.357422 377.173828 580.357422 379.599609L580.357422 379.634766C580.357422 381.708984 578.599609 383.167969 575.875 383.167969 573.132812 383.167969 571.339844 381.814453 571.111328 380.003906L571.076172 379.810547 566.013672 379.810547 566.03125 380.039062C566.382812 384.416016 570.144531 387.439453 575.892578 387.439453zM599.025391 393.152344L605.371094 361.634766 600.818359 361.634766 594.455078 393.152344 599.025391 393.152344zM616.814453 365.730469C618.361328 365.730469 619.556641 364.517578 619.556641 363.058594 619.556641 361.599609 618.361328 360.386719 616.814453 360.386719 615.267578 360.386719 614.072266 361.599609 614.072266 363.058594 614.072266 364.517578 615.267578 365.730469 616.814453 365.730469zM619.380859 387L619.380859 368.15625 614.248047 368.15625 614.248047 387 619.380859 387zM628.556641 387L628.556641 379.001953 633.443359 379.001953C638.787109 379.001953 642.355469 375.556641 642.355469 370.335938L642.355469 370.300781C642.355469 365.080078 638.787109 361.634766 633.443359 361.634766L623.248047 361.634766 623.248047 387 628.556641 387zM632.142578 374.853516L628.556641 374.853516 628.556641 365.835938 632.142578 365.835938C635.183594 365.835938 636.976562 367.435547 636.976562 370.318359L636.976562 370.353516C636.976562 373.236328 635.183594 374.853516 632.142578 374.853516zM649.421875 387.298828C651.900391 387.298828 653.904297 386.121094 654.976562 384.1875L655.082031 384.1875 655.082031 387 660.214844 387 660.214844 374.080078C660.214844 370.283203 657.068359 367.769531 652.199219 367.769531 647.224609 367.769531 644.236328 370.265625 643.955078 373.746094L643.9375 373.957031 648.630859 373.957031 648.666016 373.798828C648.912109 372.585938 650.072266 371.689453 651.988281 371.689453 653.992188 371.689453 655.082031 372.726562 655.082031 374.396484L655.082031 375.556641 650.423828 375.837891C645.748047 376.136719 643.09375 378.140625 643.09375 381.568359L643.09375 381.603516C643.09375 384.925781 645.642578 387.298828 649.421875 387.298828zM651.091797 383.554688C649.316406 383.554688 648.173828 382.728516 648.173828 381.339844L648.173828 381.304688C648.173828 379.96875 649.210938 379.125 651.197266 379.001953L655.082031 378.755859 655.082031 380.109375C655.082031 382.078125 653.394531 383.554688 651.091797 383.554688zM670.498047 387.386719C673.222656 387.386719 675.296875 386.015625 676.298828 383.783203L676.404297 383.783203 676.404297 387 681.537109 387 681.537109 361.634766 676.404297 361.634766 676.404297 371.425781 676.298828 371.425781C675.279297 369.140625 673.169922 367.769531 670.498047 367.769531 665.751953 367.769531 662.833984 371.425781 662.833984 377.560547L662.833984 377.578125C662.833984 383.695312 665.751953 387.386719 670.498047 387.386719zM672.220703 383.132812C669.654297 383.132812 668.054688 381.005859 668.054688 377.578125L668.054688 377.560547C668.054688 374.115234 669.671875 372.023438 672.220703 372.023438 674.699219 372.023438 676.421875 374.167969 676.421875 377.560547L676.421875 377.578125C676.421875 380.988281 674.716797 383.132812 672.220703 383.132812zM697.832031 387L697.832031 379.001953 702.71875 379.001953C708.0625 379.001953 711.630859 375.556641 711.630859 370.335938L711.630859 370.300781C711.630859 365.080078 708.0625 361.634766 702.71875 361.634766L692.523438 361.634766 692.523438 387 697.832031 387zM701.417969 374.853516L697.832031 374.853516 697.832031 365.835938 701.417969 365.835938C704.458984 365.835938 706.251953 367.435547 706.251953 370.318359L706.251953 370.353516C706.251953 373.236328 704.458984 374.853516 701.417969 374.853516zM719.453125 387L719.453125 376.382812C719.453125 373.728516 720.929688 372.199219 723.460938 372.199219 724.199219 372.199219 724.902344 372.304688 725.324219 372.480469L725.324219 367.962891C724.9375 367.857422 724.410156 367.769531 723.847656 367.769531 721.615234 367.769531 720.015625 369.087891 719.470703 371.373047L719.365234 371.373047 719.365234 368.15625 714.320312 368.15625 714.320312 387 719.453125 387zM735.449219 387.386719C741.144531 387.386719 744.783203 383.730469 744.783203 377.578125L744.783203 377.542969C744.783203 371.443359 741.074219 367.769531 735.431641 367.769531 729.806641 367.769531 726.115234 371.478516 726.115234 377.542969L726.115234 377.578125C726.115234 383.712891 729.71875 387.386719 735.449219 387.386719zM735.466797 383.361328C732.935547 383.361328 731.335938 381.269531 731.335938 377.578125L731.335938 377.542969C731.335938 373.904297 732.953125 371.794922 735.431641 371.794922 737.927734 371.794922 739.5625 373.904297 739.5625 377.542969L739.5625 377.578125C739.5625 381.251953 737.962891 383.361328 735.466797 383.361328zM766.263672 387L766.263672 361.634766 760.990234 361.634766 754.433594 366.1875 754.433594 370.898438 760.902344 366.503906 761.007812 366.503906 761.007812 387 766.263672 387zM781.960938 387.439453C788.394531 387.439453 792.296875 382.394531 792.296875 374.326172L792.296875 374.291016C792.296875 366.222656 788.394531 361.195312 781.960938 361.195312 775.527344 361.195312 771.625 366.222656 771.625 374.291016L771.625 374.326172C771.625 382.394531 775.527344 387.439453 781.960938 387.439453zM781.960938 383.185547C778.796875 383.185547 776.986328 379.898438 776.986328 374.326172L776.986328 374.291016C776.986328 368.71875 778.796875 365.449219 781.960938 365.449219 785.125 365.449219 786.935547 368.71875 786.935547 374.291016L786.935547 374.326172C786.935547 379.898438 785.125 383.185547 781.960938 383.185547zM797.21875 387.298828C798.800781 387.298828 800.066406 386.033203 800.066406 384.451172 800.066406 382.851562 798.800781 381.603516 797.21875 381.603516 795.619141 381.603516 794.371094 382.851562 794.371094 384.451172 794.371094 386.033203 795.619141 387.298828 797.21875 387.298828zM812.951172 387.439453C818.751953 387.439453 822.759766 383.835938 822.759766 378.527344L822.759766 378.492188C822.759766 373.710938 819.279297 370.248047 814.462891 370.248047 811.896484 370.248047 809.804688 371.285156 808.75 372.990234L808.644531 372.990234 809.259766 365.853516 821.230469 365.853516 821.230469 361.634766 805.041016 361.634766 803.880859 376.523438 808.503906 376.523438C808.802734 375.996094 809.207031 375.503906 809.716797 375.117188 810.578125 374.431641 811.685547 374.044922 812.986328 374.044922 815.728516 374.044922 817.679688 375.925781 817.697266 378.597656L817.697266 378.632812C817.697266 381.339844 815.746094 383.238281 812.96875 383.238281 810.525391 383.238281 808.75 381.761719 808.380859 379.845703L808.345703 379.722656 803.441406 379.722656 803.458984 379.986328C803.775391 384.222656 807.431641 387.439453 812.951172 387.439453zM828.753906 371.355469L831.320312 361.634766 826.46875 361.634766 825.203125 371.355469 828.753906 371.355469zM836.892578 371.355469L839.458984 361.634766 834.607422 361.634766 833.341797 371.355469 836.892578 371.355469zM145.341797 365.730469C146.888672 365.730469 148.083984 364.517578 148.083984 363.058594 148.083984 361.599609 146.888672 360.386719 145.341797 360.386719 143.794922 360.386719 142.599609 361.599609 142.599609 363.058594 142.599609 364.517578 143.794922 365.730469 145.341797 365.730469zM147.908203 387L147.908203 368.15625 142.775391 368.15625 142.775391 387 147.908203 387zM157.083984 387L157.083984 379.001953 161.970703 379.001953C167.314453 379.001953 170.882812 375.556641 170.882812 370.335938L170.882812 370.300781C170.882812 365.080078 167.314453 361.634766 161.970703 361.634766L151.775391 361.634766 151.775391 387 157.083984 387zM160.669922 374.853516L157.083984 374.853516 157.083984 365.835938 160.669922 365.835938C163.710938 365.835938 165.503906 367.435547 165.503906 370.318359L165.503906 370.353516C165.503906 373.236328 163.710938 374.853516 160.669922 374.853516zM177.949219 387.298828C180.427734 387.298828 182.431641 386.121094 183.503906 384.1875L183.609375 384.1875 183.609375 387 188.742188 387 188.742188 374.080078C188.742188 370.283203 185.595703 367.769531 180.726562 367.769531 175.751953 367.769531 172.763672 370.265625 172.482422 373.746094L172.464844 373.957031 177.158203 373.957031 177.193359 373.798828C177.439453 372.585938 178.599609 371.689453 180.515625 371.689453 182.519531 371.689453 183.609375 372.726562 183.609375 374.396484L183.609375 375.556641 178.951172 375.837891C174.275391 376.136719 171.621094 378.140625 171.621094 381.568359L171.621094 381.603516C171.621094 384.925781 174.169922 387.298828 177.949219 387.298828zM179.619141 383.554688C177.84375 383.554688 176.701172 382.728516 176.701172 381.339844L176.701172 381.304688C176.701172 379.96875 177.738281 379.125 179.724609 379.001953L183.609375 378.755859 183.609375 380.109375C183.609375 382.078125 181.921875 383.554688 179.619141 383.554688zM199.025391 387.386719C201.75 387.386719 203.824219 386.015625 204.826172 383.783203L204.931641 383.783203 204.931641 387 210.064453 387 210.064453 361.634766 204.931641 361.634766 204.931641 371.425781 204.826172 371.425781C203.806641 369.140625 201.697266 367.769531 199.025391 367.769531 194.279297 367.769531 191.361328 371.425781 191.361328 377.560547L191.361328 377.578125C191.361328 383.695312 194.279297 387.386719 199.025391 387.386719zM200.748047 383.132812C198.181641 383.132812 196.582031 381.005859 196.582031 377.578125L196.582031 377.560547C196.582031 374.115234 198.199219 372.023438 200.748047 372.023438 203.226562 372.023438 204.949219 374.167969 204.949219 377.560547L204.949219 377.578125C204.949219 380.988281 203.244141 383.132812 200.748047 383.132812zM227.625 387L238.207031 365.90625 238.207031 361.634766 220.066406 361.634766 220.066406 365.853516 232.96875 365.853516 232.96875 365.958984 222.052734 387 227.625 387zM296.341797 5.73046875C297.888672 5.73046875 299.083984 4.51757812 299.083984 3.05859375 299.083984 1.59960938 297.888672.38671875 296.341797.38671875 294.794922.38671875 293.599609 1.59960938 293.599609 3.05859375 293.599609 4.51757812 294.794922 5.73046875 296.341797 5.73046875zM298.908203 27L298.908203 8.15625 293.775391 8.15625 293.775391 27 298.908203 27zM308.083984 27L308.083984 19.0019531 312.970703 19.0019531C318.314453 19.0019531 321.882812 15.5566406 321.882812 10.3359375L321.882812 10.3007812C321.882812 5.08007812 318.314453 1.63476562 312.970703 1.63476562L302.775391 1.63476562 302.775391 27 308.083984 27zM311.669922 14.8535156L308.083984 14.8535156 308.083984 5.8359375 311.669922 5.8359375C314.710938 5.8359375 316.503906 7.43554688 316.503906 10.3183594L316.503906 10.3535156C316.503906 13.2363281 314.710938 14.8535156 311.669922 14.8535156zM328.949219 27.2988281C331.427734 27.2988281 333.431641 26.1210938 334.503906 24.1875L334.609375 24.1875 334.609375 27 339.742188 27 339.742188 14.0800781C339.742188 10.2832031 336.595703 7.76953125 331.726562 7.76953125 326.751953 7.76953125 323.763672 10.265625 323.482422 13.7460938L323.464844 13.9570312 328.158203 13.9570312 328.193359 13.7988281C328.439453 12.5859375 329.599609 11.6894531 331.515625 11.6894531 333.519531 11.6894531 334.609375 12.7265625 334.609375 14.3964844L334.609375 15.5566406 329.951172 15.8378906C325.275391 16.1367188 322.621094 18.140625 322.621094 21.5683594L322.621094 21.6035156C322.621094 24.9257812 325.169922 27.2988281 328.949219 27.2988281zM330.619141 23.5546875C328.84375 23.5546875 327.701172 22.7285156 327.701172 21.3398438L327.701172 21.3046875C327.701172 19.96875 328.738281 19.125 330.724609 19.0019531L334.609375 18.7558594 334.609375 20.109375C334.609375 22.078125 332.921875 23.5546875 330.619141 23.5546875zM350.025391 27.3867188C352.75 27.3867188 354.824219 26.015625 355.826172 23.7832031L355.931641 23.7832031 355.931641 27 361.064453 27 361.064453 1.63476562 355.931641 1.63476562 355.931641 11.4257812 355.826172 11.4257812C354.806641 9.140625 352.697266 7.76953125 350.025391 7.76953125 345.279297 7.76953125 342.361328 11.4257812 342.361328 17.5605469L342.361328 17.578125C342.361328 23.6953125 345.279297 27.3867188 350.025391 27.3867188zM351.748047 23.1328125C349.181641 23.1328125 347.582031 21.0058594 347.582031 17.578125L347.582031 17.5605469C347.582031 14.1152344 349.199219 12.0234375 351.748047 12.0234375 354.226562 12.0234375 355.949219 14.1679688 355.949219 17.5605469L355.949219 17.578125C355.949219 20.9882812 354.244141 23.1328125 351.748047 23.1328125zM376.779297 27L376.779297 9.84375 376.919922 9.84375 383.775391 27 387.115234 27 393.953125 9.84375 394.111328 9.84375 394.111328 27 398.839844 27 398.839844 1.63476562 392.705078 1.63476562 385.498047 19.8632812 385.392578 19.8632812 378.185547 1.63476562 372.050781 1.63476562 372.050781 27 376.779297 27zM405.291016 5.73046875C406.837891 5.73046875 408.033203 4.51757812 408.033203 3.05859375 408.033203 1.59960938 406.837891.38671875 405.291016.38671875 403.744141.38671875 402.548828 1.59960938 402.548828 3.05859375 402.548828 4.51757812 403.744141 5.73046875 405.291016 5.73046875zM407.857422 27L407.857422 8.15625 402.724609 8.15625 402.724609 27 407.857422 27zM416.417969 27L416.417969 16.171875C416.417969 13.7109375 417.876953 12.0234375 420.179688 12.0234375 422.482422 12.0234375 423.642578 13.4296875 423.642578 15.890625L423.642578 27 428.775391 27 428.775391 14.8359375C428.775391 10.4238281 426.419922 7.76953125 422.271484 7.76953125 419.423828 7.76953125 417.490234 9.08789062 416.523438 11.25L416.417969 11.25 416.417969 8.15625 411.285156 8.15625 411.285156 27 416.417969 27zM434.699219 5.73046875C436.246094 5.73046875 437.441406 4.51757812 437.441406 3.05859375 437.441406 1.59960938 436.246094.38671875 434.699219.38671875 433.152344.38671875 431.957031 1.59960938 431.957031 3.05859375 431.957031 4.51757812 433.152344 5.73046875 434.699219 5.73046875zM437.265625 27L437.265625 8.15625 432.132812 8.15625 432.132812 27 437.265625 27zM457.375 27.4394531C463.298828 27.4394531 467.236328 24.3808594 467.236328 19.8457031L467.236328 19.8105469C467.236328 16.3652344 464.775391 14.1855469 461.013672 13.8339844L461.013672 13.7285156C463.984375 13.1132812 466.304688 11.0566406 466.304688 7.89257812L466.304688 7.85742188C466.304688 3.8671875 462.789062 1.1953125 457.322266 1.1953125 451.996094 1.1953125 448.427734 4.078125 448.076172 8.47265625L448.058594 8.68359375 452.927734 8.68359375 452.945312 8.52539062C453.15625 6.55664062 454.84375 5.2734375 457.322266 5.2734375 459.818359 5.2734375 461.277344 6.50390625 461.277344 8.56054688L461.277344 8.59570312C461.277344 10.6523438 459.554688 12.0585938 456.900391 12.0585938L454.070312 12.0585938 454.070312 15.8378906 456.970703 15.8378906C460.029297 15.8378906 461.839844 17.1738281 461.839844 19.5996094L461.839844 19.6347656C461.839844 21.7089844 460.082031 23.1679688 457.357422 23.1679688 454.615234 23.1679688 452.822266 21.8144531 452.59375 20.0039062L452.558594 19.8105469 447.496094 19.8105469 447.513672 20.0390625C447.865234 24.4160156 451.626953 27.4394531 457.375 27.4394531zM473.388672 33.1523438L479.734375 1.63476562 475.181641 1.63476562 468.818359 33.1523438 473.388672 33.1523438zM498.648438 27L498.648438 22.3417969 501.988281 22.3417969 501.988281 18.1054688 498.648438 18.1054688 498.648438 1.63476562 491.160156 1.63476562 480.982422 17.9121094 480.982422 22.3417969 493.603516 22.3417969 493.603516 27 498.648438 27zM493.708984 18.2460938L485.605469 18.2460938 485.605469 18.1054688 493.585938 5.46679688 493.708984 5.46679688 493.708984 18.2460938zM507.595703 33.1523438L513.941406 1.63476562 509.388672 1.63476562 503.025391 33.1523438 507.595703 33.1523438zM525.455078 27.4394531C531.255859 27.4394531 535.263672 23.8359375 535.263672 18.5273438L535.263672 18.4921875C535.263672 13.7109375 531.783203 10.2480469 526.966797 10.2480469 524.400391 10.2480469 522.308594 11.2851562 521.253906 12.9902344L521.148438 12.9902344 521.763672 5.85351562 533.734375 5.85351562 533.734375 1.63476562 517.544922 1.63476562 516.384766 16.5234375 521.007812 16.5234375C521.306641 15.9960938 521.710938 15.5039062 522.220703 15.1171875 523.082031 14.4316406 524.189453 14.0449219 525.490234 14.0449219 528.232422 14.0449219 530.183594 15.9257812 530.201172 18.5976562L530.201172 18.6328125C530.201172 21.3398438 528.25 23.2382812 525.472656 23.2382812 523.029297 23.2382812 521.253906 21.7617188 520.884766 19.8457031L520.849609 19.7226562 515.945312 19.7226562 515.962891 19.9863281C516.279297 24.2226562 519.935547 27.4394531 525.455078 27.4394531zM517.768555 699.730469C519.31543 699.730469 520.510742 698.517578 520.510742 697.058594 520.510742 695.599609 519.31543 694.386719 517.768555 694.386719 516.22168 694.386719 515.026367 695.599609 515.026367 697.058594 515.026367 698.517578 516.22168 699.730469 517.768555 699.730469zM520.334961 721L520.334961 702.15625 515.202148 702.15625 515.202148 721 520.334961 721zM529.510742 721L529.510742 713.001953 534.397461 713.001953C539.741211 713.001953 543.30957 709.556641 543.30957 704.335938L543.30957 704.300781C543.30957 699.080078 539.741211 695.634766 534.397461 695.634766L524.202148 695.634766 524.202148 721 529.510742 721zM533.09668 708.853516L529.510742 708.853516 529.510742 699.835938 533.09668 699.835938C536.137695 699.835938 537.930664 701.435547 537.930664 704.318359L537.930664 704.353516C537.930664 707.236328 536.137695 708.853516 533.09668 708.853516zM550.375977 721.298828C552.854492 721.298828 554.858398 720.121094 555.930664 718.1875L556.036133 718.1875 556.036133 721 561.168945 721 561.168945 708.080078C561.168945 704.283203 558.022461 701.769531 553.15332 701.769531 548.178711 701.769531 545.19043 704.265625 544.90918 707.746094L544.891602 707.957031 549.584961 707.957031 549.620117 707.798828C549.866211 706.585938 551.026367 705.689453 552.942383 705.689453 554.946289 705.689453 556.036133 706.726562 556.036133 708.396484L556.036133 709.556641 551.37793 709.837891C546.702148 710.136719 544.047852 712.140625 544.047852 715.568359L544.047852 715.603516C544.047852 718.925781 546.59668 721.298828 550.375977 721.298828zM552.045898 717.554688C550.270508 717.554688 549.12793 716.728516 549.12793 715.339844L549.12793 715.304688C549.12793 713.96875 550.165039 713.125 552.151367 713.001953L556.036133 712.755859 556.036133 714.109375C556.036133 716.078125 554.348633 717.554688 552.045898 717.554688zM571.452148 721.386719C574.176758 721.386719 576.250977 720.015625 577.25293 717.783203L577.358398 717.783203 577.358398 721 582.491211 721 582.491211 695.634766 577.358398 695.634766 577.358398 705.425781 577.25293 705.425781C576.233398 703.140625 574.124023 701.769531 571.452148 701.769531 566.706055 701.769531 563.788086 705.425781 563.788086 711.560547L563.788086 711.578125C563.788086 717.695312 566.706055 721.386719 571.452148 721.386719zM573.174805 717.132812C570.608398 717.132812 569.008789 715.005859 569.008789 711.578125L569.008789 711.560547C569.008789 708.115234 570.625977 706.023438 573.174805 706.023438 575.65332 706.023438 577.375977 708.167969 577.375977 711.560547L577.375977 711.578125C577.375977 714.988281 575.670898 717.132812 573.174805 717.132812zM598.786133 721L598.786133 713.001953 603.672852 713.001953C609.016602 713.001953 612.584961 709.556641 612.584961 704.335938L612.584961 704.300781C612.584961 699.080078 609.016602 695.634766 603.672852 695.634766L593.477539 695.634766 593.477539 721 598.786133 721zM602.37207 708.853516L598.786133 708.853516 598.786133 699.835938 602.37207 699.835938C605.413086 699.835938 607.206055 701.435547 607.206055 704.318359L607.206055 704.353516C607.206055 707.236328 605.413086 708.853516 602.37207 708.853516zM620.407227 721L620.407227 710.382812C620.407227 707.728516 621.883789 706.199219 624.415039 706.199219 625.15332 706.199219 625.856445 706.304688 626.27832 706.480469L626.27832 701.962891C625.891602 701.857422 625.364258 701.769531 624.801758 701.769531 622.569336 701.769531 620.969727 703.087891 620.424805 705.373047L620.319336 705.373047 620.319336 702.15625 615.274414 702.15625 615.274414 721 620.407227 721zM636.40332 721.386719C642.098633 721.386719 645.737305 717.730469 645.737305 711.578125L645.737305 711.542969C645.737305 705.443359 642.02832 701.769531 636.385742 701.769531 630.760742 701.769531 627.069336 705.478516 627.069336 711.542969L627.069336 711.578125C627.069336 717.712891 630.672852 721.386719 636.40332 721.386719zM636.420898 717.361328C633.889648 717.361328 632.290039 715.269531 632.290039 711.578125L632.290039 711.542969C632.290039 707.904297 633.907227 705.794922 636.385742 705.794922 638.881836 705.794922 640.516602 707.904297 640.516602 711.542969L640.516602 711.578125C640.516602 715.251953 638.916992 717.361328 636.420898 717.361328zM667.217773 721L667.217773 695.634766 661.944336 695.634766 655.387695 700.1875 655.387695 704.898438 661.856445 700.503906 661.961914 700.503906 661.961914 721 667.217773 721zM691.352539 721L691.352539 716.78125 679.838867 716.78125 679.838867 716.570312 685.147461 711.71875C689.524414 707.693359 690.983398 705.689453 690.983398 702.613281L690.983398 702.578125C690.983398 698.253906 687.291992 695.195312 681.930664 695.195312 676.569336 695.195312 672.59668 698.552734 672.59668 703.333984L672.59668 703.474609 677.518555 703.474609 677.536133 703.316406C677.606445 701.03125 679.364258 699.326172 681.96582 699.326172 684.21582 699.326172 685.797852 700.802734 685.81543 702.876953L685.81543 702.912109C685.81543 704.669922 685.129883 705.917969 681.860352 708.976562L672.895508 717.361328 672.895508 721 691.352539 721zM697.15332 721.298828C698.735352 721.298828 700.000977 720.033203 700.000977 718.451172 700.000977 716.851562 698.735352 715.603516 697.15332 715.603516 695.553711 715.603516 694.305664 716.851562 694.305664 718.451172 694.305664 720.033203 695.553711 721.298828 697.15332 721.298828zM712.709961 721.439453C719.319336 721.439453 723.344727 716.429688 723.344727 708.115234L723.344727 708.080078C723.344727 699.484375 718.879883 695.195312 712.745117 695.195312 707.120117 695.195312 702.97168 698.869141 702.97168 704.054688L702.97168 704.089844C702.97168 708.853516 706.329102 712.316406 711.233398 712.316406 714.678711 712.316406 717.157227 710.59375 718.15918 708.238281L718.264648 708.238281C718.282227 713.177734 716.700195 717.220703 712.727539 717.220703 710.635742 717.220703 709.229492 716.183594 708.614258 714.654297L708.543945 714.513672 703.305664 714.513672 703.34082 714.671875C704.114258 718.591797 707.788086 721.439453 712.709961 721.439453zM712.762695 708.396484C710.143555 708.396484 708.157227 706.550781 708.157227 703.914062L708.157227 703.878906C708.157227 701.365234 710.231445 699.414062 712.81543 699.414062 715.43457 699.414062 717.473633 701.382812 717.473633 703.949219L717.473633 703.966797C717.473633 706.550781 715.43457 708.396484 712.762695 708.396484zM729.602539 705.355469L732.168945 695.634766 727.317383 695.634766 726.051758 705.355469 729.602539 705.355469zM737.741211 705.355469L740.307617 695.634766 735.456055 695.634766 734.19043 705.355469 737.741211 705.355469zM3.171875 699.730469C4.71875 699.730469 5.9140625 698.517578 5.9140625 697.058594 5.9140625 695.599609 4.71875 694.386719 3.171875 694.386719 1.625 694.386719.4296875 695.599609.4296875 697.058594.4296875 698.517578 1.625 699.730469 3.171875 699.730469zM5.73828125 721L5.73828125 702.15625.60546875 702.15625.60546875 721 5.73828125 721zM14.9140625 721L14.9140625 713.001953 19.8007812 713.001953C25.1445312 713.001953 28.7128906 709.556641 28.7128906 704.335938L28.7128906 704.300781C28.7128906 699.080078 25.1445312 695.634766 19.8007812 695.634766L9.60546875 695.634766 9.60546875 721 14.9140625 721zM18.5 708.853516L14.9140625 708.853516 14.9140625 699.835938 18.5 699.835938C21.5410156 699.835938 23.3339844 701.435547 23.3339844 704.318359L23.3339844 704.353516C23.3339844 707.236328 21.5410156 708.853516 18.5 708.853516zM35.7792969 721.298828C38.2578125 721.298828 40.2617188 720.121094 41.3339844 718.1875L41.4394531 718.1875 41.4394531 721 46.5722656 721 46.5722656 708.080078C46.5722656 704.283203 43.4257812 701.769531 38.5566406 701.769531 33.5820312 701.769531 30.59375 704.265625 30.3125 707.746094L30.2949219 707.957031 34.9882812 707.957031 35.0234375 707.798828C35.2695312 706.585938 36.4296875 705.689453 38.3457031 705.689453 40.3496094 705.689453 41.4394531 706.726562 41.4394531 708.396484L41.4394531 709.556641 36.78125 709.837891C32.1054688 710.136719 29.4511719 712.140625 29.4511719 715.568359L29.4511719 715.603516C29.4511719 718.925781 32 721.298828 35.7792969 721.298828zM37.4492188 717.554688C35.6738281 717.554688 34.53125 716.728516 34.53125 715.339844L34.53125 715.304688C34.53125 713.96875 35.5683594 713.125 37.5546875 713.001953L41.4394531 712.755859 41.4394531 714.109375C41.4394531 716.078125 39.7519531 717.554688 37.4492188 717.554688zM56.8554688 721.386719C59.5800781 721.386719 61.6542969 720.015625 62.65625 717.783203L62.7617188 717.783203 62.7617188 721 67.8945312 721 67.8945312 695.634766 62.7617188 695.634766 62.7617188 705.425781 62.65625 705.425781C61.6367188 703.140625 59.5273438 701.769531 56.8554688 701.769531 52.109375 701.769531 49.1914062 705.425781 49.1914062 711.560547L49.1914062 711.578125C49.1914062 717.695312 52.109375 721.386719 56.8554688 721.386719zM58.578125 717.132812C56.0117188 717.132812 54.4121094 715.005859 54.4121094 711.578125L54.4121094 711.560547C54.4121094 708.115234 56.0292969 706.023438 58.578125 706.023438 61.0566406 706.023438 62.7792969 708.167969 62.7792969 711.560547L62.7792969 711.578125C62.7792969 714.988281 61.0742188 717.132812 58.578125 717.132812zM84.1894531 721L84.1894531 713.001953 89.0761719 713.001953C94.4199219 713.001953 97.9882812 709.556641 97.9882812 704.335938L97.9882812 704.300781C97.9882812 699.080078 94.4199219 695.634766 89.0761719 695.634766L78.8808594 695.634766 78.8808594 721 84.1894531 721zM87.7753906 708.853516L84.1894531 708.853516 84.1894531 699.835938 87.7753906 699.835938C90.8164062 699.835938 92.609375 701.435547 92.609375 704.318359L92.609375 704.353516C92.609375 707.236328 90.8164062 708.853516 87.7753906 708.853516zM105.810547 721L105.810547 710.382812C105.810547 707.728516 107.287109 706.199219 109.818359 706.199219 110.556641 706.199219 111.259766 706.304688 111.681641 706.480469L111.681641 701.962891C111.294922 701.857422 110.767578 701.769531 110.205078 701.769531 107.972656 701.769531 106.373047 703.087891 105.828125 705.373047L105.722656 705.373047 105.722656 702.15625 100.677734 702.15625 100.677734 721 105.810547 721zM121.806641 721.386719C127.501953 721.386719 131.140625 717.730469 131.140625 711.578125L131.140625 711.542969C131.140625 705.443359 127.431641 701.769531 121.789062 701.769531 116.164062 701.769531 112.472656 705.478516 112.472656 711.542969L112.472656 711.578125C112.472656 717.712891 116.076172 721.386719 121.806641 721.386719zM121.824219 717.361328C119.292969 717.361328 117.693359 715.269531 117.693359 711.578125L117.693359 711.542969C117.693359 707.904297 119.310547 705.794922 121.789062 705.794922 124.285156 705.794922 125.919922 707.904297 125.919922 711.542969L125.919922 711.578125C125.919922 715.251953 124.320312 717.361328 121.824219 717.361328zM152.621094 721L152.621094 695.634766 147.347656 695.634766 140.791016 700.1875 140.791016 704.898438 147.259766 700.503906 147.365234 700.503906 147.365234 721 152.621094 721zM169.900391 721L169.900391 695.634766 164.626953 695.634766 158.070312 700.1875 158.070312 704.898438 164.539062 700.503906 164.644531 700.503906 164.644531 721 169.900391 721zM177.212891 705.355469L179.779297 695.634766 174.927734 695.634766 173.662109 705.355469 177.212891 705.355469zM185.351562 705.355469L187.917969 695.634766 183.066406 695.634766 181.800781 705.355469 185.351562 705.355469zM193.753906 727.152344L200.099609 695.634766 195.546875 695.634766 189.183594 727.152344 193.753906 727.152344zM211.542969 699.730469C213.089844 699.730469 214.285156 698.517578 214.285156 697.058594 214.285156 695.599609 213.089844 694.386719 211.542969 694.386719 209.996094 694.386719 208.800781 695.599609 208.800781 697.058594 208.800781 698.517578 209.996094 699.730469 211.542969 699.730469zM214.109375 721L214.109375 702.15625 208.976562 702.15625 208.976562 721 214.109375 721zM223.285156 721L223.285156 713.001953 228.171875 713.001953C233.515625 713.001953 237.083984 709.556641 237.083984 704.335938L237.083984 704.300781C237.083984 699.080078 233.515625 695.634766 228.171875 695.634766L217.976562 695.634766 217.976562 721 223.285156 721zM226.871094 708.853516L223.285156 708.853516 223.285156 699.835938 226.871094 699.835938C229.912109 699.835938 231.705078 701.435547 231.705078 704.318359L231.705078 704.353516C231.705078 707.236328 229.912109 708.853516 226.871094 708.853516zM244.150391 721.298828C246.628906 721.298828 248.632812 720.121094 249.705078 718.1875L249.810547 718.1875 249.810547 721 254.943359 721 254.943359 708.080078C254.943359 704.283203 251.796875 701.769531 246.927734 701.769531 241.953125 701.769531 238.964844 704.265625 238.683594 707.746094L238.666016 707.957031 243.359375 707.957031 243.394531 707.798828C243.640625 706.585938 244.800781 705.689453 246.716797 705.689453 248.720703 705.689453 249.810547 706.726562 249.810547 708.396484L249.810547 709.556641 245.152344 709.837891C240.476562 710.136719 237.822266 712.140625 237.822266 715.568359L237.822266 715.603516C237.822266 718.925781 240.371094 721.298828 244.150391 721.298828zM245.820312 717.554688C244.044922 717.554688 242.902344 716.728516 242.902344 715.339844L242.902344 715.304688C242.902344 713.96875 243.939453 713.125 245.925781 713.001953L249.810547 712.755859 249.810547 714.109375C249.810547 716.078125 248.123047 717.554688 245.820312 717.554688zM265.226562 721.386719C267.951172 721.386719 270.025391 720.015625 271.027344 717.783203L271.132812 717.783203 271.132812 721 276.265625 721 276.265625 695.634766 271.132812 695.634766 271.132812 705.425781 271.027344 705.425781C270.007812 703.140625 267.898438 701.769531 265.226562 701.769531 260.480469 701.769531 257.5625 705.425781 257.5625 711.560547L257.5625 711.578125C257.5625 717.695312 260.480469 721.386719 265.226562 721.386719zM266.949219 717.132812C264.382812 717.132812 262.783203 715.005859 262.783203 711.578125L262.783203 711.560547C262.783203 708.115234 264.400391 706.023438 266.949219 706.023438 269.427734 706.023438 271.150391 708.167969 271.150391 711.560547L271.150391 711.578125C271.150391 714.988281 269.445312 717.132812 266.949219 717.132812zM291.207031 721L293.105469 714.847656 302.017578 714.847656 303.916016 721 309.505859 721 300.681641 695.634766 294.441406 695.634766 285.634766 721 291.207031 721zM300.787109 710.875L294.335938 710.875 297.517578 700.556641 297.623047 700.556641 300.787109 710.875zM314.322266 699.730469C315.869141 699.730469 317.064453 698.517578 317.064453 697.058594 317.064453 695.599609 315.869141 694.386719 314.322266 694.386719 312.775391 694.386719 311.580078 695.599609 311.580078 697.058594 311.580078 698.517578 312.775391 699.730469 314.322266 699.730469zM316.888672 721L316.888672 702.15625 311.755859 702.15625 311.755859 721 316.888672 721zM325.449219 721L325.449219 710.382812C325.449219 707.728516 326.925781 706.199219 329.457031 706.199219 330.195312 706.199219 330.898438 706.304688 331.320312 706.480469L331.320312 701.962891C330.933594 701.857422 330.40625 701.769531 329.84375 701.769531 327.611328 701.769531 326.011719 703.087891 325.466797 705.373047L325.361328 705.373047 325.361328 702.15625 320.316406 702.15625 320.316406 721 325.449219 721zM357.792969 721L357.792969 716.341797 361.132812 716.341797 361.132812 712.105469 357.792969 712.105469 357.792969 695.634766 350.304688 695.634766 340.126953 711.912109 340.126953 716.341797 352.748047 716.341797 352.748047 721 357.792969 721zM352.853516 712.246094L344.75 712.246094 344.75 712.105469 352.730469 699.466797 352.853516 699.466797 352.853516 712.246094z" transform="translate(29 37)"/>
  </g>
</svg>
