<svg xmlns="http://www.w3.org/2000/svg" width="888" height="1241" viewBox="0 0 888 1241">
  <g fill="none" fill-rule="evenodd">
    <rect width="888" height="1241" fill="#F4F4F4"/>
    <g transform="translate(600 897)">
      <g transform="translate(0 .1)">
        <path fill="#545454" d="M1.34149702.0179873308L1.34149702 10.0205422.61992061 10.0205422C.397336358 10.0205422 0 9.75742748 0 9.56536276L0 .436192773C0 .233135794.431487912.0179873308.602645117.0179873308L1.34149702.0179873308zM1.49058553 18.231259L1.49058553 37.4899944 1.06688657 37.4899944C.844302313 37.4899944.148988652 36.9277904.148988652 36.736625L.148988652 18.9485538C.148988652 18.7454968.878553726 18.231259 1.04971093 18.231259L1.49058553 18.231259zM139.484135 24.6512372L139.484135 54.8068975 139.907534 54.8068975C140.130218 54.8068975 140.825232 54.2455928 140.825232 54.0535281L140.825232 25.3675327C140.825232 25.1643758 140.096266 24.6512372 139.92451 24.6512372L139.484135 24.6512372zM1.49058553 41.9680403L1.49058553 61.0776807 1.06688657 61.0776807C.844302313 61.0776807.148988652 60.5204732.148988652 60.330407L.148988652 42.6803386C.148988652 42.478281.878553726 41.9680403 1.04971093 41.9680403L1.49058553 41.9680403z" transform="translate(.037 34.516)"/>
        <path fill="#545454" d="M140.046336,58.8681687 C140.046336,58.8681687 139.748758,59.0242588 139.74776,60.2118223 C139.742767,64.9609773 139.745762,82.5149134 139.74776,87.382485 C139.748758,89.3061301 140.046336,89.4730126 140.046336,89.4730126 L140.046336,264.993387 C140.046336,275.350092 131.644255,283.75817 121.294936,283.75817 L19.6901675,283.75817 C9.34074867,283.75817 0.938367881,275.350092 0.938367881,264.993387 L0.935471989,95.7425967 C0.935471989,95.7425967 1.39342236,95.7286065 1.39821556,94.2506475 C1.39971344,93.7719846 1.40350806,80.8141113 1.39821556,77.8282144 C1.39551939,76.342261 0.935471989,76.335266 0.935471989,76.335266 L0.935471989,72.1552101 C0.935471989,72.1552101 1.39551939,72.1462165 1.39821556,70.6622617 C1.40031259,69.4661042 1.39811571,57.0814272 1.39821556,54.0910334 C1.39821556,52.6043805 0.935471989,52.5983847 0.935471989,52.5983847 L0.935471989,44.6857579 C0.935471989,44.6857579 1.24932677,44.5427586 1.24912705,44.2375736 L1.24912705,34.8322981 C1.24703003,34.534208 0.935471989,34.3841137 0.935471989,34.3841137 L0.938367881,18.7752077 C0.938367881,8.41840235 9.34074867,0.0100246896 19.6901675,0.0100246896 L121.294936,0.0100246896 C131.644255,0.0100246896 140.046336,8.41840235 140.046336,18.7752077 L140.046336,58.8681687 Z"/>
        <path fill="#3E3E3E" d="M138.269932,18.5114275 C138.269932,9.27647003 130.777843,1.77879078 121.549424,1.77879078 L19.4135837,1.77879078 C10.1851649,1.77879078 2.69307572,9.27647003 2.69307572,18.5114275 L2.69307572,265.263416 C2.69307572,274.49792 10.1851649,281.995599 19.4135837,281.995599 L121.549424,281.995599 C130.777843,281.995599 138.269932,274.49792 138.269932,265.263416 L138.269932,18.5114275 Z"/>
        <path fill="#000" d="M62.3526045,283.758535 C62.3526045,283.758535 63.4149974,282.893144 64.0501964,282.891146 C67.6503893,282.882152 67.64989,282.882152 70.2751659,282.883151 C72.8296423,282.88415 72.833337,282.886149 76.8320646,282.891146 C77.4970213,282.892145 78.6295148,283.758535 78.6295148,283.758535 L62.3526045,283.758535 Z" opacity=".25"/>
      </g>
      <g transform="translate(3.893 2.93)">
        <g fill="#222" transform="translate(.061 .08)">
          <path d="M133.06985,15.7052296 C133.06985,7.03705334 126.037657,-4.54427332e-14 117.376043,-4.54427332e-14 L15.6938068,-4.54427332e-14 C7.03219357,-4.54427332e-14 -1.13525808e-14,7.03705334 -1.13525808e-14,15.7052296 L-1.13525808e-14,262.18493 C-1.13525808e-14,270.853106 7.03219357,277.890159 15.6938068,277.890159 L117.376043,277.890159 C126.037657,277.890159 133.06985,270.853106 133.06985,262.18493 L133.06985,15.7052296 Z"/>
          <path d="M117.129698,273.22762 C123.459541,273.22762 128.556168,268.095235 128.556168,261.773688 L128.556168,16.0721445 C128.556168,9.75059701 123.459541,4.61720828 117.129698,4.61720828 L99.7132941,4.61720828 C98.7527836,4.61720828 97.9294747,5.29973193 97.9206874,6.40695207 C97.9179913,6.75070995 98.5235153,13.9896113 90.0645525,14.0125951 L66.5498703,13.9666275 L43.0351881,14.0125951 C34.5762253,13.9896113 35.1817493,6.75070995 35.1790532,6.40695207 C35.1702659,5.29973193 34.346957,4.61720828 33.3864465,4.61720828 L15.9600566,4.61720828 C9.62851615,4.61720828 4.53208895,9.75059701 4.53208895,16.0721445 L4.53208895,261.773688 C4.53208895,268.095235 9.62851615,273.22762 15.9600566,273.22762 L117.129698,273.22762 Z"/>
          <rect width="124.024" height="268.611" transform="translate(4.534 4.586)"/>
          <path d="M117.376043,0 C126.037657,0 133.06985,7.03705334 133.06985,15.7052296 L133.06985,15.7052296 L133.06985,262.18493 C133.06985,270.853106 126.037657,277.890159 117.376043,277.890159 L117.376043,277.890159 L15.6938068,277.890159 C7.03219357,277.890159 -1.13525808e-14,270.853106 -1.13525808e-14,262.18493 L-1.13525808e-14,262.18493 L-1.13525808e-14,15.7052296 C-1.13525808e-14,7.03705334 7.03219357,0 15.6938068,0 L15.6938068,0 Z M33.3864465,4.61720828 L15.9600566,4.61720828 C9.62851615,4.61720828 4.53208895,9.75059701 4.53208895,16.0721445 L4.53208895,261.773688 C4.53208895,268.095235 9.62851615,273.22762 15.9600566,273.22762 L117.129698,273.22762 C123.459541,273.22762 128.556168,268.095235 128.556168,261.773688 L128.556168,16.0721445 C128.556168,9.75059701 123.459541,4.61720828 117.129698,4.61720828 L99.7132941,4.61720828 C98.7527836,4.61720828 97.9294747,5.29973193 97.9206874,6.40695207 C97.9179913,6.75070995 98.5235153,13.9896113 90.0645525,14.0125951 L66.5498703,13.9666275 L43.0351881,14.0125951 C34.5762253,13.9896113 35.1817493,6.75070995 35.1790532,6.40695207 C35.1702659,5.29973193 34.346957,4.61720828 33.3864465,4.61720828 Z"/>
        </g>
        <path fill="#3E3E3E" d="M.0223682694 2.07194065C.0223682694 2.73227556.43098862 3.1174043.935273266 3.1174043L14.7584644 3.1174043C15.262749 3.1174043 15.6713693 2.73227556 15.6713693 2.07194065 15.6713693 1.41160575 15.262749 1.02647701 14.7584644 1.02647701L.935273266 1.02647701C.43098862 1.02647701.0223682694 1.41160575.0223682694 2.07194065zM19.5434766 2.07194065C19.5434766 3.18445707 20.4437994 4.0868215 21.5551229 4.0868215 22.6663466 4.0868215 23.5667693 3.18445707 23.5667693 2.07194065 23.5667693.958424945 22.6663466.0560605145 21.5551229.0560605145 20.4437994.0560605145 19.5434766.958424945 19.5434766 2.07194065z" transform="translate(58.556 5.075)"/>
      </g>
    </g>
    <g transform="translate(395 485)">
      <g transform="translate(.044 .054)">
        <path fill="#545454" d="M.938277407.0297579541L.938277407 7.1829084.403914817 7.1829084C.239080301 7.1829084.0453313407 6.98949265.0453313407 6.84830577L.0453313407.337181007C.0453313407.18784025.264371196.0297579541.391121469.0297579541L.938277407.0297579541zM.948186705 13.0908596L.948186705 26.6489141.634416919 26.6489141C.469582403 26.6489141.0551666886 26.2356376.0551666886 26.0951118L.0551666886 13.6182168C.0551666886 13.4688761.494947248 13.0908596.621697522 13.0908596L.948186705 13.0908596zM98.0517638 17.5106261L98.0517638 38.9791863 98.3653117 38.9791863C98.5302202 38.9791863 98.7439357 38.5665709 98.7439357 38.425384L98.7439357 18.0371753C98.7439357 17.887908 98.5058167 17.5106261 98.3786227 17.5106261L98.0517638 17.5106261zM.948186705 29.8408983L.948186705 43.3891828.634416919 43.3891828C.469582403 43.3891828.0551666886 42.9795792.0551666886 42.8397881L.0551666886 30.3645092C.0551666886 30.2159764.494947248 29.8408983.621697522 29.8408983L.948186705 29.8408983z" transform="translate(.011 26.175)"/>
        <path fill="#545454" d="M0.603045685,171.043629 L0.603045685,69.6921702 C0.603045685,69.6921702 0.9306,69.6811873 0.934117766,68.5948758 C0.93522335,68.2434221 0.938037563,59.1176073 0.934117766,56.9220202 C0.932208122,55.8301174 0.603045685,55.8249255 0.603045685,55.8249255 L0.603045685,52.9520911 C0.603045685,52.9520911 0.932107614,52.9455013 0.934117766,51.8548965 C0.935725888,50.9753637 0.934117766,42.3708386 0.934117766,40.1727553 C0.934117766,39.079954 0.603045685,39.0754609 0.603045685,39.0754609 L0.603045685,33.5586363 C0.603045685,33.5586363 0.823860914,33.4534997 0.823760406,33.2291485 L0.823760406,26.4154397 C0.822152284,26.1962804 0.603045685,26.0859519 0.603045685,26.0859519 L0.603045685,15.073969 C0.603045685,6.75450078 7.40228528,0 15.7770822,0 L83.1228122,0 C91.4971066,0 98.2964467,6.75450078 98.2964467,15.073969 L98.2964467,43.5844521 C98.2964467,43.5844521 98.076335,43.6172012 98.0753299,44.5721169 C98.0713096,48.0631904 98.0743249,60.7670435 98.0753299,64.3444827 C98.076335,65.270044 98.2964467,65.2830238 98.2964467,65.2830238 L98.2964467,177.726242 C98.2964467,186.046309 91.4971066,192.80081 83.1228122,192.80081 L15.7770822,192.80081 C7.40228528,192.80081 0.603045685,186.046309 0.603045685,177.726242 L0.603045685,171.043629 Z"/>
        <path fill="#3E3E3E" d="M96.293059,14.8065901 C96.293059,7.65306413 90.4475112,1.84569292 83.2466223,1.84569292 L15.6665457,1.84569292 C8.46612194,1.84569292 2.62010903,7.65306413 2.62010903,14.8065901 L2.62010903,177.792848 C2.62010903,184.945499 8.46612194,190.75287 15.6665457,190.75287 L83.2466223,190.75287 C90.4475112,190.75287 96.293059,184.945499 96.293059,177.792848 L96.293059,14.8065901 Z"/>
      </g>
      <g transform="translate(3.383 2.701)">
        <g fill="#343434" transform="translate(.085 .015)">
          <path d="M92.0647629,12.4511671 C92.0647629,5.57946284 86.4484823,0 79.5312141,0 L12.5335488,0 C5.61628058,0 -1.71395892e-14,5.57946284 -1.71395892e-14,12.4511671 L-1.71395892e-14,174.857883 C-1.71395892e-14,181.730455 5.61628058,187.30905 12.5335488,187.30905 L79.5312141,187.30905 C86.4484823,187.30905 92.0647629,181.730455 92.0647629,174.857883 L92.0647629,12.4511671 Z"/>
          <path d="M79.1770204,183.096303 C83.8669497,183.096303 87.6425648,179.323963 87.6425648,174.67758 L87.6425648,12.5943218 C87.6425648,7.94793892 83.8669497,4.17486125 79.1770204,4.17486125 L70.6000717,4.17486125 C69.8885192,4.17486125 69.2786065,4.67652104 69.2720968,5.49033582 C69.2700995,5.74300033 69.7186757,11.0636449 63.45222,11.0805382 L46.0323873,11.0467517 L28.6125547,11.0805382 C22.346099,11.0636449 22.7946752,5.74300033 22.7926779,5.49033582 C22.7861682,4.67652104 22.1762555,4.17486125 21.464703,4.17486125 L12.8881241,4.17486125 C8.19767699,4.17486125 4.42220991,7.94793892 4.42220991,12.5943218 L4.42220991,174.67758 C4.42220991,179.323963 8.19767699,183.096303 12.8881241,183.096303 L79.1770204,183.096303 Z"/>
          <rect width="83.22" height="178.922" transform="translate(4.422 4.193)"/>
          <path d="M79.5312141,0 C86.4484823,0 92.0647629,5.57946284 92.0647629,12.4511671 L92.0647629,12.4511671 L92.0647629,174.857883 C92.0647629,181.730455 86.4484823,187.30905 79.5312141,187.30905 L79.5312141,187.30905 L12.5335488,187.30905 C5.61628058,187.30905 7.42715534e-14,181.730455 7.42715534e-14,174.857883 L7.42715534e-14,174.857883 L7.42715534e-14,12.4511671 C7.42715534e-14,5.57946284 5.61628058,0 12.5335488,0 L12.5335488,0 Z M21.464703,4.17486125 L12.8881241,4.17486125 C8.19767699,4.17486125 4.42220991,7.94793892 4.42220991,12.5943218 L4.42220991,174.67758 C4.42220991,179.323963 8.19767699,183.096303 12.8881241,183.096303 L79.1770204,183.096303 C83.8669497,183.096303 87.6425648,179.323963 87.6425648,174.67758 L87.6425648,12.5943218 C87.6425648,7.94793892 83.8669497,4.17486125 79.1770204,4.17486125 L70.6000717,4.17486125 C69.8885192,4.17486125 69.2786065,4.67652104 69.2720968,5.49033582 C69.2700995,5.74300033 69.7186757,11.0636449 63.45222,11.0805382 L46.0323873,11.0467517 L28.6125547,11.0805382 C22.346099,11.0636449 22.7946752,5.74300033 22.7926779,5.49033582 C22.7861682,4.67652104 22.1762555,4.17486125 21.464703,4.17486125 Z"/>
        </g>
        <path fill="#3E3E3E" d="M.0222589454 1.52308473C.0222589454 2.00849728.324862283 2.29160563.698309706 2.29160563L10.9350582 2.29160563C11.3085056 2.29160563 11.611109 2.00849728 11.611109 1.52308473 11.611109 1.03767217 11.3085056.754563823 10.9350582.754563823L.698309706.754563823C.324862283.754563823.0222589454 1.03767217.0222589454 1.52308473zM14.1770995 1.52308473C14.1770995 2.34089616 14.8438325 3.00422475 15.6668219 3.00422475 16.4897374 3.00422475 17.1565444 2.34089616 17.1565444 1.52308473 17.1565444.70453871 16.4897374.0412101153 15.6668219.0412101153 14.8438325.0412101153 14.1770995.70453871 14.1770995 1.52308473z" transform="translate(40.196 4.154)"/>
      </g>
    </g>
    <g transform="translate(401 133)">
      <g fill="#545454">
        <path d="M0.403858775,161.490417 L0.403858775,67.1128222 C0.403858775,66.8574039 0.562788745,66.4334361 0.606697084,66.2458633 C0.650592028,66.0592217 0.727947323,65.7789267 0.727947323,65.5414675 L0.727947323,38.5372344 C0.727947323,38.4002132 0.677823771,37.8601099 0.619248064,37.764328 C0.560685753,37.6685461 0.403858775,37.045964 0.403858775,36.9209155 L0.403858775,14.42282 C0.403858775,5.76786442 5.35731682,0.00498896662 14.3187034,0.00498896662 L72.4818485,0.00498896662 C81.4430073,0.00498896662 86.3966931,5.76786442 86.3966931,14.42282 L86.3966931,37.0885338 C86.3966931,37.1457368 86.3314601,37.2029399 86.2942224,37.2654641 C86.2560471,37.3279884 86.1747403,37.4729915 86.1747403,37.8002462 L86.1747403,49.9908829 C86.1747403,50.3181376 86.2560471,50.4627416 86.2942224,50.5256649 C86.3314601,50.5875241 86.3966931,50.6463235 86.3966931,50.7021962 L86.3966931,50.7027284 L86.4474596,161.490417 C86.4474596,170.145346 81.4937738,175.907011 72.532615,175.907051 L48.9758849,175.907051 C48.5938636,175.907051 48.0517737,175.605644 47.6698864,175.605644 L39.181432,175.605644 C38.7996786,175.605644 38.2574548,175.907051 37.8754335,175.907051 L14.3187034,175.907051 C5.35761151,175.907051 0.403858775,170.145373 0.403858775,161.490417 Z"/>
        <path d="M85.9958834 28.1430385L86.5617852 28.1430385C86.6918834 28.1430385 86.9000404 28.0362812 86.9000404 27.8048073L86.9000404 15.4109751C86.9000404 15.1795011 86.6918834 15.0727438 86.5617852 15.0727438L85.9958834 15.0727438 85.9958834 28.1430385 85.9958834 28.1430385zM.904659353 31.1362358L.338757506 31.1362358C.208659353 31.1362358.000502309469 31.2429932.000502309469 31.4744671L.000502309469 43.8682993C.000502309469 44.0997732.208659353 44.2065306.338757506 44.2065306L.904659353 44.2065306.904659353 31.1362358.904659353 31.1362358zM.904659353 28.1430385L.338757506 28.1430385C.208659353 28.1430385.000502309469 28.0362812.000502309469 27.8048073L.000502309469 15.4109751C.000502309469 15.1795011.208659353 15.0727438.338757506 15.0727438L.904659353 15.0727438.904659353 28.1430385.904659353 28.1430385zM.604579677.0735328798L.604579677 7.05765986.213180139 7.05765986C.113120092 7.05765986.00150692841 6.97824036.00150692841 6.84444444L.00150692841.261605442C.00150692841.119528345.128490762.0735328798.205444573.0735328798L.604579677.0735328798.604579677.0735328798z" transform="translate(0 22.35)"/>
      </g>
      <g transform="translate(1.708 1.297)">
        <g fill="#343434">
          <g transform="translate(.002 .006)">
            <path d="M76.247463,0.945151927 C74.6461005,0.318077098 72.8036293,-2.56987679e-14 70.7712852,-2.56987679e-14 L12.6098764,-2.56987679e-14 C10.5773314,-2.56987679e-14 8.73486028,0.318077098 7.13339723,0.945151927 C5.61411201,1.54019955 4.30680139,2.41610884 3.24783256,3.54853515 C1.12306351,5.82087075 -4.56847801e-14,9.13044898 -4.56847801e-14,13.1196825 L-4.56847801e-14,160.288209 C-4.56847801e-14,164.278141 1.12306351,167.587619 3.24783256,169.859456 C4.30680139,170.99288 5.61411201,171.867891 7.13339723,172.463537 C8.73486028,173.090113 10.5773314,173.40839 12.6098764,173.40839 L70.7712852,173.40839 C72.8036293,173.40839 74.6461005,173.090113 76.247463,172.463537 C77.7674515,171.867891 79.0744607,170.99288 80.1333291,169.859456 C82.2580982,167.587619 83.3812621,164.278141 83.3812621,160.288209 L83.3812621,13.1196825 C83.3812621,9.13044898 82.2580982,5.82087075 80.1333291,3.54853515 C79.0744607,2.41610884 77.7674515,1.54019955 76.247463,0.945151927 L76.247463,0.945151927 Z"/>
            <path d="M4.01737067,19.7562993 L3.86356351,19.7866304 L3.73326443,19.8731338 L3.64606351,20.0026395 L3.61552309,20.1553923 L3.61552309,153.252898 L3.64606351,153.405551 L3.73326443,153.535057 L3.86356351,153.62156 L4.01737067,153.651991 L79.363791,153.651991 L79.5175982,153.62156 L79.6478972,153.535057 L79.7350982,153.405551 L79.7656386,153.252898 L79.7656386,20.1553923 L79.7350982,20.0026395 C79.6485,19.8740317 79.6469931,19.8725351 79.5175982,19.7866304 L79.363791,19.7562993 L4.01737067,19.7562993 L4.01737067,19.7562993 Z"/>
          </g>
          <polygon points="0 0 75.346 0 75.346 133.098 0 133.098" transform="translate(4.019 20.161)"/>
        </g>
        <path fill="#545454" d="M41.6916859,157.107599 C45.0899265,157.107599 47.855363,159.854079 47.855363,163.229025 C47.855363,166.603971 45.0899265,169.350451 41.6916859,169.350451 C38.2934453,169.350451 35.5280088,166.603971 35.5280088,163.229025 C35.5280088,159.854079 38.2934453,157.107599 41.6916859,157.107599 L41.6916859,157.107599 Z M41.6916859,156.444444 C37.9184883,156.444444 34.8602771,159.481692 34.8602771,163.229025 C34.8602771,166.976358 37.9184883,170.013605 41.6916859,170.013605 C45.4648836,170.013605 48.5230947,166.976358 48.5230947,163.229025 C48.5230947,159.481692 45.4648836,156.444444 41.6916859,156.444444 L41.6916859,156.444444 Z"/>
        <path fill="#3E3E3E" d="M0 1.44671202C0 2.24569615.651997691 2.89342404 1.45669746 2.89342404 2.26139723 2.89342404 2.91339492 2.24569615 2.91339492 1.44671202 2.91339492.647727891 2.26139723 0 1.45669746 0 .651997691 0 0 .647727891 0 1.44671202L0 1.44671202zM8.23737298 1.40380952C8.23737298 1.84490703 8.60204965 2.20239456 9.05211894 2.20239456L21.3888395 2.20239456C21.8389088 2.20239456 22.2035855 1.84490703 22.2035855 1.40380952 22.2035855.962712018 21.8389088.60522449 21.3888395.60522449L9.05211894.60522449C8.60204965.60522449 8.23737298.962712018 8.23737298 1.40380952L8.23737298 1.40380952z" transform="translate(26.522 8.381)"/>
      </g>
    </g>
    <g transform="translate(157 897)">
      <path fill="#545454" d="M1.34758642.0180069525L1.34758642 10.0198687.622675926 10.0198687C.399087963 10.0198687 0 9.75676709 0 9.56469293L0 .436168405C0 .233089996.433433642.0180069525.605392747.0180069525L1.34758642.0180069525zM1.49727701 18.2300386L1.49727701 37.4874739 1.07171759 37.4874739C.84812963 37.4874739.149680556 36.9252569.149680556 36.7341831L.149680556 18.9473156C.149680556 18.7442372.88248534 18.2300386 1.05443441 18.2300386L1.49727701 18.2300386zM128.577623 24.6495172L128.577623 54.8031595 129.002932 54.8031595C129.22662 54.8031595 129.924769 54.2419428 129.924769 54.0498687L129.924769 25.3657937C129.924769 25.1627153 129.192515 24.6495172 129.019985 24.6495172L128.577623 24.6495172zM1.49727701 41.9652028L1.49727701 61.0735805 1.07171759 61.0735805C.84812963 61.0735805.149680556 60.5163654.149680556 60.326292L.149680556 42.6774778C.149680556 42.4753998.88248534 41.9652028 1.05443441 41.9652028L1.49727701 41.9652028z" transform="translate(0 34.913)"/>
      <path fill="#545454" d="M129.176466,19.3504712 C129.176466,8.67034762 120.481713,0 109.773765,0 L20.3003627,0 C9.59197377,0 0.898093364,8.67034762 0.898093364,19.3504712 L0.898093364,34.7814291 C0.898093364,34.7814291 1.19529784,34.9314871 1.19746451,35.2296022 C1.19752469,35.239606 1.19746451,38.7029432 1.19746451,40.0014446 C1.19746451,41.0898648 1.19745448,44.6342333 1.19746451,44.6342333 C1.19764506,44.9393511 0.898093364,45.0824063 0.898093364,45.0824063 L0.898093364,52.9944612 C0.898093364,52.9944612 1.34714506,53.0004635 1.34714506,54.4870375 C1.347125,57.477192 1.34931173,69.8609733 1.34714506,71.0574353 C1.34444676,72.5410081 0.898093364,72.5500116 0.898093364,72.5500116 L0.898093364,76.7296253 C0.898093364,76.7296253 1.34449691,76.736628 1.34714506,78.2222016 C1.35246142,81.2083546 1.34868981,94.1653573 1.34714506,94.6435419 C1.34234028,96.1221128 0.898093364,96.1361182 0.898093364,96.1361182 L0.898093364,239.649929 C0.898093364,250.329522 9.59197377,259 20.3003627,259 L109.773765,259 C120.481713,259 129.176466,250.329522 129.176466,239.649929 L129.176466,89.8666976 C129.176466,89.8666976 128.877546,89.6996331 128.876543,87.7758903 C128.874537,82.9090112 128.871528,65.3562341 128.876543,60.6074005 C128.877546,59.4199421 129.176466,59.2638818 129.176466,59.2638818 L129.176466,19.3504712 Z"/>
      <path fill="#3E3E3E" d="M127.080015,19.1333874 C127.080015,9.64472383 119.35625,1.94074932 109.841975,1.94074932 L20.0826929,1.94074932 C10.5684182,1.94074932 2.84397068,9.64472383 2.84397068,19.1333874 L2.84397068,239.867013 C2.84397068,249.355736 10.5684182,257.059371 20.0826929,257.059371 L109.841975,257.059371 C119.35625,257.059371 127.080015,249.355736 127.080015,239.867013 L127.080015,19.1333874 Z"/>
      <path fill="#000" d="M56.875,259 C56.875,259 57.9421836,258.134656 58.5802469,258.132995 C62.1966744,258.123582 62.1961728,258.123682 64.833287,258.124682 C67.3992824,258.125652 67.4029938,258.127693 71.4197531,258.132995 C72.0877083,258.133876 73.2253086,259 73.2253086,259 L56.875,259 Z" opacity=".25"/>
      <g transform="translate(4.012 3.101)">
        <g transform="translate(.03 .034)">
          <path fill="#222" d="M105.819609,252.729919 L16.1558202,252.729919 C7.23918441,252.729919 -3.42113169e-14,245.509291 -3.42113169e-14,236.615457 L-3.42113169e-14,16.1142217 C-3.42113169e-14,7.22078795 7.2390841,0 16.1558202,0 L105.819609,0 C114.736044,0 121.975319,7.22078795 121.975319,16.1142217 L121.975319,236.615457 C121.975319,245.50529 114.743066,252.723477 105.819609,252.729919 Z"/>
          <path fill="#222" d="M105.953029,248.074397 C112.312597,248.074397 117.43235,242.942057 117.43235,236.620547 L117.43235,16.116505 C117.43235,9.79539433 112.312597,4.66236032 105.953029,4.66236032 L94.3226435,4.66236032 C93.3577747,4.66236032 92.5307299,5.3448368 92.5219028,6.45198043 C92.5191944,6.79571456 93.127466,14.0341157 84.6301204,14.0570979 L61.0087392,14.0111335 L37.387358,14.0570979 C28.8900123,14.0341157 29.498284,6.79571456 29.4955756,6.45198043 C29.4867485,5.3448368 28.6597037,4.66236032 27.6948349,4.66236032 L16.0649506,4.66236032 C9.70468056,4.66236032 4.58511806,9.79539433 4.58511806,16.116505 L4.58511806,236.620547 C4.58511806,242.942057 9.70468056,248.074397 16.0649506,248.074397 L105.953029,248.074397 Z"/>
          <rect width="112.847" height="243.412" fill="#222" transform="translate(4.614 4.696)"/>
          <path d="M105.819609,0 C114.736044,0 121.975319,7.22078795 121.975319,16.1142217 L121.975319,236.615457 C121.975319,245.50529 114.743066,252.723477 105.819609,252.729919 L16.1558202,252.729919 C7.23918441,252.729919 5.70188615e-14,245.509291 5.70188615e-14,236.615457 L5.70188615e-14,16.1142217 C5.70188615e-14,7.22078795 7.2390841,0 16.1558202,0 L105.819609,0 Z M27.6948349,4.66236032 L16.0649506,4.66236032 C9.70468056,4.66236032 4.58511806,9.79539433 4.58511806,16.116505 L4.58511806,236.620547 C4.58511806,242.942057 9.70468056,248.074397 16.0649506,248.074397 L105.953029,248.074397 C112.312597,248.074397 117.43235,242.942057 117.43235,236.620547 L117.43235,16.116505 C117.43235,9.79539433 112.312597,4.66236032 105.953029,4.66236032 L94.3226435,4.66236032 C93.3577747,4.66236032 92.5307299,5.3448368 92.5219028,6.45198043 C92.5191944,6.79571456 93.127466,14.0341157 84.6301204,14.0570979 L61.0087392,14.0111335 L37.387358,14.0570979 C28.8900123,14.0341157 29.498284,6.79571456 29.4955756,6.45198043 C29.4867485,5.3448368 28.6597037,4.66236032 27.6948349,4.66236032 Z"/>
        </g>
        <path fill="#3E3E3E" d="M.0224691358 2.07179992C.0224691358 2.73205485.432932099 3.11720355.939490741 3.11720355L14.8250154 3.11720355C15.3315741 3.11720355 15.742037 2.73205485 15.742037 2.07179992 15.742037 1.411545 15.3315741 1.02639629 14.8250154 1.02639629L.939490741 1.02639629C.432932099 1.02639629.0224691358 1.411545.0224691358 2.07179992zM19.6316049 2.07179992C19.6316049 3.18422943 20.5359877 4.08657783 21.6523225 4.08657783 22.7685571 4.08657783 23.6730401 3.18422943 23.6730401 2.07179992 23.6730401.958370027 22.7685571.05602163 21.6523225.05602163 20.5359877.05602163 19.6316049.958370027 19.6316049 2.07179992z" transform="translate(53.063 5.202)"/>
      </g>
    </g>
    <path fill="#222" fill-rule="nonzero" d="M122.341797 5.73046875C123.888672 5.73046875 125.083984 4.51757812 125.083984 3.05859375 125.083984 1.59960938 123.888672.38671875 122.341797.38671875 120.794922.38671875 119.599609 1.59960938 119.599609 3.05859375 119.599609 4.51757812 120.794922 5.73046875 122.341797 5.73046875zM124.908203 27L124.908203 8.15625 119.775391 8.15625 119.775391 27 124.908203 27zM134.083984 27L134.083984 19.0019531 138.970703 19.0019531C144.314453 19.0019531 147.882812 15.5566406 147.882812 10.3359375L147.882812 10.3007812C147.882812 5.08007812 144.314453 1.63476562 138.970703 1.63476562L128.775391 1.63476562 128.775391 27 134.083984 27zM137.669922 14.8535156L134.083984 14.8535156 134.083984 5.8359375 137.669922 5.8359375C140.710938 5.8359375 142.503906 7.43554688 142.503906 10.3183594L142.503906 10.3535156C142.503906 13.2363281 140.710938 14.8535156 137.669922 14.8535156zM155.828125 27L155.828125 16.2070312C155.828125 13.7460938 157.287109 12.0234375 159.554688 12.0234375 161.892578 12.0234375 163.193359 13.5878906 163.193359 16.2246094L163.193359 27 168.326172 27 168.326172 15.1699219C168.326172 10.6171875 165.794922 7.76953125 161.716797 7.76953125 158.886719 7.76953125 156.900391 9.0703125 155.933594 11.4082031L155.828125 11.4082031 155.828125 1.63476562 150.695312 1.63476562 150.695312 27 155.828125 27zM180.261719 27.3867188C185.957031 27.3867188 189.595703 23.7304688 189.595703 17.578125L189.595703 17.5429688C189.595703 11.4433594 185.886719 7.76953125 180.244141 7.76953125 174.619141 7.76953125 170.927734 11.4785156 170.927734 17.5429688L170.927734 17.578125C170.927734 23.7128906 174.53125 27.3867188 180.261719 27.3867188zM180.279297 23.3613281C177.748047 23.3613281 176.148438 21.2695312 176.148438 17.578125L176.148438 17.5429688C176.148438 13.9042969 177.765625 11.7949219 180.244141 11.7949219 182.740234 11.7949219 184.375 13.9042969 184.375 17.5429688L184.375 17.578125C184.375 21.2519531 182.775391 23.3613281 180.279297 23.3613281zM197.365234 27L197.365234 16.171875C197.365234 13.7109375 198.824219 12.0234375 201.126953 12.0234375 203.429688 12.0234375 204.589844 13.4296875 204.589844 15.890625L204.589844 27 209.722656 27 209.722656 14.8359375C209.722656 10.4238281 207.367188 7.76953125 203.21875 7.76953125 200.371094 7.76953125 198.4375 9.08789062 197.470703 11.25L197.365234 11.25 197.365234 8.15625 192.232422 8.15625 192.232422 27 197.365234 27zM221.552734 27.3867188C226.931641 27.3867188 229.533203 24.2050781 230.113281 21.4277344L230.166016 21.234375 225.455078 21.234375 225.419922 21.3398438C225.050781 22.3945312 223.767578 23.5546875 221.658203 23.5546875 219.039062 23.5546875 217.404297 21.796875 217.351562 18.7910156L230.324219 18.7910156 230.324219 17.2089844C230.324219 11.5136719 226.861328 7.76953125 221.341797 7.76953125 215.822266 7.76953125 212.289062 11.6015625 212.289062 17.5957031L212.289062 17.6132812C212.289062 23.6425781 215.787109 27.3867188 221.552734 27.3867188zM225.402344 15.5566406L217.404297 15.5566406C217.738281 13.0078125 219.320312 11.6015625 221.429688 11.6015625 223.556641 11.6015625 225.085938 12.9550781 225.402344 15.5566406zM249.783203 27.4394531C256.181641 27.4394531 260.013672 24.3457031 260.013672 19.4765625L260.013672 19.4589844C260.013672 15.46875 257.623047 13.3066406 252.314453 12.2519531L249.625 11.7070312C246.707031 11.1269531 245.40625 10.1953125 245.40625 8.59570312L245.40625 8.578125C245.40625 6.76757812 247.041016 5.51953125 249.765625 5.50195312 252.384766 5.50195312 254.212891 6.71484375 254.476562 8.70117188L254.494141 8.91210938 259.503906 8.91210938 259.486328 8.578125C259.240234 4.13085938 255.636719 1.1953125 249.765625 1.1953125 244.140625 1.1953125 240.097656 4.25390625 240.097656 8.89453125L240.097656 8.91210938C240.097656 12.7265625 242.628906 15.1171875 247.638672 16.1191406L250.310547 16.6464844C253.457031 17.296875 254.705078 18.1582031 254.705078 19.8808594L254.705078 19.8984375C254.705078 21.8320312 252.859375 23.1152344 249.923828 23.1152344 247.023438 23.1152344 244.931641 21.8847656 244.597656 19.9160156L244.5625 19.7226562 239.552734 19.7226562 239.570312 20.0039062C239.869141 24.6796875 243.753906 27.4394531 249.783203 27.4394531zM280.052734 27L280.052734 22.6230469 268.556641 22.6230469 268.556641 16.2421875 279.402344 16.2421875 279.402344 12.09375 268.556641 12.09375 268.556641 6.01171875 280.052734 6.01171875 280.052734 1.63476562 263.248047 1.63476562 263.248047 27 280.052734 27zM309.144531 27L309.144531 22.78125 297.630859 22.78125 297.630859 22.5703125 302.939453 17.71875C307.316406 13.6933594 308.775391 11.6894531 308.775391 8.61328125L308.775391 8.578125C308.775391 4.25390625 305.083984 1.1953125 299.722656 1.1953125 294.361328 1.1953125 290.388672 4.55273438 290.388672 9.33398438L290.388672 9.47460938 295.310547 9.47460938 295.328125 9.31640625C295.398438 7.03125 297.15625 5.32617188 299.757812 5.32617188 302.007812 5.32617188 303.589844 6.80273438 303.607422 8.87695312L303.607422 8.91210938C303.607422 10.6699219 302.921875 11.9179688 299.652344 14.9765625L290.6875 23.3613281 290.6875 27 309.144531 27zM317.40625 27L317.40625 16.171875C317.40625 13.7109375 318.865234 12.0234375 321.167969 12.0234375 323.470703 12.0234375 324.630859 13.4296875 324.630859 15.890625L324.630859 27 329.763672 27 329.763672 14.8359375C329.763672 10.4238281 327.408203 7.76953125 323.259766 7.76953125 320.412109 7.76953125 318.478516 9.08789062 317.511719 11.25L317.40625 11.25 317.40625 8.15625 312.273438 8.15625 312.273438 27 317.40625 27zM339.994141 27.3867188C342.71875 27.3867188 344.792969 26.015625 345.794922 23.7832031L345.900391 23.7832031 345.900391 27 351.033203 27 351.033203 1.63476562 345.900391 1.63476562 345.900391 11.4257812 345.794922 11.4257812C344.775391 9.140625 342.666016 7.76953125 339.994141 7.76953125 335.248047 7.76953125 332.330078 11.4257812 332.330078 17.5605469L332.330078 17.578125C332.330078 23.6953125 335.248047 27.3867188 339.994141 27.3867188zM341.716797 23.1328125C339.150391 23.1328125 337.550781 21.0058594 337.550781 17.578125L337.550781 17.5605469C337.550781 14.1152344 339.167969 12.0234375 341.716797 12.0234375 344.195312 12.0234375 345.917969 14.1679688 345.917969 17.5605469L345.917969 17.578125C345.917969 20.9882812 344.212891 23.1328125 341.716797 23.1328125zM373.445312 27.4394531C380.511719 27.4394531 384.695312 23.2558594 384.695312 16.3476562L384.695312 13.4296875 374.007812 13.4296875 374.007812 17.3847656 379.527344 17.3847656 379.509766 17.7539062C379.369141 20.8828125 376.996094 22.9394531 373.533203 22.9394531 369.314453 22.9394531 366.642578 19.6875 366.642578 14.1855469L366.642578 14.1679688C366.642578 8.7890625 369.15625 5.6953125 373.339844 5.6953125 376.205078 5.6953125 378.226562 7.11914062 379.070312 9.58007812L379.140625 9.75585938 384.466797 9.75585938 384.414062 9.50976562C383.570312 4.74609375 379.421875 1.1953125 373.322266 1.1953125 365.886719 1.1953125 361.228516 6.09960938 361.228516 14.2207031L361.228516 14.2382812C361.228516 22.5 365.869141 27.4394531 373.445312 27.4394531zM396.332031 27.3867188C401.710938 27.3867188 404.3125 24.2050781 404.892578 21.4277344L404.945312 21.234375 400.234375 21.234375 400.199219 21.3398438C399.830078 22.3945312 398.546875 23.5546875 396.4375 23.5546875 393.818359 23.5546875 392.183594 21.796875 392.130859 18.7910156L405.103516 18.7910156 405.103516 17.2089844C405.103516 11.5136719 401.640625 7.76953125 396.121094 7.76953125 390.601562 7.76953125 387.068359 11.6015625 387.068359 17.5957031L387.068359 17.6132812C387.068359 23.6425781 390.566406 27.3867188 396.332031 27.3867188zM400.181641 15.5566406L392.183594 15.5566406C392.517578 13.0078125 394.099609 11.6015625 396.208984 11.6015625 398.335938 11.6015625 399.865234 12.9550781 400.181641 15.5566406zM412.873047 27L412.873047 16.171875C412.873047 13.7109375 414.332031 12.0234375 416.634766 12.0234375 418.9375 12.0234375 420.097656 13.4296875 420.097656 15.890625L420.097656 27 425.230469 27 425.230469 14.8359375C425.230469 10.4238281 422.875 7.76953125 418.726562 7.76953125 415.878906 7.76953125 413.945312 9.08789062 412.978516 11.25L412.873047 11.25 412.873047 8.15625 407.740234 8.15625 407.740234 27 412.873047 27zM437.060547 27.3867188C442.439453 27.3867188 445.041016 24.2050781 445.621094 21.4277344L445.673828 21.234375 440.962891 21.234375 440.927734 21.3398438C440.558594 22.3945312 439.275391 23.5546875 437.166016 23.5546875 434.546875 23.5546875 432.912109 21.796875 432.859375 18.7910156L445.832031 18.7910156 445.832031 17.2089844C445.832031 11.5136719 442.369141 7.76953125 436.849609 7.76953125 431.330078 7.76953125 427.796875 11.6015625 427.796875 17.5957031L427.796875 17.6132812C427.796875 23.6425781 431.294922 27.3867188 437.060547 27.3867188zM440.910156 15.5566406L432.912109 15.5566406C433.246094 13.0078125 434.828125 11.6015625 436.9375 11.6015625 439.064453 11.6015625 440.59375 12.9550781 440.910156 15.5566406zM453.601562 27L453.601562 16.3828125C453.601562 13.7285156 455.078125 12.1992188 457.609375 12.1992188 458.347656 12.1992188 459.050781 12.3046875 459.472656 12.4804688L459.472656 7.96289062C459.085938 7.85742188 458.558594 7.76953125 457.996094 7.76953125 455.763672 7.76953125 454.164062 9.08789062 453.619141 11.3730469L453.513672 11.3730469 453.513672 8.15625 448.46875 8.15625 448.46875 27 453.601562 27zM466.732422 27.2988281C469.210938 27.2988281 471.214844 26.1210938 472.287109 24.1875L472.392578 24.1875 472.392578 27 477.525391 27 477.525391 14.0800781C477.525391 10.2832031 474.378906 7.76953125 469.509766 7.76953125 464.535156 7.76953125 461.546875 10.265625 461.265625 13.7460938L461.248047 13.9570312 465.941406 13.9570312 465.976562 13.7988281C466.222656 12.5859375 467.382812 11.6894531 469.298828 11.6894531 471.302734 11.6894531 472.392578 12.7265625 472.392578 14.3964844L472.392578 15.5566406 467.734375 15.8378906C463.058594 16.1367188 460.404297 18.140625 460.404297 21.5683594L460.404297 21.6035156C460.404297 24.9257812 462.953125 27.2988281 466.732422 27.2988281zM468.402344 23.5546875C466.626953 23.5546875 465.484375 22.7285156 465.484375 21.3398438L465.484375 21.3046875C465.484375 19.96875 466.521484 19.125 468.507812 19.0019531L472.392578 18.7558594 472.392578 20.109375C472.392578 22.078125 470.705078 23.5546875 468.402344 23.5546875zM488.318359 27.3867188C489.390625 27.3867188 490.216797 27.28125 490.796875 27.1933594L490.796875 23.4316406C490.480469 23.4667969 490.146484 23.5195312 489.689453 23.5195312 488.142578 23.5195312 487.351562 22.921875 487.351562 21.1640625L487.351562 12.0234375 490.796875 12.0234375 490.796875 8.15625 487.351562 8.15625 487.351562 3.55078125 482.166016 3.55078125 482.166016 8.15625 479.546875 8.15625 479.546875 12.0234375 482.166016 12.0234375 482.166016 21.7265625C482.166016 25.7695312 484.134766 27.3867188 488.318359 27.3867188zM496.298828 5.73046875C497.845703 5.73046875 499.041016 4.51757812 499.041016 3.05859375 499.041016 1.59960938 497.845703.38671875 496.298828.38671875 494.751953.38671875 493.556641 1.59960938 493.556641 3.05859375 493.556641 4.51757812 494.751953 5.73046875 496.298828 5.73046875zM498.865234 27L498.865234 8.15625 493.732422 8.15625 493.732422 27 498.865234 27zM510.941406 27.3867188C516.636719 27.3867188 520.275391 23.7304688 520.275391 17.578125L520.275391 17.5429688C520.275391 11.4433594 516.566406 7.76953125 510.923828 7.76953125 505.298828 7.76953125 501.607422 11.4785156 501.607422 17.5429688L501.607422 17.578125C501.607422 23.7128906 505.210938 27.3867188 510.941406 27.3867188zM510.958984 23.3613281C508.427734 23.3613281 506.828125 21.2695312 506.828125 17.578125L506.828125 17.5429688C506.828125 13.9042969 508.445312 11.7949219 510.923828 11.7949219 513.419922 11.7949219 515.054688 13.9042969 515.054688 17.5429688L515.054688 17.578125C515.054688 21.2519531 513.455078 23.3613281 510.958984 23.3613281zM528.044922 27L528.044922 16.171875C528.044922 13.7109375 529.503906 12.0234375 531.806641 12.0234375 534.109375 12.0234375 535.269531 13.4296875 535.269531 15.890625L535.269531 27 540.402344 27 540.402344 14.8359375C540.402344 10.4238281 538.046875 7.76953125 533.898438 7.76953125 531.050781 7.76953125 529.117188 9.08789062 528.150391 11.25L528.044922 11.25 528.044922 8.15625 522.912109 8.15625 522.912109 27 528.044922 27zM39.796875 683.730469C41.34375 683.730469 42.5390625 682.517578 42.5390625 681.058594 42.5390625 679.599609 41.34375 678.386719 39.796875 678.386719 38.25 678.386719 37.0546875 679.599609 37.0546875 681.058594 37.0546875 682.517578 38.25 683.730469 39.796875 683.730469zM42.3632812 705L42.3632812 686.15625 37.2304688 686.15625 37.2304688 705 42.3632812 705zM51.5390625 705L51.5390625 697.001953 56.4257812 697.001953C61.7695312 697.001953 65.3378906 693.556641 65.3378906 688.335938L65.3378906 688.300781C65.3378906 683.080078 61.7695312 679.634766 56.4257812 679.634766L46.2304688 679.634766 46.2304688 705 51.5390625 705zM55.125 692.853516L51.5390625 692.853516 51.5390625 683.835938 55.125 683.835938C58.1660156 683.835938 59.9589844 685.435547 59.9589844 688.318359L59.9589844 688.353516C59.9589844 691.236328 58.1660156 692.853516 55.125 692.853516zM73.2832031 705L73.2832031 694.207031C73.2832031 691.746094 74.7421875 690.023438 77.0097656 690.023438 79.3476562 690.023438 80.6484375 691.587891 80.6484375 694.224609L80.6484375 705 85.78125 705 85.78125 693.169922C85.78125 688.617188 83.25 685.769531 79.171875 685.769531 76.3417969 685.769531 74.3554688 687.070312 73.3886719 689.408203L73.2832031 689.408203 73.2832031 679.634766 68.1503906 679.634766 68.1503906 705 73.2832031 705zM97.7167969 705.386719C103.412109 705.386719 107.050781 701.730469 107.050781 695.578125L107.050781 695.542969C107.050781 689.443359 103.341797 685.769531 97.6992188 685.769531 92.0742188 685.769531 88.3828125 689.478516 88.3828125 695.542969L88.3828125 695.578125C88.3828125 701.712891 91.9863281 705.386719 97.7167969 705.386719zM97.734375 701.361328C95.203125 701.361328 93.6035156 699.269531 93.6035156 695.578125L93.6035156 695.542969C93.6035156 691.904297 95.2207031 689.794922 97.6992188 689.794922 100.195312 689.794922 101.830078 691.904297 101.830078 695.542969L101.830078 695.578125C101.830078 699.251953 100.230469 701.361328 97.734375 701.361328zM114.820312 705L114.820312 694.171875C114.820312 691.710938 116.279297 690.023438 118.582031 690.023438 120.884766 690.023438 122.044922 691.429688 122.044922 693.890625L122.044922 705 127.177734 705 127.177734 692.835938C127.177734 688.423828 124.822266 685.769531 120.673828 685.769531 117.826172 685.769531 115.892578 687.087891 114.925781 689.25L114.820312 689.25 114.820312 686.15625 109.6875 686.15625 109.6875 705 114.820312 705zM139.007812 705.386719C144.386719 705.386719 146.988281 702.205078 147.568359 699.427734L147.621094 699.234375 142.910156 699.234375 142.875 699.339844C142.505859 700.394531 141.222656 701.554688 139.113281 701.554688 136.494141 701.554688 134.859375 699.796875 134.806641 696.791016L147.779297 696.791016 147.779297 695.208984C147.779297 689.513672 144.316406 685.769531 138.796875 685.769531 133.277344 685.769531 129.744141 689.601562 129.744141 695.595703L129.744141 695.613281C129.744141 701.642578 133.242188 705.386719 139.007812 705.386719zM142.857422 693.556641L134.859375 693.556641C135.193359 691.007812 136.775391 689.601562 138.884766 689.601562 141.011719 689.601562 142.541016 690.955078 142.857422 693.556641zM162.351562 705L167.888672 696.105469 168.064453 696.105469 173.636719 705 179.683594 705 171.474609 692.326172 171.474609 692.255859 179.789062 679.634766 173.865234 679.634766 168.503906 688.775391 168.310547 688.775391 162.914062 679.634766 156.673828 679.634766 164.689453 692.167969 164.689453 692.220703 156.621094 705 162.351562 705zM30.9287109 726.730469C32.4755859 726.730469 33.6708984 725.517578 33.6708984 724.058594 33.6708984 722.599609 32.4755859 721.386719 30.9287109 721.386719 29.3818359 721.386719 28.1865234 722.599609 28.1865234 724.058594 28.1865234 725.517578 29.3818359 726.730469 30.9287109 726.730469zM33.4951172 748L33.4951172 729.15625 28.3623047 729.15625 28.3623047 748 33.4951172 748zM42.6708984 748L42.6708984 740.001953 47.5576172 740.001953C52.9013672 740.001953 56.4697266 736.556641 56.4697266 731.335938L56.4697266 731.300781C56.4697266 726.080078 52.9013672 722.634766 47.5576172 722.634766L37.3623047 722.634766 37.3623047 748 42.6708984 748zM46.2568359 735.853516L42.6708984 735.853516 42.6708984 726.835938 46.2568359 726.835938C49.2978516 726.835938 51.0908203 728.435547 51.0908203 731.318359L51.0908203 731.353516C51.0908203 734.236328 49.2978516 735.853516 46.2568359 735.853516zM64.4150391 748L64.4150391 737.207031C64.4150391 734.746094 65.8740234 733.023438 68.1416016 733.023438 70.4794922 733.023438 71.7802734 734.587891 71.7802734 737.224609L71.7802734 748 76.9130859 748 76.9130859 736.169922C76.9130859 731.617188 74.3818359 728.769531 70.3037109 728.769531 67.4736328 728.769531 65.4873047 730.070312 64.5205078 732.408203L64.4150391 732.408203 64.4150391 722.634766 59.2822266 722.634766 59.2822266 748 64.4150391 748zM88.8486328 748.386719C94.5439453 748.386719 98.1826172 744.730469 98.1826172 738.578125L98.1826172 738.542969C98.1826172 732.443359 94.4736328 728.769531 88.8310547 728.769531 83.2060547 728.769531 79.5146484 732.478516 79.5146484 738.542969L79.5146484 738.578125C79.5146484 744.712891 83.1181641 748.386719 88.8486328 748.386719zM88.8662109 744.361328C86.3349609 744.361328 84.7353516 742.269531 84.7353516 738.578125L84.7353516 738.542969C84.7353516 734.904297 86.3525391 732.794922 88.8310547 732.794922 91.3271484 732.794922 92.9619141 734.904297 92.9619141 738.542969L92.9619141 738.578125C92.9619141 742.251953 91.3623047 744.361328 88.8662109 744.361328zM105.952148 748L105.952148 737.171875C105.952148 734.710938 107.411133 733.023438 109.713867 733.023438 112.016602 733.023438 113.176758 734.429688 113.176758 736.890625L113.176758 748 118.30957 748 118.30957 735.835938C118.30957 731.423828 115.954102 728.769531 111.805664 728.769531 108.958008 728.769531 107.024414 730.087891 106.057617 732.25L105.952148 732.25 105.952148 729.15625 100.819336 729.15625 100.819336 748 105.952148 748zM130.139648 748.386719C135.518555 748.386719 138.120117 745.205078 138.700195 742.427734L138.75293 742.234375 134.041992 742.234375 134.006836 742.339844C133.637695 743.394531 132.354492 744.554688 130.245117 744.554688 127.625977 744.554688 125.991211 742.796875 125.938477 739.791016L138.911133 739.791016 138.911133 738.208984C138.911133 732.513672 135.448242 728.769531 129.928711 728.769531 124.40918 728.769531 120.875977 732.601562 120.875977 738.595703L120.875977 738.613281C120.875977 744.642578 124.374023 748.386719 130.139648 748.386719zM133.989258 736.556641L125.991211 736.556641C126.325195 734.007812 127.907227 732.601562 130.016602 732.601562 132.143555 732.601562 133.672852 733.955078 133.989258 736.556641zM153.483398 748L159.020508 739.105469 159.196289 739.105469 164.768555 748 170.81543 748 162.606445 735.326172 162.606445 735.255859 170.920898 722.634766 164.99707 722.634766 159.635742 731.775391 159.442383 731.775391 154.045898 722.634766 147.805664 722.634766 155.821289 735.167969 155.821289 735.220703 147.75293 748 153.483398 748zM180.307617 748.386719C185.15918 748.386719 188.551758 745.960938 188.551758 742.269531L188.551758 742.251953C188.551758 739.474609 186.93457 737.927734 182.99707 737.101562L179.797852 736.416016C177.899414 736.011719 177.249023 735.378906 177.249023 734.412109L177.249023 734.394531C177.249023 733.181641 178.356445 732.390625 180.131836 732.390625 182.030273 732.390625 183.137695 733.410156 183.313477 734.763672L183.331055 734.904297 188.05957 734.904297 188.05957 734.728516C187.936523 731.423828 185.141602 728.769531 180.131836 728.769531 175.333008 728.769531 172.239258 731.089844 172.239258 734.675781L172.239258 734.693359C172.239258 737.505859 174.084961 739.333984 177.741211 740.107422L180.94043 740.775391C182.786133 741.179688 183.418945 741.759766 183.418945 742.761719L183.418945 742.779297C183.418945 743.992188 182.241211 744.748047 180.307617 744.748047 178.250977 744.748047 177.143555 743.886719 176.80957 742.410156L176.774414 742.251953 171.764648 742.251953 171.782227 742.410156C172.186523 745.978516 175.086914 748.386719 180.307617 748.386719zM3.62988281 769.730469C5.17675781 769.730469 6.37207031 768.517578 6.37207031 767.058594 6.37207031 765.599609 5.17675781 764.386719 3.62988281 764.386719 2.08300781 764.386719.887695312 765.599609.887695312 767.058594.887695312 768.517578 2.08300781 769.730469 3.62988281 769.730469zM6.19628906 791L6.19628906 772.15625 1.06347656 772.15625 1.06347656 791 6.19628906 791zM15.3720703 791L15.3720703 783.001953 20.2587891 783.001953C25.6025391 783.001953 29.1708984 779.556641 29.1708984 774.335938L29.1708984 774.300781C29.1708984 769.080078 25.6025391 765.634766 20.2587891 765.634766L10.0634766 765.634766 10.0634766 791 15.3720703 791zM18.9580078 778.853516L15.3720703 778.853516 15.3720703 769.835938 18.9580078 769.835938C21.9990234 769.835938 23.7919922 771.435547 23.7919922 774.318359L23.7919922 774.353516C23.7919922 777.236328 21.9990234 778.853516 18.9580078 778.853516zM37.1162109 791L37.1162109 780.207031C37.1162109 777.746094 38.5751953 776.023438 40.8427734 776.023438 43.1806641 776.023438 44.4814453 777.587891 44.4814453 780.224609L44.4814453 791 49.6142578 791 49.6142578 779.169922C49.6142578 774.617188 47.0830078 771.769531 43.0048828 771.769531 40.1748047 771.769531 38.1884766 773.070312 37.2216797 775.408203L37.1162109 775.408203 37.1162109 765.634766 31.9833984 765.634766 31.9833984 791 37.1162109 791zM61.5498047 791.386719C67.2451172 791.386719 70.8837891 787.730469 70.8837891 781.578125L70.8837891 781.542969C70.8837891 775.443359 67.1748047 771.769531 61.5322266 771.769531 55.9072266 771.769531 52.2158203 775.478516 52.2158203 781.542969L52.2158203 781.578125C52.2158203 787.712891 55.8193359 791.386719 61.5498047 791.386719zM61.5673828 787.361328C59.0361328 787.361328 57.4365234 785.269531 57.4365234 781.578125L57.4365234 781.542969C57.4365234 777.904297 59.0537109 775.794922 61.5322266 775.794922 64.0283203 775.794922 65.6630859 777.904297 65.6630859 781.542969L65.6630859 781.578125C65.6630859 785.251953 64.0634766 787.361328 61.5673828 787.361328zM78.6533203 791L78.6533203 780.171875C78.6533203 777.710938 80.1123047 776.023438 82.4150391 776.023438 84.7177734 776.023438 85.8779297 777.429688 85.8779297 779.890625L85.8779297 791 91.0107422 791 91.0107422 778.835938C91.0107422 774.423828 88.6552734 771.769531 84.5068359 771.769531 81.6591797 771.769531 79.7255859 773.087891 78.7587891 775.25L78.6533203 775.25 78.6533203 772.15625 73.5205078 772.15625 73.5205078 791 78.6533203 791zM102.84082 791.386719C108.219727 791.386719 110.821289 788.205078 111.401367 785.427734L111.454102 785.234375 106.743164 785.234375 106.708008 785.339844C106.338867 786.394531 105.055664 787.554688 102.946289 787.554688 100.327148 787.554688 98.6923828 785.796875 98.6396484 782.791016L111.612305 782.791016 111.612305 781.208984C111.612305 775.513672 108.149414 771.769531 102.629883 771.769531 97.1103516 771.769531 93.5771484 775.601562 93.5771484 781.595703L93.5771484 781.613281C93.5771484 787.642578 97.0751953 791.386719 102.84082 791.386719zM106.69043 779.556641L98.6923828 779.556641C99.0263672 777.007812 100.608398 775.601562 102.717773 775.601562 104.844727 775.601562 106.374023 776.955078 106.69043 779.556641zM133.092773 791L133.092773 765.634766 127.819336 765.634766 121.262695 770.1875 121.262695 774.898438 127.731445 770.503906 127.836914 770.503906 127.836914 791 133.092773 791zM150.37207 791L150.37207 765.634766 145.098633 765.634766 138.541992 770.1875 138.541992 774.898438 145.010742 770.503906 145.116211 770.503906 145.116211 791 150.37207 791zM168.793945 791L168.793945 783.001953 173.680664 783.001953C179.024414 783.001953 182.592773 779.556641 182.592773 774.335938L182.592773 774.300781C182.592773 769.080078 179.024414 765.634766 173.680664 765.634766L163.485352 765.634766 163.485352 791 168.793945 791zM172.379883 778.853516L168.793945 778.853516 168.793945 769.835938 172.379883 769.835938C175.420898 769.835938 177.213867 771.435547 177.213867 774.318359L177.213867 774.353516C177.213867 777.236328 175.420898 778.853516 172.379883 778.853516zM190.415039 791L190.415039 780.382812C190.415039 777.728516 191.891602 776.199219 194.422852 776.199219 195.161133 776.199219 195.864258 776.304688 196.286133 776.480469L196.286133 771.962891C195.899414 771.857422 195.37207 771.769531 194.80957 771.769531 192.577148 771.769531 190.977539 773.087891 190.432617 775.373047L190.327148 775.373047 190.327148 772.15625 185.282227 772.15625 185.282227 791 190.415039 791zM206.411133 791.386719C212.106445 791.386719 215.745117 787.730469 215.745117 781.578125L215.745117 781.542969C215.745117 775.443359 212.036133 771.769531 206.393555 771.769531 200.768555 771.769531 197.077148 775.478516 197.077148 781.542969L197.077148 781.578125C197.077148 787.712891 200.680664 791.386719 206.411133 791.386719zM206.428711 787.361328C203.897461 787.361328 202.297852 785.269531 202.297852 781.578125L202.297852 781.542969C202.297852 777.904297 203.915039 775.794922 206.393555 775.794922 208.889648 775.794922 210.524414 777.904297 210.524414 781.542969L210.524414 781.578125C210.524414 785.251953 208.924805 787.361328 206.428711 787.361328zM440.705078 726.730469C442.251953 726.730469 443.447266 725.517578 443.447266 724.058594 443.447266 722.599609 442.251953 721.386719 440.705078 721.386719 439.158203 721.386719 437.962891 722.599609 437.962891 724.058594 437.962891 725.517578 439.158203 726.730469 440.705078 726.730469zM443.271484 748L443.271484 729.15625 438.138672 729.15625 438.138672 748 443.271484 748zM452.447266 748L452.447266 740.001953 457.333984 740.001953C462.677734 740.001953 466.246094 736.556641 466.246094 731.335938L466.246094 731.300781C466.246094 726.080078 462.677734 722.634766 457.333984 722.634766L447.138672 722.634766 447.138672 748 452.447266 748zM456.033203 735.853516L452.447266 735.853516 452.447266 726.835938 456.033203 726.835938C459.074219 726.835938 460.867188 728.435547 460.867188 731.318359L460.867188 731.353516C460.867188 734.236328 459.074219 735.853516 456.033203 735.853516zM474.191406 748L474.191406 737.207031C474.191406 734.746094 475.650391 733.023438 477.917969 733.023438 480.255859 733.023438 481.556641 734.587891 481.556641 737.224609L481.556641 748 486.689453 748 486.689453 736.169922C486.689453 731.617188 484.158203 728.769531 480.080078 728.769531 477.25 728.769531 475.263672 730.070312 474.296875 732.408203L474.191406 732.408203 474.191406 722.634766 469.058594 722.634766 469.058594 748 474.191406 748zM498.625 748.386719C504.320312 748.386719 507.958984 744.730469 507.958984 738.578125L507.958984 738.542969C507.958984 732.443359 504.25 728.769531 498.607422 728.769531 492.982422 728.769531 489.291016 732.478516 489.291016 738.542969L489.291016 738.578125C489.291016 744.712891 492.894531 748.386719 498.625 748.386719zM498.642578 744.361328C496.111328 744.361328 494.511719 742.269531 494.511719 738.578125L494.511719 738.542969C494.511719 734.904297 496.128906 732.794922 498.607422 732.794922 501.103516 732.794922 502.738281 734.904297 502.738281 738.542969L502.738281 738.578125C502.738281 742.251953 501.138672 744.361328 498.642578 744.361328zM515.728516 748L515.728516 737.171875C515.728516 734.710938 517.1875 733.023438 519.490234 733.023438 521.792969 733.023438 522.953125 734.429688 522.953125 736.890625L522.953125 748 528.085938 748 528.085938 735.835938C528.085938 731.423828 525.730469 728.769531 521.582031 728.769531 518.734375 728.769531 516.800781 730.087891 515.833984 732.25L515.728516 732.25 515.728516 729.15625 510.595703 729.15625 510.595703 748 515.728516 748zM539.916016 748.386719C545.294922 748.386719 547.896484 745.205078 548.476562 742.427734L548.529297 742.234375 543.818359 742.234375 543.783203 742.339844C543.414062 743.394531 542.130859 744.554688 540.021484 744.554688 537.402344 744.554688 535.767578 742.796875 535.714844 739.791016L548.6875 739.791016 548.6875 738.208984C548.6875 732.513672 545.224609 728.769531 539.705078 728.769531 534.185547 728.769531 530.652344 732.601562 530.652344 738.595703L530.652344 738.613281C530.652344 744.642578 534.150391 748.386719 539.916016 748.386719zM543.765625 736.556641L535.767578 736.556641C536.101562 734.007812 537.683594 732.601562 539.792969 732.601562 541.919922 732.601562 543.449219 733.955078 543.765625 736.556641zM563.259766 748L568.796875 739.105469 568.972656 739.105469 574.544922 748 580.591797 748 572.382812 735.326172 572.382812 735.255859 580.697266 722.634766 574.773438 722.634766 569.412109 731.775391 569.21875 731.775391 563.822266 722.634766 557.582031 722.634766 565.597656 735.167969 565.597656 735.220703 557.529297 748 563.259766 748zM590.083984 748.386719C594.935547 748.386719 598.328125 745.960938 598.328125 742.269531L598.328125 742.251953C598.328125 739.474609 596.710938 737.927734 592.773438 737.101562L589.574219 736.416016C587.675781 736.011719 587.025391 735.378906 587.025391 734.412109L587.025391 734.394531C587.025391 733.181641 588.132812 732.390625 589.908203 732.390625 591.806641 732.390625 592.914062 733.410156 593.089844 734.763672L593.107422 734.904297 597.835938 734.904297 597.835938 734.728516C597.712891 731.423828 594.917969 728.769531 589.908203 728.769531 585.109375 728.769531 582.015625 731.089844 582.015625 734.675781L582.015625 734.693359C582.015625 737.505859 583.861328 739.333984 587.517578 740.107422L590.716797 740.775391C592.5625 741.179688 593.195312 741.759766 593.195312 742.761719L593.195312 742.779297C593.195312 743.992188 592.017578 744.748047 590.083984 744.748047 588.027344 744.748047 586.919922 743.886719 586.585938 742.410156L586.550781 742.251953 581.541016 742.251953 581.558594 742.410156C581.962891 745.978516 584.863281 748.386719 590.083984 748.386719zM613.146484 748L613.146484 730.84375 613.287109 730.84375 620.142578 748 623.482422 748 630.320312 730.84375 630.478516 730.84375 630.478516 748 635.207031 748 635.207031 722.634766 629.072266 722.634766 621.865234 740.863281 621.759766 740.863281 614.552734 722.634766 608.417969 722.634766 608.417969 748 613.146484 748zM644.207031 748.298828C646.685547 748.298828 648.689453 747.121094 649.761719 745.1875L649.867188 745.1875 649.867188 748 655 748 655 735.080078C655 731.283203 651.853516 728.769531 646.984375 728.769531 642.009766 728.769531 639.021484 731.265625 638.740234 734.746094L638.722656 734.957031 643.416016 734.957031 643.451172 734.798828C643.697266 733.585938 644.857422 732.689453 646.773438 732.689453 648.777344 732.689453 649.867188 733.726562 649.867188 735.396484L649.867188 736.556641 645.208984 736.837891C640.533203 737.136719 637.878906 739.140625 637.878906 742.568359L637.878906 742.603516C637.878906 745.925781 640.427734 748.298828 644.207031 748.298828zM645.876953 744.554688C644.101562 744.554688 642.958984 743.728516 642.958984 742.339844L642.958984 742.304688C642.958984 740.96875 643.996094 740.125 645.982422 740.001953L649.867188 739.755859 649.867188 741.109375C649.867188 743.078125 648.179688 744.554688 645.876953 744.554688zM662.417969 748L665.951172 741.460938 666.056641 741.460938 669.642578 748 675.214844 748 669.378906 738.472656 675.267578 729.15625 669.677734 729.15625 666.337891 735.519531 666.232422 735.519531 662.839844 729.15625 657.056641 729.15625 662.927734 738.613281 657.021484 748 662.417969 748zM413.40625 769.730469C414.953125 769.730469 416.148438 768.517578 416.148438 767.058594 416.148438 765.599609 414.953125 764.386719 413.40625 764.386719 411.859375 764.386719 410.664062 765.599609 410.664062 767.058594 410.664062 768.517578 411.859375 769.730469 413.40625 769.730469zM415.972656 791L415.972656 772.15625 410.839844 772.15625 410.839844 791 415.972656 791zM425.148438 791L425.148438 783.001953 430.035156 783.001953C435.378906 783.001953 438.947266 779.556641 438.947266 774.335938L438.947266 774.300781C438.947266 769.080078 435.378906 765.634766 430.035156 765.634766L419.839844 765.634766 419.839844 791 425.148438 791zM428.734375 778.853516L425.148438 778.853516 425.148438 769.835938 428.734375 769.835938C431.775391 769.835938 433.568359 771.435547 433.568359 774.318359L433.568359 774.353516C433.568359 777.236328 431.775391 778.853516 428.734375 778.853516zM446.892578 791L446.892578 780.207031C446.892578 777.746094 448.351562 776.023438 450.619141 776.023438 452.957031 776.023438 454.257812 777.587891 454.257812 780.224609L454.257812 791 459.390625 791 459.390625 779.169922C459.390625 774.617188 456.859375 771.769531 452.78125 771.769531 449.951172 771.769531 447.964844 773.070312 446.998047 775.408203L446.892578 775.408203 446.892578 765.634766 441.759766 765.634766 441.759766 791 446.892578 791zM471.326172 791.386719C477.021484 791.386719 480.660156 787.730469 480.660156 781.578125L480.660156 781.542969C480.660156 775.443359 476.951172 771.769531 471.308594 771.769531 465.683594 771.769531 461.992188 775.478516 461.992188 781.542969L461.992188 781.578125C461.992188 787.712891 465.595703 791.386719 471.326172 791.386719zM471.34375 787.361328C468.8125 787.361328 467.212891 785.269531 467.212891 781.578125L467.212891 781.542969C467.212891 777.904297 468.830078 775.794922 471.308594 775.794922 473.804688 775.794922 475.439453 777.904297 475.439453 781.542969L475.439453 781.578125C475.439453 785.251953 473.839844 787.361328 471.34375 787.361328zM488.429688 791L488.429688 780.171875C488.429688 777.710938 489.888672 776.023438 492.191406 776.023438 494.494141 776.023438 495.654297 777.429688 495.654297 779.890625L495.654297 791 500.787109 791 500.787109 778.835938C500.787109 774.423828 498.431641 771.769531 494.283203 771.769531 491.435547 771.769531 489.501953 773.087891 488.535156 775.25L488.429688 775.25 488.429688 772.15625 483.296875 772.15625 483.296875 791 488.429688 791zM512.617188 791.386719C517.996094 791.386719 520.597656 788.205078 521.177734 785.427734L521.230469 785.234375 516.519531 785.234375 516.484375 785.339844C516.115234 786.394531 514.832031 787.554688 512.722656 787.554688 510.103516 787.554688 508.46875 785.796875 508.416016 782.791016L521.388672 782.791016 521.388672 781.208984C521.388672 775.513672 517.925781 771.769531 512.40625 771.769531 506.886719 771.769531 503.353516 775.601562 503.353516 781.595703L503.353516 781.613281C503.353516 787.642578 506.851562 791.386719 512.617188 791.386719zM516.466797 779.556641L508.46875 779.556641C508.802734 777.007812 510.384766 775.601562 512.494141 775.601562 514.621094 775.601562 516.150391 776.955078 516.466797 779.556641zM542.869141 791L542.869141 765.634766 537.595703 765.634766 531.039062 770.1875 531.039062 774.898438 537.507812 770.503906 537.613281 770.503906 537.613281 791 542.869141 791zM560.148438 791L560.148438 765.634766 554.875 765.634766 548.318359 770.1875 548.318359 774.898438 554.787109 770.503906 554.892578 770.503906 554.892578 791 560.148438 791zM578.570312 791L578.570312 783.001953 583.457031 783.001953C588.800781 783.001953 592.369141 779.556641 592.369141 774.335938L592.369141 774.300781C592.369141 769.080078 588.800781 765.634766 583.457031 765.634766L573.261719 765.634766 573.261719 791 578.570312 791zM582.15625 778.853516L578.570312 778.853516 578.570312 769.835938 582.15625 769.835938C585.197266 769.835938 586.990234 771.435547 586.990234 774.318359L586.990234 774.353516C586.990234 777.236328 585.197266 778.853516 582.15625 778.853516zM600.191406 791L600.191406 780.382812C600.191406 777.728516 601.667969 776.199219 604.199219 776.199219 604.9375 776.199219 605.640625 776.304688 606.0625 776.480469L606.0625 771.962891C605.675781 771.857422 605.148438 771.769531 604.585938 771.769531 602.353516 771.769531 600.753906 773.087891 600.208984 775.373047L600.103516 775.373047 600.103516 772.15625 595.058594 772.15625 595.058594 791 600.191406 791zM616.1875 791.386719C621.882812 791.386719 625.521484 787.730469 625.521484 781.578125L625.521484 781.542969C625.521484 775.443359 621.8125 771.769531 616.169922 771.769531 610.544922 771.769531 606.853516 775.478516 606.853516 781.542969L606.853516 781.578125C606.853516 787.712891 610.457031 791.386719 616.1875 791.386719zM616.205078 787.361328C613.673828 787.361328 612.074219 785.269531 612.074219 781.578125L612.074219 781.542969C612.074219 777.904297 613.691406 775.794922 616.169922 775.794922 618.666016 775.794922 620.300781 777.904297 620.300781 781.542969L620.300781 781.578125C620.300781 785.251953 618.701172 787.361328 616.205078 787.361328zM640.445312 791L640.445312 773.84375 640.585938 773.84375 647.441406 791 650.78125 791 657.619141 773.84375 657.777344 773.84375 657.777344 791 662.505859 791 662.505859 765.634766 656.371094 765.634766 649.164062 783.863281 649.058594 783.863281 641.851562 765.634766 635.716797 765.634766 635.716797 791 640.445312 791zM671.505859 791.298828C673.984375 791.298828 675.988281 790.121094 677.060547 788.1875L677.166016 788.1875 677.166016 791 682.298828 791 682.298828 778.080078C682.298828 774.283203 679.152344 771.769531 674.283203 771.769531 669.308594 771.769531 666.320312 774.265625 666.039062 777.746094L666.021484 777.957031 670.714844 777.957031 670.75 777.798828C670.996094 776.585938 672.15625 775.689453 674.072266 775.689453 676.076172 775.689453 677.166016 776.726562 677.166016 778.396484L677.166016 779.556641 672.507812 779.837891C667.832031 780.136719 665.177734 782.140625 665.177734 785.568359L665.177734 785.603516C665.177734 788.925781 667.726562 791.298828 671.505859 791.298828zM673.175781 787.554688C671.400391 787.554688 670.257812 786.728516 670.257812 785.339844L670.257812 785.304688C670.257812 783.96875 671.294922 783.125 673.28125 783.001953L677.166016 782.755859 677.166016 784.109375C677.166016 786.078125 675.478516 787.554688 673.175781 787.554688zM689.716797 791L693.25 784.460938 693.355469 784.460938 696.941406 791 702.513672 791 696.677734 781.472656 702.566406 772.15625 696.976562 772.15625 693.636719 778.519531 693.53125 778.519531 690.138672 772.15625 684.355469 772.15625 690.226562 781.613281 684.320312 791 689.716797 791zM251.742188 314.34375C253.289062 314.34375 254.484375 313.130859 254.484375 311.671875 254.484375 310.212891 253.289062 309 251.742188 309 250.195312 309 249 310.212891 249 311.671875 249 313.130859 250.195312 314.34375 251.742188 314.34375zM254.308594 335.613281L254.308594 316.769531 249.175781 316.769531 249.175781 335.613281 254.308594 335.613281zM263.484375 335.613281L263.484375 327.615234 268.371094 327.615234C273.714844 327.615234 277.283203 324.169922 277.283203 318.949219L277.283203 318.914062C277.283203 313.693359 273.714844 310.248047 268.371094 310.248047L258.175781 310.248047 258.175781 335.613281 263.484375 335.613281zM267.070312 323.466797L263.484375 323.466797 263.484375 314.449219 267.070312 314.449219C270.111328 314.449219 271.904297 316.048828 271.904297 318.931641L271.904297 318.966797C271.904297 321.849609 270.111328 323.466797 267.070312 323.466797zM285.228516 335.613281L285.228516 324.820312C285.228516 322.359375 286.6875 320.636719 288.955078 320.636719 291.292969 320.636719 292.59375 322.201172 292.59375 324.837891L292.59375 335.613281 297.726562 335.613281 297.726562 323.783203C297.726562 319.230469 295.195312 316.382812 291.117188 316.382812 288.287109 316.382812 286.300781 317.683594 285.333984 320.021484L285.228516 320.021484 285.228516 310.248047 280.095703 310.248047 280.095703 335.613281 285.228516 335.613281zM309.662109 336C315.357422 336 318.996094 332.34375 318.996094 326.191406L318.996094 326.15625C318.996094 320.056641 315.287109 316.382812 309.644531 316.382812 304.019531 316.382812 300.328125 320.091797 300.328125 326.15625L300.328125 326.191406C300.328125 332.326172 303.931641 336 309.662109 336zM309.679688 331.974609C307.148438 331.974609 305.548828 329.882812 305.548828 326.191406L305.548828 326.15625C305.548828 322.517578 307.166016 320.408203 309.644531 320.408203 312.140625 320.408203 313.775391 322.517578 313.775391 326.15625L313.775391 326.191406C313.775391 329.865234 312.175781 331.974609 309.679688 331.974609zM326.765625 335.613281L326.765625 324.785156C326.765625 322.324219 328.224609 320.636719 330.527344 320.636719 332.830078 320.636719 333.990234 322.042969 333.990234 324.503906L333.990234 335.613281 339.123047 335.613281 339.123047 323.449219C339.123047 319.037109 336.767578 316.382812 332.619141 316.382812 329.771484 316.382812 327.837891 317.701172 326.871094 319.863281L326.765625 319.863281 326.765625 316.769531 321.632812 316.769531 321.632812 335.613281 326.765625 335.613281zM350.953125 336C356.332031 336 358.933594 332.818359 359.513672 330.041016L359.566406 329.847656 354.855469 329.847656 354.820312 329.953125C354.451172 331.007812 353.167969 332.167969 351.058594 332.167969 348.439453 332.167969 346.804688 330.410156 346.751953 327.404297L359.724609 327.404297 359.724609 325.822266C359.724609 320.126953 356.261719 316.382812 350.742188 316.382812 345.222656 316.382812 341.689453 320.214844 341.689453 326.208984L341.689453 326.226562C341.689453 332.255859 345.1875 336 350.953125 336zM354.802734 324.169922L346.804688 324.169922C347.138672 321.621094 348.720703 320.214844 350.830078 320.214844 352.957031 320.214844 354.486328 321.568359 354.802734 324.169922zM374.296875 335.613281L379.833984 326.71875 380.009766 326.71875 385.582031 335.613281 391.628906 335.613281 383.419922 322.939453 383.419922 322.869141 391.734375 310.248047 385.810547 310.248047 380.449219 319.388672 380.255859 319.388672 374.859375 310.248047 368.619141 310.248047 376.634766 322.78125 376.634766 322.833984 368.566406 335.613281 374.296875 335.613281zM399.292969 335.613281L399.292969 329.021484 401.771484 329.021484 405.128906 335.613281 410.894531 335.613281 406.957031 328.300781C409.101562 327.404297 410.314453 325.3125 410.314453 323.009766L410.314453 322.974609C410.314453 319.089844 407.677734 316.769531 402.773438 316.769531L394.160156 316.769531 394.160156 335.613281 399.292969 335.613281zM402.193359 325.734375L399.292969 325.734375 399.292969 320.390625 402.158203 320.390625C403.951172 320.390625 405.076172 321.462891 405.076172 323.044922L405.076172 323.080078C405.076172 324.697266 403.96875 325.734375 402.193359 325.734375zM256.250977 357.34375C257.797852 357.34375 258.993164 356.130859 258.993164 354.671875 258.993164 353.212891 257.797852 352 256.250977 352 254.704102 352 253.508789 353.212891 253.508789 354.671875 253.508789 356.130859 254.704102 357.34375 256.250977 357.34375zM258.817383 378.613281L258.817383 359.769531 253.68457 359.769531 253.68457 378.613281 258.817383 378.613281zM267.993164 378.613281L267.993164 370.615234 272.879883 370.615234C278.223633 370.615234 281.791992 367.169922 281.791992 361.949219L281.791992 361.914062C281.791992 356.693359 278.223633 353.248047 272.879883 353.248047L262.68457 353.248047 262.68457 378.613281 267.993164 378.613281zM271.579102 366.466797L267.993164 366.466797 267.993164 357.449219 271.579102 357.449219C274.620117 357.449219 276.413086 359.048828 276.413086 361.931641L276.413086 361.966797C276.413086 364.849609 274.620117 366.466797 271.579102 366.466797zM289.737305 378.613281L289.737305 367.820312C289.737305 365.359375 291.196289 363.636719 293.463867 363.636719 295.801758 363.636719 297.102539 365.201172 297.102539 367.837891L297.102539 378.613281 302.235352 378.613281 302.235352 366.783203C302.235352 362.230469 299.704102 359.382812 295.625977 359.382812 292.795898 359.382812 290.80957 360.683594 289.842773 363.021484L289.737305 363.021484 289.737305 353.248047 284.604492 353.248047 284.604492 378.613281 289.737305 378.613281zM314.170898 379C319.866211 379 323.504883 375.34375 323.504883 369.191406L323.504883 369.15625C323.504883 363.056641 319.795898 359.382812 314.15332 359.382812 308.52832 359.382812 304.836914 363.091797 304.836914 369.15625L304.836914 369.191406C304.836914 375.326172 308.44043 379 314.170898 379zM314.188477 374.974609C311.657227 374.974609 310.057617 372.882812 310.057617 369.191406L310.057617 369.15625C310.057617 365.517578 311.674805 363.408203 314.15332 363.408203 316.649414 363.408203 318.28418 365.517578 318.28418 369.15625L318.28418 369.191406C318.28418 372.865234 316.68457 374.974609 314.188477 374.974609zM331.274414 378.613281L331.274414 367.785156C331.274414 365.324219 332.733398 363.636719 335.036133 363.636719 337.338867 363.636719 338.499023 365.042969 338.499023 367.503906L338.499023 378.613281 343.631836 378.613281 343.631836 366.449219C343.631836 362.037109 341.276367 359.382812 337.12793 359.382812 334.280273 359.382812 332.34668 360.701172 331.379883 362.863281L331.274414 362.863281 331.274414 359.769531 326.141602 359.769531 326.141602 378.613281 331.274414 378.613281zM355.461914 379C360.84082 379 363.442383 375.818359 364.022461 373.041016L364.075195 372.847656 359.364258 372.847656 359.329102 372.953125C358.959961 374.007812 357.676758 375.167969 355.567383 375.167969 352.948242 375.167969 351.313477 373.410156 351.260742 370.404297L364.233398 370.404297 364.233398 368.822266C364.233398 363.126953 360.770508 359.382812 355.250977 359.382812 349.731445 359.382812 346.198242 363.214844 346.198242 369.208984L346.198242 369.226562C346.198242 375.255859 349.696289 379 355.461914 379zM359.311523 367.169922L351.313477 367.169922C351.647461 364.621094 353.229492 363.214844 355.338867 363.214844 357.46582 363.214844 358.995117 364.568359 359.311523 367.169922zM385.713867 378.613281L385.713867 353.248047 380.44043 353.248047 373.883789 357.800781 373.883789 362.511719 380.352539 358.117188 380.458008 358.117188 380.458008 378.613281 385.713867 378.613281zM402.993164 378.613281L402.993164 353.248047 397.719727 353.248047 391.163086 357.800781 391.163086 362.511719 397.631836 358.117188 397.737305 358.117188 397.737305 378.613281 402.993164 378.613281z" transform="translate(114 67)"/>
  </g>
</svg>
