<?xml version="1.0" encoding="UTF-8"?>
<svg width="728px" height="1059px" viewBox="0 0 728 1059" version="1.1" xmlns="http://www.w3.org/2000/svg" xmlns:xlink="http://www.w3.org/1999/xlink">
    <!-- Generator: Sketch 41.2 (35397) - http://www.bohemiancoding.com/sketch -->
    <title>MacBook Overview</title>
    <desc>Created with Sketch.</desc>
    <defs>
        <linearGradient x1="0%" y1="0%" x2="100%" y2="100%" id="linearGradient-1">
            <stop stop-color="#F5D551" offset="0%"></stop>
            <stop stop-color="#F5515F" offset="100%"></stop>
        </linearGradient>
    </defs>
    <g id="Overview" stroke="none" stroke-width="1" fill="none" fill-rule="evenodd">
        <g id="MacBook-Overview">
            <rect id="Background" fill="url(#linearGradient-1)" x="0" y="0" width="728" height="1059"></rect>
            <g id="MacBook-Silver-+-MacBook-Gold-+-MacBook-Pro-15’’-Copy" transform="translate(107.000000, 281.000000)">
                <g id="MacBook-Silver-+-MacBook-Gold-+-MacBook">
                    <g id="MacBook-Silver-Copy-+-MacBook-Space-Gray" transform="translate(0.000000, 59.000000)">
                        <g id="MacBook-Silver-Copy" transform="translate(270.000000, 0.000000)">
                            <g id="Full-Screen" transform="translate(22.403658, 0.000000)">
                                <path d="M200.16228,7.39827319 C200.16228,3.35887839 196.872062,0.0794321267 192.819481,0.0794321267 L7.37320379,0.0794321267 C3.32062214,0.0794321267 0.0304049641,3.35887839 0.0304049641,7.39827319 L0.0304049641,133.359602 C0.0304049641,137.398997 3.32062214,140.678443 7.37320379,140.678443 L192.819481,140.678443 C196.872062,140.678443 200.16228,137.398997 200.16228,133.359602 L200.16228,7.39827319 L200.16228,7.39827319 Z" id="Metal-Frame" fill="#D5D2CF"></path>
                                <path d="M199.516574,7.37163631 C199.516574,3.70212726 196.527526,0.722944005 192.845965,0.722944005 L7.34687949,0.722944005 C3.66531842,0.722944005 0.676270411,3.70212726 0.676270411,7.37163631 L0.676270411,133.386399 C0.676270411,137.055908 3.66531842,140.035091 7.34687949,140.035091 L192.845965,140.035091 C196.527526,140.035091 199.516574,137.055908 199.516574,133.386399 L199.516574,7.37163631 L199.516574,7.37163631 Z" id="Black-Frame" fill="#343434"></path>
                                <path d="M199.161316,135.530667 L1.03136839,135.530667 C0.801170803,134.857727 0.676190398,134.136378 0.676190398,133.386239 L0.676190398,130.382891 L199.516654,130.382891 L199.516654,133.386239 C199.516654,134.136378 199.391674,134.857727 199.161476,135.530667 L199.161316,135.530667 Z" id="Plastic-Band" fill="#3E3E3E"></path>
                                <g id="Screen" transform="translate(7.601241, 10.208145)" fill="#343434">
                                    <path d="M0.320052253,115.386329 C0.218675702,115.366232 0.217395493,115.365753 0.131461463,115.308492 L0.0736120183,115.222281 L0.0533687133,115.120519 L0.0533687133,0.278889706 C0.0735320052,0.177845023 0.0740120836,0.176569005 0.131461463,0.0909162896 L0.217955585,0.0332562217 L0.320052253,0.0130791855 L184.67015,0.0130791855 L184.772247,0.0332562217 L184.858741,0.0909162896 L184.91659,0.177127262 L184.936834,0.278889706 L184.936834,115.120519 L184.91659,115.222281 C184.897307,115.250992 184.883305,115.284008 184.858741,115.308492 C184.79113,115.375882 184.758485,115.368864 184.67015,115.386329 L0.320052253,115.386329 L0.320052253,115.386329 Z" id="Screen-Frame"></path>
                                    <rect id="Screen---Off" x="0.320052253" y="0.278969457" width="184.350098" height="114.841629"></rect>
                                </g>
                            </g>
                            <g id="Body" transform="translate(0.000000, 135.497172)">
                                <path d="M28.082985,5.50282805 C16.9001992,5.50282805 3.23924886,3.57899152 0,1.64199604 L0,0.957013575 L245,0.957013575 L245,1.64199604 C241.760751,3.57899152 228.099801,5.50282805 216.917015,5.50282805 L28.082985,5.50282805 L28.082985,5.50282805 Z" id="Body-Bottom" fill="#A9A9A9"></path>
                                <rect id="Body-Top" fill="#D5D2CF" x="0" y="0.0334954751" width="245" height="1.60866007"></rect>
                                <path d="M146.063847,0.0334954751 L146.063847,0.916978507 C146.063847,1.67230147 145.448547,2.28558767 144.690663,2.28558767 L100.309177,2.28558767 C99.5512933,2.28558767 98.9359928,1.67230147 98.9359928,0.916978507 L98.9359928,0.0334954751 L146.063847,0.0334954751 L146.063847,0.0334954751 Z" id="Hollow" fill="#949494"></path>
                            </g>
                            <g id="Sensors" transform="translate(121.539843, 4.386312)" fill="#3E3E3E">
                                <ellipse id="Camera" cx="0.96015676" cy="0.996729638" rx="0.96015676" ry="0.957013575"></ellipse>
                            </g>
                        </g>
                        <g id="MacBook-Space-Gray">
                            <g id="Full-Screen" transform="translate(22.403658, 0.000000)">
                                <path d="M200.16228,7.39827319 C200.16228,3.35887839 196.872062,0.0794321267 192.819481,0.0794321267 L7.37320379,0.0794321267 C3.32062214,0.0794321267 0.0304049641,3.35887839 0.0304049641,7.39827319 L0.0304049641,133.359602 C0.0304049641,137.398997 3.32062214,140.678443 7.37320379,140.678443 L192.819481,140.678443 C196.872062,140.678443 200.16228,137.398997 200.16228,133.359602 L200.16228,7.39827319 L200.16228,7.39827319 Z" id="Metal-Frame" fill="#9D9D9D"></path>
                                <path d="M199.516574,7.37163631 C199.516574,3.70212726 196.527526,0.722944005 192.845965,0.722944005 L7.34687949,0.722944005 C3.66531842,0.722944005 0.676270411,3.70212726 0.676270411,7.37163631 L0.676270411,133.386399 C0.676270411,137.055908 3.66531842,140.035091 7.34687949,140.035091 L192.845965,140.035091 C196.527526,140.035091 199.516574,137.055908 199.516574,133.386399 L199.516574,7.37163631 L199.516574,7.37163631 Z" id="Black-Frame" fill="#343434"></path>
                                <path d="M199.161316,135.530667 L1.03136839,135.530667 C0.801170803,134.857727 0.676190398,134.136378 0.676190398,133.386239 L0.676190398,130.382891 L199.516654,130.382891 L199.516654,133.386239 C199.516654,134.136378 199.391674,134.857727 199.161476,135.530667 L199.161316,135.530667 Z" id="Plastic-Band" fill="#3E3E3E"></path>
                                <g id="Screen" transform="translate(7.601241, 10.208145)" fill="#343434">
                                    <path d="M0.320052253,115.386329 C0.218675702,115.366232 0.217395493,115.365753 0.131461463,115.308492 L0.0736120183,115.222281 L0.0533687133,115.120519 L0.0533687133,0.278889706 C0.0735320052,0.177845023 0.0740120836,0.176569005 0.131461463,0.0909162896 L0.217955585,0.0332562217 L0.320052253,0.0130791855 L184.67015,0.0130791855 L184.772247,0.0332562217 L184.858741,0.0909162896 L184.91659,0.177127262 L184.936834,0.278889706 L184.936834,115.120519 L184.91659,115.222281 C184.897307,115.250992 184.883305,115.284008 184.858741,115.308492 C184.79113,115.375882 184.758485,115.368864 184.67015,115.386329 L0.320052253,115.386329 L0.320052253,115.386329 Z" id="Screen-Frame"></path>
                                    <rect id="Screen---Off" x="0.320052253" y="0.278969457" width="184.350098" height="114.841629"></rect>
                                </g>
                            </g>
                            <g id="Body" transform="translate(0.000000, 135.497172)">
                                <path d="M28.082985,5.50282805 C16.9001992,5.50282805 3.23924886,3.57899152 0,1.64199604 L0,0.957013575 L245,0.957013575 L245,1.64199604 C241.760751,3.57899152 228.099801,5.50282805 216.917015,5.50282805 L28.082985,5.50282805 L28.082985,5.50282805 Z" id="Body-Bottom" fill="#838383"></path>
                                <rect id="Body-Top" fill="#9D9D9D" x="0" y="0.0334954751" width="245" height="1.60866007"></rect>
                                <path d="M146.063847,0.0334954751 L146.063847,0.916978507 C146.063847,1.67230147 145.448547,2.28558767 144.690663,2.28558767 L100.309177,2.28558767 C99.5512933,2.28558767 98.9359928,1.67230147 98.9359928,0.916978507 L98.9359928,0.0334954751 L146.063847,0.0334954751 L146.063847,0.0334954751 Z" id="Hollow" fill="#707070"></path>
                            </g>
                            <g id="Sensors" transform="translate(121.539843, 4.386312)" fill="#3E3E3E">
                                <ellipse id="Camera" cx="0.96015676" cy="0.996729638" rx="0.96015676" ry="0.957013575"></ellipse>
                            </g>
                        </g>
                    </g>
                    <path d="M186.88,2.48 L184.72,2.48 L184.28,30 L185.64,30 L185.88,10.88 C185.92,8.56 185.92,6.28 185.84,3.28 C186.84,6.28 187.68,8.56 188.56,10.88 L195.6,29.68 L197.4,29.68 L204.64,10.88 C205.52,8.56 206.4,6.28 207.36,3.6 C207.32,6.28 207.32,8.56 207.36,10.88 L207.64,30 L209.08,30 L208.64,2.48 L206.44,2.48 L198.76,22.52 C198,24.48 197.28,26.48 196.6,28.48 C195.96,26.48 195.24,24.48 194.48,22.52 L186.88,2.48 Z M216.24,13.32 C217.84,12.36 219.44,11.88 220.84,11.88 C223.64,11.88 225.68,13.2 225.68,16.48 L225.68,19 C224.76,18.8 223.92,18.72 222.72,18.72 C218.6,18.72 214.64,20.76 214.64,25.2 C214.64,28.48 217.12,30.4 219.72,30.4 C222.16,30.4 224.6,29.08 225.72,26.2 L225.88,30 L227.04,30 L227.04,16.24 C227.04,12.6 224.6,10.64 221.24,10.64 C219.2,10.64 217.64,11.08 216.16,12 L216.24,13.32 Z M225.68,22.2 C225.68,26.76 222.88,29.16 220.24,29.16 C217.92,29.16 216.08,27.6 216.08,24.96 C216.08,22.24 218.68,19.96 222.6,19.96 C223.72,19.96 224.76,20.04 225.68,20.2 L225.68,22.2 Z M245.24,28.24 C244.16,28.76 242.6,29.16 241.24,29.16 C237.2,29.16 233.8,26.76 233.8,20.44 C233.8,14.64 237.44,11.88 241.36,11.88 C243,11.88 244.12,12.24 245.32,12.84 L245.48,11.52 C244.4,11 243.24,10.64 241.24,10.64 C236.4,10.64 232.36,13.96 232.36,20.68 C232.36,27.4 236.4,30.4 240.68,30.4 C242.64,30.4 244,30.16 245.32,29.52 L245.24,28.24 Z M250.24,30 C251.52,30.28 252.92,30.4 254.08,30.4 C260.04,30.4 264.16,27.64 264.16,22.92 C264.16,19.2 261.24,16.56 256.92,16.08 C260.32,15.64 264,13.24 264,9 C264,4.92 260.84,2.08 254.32,2.08 C253.2,2.08 251.92,2.2 250.24,2.52 L250.24,30 Z M251.6,15.76 L251.6,3.6 C252.64,3.44 253.52,3.36 254.4,3.36 C259.88,3.36 262.52,5.52 262.52,9.32 C262.52,13.56 257.72,15.76 253.4,15.76 L251.6,15.76 Z M251.6,17.04 L253.88,17.04 C259.6,17.04 262.64,19.24 262.64,23.24 C262.64,26.84 259.08,29.12 254.64,29.12 C253.8,29.12 252.64,29.04 251.6,28.88 L251.6,17.04 Z M276.28,10.64 C271.28,10.64 268.4,14.96 268.4,20.52 C268.4,26.04 271.28,30.4 276.28,30.4 C281.28,30.4 284.16,26.04 284.16,20.52 C284.16,14.96 281.28,10.64 276.28,10.64 L276.28,10.64 Z M276.28,11.88 C279.84,11.88 282.72,14.92 282.72,20.52 C282.72,26.12 279.84,29.16 276.28,29.16 C272.72,29.16 269.84,26.12 269.84,20.52 C269.84,14.92 272.72,11.88 276.28,11.88 L276.28,11.88 Z M296.04,10.64 C291.04,10.64 288.16,14.96 288.16,20.52 C288.16,26.04 291.04,30.4 296.04,30.4 C301.04,30.4 303.92,26.04 303.92,20.52 C303.92,14.96 301.04,10.64 296.04,10.64 L296.04,10.64 Z M296.04,11.88 C299.6,11.88 302.48,14.92 302.48,20.52 C302.48,26.12 299.6,29.16 296.04,29.16 C292.48,29.16 289.6,26.12 289.6,20.52 C289.6,14.92 292.48,11.88 296.04,11.88 L296.04,11.88 Z M321.88,30 L312.76,20.48 L321.76,10.96 L320.04,10.96 L310.64,21 L310.64,0.6 L309.28,0.6 L309.28,30 L310.64,30 L310.64,22.44 L311.68,21.36 L319.84,30 L321.88,30 Z" id="MacBook" fill="#FFFFFF"></path>
                </g>
            </g>
            <g id="MacBook-Pro-13-inches-+-MacBook-Pro-13’’-+-MacBook-Pro-15-inches-+-MacBook-Pro-15’’" transform="translate(55.000000, 544.000000)">
                <g id="MacBook-Pro-13-inches-+-MacBook-Pro-13’’">
                    <g id="MacBook-Pro-13-inches-Copy" transform="translate(28.000000, 85.000000)">
                        <g id="MacBook-Pro-13-Screen" transform="translate(18.894819, 0.000000)">
                            <g id="Frames">
                                <path d="M166.151115,6.64123494 C166.151115,2.97580501 163.168936,0 159.495735,0 L6.69509105,0 C3.02189011,0 0.039711146,2.97580501 0.039711146,6.64123494 L0.039711146,108.152393 C0.039711146,111.817743 3.02189011,114.793628 6.69509105,114.793628 L159.495735,114.793628 C163.168936,114.793628 166.151115,111.817743 166.151115,108.152393 L166.151115,6.64123494 L166.151115,6.64123494 Z" id="Metal-Frame" fill="#D5D2CF"></path>
                                <path d="M165.638713,6.65369804 C165.638713,3.26325525 162.880149,0.510667569 159.482444,0.510667569 L6.70742072,0.510667569 C3.30971586,0.510667569 0.551152276,3.26325525 0.551152276,6.65369804 L0.551152276,108.037828 C0.551152276,111.428271 3.30971586,114.180858 6.70742072,114.180858 L159.482444,114.180858 C162.880149,114.180858 165.638713,111.428271 165.638713,108.037828 L165.638713,6.65369804 L165.638713,6.65369804 Z" id="Pastic-Band" fill="#3E3E3E"></path>
                                <path d="M165.375306,94.4423426 C165.414137,94.6313663 165.434473,94.827021 165.434473,95.0273893 L165.434473,105.246173 C165.434473,106.850238 164.129369,108.152552 162.521868,108.152552 L3.66847724,108.152552 C2.06097645,108.152552 0.755872841,106.850238 0.755872841,105.246173 L0.755872841,95.0273893 C0.755872841,94.827021 0.776208791,94.6313663 0.815039246,94.4423426 C0.776048666,94.1646391 0.755872841,93.8808639 0.755872841,93.5925349 L0.755872841,6.79822207 C0.755872841,3.44069465 3.48753532,0.714870684 6.85217425,0.714870684 L159.338171,0.714870684 C162.70281,0.714870684 165.434473,3.44069465 165.434473,6.79822207 L165.434473,93.5925349 C165.434473,93.8808639 165.414297,94.1646391 165.375306,94.4423426 L165.375306,94.4423426 Z" id="Thin-Plastic-Frame" fill="#4D4D4D"></path>
                                <path d="M164.912543,94.3280975 C164.919028,94.4001598 164.922311,94.4731009 164.922311,94.5469208 L164.922311,105.216054 C164.922311,106.554879 163.832976,107.641885 162.491284,107.641885 L3.69874097,107.641885 C2.35704867,107.641885 1.26771429,106.554879 1.26771429,105.216054 L1.26771429,94.5469208 C1.26771429,94.4731009 1.27099686,94.4001598 1.27748195,94.3280975 C1.27099686,94.2172079 1.26771429,94.1054394 1.26771429,93.992872 L1.26771429,6.90855247 C1.26771429,3.77208531 3.81955573,1.22561814 6.96274097,1.22561814 L159.227765,1.22561814 C162.37095,1.22561814 164.922791,3.77208531 164.922791,6.90855247 L164.922791,93.992872 C164.922791,94.1054394 164.919509,94.2172079 164.913024,94.3280975 L164.912543,94.3280975 Z" id="Black-Frame" fill="#343434"></path>
                            </g>
                            <g id="Screen" transform="translate(6.084772, 7.749492)" fill="#343434">
                                <path d="M153.991177,0.318048747 C153.991177,0.186147596 153.883813,0.0790927556 153.75163,0.0790927556 L0.269651491,0.0790927556 C0.137467818,0.0790927556 0.0301036107,0.186147596 0.0301036107,0.318048747 L0.0301036107,96.1896534 C0.0301036107,96.3215545 0.137467818,96.4286892 0.269651491,96.4286892 L153.75163,96.4286892 C153.883813,96.4286892 153.991177,96.3215545 153.991177,96.1896534 L153.991177,0.318048747 L153.991177,0.318048747 Z" id="Screen-Frame"></path>
                                <rect id="Screen---Off" x="0.150117739" y="0.318767773" width="153.720565" height="95.8700068"></rect>
                            </g>
                            <g id="Sensors" transform="translate(82.064364, 3.435342)" fill="#3E3E3E">
                                <path d="M1.03120879,1.95407041 C1.56178493,1.95407041 1.99196232,1.52481246 1.99196232,0.995370345 C1.99196232,0.465848341 1.56178493,0.0366702776 1.03120879,0.0366702776 C0.500632653,0.0366702776 0.070455259,0.465848341 0.070455259,0.995370345 C0.070455259,1.52481246 0.500632653,1.95407041 1.03120879,1.95407041 L1.03120879,1.95407041 Z" id="Camera"></path>
                            </g>
                            <polygon id="Pivoting-Support" fill="#4D4D4D" points="145.57898 108.86998 20.6121664 108.86998 20.3051256 111.116853 145.88602 111.116853"></polygon>
                        </g>
                        <g id="MacBook-Pro-13-Body" transform="translate(0.000000, 110.889641)">
                            <path d="M10.7465887,7.06961408 C6.8890832,7.06961408 1.50830298,5.54703859 0,3.90366689 L203.979984,3.90366689 C202.471681,5.54703859 197.090901,7.06961408 193.233396,7.06961408 L10.7462684,7.06961408 L10.7465887,7.06961408 Z" id="Bottom-Body" fill="#A9A9A9"></path>
                            <path d="M203.979984,3.90430603 C203.853965,4.04155992 203.700965,4.1780149 203.524027,4.31279215 L0.455957614,4.31279215 C0.279018838,4.1780149 0.126018838,4.04155992 2.84217094e-14,3.90430603 L2.84217094e-14,3.80228436 L2.84217094e-14,0.0233283683 L203.979984,0.0233283683 L203.979984,3.90430603 L203.979984,3.90430603 Z" id="Top-Body" fill="#D5D2CF"></path>
                            <path d="M87.8657143,2.57650643 C86.8107268,2.57650643 85.7163485,1.25429926 85.7163485,0.0232484766 L118.263155,0.0232484766 C118.263155,1.25429926 117.168777,2.57650643 116.11379,2.57650643 L87.8657143,2.57650643 L87.8657143,2.57650643 Z" id="Hollow" fill="#949494"></path>
                        </g>
                    </g>
                    <path d="M102.3,58 L103.15,58 L103.15,50.425 L104.45,50.425 C107.825,50.425 108.6,51.6 109.075,53.675 C109.35,54.925 109.8,56.65 110.175,58 L111.15,58 C110.775,56.825 110.225,54.8 109.875,53.275 C109.425,51.35 108.525,50.175 106.5,49.925 C108.8,49.575 111.125,47.85 111.125,45.2 C111.125,42.5 109.175,40.55 105,40.55 C104.175,40.55 103.275,40.625 102.3,40.85 L102.3,58 Z M103.15,49.65 L103.15,41.525 C103.875,41.4 104.5,41.35 105.05,41.35 C108.65,41.35 110.175,42.85 110.175,45.25 C110.175,48.1 107.35,49.65 104.225,49.65 L103.15,49.65 Z M121.425,56.65 C120.475,57.2 119.4,57.475 118.375,57.475 C115.8,57.475 114.325,55.675 114.325,52.25 L122.1,52.25 C122.15,51.95 122.175,51.55 122.175,51.25 C122.175,48.575 120.975,45.9 118.05,45.9 C115.5,45.9 113.425,48.45 113.425,52.35 C113.425,56.2 115.4,58.25 118.025,58.25 C119.45,58.25 120.625,57.975 121.475,57.45 L121.425,56.65 Z M114.35,51.5 C114.525,48.55 116.125,46.7 118.025,46.7 C120,46.7 121.325,48.25 121.325,51.5 L114.35,51.5 Z M127.3,46.25 L127.3,43 L126.45,43 L126.45,46.25 L124.55,46.25 L124.55,46.975 L126.45,46.975 L126.45,55.425 C126.45,57.45 127.575,58.25 128.925,58.25 C129.55,58.25 130.1,58.125 130.425,57.925 L130.375,57.2 C130.025,57.4 129.65,57.5 129.075,57.5 C128.075,57.5 127.3,56.85 127.3,55.3 L127.3,46.975 L130.275,46.975 L130.275,46.25 L127.3,46.25 Z M133.675,42.275 C133.3,42.275 133,42.575 133,42.95 C133,43.325 133.3,43.625 133.675,43.625 C134.05,43.625 134.35,43.325 134.35,42.95 C134.35,42.575 134.05,42.275 133.675,42.275 Z M133.25,58 L134.1,58 L134.1,46.15 L133.25,46.15 L133.25,58 Z M139.025,46.15 L138.3,46.15 L138.3,58 L139.15,58 L139.15,50.95 C139.15,49.025 140.625,46.7 142.725,46.7 C144.7,46.7 145.825,48.1 145.825,50.35 L145.825,58 L146.675,58 L146.675,50 C146.675,47.7 145.35,45.9 142.825,45.9 C141.1,45.9 139.625,47.125 139.15,48.7 L139.025,46.15 Z M151.15,47.575 C152.15,46.975 153.15,46.675 154.025,46.675 C155.775,46.675 157.05,47.5 157.05,49.55 L157.05,51.125 C156.475,51 155.95,50.95 155.2,50.95 C152.625,50.95 150.15,52.225 150.15,55 C150.15,57.05 151.7,58.25 153.325,58.25 C154.85,58.25 156.375,57.425 157.075,55.625 L157.175,58 L157.9,58 L157.9,49.4 C157.9,47.125 156.375,45.9 154.275,45.9 C153,45.9 152.025,46.175 151.1,46.75 L151.15,47.575 Z M157.05,53.125 C157.05,55.975 155.3,57.475 153.65,57.475 C152.2,57.475 151.05,56.5 151.05,54.85 C151.05,53.15 152.675,51.725 155.125,51.725 C155.825,51.725 156.475,51.775 157.05,51.875 L157.05,53.125 Z" id="Retina" fill="#FFFFFF"></path>
                    <path d="M2.6,1.88 L0.44,1.88 L0,29.4 L1.36,29.4 L1.6,10.28 C1.64,7.96 1.64,5.68 1.56,2.68 C2.56,5.68 3.4,7.96 4.28,10.28 L11.32,29.08 L13.12,29.08 L20.36,10.28 C21.24,7.96 22.12,5.68 23.08,3 C23.04,5.68 23.04,7.96 23.08,10.28 L23.36,29.4 L24.8,29.4 L24.36,1.88 L22.16,1.88 L14.48,21.92 C13.72,23.88 13,25.88 12.32,27.88 C11.68,25.88 10.96,23.88 10.2,21.92 L2.6,1.88 Z M31.96,12.72 C33.56,11.76 35.16,11.28 36.56,11.28 C39.36,11.28 41.4,12.6 41.4,15.88 L41.4,18.4 C40.48,18.2 39.64,18.12 38.44,18.12 C34.32,18.12 30.36,20.16 30.36,24.6 C30.36,27.88 32.84,29.8 35.44,29.8 C37.88,29.8 40.32,28.48 41.44,25.6 L41.6,29.4 L42.76,29.4 L42.76,15.64 C42.76,12 40.32,10.04 36.96,10.04 C34.92,10.04 33.36,10.48 31.88,11.4 L31.96,12.72 Z M41.4,21.6 C41.4,26.16 38.6,28.56 35.96,28.56 C33.64,28.56 31.8,27 31.8,24.36 C31.8,21.64 34.4,19.36 38.32,19.36 C39.44,19.36 40.48,19.44 41.4,19.6 L41.4,21.6 Z M60.96,27.64 C59.88,28.16 58.32,28.56 56.96,28.56 C52.92,28.56 49.52,26.16 49.52,19.84 C49.52,14.04 53.16,11.28 57.08,11.28 C58.72,11.28 59.84,11.64 61.04,12.24 L61.2,10.92 C60.12,10.4 58.96,10.04 56.96,10.04 C52.12,10.04 48.08,13.36 48.08,20.08 C48.08,26.8 52.12,29.8 56.4,29.8 C58.36,29.8 59.72,29.56 61.04,28.92 L60.96,27.64 Z M65.96,29.4 C67.24,29.68 68.64,29.8 69.8,29.8 C75.76,29.8 79.88,27.04 79.88,22.32 C79.88,18.6 76.96,15.96 72.64,15.48 C76.04,15.04 79.72,12.64 79.72,8.4 C79.72,4.32 76.56,1.48 70.04,1.48 C68.92,1.48 67.64,1.6 65.96,1.92 L65.96,29.4 Z M67.32,15.16 L67.32,3 C68.36,2.84 69.24,2.76 70.12,2.76 C75.6,2.76 78.24,4.92 78.24,8.72 C78.24,12.96 73.44,15.16 69.12,15.16 L67.32,15.16 Z M67.32,16.44 L69.6,16.44 C75.32,16.44 78.36,18.64 78.36,22.64 C78.36,26.24 74.8,28.52 70.36,28.52 C69.52,28.52 68.36,28.44 67.32,28.28 L67.32,16.44 Z M92,10.04 C87,10.04 84.12,14.36 84.12,19.92 C84.12,25.44 87,29.8 92,29.8 C97,29.8 99.88,25.44 99.88,19.92 C99.88,14.36 97,10.04 92,10.04 L92,10.04 Z M92,11.28 C95.56,11.28 98.44,14.32 98.44,19.92 C98.44,25.52 95.56,28.56 92,28.56 C88.44,28.56 85.56,25.52 85.56,19.92 C85.56,14.32 88.44,11.28 92,11.28 L92,11.28 Z M111.76,10.04 C106.76,10.04 103.88,14.36 103.88,19.92 C103.88,25.44 106.76,29.8 111.76,29.8 C116.76,29.8 119.64,25.44 119.64,19.92 C119.64,14.36 116.76,10.04 111.76,10.04 L111.76,10.04 Z M111.76,11.28 C115.32,11.28 118.2,14.32 118.2,19.92 C118.2,25.52 115.32,28.56 111.76,28.56 C108.2,28.56 105.32,25.52 105.32,19.92 C105.32,14.32 108.2,11.28 111.76,11.28 L111.76,11.28 Z M137.6,29.4 L128.48,19.88 L137.48,10.36 L135.76,10.36 L126.36,20.4 L126.36,0 L125,0 L125,29.4 L126.36,29.4 L126.36,21.84 L127.4,20.76 L135.56,29.4 L137.6,29.4 Z M151.08,29.4 L152.44,29.4 L152.44,17.28 C153.16,17.36 154,17.4 154.72,17.4 C160.12,17.4 165.04,14.4 165.04,9 C165.04,4.8 162.08,1.48 155.4,1.48 C154.08,1.48 152.64,1.6 151.08,1.96 L151.08,29.4 Z M152.44,3.04 C153.6,2.84 154.6,2.76 155.48,2.76 C161.24,2.76 163.52,5.36 163.52,9.2 C163.52,13.24 159.88,16.16 154.24,16.16 C153.76,16.16 152.96,16.08 152.44,16 L152.44,3.04 Z M170.36,10.44 L169.2,10.44 L169.2,29.4 L170.56,29.4 L170.56,18.44 C170.56,14.88 171.96,11.32 174.56,11.32 C174.96,11.32 175.36,11.36 175.64,11.48 L175.8,10.2 C175.6,10.08 175.12,10.04 174.8,10.04 C172.8,10.04 170.96,11.8 170.52,14.2 L170.36,10.44 Z M186.48,10.04 C181.48,10.04 178.6,14.36 178.6,19.92 C178.6,25.44 181.48,29.8 186.48,29.8 C191.48,29.8 194.36,25.44 194.36,19.92 C194.36,14.36 191.48,10.04 186.48,10.04 L186.48,10.04 Z M186.48,11.28 C190.04,11.28 192.92,14.32 192.92,19.92 C192.92,25.52 190.04,28.56 186.48,28.56 C182.92,28.56 180.04,25.52 180.04,19.92 C180.04,14.32 182.92,11.28 186.48,11.28 L186.48,11.28 Z M218.28,29.4 L218.28,2.92 L217.6,2.92 L209.8,7.68 L209.88,9.08 L216.92,4.92 L216.92,29.4 L218.28,29.4 Z M227.6,5.84 C229.2,4.48 231.04,3.8 232.68,3.8 C236.6,3.8 238.36,5.92 238.36,8.92 C238.36,12.56 234.6,15.08 230.32,15.24 L230.32,16.52 C235.88,16.52 238.48,19.08 238.48,22.76 C238.48,26.08 235.56,28.52 231.96,28.52 C229.96,28.52 228.24,28.04 226.32,26.72 L226.2,28.16 C227.72,29.32 229.64,29.8 231.8,29.8 C236.36,29.8 239.92,26.72 239.92,22.64 C239.92,18.84 237.32,16.16 233.2,15.68 C236.68,15 239.8,12.2 239.8,8.6 C239.8,5.24 237.4,2.52 233.08,2.52 C230.8,2.52 228.96,3.24 227.52,4.4 L227.6,5.84 Z M244.76,10.68 L249.48,0 L247.88,0.08 L243.68,10.88 L244.76,10.68 Z M253.32,10.68 L258.04,0 L256.44,0.08 L252.24,10.88 L253.32,10.68 Z" id="MacBook-Pro-13’’" fill="#FFFFFF"></path>
                </g>
                <g id="MacBook-Pro-15-inches-+-MacBook-Pro-15’’" transform="translate(360.000000, 0.000000)">
                    <g id="MacBook-Pro-15-inches-Copy" transform="translate(16.000000, 80.000000)">
                        <g id="MacBook-Pro-13-Screen" transform="translate(20.971086, 0.000000)">
                            <g id="Frames">
                                <path d="M184.976185,6.50863158 C184.976185,2.91639351 182.064486,0 178.47803,0 L6.54153808,0 C2.9551622,0 0.0433829337,2.91639351 0.0433829337,6.50863158 L0.0433829337,121.378154 C0.0433829337,124.970312 2.9551622,127.886706 6.54153808,127.886706 L178.47803,127.886706 C182.064486,127.886706 184.976185,124.970312 184.976185,121.378154 L184.976185,6.50863158 L184.976185,6.50863158 Z" id="Metal-Frame" fill="#D5D2CF"></path>
                                <path d="M184.408685,6.48914994 C184.408685,3.22168605 181.760245,0.568895961 178.49804,0.568895961 L6.52312835,0.568895961 C3.26092384,0.568895961 0.612403738,3.22168605 0.612403738,6.48914994 L0.612403738,121.397155 C0.612403738,124.664619 3.26092384,127.317409 6.52312835,127.317409 L178.49804,127.317409 C181.760245,127.317409 184.408685,124.664619 184.408685,121.397155 L184.408685,6.48914994 L184.408685,6.48914994 Z" id="Plastic-Band" fill="#3E3E3E"></path>
                                <path d="M184.295025,6.57204712 L184.295025,118.282017 C184.295025,119.938918 182.951995,121.284113 181.29776,121.284113 L3.72308815,121.284113 C2.06885367,121.284113 0.725823695,119.938918 0.725823695,118.282017 L0.725823695,6.57204712 C0.725823695,3.32157956 3.36057652,0.682659119 6.60573202,0.682659119 L178.415757,0.682659119 C181.660912,0.682659119 184.295585,3.32157956 184.295585,6.57204712 L184.295025,6.57204712 Z" id="Thin-Plastic-Frame" fill="#4D4D4D"></path>
                                <path d="M183.840384,6.5609033 L183.840384,118.157029 C183.840384,119.631942 182.644952,120.829301 181.172414,120.829301 L3.84747391,120.829301 C2.37501551,120.829301 1.17950353,119.631942 1.17950353,118.157029 L1.17950353,6.5609033 C1.17950353,3.5677858 3.60558604,1.13779192 6.59388575,1.13779192 L178.425522,1.13779192 C181.413822,1.13779192 183.839904,3.5677858 183.839904,6.5609033 L183.840384,6.5609033 Z" id="Black-Frame" fill="#343434"></path>
                            </g>
                            <g id="Screen" transform="translate(5.683004, 7.455936)" fill="#343434">
                                <path d="M173.633389,0.372155447 C173.633389,0.196259486 173.490833,0.0533941248 173.31514,0.0533941248 L0.339699577,0.0533941248 C0.164086742,0.0533941248 0.0214513399,0.196259486 0.0214513399,0.372155447 L0.0214513399,108.68767 C0.0214513399,108.863646 0.164086742,109.006431 0.339699577,109.006431 L173.31514,109.006431 C173.490833,109.006431 173.633389,108.863646 173.633389,108.68767 L173.633389,0.372155447 L173.633389,0.372155447 Z" id="Screen-Frame"></path>
                                <rect id="Screen---Off" x="0.381481664" y="0.39476377" width="172.891396" height="108.231334"></rect>
                            </g>
                            <path d="M92.5105042,5.43168972 C93.0432659,5.43168972 93.4751742,4.99908507 93.4751742,4.4654645 C93.4751742,3.93184394 93.0432659,3.49923929 92.5105042,3.49923929 C91.9778226,3.49923929 91.5458343,3.93184394 91.5458343,4.4654645 C91.5458343,4.99908507 91.9778226,5.43168972 92.5105042,5.43168972 L92.5105042,5.43168972 Z" id="Camera" fill="#3E3E3E"></path>
                            <polygon id="Pivoting-Support" fill="#4D4D4D" points="164.960804 121.898947 20.0594041 121.898947 19.7510811 124.163387 165.268807 124.163387 164.960564 121.898947"></polygon>
                        </g>
                        <g id="MacBook-Pro-15-Body" transform="translate(0.000000, 123.784578)">
                            <path d="M10.7904242,7.16090575 C6.91717666,7.16090575 1.51448061,5.62642595 0,3.97016585 L226.96238,3.97016585 C225.44798,5.62642595 220.045283,7.16090575 216.172036,7.16090575 L10.7898639,7.16090575 L10.7901841,7.16090575 L10.7904242,7.16090575 Z" id="Bottom-Body" fill="#A9A9A9"></path>
                            <path d="M226.96238,3.97088739 C226.835913,4.10918299 226.682232,4.24675704 226.504618,4.38256732 L0.457922073,4.38256732 C0.280228138,4.24675704 0.126626939,4.10918299 8.00423131e-05,3.97088739 L8.00423131e-05,3.86802754 L8.00423131e-05,0.0594069767 L226.96246,0.0594069767 L226.96246,3.97088739 L226.96238,3.97088739 Z" id="Top-Body" fill="#D5D2CF"></path>
                            <path d="M99.8111636,2.69295594 C98.7518836,2.69295594 97.6530628,1.36042778 97.6530628,0.119695838 L129.310198,0.119695838 C129.310198,1.36042778 128.211377,2.69295594 127.152017,2.69295594 L99.8111636,2.69295594 L99.8111636,2.69295594 Z" id="Hollow" fill="#949494"></path>
                        </g>
                    </g>
                    <path d="M102.3,58 L103.15,58 L103.15,50.425 L104.45,50.425 C107.825,50.425 108.6,51.6 109.075,53.675 C109.35,54.925 109.8,56.65 110.175,58 L111.15,58 C110.775,56.825 110.225,54.8 109.875,53.275 C109.425,51.35 108.525,50.175 106.5,49.925 C108.8,49.575 111.125,47.85 111.125,45.2 C111.125,42.5 109.175,40.55 105,40.55 C104.175,40.55 103.275,40.625 102.3,40.85 L102.3,58 Z M103.15,49.65 L103.15,41.525 C103.875,41.4 104.5,41.35 105.05,41.35 C108.65,41.35 110.175,42.85 110.175,45.25 C110.175,48.1 107.35,49.65 104.225,49.65 L103.15,49.65 Z M121.425,56.65 C120.475,57.2 119.4,57.475 118.375,57.475 C115.8,57.475 114.325,55.675 114.325,52.25 L122.1,52.25 C122.15,51.95 122.175,51.55 122.175,51.25 C122.175,48.575 120.975,45.9 118.05,45.9 C115.5,45.9 113.425,48.45 113.425,52.35 C113.425,56.2 115.4,58.25 118.025,58.25 C119.45,58.25 120.625,57.975 121.475,57.45 L121.425,56.65 Z M114.35,51.5 C114.525,48.55 116.125,46.7 118.025,46.7 C120,46.7 121.325,48.25 121.325,51.5 L114.35,51.5 Z M127.3,46.25 L127.3,43 L126.45,43 L126.45,46.25 L124.55,46.25 L124.55,46.975 L126.45,46.975 L126.45,55.425 C126.45,57.45 127.575,58.25 128.925,58.25 C129.55,58.25 130.1,58.125 130.425,57.925 L130.375,57.2 C130.025,57.4 129.65,57.5 129.075,57.5 C128.075,57.5 127.3,56.85 127.3,55.3 L127.3,46.975 L130.275,46.975 L130.275,46.25 L127.3,46.25 Z M133.675,42.275 C133.3,42.275 133,42.575 133,42.95 C133,43.325 133.3,43.625 133.675,43.625 C134.05,43.625 134.35,43.325 134.35,42.95 C134.35,42.575 134.05,42.275 133.675,42.275 Z M133.25,58 L134.1,58 L134.1,46.15 L133.25,46.15 L133.25,58 Z M139.025,46.15 L138.3,46.15 L138.3,58 L139.15,58 L139.15,50.95 C139.15,49.025 140.625,46.7 142.725,46.7 C144.7,46.7 145.825,48.1 145.825,50.35 L145.825,58 L146.675,58 L146.675,50 C146.675,47.7 145.35,45.9 142.825,45.9 C141.1,45.9 139.625,47.125 139.15,48.7 L139.025,46.15 Z M151.15,47.575 C152.15,46.975 153.15,46.675 154.025,46.675 C155.775,46.675 157.05,47.5 157.05,49.55 L157.05,51.125 C156.475,51 155.95,50.95 155.2,50.95 C152.625,50.95 150.15,52.225 150.15,55 C150.15,57.05 151.7,58.25 153.325,58.25 C154.85,58.25 156.375,57.425 157.075,55.625 L157.175,58 L157.9,58 L157.9,49.4 C157.9,47.125 156.375,45.9 154.275,45.9 C153,45.9 152.025,46.175 151.1,46.75 L151.15,47.575 Z M157.05,53.125 C157.05,55.975 155.3,57.475 153.65,57.475 C152.2,57.475 151.05,56.5 151.05,54.85 C151.05,53.15 152.675,51.725 155.125,51.725 C155.825,51.725 156.475,51.775 157.05,51.875 L157.05,53.125 Z" id="Retina" fill="#FFFFFF"></path>
                    <path d="M2.6,1.88 L0.44,1.88 L0,29.4 L1.36,29.4 L1.6,10.28 C1.64,7.96 1.64,5.68 1.56,2.68 C2.56,5.68 3.4,7.96 4.28,10.28 L11.32,29.08 L13.12,29.08 L20.36,10.28 C21.24,7.96 22.12,5.68 23.08,3 C23.04,5.68 23.04,7.96 23.08,10.28 L23.36,29.4 L24.8,29.4 L24.36,1.88 L22.16,1.88 L14.48,21.92 C13.72,23.88 13,25.88 12.32,27.88 C11.68,25.88 10.96,23.88 10.2,21.92 L2.6,1.88 Z M31.96,12.72 C33.56,11.76 35.16,11.28 36.56,11.28 C39.36,11.28 41.4,12.6 41.4,15.88 L41.4,18.4 C40.48,18.2 39.64,18.12 38.44,18.12 C34.32,18.12 30.36,20.16 30.36,24.6 C30.36,27.88 32.84,29.8 35.44,29.8 C37.88,29.8 40.32,28.48 41.44,25.6 L41.6,29.4 L42.76,29.4 L42.76,15.64 C42.76,12 40.32,10.04 36.96,10.04 C34.92,10.04 33.36,10.48 31.88,11.4 L31.96,12.72 Z M41.4,21.6 C41.4,26.16 38.6,28.56 35.96,28.56 C33.64,28.56 31.8,27 31.8,24.36 C31.8,21.64 34.4,19.36 38.32,19.36 C39.44,19.36 40.48,19.44 41.4,19.6 L41.4,21.6 Z M60.96,27.64 C59.88,28.16 58.32,28.56 56.96,28.56 C52.92,28.56 49.52,26.16 49.52,19.84 C49.52,14.04 53.16,11.28 57.08,11.28 C58.72,11.28 59.84,11.64 61.04,12.24 L61.2,10.92 C60.12,10.4 58.96,10.04 56.96,10.04 C52.12,10.04 48.08,13.36 48.08,20.08 C48.08,26.8 52.12,29.8 56.4,29.8 C58.36,29.8 59.72,29.56 61.04,28.92 L60.96,27.64 Z M65.96,29.4 C67.24,29.68 68.64,29.8 69.8,29.8 C75.76,29.8 79.88,27.04 79.88,22.32 C79.88,18.6 76.96,15.96 72.64,15.48 C76.04,15.04 79.72,12.64 79.72,8.4 C79.72,4.32 76.56,1.48 70.04,1.48 C68.92,1.48 67.64,1.6 65.96,1.92 L65.96,29.4 Z M67.32,15.16 L67.32,3 C68.36,2.84 69.24,2.76 70.12,2.76 C75.6,2.76 78.24,4.92 78.24,8.72 C78.24,12.96 73.44,15.16 69.12,15.16 L67.32,15.16 Z M67.32,16.44 L69.6,16.44 C75.32,16.44 78.36,18.64 78.36,22.64 C78.36,26.24 74.8,28.52 70.36,28.52 C69.52,28.52 68.36,28.44 67.32,28.28 L67.32,16.44 Z M92,10.04 C87,10.04 84.12,14.36 84.12,19.92 C84.12,25.44 87,29.8 92,29.8 C97,29.8 99.88,25.44 99.88,19.92 C99.88,14.36 97,10.04 92,10.04 L92,10.04 Z M92,11.28 C95.56,11.28 98.44,14.32 98.44,19.92 C98.44,25.52 95.56,28.56 92,28.56 C88.44,28.56 85.56,25.52 85.56,19.92 C85.56,14.32 88.44,11.28 92,11.28 L92,11.28 Z M111.76,10.04 C106.76,10.04 103.88,14.36 103.88,19.92 C103.88,25.44 106.76,29.8 111.76,29.8 C116.76,29.8 119.64,25.44 119.64,19.92 C119.64,14.36 116.76,10.04 111.76,10.04 L111.76,10.04 Z M111.76,11.28 C115.32,11.28 118.2,14.32 118.2,19.92 C118.2,25.52 115.32,28.56 111.76,28.56 C108.2,28.56 105.32,25.52 105.32,19.92 C105.32,14.32 108.2,11.28 111.76,11.28 L111.76,11.28 Z M137.6,29.4 L128.48,19.88 L137.48,10.36 L135.76,10.36 L126.36,20.4 L126.36,0 L125,0 L125,29.4 L126.36,29.4 L126.36,21.84 L127.4,20.76 L135.56,29.4 L137.6,29.4 Z M151.08,29.4 L152.44,29.4 L152.44,17.28 C153.16,17.36 154,17.4 154.72,17.4 C160.12,17.4 165.04,14.4 165.04,9 C165.04,4.8 162.08,1.48 155.4,1.48 C154.08,1.48 152.64,1.6 151.08,1.96 L151.08,29.4 Z M152.44,3.04 C153.6,2.84 154.6,2.76 155.48,2.76 C161.24,2.76 163.52,5.36 163.52,9.2 C163.52,13.24 159.88,16.16 154.24,16.16 C153.76,16.16 152.96,16.08 152.44,16 L152.44,3.04 Z M170.36,10.44 L169.2,10.44 L169.2,29.4 L170.56,29.4 L170.56,18.44 C170.56,14.88 171.96,11.32 174.56,11.32 C174.96,11.32 175.36,11.36 175.64,11.48 L175.8,10.2 C175.6,10.08 175.12,10.04 174.8,10.04 C172.8,10.04 170.96,11.8 170.52,14.2 L170.36,10.44 Z M186.48,10.04 C181.48,10.04 178.6,14.36 178.6,19.92 C178.6,25.44 181.48,29.8 186.48,29.8 C191.48,29.8 194.36,25.44 194.36,19.92 C194.36,14.36 191.48,10.04 186.48,10.04 L186.48,10.04 Z M186.48,11.28 C190.04,11.28 192.92,14.32 192.92,19.92 C192.92,25.52 190.04,28.56 186.48,28.56 C182.92,28.56 180.04,25.52 180.04,19.92 C180.04,14.32 182.92,11.28 186.48,11.28 L186.48,11.28 Z M218.28,29.4 L218.28,2.92 L217.6,2.92 L209.8,7.68 L209.88,9.08 L216.92,4.92 L216.92,29.4 L218.28,29.4 Z M239.12,4.36 L239.12,3.08 L228.2,3.08 L227.48,15.48 L229.84,15.48 C235.36,15.48 238.16,17.8 238.16,22.36 C238.16,25.92 234.8,28.52 231.48,28.52 C229.64,28.52 228.08,28.16 226.32,26.88 L226.16,28.32 C227.76,29.44 229.16,29.8 231.32,29.8 C235.92,29.8 239.6,26.32 239.6,22.04 C239.6,17 236.08,14.2 230.16,14.2 L228.84,14.2 L229.4,4.36 L239.12,4.36 Z M244.76,10.68 L249.48,0 L247.88,0.08 L243.68,10.88 L244.76,10.68 Z M253.32,10.68 L258.04,0 L256.44,0.08 L252.24,10.88 L253.32,10.68 Z" id="MacBook-Pro-15’’" fill="#FFFFFF"></path>
                </g>
            </g>
            <g id="MacBook-Air-10-inches-+-MacBook-Air-10’’-+-MacBook-Air-13-inches-+-MacBook-Air-13’’" transform="translate(58.000000, 818.000000)">
                <g id="MacBook-Air-10-inches-+-MacBook-Air-10’’">
                    <g id="MacBook-Air-10-inches" transform="translate(8.000000, 72.000000)">
                        <g id="Screen" transform="translate(22.868222, 0.000000)">
                            <path d="M187.166005,7.33815252 C187.166005,3.28818302 183.889453,0 179.853452,0 L7.32950515,0 C3.29350377,0 0.0169512697,3.28818302 0.0169512697,7.33815252 L0.0169512697,113.062785 C0.0169512697,117.112755 3.29350377,120.400938 7.32950515,120.400938 L179.853452,120.400938 C183.889453,120.400938 187.166005,117.112755 187.166005,113.062785 L187.166005,7.33815252 L187.166005,7.33815252 Z" id="Outer-Frame" fill="#D5D2CF"></path>
                            <path d="M186.353624,7.33815252 C186.353624,3.7381618 183.441044,0.815385942 179.853452,0.815385942 L7.32950515,0.815385942 C3.74191283,0.815385942 0.829332876,3.7381618 0.829332876,7.33815252 L0.829332876,113.334473 C0.829332876,114.834456 2.04294784,116.05232 3.53769801,116.05232 L183.644939,116.05232 C185.139689,116.05232 186.353304,114.834456 186.353304,113.334473 L186.353304,7.33815252 L186.353624,7.33815252 Z" id="Thin-Plastic-Frame" fill="#4D4D4D"></path>
                            <path d="M185.541242,7.31761141 C185.541242,4.16759947 182.992635,1.61007029 179.853612,1.61007029 L7.32966507,1.61007029 C4.19064173,1.61007029 1.64203432,4.16759947 1.64203432,7.31761141 L1.64203432,113.355175 C1.64203432,114.405179 2.49151682,115.257635 3.53785793,115.257635 L183.645099,115.257635 C184.69144,115.257635 185.540922,114.405179 185.540922,113.355175 L185.540922,7.31761141 L185.541242,7.31761141 Z" id="Metal-Frame" fill="#D5D2CF"></path>
                            <g id="Screen1" transform="translate(11.194235, 9.628647)">
                                <path d="M164.795127,0.401675066 C164.795127,0.246493369 164.669432,0.12035809 164.514791,0.12035809 L0.280975292,0.12035809 C0.126334935,0.12035809 0.000639670556,0.246493369 0.000639670556,0.401675066 L0.000639670556,93.2369191 C0.000639670556,93.3921008 0.126334935,93.5182361 0.280975292,93.5182361 L164.514791,93.5182361 C164.669432,93.5182361 164.795127,93.3921008 164.795127,93.2369191 L164.795127,0.401675066 L164.795127,0.401675066 Z" id="Screen-Frame" fill="#4D4D4D"></path>
                                <rect id="Screen---Off" fill="#343434" x="0.479752917" y="0.601790451" width="163.835621" height="92.4350133"></rect>
                            </g>
                            <g id="Sensors" transform="translate(92.272478, 5.135279)" fill="#4D4D4D">
                                <ellipse id="Camera" cx="1.31932052" cy="1.25172414" rx="1.21873233" ry="1.22299867"></ellipse>
                            </g>
                        </g>
                        <g id="Body" transform="translate(0.000000, 115.383289)">
                            <path d="M0,0.669030504 L0,0.397342175 L232.920041,0.397342175 L232.920041,0.669030504 C228.987986,3.10315252 209.457405,5.56118568 198.794577,5.56118568 L34.1257845,5.56118568 C23.4629561,5.56118568 3.93237474,3.10315252 0.000319835278,0.669030504 L0,0.669030504 Z" id="Bottom-Body" fill="#BCBCBC"></path>
                            <rect id="Top-Body" fill="#D5D2CF" x="0" y="0.125493369" width="232.920041" height="0.543537135"></rect>
                            <path d="M134.223832,1.48441645 L98.6962093,1.48441645 C98.0942793,1.48441645 95.8707845,1.38171088 95.3716815,0.669030504 L95.3716815,0.125493369 L137.54836,0.125493369 L137.54836,0.669030504 C137.049257,1.38171088 134.825762,1.48441645 134.223832,1.48441645 L134.223832,1.48441645 Z" id="Hollow" fill="#949494"></path>
                        </g>
                    </g>
                    <path d="M2.88,2.48 L0.72,2.48 L0.28,30 L1.64,30 L1.88,10.88 C1.92,8.56 1.92,6.28 1.84,3.28 C2.84,6.28 3.68,8.56 4.56,10.88 L11.6,29.68 L13.4,29.68 L20.64,10.88 C21.52,8.56 22.4,6.28 23.36,3.6 C23.32,6.28 23.32,8.56 23.36,10.88 L23.64,30 L25.08,30 L24.64,2.48 L22.44,2.48 L14.76,22.52 C14,24.48 13.28,26.48 12.6,28.48 C11.96,26.48 11.24,24.48 10.48,22.52 L2.88,2.48 Z M32.24,13.32 C33.84,12.36 35.44,11.88 36.84,11.88 C39.64,11.88 41.68,13.2 41.68,16.48 L41.68,19 C40.76,18.8 39.92,18.72 38.72,18.72 C34.6,18.72 30.64,20.76 30.64,25.2 C30.64,28.48 33.12,30.4 35.72,30.4 C38.16,30.4 40.6,29.08 41.72,26.2 L41.88,30 L43.04,30 L43.04,16.24 C43.04,12.6 40.6,10.64 37.24,10.64 C35.2,10.64 33.64,11.08 32.16,12 L32.24,13.32 Z M41.68,22.2 C41.68,26.76 38.88,29.16 36.24,29.16 C33.92,29.16 32.08,27.6 32.08,24.96 C32.08,22.24 34.68,19.96 38.6,19.96 C39.72,19.96 40.76,20.04 41.68,20.2 L41.68,22.2 Z M61.24,28.24 C60.16,28.76 58.6,29.16 57.24,29.16 C53.2,29.16 49.8,26.76 49.8,20.44 C49.8,14.64 53.44,11.88 57.36,11.88 C59,11.88 60.12,12.24 61.32,12.84 L61.48,11.52 C60.4,11 59.24,10.64 57.24,10.64 C52.4,10.64 48.36,13.96 48.36,20.68 C48.36,27.4 52.4,30.4 56.68,30.4 C58.64,30.4 60,30.16 61.32,29.52 L61.24,28.24 Z M66.24,30 C67.52,30.28 68.92,30.4 70.08,30.4 C76.04,30.4 80.16,27.64 80.16,22.92 C80.16,19.2 77.24,16.56 72.92,16.08 C76.32,15.64 80,13.24 80,9 C80,4.92 76.84,2.08 70.32,2.08 C69.2,2.08 67.92,2.2 66.24,2.52 L66.24,30 Z M67.6,15.76 L67.6,3.6 C68.64,3.44 69.52,3.36 70.4,3.36 C75.88,3.36 78.52,5.52 78.52,9.32 C78.52,13.56 73.72,15.76 69.4,15.76 L67.6,15.76 Z M67.6,17.04 L69.88,17.04 C75.6,17.04 78.64,19.24 78.64,23.24 C78.64,26.84 75.08,29.12 70.64,29.12 C69.8,29.12 68.64,29.04 67.6,28.88 L67.6,17.04 Z M92.28,10.64 C87.28,10.64 84.4,14.96 84.4,20.52 C84.4,26.04 87.28,30.4 92.28,30.4 C97.28,30.4 100.16,26.04 100.16,20.52 C100.16,14.96 97.28,10.64 92.28,10.64 L92.28,10.64 Z M92.28,11.88 C95.84,11.88 98.72,14.92 98.72,20.52 C98.72,26.12 95.84,29.16 92.28,29.16 C88.72,29.16 85.84,26.12 85.84,20.52 C85.84,14.92 88.72,11.88 92.28,11.88 L92.28,11.88 Z M112.04,10.64 C107.04,10.64 104.16,14.96 104.16,20.52 C104.16,26.04 107.04,30.4 112.04,30.4 C117.04,30.4 119.92,26.04 119.92,20.52 C119.92,14.96 117.04,10.64 112.04,10.64 L112.04,10.64 Z M112.04,11.88 C115.6,11.88 118.48,14.92 118.48,20.52 C118.48,26.12 115.6,29.16 112.04,29.16 C108.48,29.16 105.6,26.12 105.6,20.52 C105.6,14.92 108.48,11.88 112.04,11.88 L112.04,11.88 Z M137.88,30 L128.76,20.48 L137.76,10.96 L136.04,10.96 L126.64,21 L126.64,0.6 L125.28,0.6 L125.28,30 L126.64,30 L126.64,22.44 L127.68,21.36 L135.84,30 L137.88,30 Z M164.36,20.12 L167.68,30 L169.12,30 L159.84,2.48 L158.08,2.48 L148.72,30 L150.12,30 L153.44,20.12 L164.36,20.12 Z M163.96,18.84 L153.88,18.84 L158.92,3.84 L163.96,18.84 Z M174.04,4.84 C173.44,4.84 172.96,5.32 172.96,5.92 C172.96,6.52 173.44,7 174.04,7 C174.64,7 175.12,6.52 175.12,5.92 C175.12,5.32 174.64,4.84 174.04,4.84 L174.04,4.84 Z M173.36,30 L174.72,30 L174.72,11.04 L173.36,11.04 L173.36,30 Z M182.6,11.04 L181.44,11.04 L181.44,30 L182.8,30 L182.8,19.04 C182.8,15.48 184.2,11.92 186.8,11.92 C187.2,11.92 187.6,11.96 187.88,12.08 L188.04,10.8 C187.84,10.68 187.36,10.64 187.04,10.64 C185.04,10.64 183.2,12.4 182.76,14.8 L182.6,11.04 Z M210.76,30 L210.76,3.52 L210.08,3.52 L202.28,8.28 L202.36,9.68 L209.4,5.52 L209.4,30 L210.76,30 Z M225.56,3.12 C221.08,3.12 218.28,7.52 218.28,16.76 C218.28,26 221.08,30.4 225.56,30.4 C230.04,30.4 232.84,26 232.84,16.76 C232.84,7.52 230.04,3.12 225.56,3.12 L225.56,3.12 Z M225.56,4.4 C229.16,4.4 231.4,8.56 231.4,16.76 C231.4,24.96 229.16,29.12 225.56,29.12 C221.96,29.12 219.72,24.96 219.72,16.76 C219.72,8.56 221.96,4.4 225.56,4.4 L225.56,4.4 Z M237.24,11.28 L241.96,0.6 L240.36,0.68 L236.16,11.48 L237.24,11.28 Z M245.8,11.28 L250.52,0.6 L248.92,0.68 L244.72,11.48 L245.8,11.28 Z" id="MacBook-Air-10’’" fill="#FFFFFF"></path>
                </g>
                <g id="MacBook-Air-13-inches-+-MacBook-Air-13’’" transform="translate(364.000000, 0.000000)">
                    <g id="MacBook-Air-13-inches" transform="translate(5.000000, 65.000000)">
                        <g id="Screen" transform="translate(21.629328, 0.000000)">
                            <g id="Frames">
                                <path d="M0.0653686354,6.66095283 C0.0653686354,3.02888679 3.01112288,0.0801886792 6.63940258,0.0801886792 L185.981779,0.0801886792 C189.610058,0.0801886792 192.555813,3.02888679 192.555813,6.66095283 L192.555813,128.798736 C192.555813,132.430642 189.610058,135.37934 185.981779,135.37934 L6.63940258,135.37934 C3.01112288,135.37934 0.0653686354,132.430642 0.0653686354,128.798736 L0.0653686354,6.66095283 L0.0653686354,6.66095283 Z" id="Outer-Frame" fill="#D5D2CF"></path>
                                <path d="M0.854278344,6.66095283 C0.854278344,3.46479245 3.44643313,0.869886792 6.63940258,0.869886792 L185.981779,0.869886792 C189.174748,0.869886792 191.766903,3.46479245 191.766903,6.66095283 L191.766903,127.745858 C191.766903,129.634462 190.235226,131.16783 188.348508,131.16783 L4.27331432,131.16783 C2.38659606,131.16783 0.854919212,129.634462 0.854919212,127.745858 L0.854919212,6.66095283 L0.854278344,6.66095283 Z" id="Thin-Plastic-Frame" fill="#4D4D4D"></path>
                                <path d="M1.64302783,6.66095283 C1.64302783,3.90053774 3.8819036,1.65958491 6.63940258,1.65958491 L185.981779,1.65958491 C188.739278,1.65958491 190.978153,3.90053774 190.978153,6.66095283 L190.978153,127.753236 C190.978153,129.201925 189.80312,130.378132 188.355878,130.378132 L4.27267346,130.378132 C2.82142566,130.378132 1.64302783,129.198557 1.64302783,127.745858 L1.64302783,6.66095283 L1.64302783,6.66095283 Z" id="Metal-Frame" fill="#D5D2CF"></path>
                            </g>
                            <g id="Screen1" transform="translate(9.292600, 8.981132)">
                                <path d="M0.0200271555,0.382820755 C0.0200271555,0.238 0.137626612,0.120283019 0.282302783,0.120283019 L173.754319,0.120283019 C173.898995,0.120283019 174.016595,0.238 174.016595,0.382820755 L174.016595,109.074726 C174.016595,109.219547 173.898995,109.337264 173.754319,109.337264 L0.282302783,109.337264 C0.137626612,109.337264 0.0200271555,109.219547 0.0200271555,109.074726 L0.0200271555,0.382820755 L0.0200271555,0.382820755 Z" id="Screen-Frame" fill="#4D4D4D"></path>
                                <rect id="Screen---Off" fill="#343434" x="0.500678887" y="0.601415094" width="173.031419" height="108.254717"></rect>
                            </g>
                            <g id="Sensors" transform="translate(94.848608, 4.811321)" fill="#4D4D4D">
                                <ellipse id="Camera" cx="1.46198235" cy="1.32311321" rx="1.31490292" ry="1.31621698"></ellipse>
                            </g>
                        </g>
                        <g id="Body" transform="translate(0.000000, 130.547170)">
                            <path d="M235.879837,0.597886792 L235.879837,0.400943396 L0,0.400943396 L0,0.597886792 C3.81765648,2.95527358 22.780649,5.33607547 33.1335669,5.33607547 L202.74595,5.33607547 C213.098868,5.33607547 232.06186,2.95527358 235.879517,0.597886792 L235.879837,0.597886792 Z" id="Bottom-Body" fill="#BCBCBC"></path>
                            <rect id="Top-Body" fill="#D5D2CF" x="0" y="0.0715283019" width="235.879837" height="0.526518868"></rect>
                            <path d="M101.086827,1.38758491 L134.79301,1.38758491 C135.377483,1.38758491 137.010417,1.28815094 137.494914,0.597886792 L137.494914,0.0715283019 L98.3849233,0.0715283019 L98.3849233,0.597886792 C98.8694202,1.28815094 100.502354,1.38758491 101.086827,1.38758491 L101.086827,1.38758491 Z" id="Hollow" fill="#949494"></path>
                        </g>
                    </g>
                    <path d="M2.88,2.48 L0.72,2.48 L0.28,30 L1.64,30 L1.88,10.88 C1.92,8.56 1.92,6.28 1.84,3.28 C2.84,6.28 3.68,8.56 4.56,10.88 L11.6,29.68 L13.4,29.68 L20.64,10.88 C21.52,8.56 22.4,6.28 23.36,3.6 C23.32,6.28 23.32,8.56 23.36,10.88 L23.64,30 L25.08,30 L24.64,2.48 L22.44,2.48 L14.76,22.52 C14,24.48 13.28,26.48 12.6,28.48 C11.96,26.48 11.24,24.48 10.48,22.52 L2.88,2.48 Z M32.24,13.32 C33.84,12.36 35.44,11.88 36.84,11.88 C39.64,11.88 41.68,13.2 41.68,16.48 L41.68,19 C40.76,18.8 39.92,18.72 38.72,18.72 C34.6,18.72 30.64,20.76 30.64,25.2 C30.64,28.48 33.12,30.4 35.72,30.4 C38.16,30.4 40.6,29.08 41.72,26.2 L41.88,30 L43.04,30 L43.04,16.24 C43.04,12.6 40.6,10.64 37.24,10.64 C35.2,10.64 33.64,11.08 32.16,12 L32.24,13.32 Z M41.68,22.2 C41.68,26.76 38.88,29.16 36.24,29.16 C33.92,29.16 32.08,27.6 32.08,24.96 C32.08,22.24 34.68,19.96 38.6,19.96 C39.72,19.96 40.76,20.04 41.68,20.2 L41.68,22.2 Z M61.24,28.24 C60.16,28.76 58.6,29.16 57.24,29.16 C53.2,29.16 49.8,26.76 49.8,20.44 C49.8,14.64 53.44,11.88 57.36,11.88 C59,11.88 60.12,12.24 61.32,12.84 L61.48,11.52 C60.4,11 59.24,10.64 57.24,10.64 C52.4,10.64 48.36,13.96 48.36,20.68 C48.36,27.4 52.4,30.4 56.68,30.4 C58.64,30.4 60,30.16 61.32,29.52 L61.24,28.24 Z M66.24,30 C67.52,30.28 68.92,30.4 70.08,30.4 C76.04,30.4 80.16,27.64 80.16,22.92 C80.16,19.2 77.24,16.56 72.92,16.08 C76.32,15.64 80,13.24 80,9 C80,4.92 76.84,2.08 70.32,2.08 C69.2,2.08 67.92,2.2 66.24,2.52 L66.24,30 Z M67.6,15.76 L67.6,3.6 C68.64,3.44 69.52,3.36 70.4,3.36 C75.88,3.36 78.52,5.52 78.52,9.32 C78.52,13.56 73.72,15.76 69.4,15.76 L67.6,15.76 Z M67.6,17.04 L69.88,17.04 C75.6,17.04 78.64,19.24 78.64,23.24 C78.64,26.84 75.08,29.12 70.64,29.12 C69.8,29.12 68.64,29.04 67.6,28.88 L67.6,17.04 Z M92.28,10.64 C87.28,10.64 84.4,14.96 84.4,20.52 C84.4,26.04 87.28,30.4 92.28,30.4 C97.28,30.4 100.16,26.04 100.16,20.52 C100.16,14.96 97.28,10.64 92.28,10.64 L92.28,10.64 Z M92.28,11.88 C95.84,11.88 98.72,14.92 98.72,20.52 C98.72,26.12 95.84,29.16 92.28,29.16 C88.72,29.16 85.84,26.12 85.84,20.52 C85.84,14.92 88.72,11.88 92.28,11.88 L92.28,11.88 Z M112.04,10.64 C107.04,10.64 104.16,14.96 104.16,20.52 C104.16,26.04 107.04,30.4 112.04,30.4 C117.04,30.4 119.92,26.04 119.92,20.52 C119.92,14.96 117.04,10.64 112.04,10.64 L112.04,10.64 Z M112.04,11.88 C115.6,11.88 118.48,14.92 118.48,20.52 C118.48,26.12 115.6,29.16 112.04,29.16 C108.48,29.16 105.6,26.12 105.6,20.52 C105.6,14.92 108.48,11.88 112.04,11.88 L112.04,11.88 Z M137.88,30 L128.76,20.48 L137.76,10.96 L136.04,10.96 L126.64,21 L126.64,0.6 L125.28,0.6 L125.28,30 L126.64,30 L126.64,22.44 L127.68,21.36 L135.84,30 L137.88,30 Z M164.36,20.12 L167.68,30 L169.12,30 L159.84,2.48 L158.08,2.48 L148.72,30 L150.12,30 L153.44,20.12 L164.36,20.12 Z M163.96,18.84 L153.88,18.84 L158.92,3.84 L163.96,18.84 Z M174.04,4.84 C173.44,4.84 172.96,5.32 172.96,5.92 C172.96,6.52 173.44,7 174.04,7 C174.64,7 175.12,6.52 175.12,5.92 C175.12,5.32 174.64,4.84 174.04,4.84 L174.04,4.84 Z M173.36,30 L174.72,30 L174.72,11.04 L173.36,11.04 L173.36,30 Z M182.6,11.04 L181.44,11.04 L181.44,30 L182.8,30 L182.8,19.04 C182.8,15.48 184.2,11.92 186.8,11.92 C187.2,11.92 187.6,11.96 187.88,12.08 L188.04,10.8 C187.84,10.68 187.36,10.64 187.04,10.64 C185.04,10.64 183.2,12.4 182.76,14.8 L182.6,11.04 Z M210.76,30 L210.76,3.52 L210.08,3.52 L202.28,8.28 L202.36,9.68 L209.4,5.52 L209.4,30 L210.76,30 Z M220.08,6.44 C221.68,5.08 223.52,4.4 225.16,4.4 C229.08,4.4 230.84,6.52 230.84,9.52 C230.84,13.16 227.08,15.68 222.8,15.84 L222.8,17.12 C228.36,17.12 230.96,19.68 230.96,23.36 C230.96,26.68 228.04,29.12 224.44,29.12 C222.44,29.12 220.72,28.64 218.8,27.32 L218.68,28.76 C220.2,29.92 222.12,30.4 224.28,30.4 C228.84,30.4 232.4,27.32 232.4,23.24 C232.4,19.44 229.8,16.76 225.68,16.28 C229.16,15.6 232.28,12.8 232.28,9.2 C232.28,5.84 229.88,3.12 225.56,3.12 C223.28,3.12 221.44,3.84 220,5 L220.08,6.44 Z M237.24,11.28 L241.96,0.6 L240.36,0.68 L236.16,11.48 L237.24,11.28 Z M245.8,11.28 L250.52,0.6 L248.92,0.68 L244.72,11.48 L245.8,11.28 Z" id="MacBook-Air-13’’" fill="#FFFFFF"></path>
                </g>
            </g>
            <g id="MacBook-Pro-13-inches-(2016)-+-MacBook-Pro-15-inches-(2016)" transform="translate(49.000000, 32.000000)">
                <g id="MacBook-Pro-15-inches-(2016)">
                    <g transform="translate(377.000000, 75.000000)">
                        <g id="MacBook-Pro-13-Screen" transform="translate(18.869754, 0.000000)">
                            <g id="Frames">
                                <g id="Group">
                                    <rect id="Metal-Frame" fill="#D5D2CF" x="0.0598776097" y="0" width="183.083353" height="126.780581" rx="5.36"></rect>
                                    <rect id="Plastic-Band" fill="#4D4D4D" x="0.378486598" y="0.320789636" width="182.365657" height="126.071703" rx="4.96"></rect>
                                    <rect id="Black-Frame" fill="#343434" x="0.776747833" y="0.721776681" width="181.647961" height="125.362872" rx="4.72"></rect>
                                </g>
                                <path d="M182.42495,118.772363 L182.42495,121.408941 C182.42495,124.021885 180.312589,126.140099 177.706732,126.140099 L5.51784746,126.140099 C2.91201402,126.140099 0.799565847,124.021428 0.799565847,121.408941 L0.799565847,118.772363 L182.42495,118.772363 Z" id="Plastic-Band" fill="#3E3E3E"></path>
                            </g>
                            <g id="Screen" transform="translate(5.277135, 7.698951)" fill="#343434">
                                <rect id="Screen---Off" x="0" y="-1.91846539e-14" width="172.706223" height="108.266502"></rect>
                            </g>
                            <g id="Sensors" transform="translate(90.830680, 3.288094)" fill="#3E3E3E">
                                <path d="M0.799565847,1.60394818 C1.24112609,1.60394818 1.59913169,1.24486428 1.59913169,0.80197409 C1.59913169,0.359017068 1.24112609,-1.13242749e-14 0.799565847,-1.13242749e-14 C0.358005608,-1.13242749e-14 0,0.359017068 0,0.80197409 C0,1.24486428 0.358005608,1.60394818 0.799565847,1.60394818 L0.799565847,1.60394818 Z" id="Camera"></path>
                            </g>
                        </g>
                        <g id="MacBook-Pro-13-Body" transform="translate(0.000000, 123.584207)">
                            <path d="M0,3.20789636 L220.980011,3.20789636 C219.473709,4.85755706 214.100067,6.38595928 210.247678,6.38595928 L10.7320127,6.38595928 C6.87994428,6.38595928 1.5063021,4.85755706 0,3.20789636 Z" id="Bottom-Body" fill="#A9A9A9"></path>
                            <polygon id="Top-Body" fill="#D5D2CF" points="0 3.17405266 0 0 220.968826 0 220.968826 3.17405305"></polygon>
                            <path d="M96.4644211,2.58636644 C95.4108332,2.58636644 94.3179067,1.25909932 94.3179067,0.023337446 L126.821538,0.023337446 C126.821538,1.25909932 125.728611,2.58636644 124.675023,2.58636644 L96.4644211,2.58636644 L96.4644211,2.58636644 Z" id="Hollow" fill="#949494"></path>
                        </g>
                    </g>
                    <path d="M3.08,2.48 L0.92,2.48 L0.48,30 L1.84,30 L2.08,10.88 C2.12,8.56 2.12,6.28 2.04,3.28 C3.04,6.28 3.88,8.56 4.76,10.88 L11.8,29.68 L13.6,29.68 L20.84,10.88 C21.72,8.56 22.6,6.28 23.56,3.6 C23.52,6.28 23.52,8.56 23.56,10.88 L23.84,30 L25.28,30 L24.84,2.48 L22.64,2.48 L14.96,22.52 C14.2,24.48 13.48,26.48 12.8,28.48 C12.16,26.48 11.44,24.48 10.68,22.52 L3.08,2.48 Z M32.44,13.32 C34.04,12.36 35.64,11.88 37.04,11.88 C39.84,11.88 41.88,13.2 41.88,16.48 L41.88,19 C40.96,18.8 40.12,18.72 38.92,18.72 C34.8,18.72 30.84,20.76 30.84,25.2 C30.84,28.48 33.32,30.4 35.92,30.4 C38.36,30.4 40.8,29.08 41.92,26.2 L42.08,30 L43.24,30 L43.24,16.24 C43.24,12.6 40.8,10.64 37.44,10.64 C35.4,10.64 33.84,11.08 32.36,12 L32.44,13.32 Z M41.88,22.2 C41.88,26.76 39.08,29.16 36.44,29.16 C34.12,29.16 32.28,27.6 32.28,24.96 C32.28,22.24 34.88,19.96 38.8,19.96 C39.92,19.96 40.96,20.04 41.88,20.2 L41.88,22.2 Z M61.44,28.24 C60.36,28.76 58.8,29.16 57.44,29.16 C53.4,29.16 50,26.76 50,20.44 C50,14.64 53.64,11.88 57.56,11.88 C59.2,11.88 60.32,12.24 61.52,12.84 L61.68,11.52 C60.6,11 59.44,10.64 57.44,10.64 C52.6,10.64 48.56,13.96 48.56,20.68 C48.56,27.4 52.6,30.4 56.88,30.4 C58.84,30.4 60.2,30.16 61.52,29.52 L61.44,28.24 Z M66.44,30 C67.72,30.28 69.12,30.4 70.28,30.4 C76.24,30.4 80.36,27.64 80.36,22.92 C80.36,19.2 77.44,16.56 73.12,16.08 C76.52,15.64 80.2,13.24 80.2,9 C80.2,4.92 77.04,2.08 70.52,2.08 C69.4,2.08 68.12,2.2 66.44,2.52 L66.44,30 Z M67.8,15.76 L67.8,3.6 C68.84,3.44 69.72,3.36 70.6,3.36 C76.08,3.36 78.72,5.52 78.72,9.32 C78.72,13.56 73.92,15.76 69.6,15.76 L67.8,15.76 Z M67.8,17.04 L70.08,17.04 C75.8,17.04 78.84,19.24 78.84,23.24 C78.84,26.84 75.28,29.12 70.84,29.12 C70,29.12 68.84,29.04 67.8,28.88 L67.8,17.04 Z M92.48,10.64 C87.48,10.64 84.6,14.96 84.6,20.52 C84.6,26.04 87.48,30.4 92.48,30.4 C97.48,30.4 100.36,26.04 100.36,20.52 C100.36,14.96 97.48,10.64 92.48,10.64 Z M92.48,11.88 C96.04,11.88 98.92,14.92 98.92,20.52 C98.92,26.12 96.04,29.16 92.48,29.16 C88.92,29.16 86.04,26.12 86.04,20.52 C86.04,14.92 88.92,11.88 92.48,11.88 Z M112.24,10.64 C107.24,10.64 104.36,14.96 104.36,20.52 C104.36,26.04 107.24,30.4 112.24,30.4 C117.24,30.4 120.12,26.04 120.12,20.52 C120.12,14.96 117.24,10.64 112.24,10.64 Z M112.24,11.88 C115.8,11.88 118.68,14.92 118.68,20.52 C118.68,26.12 115.8,29.16 112.24,29.16 C108.68,29.16 105.8,26.12 105.8,20.52 C105.8,14.92 108.68,11.88 112.24,11.88 Z M138.08,30 L128.96,20.48 L137.96,10.96 L136.24,10.96 L126.84,21 L126.84,0.6 L125.48,0.6 L125.48,30 L126.84,30 L126.84,22.44 L127.88,21.36 L136.04,30 L138.08,30 Z M151.56,30 L152.92,30 L152.92,17.88 C153.64,17.96 154.48,18 155.2,18 C160.6,18 165.52,15 165.52,9.6 C165.52,5.4 162.56,2.08 155.88,2.08 C154.56,2.08 153.12,2.2 151.56,2.56 L151.56,30 Z M152.92,3.64 C154.08,3.44 155.08,3.36 155.96,3.36 C161.72,3.36 164,5.96 164,9.8 C164,13.84 160.36,16.76 154.72,16.76 C154.24,16.76 153.44,16.68 152.92,16.6 L152.92,3.64 Z M170.84,11.04 L169.68,11.04 L169.68,30 L171.04,30 L171.04,19.04 C171.04,15.48 172.44,11.92 175.04,11.92 C175.44,11.92 175.84,11.96 176.12,12.08 L176.28,10.8 C176.08,10.68 175.6,10.64 175.28,10.64 C173.28,10.64 171.44,12.4 171,14.8 L170.84,11.04 Z M186.96,10.64 C181.96,10.64 179.08,14.96 179.08,20.52 C179.08,26.04 181.96,30.4 186.96,30.4 C191.96,30.4 194.84,26.04 194.84,20.52 C194.84,14.96 191.96,10.64 186.96,10.64 Z M186.96,11.88 C190.52,11.88 193.4,14.92 193.4,20.52 C193.4,26.12 190.52,29.16 186.96,29.16 C183.4,29.16 180.52,26.12 180.52,20.52 C180.52,14.92 183.4,11.88 186.96,11.88 Z M218.76,30 L218.76,3.52 L218.08,3.52 L210.28,8.28 L210.36,9.68 L217.4,5.52 L217.4,30 L218.76,30 Z M228.08,6.44 C229.68,5.08 231.52,4.4 233.16,4.4 C237.08,4.4 238.84,6.52 238.84,9.52 C238.84,13.16 235.08,15.68 230.8,15.84 L230.8,17.12 C236.36,17.12 238.96,19.68 238.96,23.36 C238.96,26.68 236.04,29.12 232.44,29.12 C230.44,29.12 228.72,28.64 226.8,27.32 L226.68,28.76 C228.2,29.92 230.12,30.4 232.28,30.4 C236.84,30.4 240.4,27.32 240.4,23.24 C240.4,19.44 237.8,16.76 233.68,16.28 C237.16,15.6 240.28,12.8 240.28,9.2 C240.28,5.84 237.88,3.12 233.56,3.12 C231.28,3.12 229.44,3.84 228,5 L228.08,6.44 Z M245.24,11.28 L249.96,0.6 L248.36,0.68 L244.16,11.48 L245.24,11.28 Z M253.8,11.28 L258.52,0.6 L256.92,0.68 L252.72,11.48 L253.8,11.28 Z" id="MacBook-Pro-13’’" fill="#FFFFFF"></path>
                    <path d="M108.525,43.575 C109.425,42.575 110.85,42 112.025,42 C114.05,42 115.35,43.05 115.35,45.175 C115.35,46.85 114.15,48.7 111.275,52.35 L107.275,57.425 L107.275,58 L116.375,58 L116.375,57.2 L108.45,57.2 L111.825,52.975 C115.05,48.925 116.25,46.975 116.25,45.075 C116.25,42.675 114.65,41.2 112.075,41.2 C110.85,41.2 109.375,41.7 108.45,42.625 L108.525,43.575 Z M123.3,41.2 C120.5,41.2 118.75,43.95 118.75,49.725 C118.75,55.5 120.5,58.25 123.3,58.25 C126.1,58.25 127.85,55.5 127.85,49.725 C127.85,43.95 126.1,41.2 123.3,41.2 Z M123.3,42 C125.55,42 126.95,44.6 126.95,49.725 C126.95,54.85 125.55,57.45 123.3,57.45 C121.05,57.45 119.65,54.85 119.65,49.725 C119.65,44.6 121.05,42 123.3,42 Z M136.85,58 L136.85,41.45 L136.425,41.45 L131.55,44.425 L131.6,45.3 L136,42.7 L136,58 L136.85,58 Z M149.75,41.2 C145.2,41.6 141.6,45.925 141.6,52.1 C141.6,55.45 143.2,58.25 146.075,58.25 C148.6,58.25 150.625,56.25 150.625,53.525 C150.625,51.05 149.05,48.9 146.525,48.9 C144.55,48.9 143.15,50.025 142.525,51.45 C142.575,46.875 145.275,42.45 149.8,41.975 L149.75,41.2 Z M146.3,49.725 C148.525,49.725 149.65,51.575 149.65,53.675 C149.65,55.875 148.1,57.45 146.225,57.45 C143.95,57.45 142.65,55.2 142.65,52.975 C142.65,51.5 144.2,49.725 146.3,49.725 Z" id="2016" fill="#FFFFFF"></path>
                </g>
                <g id="MacBook-Pro-13-inches-(2016)" transform="translate(32.000000, 0.000000)">
                    <g transform="translate(0.000000, 81.000000)">
                        <g id="MacBook-Pro-13-Screen" transform="translate(14.523691, 0.000000)">
                            <g id="Frames">
                                <rect id="Metal-Frame" fill="#D5D2CF" x="0" y="0" width="162.856063" height="114.780913" rx="5.36"></rect>
                                <rect id="Plastic-Band" fill="#4D4D4D" x="0.319201995" y="0.320870156" width="162.217659" height="114.139129" rx="4.96"></rect>
                                <rect id="Black-Frame" fill="#343434" x="0.63840399" y="0.641740313" width="161.579255" height="113.497389" rx="4.72"></rect>
                                <path d="M162.217659,106.769545 L162.217659,109.406784 C162.217659,112.020384 160.110128,114.13913 157.510227,114.13913 L5.34589934,114.13913 C2.74602298,114.13913 0.63840399,112.019927 0.63840399,109.406784 L0.63840399,106.769545 L162.217659,106.769545 Z" id="Plastic-Band" fill="#3E3E3E"></path>
                            </g>
                            <g id="Screen" transform="translate(4.867830, 7.540449)" fill="#343434">
                                <rect id="Screen---Off" x="0.0698254364" y="0.0794153637" width="153.216958" height="96.2610469"></rect>
                            </g>
                            <g id="Sensors" transform="translate(80.678304, 3.369137)" fill="#3E3E3E">
                                <path d="M0.798004988,1.60435078 C1.23870324,1.60435078 1.59600998,1.24517675 1.59600998,0.802175391 C1.59600998,0.359107183 1.23870324,-1.13242749e-14 0.798004988,-1.13242749e-14 C0.357306733,-1.13242749e-14 0,0.359107183 0,0.802175391 C0,1.24517675 0.357306733,1.60435078 0.798004988,1.60435078 L0.798004988,1.60435078 Z" id="Camera"></path>
                            </g>
                        </g>
                        <g id="MacBook-Pro-13-Body" transform="translate(0.000000, 111.582597)">
                            <path d="M0,3.17260759 L191.98005,3.17260759 C190.476688,4.82268237 185.113536,6.35146823 181.268668,6.35146823 L10.7110623,6.35146823 C6.86651372,6.35146823 1.5033616,4.82268237 0,3.17260759 Z" id="Bottom-Body" fill="#A9A9A9"></path>
                            <polygon id="Top-Body" fill="#D5D2CF" points="0 3.17484937 0 0 191.98005 0 191.98005 3.17484976"></polygon>
                            <path d="M81.9918204,2.58701564 C80.9402893,2.58701564 79.8494963,1.25941536 79.8494963,0.0233433039 L112.289676,0.0233433039 C112.289676,1.25941536 111.198883,2.58701564 110.147352,2.58701564 L81.9918204,2.58701564 L81.9918204,2.58701564 Z" id="Hollow" fill="#949494"></path>
                        </g>
                    </g>
                    <path d="M435.525,43.575 C436.425,42.575 437.85,42 439.025,42 C441.05,42 442.35,43.05 442.35,45.175 C442.35,46.85 441.15,48.7 438.275,52.35 L434.275,57.425 L434.275,58 L443.375,58 L443.375,57.2 L435.45,57.2 L438.825,52.975 C442.05,48.925 443.25,46.975 443.25,45.075 C443.25,42.675 441.65,41.2 439.075,41.2 C437.85,41.2 436.375,41.7 435.45,42.625 L435.525,43.575 Z M450.3,41.2 C447.5,41.2 445.75,43.95 445.75,49.725 C445.75,55.5 447.5,58.25 450.3,58.25 C453.1,58.25 454.85,55.5 454.85,49.725 C454.85,43.95 453.1,41.2 450.3,41.2 Z M450.3,42 C452.55,42 453.95,44.6 453.95,49.725 C453.95,54.85 452.55,57.45 450.3,57.45 C448.05,57.45 446.65,54.85 446.65,49.725 C446.65,44.6 448.05,42 450.3,42 Z M463.85,58 L463.85,41.45 L463.425,41.45 L458.55,44.425 L458.6,45.3 L463,42.7 L463,58 L463.85,58 Z M476.75,41.2 C472.2,41.6 468.6,45.925 468.6,52.1 C468.6,55.45 470.2,58.25 473.075,58.25 C475.6,58.25 477.625,56.25 477.625,53.525 C477.625,51.05 476.05,48.9 473.525,48.9 C471.55,48.9 470.15,50.025 469.525,51.45 C469.575,46.875 472.275,42.45 476.8,41.975 L476.75,41.2 Z M473.3,49.725 C475.525,49.725 476.65,51.575 476.65,53.675 C476.65,55.875 475.1,57.45 473.225,57.45 C470.95,57.45 469.65,55.2 469.65,52.975 C469.65,51.5 471.2,49.725 473.3,49.725 Z" id="2016" fill="#FFFFFF"></path>
                    <path d="M330.08,2.48 L327.92,2.48 L327.48,30 L328.84,30 L329.08,10.88 C329.12,8.56 329.12,6.28 329.04,3.28 C330.04,6.28 330.88,8.56 331.76,10.88 L338.8,29.68 L340.6,29.68 L347.84,10.88 C348.72,8.56 349.6,6.28 350.56,3.6 C350.52,6.28 350.52,8.56 350.56,10.88 L350.84,30 L352.28,30 L351.84,2.48 L349.64,2.48 L341.96,22.52 C341.2,24.48 340.48,26.48 339.8,28.48 C339.16,26.48 338.44,24.48 337.68,22.52 L330.08,2.48 Z M359.44,13.32 C361.04,12.36 362.64,11.88 364.04,11.88 C366.84,11.88 368.88,13.2 368.88,16.48 L368.88,19 C367.96,18.8 367.12,18.72 365.92,18.72 C361.8,18.72 357.84,20.76 357.84,25.2 C357.84,28.48 360.32,30.4 362.92,30.4 C365.36,30.4 367.8,29.08 368.92,26.2 L369.08,30 L370.24,30 L370.24,16.24 C370.24,12.6 367.8,10.64 364.44,10.64 C362.4,10.64 360.84,11.08 359.36,12 L359.44,13.32 Z M368.88,22.2 C368.88,26.76 366.08,29.16 363.44,29.16 C361.12,29.16 359.28,27.6 359.28,24.96 C359.28,22.24 361.88,19.96 365.8,19.96 C366.92,19.96 367.96,20.04 368.88,20.2 L368.88,22.2 Z M388.44,28.24 C387.36,28.76 385.8,29.16 384.44,29.16 C380.4,29.16 377,26.76 377,20.44 C377,14.64 380.64,11.88 384.56,11.88 C386.2,11.88 387.32,12.24 388.52,12.84 L388.68,11.52 C387.6,11 386.44,10.64 384.44,10.64 C379.6,10.64 375.56,13.96 375.56,20.68 C375.56,27.4 379.6,30.4 383.88,30.4 C385.84,30.4 387.2,30.16 388.52,29.52 L388.44,28.24 Z M393.44,30 C394.72,30.28 396.12,30.4 397.28,30.4 C403.24,30.4 407.36,27.64 407.36,22.92 C407.36,19.2 404.44,16.56 400.12,16.08 C403.52,15.64 407.2,13.24 407.2,9 C407.2,4.92 404.04,2.08 397.52,2.08 C396.4,2.08 395.12,2.2 393.44,2.52 L393.44,30 Z M394.8,15.76 L394.8,3.6 C395.84,3.44 396.72,3.36 397.6,3.36 C403.08,3.36 405.72,5.52 405.72,9.32 C405.72,13.56 400.92,15.76 396.6,15.76 L394.8,15.76 Z M394.8,17.04 L397.08,17.04 C402.8,17.04 405.84,19.24 405.84,23.24 C405.84,26.84 402.28,29.12 397.84,29.12 C397,29.12 395.84,29.04 394.8,28.88 L394.8,17.04 Z M419.48,10.64 C414.48,10.64 411.6,14.96 411.6,20.52 C411.6,26.04 414.48,30.4 419.48,30.4 C424.48,30.4 427.36,26.04 427.36,20.52 C427.36,14.96 424.48,10.64 419.48,10.64 Z M419.48,11.88 C423.04,11.88 425.92,14.92 425.92,20.52 C425.92,26.12 423.04,29.16 419.48,29.16 C415.92,29.16 413.04,26.12 413.04,20.52 C413.04,14.92 415.92,11.88 419.48,11.88 Z M439.24,10.64 C434.24,10.64 431.36,14.96 431.36,20.52 C431.36,26.04 434.24,30.4 439.24,30.4 C444.24,30.4 447.12,26.04 447.12,20.52 C447.12,14.96 444.24,10.64 439.24,10.64 Z M439.24,11.88 C442.8,11.88 445.68,14.92 445.68,20.52 C445.68,26.12 442.8,29.16 439.24,29.16 C435.68,29.16 432.8,26.12 432.8,20.52 C432.8,14.92 435.68,11.88 439.24,11.88 Z M465.08,30 L455.96,20.48 L464.96,10.96 L463.24,10.96 L453.84,21 L453.84,0.6 L452.48,0.6 L452.48,30 L453.84,30 L453.84,22.44 L454.88,21.36 L463.04,30 L465.08,30 Z M478.56,30 L479.92,30 L479.92,17.88 C480.64,17.96 481.48,18 482.2,18 C487.6,18 492.52,15 492.52,9.6 C492.52,5.4 489.56,2.08 482.88,2.08 C481.56,2.08 480.12,2.2 478.56,2.56 L478.56,30 Z M479.92,3.64 C481.08,3.44 482.08,3.36 482.96,3.36 C488.72,3.36 491,5.96 491,9.8 C491,13.84 487.36,16.76 481.72,16.76 C481.24,16.76 480.44,16.68 479.92,16.6 L479.92,3.64 Z M497.84,11.04 L496.68,11.04 L496.68,30 L498.04,30 L498.04,19.04 C498.04,15.48 499.44,11.92 502.04,11.92 C502.44,11.92 502.84,11.96 503.12,12.08 L503.28,10.8 C503.08,10.68 502.6,10.64 502.28,10.64 C500.28,10.64 498.44,12.4 498,14.8 L497.84,11.04 Z M513.96,10.64 C508.96,10.64 506.08,14.96 506.08,20.52 C506.08,26.04 508.96,30.4 513.96,30.4 C518.96,30.4 521.84,26.04 521.84,20.52 C521.84,14.96 518.96,10.64 513.96,10.64 Z M513.96,11.88 C517.52,11.88 520.4,14.92 520.4,20.52 C520.4,26.12 517.52,29.16 513.96,29.16 C510.4,29.16 507.52,26.12 507.52,20.52 C507.52,14.92 510.4,11.88 513.96,11.88 Z M545.76,30 L545.76,3.52 L545.08,3.52 L537.28,8.28 L537.36,9.68 L544.4,5.52 L544.4,30 L545.76,30 Z M566.6,4.96 L566.6,3.68 L555.68,3.68 L554.96,16.08 L557.32,16.08 C562.84,16.08 565.64,18.4 565.64,22.96 C565.64,26.52 562.28,29.12 558.96,29.12 C557.12,29.12 555.56,28.76 553.8,27.48 L553.64,28.92 C555.24,30.04 556.64,30.4 558.8,30.4 C563.4,30.4 567.08,26.92 567.08,22.64 C567.08,17.6 563.56,14.8 557.64,14.8 L556.32,14.8 L556.88,4.96 L566.6,4.96 Z M572.24,11.28 L576.96,0.6 L575.36,0.68 L571.16,11.48 L572.24,11.28 Z M580.8,11.28 L585.52,0.6 L583.92,0.68 L579.72,11.48 L580.8,11.28 Z" id="MacBook-Pro-15’’" fill="#FFFFFF"></path>
                </g>
            </g>
        </g>
    </g>
</svg>