<svg xmlns="http://www.w3.org/2000/svg" width="888" height="680" viewBox="0 0 888 680">
  <g fill="none" fill-rule="evenodd">
    <rect width="888" height="680" fill="#F4F4F4"/>
    <g transform="translate(50 426)">
      <g transform="translate(32.2)">
        <rect width="270.6" height="190.292" fill="#D5D2CF" rx="9.4"/>
        <rect width="268.6" height="188.288" x="1" y="1.002" fill="#4D4D4D" rx="8.4"/>
        <rect width="266.6" height="186.284" x="2" y="2.004" fill="#343434" rx="7.4"/>
        <path fill="#3E3E3E" d="M2,176.664256 L268.6,176.664256 L268.6,180.888223 C268.6,184.97513 265.286907,188.288223 261.2,188.288223 L9.4,188.288223 C5.31309285,188.288223 2,184.97513 2,180.888223 L2,176.664256 L2,176.664256 Z"/>
        <rect width="256" height="160.331" fill="#343434" transform="translate(7.3 12.426)"/>
        <ellipse cx="135.2" cy="7.115" fill="#3E3E3E" rx="1" ry="1.002"/>
      </g>
      <g transform="translate(0 182.977)">
        <path fill="#A9A9A9" d="M35,11.0227273 C20.2970972,11.0227273 8.63043049,9.28581267 0,5.81198347 L335,5.81198347 C326.455874,9.25107438 314.935933,10.9878153 300.440176,11.0222062 L35,11.0227273 Z"/>
        <rect width="335" height="5.812" fill="#D5D2CF"/>
        <path fill="#9D9A97" d="M144.112345,4.3088843 C142.339274,4.3088843 140.2,2.07752427 140.2,3.0655742e-14 L194.9,3.0655742e-14 C194.9,2.07752427 192.760726,4.3088843 190.987655,4.3088843 L144.112345,4.3088843 Z"/>
      </g>
    </g>
    <g transform="translate(278 103)">
      <g transform="translate(30.2)">
        <rect width="270.6" height="190" fill="#D5D2CF" rx="9.4"/>
        <rect width="268.6" height="187.999" x="1" y="1.001" fill="#4D4D4D" rx="8.4"/>
        <rect width="266.6" height="185.998" x="2" y="2.001" fill="#343434" rx="7.4"/>
        <path fill="#3E3E3E" d="M2,176.392838 L268.6,176.392838 L268.6,180.598947 C268.6,184.685854 265.286907,187.998947 261.2,187.998947 L9.4,187.998947 C5.31309285,187.998947 2,184.685854 2,180.598947 L2,176.392838 L2,176.392838 Z"/>
        <rect width="256" height="160.084" fill="#343434" transform="translate(7.3 12.407)"/>
        <ellipse cx="135.2" cy="7.104" fill="#3E3E3E" rx="1" ry="1.001"/>
      </g>
      <g transform="translate(0 182.696)">
        <path fill="#A9A9A9" d="M35,7.30384413 C20.2970972,7.30384413 8.63043049,5.56959803 0,2.10110585 L331,2.10110585 C322.455874,5.53491311 310.935933,7.26898578 296.440176,7.30332385 L35,7.30384413 Z"/>
        <rect width="331" height="2.101" fill="#D5D2CF"/>
        <rect width="56.8" height="2.101" x="137.2" fill="#9D9A97"/>
      </g>
    </g>
    <g transform="translate(447 426)">
      <g transform="translate(36.5)">
        <rect width="318.1" height="223.599" fill="#D5D2CF" rx="9.4"/>
        <rect width="315.8" height="221.295" x="1.2" y="1.102" fill="#4D4D4D" rx="8.4"/>
        <rect width="313.4" height="218.891" x="2.4" y="2.304" fill="#343434" rx="7.4"/>
        <rect width="307.2" height="192.343" fill="#343434" transform="translate(5.4 9.517)"/>
        <path fill="#3E3E3E" d="M2.4,207.570662 L315.8,207.570662 L315.8,213.794991 C315.8,217.881898 312.486907,221.194991 308.4,221.194991 L9.8,221.194991 C5.71309285,221.194991 2.4,217.881898 2.4,213.794991 L2.4,207.570662 L2.4,207.570662 Z"/>
        <ellipse cx="158.95" cy="8.365" fill="#3E3E3E" rx="1.15" ry="1.152"/>
      </g>
      <g transform="translate(0 212.28)">
        <path fill="#A9A9A9" d="M35,11.7209302 C20.2970972,11.7209302 8.63043049,9.98449612 0,6.51162791 L391,6.51162791 C382.455874,9.94976744 370.935933,11.6860279 356.440176,11.7204093 L35,11.7209302 Z"/>
        <polygon fill="#D5D2CF" points="0 0 391 0 391 6.512 0 6.512"/>
        <path fill="#9D9A97" d="M172.112345,4.30769231 C170.339274,4.30769231 168.2,2.07694955 168.2,3.06472616e-14 L222.9,3.06472616e-14 C222.9,2.07694955 220.760726,4.30769231 218.987655,4.30769231 L172.112345,4.30769231 Z"/>
      </g>
    </g>
    <path fill="#222" fill-rule="nonzero" d="M269.188477 34L269.188477 16.84375 269.329102 16.84375 276.18457 34 279.524414 34 286.362305 16.84375 286.520508 16.84375 286.520508 34 291.249023 34 291.249023 8.63476562 285.114258 8.63476562 277.907227 26.8632812 277.801758 26.8632812 270.594727 8.63476562 264.459961 8.63476562 264.459961 34 269.188477 34zM300.249023 34.2988281C302.727539 34.2988281 304.731445 33.1210938 305.803711 31.1875L305.90918 31.1875 305.90918 34 311.041992 34 311.041992 21.0800781C311.041992 17.2832031 307.895508 14.7695312 303.026367 14.7695312 298.051758 14.7695312 295.063477 17.265625 294.782227 20.7460938L294.764648 20.9570312 299.458008 20.9570312 299.493164 20.7988281C299.739258 19.5859375 300.899414 18.6894531 302.81543 18.6894531 304.819336 18.6894531 305.90918 19.7265625 305.90918 21.3964844L305.90918 22.5566406 301.250977 22.8378906C296.575195 23.1367188 293.920898 25.140625 293.920898 28.5683594L293.920898 28.6035156C293.920898 31.9257812 296.469727 34.2988281 300.249023 34.2988281zM301.918945 30.5546875C300.143555 30.5546875 299.000977 29.7285156 299.000977 28.3398438L299.000977 28.3046875C299.000977 26.96875 300.038086 26.125 302.024414 26.0019531L305.90918 25.7558594 305.90918 27.109375C305.90918 29.078125 304.22168 30.5546875 301.918945 30.5546875zM322.959961 34.3867188C327.987305 34.3867188 331.239258 31.2578125 331.485352 27.1445312L331.485352 27.0390625 326.704102 27.0390625 326.686523 27.1972656C326.334961 29.0957031 325.051758 30.3613281 322.995117 30.3613281 320.463867 30.3613281 318.881836 28.2695312 318.881836 24.578125L318.881836 24.5605469C318.881836 20.9570312 320.463867 18.7949219 322.977539 18.7949219 325.104492 18.7949219 326.352539 20.1660156 326.668945 21.9589844L326.704102 22.1171875 331.467773 22.1171875 331.467773 21.9941406C331.274414 17.9160156 328.022461 14.7695312 322.907227 14.7695312 317.264648 14.7695312 313.661133 18.5136719 313.661133 24.5429688L313.661133 24.5605469C313.661133 30.6425781 317.211914 34.3867188 322.959961 34.3867188zM345.635742 34C351.049805 34 354.407227 31.2050781 354.407227 26.7402344L354.407227 26.7050781C354.407227 23.3652344 351.858398 20.8515625 348.325195 20.5878906L348.325195 20.4824219C351.102539 20.1132812 353.194336 17.7578125 353.194336 14.9980469L353.194336 14.9628906C353.194336 11.078125 350.206055 8.63476562 345.442383 8.63476562L334.40332 8.63476562 334.40332 34 345.635742 34zM343.526367 19.1289062L339.711914 19.1289062 339.711914 12.5722656 344.071289 12.5722656C346.532227 12.5722656 347.973633 13.7324219 347.973633 15.7363281L347.973633 15.7714844C347.973633 17.8808594 346.356445 19.1289062 343.526367 19.1289062zM344.282227 30.0449219L339.711914 30.0449219 339.711914 22.7324219 344.15918 22.7324219C347.288086 22.7324219 348.993164 23.9980469 348.993164 26.3535156L348.993164 26.3886719C348.993164 28.7792969 347.323242 30.0449219 344.282227 30.0449219zM365.639648 34.3867188C371.334961 34.3867188 374.973633 30.7304688 374.973633 24.578125L374.973633 24.5429688C374.973633 18.4433594 371.264648 14.7695312 365.62207 14.7695312 359.99707 14.7695312 356.305664 18.4785156 356.305664 24.5429688L356.305664 24.578125C356.305664 30.7128906 359.90918 34.3867188 365.639648 34.3867188zM365.657227 30.3613281C363.125977 30.3613281 361.526367 28.2695312 361.526367 24.578125L361.526367 24.5429688C361.526367 20.9042969 363.143555 18.7949219 365.62207 18.7949219 368.118164 18.7949219 369.75293 20.9042969 369.75293 24.5429688L369.75293 24.578125C369.75293 28.2519531 368.15332 30.3613281 365.657227 30.3613281zM386.258789 34.3867188C391.954102 34.3867188 395.592773 30.7304688 395.592773 24.578125L395.592773 24.5429688C395.592773 18.4433594 391.883789 14.7695312 386.241211 14.7695312 380.616211 14.7695312 376.924805 18.4785156 376.924805 24.5429688L376.924805 24.578125C376.924805 30.7128906 380.52832 34.3867188 386.258789 34.3867188zM386.276367 30.3613281C383.745117 30.3613281 382.145508 28.2695312 382.145508 24.578125L382.145508 24.5429688C382.145508 20.9042969 383.762695 18.7949219 386.241211 18.7949219 388.737305 18.7949219 390.37207 20.9042969 390.37207 24.5429688L390.37207 24.578125C390.37207 28.2519531 388.772461 30.3613281 386.276367 30.3613281zM403.538086 34L403.538086 27.7597656 404.856445 26.3007812 410.25293 34 416.176758 34 408.706055 23.2597656 415.825195 15.15625 410.006836 15.15625 403.643555 22.6972656 403.538086 22.6972656 403.538086 8.63476562 398.405273 8.63476562 398.405273 34 403.538086 34zM429.114258 34L431.012695 27.8476562 439.924805 27.8476562 441.823242 34 447.413086 34 438.588867 8.63476562 432.348633 8.63476562 423.541992 34 429.114258 34zM438.694336 23.875L432.243164 23.875 435.424805 13.5566406 435.530273 13.5566406 438.694336 23.875zM452.229492 12.7304688C453.776367 12.7304688 454.97168 11.5175781 454.97168 10.0585938 454.97168 8.59960938 453.776367 7.38671875 452.229492 7.38671875 450.682617 7.38671875 449.487305 8.59960938 449.487305 10.0585938 449.487305 11.5175781 450.682617 12.7304688 452.229492 12.7304688zM454.795898 34L454.795898 15.15625 449.663086 15.15625 449.663086 34 454.795898 34zM463.356445 34L463.356445 23.3828125C463.356445 20.7285156 464.833008 19.1992188 467.364258 19.1992188 468.102539 19.1992188 468.805664 19.3046875 469.227539 19.4804688L469.227539 14.9628906C468.84082 14.8574219 468.313477 14.7695312 467.750977 14.7695312 465.518555 14.7695312 463.918945 16.0878906 463.374023 18.3730469L463.268555 18.3730469 463.268555 15.15625 458.223633 15.15625 458.223633 34 463.356445 34zM7.14453125 357L7.14453125 339.84375 7.28515625 339.84375 14.140625 357 17.4804688 357 24.3183594 339.84375 24.4765625 339.84375 24.4765625 357 29.2050781 357 29.2050781 331.634766 23.0703125 331.634766 15.8632812 349.863281 15.7578125 349.863281 8.55078125 331.634766 2.41601562 331.634766 2.41601562 357 7.14453125 357zM38.2050781 357.298828C40.6835938 357.298828 42.6875 356.121094 43.7597656 354.1875L43.8652344 354.1875 43.8652344 357 48.9980469 357 48.9980469 344.080078C48.9980469 340.283203 45.8515625 337.769531 40.9824219 337.769531 36.0078125 337.769531 33.0195312 340.265625 32.7382812 343.746094L32.7207031 343.957031 37.4140625 343.957031 37.4492188 343.798828C37.6953125 342.585938 38.8554688 341.689453 40.7714844 341.689453 42.7753906 341.689453 43.8652344 342.726562 43.8652344 344.396484L43.8652344 345.556641 39.2070312 345.837891C34.53125 346.136719 31.8769531 348.140625 31.8769531 351.568359L31.8769531 351.603516C31.8769531 354.925781 34.4257812 357.298828 38.2050781 357.298828zM39.875 353.554688C38.0996094 353.554688 36.9570312 352.728516 36.9570312 351.339844L36.9570312 351.304688C36.9570312 349.96875 37.9941406 349.125 39.9804688 349.001953L43.8652344 348.755859 43.8652344 350.109375C43.8652344 352.078125 42.1777344 353.554688 39.875 353.554688zM60.9160156 357.386719C65.9433594 357.386719 69.1953125 354.257812 69.4414062 350.144531L69.4414062 350.039062 64.6601562 350.039062 64.6425781 350.197266C64.2910156 352.095703 63.0078125 353.361328 60.9511719 353.361328 58.4199219 353.361328 56.8378906 351.269531 56.8378906 347.578125L56.8378906 347.560547C56.8378906 343.957031 58.4199219 341.794922 60.9335938 341.794922 63.0605469 341.794922 64.3085938 343.166016 64.625 344.958984L64.6601562 345.117188 69.4238281 345.117188 69.4238281 344.994141C69.2304688 340.916016 65.9785156 337.769531 60.8632812 337.769531 55.2207031 337.769531 51.6171875 341.513672 51.6171875 347.542969L51.6171875 347.560547C51.6171875 353.642578 55.1679688 357.386719 60.9160156 357.386719zM83.5917969 357C89.0058594 357 92.3632812 354.205078 92.3632812 349.740234L92.3632812 349.705078C92.3632812 346.365234 89.8144531 343.851562 86.28125 343.587891L86.28125 343.482422C89.0585938 343.113281 91.1503906 340.757812 91.1503906 337.998047L91.1503906 337.962891C91.1503906 334.078125 88.1621094 331.634766 83.3984375 331.634766L72.359375 331.634766 72.359375 357 83.5917969 357zM81.4824219 342.128906L77.6679688 342.128906 77.6679688 335.572266 82.0273438 335.572266C84.4882812 335.572266 85.9296875 336.732422 85.9296875 338.736328L85.9296875 338.771484C85.9296875 340.880859 84.3125 342.128906 81.4824219 342.128906zM82.2382812 353.044922L77.6679688 353.044922 77.6679688 345.732422 82.1152344 345.732422C85.2441406 345.732422 86.9492188 346.998047 86.9492188 349.353516L86.9492188 349.388672C86.9492188 351.779297 85.2792969 353.044922 82.2382812 353.044922zM103.595703 357.386719C109.291016 357.386719 112.929688 353.730469 112.929688 347.578125L112.929688 347.542969C112.929688 341.443359 109.220703 337.769531 103.578125 337.769531 97.953125 337.769531 94.2617188 341.478516 94.2617188 347.542969L94.2617188 347.578125C94.2617188 353.712891 97.8652344 357.386719 103.595703 357.386719zM103.613281 353.361328C101.082031 353.361328 99.4824219 351.269531 99.4824219 347.578125L99.4824219 347.542969C99.4824219 343.904297 101.099609 341.794922 103.578125 341.794922 106.074219 341.794922 107.708984 343.904297 107.708984 347.542969L107.708984 347.578125C107.708984 351.251953 106.109375 353.361328 103.613281 353.361328zM124.214844 357.386719C129.910156 357.386719 133.548828 353.730469 133.548828 347.578125L133.548828 347.542969C133.548828 341.443359 129.839844 337.769531 124.197266 337.769531 118.572266 337.769531 114.880859 341.478516 114.880859 347.542969L114.880859 347.578125C114.880859 353.712891 118.484375 357.386719 124.214844 357.386719zM124.232422 353.361328C121.701172 353.361328 120.101562 351.269531 120.101562 347.578125L120.101562 347.542969C120.101562 343.904297 121.71875 341.794922 124.197266 341.794922 126.693359 341.794922 128.328125 343.904297 128.328125 347.542969L128.328125 347.578125C128.328125 351.251953 126.728516 353.361328 124.232422 353.361328zM141.494141 357L141.494141 350.759766 142.8125 349.300781 148.208984 357 154.132812 357 146.662109 346.259766 153.78125 338.15625 147.962891 338.15625 141.599609 345.697266 141.494141 345.697266 141.494141 331.634766 136.361328 331.634766 136.361328 357 141.494141 357zM168.423828 357L168.423828 349.001953 173.310547 349.001953C178.654297 349.001953 182.222656 345.556641 182.222656 340.335938L182.222656 340.300781C182.222656 335.080078 178.654297 331.634766 173.310547 331.634766L163.115234 331.634766 163.115234 357 168.423828 357zM172.009766 344.853516L168.423828 344.853516 168.423828 335.835938 172.009766 335.835938C175.050781 335.835938 176.84375 337.435547 176.84375 340.318359L176.84375 340.353516C176.84375 343.236328 175.050781 344.853516 172.009766 344.853516zM190.044922 357L190.044922 346.382812C190.044922 343.728516 191.521484 342.199219 194.052734 342.199219 194.791016 342.199219 195.494141 342.304688 195.916016 342.480469L195.916016 337.962891C195.529297 337.857422 195.001953 337.769531 194.439453 337.769531 192.207031 337.769531 190.607422 339.087891 190.0625 341.373047L189.957031 341.373047 189.957031 338.15625 184.912109 338.15625 184.912109 357 190.044922 357zM206.041016 357.386719C211.736328 357.386719 215.375 353.730469 215.375 347.578125L215.375 347.542969C215.375 341.443359 211.666016 337.769531 206.023438 337.769531 200.398438 337.769531 196.707031 341.478516 196.707031 347.542969L196.707031 347.578125C196.707031 353.712891 200.310547 357.386719 206.041016 357.386719zM206.058594 353.361328C203.527344 353.361328 201.927734 351.269531 201.927734 347.578125L201.927734 347.542969C201.927734 343.904297 203.544922 341.794922 206.023438 341.794922 208.519531 341.794922 210.154297 343.904297 210.154297 347.542969L210.154297 347.578125C210.154297 351.251953 208.554688 353.361328 206.058594 353.361328zM236.855469 357L236.855469 331.634766 231.582031 331.634766 225.025391 336.1875 225.025391 340.898438 231.494141 336.503906 231.599609 336.503906 231.599609 357 236.855469 357zM251.972656 357.439453C257.896484 357.439453 261.833984 354.380859 261.833984 349.845703L261.833984 349.810547C261.833984 346.365234 259.373047 344.185547 255.611328 343.833984L255.611328 343.728516C258.582031 343.113281 260.902344 341.056641 260.902344 337.892578L260.902344 337.857422C260.902344 333.867188 257.386719 331.195312 251.919922 331.195312 246.59375 331.195312 243.025391 334.078125 242.673828 338.472656L242.65625 338.683594 247.525391 338.683594 247.542969 338.525391C247.753906 336.556641 249.441406 335.273438 251.919922 335.273438 254.416016 335.273438 255.875 336.503906 255.875 338.560547L255.875 338.595703C255.875 340.652344 254.152344 342.058594 251.498047 342.058594L248.667969 342.058594 248.667969 345.837891 251.568359 345.837891C254.626953 345.837891 256.4375 347.173828 256.4375 349.599609L256.4375 349.634766C256.4375 351.708984 254.679688 353.167969 251.955078 353.167969 249.212891 353.167969 247.419922 351.814453 247.191406 350.003906L247.15625 349.810547 242.09375 349.810547 242.111328 350.039062C242.462891 354.416016 246.224609 357.439453 251.972656 357.439453zM267.722656 341.355469L270.289062 331.634766 265.4375 331.634766 264.171875 341.355469 267.722656 341.355469zM275.861328 341.355469L278.427734 331.634766 273.576172 331.634766 272.310547 341.355469 275.861328 341.355469zM430.617188 357L430.617188 339.84375 430.757812 339.84375 437.613281 357 440.953125 357 447.791016 339.84375 447.949219 339.84375 447.949219 357 452.677734 357 452.677734 331.634766 446.542969 331.634766 439.335938 349.863281 439.230469 349.863281 432.023438 331.634766 425.888672 331.634766 425.888672 357 430.617188 357zM461.677734 357.298828C464.15625 357.298828 466.160156 356.121094 467.232422 354.1875L467.337891 354.1875 467.337891 357 472.470703 357 472.470703 344.080078C472.470703 340.283203 469.324219 337.769531 464.455078 337.769531 459.480469 337.769531 456.492188 340.265625 456.210938 343.746094L456.193359 343.957031 460.886719 343.957031 460.921875 343.798828C461.167969 342.585938 462.328125 341.689453 464.244141 341.689453 466.248047 341.689453 467.337891 342.726562 467.337891 344.396484L467.337891 345.556641 462.679688 345.837891C458.003906 346.136719 455.349609 348.140625 455.349609 351.568359L455.349609 351.603516C455.349609 354.925781 457.898438 357.298828 461.677734 357.298828zM463.347656 353.554688C461.572266 353.554688 460.429688 352.728516 460.429688 351.339844L460.429688 351.304688C460.429688 349.96875 461.466797 349.125 463.453125 349.001953L467.337891 348.755859 467.337891 350.109375C467.337891 352.078125 465.650391 353.554688 463.347656 353.554688zM484.388672 357.386719C489.416016 357.386719 492.667969 354.257812 492.914062 350.144531L492.914062 350.039062 488.132812 350.039062 488.115234 350.197266C487.763672 352.095703 486.480469 353.361328 484.423828 353.361328 481.892578 353.361328 480.310547 351.269531 480.310547 347.578125L480.310547 347.560547C480.310547 343.957031 481.892578 341.794922 484.40625 341.794922 486.533203 341.794922 487.78125 343.166016 488.097656 344.958984L488.132812 345.117188 492.896484 345.117188 492.896484 344.994141C492.703125 340.916016 489.451172 337.769531 484.335938 337.769531 478.693359 337.769531 475.089844 341.513672 475.089844 347.542969L475.089844 347.560547C475.089844 353.642578 478.640625 357.386719 484.388672 357.386719zM507.064453 357C512.478516 357 515.835938 354.205078 515.835938 349.740234L515.835938 349.705078C515.835938 346.365234 513.287109 343.851562 509.753906 343.587891L509.753906 343.482422C512.53125 343.113281 514.623047 340.757812 514.623047 337.998047L514.623047 337.962891C514.623047 334.078125 511.634766 331.634766 506.871094 331.634766L495.832031 331.634766 495.832031 357 507.064453 357zM504.955078 342.128906L501.140625 342.128906 501.140625 335.572266 505.5 335.572266C507.960938 335.572266 509.402344 336.732422 509.402344 338.736328L509.402344 338.771484C509.402344 340.880859 507.785156 342.128906 504.955078 342.128906zM505.710938 353.044922L501.140625 353.044922 501.140625 345.732422 505.587891 345.732422C508.716797 345.732422 510.421875 346.998047 510.421875 349.353516L510.421875 349.388672C510.421875 351.779297 508.751953 353.044922 505.710938 353.044922zM527.068359 357.386719C532.763672 357.386719 536.402344 353.730469 536.402344 347.578125L536.402344 347.542969C536.402344 341.443359 532.693359 337.769531 527.050781 337.769531 521.425781 337.769531 517.734375 341.478516 517.734375 347.542969L517.734375 347.578125C517.734375 353.712891 521.337891 357.386719 527.068359 357.386719zM527.085938 353.361328C524.554688 353.361328 522.955078 351.269531 522.955078 347.578125L522.955078 347.542969C522.955078 343.904297 524.572266 341.794922 527.050781 341.794922 529.546875 341.794922 531.181641 343.904297 531.181641 347.542969L531.181641 347.578125C531.181641 351.251953 529.582031 353.361328 527.085938 353.361328zM547.6875 357.386719C553.382812 357.386719 557.021484 353.730469 557.021484 347.578125L557.021484 347.542969C557.021484 341.443359 553.3125 337.769531 547.669922 337.769531 542.044922 337.769531 538.353516 341.478516 538.353516 347.542969L538.353516 347.578125C538.353516 353.712891 541.957031 357.386719 547.6875 357.386719zM547.705078 353.361328C545.173828 353.361328 543.574219 351.269531 543.574219 347.578125L543.574219 347.542969C543.574219 343.904297 545.191406 341.794922 547.669922 341.794922 550.166016 341.794922 551.800781 343.904297 551.800781 347.542969L551.800781 347.578125C551.800781 351.251953 550.201172 353.361328 547.705078 353.361328zM564.966797 357L564.966797 350.759766 566.285156 349.300781 571.681641 357 577.605469 357 570.134766 346.259766 577.253906 338.15625 571.435547 338.15625 565.072266 345.697266 564.966797 345.697266 564.966797 331.634766 559.833984 331.634766 559.833984 357 564.966797 357zM591.896484 357L591.896484 349.001953 596.783203 349.001953C602.126953 349.001953 605.695312 345.556641 605.695312 340.335938L605.695312 340.300781C605.695312 335.080078 602.126953 331.634766 596.783203 331.634766L586.587891 331.634766 586.587891 357 591.896484 357zM595.482422 344.853516L591.896484 344.853516 591.896484 335.835938 595.482422 335.835938C598.523438 335.835938 600.316406 337.435547 600.316406 340.318359L600.316406 340.353516C600.316406 343.236328 598.523438 344.853516 595.482422 344.853516zM613.517578 357L613.517578 346.382812C613.517578 343.728516 614.994141 342.199219 617.525391 342.199219 618.263672 342.199219 618.966797 342.304688 619.388672 342.480469L619.388672 337.962891C619.001953 337.857422 618.474609 337.769531 617.912109 337.769531 615.679688 337.769531 614.080078 339.087891 613.535156 341.373047L613.429688 341.373047 613.429688 338.15625 608.384766 338.15625 608.384766 357 613.517578 357zM629.513672 357.386719C635.208984 357.386719 638.847656 353.730469 638.847656 347.578125L638.847656 347.542969C638.847656 341.443359 635.138672 337.769531 629.496094 337.769531 623.871094 337.769531 620.179688 341.478516 620.179688 347.542969L620.179688 347.578125C620.179688 353.712891 623.783203 357.386719 629.513672 357.386719zM629.53125 353.361328C627 353.361328 625.400391 351.269531 625.400391 347.578125L625.400391 347.542969C625.400391 343.904297 627.017578 341.794922 629.496094 341.794922 631.992188 341.794922 633.626953 343.904297 633.626953 347.542969L633.626953 347.578125C633.626953 351.251953 632.027344 353.361328 629.53125 353.361328zM660.328125 357L660.328125 331.634766 655.054688 331.634766 648.498047 336.1875 648.498047 340.898438 654.966797 336.503906 655.072266 336.503906 655.072266 357 660.328125 357zM676.236328 357.439453C681.878906 357.439453 686.009766 353.748047 686.009766 348.5625L686.009766 348.527344C686.009766 343.78125 682.652344 340.300781 677.748047 340.300781 674.320312 340.300781 671.824219 342.023438 670.822266 344.378906L670.716797 344.378906C670.716797 339.457031 672.298828 335.396484 676.271484 335.396484 678.345703 335.396484 679.751953 336.433594 680.384766 337.962891L680.4375 338.121094 685.675781 338.121094 685.640625 337.945312C684.884766 334.025391 681.193359 331.195312 676.289062 331.195312 669.679688 331.195312 665.654297 336.1875 665.654297 344.501953L665.654297 344.537109C665.654297 353.132812 670.119141 357.439453 676.236328 357.439453zM676.166016 353.220703C673.564453 353.220703 671.525391 351.234375 671.525391 348.685547L671.525391 348.650391C671.525391 346.066406 673.564453 344.220703 676.21875 344.220703 678.855469 344.220703 680.841797 346.083984 680.841797 348.720703L680.841797 348.755859C680.841797 351.251953 678.75 353.220703 676.166016 353.220703zM692.25 341.355469L694.816406 331.634766 689.964844 331.634766 688.699219 341.355469 692.25 341.355469zM700.388672 341.355469L702.955078 331.634766 698.103516 331.634766 696.837891 341.355469 700.388672 341.355469z" transform="translate(78 30)"/>
  </g>
</svg>
