<?xml version="1.0" encoding="UTF-8" standalone="no"?>
<svg width="728px" height="529px" viewBox="0 0 728 529" version="1.1" xmlns="http://www.w3.org/2000/svg" xmlns:xlink="http://www.w3.org/1999/xlink" xmlns:sketch="http://www.bohemiancoding.com/sketch/ns">
    <!-- Generator: Sketch 3.3.3 (12072) - http://www.bohemiancoding.com/sketch -->
    <title>MacBook Overview</title>
    <desc>Created with Sketch.</desc>
    <defs></defs>
    <g id="Overview" stroke="none" stroke-width="1" fill="none" fill-rule="evenodd" sketch:type="MSPage">
        <g id="MacBook-Overview" sketch:type="MSArtboardGroup">
            <rect id="Background" fill="#F5515F" sketch:type="MSShapeGroup" x="0" y="0" width="728" height="1024"></rect>
            <g id="MacBook-Silver-+-MacBook-Gold-+-MacBook-Pro-15’’-Copy" sketch:type="MSLayerGroup" transform="translate(107.000000, 280.000000)">
                <g id="MacBook-Silver-+-MacBook-Gold-+-MacBook" sketch:type="MSShapeGroup">
                    <g id="MacBook-Silver-Copy-+-MacBook-Space-Gray" transform="translate(0.000000, 59.000000)">
                        <g id="MacBook-Silver-Copy" transform="translate(270.000000, 0.000000)">
                            <g id="Full-Screen" transform="translate(22.403658, 0.000000)">
                                <path d="M200.16228,7.39827319 C200.16228,3.35887839 196.872062,0.0794321267 192.819481,0.0794321267 L7.37320379,0.0794321267 C3.32062214,0.0794321267 0.0304049641,3.35887839 0.0304049641,7.39827319 L0.0304049641,133.359602 C0.0304049641,137.398997 3.32062214,140.678443 7.37320379,140.678443 L192.819481,140.678443 C196.872062,140.678443 200.16228,137.398997 200.16228,133.359602 L200.16228,7.39827319 L200.16228,7.39827319 Z" id="Metal-Frame" fill="#D5D2CF"></path>
                                <path d="M199.516574,7.37163631 C199.516574,3.70212726 196.527526,0.722944005 192.845965,0.722944005 L7.34687949,0.722944005 C3.66531842,0.722944005 0.676270411,3.70212726 0.676270411,7.37163631 L0.676270411,133.386399 C0.676270411,137.055908 3.66531842,140.035091 7.34687949,140.035091 L192.845965,140.035091 C196.527526,140.035091 199.516574,137.055908 199.516574,133.386399 L199.516574,7.37163631 L199.516574,7.37163631 Z" id="Black-Frame" fill="#343434"></path>
                                <path d="M199.161316,135.530667 L1.03136839,135.530667 C0.801170803,134.857727 0.676190398,134.136378 0.676190398,133.386239 L0.676190398,130.382891 L199.516654,130.382891 L199.516654,133.386239 C199.516654,134.136378 199.391674,134.857727 199.161476,135.530667 L199.161316,135.530667 Z" id="Plastic-Band" fill="#3E3E3E"></path>
                                <g id="Screen" transform="translate(7.601241, 10.208145)" fill="#343434">
                                    <path d="M0.320052253,115.386329 C0.218675702,115.366232 0.217395493,115.365753 0.131461463,115.308492 L0.0736120183,115.222281 L0.0533687133,115.120519 L0.0533687133,0.278889706 C0.0735320052,0.177845023 0.0740120836,0.176569005 0.131461463,0.0909162896 L0.217955585,0.0332562217 L0.320052253,0.0130791855 L184.67015,0.0130791855 L184.772247,0.0332562217 L184.858741,0.0909162896 L184.91659,0.177127262 L184.936834,0.278889706 L184.936834,115.120519 L184.91659,115.222281 C184.897307,115.250992 184.883305,115.284008 184.858741,115.308492 C184.79113,115.375882 184.758485,115.368864 184.67015,115.386329 L0.320052253,115.386329 L0.320052253,115.386329 Z" id="Screen-Frame"></path>
                                    <rect id="Screen---Off" x="0.320052253" y="0.278969457" width="184.350098" height="114.841629"></rect>
                                </g>
                            </g>
                            <g id="Body" transform="translate(0.000000, 135.497172)">
                                <path d="M28.082985,5.50282805 C16.9001992,5.50282805 3.23924886,3.57899152 0,1.64199604 L0,0.957013575 L245,0.957013575 L245,1.64199604 C241.760751,3.57899152 228.099801,5.50282805 216.917015,5.50282805 L28.082985,5.50282805 L28.082985,5.50282805 Z" id="Body-Bottom" fill="#A9A9A9"></path>
                                <rect id="Body-Top" fill="#D5D2CF" x="0" y="0.0334954751" width="245" height="1.60866007"></rect>
                                <path d="M146.063847,0.0334954751 L146.063847,0.916978507 C146.063847,1.67230147 145.448547,2.28558767 144.690663,2.28558767 L100.309177,2.28558767 C99.5512933,2.28558767 98.9359928,1.67230147 98.9359928,0.916978507 L98.9359928,0.0334954751 L146.063847,0.0334954751 L146.063847,0.0334954751 Z" id="Hollow" fill="#949494"></path>
                            </g>
                            <g id="Sensors" transform="translate(121.539843, 4.386312)" fill="#3E3E3E">
                                <ellipse id="Camera" cx="0.96015676" cy="0.996729638" rx="0.96015676" ry="0.957013575"></ellipse>
                            </g>
                        </g>
                        <g id="MacBook-Space-Gray">
                            <g id="Full-Screen" transform="translate(22.403658, 0.000000)">
                                <path d="M200.16228,7.39827319 C200.16228,3.35887839 196.872062,0.0794321267 192.819481,0.0794321267 L7.37320379,0.0794321267 C3.32062214,0.0794321267 0.0304049641,3.35887839 0.0304049641,7.39827319 L0.0304049641,133.359602 C0.0304049641,137.398997 3.32062214,140.678443 7.37320379,140.678443 L192.819481,140.678443 C196.872062,140.678443 200.16228,137.398997 200.16228,133.359602 L200.16228,7.39827319 L200.16228,7.39827319 Z" id="Metal-Frame" fill="#9D9D9D"></path>
                                <path d="M199.516574,7.37163631 C199.516574,3.70212726 196.527526,0.722944005 192.845965,0.722944005 L7.34687949,0.722944005 C3.66531842,0.722944005 0.676270411,3.70212726 0.676270411,7.37163631 L0.676270411,133.386399 C0.676270411,137.055908 3.66531842,140.035091 7.34687949,140.035091 L192.845965,140.035091 C196.527526,140.035091 199.516574,137.055908 199.516574,133.386399 L199.516574,7.37163631 L199.516574,7.37163631 Z" id="Black-Frame" fill="#343434"></path>
                                <path d="M199.161316,135.530667 L1.03136839,135.530667 C0.801170803,134.857727 0.676190398,134.136378 0.676190398,133.386239 L0.676190398,130.382891 L199.516654,130.382891 L199.516654,133.386239 C199.516654,134.136378 199.391674,134.857727 199.161476,135.530667 L199.161316,135.530667 Z" id="Plastic-Band" fill="#3E3E3E"></path>
                                <g id="Screen" transform="translate(7.601241, 10.208145)" fill="#343434">
                                    <path d="M0.320052253,115.386329 C0.218675702,115.366232 0.217395493,115.365753 0.131461463,115.308492 L0.0736120183,115.222281 L0.0533687133,115.120519 L0.0533687133,0.278889706 C0.0735320052,0.177845023 0.0740120836,0.176569005 0.131461463,0.0909162896 L0.217955585,0.0332562217 L0.320052253,0.0130791855 L184.67015,0.0130791855 L184.772247,0.0332562217 L184.858741,0.0909162896 L184.91659,0.177127262 L184.936834,0.278889706 L184.936834,115.120519 L184.91659,115.222281 C184.897307,115.250992 184.883305,115.284008 184.858741,115.308492 C184.79113,115.375882 184.758485,115.368864 184.67015,115.386329 L0.320052253,115.386329 L0.320052253,115.386329 Z" id="Screen-Frame"></path>
                                    <rect id="Screen---Off" x="0.320052253" y="0.278969457" width="184.350098" height="114.841629"></rect>
                                </g>
                            </g>
                            <g id="Body" transform="translate(0.000000, 135.497172)">
                                <path d="M28.082985,5.50282805 C16.9001992,5.50282805 3.23924886,3.57899152 0,1.64199604 L0,0.957013575 L245,0.957013575 L245,1.64199604 C241.760751,3.57899152 228.099801,5.50282805 216.917015,5.50282805 L28.082985,5.50282805 L28.082985,5.50282805 Z" id="Body-Bottom" fill="#838383"></path>
                                <rect id="Body-Top" fill="#9D9D9D" x="0" y="0.0334954751" width="245" height="1.60866007"></rect>
                                <path d="M146.063847,0.0334954751 L146.063847,0.916978507 C146.063847,1.67230147 145.448547,2.28558767 144.690663,2.28558767 L100.309177,2.28558767 C99.5512933,2.28558767 98.9359928,1.67230147 98.9359928,0.916978507 L98.9359928,0.0334954751 L146.063847,0.0334954751 L146.063847,0.0334954751 Z" id="Hollow" fill="#707070"></path>
                            </g>
                            <g id="Sensors" transform="translate(121.539843, 4.386312)" fill="#3E3E3E">
                                <ellipse id="Camera" cx="0.96015676" cy="0.996729638" rx="0.96015676" ry="0.957013575"></ellipse>
                            </g>
                        </g>
                    </g>
                    <path d="M186.88,2.48 L184.72,2.48 L184.28,30 L185.64,30 L185.88,10.88 C185.92,8.56 185.92,6.28 185.84,3.28 C186.84,6.28 187.68,8.56 188.56,10.88 L195.6,29.68 L197.4,29.68 L204.64,10.88 C205.52,8.56 206.4,6.28 207.36,3.6 C207.32,6.28 207.32,8.56 207.36,10.88 L207.64,30 L209.08,30 L208.64,2.48 L206.44,2.48 L198.76,22.52 C198,24.48 197.28,26.48 196.6,28.48 C195.96,26.48 195.24,24.48 194.48,22.52 L186.88,2.48 Z M216.24,13.32 C217.84,12.36 219.44,11.88 220.84,11.88 C223.64,11.88 225.68,13.2 225.68,16.48 L225.68,19 C224.76,18.8 223.92,18.72 222.72,18.72 C218.6,18.72 214.64,20.76 214.64,25.2 C214.64,28.48 217.12,30.4 219.72,30.4 C222.16,30.4 224.6,29.08 225.72,26.2 L225.88,30 L227.04,30 L227.04,16.24 C227.04,12.6 224.6,10.64 221.24,10.64 C219.2,10.64 217.64,11.08 216.16,12 L216.24,13.32 Z M225.68,22.2 C225.68,26.76 222.88,29.16 220.24,29.16 C217.92,29.16 216.08,27.6 216.08,24.96 C216.08,22.24 218.68,19.96 222.6,19.96 C223.72,19.96 224.76,20.04 225.68,20.2 L225.68,22.2 Z M245.24,28.24 C244.16,28.76 242.6,29.16 241.24,29.16 C237.2,29.16 233.8,26.76 233.8,20.44 C233.8,14.64 237.44,11.88 241.36,11.88 C243,11.88 244.12,12.24 245.32,12.84 L245.48,11.52 C244.4,11 243.24,10.64 241.24,10.64 C236.4,10.64 232.36,13.96 232.36,20.68 C232.36,27.4 236.4,30.4 240.68,30.4 C242.64,30.4 244,30.16 245.32,29.52 L245.24,28.24 Z M250.24,30 C251.52,30.28 252.92,30.4 254.08,30.4 C260.04,30.4 264.16,27.64 264.16,22.92 C264.16,19.2 261.24,16.56 256.92,16.08 C260.32,15.64 264,13.24 264,9 C264,4.92 260.84,2.08 254.32,2.08 C253.2,2.08 251.92,2.2 250.24,2.52 L250.24,30 Z M251.6,15.76 L251.6,3.6 C252.64,3.44 253.52,3.36 254.4,3.36 C259.88,3.36 262.52,5.52 262.52,9.32 C262.52,13.56 257.72,15.76 253.4,15.76 L251.6,15.76 Z M251.6,17.04 L253.88,17.04 C259.6,17.04 262.64,19.24 262.64,23.24 C262.64,26.84 259.08,29.12 254.64,29.12 C253.8,29.12 252.64,29.04 251.6,28.88 L251.6,17.04 Z M276.28,10.64 C271.28,10.64 268.4,14.96 268.4,20.52 C268.4,26.04 271.28,30.4 276.28,30.4 C281.28,30.4 284.16,26.04 284.16,20.52 C284.16,14.96 281.28,10.64 276.28,10.64 L276.28,10.64 Z M276.28,11.88 C279.84,11.88 282.72,14.92 282.72,20.52 C282.72,26.12 279.84,29.16 276.28,29.16 C272.72,29.16 269.84,26.12 269.84,20.52 C269.84,14.92 272.72,11.88 276.28,11.88 L276.28,11.88 Z M296.04,10.64 C291.04,10.64 288.16,14.96 288.16,20.52 C288.16,26.04 291.04,30.4 296.04,30.4 C301.04,30.4 303.92,26.04 303.92,20.52 C303.92,14.96 301.04,10.64 296.04,10.64 L296.04,10.64 Z M296.04,11.88 C299.6,11.88 302.48,14.92 302.48,20.52 C302.48,26.12 299.6,29.16 296.04,29.16 C292.48,29.16 289.6,26.12 289.6,20.52 C289.6,14.92 292.48,11.88 296.04,11.88 L296.04,11.88 Z M321.88,30 L312.76,20.48 L321.76,10.96 L320.04,10.96 L310.64,21 L310.64,0.6 L309.28,0.6 L309.28,30 L310.64,30 L310.64,22.44 L311.68,21.36 L319.84,30 L321.88,30 Z" id="MacBook" fill="#FFFFFF"></path>
                </g>
            </g>
            <g id="MacBook-Pro-13-inches-+-MacBook-Pro-13’’" sketch:type="MSLayerGroup" transform="translate(48.000000, 43.000000)">
                <g id="MacBook-Pro-13-inches-Copy" transform="translate(28.000000, 60.000000)" sketch:type="MSShapeGroup">
                    <g id="MacBook-Pro-13-Screen" transform="translate(18.894819, 0.000000)">
                        <g id="Frames">
                            <path d="M166.151115,6.64123494 C166.151115,2.97580501 163.168936,0 159.495735,0 L6.69509105,0 C3.02189011,0 0.039711146,2.97580501 0.039711146,6.64123494 L0.039711146,108.152393 C0.039711146,111.817743 3.02189011,114.793628 6.69509105,114.793628 L159.495735,114.793628 C163.168936,114.793628 166.151115,111.817743 166.151115,108.152393 L166.151115,6.64123494 L166.151115,6.64123494 Z" id="Metal-Frame" fill="#D5D2CF"></path>
                            <path d="M165.638713,6.65369804 C165.638713,3.26325525 162.880149,0.510667569 159.482444,0.510667569 L6.70742072,0.510667569 C3.30971586,0.510667569 0.551152276,3.26325525 0.551152276,6.65369804 L0.551152276,108.037828 C0.551152276,111.428271 3.30971586,114.180858 6.70742072,114.180858 L159.482444,114.180858 C162.880149,114.180858 165.638713,111.428271 165.638713,108.037828 L165.638713,6.65369804 L165.638713,6.65369804 Z" id="Pastic-Band" fill="#3E3E3E"></path>
                            <path d="M165.375306,94.4423426 C165.414137,94.6313663 165.434473,94.827021 165.434473,95.0273893 L165.434473,105.246173 C165.434473,106.850238 164.129369,108.152552 162.521868,108.152552 L3.66847724,108.152552 C2.06097645,108.152552 0.755872841,106.850238 0.755872841,105.246173 L0.755872841,95.0273893 C0.755872841,94.827021 0.776208791,94.6313663 0.815039246,94.4423426 C0.776048666,94.1646391 0.755872841,93.8808639 0.755872841,93.5925349 L0.755872841,6.79822207 C0.755872841,3.44069465 3.48753532,0.714870684 6.85217425,0.714870684 L159.338171,0.714870684 C162.70281,0.714870684 165.434473,3.44069465 165.434473,6.79822207 L165.434473,93.5925349 C165.434473,93.8808639 165.414297,94.1646391 165.375306,94.4423426 L165.375306,94.4423426 Z" id="Thin-Plastic-Frame" fill="#4D4D4D"></path>
                            <path d="M164.912543,94.3280975 C164.919028,94.4001598 164.922311,94.4731009 164.922311,94.5469208 L164.922311,105.216054 C164.922311,106.554879 163.832976,107.641885 162.491284,107.641885 L3.69874097,107.641885 C2.35704867,107.641885 1.26771429,106.554879 1.26771429,105.216054 L1.26771429,94.5469208 C1.26771429,94.4731009 1.27099686,94.4001598 1.27748195,94.3280975 C1.27099686,94.2172079 1.26771429,94.1054394 1.26771429,93.992872 L1.26771429,6.90855247 C1.26771429,3.77208531 3.81955573,1.22561814 6.96274097,1.22561814 L159.227765,1.22561814 C162.37095,1.22561814 164.922791,3.77208531 164.922791,6.90855247 L164.922791,93.992872 C164.922791,94.1054394 164.919509,94.2172079 164.913024,94.3280975 L164.912543,94.3280975 Z" id="Black-Frame" fill="#343434"></path>
                        </g>
                        <g id="Screen" transform="translate(6.084772, 7.749492)" fill="#343434">
                            <path d="M153.991177,0.318048747 C153.991177,0.186147596 153.883813,0.0790927556 153.75163,0.0790927556 L0.269651491,0.0790927556 C0.137467818,0.0790927556 0.0301036107,0.186147596 0.0301036107,0.318048747 L0.0301036107,96.1896534 C0.0301036107,96.3215545 0.137467818,96.4286892 0.269651491,96.4286892 L153.75163,96.4286892 C153.883813,96.4286892 153.991177,96.3215545 153.991177,96.1896534 L153.991177,0.318048747 L153.991177,0.318048747 Z" id="Screen-Frame"></path>
                            <rect id="Screen---Off" x="0.150117739" y="0.318767773" width="153.720565" height="95.8700068"></rect>
                        </g>
                        <g id="Sensors" transform="translate(82.064364, 3.435342)" fill="#3E3E3E">
                            <path d="M1.03120879,1.95407041 C1.56178493,1.95407041 1.99196232,1.52481246 1.99196232,0.995370345 C1.99196232,0.465848341 1.56178493,0.0366702776 1.03120879,0.0366702776 C0.500632653,0.0366702776 0.070455259,0.465848341 0.070455259,0.995370345 C0.070455259,1.52481246 0.500632653,1.95407041 1.03120879,1.95407041 L1.03120879,1.95407041 Z" id="Camera"></path>
                        </g>
                        <path d="M145.57898,108.86998 L20.6121664,108.86998 L20.3051256,111.116853 L145.88602,111.116853 L145.57898,108.86998 L145.57898,108.86998 Z" id="Pivoting-Support" fill="#4D4D4D"></path>
                    </g>
                    <g id="MacBook-Pro-13-Body" transform="translate(0.000000, 110.889641)">
                        <path d="M10.7465887,7.06961408 C6.8890832,7.06961408 1.50830298,5.54703859 0,3.90366689 L203.979984,3.90366689 C202.471681,5.54703859 197.090901,7.06961408 193.233396,7.06961408 L10.7462684,7.06961408 L10.7465887,7.06961408 Z" id="Bottom-Body" fill="#A9A9A9"></path>
                        <path d="M203.979984,3.90430603 C203.853965,4.04155992 203.700965,4.1780149 203.524027,4.31279215 L0.455957614,4.31279215 C0.279018838,4.1780149 0.126018838,4.04155992 2.84217094e-14,3.90430603 L2.84217094e-14,3.80228436 L2.84217094e-14,0.0233283683 L203.979984,0.0233283683 L203.979984,3.90430603 L203.979984,3.90430603 Z" id="Top-Body" fill="#D5D2CF"></path>
                        <path d="M87.8657143,2.57650643 C86.8107268,2.57650643 85.7163485,1.25429926 85.7163485,0.0232484766 L118.263155,0.0232484766 C118.263155,1.25429926 117.168777,2.57650643 116.11379,2.57650643 L87.8657143,2.57650643 L87.8657143,2.57650643 Z" id="Hollow" fill="#949494"></path>
                    </g>
                </g>
                <path d="M2.6,1.88 L0.44,1.88 L0,29.4 L1.36,29.4 L1.6,10.28 C1.64,7.96 1.64,5.68 1.56,2.68 C2.56,5.68 3.4,7.96 4.28,10.28 L11.32,29.08 L13.12,29.08 L20.36,10.28 C21.24,7.96 22.12,5.68 23.08,3 C23.04,5.68 23.04,7.96 23.08,10.28 L23.36,29.4 L24.8,29.4 L24.36,1.88 L22.16,1.88 L14.48,21.92 C13.72,23.88 13,25.88 12.32,27.88 C11.68,25.88 10.96,23.88 10.2,21.92 L2.6,1.88 Z M31.96,12.72 C33.56,11.76 35.16,11.28 36.56,11.28 C39.36,11.28 41.4,12.6 41.4,15.88 L41.4,18.4 C40.48,18.2 39.64,18.12 38.44,18.12 C34.32,18.12 30.36,20.16 30.36,24.6 C30.36,27.88 32.84,29.8 35.44,29.8 C37.88,29.8 40.32,28.48 41.44,25.6 L41.6,29.4 L42.76,29.4 L42.76,15.64 C42.76,12 40.32,10.04 36.96,10.04 C34.92,10.04 33.36,10.48 31.88,11.4 L31.96,12.72 Z M41.4,21.6 C41.4,26.16 38.6,28.56 35.96,28.56 C33.64,28.56 31.8,27 31.8,24.36 C31.8,21.64 34.4,19.36 38.32,19.36 C39.44,19.36 40.48,19.44 41.4,19.6 L41.4,21.6 Z M60.96,27.64 C59.88,28.16 58.32,28.56 56.96,28.56 C52.92,28.56 49.52,26.16 49.52,19.84 C49.52,14.04 53.16,11.28 57.08,11.28 C58.72,11.28 59.84,11.64 61.04,12.24 L61.2,10.92 C60.12,10.4 58.96,10.04 56.96,10.04 C52.12,10.04 48.08,13.36 48.08,20.08 C48.08,26.8 52.12,29.8 56.4,29.8 C58.36,29.8 59.72,29.56 61.04,28.92 L60.96,27.64 Z M65.96,29.4 C67.24,29.68 68.64,29.8 69.8,29.8 C75.76,29.8 79.88,27.04 79.88,22.32 C79.88,18.6 76.96,15.96 72.64,15.48 C76.04,15.04 79.72,12.64 79.72,8.4 C79.72,4.32 76.56,1.48 70.04,1.48 C68.92,1.48 67.64,1.6 65.96,1.92 L65.96,29.4 Z M67.32,15.16 L67.32,3 C68.36,2.84 69.24,2.76 70.12,2.76 C75.6,2.76 78.24,4.92 78.24,8.72 C78.24,12.96 73.44,15.16 69.12,15.16 L67.32,15.16 Z M67.32,16.44 L69.6,16.44 C75.32,16.44 78.36,18.64 78.36,22.64 C78.36,26.24 74.8,28.52 70.36,28.52 C69.52,28.52 68.36,28.44 67.32,28.28 L67.32,16.44 Z M92,10.04 C87,10.04 84.12,14.36 84.12,19.92 C84.12,25.44 87,29.8 92,29.8 C97,29.8 99.88,25.44 99.88,19.92 C99.88,14.36 97,10.04 92,10.04 L92,10.04 Z M92,11.28 C95.56,11.28 98.44,14.32 98.44,19.92 C98.44,25.52 95.56,28.56 92,28.56 C88.44,28.56 85.56,25.52 85.56,19.92 C85.56,14.32 88.44,11.28 92,11.28 L92,11.28 Z M111.76,10.04 C106.76,10.04 103.88,14.36 103.88,19.92 C103.88,25.44 106.76,29.8 111.76,29.8 C116.76,29.8 119.64,25.44 119.64,19.92 C119.64,14.36 116.76,10.04 111.76,10.04 L111.76,10.04 Z M111.76,11.28 C115.32,11.28 118.2,14.32 118.2,19.92 C118.2,25.52 115.32,28.56 111.76,28.56 C108.2,28.56 105.32,25.52 105.32,19.92 C105.32,14.32 108.2,11.28 111.76,11.28 L111.76,11.28 Z M137.6,29.4 L128.48,19.88 L137.48,10.36 L135.76,10.36 L126.36,20.4 L126.36,0 L125,0 L125,29.4 L126.36,29.4 L126.36,21.84 L127.4,20.76 L135.56,29.4 L137.6,29.4 Z M151.08,29.4 L152.44,29.4 L152.44,17.28 C153.16,17.36 154,17.4 154.72,17.4 C160.12,17.4 165.04,14.4 165.04,9 C165.04,4.8 162.08,1.48 155.4,1.48 C154.08,1.48 152.64,1.6 151.08,1.96 L151.08,29.4 Z M152.44,3.04 C153.6,2.84 154.6,2.76 155.48,2.76 C161.24,2.76 163.52,5.36 163.52,9.2 C163.52,13.24 159.88,16.16 154.24,16.16 C153.76,16.16 152.96,16.08 152.44,16 L152.44,3.04 Z M170.36,10.44 L169.2,10.44 L169.2,29.4 L170.56,29.4 L170.56,18.44 C170.56,14.88 171.96,11.32 174.56,11.32 C174.96,11.32 175.36,11.36 175.64,11.48 L175.8,10.2 C175.6,10.08 175.12,10.04 174.8,10.04 C172.8,10.04 170.96,11.8 170.52,14.2 L170.36,10.44 Z M186.48,10.04 C181.48,10.04 178.6,14.36 178.6,19.92 C178.6,25.44 181.48,29.8 186.48,29.8 C191.48,29.8 194.36,25.44 194.36,19.92 C194.36,14.36 191.48,10.04 186.48,10.04 L186.48,10.04 Z M186.48,11.28 C190.04,11.28 192.92,14.32 192.92,19.92 C192.92,25.52 190.04,28.56 186.48,28.56 C182.92,28.56 180.04,25.52 180.04,19.92 C180.04,14.32 182.92,11.28 186.48,11.28 L186.48,11.28 Z M218.28,29.4 L218.28,2.92 L217.6,2.92 L209.8,7.68 L209.88,9.08 L216.92,4.92 L216.92,29.4 L218.28,29.4 Z M227.6,5.84 C229.2,4.48 231.04,3.8 232.68,3.8 C236.6,3.8 238.36,5.92 238.36,8.92 C238.36,12.56 234.6,15.08 230.32,15.24 L230.32,16.52 C235.88,16.52 238.48,19.08 238.48,22.76 C238.48,26.08 235.56,28.52 231.96,28.52 C229.96,28.52 228.24,28.04 226.32,26.72 L226.2,28.16 C227.72,29.32 229.64,29.8 231.8,29.8 C236.36,29.8 239.92,26.72 239.92,22.64 C239.92,18.84 237.32,16.16 233.2,15.68 C236.68,15 239.8,12.2 239.8,8.6 C239.8,5.24 237.4,2.52 233.08,2.52 C230.8,2.52 228.96,3.24 227.52,4.4 L227.6,5.84 Z M244.76,10.68 L249.48,0 L247.88,0.08 L243.68,10.88 L244.76,10.68 Z M253.32,10.68 L258.04,0 L256.44,0.08 L252.24,10.88 L253.32,10.68 Z" id="MacBook-Pro-13’’" fill="#FFFFFF" sketch:type="MSShapeGroup"></path>
            </g>
            <g id="MacBook-Pro-15-inches-+-MacBook-Pro-15’’" sketch:type="MSLayerGroup" transform="translate(408.000000, 43.000000)">
                <g id="MacBook-Pro-15-inches-Copy" transform="translate(16.000000, 60.000000)" sketch:type="MSShapeGroup">
                    <g id="MacBook-Pro-13-Screen" transform="translate(20.971086, 0.000000)">
                        <g id="Frames">
                            <path d="M184.976185,6.50863158 C184.976185,2.91639351 182.064486,0 178.47803,0 L6.54153808,0 C2.9551622,0 0.0433829337,2.91639351 0.0433829337,6.50863158 L0.0433829337,121.378154 C0.0433829337,124.970312 2.9551622,127.886706 6.54153808,127.886706 L178.47803,127.886706 C182.064486,127.886706 184.976185,124.970312 184.976185,121.378154 L184.976185,6.50863158 L184.976185,6.50863158 Z" id="Metal-Frame" fill="#D5D2CF"></path>
                            <path d="M184.408685,6.48914994 C184.408685,3.22168605 181.760245,0.568895961 178.49804,0.568895961 L6.52312835,0.568895961 C3.26092384,0.568895961 0.612403738,3.22168605 0.612403738,6.48914994 L0.612403738,121.397155 C0.612403738,124.664619 3.26092384,127.317409 6.52312835,127.317409 L178.49804,127.317409 C181.760245,127.317409 184.408685,124.664619 184.408685,121.397155 L184.408685,6.48914994 L184.408685,6.48914994 Z" id="Plastic-Band" fill="#3E3E3E"></path>
                            <path d="M184.295025,6.57204712 L184.295025,118.282017 C184.295025,119.938918 182.951995,121.284113 181.29776,121.284113 L3.72308815,121.284113 C2.06885367,121.284113 0.725823695,119.938918 0.725823695,118.282017 L0.725823695,6.57204712 C0.725823695,3.32157956 3.36057652,0.682659119 6.60573202,0.682659119 L178.415757,0.682659119 C181.660912,0.682659119 184.295585,3.32157956 184.295585,6.57204712 L184.295025,6.57204712 Z" id="Thin-Plastic-Frame" fill="#4D4D4D"></path>
                            <path d="M183.840384,6.5609033 L183.840384,118.157029 C183.840384,119.631942 182.644952,120.829301 181.172414,120.829301 L3.84747391,120.829301 C2.37501551,120.829301 1.17950353,119.631942 1.17950353,118.157029 L1.17950353,6.5609033 C1.17950353,3.5677858 3.60558604,1.13779192 6.59388575,1.13779192 L178.425522,1.13779192 C181.413822,1.13779192 183.839904,3.5677858 183.839904,6.5609033 L183.840384,6.5609033 Z" id="Black-Frame" fill="#343434"></path>
                        </g>
                        <g id="Screen" transform="translate(5.683004, 7.455936)" fill="#343434">
                            <path d="M173.633389,0.372155447 C173.633389,0.196259486 173.490833,0.0533941248 173.31514,0.0533941248 L0.339699577,0.0533941248 C0.164086742,0.0533941248 0.0214513399,0.196259486 0.0214513399,0.372155447 L0.0214513399,108.68767 C0.0214513399,108.863646 0.164086742,109.006431 0.339699577,109.006431 L173.31514,109.006431 C173.490833,109.006431 173.633389,108.863646 173.633389,108.68767 L173.633389,0.372155447 L173.633389,0.372155447 Z" id="Screen-Frame"></path>
                            <rect id="Screen---Off" x="0.381481664" y="0.39476377" width="172.891396" height="108.231334"></rect>
                        </g>
                        <path d="M92.5105042,5.43168972 C93.0432659,5.43168972 93.4751742,4.99908507 93.4751742,4.4654645 C93.4751742,3.93184394 93.0432659,3.49923929 92.5105042,3.49923929 C91.9778226,3.49923929 91.5458343,3.93184394 91.5458343,4.4654645 C91.5458343,4.99908507 91.9778226,5.43168972 92.5105042,5.43168972 L92.5105042,5.43168972 Z" id="Camera" fill="#3E3E3E"></path>
                        <path d="M164.960804,121.898947 L20.0594041,121.898947 L19.7510811,124.163387 L165.268807,124.163387 L164.960564,121.898947 L164.960804,121.898947 Z" id="Pivoting-Support" fill="#4D4D4D"></path>
                    </g>
                    <g id="MacBook-Pro-15-Body" transform="translate(0.000000, 123.784578)">
                        <path d="M10.7904242,7.16090575 C6.91717666,7.16090575 1.51448061,5.62642595 0,3.97016585 L226.96238,3.97016585 C225.44798,5.62642595 220.045283,7.16090575 216.172036,7.16090575 L10.7898639,7.16090575 L10.7901841,7.16090575 L10.7904242,7.16090575 Z" id="Bottom-Body" fill="#A9A9A9"></path>
                        <path d="M226.96238,3.97088739 C226.835913,4.10918299 226.682232,4.24675704 226.504618,4.38256732 L0.457922073,4.38256732 C0.280228138,4.24675704 0.126626939,4.10918299 8.00423131e-05,3.97088739 L8.00423131e-05,3.86802754 L8.00423131e-05,0.0594069767 L226.96246,0.0594069767 L226.96246,3.97088739 L226.96238,3.97088739 Z" id="Top-Body" fill="#D5D2CF"></path>
                        <path d="M99.8111636,2.69295594 C98.7518836,2.69295594 97.6530628,1.36042778 97.6530628,0.119695838 L129.310198,0.119695838 C129.310198,1.36042778 128.211377,2.69295594 127.152017,2.69295594 L99.8111636,2.69295594 L99.8111636,2.69295594 Z" id="Hollow" fill="#949494"></path>
                    </g>
                </g>
                <path d="M2.6,1.88 L0.44,1.88 L0,29.4 L1.36,29.4 L1.6,10.28 C1.64,7.96 1.64,5.68 1.56,2.68 C2.56,5.68 3.4,7.96 4.28,10.28 L11.32,29.08 L13.12,29.08 L20.36,10.28 C21.24,7.96 22.12,5.68 23.08,3 C23.04,5.68 23.04,7.96 23.08,10.28 L23.36,29.4 L24.8,29.4 L24.36,1.88 L22.16,1.88 L14.48,21.92 C13.72,23.88 13,25.88 12.32,27.88 C11.68,25.88 10.96,23.88 10.2,21.92 L2.6,1.88 Z M31.96,12.72 C33.56,11.76 35.16,11.28 36.56,11.28 C39.36,11.28 41.4,12.6 41.4,15.88 L41.4,18.4 C40.48,18.2 39.64,18.12 38.44,18.12 C34.32,18.12 30.36,20.16 30.36,24.6 C30.36,27.88 32.84,29.8 35.44,29.8 C37.88,29.8 40.32,28.48 41.44,25.6 L41.6,29.4 L42.76,29.4 L42.76,15.64 C42.76,12 40.32,10.04 36.96,10.04 C34.92,10.04 33.36,10.48 31.88,11.4 L31.96,12.72 Z M41.4,21.6 C41.4,26.16 38.6,28.56 35.96,28.56 C33.64,28.56 31.8,27 31.8,24.36 C31.8,21.64 34.4,19.36 38.32,19.36 C39.44,19.36 40.48,19.44 41.4,19.6 L41.4,21.6 Z M60.96,27.64 C59.88,28.16 58.32,28.56 56.96,28.56 C52.92,28.56 49.52,26.16 49.52,19.84 C49.52,14.04 53.16,11.28 57.08,11.28 C58.72,11.28 59.84,11.64 61.04,12.24 L61.2,10.92 C60.12,10.4 58.96,10.04 56.96,10.04 C52.12,10.04 48.08,13.36 48.08,20.08 C48.08,26.8 52.12,29.8 56.4,29.8 C58.36,29.8 59.72,29.56 61.04,28.92 L60.96,27.64 Z M65.96,29.4 C67.24,29.68 68.64,29.8 69.8,29.8 C75.76,29.8 79.88,27.04 79.88,22.32 C79.88,18.6 76.96,15.96 72.64,15.48 C76.04,15.04 79.72,12.64 79.72,8.4 C79.72,4.32 76.56,1.48 70.04,1.48 C68.92,1.48 67.64,1.6 65.96,1.92 L65.96,29.4 Z M67.32,15.16 L67.32,3 C68.36,2.84 69.24,2.76 70.12,2.76 C75.6,2.76 78.24,4.92 78.24,8.72 C78.24,12.96 73.44,15.16 69.12,15.16 L67.32,15.16 Z M67.32,16.44 L69.6,16.44 C75.32,16.44 78.36,18.64 78.36,22.64 C78.36,26.24 74.8,28.52 70.36,28.52 C69.52,28.52 68.36,28.44 67.32,28.28 L67.32,16.44 Z M92,10.04 C87,10.04 84.12,14.36 84.12,19.92 C84.12,25.44 87,29.8 92,29.8 C97,29.8 99.88,25.44 99.88,19.92 C99.88,14.36 97,10.04 92,10.04 L92,10.04 Z M92,11.28 C95.56,11.28 98.44,14.32 98.44,19.92 C98.44,25.52 95.56,28.56 92,28.56 C88.44,28.56 85.56,25.52 85.56,19.92 C85.56,14.32 88.44,11.28 92,11.28 L92,11.28 Z M111.76,10.04 C106.76,10.04 103.88,14.36 103.88,19.92 C103.88,25.44 106.76,29.8 111.76,29.8 C116.76,29.8 119.64,25.44 119.64,19.92 C119.64,14.36 116.76,10.04 111.76,10.04 L111.76,10.04 Z M111.76,11.28 C115.32,11.28 118.2,14.32 118.2,19.92 C118.2,25.52 115.32,28.56 111.76,28.56 C108.2,28.56 105.32,25.52 105.32,19.92 C105.32,14.32 108.2,11.28 111.76,11.28 L111.76,11.28 Z M137.6,29.4 L128.48,19.88 L137.48,10.36 L135.76,10.36 L126.36,20.4 L126.36,0 L125,0 L125,29.4 L126.36,29.4 L126.36,21.84 L127.4,20.76 L135.56,29.4 L137.6,29.4 Z M151.08,29.4 L152.44,29.4 L152.44,17.28 C153.16,17.36 154,17.4 154.72,17.4 C160.12,17.4 165.04,14.4 165.04,9 C165.04,4.8 162.08,1.48 155.4,1.48 C154.08,1.48 152.64,1.6 151.08,1.96 L151.08,29.4 Z M152.44,3.04 C153.6,2.84 154.6,2.76 155.48,2.76 C161.24,2.76 163.52,5.36 163.52,9.2 C163.52,13.24 159.88,16.16 154.24,16.16 C153.76,16.16 152.96,16.08 152.44,16 L152.44,3.04 Z M170.36,10.44 L169.2,10.44 L169.2,29.4 L170.56,29.4 L170.56,18.44 C170.56,14.88 171.96,11.32 174.56,11.32 C174.96,11.32 175.36,11.36 175.64,11.48 L175.8,10.2 C175.6,10.08 175.12,10.04 174.8,10.04 C172.8,10.04 170.96,11.8 170.52,14.2 L170.36,10.44 Z M186.48,10.04 C181.48,10.04 178.6,14.36 178.6,19.92 C178.6,25.44 181.48,29.8 186.48,29.8 C191.48,29.8 194.36,25.44 194.36,19.92 C194.36,14.36 191.48,10.04 186.48,10.04 L186.48,10.04 Z M186.48,11.28 C190.04,11.28 192.92,14.32 192.92,19.92 C192.92,25.52 190.04,28.56 186.48,28.56 C182.92,28.56 180.04,25.52 180.04,19.92 C180.04,14.32 182.92,11.28 186.48,11.28 L186.48,11.28 Z M218.28,29.4 L218.28,2.92 L217.6,2.92 L209.8,7.68 L209.88,9.08 L216.92,4.92 L216.92,29.4 L218.28,29.4 Z M239.12,4.36 L239.12,3.08 L228.2,3.08 L227.48,15.48 L229.84,15.48 C235.36,15.48 238.16,17.8 238.16,22.36 C238.16,25.92 234.8,28.52 231.48,28.52 C229.64,28.52 228.08,28.16 226.32,26.88 L226.16,28.32 C227.76,29.44 229.16,29.8 231.32,29.8 C235.92,29.8 239.6,26.32 239.6,22.04 C239.6,17 236.08,14.2 230.16,14.2 L228.84,14.2 L229.4,4.36 L239.12,4.36 Z M244.76,10.68 L249.48,0 L247.88,0.08 L243.68,10.88 L244.76,10.68 Z M253.32,10.68 L258.04,0 L256.44,0.08 L252.24,10.88 L253.32,10.68 Z" id="MacBook-Pro-15’’" fill="#FFFFFF" sketch:type="MSShapeGroup"></path>
            </g>
        </g>
    </g>
</svg>