<svg xmlns="http://www.w3.org/2000/svg" width="728" height="1059" viewBox="0 0 728 1059">
  <g fill="none" fill-rule="evenodd">
    <rect width="728" height="1059" fill="#F4F4F4"/>
    <g transform="translate(107 276)">
      <g transform="translate(0 64)">
        <g transform="translate(270)">
          <g transform="translate(22.404)">
            <path fill="#D5D2CF" d="M200.16228,7.39827319 C200.16228,3.35887839 196.872062,0.0794321267 192.819481,0.0794321267 L7.37320379,0.0794321267 C3.32062214,0.0794321267 0.0304049641,3.35887839 0.0304049641,7.39827319 L0.0304049641,133.359602 C0.0304049641,137.398997 3.32062214,140.678443 7.37320379,140.678443 L192.819481,140.678443 C196.872062,140.678443 200.16228,137.398997 200.16228,133.359602 L200.16228,7.39827319 L200.16228,7.39827319 Z"/>
            <path fill="#343434" d="M199.516574,7.37163631 C199.516574,3.70212726 196.527526,0.722944005 192.845965,0.722944005 L7.34687949,0.722944005 C3.66531842,0.722944005 0.676270411,3.70212726 0.676270411,7.37163631 L0.676270411,133.386399 C0.676270411,137.055908 3.66531842,140.035091 7.34687949,140.035091 L192.845965,140.035091 C196.527526,140.035091 199.516574,137.055908 199.516574,133.386399 L199.516574,7.37163631 L199.516574,7.37163631 Z"/>
            <path fill="#3E3E3E" d="M199.161316,135.530667 L1.03136839,135.530667 C0.801170803,134.857727 0.676190398,134.136378 0.676190398,133.386239 L0.676190398,130.382891 L199.516654,130.382891 L199.516654,133.386239 C199.516654,134.136378 199.391674,134.857727 199.161476,135.530667 L199.161316,135.530667 Z"/>
            <g fill="#343434" transform="translate(7.601 10.208)">
              <path d="M0.320052253,115.386329 C0.218675702,115.366232 0.217395493,115.365753 0.131461463,115.308492 L0.0736120183,115.222281 L0.0533687133,115.120519 L0.0533687133,0.278889706 C0.0735320052,0.177845023 0.0740120836,0.176569005 0.131461463,0.0909162896 L0.217955585,0.0332562217 L0.320052253,0.0130791855 L184.67015,0.0130791855 L184.772247,0.0332562217 L184.858741,0.0909162896 L184.91659,0.177127262 L184.936834,0.278889706 L184.936834,115.120519 L184.91659,115.222281 C184.897307,115.250992 184.883305,115.284008 184.858741,115.308492 C184.79113,115.375882 184.758485,115.368864 184.67015,115.386329 L0.320052253,115.386329 L0.320052253,115.386329 Z"/>
              <rect width="184.35" height="114.842" x=".32" y=".279"/>
            </g>
          </g>
          <g transform="translate(0 135.497)">
            <path fill="#A9A9A9" d="M28.082985,5.50282805 C16.9001992,5.50282805 3.23924886,3.57899152 0,1.64199604 L0,0.957013575 L245,0.957013575 L245,1.64199604 C241.760751,3.57899152 228.099801,5.50282805 216.917015,5.50282805 L28.082985,5.50282805 L28.082985,5.50282805 Z"/>
            <rect width="245" height="1.609" y=".033" fill="#D5D2CF"/>
            <path fill="#949494" d="M146.063847,0.0334954751 L146.063847,0.916978507 C146.063847,1.67230147 145.448547,2.28558767 144.690663,2.28558767 L100.309177,2.28558767 C99.5512933,2.28558767 98.9359928,1.67230147 98.9359928,0.916978507 L98.9359928,0.0334954751 L146.063847,0.0334954751 L146.063847,0.0334954751 Z"/>
          </g>
          <ellipse cx=".96" cy=".997" fill="#3E3E3E" rx="1" ry="1" transform="translate(121.54 4.386)"/>
        </g>
        <g transform="translate(22.404)">
          <path fill="#9D9D9D" d="M200.16228,7.39827319 C200.16228,3.35887839 196.872062,0.0794321267 192.819481,0.0794321267 L7.37320379,0.0794321267 C3.32062214,0.0794321267 0.0304049641,3.35887839 0.0304049641,7.39827319 L0.0304049641,133.359602 C0.0304049641,137.398997 3.32062214,140.678443 7.37320379,140.678443 L192.819481,140.678443 C196.872062,140.678443 200.16228,137.398997 200.16228,133.359602 L200.16228,7.39827319 L200.16228,7.39827319 Z"/>
          <path fill="#343434" d="M199.516574,7.37163631 C199.516574,3.70212726 196.527526,0.722944005 192.845965,0.722944005 L7.34687949,0.722944005 C3.66531842,0.722944005 0.676270411,3.70212726 0.676270411,7.37163631 L0.676270411,133.386399 C0.676270411,137.055908 3.66531842,140.035091 7.34687949,140.035091 L192.845965,140.035091 C196.527526,140.035091 199.516574,137.055908 199.516574,133.386399 L199.516574,7.37163631 L199.516574,7.37163631 Z"/>
          <path fill="#3E3E3E" d="M199.161316,135.530667 L1.03136839,135.530667 C0.801170803,134.857727 0.676190398,134.136378 0.676190398,133.386239 L0.676190398,130.382891 L199.516654,130.382891 L199.516654,133.386239 C199.516654,134.136378 199.391674,134.857727 199.161476,135.530667 L199.161316,135.530667 Z"/>
          <g fill="#343434" transform="translate(7.601 10.208)">
            <path d="M0.320052253,115.386329 C0.218675702,115.366232 0.217395493,115.365753 0.131461463,115.308492 L0.0736120183,115.222281 L0.0533687133,115.120519 L0.0533687133,0.278889706 C0.0735320052,0.177845023 0.0740120836,0.176569005 0.131461463,0.0909162896 L0.217955585,0.0332562217 L0.320052253,0.0130791855 L184.67015,0.0130791855 L184.772247,0.0332562217 L184.858741,0.0909162896 L184.91659,0.177127262 L184.936834,0.278889706 L184.936834,115.120519 L184.91659,115.222281 C184.897307,115.250992 184.883305,115.284008 184.858741,115.308492 C184.79113,115.375882 184.758485,115.368864 184.67015,115.386329 L0.320052253,115.386329 L0.320052253,115.386329 Z"/>
            <rect width="184.35" height="114.842" x=".32" y=".279"/>
          </g>
        </g>
        <g transform="translate(0 135.497)">
          <path fill="#838383" d="M28.082985,5.50282805 C16.9001992,5.50282805 3.23924886,3.57899152 0,1.64199604 L0,0.957013575 L245,0.957013575 L245,1.64199604 C241.760751,3.57899152 228.099801,5.50282805 216.917015,5.50282805 L28.082985,5.50282805 L28.082985,5.50282805 Z"/>
          <rect width="245" height="1.609" y=".033" fill="#9D9D9D"/>
          <path fill="#707070" d="M146.063847,0.0334954751 L146.063847,0.916978507 C146.063847,1.67230147 145.448547,2.28558767 144.690663,2.28558767 L100.309177,2.28558767 C99.5512933,2.28558767 98.9359928,1.67230147 98.9359928,0.916978507 L98.9359928,0.0334954751 L146.063847,0.0334954751 L146.063847,0.0334954751 Z"/>
        </g>
        <ellipse cx=".96" cy=".997" fill="#3E3E3E" rx="1" ry="1" transform="translate(121.54 4.386)"/>
      </g>
      <path fill="#222" d="M209.152344,34 L204.423828,34 L204.423828,16.8789062 L204.283203,16.8789062 L197.392578,33.7539062 L194.052734,33.7539062 L187.162109,16.8789062 L187.021484,16.8789062 L187.021484,34 L182.292969,34 L182.292969,8.63476562 L188.445312,8.63476562 L195.652344,26.6171875 L195.792969,26.6171875 L203,8.63476562 L209.152344,8.63476562 L209.152344,34 Z M219.804688,30.5898438 C222.037109,30.5898438 223.882812,29.1308594 223.882812,27.0917969 L223.882812,25.7207031 L219.910156,25.9667969 C217.994141,26.1074219 216.904297,26.96875 216.904297,28.3046875 C216.904297,29.7109375 218.064453,30.5898438 219.804688,30.5898438 Z M218.117188,34.2988281 C214.53125,34.2988281 211.806641,31.9785156 211.806641,28.5859375 C211.806641,25.1582031 214.443359,23.171875 219.136719,22.890625 L223.882812,22.609375 L223.882812,21.3613281 C223.882812,19.6035156 222.652344,18.5839844 220.71875,18.5839844 C218.802734,18.5839844 217.589844,19.5332031 217.34375,20.921875 L212.650391,20.921875 C212.84375,17.265625 215.955078,14.7519531 220.947266,14.7519531 C225.78125,14.7519531 228.927734,17.2480469 228.927734,21.0449219 L228.927734,34 L223.970703,34 L223.970703,31.1171875 L223.865234,31.1171875 C222.810547,33.1210938 220.472656,34.2988281 218.117188,34.2988281 Z M249.353516,22.1699219 L244.589844,22.1699219 C244.291016,20.1835938 242.972656,18.7773438 240.863281,18.7773438 C238.332031,18.7773438 236.75,20.921875 236.75,24.5605469 C236.75,28.2695312 238.332031,30.3789062 240.880859,30.3789062 C242.9375,30.3789062 244.273438,29.1484375 244.589844,27.0917969 L249.371094,27.0917969 C249.107422,31.5390625 245.785156,34.4042969 240.828125,34.4042969 C235.150391,34.4042969 231.546875,30.7128906 231.546875,24.5605469 C231.546875,18.5136719 235.150391,14.7519531 240.792969,14.7519531 C245.890625,14.7519531 249.125,17.8984375 249.353516,22.1699219 Z M263.521484,34 L252.289062,34 L252.289062,8.63476562 L263.328125,8.63476562 C268.091797,8.63476562 271.080078,11.078125 271.080078,14.9628906 C271.080078,17.7402344 269.005859,20.0605469 266.316406,20.4648438 L266.316406,20.6054688 C269.761719,20.8691406 272.292969,23.3828125 272.292969,26.7402344 C272.292969,31.2050781 268.935547,34 263.521484,34 Z M257.597656,12.5898438 L257.597656,19.1816406 L261.412109,19.1816406 C264.242188,19.1816406 265.859375,17.9335938 265.859375,15.7890625 C265.859375,13.75 264.435547,12.5898438 261.957031,12.5898438 L257.597656,12.5898438 Z M257.597656,30.0449219 L262.167969,30.0449219 C265.226562,30.0449219 266.878906,28.7441406 266.878906,26.3183594 C266.878906,23.9453125 265.173828,22.6796875 262.044922,22.6796875 L257.597656,22.6796875 L257.597656,30.0449219 Z M283.525391,34.4042969 C277.830078,34.4042969 274.191406,30.7480469 274.191406,24.5605469 C274.191406,18.4609375 277.882812,14.7519531 283.525391,14.7519531 C289.167969,14.7519531 292.859375,18.4433594 292.859375,24.5605469 C292.859375,30.765625 289.220703,34.4042969 283.525391,34.4042969 Z M283.525391,30.484375 C286.039062,30.484375 287.638672,28.3574219 287.638672,24.578125 C287.638672,20.8339844 286.021484,18.671875 283.525391,18.671875 C281.029297,18.671875 279.394531,20.8339844 279.394531,24.578125 C279.394531,28.3574219 280.994141,30.484375 283.525391,30.484375 Z M304.144531,34.4042969 C298.449219,34.4042969 294.810547,30.7480469 294.810547,24.5605469 C294.810547,18.4609375 298.501953,14.7519531 304.144531,14.7519531 C309.787109,14.7519531 313.478516,18.4433594 313.478516,24.5605469 C313.478516,30.765625 309.839844,34.4042969 304.144531,34.4042969 Z M304.144531,30.484375 C306.658203,30.484375 308.257812,28.3574219 308.257812,24.578125 C308.257812,20.8339844 306.640625,18.671875 304.144531,18.671875 C301.648438,18.671875 300.013672,20.8339844 300.013672,24.578125 C300.013672,28.3574219 301.613281,30.484375 304.144531,30.484375 Z M321.441406,22.7148438 L327.839844,15.15625 L333.658203,15.15625 L326.46875,23.2421875 L334.009766,34 L328.103516,34 L322.707031,26.3359375 L321.371094,27.7773438 L321.371094,34 L316.238281,34 L316.238281,8.63476562 L321.371094,8.63476562 L321.371094,22.7148438 L321.441406,22.7148438 Z"/>
    </g>
    <g transform="translate(43 530)">
      <g transform="translate(40 99)">
        <g transform="translate(18.895)">
          <path fill="#D5D2CF" d="M166.151115,6.64123494 C166.151115,2.97580501 163.168936,0 159.495735,0 L6.69509105,0 C3.02189011,0 0.039711146,2.97580501 0.039711146,6.64123494 L0.039711146,108.152393 C0.039711146,111.817743 3.02189011,114.793628 6.69509105,114.793628 L159.495735,114.793628 C163.168936,114.793628 166.151115,111.817743 166.151115,108.152393 L166.151115,6.64123494 L166.151115,6.64123494 Z"/>
          <path fill="#3E3E3E" d="M165.638713,6.65369804 C165.638713,3.26325525 162.880149,0.510667569 159.482444,0.510667569 L6.70742072,0.510667569 C3.30971586,0.510667569 0.551152276,3.26325525 0.551152276,6.65369804 L0.551152276,108.037828 C0.551152276,111.428271 3.30971586,114.180858 6.70742072,114.180858 L159.482444,114.180858 C162.880149,114.180858 165.638713,111.428271 165.638713,108.037828 L165.638713,6.65369804 L165.638713,6.65369804 Z"/>
          <path fill="#4D4D4D" d="M165.375306,94.4423426 C165.414137,94.6313663 165.434473,94.827021 165.434473,95.0273893 L165.434473,105.246173 C165.434473,106.850238 164.129369,108.152552 162.521868,108.152552 L3.66847724,108.152552 C2.06097645,108.152552 0.755872841,106.850238 0.755872841,105.246173 L0.755872841,95.0273893 C0.755872841,94.827021 0.776208791,94.6313663 0.815039246,94.4423426 C0.776048666,94.1646391 0.755872841,93.8808639 0.755872841,93.5925349 L0.755872841,6.79822207 C0.755872841,3.44069465 3.48753532,0.714870684 6.85217425,0.714870684 L159.338171,0.714870684 C162.70281,0.714870684 165.434473,3.44069465 165.434473,6.79822207 L165.434473,93.5925349 C165.434473,93.8808639 165.414297,94.1646391 165.375306,94.4423426 L165.375306,94.4423426 Z"/>
          <path fill="#343434" d="M164.912543,94.3280975 C164.919028,94.4001598 164.922311,94.4731009 164.922311,94.5469208 L164.922311,105.216054 C164.922311,106.554879 163.832976,107.641885 162.491284,107.641885 L3.69874097,107.641885 C2.35704867,107.641885 1.26771429,106.554879 1.26771429,105.216054 L1.26771429,94.5469208 C1.26771429,94.4731009 1.27099686,94.4001598 1.27748195,94.3280975 C1.27099686,94.2172079 1.26771429,94.1054394 1.26771429,93.992872 L1.26771429,6.90855247 C1.26771429,3.77208531 3.81955573,1.22561814 6.96274097,1.22561814 L159.227765,1.22561814 C162.37095,1.22561814 164.922791,3.77208531 164.922791,6.90855247 L164.922791,93.992872 C164.922791,94.1054394 164.919509,94.2172079 164.913024,94.3280975 L164.912543,94.3280975 Z"/>
          <g fill="#343434" transform="translate(6.085 7.75)">
            <path d="M153.991177,0.318048747 C153.991177,0.186147596 153.883813,0.0790927556 153.75163,0.0790927556 L0.269651491,0.0790927556 C0.137467818,0.0790927556 0.0301036107,0.186147596 0.0301036107,0.318048747 L0.0301036107,96.1896534 C0.0301036107,96.3215545 0.137467818,96.4286892 0.269651491,96.4286892 L153.75163,96.4286892 C153.883813,96.4286892 153.991177,96.3215545 153.991177,96.1896534 L153.991177,0.318048747 L153.991177,0.318048747 Z"/>
            <rect width="153.721" height="95.87" x=".15" y=".319"/>
          </g>
          <g fill="#3E3E3E" transform="translate(82.064 3.435)">
            <path d="M1.03120879,1.95407041 C1.56178493,1.95407041 1.99196232,1.52481246 1.99196232,0.995370345 C1.99196232,0.465848341 1.56178493,0.0366702776 1.03120879,0.0366702776 C0.500632653,0.0366702776 0.070455259,0.465848341 0.070455259,0.995370345 C0.070455259,1.52481246 0.500632653,1.95407041 1.03120879,1.95407041 L1.03120879,1.95407041 Z"/>
          </g>
          <polygon fill="#4D4D4D" points="145.579 108.87 20.612 108.87 20.305 111.117 145.886 111.117"/>
        </g>
        <g transform="translate(0 110.89)">
          <path fill="#A9A9A9" d="M10.7465887,7.06961408 C6.8890832,7.06961408 1.50830298,5.54703859 0,3.90366689 L203.979984,3.90366689 C202.471681,5.54703859 197.090901,7.06961408 193.233396,7.06961408 L10.7462684,7.06961408 L10.7465887,7.06961408 Z"/>
          <path fill="#D5D2CF" d="M203.979984,3.90430603 C203.853965,4.04155992 203.700965,4.1780149 203.524027,4.31279215 L0.455957614,4.31279215 C0.279018838,4.1780149 0.126018838,4.04155992 2.84217094e-14,3.90430603 L2.84217094e-14,3.80228436 L2.84217094e-14,0.0233283683 L203.979984,0.0233283683 L203.979984,3.90430603 L203.979984,3.90430603 Z"/>
          <path fill="#949494" d="M87.8657143,2.57650643 C86.8107268,2.57650643 85.7163485,1.25429926 85.7163485,0.0232484766 L118.263155,0.0232484766 C118.263155,1.25429926 117.168777,2.57650643 116.11379,2.57650643 L87.8657143,2.57650643 L87.8657143,2.57650643 Z"/>
        </g>
      </g>
      <path fill="#222" d="M28.9736328,34 L24.2451172,34 L24.2451172,16.8789062 L24.1044922,16.8789062 L17.2138672,33.7539062 L13.8740234,33.7539062 L6.98339844,16.8789062 L6.84277344,16.8789062 L6.84277344,34 L2.11425781,34 L2.11425781,8.63476562 L8.26660156,8.63476562 L15.4736328,26.6171875 L15.6142578,26.6171875 L22.8212891,8.63476562 L28.9736328,8.63476562 L28.9736328,34 Z M39.6259766,30.5898438 C41.8583984,30.5898438 43.7041016,29.1308594 43.7041016,27.0917969 L43.7041016,25.7207031 L39.7314453,25.9667969 C37.8154297,26.1074219 36.7255859,26.96875 36.7255859,28.3046875 C36.7255859,29.7109375 37.8857422,30.5898438 39.6259766,30.5898438 Z M37.9384766,34.2988281 C34.3525391,34.2988281 31.6279297,31.9785156 31.6279297,28.5859375 C31.6279297,25.1582031 34.2646484,23.171875 38.9580078,22.890625 L43.7041016,22.609375 L43.7041016,21.3613281 C43.7041016,19.6035156 42.4736328,18.5839844 40.5400391,18.5839844 C38.6240234,18.5839844 37.4111328,19.5332031 37.1650391,20.921875 L32.4716797,20.921875 C32.6650391,17.265625 35.7763672,14.7519531 40.7685547,14.7519531 C45.6025391,14.7519531 48.7490234,17.2480469 48.7490234,21.0449219 L48.7490234,34 L43.7919922,34 L43.7919922,31.1171875 L43.6865234,31.1171875 C42.6318359,33.1210938 40.2939453,34.2988281 37.9384766,34.2988281 Z M69.1748047,22.1699219 L64.4111328,22.1699219 C64.1123047,20.1835938 62.7939453,18.7773438 60.6845703,18.7773438 C58.1533203,18.7773438 56.5712891,20.921875 56.5712891,24.5605469 C56.5712891,28.2695312 58.1533203,30.3789062 60.7021484,30.3789062 C62.7587891,30.3789062 64.0947266,29.1484375 64.4111328,27.0917969 L69.1923828,27.0917969 C68.9287109,31.5390625 65.6064453,34.4042969 60.6494141,34.4042969 C54.9716797,34.4042969 51.3681641,30.7128906 51.3681641,24.5605469 C51.3681641,18.5136719 54.9716797,14.7519531 60.6142578,14.7519531 C65.7119141,14.7519531 68.9462891,17.8984375 69.1748047,22.1699219 Z M83.3427734,34 L72.1103516,34 L72.1103516,8.63476562 L83.1494141,8.63476562 C87.9130859,8.63476562 90.9013672,11.078125 90.9013672,14.9628906 C90.9013672,17.7402344 88.8271484,20.0605469 86.1376953,20.4648438 L86.1376953,20.6054688 C89.5830078,20.8691406 92.1142578,23.3828125 92.1142578,26.7402344 C92.1142578,31.2050781 88.7568359,34 83.3427734,34 Z M77.4189453,12.5898438 L77.4189453,19.1816406 L81.2333984,19.1816406 C84.0634766,19.1816406 85.6806641,17.9335938 85.6806641,15.7890625 C85.6806641,13.75 84.2568359,12.5898438 81.7783203,12.5898438 L77.4189453,12.5898438 Z M77.4189453,30.0449219 L81.9892578,30.0449219 C85.0478516,30.0449219 86.7001953,28.7441406 86.7001953,26.3183594 C86.7001953,23.9453125 84.9951172,22.6796875 81.8662109,22.6796875 L77.4189453,22.6796875 L77.4189453,30.0449219 Z M103.34668,34.4042969 C97.6513672,34.4042969 94.0126953,30.7480469 94.0126953,24.5605469 C94.0126953,18.4609375 97.7041016,14.7519531 103.34668,14.7519531 C108.989258,14.7519531 112.680664,18.4433594 112.680664,24.5605469 C112.680664,30.765625 109.041992,34.4042969 103.34668,34.4042969 Z M103.34668,30.484375 C105.860352,30.484375 107.459961,28.3574219 107.459961,24.578125 C107.459961,20.8339844 105.842773,18.671875 103.34668,18.671875 C100.850586,18.671875 99.2158203,20.8339844 99.2158203,24.578125 C99.2158203,28.3574219 100.81543,30.484375 103.34668,30.484375 Z M123.96582,34.4042969 C118.270508,34.4042969 114.631836,30.7480469 114.631836,24.5605469 C114.631836,18.4609375 118.323242,14.7519531 123.96582,14.7519531 C129.608398,14.7519531 133.299805,18.4433594 133.299805,24.5605469 C133.299805,30.765625 129.661133,34.4042969 123.96582,34.4042969 Z M123.96582,30.484375 C126.479492,30.484375 128.079102,28.3574219 128.079102,24.578125 C128.079102,20.8339844 126.461914,18.671875 123.96582,18.671875 C121.469727,18.671875 119.834961,20.8339844 119.834961,24.578125 C119.834961,28.3574219 121.43457,30.484375 123.96582,30.484375 Z M141.262695,22.7148438 L147.661133,15.15625 L153.479492,15.15625 L146.290039,23.2421875 L153.831055,34 L147.924805,34 L142.52832,26.3359375 L141.192383,27.7773438 L141.192383,34 L136.05957,34 L136.05957,8.63476562 L141.192383,8.63476562 L141.192383,22.7148438 L141.262695,22.7148438 Z M162.866211,8.63476562 L173.18457,8.63476562 C178.387695,8.63476562 181.973633,12.0976562 181.973633,17.3183594 C181.973633,22.5214844 178.264648,26.0019531 172.920898,26.0019531 L168.174805,26.0019531 L168.174805,34 L162.866211,34 L162.866211,8.63476562 Z M168.174805,12.8359375 L168.174805,21.8535156 L171.760742,21.8535156 C174.801758,21.8535156 176.577148,20.2363281 176.577148,17.3359375 C176.577148,14.453125 174.819336,12.8359375 171.77832,12.8359375 L168.174805,12.8359375 Z M184.663086,34 L184.663086,15.15625 L189.620117,15.15625 L189.620117,18.5488281 L189.725586,18.5488281 C190.393555,16.1582031 191.993164,14.8574219 194.208008,14.8574219 C194.805664,14.8574219 195.31543,14.9453125 195.666992,15.0507812 L195.666992,19.5683594 C195.245117,19.3925781 194.541992,19.2695312 193.803711,19.2695312 C191.272461,19.2695312 189.795898,20.8164062 189.795898,23.4707031 L189.795898,34 L184.663086,34 Z M205.791992,34.4042969 C200.09668,34.4042969 196.458008,30.7480469 196.458008,24.5605469 C196.458008,18.4609375 200.149414,14.7519531 205.791992,14.7519531 C211.43457,14.7519531 215.125977,18.4433594 215.125977,24.5605469 C215.125977,30.765625 211.487305,34.4042969 205.791992,34.4042969 Z M205.791992,30.484375 C208.305664,30.484375 209.905273,28.3574219 209.905273,24.578125 C209.905273,20.8339844 208.288086,18.671875 205.791992,18.671875 C203.295898,18.671875 201.661133,20.8339844 201.661133,24.578125 C201.661133,28.3574219 203.260742,30.484375 205.791992,30.484375 Z M231.350586,34 L231.350586,13.5039062 L231.245117,13.5039062 L224.776367,17.96875 L224.776367,13.1875 L231.333008,8.63476562 L236.606445,8.63476562 L236.606445,34 L231.350586,34 Z M248.454102,22.9257812 L248.454102,19.09375 L251.530273,19.09375 C253.956055,19.09375 255.59082,17.6523438 255.59082,15.5605469 C255.59082,13.5039062 254.131836,12.1503906 251.495117,12.1503906 C249.03418,12.1503906 247.399414,13.609375 247.258789,15.8242188 L242.37207,15.8242188 C242.56543,11.1308594 246.22168,8.07226562 251.723633,8.07226562 C256.99707,8.07226562 260.600586,10.7792969 260.600586,14.8398438 C260.600586,17.9511719 258.473633,20.2011719 255.362305,20.7636719 L255.362305,20.8691406 C259.141602,21.1855469 261.584961,23.4707031 261.584961,26.9863281 C261.584961,31.5390625 257.454102,34.5625 251.600586,34.5625 C245.870117,34.5625 242.125977,31.4160156 241.879883,26.7402344 L246.959961,26.7402344 C247.118164,28.8847656 248.875977,30.2910156 251.670898,30.2910156 C254.325195,30.2910156 256.188477,28.796875 256.188477,26.6523438 C256.188477,24.3320312 254.448242,22.9257812 251.583008,22.9257812 L248.454102,22.9257812 Z M268.598633,18.53125 L264.766602,18.53125 L266.084961,8.63476562 L270.954102,8.63476562 L268.598633,18.53125 Z M278.512695,18.53125 L274.680664,18.53125 L275.999023,8.63476562 L280.868164,8.63476562 L278.512695,18.53125 Z M111.535156,51.8554688 L111.535156,57.2460938 L114.582031,57.2460938 C116.363281,57.2460938 117.40625,56.2265625 117.40625,54.5507812 C117.40625,52.9101562 116.304688,51.8554688 114.546875,51.8554688 L111.535156,51.8554688 Z M111.535156,59.8125 L111.535156,66 L107.996094,66 L107.996094,49.0898438 L114.921875,49.0898438 C118.8125,49.0898438 121.039062,51.140625 121.039062,54.4804688 C121.039062,56.6484375 119.914062,58.5234375 117.96875,59.2851562 L121.53125,66 L117.523438,66 L114.371094,59.8125 L111.535156,59.8125 Z M128.585938,55.6992188 C127.085938,55.6992188 126.007812,56.8359375 125.890625,58.40625 L131.222656,58.40625 C131.152344,56.8007812 130.109375,55.6992188 128.585938,55.6992188 Z M131.269531,62.15625 L134.410156,62.15625 C134.035156,64.6171875 131.785156,66.2695312 128.679688,66.2695312 C124.8125,66.2695312 122.492188,63.796875 122.492188,59.7773438 C122.492188,55.7695312 124.835938,53.1679688 128.550781,53.1679688 C132.207031,53.1679688 134.515625,55.640625 134.515625,59.4609375 L134.515625,60.5039062 L125.855469,60.5039062 L125.855469,60.7148438 C125.855469,62.5078125 126.992188,63.7382812 128.738281,63.7382812 C129.992188,63.7382812 130.953125,63.1171875 131.269531,62.15625 Z M137.1875,50.5429688 L140.609375,50.5429688 L140.609375,53.4375 L142.929688,53.4375 L142.929688,56.015625 L140.609375,56.015625 L140.609375,62.0273438 C140.609375,62.9882812 141.078125,63.4453125 142.085938,63.4453125 C142.390625,63.4453125 142.707031,63.421875 142.917969,63.3867188 L142.917969,65.90625 C142.566406,65.9882812 141.980469,66.046875 141.289062,66.046875 C138.335938,66.046875 137.1875,65.0625 137.1875,62.6132812 L137.1875,56.015625 L135.417969,56.015625 L135.417969,53.4375 L137.1875,53.4375 L137.1875,50.5429688 Z M144.863281,66 L144.863281,53.4375 L148.285156,53.4375 L148.285156,66 L144.863281,66 Z M146.574219,52.0546875 C145.542969,52.0546875 144.746094,51.2695312 144.746094,50.2851562 C144.746094,49.2890625 145.542969,48.515625 146.574219,48.515625 C147.605469,48.515625 148.402344,49.2890625 148.402344,50.2851562 C148.402344,51.2695312 147.605469,52.0546875 146.574219,52.0546875 Z M150.558594,66 L150.558594,53.4375 L153.863281,53.4375 L153.863281,55.6757812 L153.933594,55.6757812 C154.601562,54.1171875 155.925781,53.203125 157.859375,53.203125 C160.648438,53.203125 162.21875,54.9609375 162.21875,57.9023438 L162.21875,66 L158.796875,66 L158.796875,58.6171875 C158.796875,56.9765625 158.023438,56.0390625 156.488281,56.0390625 C154.953125,56.0390625 153.980469,57.1640625 153.980469,58.7929688 L153.980469,66 L150.558594,66 Z M169.238281,63.7265625 C170.726562,63.7265625 171.957031,62.7539062 171.957031,61.3945312 L171.957031,60.4804688 L169.308594,60.6445312 C168.03125,60.7382812 167.304688,61.3125 167.304688,62.203125 C167.304688,63.140625 168.078125,63.7265625 169.238281,63.7265625 Z M168.113281,66.1992188 C165.722656,66.1992188 163.90625,64.6523438 163.90625,62.390625 C163.90625,60.1054688 165.664062,58.78125 168.792969,58.59375 L171.957031,58.40625 L171.957031,57.5742188 C171.957031,56.4023438 171.136719,55.7226562 169.847656,55.7226562 C168.570312,55.7226562 167.761719,56.3554688 167.597656,57.28125 L164.46875,57.28125 C164.597656,54.84375 166.671875,53.1679688 170,53.1679688 C173.222656,53.1679688 175.320312,54.8320312 175.320312,57.3632812 L175.320312,66 L172.015625,66 L172.015625,64.078125 L171.945312,64.078125 C171.242188,65.4140625 169.683594,66.1992188 168.113281,66.1992188 Z"/>
      <g transform="translate(359)">
        <g transform="translate(28 94)">
          <g transform="translate(20.971)">
            <path fill="#D5D2CF" d="M184.976185,6.50863158 C184.976185,2.91639351 182.064486,0 178.47803,0 L6.54153808,0 C2.9551622,0 0.0433829337,2.91639351 0.0433829337,6.50863158 L0.0433829337,121.378154 C0.0433829337,124.970312 2.9551622,127.886706 6.54153808,127.886706 L178.47803,127.886706 C182.064486,127.886706 184.976185,124.970312 184.976185,121.378154 L184.976185,6.50863158 L184.976185,6.50863158 Z"/>
            <path fill="#3E3E3E" d="M184.408685,6.48914994 C184.408685,3.22168605 181.760245,0.568895961 178.49804,0.568895961 L6.52312835,0.568895961 C3.26092384,0.568895961 0.612403738,3.22168605 0.612403738,6.48914994 L0.612403738,121.397155 C0.612403738,124.664619 3.26092384,127.317409 6.52312835,127.317409 L178.49804,127.317409 C181.760245,127.317409 184.408685,124.664619 184.408685,121.397155 L184.408685,6.48914994 L184.408685,6.48914994 Z"/>
            <path fill="#4D4D4D" d="M184.295025,6.57204712 L184.295025,118.282017 C184.295025,119.938918 182.951995,121.284113 181.29776,121.284113 L3.72308815,121.284113 C2.06885367,121.284113 0.725823695,119.938918 0.725823695,118.282017 L0.725823695,6.57204712 C0.725823695,3.32157956 3.36057652,0.682659119 6.60573202,0.682659119 L178.415757,0.682659119 C181.660912,0.682659119 184.295585,3.32157956 184.295585,6.57204712 L184.295025,6.57204712 Z"/>
            <path fill="#343434" d="M183.840384,6.5609033 L183.840384,118.157029 C183.840384,119.631942 182.644952,120.829301 181.172414,120.829301 L3.84747391,120.829301 C2.37501551,120.829301 1.17950353,119.631942 1.17950353,118.157029 L1.17950353,6.5609033 C1.17950353,3.5677858 3.60558604,1.13779192 6.59388575,1.13779192 L178.425522,1.13779192 C181.413822,1.13779192 183.839904,3.5677858 183.839904,6.5609033 L183.840384,6.5609033 Z"/>
            <g fill="#343434" transform="translate(5.683 7.456)">
              <path d="M173.633389,0.372155447 C173.633389,0.196259486 173.490833,0.0533941248 173.31514,0.0533941248 L0.339699577,0.0533941248 C0.164086742,0.0533941248 0.0214513399,0.196259486 0.0214513399,0.372155447 L0.0214513399,108.68767 C0.0214513399,108.863646 0.164086742,109.006431 0.339699577,109.006431 L173.31514,109.006431 C173.490833,109.006431 173.633389,108.863646 173.633389,108.68767 L173.633389,0.372155447 L173.633389,0.372155447 Z"/>
              <rect width="172.891" height="108.231" x=".381" y=".395"/>
            </g>
            <path fill="#3E3E3E" d="M92.5105042,5.43168972 C93.0432659,5.43168972 93.4751742,4.99908507 93.4751742,4.4654645 C93.4751742,3.93184394 93.0432659,3.49923929 92.5105042,3.49923929 C91.9778226,3.49923929 91.5458343,3.93184394 91.5458343,4.4654645 C91.5458343,4.99908507 91.9778226,5.43168972 92.5105042,5.43168972 L92.5105042,5.43168972 Z"/>
            <polygon fill="#4D4D4D" points="164.961 121.899 20.059 121.899 19.751 124.163 165.269 124.163 164.961 121.899"/>
          </g>
          <g transform="translate(0 123.785)">
            <path fill="#A9A9A9" d="M10.7904242,7.16090575 C6.91717666,7.16090575 1.51448061,5.62642595 0,3.97016585 L226.96238,3.97016585 C225.44798,5.62642595 220.045283,7.16090575 216.172036,7.16090575 L10.7898639,7.16090575 L10.7901841,7.16090575 L10.7904242,7.16090575 Z"/>
            <path fill="#D5D2CF" d="M226.96238,3.97088739 C226.835913,4.10918299 226.682232,4.24675704 226.504618,4.38256732 L0.457922073,4.38256732 C0.280228138,4.24675704 0.126626939,4.10918299 8.00423131e-05,3.97088739 L8.00423131e-05,3.86802754 L8.00423131e-05,0.0594069767 L226.96246,0.0594069767 L226.96246,3.97088739 L226.96238,3.97088739 Z"/>
            <path fill="#949494" d="M99.8111636,2.69295594 C98.7518836,2.69295594 97.6530628,1.36042778 97.6530628,0.119695838 L129.310198,0.119695838 C129.310198,1.36042778 128.211377,2.69295594 127.152017,2.69295594 L99.8111636,2.69295594 L99.8111636,2.69295594 Z"/>
          </g>
        </g>
        <path fill="#222" d="M29.2978516,34 L24.5693359,34 L24.5693359,16.8789062 L24.4287109,16.8789062 L17.5380859,33.7539062 L14.1982422,33.7539062 L7.30761719,16.8789062 L7.16699219,16.8789062 L7.16699219,34 L2.43847656,34 L2.43847656,8.63476562 L8.59082031,8.63476562 L15.7978516,26.6171875 L15.9384766,26.6171875 L23.1455078,8.63476562 L29.2978516,8.63476562 L29.2978516,34 Z M39.9501953,30.5898438 C42.1826172,30.5898438 44.0283203,29.1308594 44.0283203,27.0917969 L44.0283203,25.7207031 L40.0556641,25.9667969 C38.1396484,26.1074219 37.0498047,26.96875 37.0498047,28.3046875 C37.0498047,29.7109375 38.2099609,30.5898438 39.9501953,30.5898438 Z M38.2626953,34.2988281 C34.6767578,34.2988281 31.9521484,31.9785156 31.9521484,28.5859375 C31.9521484,25.1582031 34.5888672,23.171875 39.2822266,22.890625 L44.0283203,22.609375 L44.0283203,21.3613281 C44.0283203,19.6035156 42.7978516,18.5839844 40.8642578,18.5839844 C38.9482422,18.5839844 37.7353516,19.5332031 37.4892578,20.921875 L32.7958984,20.921875 C32.9892578,17.265625 36.1005859,14.7519531 41.0927734,14.7519531 C45.9267578,14.7519531 49.0732422,17.2480469 49.0732422,21.0449219 L49.0732422,34 L44.1162109,34 L44.1162109,31.1171875 L44.0107422,31.1171875 C42.9560547,33.1210938 40.6181641,34.2988281 38.2626953,34.2988281 Z M69.4990234,22.1699219 L64.7353516,22.1699219 C64.4365234,20.1835938 63.1181641,18.7773438 61.0087891,18.7773438 C58.4775391,18.7773438 56.8955078,20.921875 56.8955078,24.5605469 C56.8955078,28.2695312 58.4775391,30.3789062 61.0263672,30.3789062 C63.0830078,30.3789062 64.4189453,29.1484375 64.7353516,27.0917969 L69.5166016,27.0917969 C69.2529297,31.5390625 65.9306641,34.4042969 60.9736328,34.4042969 C55.2958984,34.4042969 51.6923828,30.7128906 51.6923828,24.5605469 C51.6923828,18.5136719 55.2958984,14.7519531 60.9384766,14.7519531 C66.0361328,14.7519531 69.2705078,17.8984375 69.4990234,22.1699219 Z M83.6669922,34 L72.4345703,34 L72.4345703,8.63476562 L83.4736328,8.63476562 C88.2373047,8.63476562 91.2255859,11.078125 91.2255859,14.9628906 C91.2255859,17.7402344 89.1513672,20.0605469 86.4619141,20.4648438 L86.4619141,20.6054688 C89.9072266,20.8691406 92.4384766,23.3828125 92.4384766,26.7402344 C92.4384766,31.2050781 89.0810547,34 83.6669922,34 Z M77.7431641,12.5898438 L77.7431641,19.1816406 L81.5576172,19.1816406 C84.3876953,19.1816406 86.0048828,17.9335938 86.0048828,15.7890625 C86.0048828,13.75 84.5810547,12.5898438 82.1025391,12.5898438 L77.7431641,12.5898438 Z M77.7431641,30.0449219 L82.3134766,30.0449219 C85.3720703,30.0449219 87.0244141,28.7441406 87.0244141,26.3183594 C87.0244141,23.9453125 85.3193359,22.6796875 82.1904297,22.6796875 L77.7431641,22.6796875 L77.7431641,30.0449219 Z M103.670898,34.4042969 C97.9755859,34.4042969 94.3369141,30.7480469 94.3369141,24.5605469 C94.3369141,18.4609375 98.0283203,14.7519531 103.670898,14.7519531 C109.313477,14.7519531 113.004883,18.4433594 113.004883,24.5605469 C113.004883,30.765625 109.366211,34.4042969 103.670898,34.4042969 Z M103.670898,30.484375 C106.18457,30.484375 107.78418,28.3574219 107.78418,24.578125 C107.78418,20.8339844 106.166992,18.671875 103.670898,18.671875 C101.174805,18.671875 99.5400391,20.8339844 99.5400391,24.578125 C99.5400391,28.3574219 101.139648,30.484375 103.670898,30.484375 Z M124.290039,34.4042969 C118.594727,34.4042969 114.956055,30.7480469 114.956055,24.5605469 C114.956055,18.4609375 118.647461,14.7519531 124.290039,14.7519531 C129.932617,14.7519531 133.624023,18.4433594 133.624023,24.5605469 C133.624023,30.765625 129.985352,34.4042969 124.290039,34.4042969 Z M124.290039,30.484375 C126.803711,30.484375 128.40332,28.3574219 128.40332,24.578125 C128.40332,20.8339844 126.786133,18.671875 124.290039,18.671875 C121.793945,18.671875 120.15918,20.8339844 120.15918,24.578125 C120.15918,28.3574219 121.758789,30.484375 124.290039,30.484375 Z M141.586914,22.7148438 L147.985352,15.15625 L153.803711,15.15625 L146.614258,23.2421875 L154.155273,34 L148.249023,34 L142.852539,26.3359375 L141.516602,27.7773438 L141.516602,34 L136.383789,34 L136.383789,8.63476562 L141.516602,8.63476562 L141.516602,22.7148438 L141.586914,22.7148438 Z M163.19043,8.63476562 L173.508789,8.63476562 C178.711914,8.63476562 182.297852,12.0976562 182.297852,17.3183594 C182.297852,22.5214844 178.588867,26.0019531 173.245117,26.0019531 L168.499023,26.0019531 L168.499023,34 L163.19043,34 L163.19043,8.63476562 Z M168.499023,12.8359375 L168.499023,21.8535156 L172.084961,21.8535156 C175.125977,21.8535156 176.901367,20.2363281 176.901367,17.3359375 C176.901367,14.453125 175.143555,12.8359375 172.102539,12.8359375 L168.499023,12.8359375 Z M184.987305,34 L184.987305,15.15625 L189.944336,15.15625 L189.944336,18.5488281 L190.049805,18.5488281 C190.717773,16.1582031 192.317383,14.8574219 194.532227,14.8574219 C195.129883,14.8574219 195.639648,14.9453125 195.991211,15.0507812 L195.991211,19.5683594 C195.569336,19.3925781 194.866211,19.2695312 194.12793,19.2695312 C191.59668,19.2695312 190.120117,20.8164062 190.120117,23.4707031 L190.120117,34 L184.987305,34 Z M206.116211,34.4042969 C200.420898,34.4042969 196.782227,30.7480469 196.782227,24.5605469 C196.782227,18.4609375 200.473633,14.7519531 206.116211,14.7519531 C211.758789,14.7519531 215.450195,18.4433594 215.450195,24.5605469 C215.450195,30.765625 211.811523,34.4042969 206.116211,34.4042969 Z M206.116211,30.484375 C208.629883,30.484375 210.229492,28.3574219 210.229492,24.578125 C210.229492,20.8339844 208.612305,18.671875 206.116211,18.671875 C203.620117,18.671875 201.985352,20.8339844 201.985352,24.578125 C201.985352,28.3574219 203.584961,30.484375 206.116211,30.484375 Z M231.674805,34 L231.674805,13.5039062 L231.569336,13.5039062 L225.100586,17.96875 L225.100586,13.1875 L231.657227,8.63476562 L236.930664,8.63476562 L236.930664,34 L231.674805,34 Z M252.364258,34.5625 C246.915039,34.5625 242.995117,31.328125 242.836914,26.7402344 L247.741211,26.7402344 C248.040039,28.8847656 249.938477,30.3613281 252.399414,30.3613281 C255.176758,30.3613281 257.092773,28.4277344 257.092773,25.6679688 C257.092773,22.8554688 255.176758,20.8867188 252.43457,20.8867188 C250.518555,20.8867188 248.866211,21.765625 247.987305,23.2246094 L243.241211,23.2246094 L244.489258,8.63476562 L260.625977,8.63476562 L260.625977,12.8535156 L248.655273,12.8535156 L248.075195,19.796875 L248.180664,19.796875 C249.217773,18.0917969 251.239258,17.0195312 253.823242,17.0195312 C258.674805,17.0195312 262.155273,20.5878906 262.155273,25.5273438 C262.155273,30.90625 258.182617,34.5625 252.364258,34.5625 Z M269.274414,18.53125 L265.442383,18.53125 L266.760742,8.63476562 L271.629883,8.63476562 L269.274414,18.53125 Z M279.188477,18.53125 L275.356445,18.53125 L276.674805,8.63476562 L281.543945,8.63476562 L279.188477,18.53125 Z M112.035156,51.8554688 L112.035156,57.2460938 L115.082031,57.2460938 C116.863281,57.2460938 117.90625,56.2265625 117.90625,54.5507812 C117.90625,52.9101562 116.804688,51.8554688 115.046875,51.8554688 L112.035156,51.8554688 Z M112.035156,59.8125 L112.035156,66 L108.496094,66 L108.496094,49.0898438 L115.421875,49.0898438 C119.3125,49.0898438 121.539062,51.140625 121.539062,54.4804688 C121.539062,56.6484375 120.414062,58.5234375 118.46875,59.2851562 L122.03125,66 L118.023438,66 L114.871094,59.8125 L112.035156,59.8125 Z M129.085938,55.6992188 C127.585938,55.6992188 126.507812,56.8359375 126.390625,58.40625 L131.722656,58.40625 C131.652344,56.8007812 130.609375,55.6992188 129.085938,55.6992188 Z M131.769531,62.15625 L134.910156,62.15625 C134.535156,64.6171875 132.285156,66.2695312 129.179688,66.2695312 C125.3125,66.2695312 122.992188,63.796875 122.992188,59.7773438 C122.992188,55.7695312 125.335938,53.1679688 129.050781,53.1679688 C132.707031,53.1679688 135.015625,55.640625 135.015625,59.4609375 L135.015625,60.5039062 L126.355469,60.5039062 L126.355469,60.7148438 C126.355469,62.5078125 127.492188,63.7382812 129.238281,63.7382812 C130.492188,63.7382812 131.453125,63.1171875 131.769531,62.15625 Z M137.6875,50.5429688 L141.109375,50.5429688 L141.109375,53.4375 L143.429688,53.4375 L143.429688,56.015625 L141.109375,56.015625 L141.109375,62.0273438 C141.109375,62.9882812 141.578125,63.4453125 142.585938,63.4453125 C142.890625,63.4453125 143.207031,63.421875 143.417969,63.3867188 L143.417969,65.90625 C143.066406,65.9882812 142.480469,66.046875 141.789062,66.046875 C138.835938,66.046875 137.6875,65.0625 137.6875,62.6132812 L137.6875,56.015625 L135.917969,56.015625 L135.917969,53.4375 L137.6875,53.4375 L137.6875,50.5429688 Z M145.363281,66 L145.363281,53.4375 L148.785156,53.4375 L148.785156,66 L145.363281,66 Z M147.074219,52.0546875 C146.042969,52.0546875 145.246094,51.2695312 145.246094,50.2851562 C145.246094,49.2890625 146.042969,48.515625 147.074219,48.515625 C148.105469,48.515625 148.902344,49.2890625 148.902344,50.2851562 C148.902344,51.2695312 148.105469,52.0546875 147.074219,52.0546875 Z M151.058594,66 L151.058594,53.4375 L154.363281,53.4375 L154.363281,55.6757812 L154.433594,55.6757812 C155.101562,54.1171875 156.425781,53.203125 158.359375,53.203125 C161.148438,53.203125 162.71875,54.9609375 162.71875,57.9023438 L162.71875,66 L159.296875,66 L159.296875,58.6171875 C159.296875,56.9765625 158.523438,56.0390625 156.988281,56.0390625 C155.453125,56.0390625 154.480469,57.1640625 154.480469,58.7929688 L154.480469,66 L151.058594,66 Z M169.738281,63.7265625 C171.226562,63.7265625 172.457031,62.7539062 172.457031,61.3945312 L172.457031,60.4804688 L169.808594,60.6445312 C168.53125,60.7382812 167.804688,61.3125 167.804688,62.203125 C167.804688,63.140625 168.578125,63.7265625 169.738281,63.7265625 Z M168.613281,66.1992188 C166.222656,66.1992188 164.40625,64.6523438 164.40625,62.390625 C164.40625,60.1054688 166.164062,58.78125 169.292969,58.59375 L172.457031,58.40625 L172.457031,57.5742188 C172.457031,56.4023438 171.636719,55.7226562 170.347656,55.7226562 C169.070312,55.7226562 168.261719,56.3554688 168.097656,57.28125 L164.96875,57.28125 C165.097656,54.84375 167.171875,53.1679688 170.5,53.1679688 C173.722656,53.1679688 175.820312,54.8320312 175.820312,57.3632812 L175.820312,66 L172.515625,66 L172.515625,64.078125 L172.445312,64.078125 C171.742188,65.4140625 170.183594,66.1992188 168.613281,66.1992188 Z"/>
      </g>
    </g>
    <g transform="translate(47 815)">
      <g transform="translate(21 75)">
        <g transform="translate(22.868)">
          <path fill="#D5D2CF" d="M187.166005,7.33815252 C187.166005,3.28818302 183.889453,0 179.853452,0 L7.32950515,0 C3.29350377,0 0.0169512697,3.28818302 0.0169512697,7.33815252 L0.0169512697,113.062785 C0.0169512697,117.112755 3.29350377,120.400938 7.32950515,120.400938 L179.853452,120.400938 C183.889453,120.400938 187.166005,117.112755 187.166005,113.062785 L187.166005,7.33815252 L187.166005,7.33815252 Z"/>
          <path fill="#4D4D4D" d="M186.353624,7.33815252 C186.353624,3.7381618 183.441044,0.815385942 179.853452,0.815385942 L7.32950515,0.815385942 C3.74191283,0.815385942 0.829332876,3.7381618 0.829332876,7.33815252 L0.829332876,113.334473 C0.829332876,114.834456 2.04294784,116.05232 3.53769801,116.05232 L183.644939,116.05232 C185.139689,116.05232 186.353304,114.834456 186.353304,113.334473 L186.353304,7.33815252 L186.353624,7.33815252 Z"/>
          <path fill="#D5D2CF" d="M185.541242,7.31761141 C185.541242,4.16759947 182.992635,1.61007029 179.853612,1.61007029 L7.32966507,1.61007029 C4.19064173,1.61007029 1.64203432,4.16759947 1.64203432,7.31761141 L1.64203432,113.355175 C1.64203432,114.405179 2.49151682,115.257635 3.53785793,115.257635 L183.645099,115.257635 C184.69144,115.257635 185.540922,114.405179 185.540922,113.355175 L185.540922,7.31761141 L185.541242,7.31761141 Z"/>
          <g transform="translate(11.194 9.629)">
            <path fill="#4D4D4D" d="M164.795127,0.401675066 C164.795127,0.246493369 164.669432,0.12035809 164.514791,0.12035809 L0.280975292,0.12035809 C0.126334935,0.12035809 0.000639670556,0.246493369 0.000639670556,0.401675066 L0.000639670556,93.2369191 C0.000639670556,93.3921008 0.126334935,93.5182361 0.280975292,93.5182361 L164.514791,93.5182361 C164.669432,93.5182361 164.795127,93.3921008 164.795127,93.2369191 L164.795127,0.401675066 L164.795127,0.401675066 Z"/>
            <rect width="163.836" height="92.435" x=".48" y=".602" fill="#343434"/>
          </g>
          <ellipse cx="1.319" cy="1.252" fill="#4D4D4D" rx="1.219" ry="1.223" transform="translate(92.272 5.135)"/>
        </g>
        <g transform="translate(0 115.383)">
          <path fill="#BCBCBC" d="M0,0.669030504 L0,0.397342175 L232.920041,0.397342175 L232.920041,0.669030504 C228.987986,3.10315252 209.457405,5.56118568 198.794577,5.56118568 L34.1257845,5.56118568 C23.4629561,5.56118568 3.93237474,3.10315252 0.000319835278,0.669030504 L0,0.669030504 Z"/>
          <rect width="232.92" height="1" y=".125" fill="#D5D2CF"/>
          <path fill="#949494" d="M134.223832,1.48441645 L98.6962093,1.48441645 C98.0942793,1.48441645 95.8707845,1.38171088 95.3716815,0.669030504 L95.3716815,0.125493369 L137.54836,0.125493369 L137.54836,0.669030504 C137.049257,1.38171088 134.825762,1.48441645 134.223832,1.48441645 L134.223832,1.48441645 Z"/>
        </g>
      </g>
      <path fill="#222" d="M29.2177734,34 L24.4892578,34 L24.4892578,16.8789062 L24.3486328,16.8789062 L17.4580078,33.7539062 L14.1181641,33.7539062 L7.22753906,16.8789062 L7.08691406,16.8789062 L7.08691406,34 L2.35839844,34 L2.35839844,8.63476562 L8.51074219,8.63476562 L15.7177734,26.6171875 L15.8583984,26.6171875 L23.0654297,8.63476562 L29.2177734,8.63476562 L29.2177734,34 Z M39.8701172,30.5898438 C42.1025391,30.5898438 43.9482422,29.1308594 43.9482422,27.0917969 L43.9482422,25.7207031 L39.9755859,25.9667969 C38.0595703,26.1074219 36.9697266,26.96875 36.9697266,28.3046875 C36.9697266,29.7109375 38.1298828,30.5898438 39.8701172,30.5898438 Z M38.1826172,34.2988281 C34.5966797,34.2988281 31.8720703,31.9785156 31.8720703,28.5859375 C31.8720703,25.1582031 34.5087891,23.171875 39.2021484,22.890625 L43.9482422,22.609375 L43.9482422,21.3613281 C43.9482422,19.6035156 42.7177734,18.5839844 40.7841797,18.5839844 C38.8681641,18.5839844 37.6552734,19.5332031 37.4091797,20.921875 L32.7158203,20.921875 C32.9091797,17.265625 36.0205078,14.7519531 41.0126953,14.7519531 C45.8466797,14.7519531 48.9931641,17.2480469 48.9931641,21.0449219 L48.9931641,34 L44.0361328,34 L44.0361328,31.1171875 L43.9306641,31.1171875 C42.8759766,33.1210938 40.5380859,34.2988281 38.1826172,34.2988281 Z M69.4189453,22.1699219 L64.6552734,22.1699219 C64.3564453,20.1835938 63.0380859,18.7773438 60.9287109,18.7773438 C58.3974609,18.7773438 56.8154297,20.921875 56.8154297,24.5605469 C56.8154297,28.2695312 58.3974609,30.3789062 60.9462891,30.3789062 C63.0029297,30.3789062 64.3388672,29.1484375 64.6552734,27.0917969 L69.4365234,27.0917969 C69.1728516,31.5390625 65.8505859,34.4042969 60.8935547,34.4042969 C55.2158203,34.4042969 51.6123047,30.7128906 51.6123047,24.5605469 C51.6123047,18.5136719 55.2158203,14.7519531 60.8583984,14.7519531 C65.9560547,14.7519531 69.1904297,17.8984375 69.4189453,22.1699219 Z M83.5869141,34 L72.3544922,34 L72.3544922,8.63476562 L83.3935547,8.63476562 C88.1572266,8.63476562 91.1455078,11.078125 91.1455078,14.9628906 C91.1455078,17.7402344 89.0712891,20.0605469 86.3818359,20.4648438 L86.3818359,20.6054688 C89.8271484,20.8691406 92.3583984,23.3828125 92.3583984,26.7402344 C92.3583984,31.2050781 89.0009766,34 83.5869141,34 Z M77.6630859,12.5898438 L77.6630859,19.1816406 L81.4775391,19.1816406 C84.3076172,19.1816406 85.9248047,17.9335938 85.9248047,15.7890625 C85.9248047,13.75 84.5009766,12.5898438 82.0224609,12.5898438 L77.6630859,12.5898438 Z M77.6630859,30.0449219 L82.2333984,30.0449219 C85.2919922,30.0449219 86.9443359,28.7441406 86.9443359,26.3183594 C86.9443359,23.9453125 85.2392578,22.6796875 82.1103516,22.6796875 L77.6630859,22.6796875 L77.6630859,30.0449219 Z M103.59082,34.4042969 C97.8955078,34.4042969 94.2568359,30.7480469 94.2568359,24.5605469 C94.2568359,18.4609375 97.9482422,14.7519531 103.59082,14.7519531 C109.233398,14.7519531 112.924805,18.4433594 112.924805,24.5605469 C112.924805,30.765625 109.286133,34.4042969 103.59082,34.4042969 Z M103.59082,30.484375 C106.104492,30.484375 107.704102,28.3574219 107.704102,24.578125 C107.704102,20.8339844 106.086914,18.671875 103.59082,18.671875 C101.094727,18.671875 99.4599609,20.8339844 99.4599609,24.578125 C99.4599609,28.3574219 101.05957,30.484375 103.59082,30.484375 Z M124.209961,34.4042969 C118.514648,34.4042969 114.875977,30.7480469 114.875977,24.5605469 C114.875977,18.4609375 118.567383,14.7519531 124.209961,14.7519531 C129.852539,14.7519531 133.543945,18.4433594 133.543945,24.5605469 C133.543945,30.765625 129.905273,34.4042969 124.209961,34.4042969 Z M124.209961,30.484375 C126.723633,30.484375 128.323242,28.3574219 128.323242,24.578125 C128.323242,20.8339844 126.706055,18.671875 124.209961,18.671875 C121.713867,18.671875 120.079102,20.8339844 120.079102,24.578125 C120.079102,28.3574219 121.678711,30.484375 124.209961,30.484375 Z M141.506836,22.7148438 L147.905273,15.15625 L153.723633,15.15625 L146.53418,23.2421875 L154.075195,34 L148.168945,34 L142.772461,26.3359375 L141.436523,27.7773438 L141.436523,34 L136.303711,34 L136.303711,8.63476562 L141.436523,8.63476562 L141.436523,22.7148438 L141.506836,22.7148438 Z M179.72168,34 L177.788086,27.8476562 L168.875977,27.8476562 L166.942383,34 L161.493164,34 L170.299805,8.63476562 L176.540039,8.63476562 L185.364258,34 L179.72168,34 Z M173.270508,13.4863281 L170.018555,23.875 L176.645508,23.875 L173.393555,13.4863281 L173.270508,13.4863281 Z M187.59668,34 L187.59668,15.15625 L192.729492,15.15625 L192.729492,34 L187.59668,34 Z M190.163086,13.0820312 C188.616211,13.0820312 187.420898,11.9042969 187.420898,10.4277344 C187.420898,8.93359375 188.616211,7.7734375 190.163086,7.7734375 C191.709961,7.7734375 192.905273,8.93359375 192.905273,10.4277344 C192.905273,11.9042969 191.709961,13.0820312 190.163086,13.0820312 Z M196.139648,34 L196.139648,15.15625 L201.09668,15.15625 L201.09668,18.5488281 L201.202148,18.5488281 C201.870117,16.1582031 203.469727,14.8574219 205.68457,14.8574219 C206.282227,14.8574219 206.791992,14.9453125 207.143555,15.0507812 L207.143555,19.5683594 C206.72168,19.3925781 206.018555,19.2695312 205.280273,19.2695312 C202.749023,19.2695312 201.272461,20.8164062 201.272461,23.4707031 L201.272461,34 L196.139648,34 Z M222.823242,34 L222.823242,13.5039062 L222.717773,13.5039062 L216.249023,17.96875 L216.249023,13.1875 L222.805664,8.63476562 L228.079102,8.63476562 L228.079102,34 L222.823242,34 Z M243.688477,34.5625 C237.307617,34.5625 233.422852,29.4824219 233.422852,21.2734375 C233.422852,13.0820312 237.342773,8.0546875 243.688477,8.0546875 C250.03418,8.0546875 253.936523,13.0644531 253.936523,21.2558594 C253.936523,29.4472656 250.069336,34.5625 243.688477,34.5625 Z M243.688477,30.3085938 C246.711914,30.3085938 248.540039,27.0566406 248.540039,21.2734375 C248.540039,15.5429688 246.694336,12.3085938 243.688477,12.3085938 C240.700195,12.3085938 238.819336,15.5605469 238.819336,21.2734375 C238.819336,27.0390625 240.665039,30.3085938 243.688477,30.3085938 Z M261.354492,18.53125 L257.522461,18.53125 L258.84082,8.63476562 L263.709961,8.63476562 L261.354492,18.53125 Z M271.268555,18.53125 L267.436523,18.53125 L268.754883,8.63476562 L273.624023,8.63476562 L271.268555,18.53125 Z"/>
      <g transform="translate(360)">
        <g transform="translate(19 68)">
          <g transform="translate(21.63)">
            <path fill="#D5D2CF" d="M0.0653686354,6.66095283 C0.0653686354,3.02888679 3.01112288,0.0801886792 6.63940258,0.0801886792 L185.981779,0.0801886792 C189.610058,0.0801886792 192.555813,3.02888679 192.555813,6.66095283 L192.555813,128.798736 C192.555813,132.430642 189.610058,135.37934 185.981779,135.37934 L6.63940258,135.37934 C3.01112288,135.37934 0.0653686354,132.430642 0.0653686354,128.798736 L0.0653686354,6.66095283 L0.0653686354,6.66095283 Z"/>
            <path fill="#4D4D4D" d="M0.854278344,6.66095283 C0.854278344,3.46479245 3.44643313,0.869886792 6.63940258,0.869886792 L185.981779,0.869886792 C189.174748,0.869886792 191.766903,3.46479245 191.766903,6.66095283 L191.766903,127.745858 C191.766903,129.634462 190.235226,131.16783 188.348508,131.16783 L4.27331432,131.16783 C2.38659606,131.16783 0.854919212,129.634462 0.854919212,127.745858 L0.854919212,6.66095283 L0.854278344,6.66095283 Z"/>
            <path fill="#D5D2CF" d="M1.64302783,6.66095283 C1.64302783,3.90053774 3.8819036,1.65958491 6.63940258,1.65958491 L185.981779,1.65958491 C188.739278,1.65958491 190.978153,3.90053774 190.978153,6.66095283 L190.978153,127.753236 C190.978153,129.201925 189.80312,130.378132 188.355878,130.378132 L4.27267346,130.378132 C2.82142566,130.378132 1.64302783,129.198557 1.64302783,127.745858 L1.64302783,6.66095283 L1.64302783,6.66095283 Z"/>
            <g transform="translate(9.293 8.981)">
              <path fill="#4D4D4D" d="M0.0200271555,0.382820755 C0.0200271555,0.238 0.137626612,0.120283019 0.282302783,0.120283019 L173.754319,0.120283019 C173.898995,0.120283019 174.016595,0.238 174.016595,0.382820755 L174.016595,109.074726 C174.016595,109.219547 173.898995,109.337264 173.754319,109.337264 L0.282302783,109.337264 C0.137626612,109.337264 0.0200271555,109.219547 0.0200271555,109.074726 L0.0200271555,0.382820755 L0.0200271555,0.382820755 Z"/>
              <rect width="173.031" height="108.255" x=".501" y=".601" fill="#343434"/>
            </g>
            <g fill="#4D4D4D" transform="translate(94.849 4.811)">
              <ellipse cx="1.462" cy="1.323" rx="1.315" ry="1.316"/>
            </g>
          </g>
          <g transform="translate(0 130.547)">
            <path fill="#BCBCBC" d="M235.879837,0.597886792 L235.879837,0.400943396 L0,0.400943396 L0,0.597886792 C3.81765648,2.95527358 22.780649,5.33607547 33.1335669,5.33607547 L202.74595,5.33607547 C213.098868,5.33607547 232.06186,2.95527358 235.879517,0.597886792 L235.879837,0.597886792 Z"/>
            <rect width="235.88" height="1" y=".072" fill="#D5D2CF"/>
            <path fill="#949494" d="M101.086827,1.38758491 L134.79301,1.38758491 C135.377483,1.38758491 137.010417,1.28815094 137.494914,0.597886792 L137.494914,0.0715283019 L98.3849233,0.0715283019 L98.3849233,0.597886792 C98.8694202,1.28815094 100.502354,1.38758491 101.086827,1.38758491 L101.086827,1.38758491 Z"/>
          </g>
        </g>
        <path fill="#222" d="M29.359375,34 L24.6308594,34 L24.6308594,16.8789062 L24.4902344,16.8789062 L17.5996094,33.7539062 L14.2597656,33.7539062 L7.36914062,16.8789062 L7.22851562,16.8789062 L7.22851562,34 L2.5,34 L2.5,8.63476562 L8.65234375,8.63476562 L15.859375,26.6171875 L16,26.6171875 L23.2070312,8.63476562 L29.359375,8.63476562 L29.359375,34 Z M40.0117188,30.5898438 C42.2441406,30.5898438 44.0898438,29.1308594 44.0898438,27.0917969 L44.0898438,25.7207031 L40.1171875,25.9667969 C38.2011719,26.1074219 37.1113281,26.96875 37.1113281,28.3046875 C37.1113281,29.7109375 38.2714844,30.5898438 40.0117188,30.5898438 Z M38.3242188,34.2988281 C34.7382812,34.2988281 32.0136719,31.9785156 32.0136719,28.5859375 C32.0136719,25.1582031 34.6503906,23.171875 39.34375,22.890625 L44.0898438,22.609375 L44.0898438,21.3613281 C44.0898438,19.6035156 42.859375,18.5839844 40.9257812,18.5839844 C39.0097656,18.5839844 37.796875,19.5332031 37.5507812,20.921875 L32.8574219,20.921875 C33.0507812,17.265625 36.1621094,14.7519531 41.1542969,14.7519531 C45.9882812,14.7519531 49.1347656,17.2480469 49.1347656,21.0449219 L49.1347656,34 L44.1777344,34 L44.1777344,31.1171875 L44.0722656,31.1171875 C43.0175781,33.1210938 40.6796875,34.2988281 38.3242188,34.2988281 Z M69.5605469,22.1699219 L64.796875,22.1699219 C64.4980469,20.1835938 63.1796875,18.7773438 61.0703125,18.7773438 C58.5390625,18.7773438 56.9570312,20.921875 56.9570312,24.5605469 C56.9570312,28.2695312 58.5390625,30.3789062 61.0878906,30.3789062 C63.1445312,30.3789062 64.4804688,29.1484375 64.796875,27.0917969 L69.578125,27.0917969 C69.3144531,31.5390625 65.9921875,34.4042969 61.0351562,34.4042969 C55.3574219,34.4042969 51.7539062,30.7128906 51.7539062,24.5605469 C51.7539062,18.5136719 55.3574219,14.7519531 61,14.7519531 C66.0976562,14.7519531 69.3320312,17.8984375 69.5605469,22.1699219 Z M83.7285156,34 L72.4960938,34 L72.4960938,8.63476562 L83.5351562,8.63476562 C88.2988281,8.63476562 91.2871094,11.078125 91.2871094,14.9628906 C91.2871094,17.7402344 89.2128906,20.0605469 86.5234375,20.4648438 L86.5234375,20.6054688 C89.96875,20.8691406 92.5,23.3828125 92.5,26.7402344 C92.5,31.2050781 89.1425781,34 83.7285156,34 Z M77.8046875,12.5898438 L77.8046875,19.1816406 L81.6191406,19.1816406 C84.4492188,19.1816406 86.0664062,17.9335938 86.0664062,15.7890625 C86.0664062,13.75 84.6425781,12.5898438 82.1640625,12.5898438 L77.8046875,12.5898438 Z M77.8046875,30.0449219 L82.375,30.0449219 C85.4335938,30.0449219 87.0859375,28.7441406 87.0859375,26.3183594 C87.0859375,23.9453125 85.3808594,22.6796875 82.2519531,22.6796875 L77.8046875,22.6796875 L77.8046875,30.0449219 Z M103.732422,34.4042969 C98.0371094,34.4042969 94.3984375,30.7480469 94.3984375,24.5605469 C94.3984375,18.4609375 98.0898438,14.7519531 103.732422,14.7519531 C109.375,14.7519531 113.066406,18.4433594 113.066406,24.5605469 C113.066406,30.765625 109.427734,34.4042969 103.732422,34.4042969 Z M103.732422,30.484375 C106.246094,30.484375 107.845703,28.3574219 107.845703,24.578125 C107.845703,20.8339844 106.228516,18.671875 103.732422,18.671875 C101.236328,18.671875 99.6015625,20.8339844 99.6015625,24.578125 C99.6015625,28.3574219 101.201172,30.484375 103.732422,30.484375 Z M124.351562,34.4042969 C118.65625,34.4042969 115.017578,30.7480469 115.017578,24.5605469 C115.017578,18.4609375 118.708984,14.7519531 124.351562,14.7519531 C129.994141,14.7519531 133.685547,18.4433594 133.685547,24.5605469 C133.685547,30.765625 130.046875,34.4042969 124.351562,34.4042969 Z M124.351562,30.484375 C126.865234,30.484375 128.464844,28.3574219 128.464844,24.578125 C128.464844,20.8339844 126.847656,18.671875 124.351562,18.671875 C121.855469,18.671875 120.220703,20.8339844 120.220703,24.578125 C120.220703,28.3574219 121.820312,30.484375 124.351562,30.484375 Z M141.648438,22.7148438 L148.046875,15.15625 L153.865234,15.15625 L146.675781,23.2421875 L154.216797,34 L148.310547,34 L142.914062,26.3359375 L141.578125,27.7773438 L141.578125,34 L136.445312,34 L136.445312,8.63476562 L141.578125,8.63476562 L141.578125,22.7148438 L141.648438,22.7148438 Z M179.863281,34 L177.929688,27.8476562 L169.017578,27.8476562 L167.083984,34 L161.634766,34 L170.441406,8.63476562 L176.681641,8.63476562 L185.505859,34 L179.863281,34 Z M173.412109,13.4863281 L170.160156,23.875 L176.787109,23.875 L173.535156,13.4863281 L173.412109,13.4863281 Z M187.738281,34 L187.738281,15.15625 L192.871094,15.15625 L192.871094,34 L187.738281,34 Z M190.304688,13.0820312 C188.757812,13.0820312 187.5625,11.9042969 187.5625,10.4277344 C187.5625,8.93359375 188.757812,7.7734375 190.304688,7.7734375 C191.851562,7.7734375 193.046875,8.93359375 193.046875,10.4277344 C193.046875,11.9042969 191.851562,13.0820312 190.304688,13.0820312 Z M196.28125,34 L196.28125,15.15625 L201.238281,15.15625 L201.238281,18.5488281 L201.34375,18.5488281 C202.011719,16.1582031 203.611328,14.8574219 205.826172,14.8574219 C206.423828,14.8574219 206.933594,14.9453125 207.285156,15.0507812 L207.285156,19.5683594 C206.863281,19.3925781 206.160156,19.2695312 205.421875,19.2695312 C202.890625,19.2695312 201.414062,20.8164062 201.414062,23.4707031 L201.414062,34 L196.28125,34 Z M222.964844,34 L222.964844,13.5039062 L222.859375,13.5039062 L216.390625,17.96875 L216.390625,13.1875 L222.947266,8.63476562 L228.220703,8.63476562 L228.220703,34 L222.964844,34 Z M240.068359,22.9257812 L240.068359,19.09375 L243.144531,19.09375 C245.570312,19.09375 247.205078,17.6523438 247.205078,15.5605469 C247.205078,13.5039062 245.746094,12.1503906 243.109375,12.1503906 C240.648438,12.1503906 239.013672,13.609375 238.873047,15.8242188 L233.986328,15.8242188 C234.179688,11.1308594 237.835938,8.07226562 243.337891,8.07226562 C248.611328,8.07226562 252.214844,10.7792969 252.214844,14.8398438 C252.214844,17.9511719 250.087891,20.2011719 246.976562,20.7636719 L246.976562,20.8691406 C250.755859,21.1855469 253.199219,23.4707031 253.199219,26.9863281 C253.199219,31.5390625 249.068359,34.5625 243.214844,34.5625 C237.484375,34.5625 233.740234,31.4160156 233.494141,26.7402344 L238.574219,26.7402344 C238.732422,28.8847656 240.490234,30.2910156 243.285156,30.2910156 C245.939453,30.2910156 247.802734,28.796875 247.802734,26.6523438 C247.802734,24.3320312 246.0625,22.9257812 243.197266,22.9257812 L240.068359,22.9257812 Z M260.212891,18.53125 L256.380859,18.53125 L257.699219,8.63476562 L262.568359,8.63476562 L260.212891,18.53125 Z M270.126953,18.53125 L266.294922,18.53125 L267.613281,8.63476562 L272.482422,8.63476562 L270.126953,18.53125 Z"/>
      </g>
    </g>
    <g transform="translate(36 20)">
      <g transform="translate(358)">
        <g transform="translate(32 87)">
          <g transform="translate(18.87)">
            <rect width="183.083" height="126.781" x=".06" fill="#D5D2CF" rx="5.36"/>
            <rect width="182.366" height="126.072" x=".378" y=".321" fill="#4D4D4D" rx="4.96"/>
            <rect width="181.648" height="125.363" x=".777" y=".722" fill="#343434" rx="4.72"/>
            <path fill="#3E3E3E" d="M182.42495,118.772363 L182.42495,121.408941 C182.42495,124.021885 180.312589,126.140099 177.706732,126.140099 L5.51784746,126.140099 C2.91201402,126.140099 0.799565847,124.021428 0.799565847,121.408941 L0.799565847,118.772363 L182.42495,118.772363 Z"/>
            <g fill="#343434" transform="translate(5.277 7.699)">
              <rect width="172.706" height="108.267"/>
            </g>
            <g fill="#3E3E3E" transform="translate(90.83 3.288)">
              <path d="M0.799565847,1.60394818 C1.24112609,1.60394818 1.59913169,1.24486428 1.59913169,0.80197409 C1.59913169,0.359017068 1.24112609,-1.13242749e-14 0.799565847,-1.13242749e-14 C0.358005608,-1.13242749e-14 0,0.359017068 0,0.80197409 C0,1.24486428 0.358005608,1.60394818 0.799565847,1.60394818 L0.799565847,1.60394818 Z"/>
            </g>
          </g>
          <g transform="translate(0 123.584)">
            <path fill="#A9A9A9" d="M0,3.20789636 L220.980011,3.20789636 C219.473709,4.85755706 214.100067,6.38595928 210.247678,6.38595928 L10.7320127,6.38595928 C6.87994428,6.38595928 1.5063021,4.85755706 0,3.20789636 Z"/>
            <polygon fill="#D5D2CF" points="0 3.174 0 0 220.969 0 220.969 3.174"/>
            <path fill="#949494" d="M96.4644211,2.58636644 C95.4108332,2.58636644 94.3179067,1.25909932 94.3179067,0.023337446 L126.821538,0.023337446 C126.821538,1.25909932 125.728611,2.58636644 124.675023,2.58636644 L96.4644211,2.58636644 L96.4644211,2.58636644 Z"/>
          </g>
        </g>
        <path fill="#222" d="M29.7978516,34 L25.0693359,34 L25.0693359,16.8789062 L24.9287109,16.8789062 L18.0380859,33.7539062 L14.6982422,33.7539062 L7.80761719,16.8789062 L7.66699219,16.8789062 L7.66699219,34 L2.93847656,34 L2.93847656,8.63476562 L9.09082031,8.63476562 L16.2978516,26.6171875 L16.4384766,26.6171875 L23.6455078,8.63476562 L29.7978516,8.63476562 L29.7978516,34 Z M40.4501953,30.5898438 C42.6826172,30.5898438 44.5283203,29.1308594 44.5283203,27.0917969 L44.5283203,25.7207031 L40.5556641,25.9667969 C38.6396484,26.1074219 37.5498047,26.96875 37.5498047,28.3046875 C37.5498047,29.7109375 38.7099609,30.5898438 40.4501953,30.5898438 Z M38.7626953,34.2988281 C35.1767578,34.2988281 32.4521484,31.9785156 32.4521484,28.5859375 C32.4521484,25.1582031 35.0888672,23.171875 39.7822266,22.890625 L44.5283203,22.609375 L44.5283203,21.3613281 C44.5283203,19.6035156 43.2978516,18.5839844 41.3642578,18.5839844 C39.4482422,18.5839844 38.2353516,19.5332031 37.9892578,20.921875 L33.2958984,20.921875 C33.4892578,17.265625 36.6005859,14.7519531 41.5927734,14.7519531 C46.4267578,14.7519531 49.5732422,17.2480469 49.5732422,21.0449219 L49.5732422,34 L44.6162109,34 L44.6162109,31.1171875 L44.5107422,31.1171875 C43.4560547,33.1210938 41.1181641,34.2988281 38.7626953,34.2988281 Z M69.9990234,22.1699219 L65.2353516,22.1699219 C64.9365234,20.1835938 63.6181641,18.7773438 61.5087891,18.7773438 C58.9775391,18.7773438 57.3955078,20.921875 57.3955078,24.5605469 C57.3955078,28.2695312 58.9775391,30.3789062 61.5263672,30.3789062 C63.5830078,30.3789062 64.9189453,29.1484375 65.2353516,27.0917969 L70.0166016,27.0917969 C69.7529297,31.5390625 66.4306641,34.4042969 61.4736328,34.4042969 C55.7958984,34.4042969 52.1923828,30.7128906 52.1923828,24.5605469 C52.1923828,18.5136719 55.7958984,14.7519531 61.4384766,14.7519531 C66.5361328,14.7519531 69.7705078,17.8984375 69.9990234,22.1699219 Z M84.1669922,34 L72.9345703,34 L72.9345703,8.63476562 L83.9736328,8.63476562 C88.7373047,8.63476562 91.7255859,11.078125 91.7255859,14.9628906 C91.7255859,17.7402344 89.6513672,20.0605469 86.9619141,20.4648438 L86.9619141,20.6054688 C90.4072266,20.8691406 92.9384766,23.3828125 92.9384766,26.7402344 C92.9384766,31.2050781 89.5810547,34 84.1669922,34 Z M78.2431641,12.5898438 L78.2431641,19.1816406 L82.0576172,19.1816406 C84.8876953,19.1816406 86.5048828,17.9335938 86.5048828,15.7890625 C86.5048828,13.75 85.0810547,12.5898438 82.6025391,12.5898438 L78.2431641,12.5898438 Z M78.2431641,30.0449219 L82.8134766,30.0449219 C85.8720703,30.0449219 87.5244141,28.7441406 87.5244141,26.3183594 C87.5244141,23.9453125 85.8193359,22.6796875 82.6904297,22.6796875 L78.2431641,22.6796875 L78.2431641,30.0449219 Z M104.170898,34.4042969 C98.4755859,34.4042969 94.8369141,30.7480469 94.8369141,24.5605469 C94.8369141,18.4609375 98.5283203,14.7519531 104.170898,14.7519531 C109.813477,14.7519531 113.504883,18.4433594 113.504883,24.5605469 C113.504883,30.765625 109.866211,34.4042969 104.170898,34.4042969 Z M104.170898,30.484375 C106.68457,30.484375 108.28418,28.3574219 108.28418,24.578125 C108.28418,20.8339844 106.666992,18.671875 104.170898,18.671875 C101.674805,18.671875 100.040039,20.8339844 100.040039,24.578125 C100.040039,28.3574219 101.639648,30.484375 104.170898,30.484375 Z M124.790039,34.4042969 C119.094727,34.4042969 115.456055,30.7480469 115.456055,24.5605469 C115.456055,18.4609375 119.147461,14.7519531 124.790039,14.7519531 C130.432617,14.7519531 134.124023,18.4433594 134.124023,24.5605469 C134.124023,30.765625 130.485352,34.4042969 124.790039,34.4042969 Z M124.790039,30.484375 C127.303711,30.484375 128.90332,28.3574219 128.90332,24.578125 C128.90332,20.8339844 127.286133,18.671875 124.790039,18.671875 C122.293945,18.671875 120.65918,20.8339844 120.65918,24.578125 C120.65918,28.3574219 122.258789,30.484375 124.790039,30.484375 Z M142.086914,22.7148438 L148.485352,15.15625 L154.303711,15.15625 L147.114258,23.2421875 L154.655273,34 L148.749023,34 L143.352539,26.3359375 L142.016602,27.7773438 L142.016602,34 L136.883789,34 L136.883789,8.63476562 L142.016602,8.63476562 L142.016602,22.7148438 L142.086914,22.7148438 Z M163.69043,8.63476562 L174.008789,8.63476562 C179.211914,8.63476562 182.797852,12.0976562 182.797852,17.3183594 C182.797852,22.5214844 179.088867,26.0019531 173.745117,26.0019531 L168.999023,26.0019531 L168.999023,34 L163.69043,34 L163.69043,8.63476562 Z M168.999023,12.8359375 L168.999023,21.8535156 L172.584961,21.8535156 C175.625977,21.8535156 177.401367,20.2363281 177.401367,17.3359375 C177.401367,14.453125 175.643555,12.8359375 172.602539,12.8359375 L168.999023,12.8359375 Z M185.487305,34 L185.487305,15.15625 L190.444336,15.15625 L190.444336,18.5488281 L190.549805,18.5488281 C191.217773,16.1582031 192.817383,14.8574219 195.032227,14.8574219 C195.629883,14.8574219 196.139648,14.9453125 196.491211,15.0507812 L196.491211,19.5683594 C196.069336,19.3925781 195.366211,19.2695312 194.62793,19.2695312 C192.09668,19.2695312 190.620117,20.8164062 190.620117,23.4707031 L190.620117,34 L185.487305,34 Z M206.616211,34.4042969 C200.920898,34.4042969 197.282227,30.7480469 197.282227,24.5605469 C197.282227,18.4609375 200.973633,14.7519531 206.616211,14.7519531 C212.258789,14.7519531 215.950195,18.4433594 215.950195,24.5605469 C215.950195,30.765625 212.311523,34.4042969 206.616211,34.4042969 Z M206.616211,30.484375 C209.129883,30.484375 210.729492,28.3574219 210.729492,24.578125 C210.729492,20.8339844 209.112305,18.671875 206.616211,18.671875 C204.120117,18.671875 202.485352,20.8339844 202.485352,24.578125 C202.485352,28.3574219 204.084961,30.484375 206.616211,30.484375 Z M232.174805,34 L232.174805,13.5039062 L232.069336,13.5039062 L225.600586,17.96875 L225.600586,13.1875 L232.157227,8.63476562 L237.430664,8.63476562 L237.430664,34 L232.174805,34 Z M252.864258,34.5625 C247.415039,34.5625 243.495117,31.328125 243.336914,26.7402344 L248.241211,26.7402344 C248.540039,28.8847656 250.438477,30.3613281 252.899414,30.3613281 C255.676758,30.3613281 257.592773,28.4277344 257.592773,25.6679688 C257.592773,22.8554688 255.676758,20.8867188 252.93457,20.8867188 C251.018555,20.8867188 249.366211,21.765625 248.487305,23.2246094 L243.741211,23.2246094 L244.989258,8.63476562 L261.125977,8.63476562 L261.125977,12.8535156 L249.155273,12.8535156 L248.575195,19.796875 L248.680664,19.796875 C249.717773,18.0917969 251.739258,17.0195312 254.323242,17.0195312 C259.174805,17.0195312 262.655273,20.5878906 262.655273,25.5273438 C262.655273,30.90625 258.682617,34.5625 252.864258,34.5625 Z M269.774414,18.53125 L265.942383,18.53125 L267.260742,8.63476562 L272.129883,8.63476562 L269.774414,18.53125 Z M279.688477,18.53125 L275.856445,18.53125 L277.174805,8.63476562 L282.043945,8.63476562 L279.688477,18.53125 Z M76.4648438,54.1757812 C76.4648438,50.9765625 79.0195312,48.7148438 82.7109375,48.7148438 C86.2734375,48.7148438 88.7226562,50.7773438 88.7226562,53.6015625 C88.7226562,55.7109375 87.3164062,57.2929688 85.453125,59.1445312 L81.328125,63.1171875 L81.328125,63.1875 L88.9570312,63.1875 L88.9570312,66 L76.6640625,66 L76.6640625,63.6210938 L83.0390625,57.4804688 C84.75,55.7695312 85.2773438,54.9140625 85.2773438,53.7421875 C85.2773438,52.4765625 84.1640625,51.46875 82.59375,51.46875 C80.953125,51.46875 79.7460938,52.6171875 79.7460938,54.1757812 L79.7460938,54.234375 L76.4648438,54.234375 L76.4648438,54.1757812 Z M97.6992188,66.375 C93.4453125,66.375 90.8554688,62.9882812 90.8554688,57.515625 C90.8554688,52.0546875 93.46875,48.703125 97.6992188,48.703125 C101.929688,48.703125 104.53125,52.0429688 104.53125,57.5039062 C104.53125,62.9648438 101.953125,66.375 97.6992188,66.375 Z M97.6992188,63.5390625 C99.7148438,63.5390625 100.933594,61.3710938 100.933594,57.515625 C100.933594,53.6953125 99.703125,51.5390625 97.6992188,51.5390625 C95.7070312,51.5390625 94.453125,53.7070312 94.453125,57.515625 C94.453125,61.359375 95.6835938,63.5390625 97.6992188,63.5390625 Z M110.8125,66 L110.8125,52.3359375 L110.742188,52.3359375 L106.429688,55.3125 L106.429688,52.125 L110.800781,49.0898438 L114.316406,49.0898438 L114.316406,66 L110.8125,66 Z M124.921875,66.3867188 C122.496094,66.3867188 120.492188,65.2851562 119.308594,63.2695312 C118.371094,61.8398438 117.890625,59.9296875 117.890625,57.6796875 C117.890625,52.078125 120.609375,48.703125 124.980469,48.703125 C128.203125,48.703125 130.722656,50.6132812 131.191406,53.3789062 L127.710938,53.3789062 C127.371094,52.2539062 126.28125,51.5039062 124.957031,51.5039062 C122.601562,51.5039062 121.171875,53.765625 121.253906,57.5859375 L121.324219,57.5859375 C122.003906,55.9335938 123.667969,54.8320312 125.824219,54.8320312 C129.035156,54.8320312 131.414062,57.1992188 131.414062,60.4101562 C131.414062,63.890625 128.707031,66.3867188 124.921875,66.3867188 Z M124.886719,63.5625 C126.609375,63.5625 127.96875,62.2148438 127.96875,60.515625 C127.96875,58.7695312 126.667969,57.4921875 124.898438,57.4921875 C123.140625,57.4921875 121.804688,58.7695312 121.804688,60.4804688 C121.804688,62.203125 123.152344,63.5625 124.886719,63.5625 Z M146.238281,60.6210938 L138.539062,60.6210938 L138.539062,57.6328125 L146.238281,57.6328125 L146.238281,60.6210938 Z M153.433594,54.1757812 C153.433594,50.9765625 155.988281,48.7148438 159.679688,48.7148438 C163.242188,48.7148438 165.691406,50.7773438 165.691406,53.6015625 C165.691406,55.7109375 164.285156,57.2929688 162.421875,59.1445312 L158.296875,63.1171875 L158.296875,63.1875 L165.925781,63.1875 L165.925781,66 L153.632812,66 L153.632812,63.6210938 L160.007812,57.4804688 C161.71875,55.7695312 162.246094,54.9140625 162.246094,53.7421875 C162.246094,52.4765625 161.132812,51.46875 159.5625,51.46875 C157.921875,51.46875 156.714844,52.6171875 156.714844,54.1757812 L156.714844,54.234375 L153.433594,54.234375 L153.433594,54.1757812 Z M174.667969,66.375 C170.414062,66.375 167.824219,62.9882812 167.824219,57.515625 C167.824219,52.0546875 170.4375,48.703125 174.667969,48.703125 C178.898438,48.703125 181.5,52.0429688 181.5,57.5039062 C181.5,62.9648438 178.921875,66.375 174.667969,66.375 Z M174.667969,63.5390625 C176.683594,63.5390625 177.902344,61.3710938 177.902344,57.515625 C177.902344,53.6953125 176.671875,51.5390625 174.667969,51.5390625 C172.675781,51.5390625 171.421875,53.7070312 171.421875,57.515625 C171.421875,61.359375 172.652344,63.5390625 174.667969,63.5390625 Z M187.78125,66 L187.78125,52.3359375 L187.710938,52.3359375 L183.398438,55.3125 L183.398438,52.125 L187.769531,49.0898438 L191.285156,49.0898438 L191.285156,66 L187.78125,66 Z M201.703125,66.375 C197.601562,66.375 194.847656,64.3476562 194.847656,61.4179688 C194.847656,59.1914062 196.464844,57.46875 198.820312,57.0820312 L198.820312,57.0117188 C196.851562,56.5546875 195.527344,55.0429688 195.527344,53.1796875 C195.527344,50.6015625 198.082031,48.7148438 201.703125,48.7148438 C205.335938,48.7148438 207.867188,50.5898438 207.867188,53.1914062 C207.867188,55.03125 206.554688,56.5429688 204.585938,57.0117188 L204.585938,57.0820312 C206.953125,57.4804688 208.558594,59.203125 208.558594,61.4296875 C208.558594,64.359375 205.769531,66.375 201.703125,66.375 Z M201.703125,63.796875 C203.566406,63.796875 204.855469,62.6835938 204.855469,61.1601562 C204.855469,59.6367188 203.566406,58.5234375 201.703125,58.5234375 C199.839844,58.5234375 198.539062,59.6367188 198.539062,61.1601562 C198.539062,62.6835938 199.839844,63.796875 201.703125,63.796875 Z M201.703125,55.9453125 C203.261719,55.9453125 204.375,54.9609375 204.375,53.6132812 C204.375,52.2539062 203.261719,51.2695312 201.703125,51.2695312 C200.132812,51.2695312 199.03125,52.265625 199.03125,53.6132812 C199.03125,54.9609375 200.132812,55.9453125 201.703125,55.9453125 Z"/>
      </g>
      <g transform="translate(45 93)">
        <g transform="translate(14.524)">
          <rect width="162.856" height="114.781" fill="#D5D2CF" rx="5.36"/>
          <rect width="162.218" height="114.139" x=".319" y=".321" fill="#4D4D4D" rx="4.96"/>
          <rect width="161.579" height="113.497" x=".638" y=".642" fill="#343434" rx="4.72"/>
          <path fill="#3E3E3E" d="M162.217659,106.769545 L162.217659,109.406784 C162.217659,112.020384 160.110128,114.13913 157.510227,114.13913 L5.34589934,114.13913 C2.74602298,114.13913 0.63840399,112.019927 0.63840399,109.406784 L0.63840399,106.769545 L162.217659,106.769545 Z"/>
          <g fill="#343434" transform="translate(4.868 7.54)">
            <rect width="153.217" height="96.261" x=".07" y=".079"/>
          </g>
          <g fill="#3E3E3E" transform="translate(80.678 3.37)">
            <path d="M0.798004988,1.60435078 C1.23870324,1.60435078 1.59600998,1.24517675 1.59600998,0.802175391 C1.59600998,0.359107183 1.23870324,-1.13242749e-14 0.798004988,-1.13242749e-14 C0.357306733,-1.13242749e-14 0,0.359107183 0,0.802175391 C0,1.24517675 0.357306733,1.60435078 0.798004988,1.60435078 L0.798004988,1.60435078 Z"/>
          </g>
        </g>
        <g transform="translate(0 111.583)">
          <path fill="#A9A9A9" d="M0,3.17260759 L191.98005,3.17260759 C190.476688,4.82268237 185.113536,6.35146823 181.268668,6.35146823 L10.7110623,6.35146823 C6.86651372,6.35146823 1.5033616,4.82268237 0,3.17260759 Z"/>
          <polygon fill="#D5D2CF" points="0 3.175 0 0 191.98 0 191.98 3.175"/>
          <path fill="#949494" d="M81.9918204,2.58701564 C80.9402893,2.58701564 79.8494963,1.25941536 79.8494963,0.0233433039 L112.289676,0.0233433039 C112.289676,1.25941536 111.198883,2.58701564 110.147352,2.58701564 L81.9918204,2.58701564 L81.9918204,2.58701564 Z"/>
        </g>
      </g>
      <path fill="#222" d="M28.9736328,34 L24.2451172,34 L24.2451172,16.8789062 L24.1044922,16.8789062 L17.2138672,33.7539062 L13.8740234,33.7539062 L6.98339844,16.8789062 L6.84277344,16.8789062 L6.84277344,34 L2.11425781,34 L2.11425781,8.63476562 L8.26660156,8.63476562 L15.4736328,26.6171875 L15.6142578,26.6171875 L22.8212891,8.63476562 L28.9736328,8.63476562 L28.9736328,34 Z M39.6259766,30.5898438 C41.8583984,30.5898438 43.7041016,29.1308594 43.7041016,27.0917969 L43.7041016,25.7207031 L39.7314453,25.9667969 C37.8154297,26.1074219 36.7255859,26.96875 36.7255859,28.3046875 C36.7255859,29.7109375 37.8857422,30.5898438 39.6259766,30.5898438 Z M37.9384766,34.2988281 C34.3525391,34.2988281 31.6279297,31.9785156 31.6279297,28.5859375 C31.6279297,25.1582031 34.2646484,23.171875 38.9580078,22.890625 L43.7041016,22.609375 L43.7041016,21.3613281 C43.7041016,19.6035156 42.4736328,18.5839844 40.5400391,18.5839844 C38.6240234,18.5839844 37.4111328,19.5332031 37.1650391,20.921875 L32.4716797,20.921875 C32.6650391,17.265625 35.7763672,14.7519531 40.7685547,14.7519531 C45.6025391,14.7519531 48.7490234,17.2480469 48.7490234,21.0449219 L48.7490234,34 L43.7919922,34 L43.7919922,31.1171875 L43.6865234,31.1171875 C42.6318359,33.1210938 40.2939453,34.2988281 37.9384766,34.2988281 Z M69.1748047,22.1699219 L64.4111328,22.1699219 C64.1123047,20.1835938 62.7939453,18.7773438 60.6845703,18.7773438 C58.1533203,18.7773438 56.5712891,20.921875 56.5712891,24.5605469 C56.5712891,28.2695312 58.1533203,30.3789062 60.7021484,30.3789062 C62.7587891,30.3789062 64.0947266,29.1484375 64.4111328,27.0917969 L69.1923828,27.0917969 C68.9287109,31.5390625 65.6064453,34.4042969 60.6494141,34.4042969 C54.9716797,34.4042969 51.3681641,30.7128906 51.3681641,24.5605469 C51.3681641,18.5136719 54.9716797,14.7519531 60.6142578,14.7519531 C65.7119141,14.7519531 68.9462891,17.8984375 69.1748047,22.1699219 Z M83.3427734,34 L72.1103516,34 L72.1103516,8.63476562 L83.1494141,8.63476562 C87.9130859,8.63476562 90.9013672,11.078125 90.9013672,14.9628906 C90.9013672,17.7402344 88.8271484,20.0605469 86.1376953,20.4648438 L86.1376953,20.6054688 C89.5830078,20.8691406 92.1142578,23.3828125 92.1142578,26.7402344 C92.1142578,31.2050781 88.7568359,34 83.3427734,34 Z M77.4189453,12.5898438 L77.4189453,19.1816406 L81.2333984,19.1816406 C84.0634766,19.1816406 85.6806641,17.9335938 85.6806641,15.7890625 C85.6806641,13.75 84.2568359,12.5898438 81.7783203,12.5898438 L77.4189453,12.5898438 Z M77.4189453,30.0449219 L81.9892578,30.0449219 C85.0478516,30.0449219 86.7001953,28.7441406 86.7001953,26.3183594 C86.7001953,23.9453125 84.9951172,22.6796875 81.8662109,22.6796875 L77.4189453,22.6796875 L77.4189453,30.0449219 Z M103.34668,34.4042969 C97.6513672,34.4042969 94.0126953,30.7480469 94.0126953,24.5605469 C94.0126953,18.4609375 97.7041016,14.7519531 103.34668,14.7519531 C108.989258,14.7519531 112.680664,18.4433594 112.680664,24.5605469 C112.680664,30.765625 109.041992,34.4042969 103.34668,34.4042969 Z M103.34668,30.484375 C105.860352,30.484375 107.459961,28.3574219 107.459961,24.578125 C107.459961,20.8339844 105.842773,18.671875 103.34668,18.671875 C100.850586,18.671875 99.2158203,20.8339844 99.2158203,24.578125 C99.2158203,28.3574219 100.81543,30.484375 103.34668,30.484375 Z M123.96582,34.4042969 C118.270508,34.4042969 114.631836,30.7480469 114.631836,24.5605469 C114.631836,18.4609375 118.323242,14.7519531 123.96582,14.7519531 C129.608398,14.7519531 133.299805,18.4433594 133.299805,24.5605469 C133.299805,30.765625 129.661133,34.4042969 123.96582,34.4042969 Z M123.96582,30.484375 C126.479492,30.484375 128.079102,28.3574219 128.079102,24.578125 C128.079102,20.8339844 126.461914,18.671875 123.96582,18.671875 C121.469727,18.671875 119.834961,20.8339844 119.834961,24.578125 C119.834961,28.3574219 121.43457,30.484375 123.96582,30.484375 Z M141.262695,22.7148438 L147.661133,15.15625 L153.479492,15.15625 L146.290039,23.2421875 L153.831055,34 L147.924805,34 L142.52832,26.3359375 L141.192383,27.7773438 L141.192383,34 L136.05957,34 L136.05957,8.63476562 L141.192383,8.63476562 L141.192383,22.7148438 L141.262695,22.7148438 Z M162.866211,8.63476562 L173.18457,8.63476562 C178.387695,8.63476562 181.973633,12.0976562 181.973633,17.3183594 C181.973633,22.5214844 178.264648,26.0019531 172.920898,26.0019531 L168.174805,26.0019531 L168.174805,34 L162.866211,34 L162.866211,8.63476562 Z M168.174805,12.8359375 L168.174805,21.8535156 L171.760742,21.8535156 C174.801758,21.8535156 176.577148,20.2363281 176.577148,17.3359375 C176.577148,14.453125 174.819336,12.8359375 171.77832,12.8359375 L168.174805,12.8359375 Z M184.663086,34 L184.663086,15.15625 L189.620117,15.15625 L189.620117,18.5488281 L189.725586,18.5488281 C190.393555,16.1582031 191.993164,14.8574219 194.208008,14.8574219 C194.805664,14.8574219 195.31543,14.9453125 195.666992,15.0507812 L195.666992,19.5683594 C195.245117,19.3925781 194.541992,19.2695312 193.803711,19.2695312 C191.272461,19.2695312 189.795898,20.8164062 189.795898,23.4707031 L189.795898,34 L184.663086,34 Z M205.791992,34.4042969 C200.09668,34.4042969 196.458008,30.7480469 196.458008,24.5605469 C196.458008,18.4609375 200.149414,14.7519531 205.791992,14.7519531 C211.43457,14.7519531 215.125977,18.4433594 215.125977,24.5605469 C215.125977,30.765625 211.487305,34.4042969 205.791992,34.4042969 Z M205.791992,30.484375 C208.305664,30.484375 209.905273,28.3574219 209.905273,24.578125 C209.905273,20.8339844 208.288086,18.671875 205.791992,18.671875 C203.295898,18.671875 201.661133,20.8339844 201.661133,24.578125 C201.661133,28.3574219 203.260742,30.484375 205.791992,30.484375 Z M231.350586,34 L231.350586,13.5039062 L231.245117,13.5039062 L224.776367,17.96875 L224.776367,13.1875 L231.333008,8.63476562 L236.606445,8.63476562 L236.606445,34 L231.350586,34 Z M248.454102,22.9257812 L248.454102,19.09375 L251.530273,19.09375 C253.956055,19.09375 255.59082,17.6523438 255.59082,15.5605469 C255.59082,13.5039062 254.131836,12.1503906 251.495117,12.1503906 C249.03418,12.1503906 247.399414,13.609375 247.258789,15.8242188 L242.37207,15.8242188 C242.56543,11.1308594 246.22168,8.07226562 251.723633,8.07226562 C256.99707,8.07226562 260.600586,10.7792969 260.600586,14.8398438 C260.600586,17.9511719 258.473633,20.2011719 255.362305,20.7636719 L255.362305,20.8691406 C259.141602,21.1855469 261.584961,23.4707031 261.584961,26.9863281 C261.584961,31.5390625 257.454102,34.5625 251.600586,34.5625 C245.870117,34.5625 242.125977,31.4160156 241.879883,26.7402344 L246.959961,26.7402344 C247.118164,28.8847656 248.875977,30.2910156 251.670898,30.2910156 C254.325195,30.2910156 256.188477,28.796875 256.188477,26.6523438 C256.188477,24.3320312 254.448242,22.9257812 251.583008,22.9257812 L248.454102,22.9257812 Z M268.598633,18.53125 L264.766602,18.53125 L266.084961,8.63476562 L270.954102,8.63476562 L268.598633,18.53125 Z M278.512695,18.53125 L274.680664,18.53125 L275.999023,8.63476562 L280.868164,8.63476562 L278.512695,18.53125 Z M75.4648438,54.1757812 C75.4648438,50.9765625 78.0195312,48.7148438 81.7109375,48.7148438 C85.2734375,48.7148438 87.7226562,50.7773438 87.7226562,53.6015625 C87.7226562,55.7109375 86.3164062,57.2929688 84.453125,59.1445312 L80.328125,63.1171875 L80.328125,63.1875 L87.9570312,63.1875 L87.9570312,66 L75.6640625,66 L75.6640625,63.6210938 L82.0390625,57.4804688 C83.75,55.7695312 84.2773438,54.9140625 84.2773438,53.7421875 C84.2773438,52.4765625 83.1640625,51.46875 81.59375,51.46875 C79.953125,51.46875 78.7460938,52.6171875 78.7460938,54.1757812 L78.7460938,54.234375 L75.4648438,54.234375 L75.4648438,54.1757812 Z M96.6992188,66.375 C92.4453125,66.375 89.8554688,62.9882812 89.8554688,57.515625 C89.8554688,52.0546875 92.46875,48.703125 96.6992188,48.703125 C100.929688,48.703125 103.53125,52.0429688 103.53125,57.5039062 C103.53125,62.9648438 100.953125,66.375 96.6992188,66.375 Z M96.6992188,63.5390625 C98.7148438,63.5390625 99.9335938,61.3710938 99.9335938,57.515625 C99.9335938,53.6953125 98.703125,51.5390625 96.6992188,51.5390625 C94.7070312,51.5390625 93.453125,53.7070312 93.453125,57.515625 C93.453125,61.359375 94.6835938,63.5390625 96.6992188,63.5390625 Z M109.8125,66 L109.8125,52.3359375 L109.742188,52.3359375 L105.429688,55.3125 L105.429688,52.125 L109.800781,49.0898438 L113.316406,49.0898438 L113.316406,66 L109.8125,66 Z M123.921875,66.3867188 C121.496094,66.3867188 119.492188,65.2851562 118.308594,63.2695312 C117.371094,61.8398438 116.890625,59.9296875 116.890625,57.6796875 C116.890625,52.078125 119.609375,48.703125 123.980469,48.703125 C127.203125,48.703125 129.722656,50.6132812 130.191406,53.3789062 L126.710938,53.3789062 C126.371094,52.2539062 125.28125,51.5039062 123.957031,51.5039062 C121.601562,51.5039062 120.171875,53.765625 120.253906,57.5859375 L120.324219,57.5859375 C121.003906,55.9335938 122.667969,54.8320312 124.824219,54.8320312 C128.035156,54.8320312 130.414062,57.1992188 130.414062,60.4101562 C130.414062,63.890625 127.707031,66.3867188 123.921875,66.3867188 Z M123.886719,63.5625 C125.609375,63.5625 126.96875,62.2148438 126.96875,60.515625 C126.96875,58.7695312 125.667969,57.4921875 123.898438,57.4921875 C122.140625,57.4921875 120.804688,58.7695312 120.804688,60.4804688 C120.804688,62.203125 122.152344,63.5625 123.886719,63.5625 Z M145.238281,60.6210938 L137.539062,60.6210938 L137.539062,57.6328125 L145.238281,57.6328125 L145.238281,60.6210938 Z M152.433594,54.1757812 C152.433594,50.9765625 154.988281,48.7148438 158.679688,48.7148438 C162.242188,48.7148438 164.691406,50.7773438 164.691406,53.6015625 C164.691406,55.7109375 163.285156,57.2929688 161.421875,59.1445312 L157.296875,63.1171875 L157.296875,63.1875 L164.925781,63.1875 L164.925781,66 L152.632812,66 L152.632812,63.6210938 L159.007812,57.4804688 C160.71875,55.7695312 161.246094,54.9140625 161.246094,53.7421875 C161.246094,52.4765625 160.132812,51.46875 158.5625,51.46875 C156.921875,51.46875 155.714844,52.6171875 155.714844,54.1757812 L155.714844,54.234375 L152.433594,54.234375 L152.433594,54.1757812 Z M173.667969,66.375 C169.414062,66.375 166.824219,62.9882812 166.824219,57.515625 C166.824219,52.0546875 169.4375,48.703125 173.667969,48.703125 C177.898438,48.703125 180.5,52.0429688 180.5,57.5039062 C180.5,62.9648438 177.921875,66.375 173.667969,66.375 Z M173.667969,63.5390625 C175.683594,63.5390625 176.902344,61.3710938 176.902344,57.515625 C176.902344,53.6953125 175.671875,51.5390625 173.667969,51.5390625 C171.675781,51.5390625 170.421875,53.7070312 170.421875,57.515625 C170.421875,61.359375 171.652344,63.5390625 173.667969,63.5390625 Z M186.78125,66 L186.78125,52.3359375 L186.710938,52.3359375 L182.398438,55.3125 L182.398438,52.125 L186.769531,49.0898438 L190.285156,49.0898438 L190.285156,66 L186.78125,66 Z M200.703125,66.375 C196.601562,66.375 193.847656,64.3476562 193.847656,61.4179688 C193.847656,59.1914062 195.464844,57.46875 197.820312,57.0820312 L197.820312,57.0117188 C195.851562,56.5546875 194.527344,55.0429688 194.527344,53.1796875 C194.527344,50.6015625 197.082031,48.7148438 200.703125,48.7148438 C204.335938,48.7148438 206.867188,50.5898438 206.867188,53.1914062 C206.867188,55.03125 205.554688,56.5429688 203.585938,57.0117188 L203.585938,57.0820312 C205.953125,57.4804688 207.558594,59.203125 207.558594,61.4296875 C207.558594,64.359375 204.769531,66.375 200.703125,66.375 Z M200.703125,63.796875 C202.566406,63.796875 203.855469,62.6835938 203.855469,61.1601562 C203.855469,59.6367188 202.566406,58.5234375 200.703125,58.5234375 C198.839844,58.5234375 197.539062,59.6367188 197.539062,61.1601562 C197.539062,62.6835938 198.839844,63.796875 200.703125,63.796875 Z M200.703125,55.9453125 C202.261719,55.9453125 203.375,54.9609375 203.375,53.6132812 C203.375,52.2539062 202.261719,51.2695312 200.703125,51.2695312 C199.132812,51.2695312 198.03125,52.265625 198.03125,53.6132812 C198.03125,54.9609375 199.132812,55.9453125 200.703125,55.9453125 Z"/>
    </g>
  </g>
</svg>
