<?xml version="1.0" encoding="UTF-8" standalone="no"?>
<svg width="1741px" height="2579px" viewBox="0 0 1741 2579" version="1.1" xmlns="http://www.w3.org/2000/svg" xmlns:xlink="http://www.w3.org/1999/xlink" xmlns:sketch="http://www.bohemiancoding.com/sketch/ns">
    <!-- Generator: Sketch 3.3.3 (12072) - http://www.bohemiancoding.com/sketch -->
    <title>iPad Mini 2 Silver</title>
    <desc>Created with Sketch.</desc>
    <defs></defs>
    <g id="iPad" stroke="none" stroke-width="1" fill="none" fill-rule="evenodd" sketch:type="MSPage">
        <g id="iPad-Mini-2" sketch:type="MSArtboardGroup" transform="translate(-2880.000000, -211.000000)">
            <g id="iPad-Mini-2-Silver" sketch:type="MSLayerGroup" transform="translate(2880.000000, 211.000000)">
                <path d="M1740.52,2451.74 C1740.52,2524.766 1685.769,2578.616 1613.631,2578.616 L1520.135,2578.616 L220.845,2578.616 L127.412,2578.616 C55.274,2578.616 0.524,2524.766 0.524,2451.74 L0.524,127.48 C0.524,54.454 55.274,0.607 127.412,0.607 L1613.632,0.607 C1685.77,0.607 1740.521,54.454 1740.521,127.48 L1740.521,2451.74 L1740.52,2451.74 Z" id="Frame" fill="#D5D2CF" sketch:type="MSShapeGroup"></path>
                <g id="Body" transform="translate(11.000000, 12.000000)" sketch:type="MSShapeGroup">
                    <path d="M1717.98,116.513 C1717.607,128.33 1717.607,2426.793 1717.98,2438.603 C1717.98,2469.347 1707.289,2499.324 1684.736,2521.751 C1662.184,2544.18 1632.291,2554.795 1601.725,2554.795 L116.975,2554.795 C86.409,2554.795 56.516,2544.18 33.963,2521.751 C11.41,2499.324 0.72,2469.347 0.72,2438.603 C1.092,2426.787 1.092,128.323 0.72,116.513 C0.72,85.769 11.41,55.793 33.963,33.365 C56.516,10.936 86.409,0.321 116.975,0.321 L1601.725,0.321 C1632.291,0.321 1662.184,10.936 1684.736,33.365 C1707.289,55.793 1717.98,85.769 1717.98,116.513 L1717.98,116.513 Z" id="Body1" fill="#F3F5F7"></path>
                    <g id="Home-Button" transform="translate(791.000000, 2374.000000)" fill="#D5D2CF">
                        <path d="M68.352,0.65 C105.883,0.65 136.352,31.119 136.352,68.65 C136.352,106.18 105.883,136.65 68.352,136.65 C30.822,136.65 0.352,106.18 0.352,68.65 C0.352,31.119 30.822,0.65 68.352,0.65 L68.352,0.65 Z M68.352,5.72 C103.084,5.72 131.281,33.917 131.281,68.649 C131.281,103.38 103.084,131.577 68.352,131.577 C33.621,131.577 5.424,103.38 5.424,68.649 C5.424,33.917 33.621,5.72 68.352,5.72 L68.352,5.72 Z" id="Home-Button-Circle"></path>
                        <path d="M52.168,93.15 C51.849,93.148 51.531,93.132 51.214,93.095 C50.598,93.025 49.99,92.885 49.406,92.679 C48.268,92.278 47.223,91.626 46.36,90.783 C45.474,89.917 44.784,88.855 44.357,87.692 C44.144,87.111 43.997,86.506 43.919,85.892 C43.879,85.577 43.859,85.259 43.853,84.941 C43.784,74.08 43.784,63.219 43.853,52.358 C43.859,52.04 43.879,51.723 43.919,51.407 C43.997,50.793 44.144,50.188 44.357,49.607 C44.784,48.444 45.474,47.382 46.36,46.516 C47.223,45.674 48.268,45.021 49.406,44.62 C49.99,44.414 50.598,44.274 51.214,44.204 C51.495,44.172 51.778,44.156 52.061,44.15 C62.922,44.081 73.783,44.081 84.644,44.15 C84.962,44.156 85.279,44.176 85.595,44.216 C86.209,44.295 86.814,44.442 87.395,44.655 C88.558,45.081 89.62,45.771 90.486,46.657 C91.328,47.52 91.981,48.565 92.382,49.703 C92.588,50.288 92.728,50.895 92.798,51.511 C92.83,51.793 92.846,52.075 92.852,52.358 C92.921,63.219 92.921,74.08 92.852,84.941 C92.846,85.259 92.826,85.577 92.785,85.892 C92.707,86.506 92.56,87.111 92.347,87.692 C91.921,88.855 91.231,89.917 90.345,90.783 C89.482,91.626 88.437,92.278 87.299,92.679 C86.714,92.885 86.107,93.025 85.491,93.095 C85.209,93.128 84.927,93.144 84.644,93.149 C73.819,93.218 62.993,93.15 52.168,93.15 L52.168,93.15 Z M52.188,87.65 C63.008,87.65 73.834,87.989 84.648,87.647 C84.733,87.644 84.816,87.637 84.9,87.627 C85.185,87.588 85.462,87.51 85.722,87.389 C86.393,87.076 86.929,86.494 87.183,85.799 C87.292,85.501 87.346,85.188 87.352,84.871 C87.421,74.032 87.696,63.187 87.35,52.353 C87.337,52.062 87.284,51.774 87.183,51.5 C86.9,50.726 86.271,50.102 85.499,49.818 C85.204,49.709 84.891,49.656 84.577,49.65 C73.737,49.588 62.891,49.294 52.056,49.652 C51.766,49.664 51.479,49.717 51.206,49.818 C50.445,50.098 49.822,50.709 49.533,51.468 C49.417,51.775 49.359,52.1 49.353,52.428 C49.287,63.267 49.013,74.112 49.355,84.947 C49.368,85.261 49.43,85.57 49.546,85.863 C49.818,86.552 50.368,87.12 51.046,87.418 C51.32,87.538 51.612,87.61 51.91,87.638 C52.003,87.646 52.095,87.649 52.188,87.65 L52.188,87.65 Z" id="Rounded-Rectangle-Symbol"></path>
                    </g>
                    <g id="Screen" transform="translate(83.000000, 244.000000)">
                        <path d="M8.518,2064.59 C7.694,2064.46 6.84,2064.456 6.046,2064.199 C4.44,2063.676 3.039,2062.659 2.046,2061.292 C1.556,2060.617 1.168,2059.856 0.91,2059.062 C0.652,2058.269 0.649,2057.414 0.518,2056.59 L0.518,8.63 C0.649,7.806 0.652,6.951 0.91,6.158 C1.168,5.364 1.556,4.602 2.046,3.927 C3.039,2.561 4.44,1.543 6.046,1.021 C6.84,0.763 7.694,0.76 8.518,0.63 L1544.518,0.63 C1545.342,0.76 1546.197,0.763 1546.99,1.021 C1547.784,1.279 1548.545,1.667 1549.22,2.158 C1550.587,3.151 1551.604,4.551 1552.126,6.158 C1552.384,6.951 1552.387,7.806 1552.518,8.63 L1552.518,2056.59 C1552.387,2057.414 1552.384,2058.269 1552.126,2059.062 C1551.604,2060.669 1550.587,2062.069 1549.22,2063.062 C1548.545,2063.553 1547.784,2063.941 1546.99,2064.199 C1546.197,2064.456 1545.342,2064.46 1544.518,2064.59 L8.518,2064.59 L8.518,2064.59 Z" id="Screen-Frame" fill="#3E3E3E"></path>
                        <rect id="Screen---Off" fill="#343434" x="8.519" y="8.628" width="1536" height="2047.96"></rect>
                    </g>
                    <g id="Top-Sensors" transform="translate(803.000000, 112.000000)">
                        <path d="M8.518,10.555 C12.936,10.555 16.518,14.137 16.518,18.556 C16.518,22.974 12.936,26.555 8.518,26.555 C4.099,26.555 0.518,22.974 0.518,18.556 C0.518,14.137 4.099,10.555 8.518,10.555 L8.518,10.555 Z" id="Microphone" fill="#E0E0E0"></path>
                        <path d="M8.518,10.555 C12.936,10.555 16.518,14.137 16.518,18.556 C16.518,22.974 12.936,26.555 8.518,26.555 C4.099,26.555 0.518,22.974 0.518,18.556 C0.518,14.137 4.099,10.555 8.518,10.555 L8.518,10.555 Z" id="Shape" fill="#E0E0E0"></path>
                        <path d="M56.518,0.594 C65.355,0.594 72.518,7.757 72.518,16.594 C72.518,25.431 65.355,32.594 56.518,32.594 C47.683,32.594 40.518,25.431 40.518,16.594 C40.518,7.757 47.683,0.594 56.518,0.594 L56.518,0.594 Z" id="Camera" fill="#3E3E3E"></path>
                    </g>
                </g>
            </g>
        </g>
    </g>
</svg>