<?xml version="1.0" encoding="UTF-8" standalone="no"?>
<svg width="1741px" height="2579px" viewBox="0 0 1741 2579" version="1.1" xmlns="http://www.w3.org/2000/svg" xmlns:xlink="http://www.w3.org/1999/xlink" xmlns:sketch="http://www.bohemiancoding.com/sketch/ns">
    <!-- Generator: Sketch 3.3.3 (12072) - http://www.bohemiancoding.com/sketch -->
    <title>iPad Mini 2 Space Gray</title>
    <desc>Created with Sketch.</desc>
    <defs></defs>
    <g id="iPad" stroke="none" stroke-width="1" fill="none" fill-rule="evenodd" sketch:type="MSPage">
        <g id="iPad-Mini-2" sketch:type="MSArtboardGroup" transform="translate(-380.000000, -211.000000)">
            <g id="iPad-Mini-2-Space-Gray" sketch:type="MSLayerGroup" transform="translate(380.000000, 210.500000)">
                <path d="M1740.52,2451.69 C1740.52,2524.716 1685.769,2578.565 1613.631,2578.565 L1520.135,2578.565 L220.845,2578.565 L127.412,2578.565 C55.274,2578.565 0.524,2524.716 0.524,2451.69 L0.524,127.43 C0.524,54.403 55.274,0.556 127.412,0.556 L1613.632,0.556 C1685.77,0.556 1740.521,54.403 1740.521,127.43 L1740.521,2451.69 L1740.52,2451.69 Z" id="Frame" fill="#545454" sketch:type="MSShapeGroup"></path>
                <g id="Body" transform="translate(11.000000, 12.000000)" sketch:type="MSShapeGroup">
                    <path d="M1717.98,116.465 C1717.607,128.281 1717.607,2426.745 1717.98,2438.555 C1717.98,2469.3 1707.289,2499.276 1684.736,2521.704 C1662.184,2544.132 1632.291,2554.748 1601.725,2554.748 L116.975,2554.748 C86.409,2554.748 56.516,2544.132 33.963,2521.704 C11.41,2499.276 0.72,2469.3 0.72,2438.555 C1.092,2426.739 1.092,128.275 0.72,116.465 C0.72,85.72 11.41,55.744 33.963,33.316 C56.516,10.888 86.409,0.273 116.975,0.273 L1601.725,0.273 C1632.291,0.273 1662.184,10.888 1684.736,33.316 C1707.289,55.744 1717.98,85.72 1717.98,116.465 L1717.98,116.465 Z" id="Body1" fill="#343434"></path>
                    <g id="Home-Button" transform="translate(791.000000, 2374.000000)">
                        <path d="M68.352,0.6 C105.883,0.6 136.352,31.07 136.352,68.6 C136.352,106.13 105.883,136.6 68.352,136.6 C30.822,136.6 0.352,106.13 0.352,68.6 C0.352,31.07 30.822,0.6 68.352,0.6 L68.352,0.6 Z M68.352,5.67 C103.084,5.67 131.281,33.868 131.281,68.599 C131.281,103.33 103.084,131.528 68.352,131.528 C33.621,131.528 5.424,103.33 5.424,68.599 C5.424,33.868 33.621,5.67 68.352,5.67 L68.352,5.67 Z" id="Home-Button-Circle" fill="#3E3E3E"></path>
                        <path d="M52.168,93.1 C51.849,93.098 51.531,93.082 51.214,93.046 C50.598,92.975 49.99,92.836 49.406,92.629 C48.268,92.228 47.223,91.576 46.36,90.733 C45.474,89.868 44.784,88.806 44.357,87.642 C44.144,87.061 43.997,86.456 43.919,85.843 C43.879,85.527 43.859,85.21 43.853,84.892 C43.784,74.031 43.784,63.169 43.853,52.308 C43.859,51.99 43.879,51.673 43.919,51.357 C43.997,50.744 44.144,50.139 44.357,49.558 C44.784,48.394 45.474,47.332 46.36,46.467 C47.223,45.624 48.268,44.972 49.406,44.571 C49.99,44.364 50.598,44.225 51.214,44.154 C51.495,44.122 51.778,44.106 52.061,44.101 C62.922,44.032 73.783,44.032 84.644,44.101 C84.962,44.107 85.279,44.127 85.595,44.167 C86.209,44.245 86.814,44.392 87.395,44.605 C88.558,45.031 89.62,45.721 90.486,46.608 C91.328,47.471 91.981,48.516 92.382,49.654 C92.588,50.238 92.728,50.846 92.798,51.461 C92.83,51.743 92.846,52.025 92.852,52.308 C92.921,63.169 92.921,74.031 92.852,84.892 C92.846,85.21 92.826,85.527 92.785,85.843 C92.707,86.456 92.56,87.061 92.347,87.642 C91.921,88.806 91.231,89.868 90.345,90.733 C89.482,91.576 88.437,92.228 87.299,92.629 C86.714,92.836 86.107,92.975 85.491,93.046 C85.209,93.078 84.927,93.094 84.644,93.099 C73.819,93.168 62.993,93.1 52.168,93.1 L52.168,93.1 Z M52.188,87.6 C63.008,87.6 73.834,87.939 84.648,87.598 C84.733,87.594 84.816,87.587 84.9,87.577 C85.185,87.539 85.462,87.461 85.722,87.339 C86.393,87.026 86.929,86.444 87.183,85.75 C87.292,85.452 87.346,85.139 87.352,84.822 C87.421,73.983 87.696,63.138 87.35,52.304 C87.337,52.012 87.284,51.725 87.183,51.45 C86.9,50.677 86.271,50.052 85.499,49.768 C85.204,49.659 84.891,49.606 84.577,49.6 C73.737,49.539 62.891,49.245 52.056,49.602 C51.766,49.615 51.479,49.668 51.206,49.768 C50.445,50.048 49.822,50.659 49.533,51.418 C49.417,51.726 49.359,52.05 49.353,52.378 C49.287,63.218 49.013,74.063 49.355,84.897 C49.368,85.211 49.43,85.521 49.546,85.813 C49.818,86.503 50.368,87.07 51.046,87.368 C51.32,87.488 51.612,87.56 51.91,87.588 C52.003,87.596 52.095,87.599 52.188,87.6 L52.188,87.6 Z" id="Rounded-Rectangle-Symbol" fill="#D5D2CF"></path>
                    </g>
                    <g id="Screen" transform="translate(83.000000, 244.000000)" fill="#343434">
                        <path d="M8.518,2064.54 C7.694,2064.41 6.84,2064.407 6.046,2064.149 C4.44,2063.627 3.039,2062.61 2.046,2061.243 C1.556,2060.568 1.168,2059.806 0.91,2059.013 C0.652,2058.219 0.649,2057.365 0.518,2056.54 L0.518,8.58 C0.649,7.756 0.652,6.901 0.91,6.108 C1.168,5.314 1.556,4.553 2.046,3.878 C3.039,2.511 4.44,1.494 6.046,0.972 C6.84,0.714 7.694,0.711 8.518,0.58 L1544.518,0.58 C1545.342,0.711 1546.197,0.714 1546.99,0.972 C1547.784,1.229 1548.545,1.617 1549.22,2.108 C1550.587,3.101 1551.604,4.501 1552.126,6.108 C1552.384,6.901 1552.387,7.756 1552.518,8.58 L1552.518,2056.54 C1552.387,2057.365 1552.384,2058.219 1552.126,2059.013 C1551.604,2060.619 1550.587,2062.02 1549.22,2063.013 C1548.545,2063.503 1547.784,2063.891 1546.99,2064.149 C1546.197,2064.407 1545.342,2064.41 1544.518,2064.54 L8.518,2064.54 L8.518,2064.54 Z" id="Screen-Frame"></path>
                        <rect id="Screen---Off" x="8.519" y="8.579" width="1536" height="2047.96"></rect>
                    </g>
                    <g id="Top-Sensors" transform="translate(843.000000, 112.000000)" fill="#3E3E3E">
                        <path d="M16.518,0.545 C25.355,0.545 32.518,7.708 32.518,16.545 C32.518,25.382 25.355,32.545 16.518,32.545 C7.683,32.545 0.518,25.382 0.518,16.545 C0.518,7.708 7.683,0.545 16.518,0.545 L16.518,0.545 Z" id="Camera"></path>
                    </g>
                </g>
            </g>
        </g>
    </g>
</svg>