<?xml version="1.0" encoding="UTF-8" standalone="no"?>
<svg width="871px" height="1290px" viewBox="0 0 871 1290" version="1.1" xmlns="http://www.w3.org/2000/svg" xmlns:xlink="http://www.w3.org/1999/xlink" xmlns:sketch="http://www.bohemiancoding.com/sketch/ns">
    <!-- Generator: Sketch 3.3.3 (12072) - http://www.bohemiancoding.com/sketch -->
    <title>iPad Mini Silver</title>
    <desc>Created with Sketch.</desc>
    <defs></defs>
    <g id="iPad" stroke="none" stroke-width="1" fill="none" fill-rule="evenodd" sketch:type="MSPage">
        <g id="iPad-Mini" sketch:type="MSArtboardGroup" transform="translate(-1440.000000, -106.000000)">
            <g id="iPad-Mini-Silver" sketch:type="MSLayerGroup" transform="translate(1440.000000, 106.000000)">
                <path d="M870.317,1225.65 C870.317,1262.163 842.941,1289.088 806.872,1289.088 L760.124,1289.088 L110.477,1289.088 L63.76,1289.088 C27.691,1289.088 0.317,1262.163 0.317,1225.65 L0.317,63.52 C0.317,27.007 27.691,0.083 63.76,0.083 L806.872,0.083 C842.941,0.083 870.317,27.007 870.317,63.52 L870.317,1225.65 L870.317,1225.65 Z" id="Frame" fill="#D5D2CF" sketch:type="MSShapeGroup"></path>
                <g id="Body" transform="translate(5.000000, 5.000000)" sketch:type="MSShapeGroup">
                    <path d="M859.549,59.038 C859.363,64.946 859.363,1214.178 859.549,1220.088 C859.549,1235.46 854.204,1250.448 842.927,1261.662 C831.651,1272.877 816.704,1278.184 801.421,1278.184 L59.046,1278.184 C43.763,1278.184 28.816,1272.877 17.54,1261.662 C6.264,1250.448 0.919,1235.46 0.919,1220.088 C1.105,1214.18 1.105,64.948 0.919,59.038 C0.919,43.666 6.264,28.678 17.54,17.464 C28.816,6.25 43.763,0.942 59.046,0.942 L801.421,0.942 C816.704,0.942 831.651,6.25 842.927,17.464 C854.204,28.678 859.549,43.666 859.549,59.038 L859.549,59.038 Z" id="Body1" fill="#F3F5F7"></path>
                    <g id="Home-Button" transform="translate(396.000000, 1188.000000)" fill="#D5D2CF">
                        <path d="M34.234,0.11 C52.999,0.11 68.234,15.345 68.234,34.11 C68.234,52.875 52.999,68.11 34.234,68.11 C15.468,68.11 0.234,52.875 0.234,34.11 C0.234,15.345 15.468,0.11 34.234,0.11 L34.234,0.11 Z M34.234,2.64 C51.599,2.64 65.698,16.739 65.698,34.104 C65.698,51.47 51.599,65.569 34.234,65.569 C16.868,65.569 2.769,51.47 2.769,34.104 C2.769,16.739 16.868,2.64 34.234,2.64 L34.234,2.64 Z" id="Home-Button-Circle"></path>
                        <path d="M26.142,46.36 C25.982,46.359 25.823,46.351 25.664,46.333 C25.356,46.298 25.053,46.228 24.76,46.125 C24.191,45.925 23.669,45.598 23.237,45.177 C22.794,44.744 22.449,44.213 22.236,43.631 C22.13,43.341 22.056,43.039 22.017,42.732 C21.997,42.574 21.987,42.415 21.984,42.256 C21.95,36.826 21.95,31.395 21.984,25.965 C21.987,25.805 21.997,25.647 22.017,25.489 C22.056,25.182 22.13,24.88 22.236,24.589 C22.449,24.008 22.794,23.476 23.237,23.044 C23.669,22.622 24.191,22.296 24.76,22.096 C25.053,21.993 25.356,21.923 25.664,21.887 C25.805,21.871 25.946,21.863 26.088,21.861 C31.518,21.826 36.949,21.826 42.379,21.861 C42.538,21.864 42.697,21.874 42.855,21.894 C43.162,21.933 43.464,22.006 43.755,22.113 C44.336,22.326 44.868,22.671 45.3,23.114 C45.722,23.546 46.048,24.068 46.248,24.637 C46.351,24.929 46.421,25.233 46.456,25.541 C46.473,25.682 46.481,25.823 46.483,25.965 C46.518,31.395 46.518,36.826 46.483,42.256 C46.48,42.415 46.47,42.574 46.45,42.732 C46.411,43.039 46.338,43.341 46.231,43.631 C46.018,44.213 45.673,44.744 45.23,45.177 C44.798,45.598 44.276,45.925 43.707,46.125 C43.415,46.228 43.111,46.298 42.803,46.333 C42.662,46.349 42.521,46.357 42.379,46.36 C36.967,46.394 31.554,46.36 26.142,46.36 L26.142,46.36 Z M26.151,43.61 C31.561,43.61 36.974,43.78 42.382,43.609 C42.424,43.607 42.466,43.604 42.508,43.599 C42.65,43.58 42.788,43.541 42.919,43.48 C43.254,43.324 43.522,43.032 43.649,42.685 C43.704,42.536 43.73,42.38 43.733,42.221 C43.768,36.802 43.905,31.379 43.732,25.962 C43.726,25.817 43.699,25.673 43.649,25.536 C43.507,25.149 43.193,24.837 42.807,24.694 C42.659,24.64 42.503,24.613 42.346,24.611 C36.926,24.58 31.503,24.433 26.086,24.611 C25.941,24.618 25.797,24.644 25.66,24.694 C25.28,24.834 24.969,25.14 24.824,25.52 C24.766,25.673 24.737,25.835 24.734,25.999 C24.701,31.419 24.564,36.842 24.735,42.259 C24.742,42.416 24.773,42.571 24.83,42.717 C24.966,43.062 25.241,43.346 25.58,43.494 C25.718,43.554 25.864,43.59 26.012,43.605 C26.059,43.608 26.105,43.61 26.151,43.61 L26.151,43.61 Z" id="Rounded-Rectangle-Symbol"></path>
                    </g>
                    <g id="Screen" transform="translate(42.000000, 123.000000)">
                        <path d="M4.317,1032.08 C3.905,1032.014 3.477,1032.013 3.081,1031.884 C2.277,1031.623 1.577,1031.114 1.081,1030.431 C0.835,1030.093 0.641,1029.712 0.512,1029.316 C0.384,1028.919 0.382,1028.492 0.317,1028.08 L0.317,4.1 C0.382,3.688 0.384,3.261 0.512,2.864 C0.641,2.468 0.835,2.087 1.081,1.749 C1.577,1.066 2.277,0.557 3.081,0.296 C3.477,0.167 3.905,0.166 4.317,0.1 L772.316,0.1 C772.728,0.166 773.156,0.167 773.552,0.296 C773.949,0.425 774.33,0.619 774.668,0.864 C775.351,1.361 775.86,2.061 776.121,2.864 C776.25,3.261 776.251,3.688 776.316,4.1 L776.316,1028.08 C776.251,1028.492 776.25,1028.919 776.121,1029.316 C775.86,1030.119 775.351,1030.819 774.668,1031.316 C774.33,1031.561 773.949,1031.755 773.552,1031.884 C773.156,1032.013 772.728,1032.014 772.316,1032.08 L4.317,1032.08 L4.317,1032.08 Z" id="Screen-Frame" fill="#3E3E3E"></path>
                        <rect id="Screen---Off" fill="#343434" x="4.317" y="4.095" width="768" height="1023.98"></rect>
                    </g>
                    <g id="Top-Sensors" transform="translate(402.000000, 57.000000)">
                        <path d="M4.317,5.059 C6.525,5.059 8.317,6.85 8.317,9.059 C8.317,11.269 6.525,13.059 4.317,13.059 C2.107,13.059 0.317,11.269 0.317,9.059 C0.317,6.85 2.107,5.059 4.317,5.059 L4.317,5.059 Z" id="Microphone" fill="#E0E0E0"></path>
                        <path d="M4.317,5.059 C6.525,5.059 8.317,6.85 8.317,9.059 C8.317,11.269 6.525,13.059 4.317,13.059 C2.107,13.059 0.317,11.269 0.317,9.059 C0.317,6.85 2.107,5.059 4.317,5.059 L4.317,5.059 Z" id="Shape" fill="#E0E0E0"></path>
                        <path d="M28.317,0.078 C32.735,0.078 36.317,3.66 36.317,8.079 C36.317,12.497 32.735,16.078 28.317,16.078 C23.899,16.078 20.317,12.497 20.317,8.079 C20.317,3.66 23.899,0.078 28.317,0.078 L28.317,0.078 Z" id="Camera" fill="#3E3E3E"></path>
                    </g>
                </g>
            </g>
        </g>
    </g>
</svg>