<?xml version="1.0" encoding="UTF-8" standalone="no"?>
<svg width="1939px" height="2517px" viewBox="0 0 1939 2517" version="1.1" xmlns="http://www.w3.org/2000/svg" xmlns:xlink="http://www.w3.org/1999/xlink" xmlns:sketch="http://www.bohemiancoding.com/sketch/ns">
    <!-- Generator: Sketch 3.3.3 (12072) - http://www.bohemiancoding.com/sketch -->
    <title>iPad 3-4 Black</title>
    <desc>Created with Sketch.</desc>
    <defs></defs>
    <g id="iPad" stroke="none" stroke-width="1" fill="none" fill-rule="evenodd" sketch:type="MSPage">
        <g id="iPad-3-4" sketch:type="MSArtboardGroup" transform="translate(-281.000000, -242.000000)">
            <g id="iPad-3-4-Black" sketch:type="MSLayerGroup" transform="translate(281.000000, 242.000000)">
                <path d="M1845.56,0.403 L91.05,0.403 C39.687,0.403 0.03,39.305 0.03,87.122 L0.03,2429.692 C0.03,2477.508 38.935,2516.41 86.751,2516.41 L1851.291,2516.41 C1899.108,2516.41 1938.012,2477.508 1938.012,2429.692 L1938.012,87.122 C1938.012,39.305 1898.592,0.403 1845.561,0.403 L1845.56,0.403 Z" id="Frame" fill="#D5D2CF" sketch:type="MSShapeGroup"></path>
                <g id="Body" transform="translate(8.000000, 8.000000)" sketch:type="MSShapeGroup">
                    <path d="M1921.97,2421.59 C1921.97,2465.128 1886.673,2500.425 1843.132,2500.425 L78.842,2500.425 C35.299,2500.425 0.006,2465.128 0.006,2421.59 L0.006,79.27 C0.006,35.732 35.299,0.434 78.842,0.434 L1843.132,0.434 C1886.673,0.434 1921.97,35.732 1921.97,79.27 L1921.97,2421.59 L1921.97,2421.59 Z" id="Body1" fill="#343434"></path>
                    <g id="Screen" transform="translate(190.000000, 204.000000)" fill="#343434">
                        <path d="M8.018,2064.4 C7.194,2064.269 6.34,2064.266 5.546,2064.008 C4.753,2063.75 3.991,2063.362 3.316,2062.872 C1.949,2061.879 0.932,2060.478 0.41,2058.872 C0.152,2058.078 0.149,2057.224 0.018,2056.4 L0.018,8.44 C0.149,7.616 0.152,6.762 0.41,5.968 C0.668,5.175 1.056,4.413 1.546,3.738 C2.539,2.371 3.939,1.354 5.546,0.832 C6.34,0.574 7.194,0.571 8.018,0.44 L1544.018,0.44 C1544.842,0.571 1545.696,0.574 1546.49,0.832 C1548.097,1.354 1549.497,2.371 1550.49,3.738 C1550.98,4.413 1551.368,5.175 1551.626,5.968 C1551.884,6.762 1551.887,7.616 1552.018,8.44 L1552.018,2056.4 C1551.887,2057.224 1551.884,2058.078 1551.626,2058.872 C1551.368,2059.665 1550.98,2060.427 1550.49,2061.102 C1549.497,2062.469 1548.097,2063.486 1546.49,2064.008 C1545.696,2064.266 1544.842,2064.269 1544.018,2064.4 L8.018,2064.4 L8.018,2064.4 Z" id="Frame1"></path>
                        <rect id="Screen---Off" x="8.018" y="8.443" width="1536" height="2047.96"></rect>
                    </g>
                    <g id="Home-Button" transform="translate(909.000000, 2333.000000)">
                        <path d="M55.385,0.96 C85.465,0.96 109.885,25.381 109.885,55.46 C109.885,85.54 85.465,109.96 55.385,109.96 C25.306,109.96 0.885,85.54 0.885,55.46 C0.885,25.381 25.306,0.96 55.385,0.96 L55.385,0.96 Z M55.385,5.02 C83.221,5.02 105.821,27.619 105.821,55.455 C105.821,83.292 83.221,105.891 55.385,105.891 C27.549,105.891 4.95,83.292 4.95,55.455 C4.95,27.619 27.549,5.02 55.385,5.02 L55.385,5.02 Z" id="Home-Button-Circle" fill="#3E3E3E"></path>
                        <path d="M42.414,75.09 C42.158,75.089 41.903,75.076 41.649,75.047 C41.156,74.99 40.669,74.879 40.2,74.713 C39.288,74.392 38.451,73.869 37.759,73.194 C37.049,72.5 36.496,71.649 36.154,70.716 C35.983,70.251 35.866,69.766 35.803,69.274 C35.771,69.021 35.755,68.767 35.75,68.512 C35.695,59.807 35.695,51.102 35.75,42.397 C35.755,42.142 35.771,41.888 35.803,41.635 C35.866,41.143 35.983,40.658 36.154,40.193 C36.496,39.26 37.049,38.409 37.759,37.715 C38.451,37.04 39.288,36.517 40.2,36.196 C40.669,36.03 41.156,35.918 41.649,35.862 C41.875,35.836 42.101,35.823 42.328,35.819 C51.033,35.764 59.738,35.764 68.443,35.819 C68.698,35.824 68.952,35.84 69.205,35.872 C69.697,35.935 70.181,36.052 70.647,36.223 C71.58,36.565 72.431,37.118 73.125,37.828 C73.8,38.52 74.323,39.357 74.644,40.269 C74.809,40.738 74.921,41.225 74.978,41.718 C75.004,41.944 75.017,42.17 75.021,42.397 C75.076,51.102 75.076,59.807 75.021,68.512 C75.016,68.767 75,69.021 74.968,69.274 C74.905,69.766 74.787,70.251 74.617,70.716 C74.275,71.649 73.722,72.5 73.011,73.194 C72.32,73.869 71.482,74.392 70.57,74.713 C70.102,74.879 69.615,74.99 69.121,75.047 C68.896,75.073 68.67,75.086 68.443,75.09 C59.767,75.145 51.09,75.09 42.414,75.09 L42.414,75.09 Z M42.43,70.69 C51.102,70.69 59.778,70.962 68.446,70.689 C68.514,70.686 68.581,70.68 68.648,70.672 C68.876,70.641 69.098,70.579 69.307,70.481 C69.844,70.231 70.274,69.764 70.478,69.207 C70.565,68.969 70.608,68.718 70.613,68.464 C70.669,59.777 70.889,51.085 70.612,42.402 C70.601,42.168 70.558,41.937 70.478,41.718 C70.25,41.097 69.747,40.597 69.128,40.369 C68.891,40.282 68.641,40.239 68.389,40.235 C59.701,40.185 51.008,39.95 42.324,40.236 C42.092,40.246 41.862,40.289 41.643,40.369 C41.033,40.594 40.534,41.083 40.303,41.692 C40.209,41.938 40.163,42.198 40.158,42.461 C40.105,51.149 39.885,59.841 40.159,68.524 C40.17,68.776 40.22,69.024 40.312,69.258 C40.53,69.811 40.971,70.266 41.515,70.504 C41.735,70.601 41.969,70.658 42.207,70.681 C42.282,70.687 42.355,70.69 42.43,70.69 L42.43,70.69 Z" id="Rounded-Rectangle-Symbol" fill="#D5D2CF"></path>
                    </g>
                    <path d="M960.906,84.969 C969.743,84.969 976.906,92.132 976.906,100.969 C976.906,109.805 969.743,116.969 960.906,116.969 C952.07,116.969 944.906,109.805 944.906,100.969 C944.906,92.132 952.07,84.969 960.906,84.969 L960.906,84.969 Z" id="Camera" fill="#3E3E3E"></path>
                </g>
            </g>
        </g>
    </g>
</svg>